<?xml version="1.0" standalone="no"?>
<!DOCTYPE svg PUBLIC "-//W3C//DTD SVG 20010904//EN"
 "http://www.w3.org/TR/2001/REC-SVG-20010904/DTD/svg10.dtd">
<svg version="1.0" xmlns="http://www.w3.org/2000/svg"
 width="1182.000000pt" height="1182.000000pt" viewBox="0 0 1182.000000 1182.000000"
 preserveAspectRatio="xMidYMid meet">
<metadata>
Created by potrace 1.11, written by Peter Selinger 2001-2013
</metadata>
<g transform="translate(0.000000,1182.000000) scale(0.100000,-0.100000)"
fill="#000000" stroke="none">
<path d="M0 9723 l1 -2098 46 -130 c53 -153 52 -136 28 -480 -2 -38 -7 -110
-10 -160 -3 -49 -7 -121 -10 -160 -3 -38 -7 -113 -10 -165 -2 -52 -7 -144 -10
-205 -27 -509 -30 -633 -30 -1225 l0 -595 38 -69 c21 -38 36 -75 33 -82 -4
-11 -22 -118 -66 -384 -5 -30 -9 -444 -9 -920 -1 -825 0 -870 18 -942 19 -73
36 -113 75 -171 11 -16 15 -31 10 -36 -5 -4 -30 -25 -57 -45 l-47 -38 0 -909
0 -909 1803 0 1803 0 22 43 c37 74 229 613 364 1019 89 270 76 250 148 233 33
-8 146 -8 189 0 27 5 32 3 24 -7 -26 -32 -490 -937 -550 -1073 -18 -38 -46
-101 -63 -139 -17 -38 -29 -70 -27 -72 2 -2 1796 -3 3986 -2 l3982 3 -80 123
c-44 67 -101 144 -125 170 l-45 48 67 135 c85 170 151 312 214 464 27 66 56
134 63 150 7 17 20 47 29 69 15 35 16 487 16 5073 l0 5034 -21 -12 c-12 -6
-49 -39 -83 -72 -55 -56 -67 -77 -128 -217 -99 -229 -135 -311 -140 -315 -2
-3 -1 24 3 60 8 63 49 161 225 534 30 62 54 115 54 117 0 2 20 47 45 100 l45
96 0 129 0 129 -2124 0 -2123 0 -28 -117 c-41 -174 -65 -266 -69 -270 -2 -2
-7 16 -10 40 -9 61 -15 94 -26 152 -5 28 -12 64 -14 80 -2 17 -7 49 -11 73
l-7 42 -3704 0 -3704 0 0 -2097z m4711 1825 c-18 -73 -47 -195 -56 -238 -3
-14 -42 -175 -51 -210 -2 -8 -12 -51 -22 -95 -11 -44 -36 -150 -57 -235 -20
-85 -44 -184 -52 -220 -8 -36 -16 -72 -18 -80 -3 -8 -19 -76 -36 -150 -18 -74
-33 -137 -35 -139 -2 -2 -55 11 -118 30 l-116 33 -34 56 c-19 30 -55 76 -80
101 l-46 45 110 180 c60 98 114 186 119 194 6 8 47 76 93 150 45 74 106 172
135 217 29 46 53 85 53 87 0 2 15 26 33 53 17 27 68 108 112 181 44 72 81 129
83 127 2 -2 -5 -41 -17 -87z m3934 -115 c15 -49 31 -99 36 -113 32 -92 128
-464 164 -630 2 -8 13 -55 25 -103 12 -49 20 -99 18 -110 -3 -12 -98 -151
-212 -309 l-207 -287 -50 30 c-28 16 -75 37 -105 48 -30 10 -57 21 -60 24 -3
3 3 43 15 89 11 46 32 133 46 193 15 61 44 182 65 270 33 134 92 380 105 435
73 309 130 550 131 550 1 0 14 -39 29 -87z m-8070 -110 c-10 -78 -17 -118 -20
-121 -1 -2 -7 28 -13 65 -9 64 -9 69 12 85 11 10 22 18 24 18 2 0 1 -21 -3
-47z m9751 -813 c-15 -176 -18 -206 -43 -395 -5 -38 -21 -144 -60 -397 -9 -60
-19 -108 -22 -108 -4 0 -26 87 -51 193 -50 216 -46 199 -55 251 -4 22 -11 50
-16 63 -5 13 -7 23 -5 23 1 0 -2 21 -9 47 l-12 48 126 186 c101 150 129 185
140 176 10 -9 12 -29 7 -87z m-4901 -682 c-4 -28 -8 -58 -10 -67 -4 -21 -17
-133 -18 -148 0 -7 -4 -13 -9 -13 -20 0 -19 36 3 128 29 120 26 108 28 132 0
11 4 20 7 20 3 0 2 -23 -1 -52z m-484 -2302 c44 -43 46 -46 87 -207 24 -90 41
-173 39 -184 -3 -11 -8 -51 -12 -90 -4 -38 -8 -77 -10 -85 -1 -8 -6 -46 -10
-83 -3 -37 -8 -76 -10 -85 -1 -9 -6 -46 -10 -82 -3 -36 -8 -76 -10 -90 -2 -14
-6 -54 -10 -90 -4 -36 -8 -76 -10 -90 -2 -14 -7 -54 -10 -90 -3 -36 -8 -76
-10 -90 -2 -14 -7 -52 -10 -85 -3 -33 -10 -103 -15 -155 -26 -250 -37 -390
-45 -555 -3 -66 -8 -130 -10 -142 -3 -12 -27 -55 -54 -96 -57 -85 -158 -275
-192 -359 -23 -59 -31 -64 -36 -25 -12 84 -59 173 -127 242 -41 40 -131 104
-168 118 -24 8 -23 18 7 77 14 27 39 107 56 177 17 70 48 200 69 288 37 155
156 654 165 691 2 11 12 48 20 84 9 36 18 74 21 85 8 41 14 64 58 245 25 102
47 196 49 210 3 14 13 54 22 90 9 36 18 72 20 80 42 189 82 340 90 340 5 0 31
-20 56 -44z m-3306 -288 c-2 -79 -7 -197 -10 -263 -2 -66 -7 -181 -10 -255
-10 -223 -23 -527 -30 -655 -13 -239 -27 -490 -30 -540 -1 -16 -3 -57 -4 -90
l-1 -61 -58 56 c-65 64 -132 106 -207 132 -58 20 -59 22 -31 173 2 11 7 42 10
68 4 27 9 59 12 70 2 12 7 42 10 67 3 25 7 52 9 60 5 17 11 55 20 120 3 25 15
101 26 170 11 69 22 141 25 160 3 19 7 46 9 60 3 14 7 48 10 75 4 28 8 57 10
65 2 8 7 38 11 65 3 28 8 59 10 69 2 11 8 55 14 99 8 54 20 92 37 120 40 63
110 211 140 298 15 43 29 79 30 79 2 0 1 -64 -2 -142z m1644 -1510 c11 -291
12 -303 44 -388 21 -59 80 -157 106 -178 11 -9 12 -15 4 -18 -29 -13 -167
-105 -256 -171 -92 -69 -98 -72 -93 -46 3 15 12 66 20 113 9 47 24 135 36 195
11 61 22 124 25 140 27 147 42 227 55 290 5 28 11 61 13 74 3 18 30 51 42 51
1 0 3 -28 4 -62z m1603 -809 l2 -214 -43 -100 c-39 -89 -130 -348 -135 -382
-4 -22 -12 -23 -13 0 -2 24 -22 175 -29 217 -2 14 -9 63 -15 110 l-12 85 36
90 c59 152 193 423 204 411 2 -1 4 -99 5 -217z m-3102 64 c41 -31 122 -70 166
-82 l41 -11 -13 -67 c-7 -38 -15 -86 -18 -108 -4 -22 -11 -67 -17 -100 -7 -33
-13 -69 -14 -80 -2 -11 -10 -58 -19 -105 -8 -47 -18 -103 -21 -125 -4 -22 -8
-47 -10 -55 -2 -8 -7 -31 -10 -50 -4 -19 -13 -73 -21 -120 -8 -47 -17 -92 -19
-100 -2 -8 -4 -26 -5 -40 -2 -30 -25 46 -34 112 -3 24 -7 52 -10 63 -2 11 -9
56 -16 100 -7 44 -14 89 -16 100 -2 10 -6 37 -9 60 -3 22 -8 56 -11 75 -5 36
-9 70 -19 155 -4 28 -8 61 -10 75 -2 14 -6 50 -10 80 -3 30 -8 66 -10 80 -2
14 -7 59 -11 100 -3 41 -9 97 -14 123 l-7 48 56 -55 c31 -30 67 -63 81 -73z
m8013 18 l89 -41 -6 -77 c-3 -43 -8 -125 -12 -183 -3 -58 -8 -125 -9 -150 -2
-25 -4 -65 -5 -90 -1 -48 -13 -40 -24 15 -3 17 -10 48 -15 70 -67 283 -112
474 -117 489 -3 10 -2 16 2 13 5 -2 49 -23 97 -46z m-1143 -250 c0 -10 16 -82
35 -160 20 -78 37 -150 39 -159 1 -9 6 -28 9 -42 4 -14 14 -56 22 -95 9 -38
19 -78 22 -88 4 -16 -1 -15 -46 8 -119 60 -257 67 -431 22 -86 -22 -286 -94
-365 -132 -16 -7 -31 -12 -33 -10 -2 2 34 56 79 121 130 185 164 232 235 337
60 87 72 98 108 108 23 6 57 15 76 20 19 5 80 29 135 52 55 24 103 42 108 40
4 -2 7 -12 7 -22z m-5005 -832 c10 -65 36 -355 49 -549 l5 -75 -46 -29 c-25
-16 -65 -48 -88 -70 -92 -90 -113 -136 -190 -417 -109 -403 -261 -916 -274
-932 -4 -4 -72 158 -150 360 -151 387 -167 422 -217 490 -28 38 -31 47 -24 85
5 24 11 61 14 83 15 96 47 272 53 290 6 21 13 27 208 209 200 186 238 221 279
257 21 19 51 45 66 59 134 122 304 269 308 265 2 -1 5 -13 7 -26z m7661 -860
c3 -24 7 -54 9 -67 3 -19 -31 -142 -40 -142 -3 0 3 92 9 155 2 17 4 48 5 69 1
50 9 42 17 -15z m-6486 -790 c0 -6 9 -29 20 -51 25 -53 25 -53 -10 -113 l-29
-50 1 117 c1 64 6 114 10 112 4 -3 8 -10 8 -15z m-3369 -746 c-5 -10 -31 -90
-59 -178 -28 -88 -71 -225 -97 -305 -62 -193 -156 -490 -196 -620 -17 -58 -35
-109 -39 -113 -5 -5 -16 24 -25 65 -30 130 -55 253 -55 268 0 8 19 35 43 59
39 42 117 156 117 174 0 43 257 600 302 654 15 19 20 16 9 -4z m959 -893 c29
-74 54 -138 56 -141 2 -4 -22 -19 -54 -35 -88 -43 -165 -127 -213 -231 -22
-48 -47 -103 -55 -120 -20 -45 -27 -42 -10 5 8 20 23 66 34 102 37 121 174
545 179 553 7 12 7 14 63 -133z"/>
</g>
</svg>
