<svg width="1920" height="1095" viewBox="0 0 1920 1095" fill="none" xmlns="http://www.w3.org/2000/svg">
<path d="M679.924 798.634C675.783 796.356 671.988 794.078 668.538 791.609C661.637 787.053 668.883 792.938 671.298 793.508C669.918 793.128 666.468 789.901 665.432 789.141C658.877 783.825 652.666 778.13 647.491 772.434C646.111 771.105 645.076 769.586 643.696 768.067C642.661 766.928 638.52 761.422 642.661 766.738C646.801 772.054 642.661 766.548 641.626 765.409C640.245 763.51 639.21 761.802 637.83 759.903C633.345 752.878 629.894 745.854 627.134 738.639C607.468 752.878 587.801 766.928 568.134 781.167C726.503 780.598 884.871 783.825 1042.89 791.04C1057.04 791.609 1076.71 786.863 1086.02 781.167C1095.34 775.661 1100.86 769.396 1102.93 761.802C1106.72 746.803 1089.13 727.627 1059.11 724.969C904.193 710.73 748.93 693.263 602.292 661.177C596.772 660.038 591.251 658.709 585.731 657.57C584.006 657.19 581.935 656.81 580.21 656.241C572.965 654.722 592.286 659.089 581.935 656.62C571.585 654.152 561.234 651.684 550.883 649.026C529.491 643.52 508.444 637.825 487.742 631.749C477.392 652.633 467.041 673.518 457.035 694.402C546.397 691.744 635.76 693.643 724.433 700.288C718.912 699.908 713.737 699.528 708.216 699.149C791.023 705.414 872.45 715.476 952.152 729.336C947.321 708.831 942.491 688.327 937.66 668.012C917.304 674.467 896.602 680.353 875.21 685.669C871.07 686.618 853.473 690.415 871.07 686.808C865.895 687.947 860.719 689.086 855.544 690.225C844.503 692.504 833.807 694.782 822.421 696.87C779.637 704.844 735.818 710.92 691.655 716.046C604.362 726.108 516.035 732.564 429.433 743.765C379.058 750.22 329.374 758.384 281.415 769.396C268.649 772.244 258.298 775.282 249.672 781.357C241.737 787.053 235.871 794.267 236.561 801.672C237.941 816.671 254.848 829.581 281.415 834.138C493.263 869.071 711.666 891.475 931.795 900.968C992.52 903.626 1052.9 905.144 1113.63 905.714C1143.99 906.094 1169.52 892.614 1173.66 876.666C1177.46 860.528 1159.51 844.01 1129.84 839.833C926.275 811.545 719.257 791.799 511.895 773.953C453.93 769.016 395.965 764.27 338.345 759.334C332.824 781.357 327.649 803.381 322.128 825.404C433.228 829.391 543.982 835.467 654.392 843.631C648.871 843.251 643.696 842.871 638.175 842.491C682.684 845.719 726.848 849.326 771.011 853.313C778.947 854.073 786.883 854.832 794.473 855.781C802.409 856.731 810 858.629 817.59 859.579C807.585 857.3 805.859 856.731 811.38 858.25C813.105 858.819 815.175 859.199 816.9 859.768C820.696 860.908 824.146 862.047 827.596 863.376C832.772 865.464 831.047 864.705 822.766 861.287C824.491 862.047 825.871 862.806 827.596 863.755C830.701 865.464 840.707 872.299 829.321 863.945C832.427 850.465 835.532 836.796 838.982 823.316C832.427 827.872 824.491 833.378 815.52 836.416C815.865 836.226 828.286 831.48 820.351 834.327C818.28 835.087 815.865 835.846 813.795 836.606C808.965 838.314 803.789 839.643 798.614 840.972C788.263 843.82 810.69 838.314 803.444 840.023C801.029 840.593 798.614 840.972 796.199 841.542C792.058 842.301 787.573 843.251 783.088 843.82C772.737 845.529 762.386 846.858 752.035 847.997C699.935 853.883 647.491 859.199 595.392 864.705C485.327 876.286 375.263 888.057 265.199 899.639C202.403 906.284 139.953 912.929 77.1577 919.574C47.4852 922.801 29.5437 941.028 33.339 956.406C37.4793 973.114 62.6665 985.075 93.3741 985.454C333.514 989.631 573.655 991.72 813.795 991.53C882.111 991.53 950.082 991.15 1018.4 990.77C1018.4 968.367 1018.4 945.964 1018.4 923.561C917.994 925.08 817.245 925.269 717.532 917.865C723.052 918.245 728.228 918.624 733.748 919.004C662.672 913.688 592.286 904.385 525.696 889.576C511.549 886.538 534.321 891.665 524.316 889.386C520.175 888.437 516.035 887.488 511.895 886.349C502.924 884.07 494.298 881.792 485.672 879.324C471.181 875.337 457.035 871.16 443.234 866.224C437.713 864.325 432.538 862.237 427.362 860.338C417.356 856.351 437.023 864.705 429.778 861.287C427.017 859.958 423.912 858.629 421.152 857.3C410.801 852.364 401.485 847.048 392.514 841.352C391.479 840.593 389.754 839.644 388.719 838.884C389.064 839.454 397.69 845.529 392.859 841.732C390.444 839.644 387.684 837.745 385.269 835.656C381.128 831.859 376.988 828.062 373.538 824.075C368.017 817.62 378.368 831.29 373.883 824.455C372.503 822.366 371.123 820.278 370.088 818C367.672 813.253 365.602 808.507 364.222 803.57C364.912 806.608 365.602 809.456 366.292 812.494C364.912 806.988 364.567 801.672 364.567 796.166C358.702 804.14 352.491 811.924 346.626 819.898C342.83 821.987 338.69 823.506 333.514 824.265C327.649 825.404 326.614 825.594 330.754 825.024C325.234 825.404 320.058 825.784 314.538 826.164C316.263 825.974 317.643 825.974 319.368 826.164C313.848 825.784 308.672 825.404 303.152 825.024C304.532 825.214 306.257 825.594 307.982 825.594C297.976 823.126 295.216 822.366 299.357 823.885C301.772 824.835 301.082 824.455 296.596 822.556C287.971 818.759 298.666 823.885 300.737 825.214C307.982 829.771 300.737 823.885 298.666 823.506C299.702 823.695 301.772 825.974 302.462 826.543C305.567 829.011 307.982 831.669 310.742 834.327C322.128 845.339 332.824 856.351 343.175 867.553C353.526 878.564 363.187 889.766 372.848 900.968C378.023 907.043 382.854 913.118 387.684 919.194C389.754 921.852 391.824 924.7 393.895 927.358C392.859 926.029 391.824 924.7 390.789 923.371C391.479 924.32 392.514 925.459 393.204 926.409C394.585 928.117 395.62 929.826 397 931.535C411.146 917.675 425.292 904.005 439.783 890.146C438.748 890.146 437.713 890.336 436.678 890.336C442.199 889.956 447.374 889.576 452.894 889.196C446.684 889.576 440.819 889.386 434.608 889.007C440.128 889.386 445.304 889.766 450.824 890.146C446.684 889.766 442.889 889.386 438.748 888.817C436.678 888.437 434.953 888.247 432.883 887.867C427.017 886.728 429.088 887.108 438.748 889.386C432.538 887.108 424.947 885.589 418.737 883.121C417.011 882.362 414.941 881.602 413.216 881.033C420.807 884.45 422.187 885.02 417.356 882.741C413.906 881.032 410.111 879.324 406.661 877.615C400.45 874.387 394.24 871.16 388.374 867.742C375.953 860.338 364.222 852.554 352.836 844.58C349.041 841.732 349.731 842.491 355.596 846.668C354.216 845.529 352.491 844.58 351.111 843.441C348.696 841.542 345.935 839.643 343.52 837.745C338 833.568 332.824 829.581 327.304 825.404C305.567 808.317 285.9 790.66 267.614 772.434C258.298 763.131 249.327 753.638 240.702 744.145C236.561 739.778 233.111 735.222 228.971 730.665C226.21 727.437 226.9 728.197 231.041 733.133C230.006 731.804 229.316 730.665 228.626 729.336C227.245 726.678 226.21 724.21 225.52 721.552C226.21 724.59 226.9 727.437 227.59 730.475C227.245 727.817 227.245 725.349 227.935 722.691C227.245 725.729 226.555 728.577 225.865 731.614C225.865 731.424 227.245 727.058 227.935 727.058C228.626 727.058 219.655 735.791 225.52 730.665C229.316 727.437 214.479 737.12 221.035 733.893C227.245 730.855 225.175 733.703 215.859 735.791C217.585 735.412 219.31 734.652 221.035 734.272C226.9 732.374 205.509 737.31 214.134 735.981C218.62 735.222 223.105 734.652 227.935 734.272C222.415 734.652 217.24 735.032 211.719 735.412C238.631 733.893 267.614 736.551 294.526 737.88C326.269 739.399 358.011 741.297 389.754 743.765C384.234 743.386 379.058 743.006 373.538 742.626C497.058 751.929 619.199 767.118 738.234 788.002C763.076 792.369 794.818 785.344 807.24 772.624C819.316 760.093 818.625 741.867 797.579 731.994C657.842 665.923 518.105 600.043 378.368 533.972C339.035 515.366 299.702 496.76 260.023 478.154C251.052 496.95 242.082 515.556 233.111 534.352C243.117 532.264 253.123 530.934 263.473 530.175C257.953 530.555 252.778 530.934 247.257 531.314C262.783 530.365 277.965 530.555 293.491 531.504C287.971 531.124 282.795 530.745 277.275 530.365C325.924 534.162 372.503 544.604 418.737 552.958C467.386 561.881 515.69 570.615 564.339 579.538C660.602 597.195 756.865 614.662 853.473 632.319C907.988 642.381 962.503 652.254 1017.36 662.316C1022.88 640.293 1028.06 618.269 1033.58 596.246C890.046 600.422 746.514 604.599 602.982 608.776C572.62 609.725 547.088 620.927 542.947 637.825C541.222 645.039 542.947 653.013 550.193 659.278C559.509 667.063 571.239 671.24 586.766 674.657C779.292 717.375 981.479 743.765 1182.29 770.915C1240.94 778.889 1299.6 786.673 1358.25 794.647C1349.28 775.851 1340.31 757.245 1331.34 738.449C1321.33 744.145 1309.26 748.702 1299.25 754.207C1310.98 747.752 1304.43 751.929 1300.63 753.638C1297.87 754.777 1295.11 755.916 1292.35 756.865C1286.83 758.954 1280.96 760.852 1275.1 762.751C1263.71 766.548 1251.64 769.776 1239.56 772.813C1235.77 773.763 1224.38 776.041 1241.98 772.244C1238.87 772.813 1235.77 773.573 1232.66 774.332C1226.45 775.661 1220.24 776.8 1214.03 777.94C1164.69 787.053 1113.28 791.799 1061.87 796.166C1048.41 797.305 1031.51 805.089 1025.3 811.544C1018.74 818.379 1016.33 825.404 1018.05 832.998C1022.19 849.516 1047.38 861.857 1078.09 862.047C1098.1 862.237 1118.11 862.996 1138.12 864.515C1132.6 864.135 1127.43 863.755 1121.91 863.376C1157.1 866.034 1191.95 870.59 1225.76 876.856C1234.39 878.564 1242.67 880.273 1251.29 881.982C1253.02 882.361 1254.74 882.741 1256.81 883.121C1260.95 884.07 1259.23 883.69 1251.29 881.792C1252.33 882.931 1263.37 884.64 1265.78 885.399C1282.69 889.766 1298.91 894.512 1315.12 899.639C1319.95 879.134 1324.78 858.629 1329.61 838.314C1324.44 838.694 1319.61 839.264 1314.43 839.643C1319.95 839.264 1325.13 838.884 1330.65 838.504C1291.32 841.352 1251.64 841.162 1212.3 838.314C1217.82 838.694 1223 839.074 1228.52 839.454C1205.06 837.555 1181.6 834.897 1158.82 831.1C1147.44 829.201 1136.4 827.113 1125.36 824.835C1122.94 824.265 1120.53 823.885 1118.11 823.316C1116.39 822.936 1114.32 822.556 1112.59 822.177C1115.01 822.746 1117.42 823.316 1119.84 823.885C1113.97 822.177 1107.76 820.848 1101.55 819.329C1096.72 839.833 1091.89 860.338 1087.06 880.653C1107.76 877.995 1128.46 875.906 1149.16 874.198C1143.64 874.577 1138.47 874.957 1132.95 875.337C1190.22 871.16 1247.84 871.16 1305.12 875.147C1299.6 874.767 1294.42 874.387 1288.9 874.008C1341.69 877.995 1393.44 885.209 1443.13 895.652C1456.58 898.499 1478.32 896.411 1490.05 892.234C1501.44 888.247 1509.72 883.121 1514.89 876.096C1525.94 861.667 1517.31 841.732 1490.05 834.138C1475.56 830.151 1461.76 825.784 1448.3 820.848C1441.75 818.379 1435.19 815.911 1428.98 813.253C1425.88 811.924 1420.7 809.266 1433.81 815.342C1432.09 814.582 1430.36 813.823 1428.64 813.063C1425.19 811.544 1422.08 810.026 1418.63 808.507C1392.06 796.166 1367.57 782.496 1344.79 767.877C1338.93 764.27 1333.41 760.663 1327.89 756.865C1325.13 755.157 1322.71 753.448 1320.3 751.549C1318.92 750.6 1317.19 749.461 1315.81 748.512C1314.43 747.562 1307.88 742.816 1314.09 747.373C1320.3 751.929 1311.67 745.664 1310.29 744.525C1307.53 742.436 1304.43 740.348 1301.67 738.259C1295.8 734.082 1290.28 729.716 1284.76 725.349C1262.68 708.262 1241.98 690.985 1221.27 673.328C1209.89 663.645 1198.85 653.962 1187.81 644.28C1182.29 639.343 1177.11 634.217 1172.28 629.091C1169.87 626.433 1171.94 625.104 1174.01 631.559C1173.66 630.23 1172.28 629.091 1171.59 627.762C1169.87 624.534 1168.49 621.307 1167.45 618.079C1168.14 621.117 1168.83 623.965 1169.52 627.003C1168.83 623.016 1168.83 619.218 1169.52 615.231C1168.83 618.269 1168.14 621.117 1167.45 624.155C1167.8 622.826 1168.48 621.497 1168.83 620.168C1154.68 627.952 1140.54 635.736 1126.05 643.71C1155.72 639.913 1186.08 636.685 1216.44 634.407C1210.92 634.787 1205.75 635.166 1200.23 635.546C1261.99 630.99 1324.09 629.85 1386.2 632.319C1418.29 633.458 1448.65 615.991 1447.27 598.714C1445.54 579.158 1420.36 566.818 1386.2 565.109C1334.79 562.641 1283.38 576.69 1248.53 597.005C1233.35 605.739 1226.8 617.889 1233.01 629.661C1238.87 641.622 1255.09 649.026 1275.79 653.203C1295.8 657.19 1315.81 661.557 1335.82 665.923C1345.83 668.202 1355.84 670.48 1365.84 672.758C1362.74 672.189 1355.15 670.29 1362.39 671.999C1364.81 672.568 1367.22 673.138 1369.98 673.708C1375.5 675.037 1381.02 676.366 1386.54 677.695C1426.91 687.567 1466.94 698.009 1506.27 709.211C1506.27 689.846 1506.27 670.48 1506.27 651.115C1437.95 671.619 1369.98 692.124 1301.67 712.629C1283.03 718.324 1271.3 730.095 1271.3 741.677C1271.3 752.499 1282.34 765.979 1301.67 770.725C1361.36 785.344 1421.05 799.963 1480.74 814.392C1508.34 821.037 1537.32 827.113 1563.54 834.897C1567.68 836.226 1571.82 837.745 1575.96 839.074C1581.83 840.972 1564.23 833.568 1571.13 836.985C1573.2 837.935 1575.27 839.074 1577 840.023C1581.83 842.871 1580.79 844.77 1574.58 837.745C1575.62 838.884 1577.69 840.403 1579.07 841.542C1584.59 846.099 1574.93 833.378 1577.34 839.074C1578.03 840.593 1578.72 842.112 1579.41 843.63C1578.72 840.593 1578.03 837.745 1577.34 834.707C1578.03 837.555 1578.03 840.213 1577.69 843.061C1587.7 833.378 1597.7 823.695 1608.05 814.013C1596.32 818.759 1583.9 823.316 1571.13 827.303C1565.27 829.201 1559.06 830.91 1552.85 832.619C1549.4 833.568 1546.29 834.517 1542.84 835.277C1538.01 836.606 1529.04 837.175 1543.88 835.087C1531.11 836.796 1518.69 840.403 1506.27 842.301C1492.47 844.39 1478.32 845.909 1464.18 847.048C1469.7 846.668 1474.87 846.288 1480.39 845.909C1461.76 847.238 1442.78 847.617 1423.81 847.238C1391.72 846.478 1361.36 863.186 1362.74 880.843C1364.12 899.828 1389.65 913.308 1423.81 914.447C1547.33 918.434 1670.85 922.232 1794.37 926.219C1788.85 904.195 1783.67 882.172 1778.15 860.148C1760.56 862.047 1742.61 863.566 1725.02 864.895C1730.54 864.515 1735.71 864.135 1741.23 863.755C1683.96 867.932 1625.99 869.071 1568.03 867.173C1542.5 866.413 1514.89 878.185 1509.03 891.854C1506.61 897.74 1506.61 903.815 1509.03 909.701C1512.13 916.916 1524.56 926.598 1536.98 929.826C1632.2 953.938 1730.88 969.127 1835.43 974.443C1880.63 976.721 1912.71 944.065 1888.22 923.94C1847.85 891.095 1802.99 859.579 1753.31 830.72C1753.31 846.478 1753.31 862.426 1753.31 878.185C1756.76 876.286 1759.87 874.387 1763.32 872.489C1765.39 871.35 1767.8 870.211 1769.87 869.261C1771.6 868.502 1778.15 865.654 1770.56 868.882C1762.63 872.299 1774.36 867.363 1776.77 866.603C1780.91 865.084 1785.4 863.755 1789.54 862.426C1791.26 861.857 1799.54 858.819 1801.27 859.199C1800.92 859.199 1787.12 862.237 1795.75 860.528C1797.82 860.148 1799.89 859.768 1801.96 859.389C1810.93 857.68 1820.25 856.731 1829.56 855.971C1824.04 856.351 1818.87 856.731 1813.34 857.11C1825.77 856.351 1838.19 856.351 1850.61 857.3C1845.09 856.92 1839.91 856.541 1834.39 856.161C1838.53 856.541 1842.67 856.92 1846.81 857.49C1876.83 861.287 1906.85 853.883 1918.92 838.125C1931.34 821.797 1918.92 806.228 1894.08 796.166C1796.09 757.055 1696.03 719.463 1593.56 683.96C1588.73 704.465 1583.9 724.969 1579.07 745.284C1613.57 737.88 1649.46 732.564 1686.37 729.716C1680.85 730.095 1675.68 730.475 1670.16 730.855C1707.77 728.197 1745.37 728.197 1782.98 730.855C1777.46 730.475 1772.29 730.095 1766.77 729.716C1774.7 730.285 1782.29 731.045 1789.88 731.804C1806.44 733.513 1821.97 733.133 1836.81 728.387C1849.57 724.4 1861.65 716.236 1864.75 708.262C1872 690.795 1855.09 671.619 1821.97 666.873C1808.51 664.974 1795.4 662.506 1782.64 659.848C1771.25 657.57 1794.71 662.886 1784.36 660.228C1781.26 659.468 1777.81 658.519 1774.7 657.76C1767.8 655.861 1760.9 653.962 1754.34 651.684C1741.58 647.697 1729.5 643.14 1717.77 638.394C1712.94 636.495 1729.16 643.33 1718.46 638.584C1715.36 637.255 1712.6 635.926 1709.84 634.597C1703.63 631.559 1697.41 628.521 1691.55 625.294C1687.41 642.951 1683.27 660.418 1679.13 678.074C1681.54 677.505 1683.96 676.935 1686.72 676.366C1684.3 676.935 1681.89 677.505 1679.47 678.074C1683.27 677.315 1687.06 676.366 1690.51 675.606C1698.1 673.897 1705.35 672.379 1712.94 670.86C1727.43 668.012 1741.92 665.544 1756.41 663.076C1786.09 658.519 1816.1 655.102 1846.81 652.633C1841.29 653.013 1836.12 653.393 1830.6 653.773C1843.36 652.823 1856.47 652.064 1869.24 651.494C1891.32 650.545 1910.3 645.609 1922.03 634.787C1932.38 625.104 1934.1 610.485 1922.03 600.802C1882.7 569.855 1837.15 543.275 1781.26 521.631C1770.91 542.516 1760.56 563.4 1750.55 584.284C1753.31 584.474 1755.72 584.474 1758.48 584.664C1752.96 584.285 1747.79 583.905 1742.27 583.525C1750.55 584.284 1757.8 585.424 1765.73 586.942C1773.67 588.461 1758.83 585.424 1758.83 585.234C1759.52 585.044 1763.32 586.373 1764.01 586.563C1767.8 587.702 1771.6 588.841 1775.05 589.98C1777.12 590.74 1779.19 591.499 1780.91 592.259C1787.81 594.727 1776.08 590.55 1775.74 589.98C1777.46 591.689 1783.33 593.398 1786.09 594.917C1789.54 596.625 1792.64 598.524 1795.75 600.422C1797.13 601.182 1798.51 602.131 1799.89 603.08C1801.61 604.03 1807.48 608.396 1800.92 603.84C1794.37 599.093 1802.99 605.738 1804.72 606.878C1807.48 609.156 1810.24 611.434 1812.65 613.902C1815.07 616.371 1817.48 618.839 1819.56 621.307C1820.59 622.446 1821.63 623.585 1822.32 624.724C1825.42 628.521 1817.14 617.32 1820.94 623.016C1828.18 633.837 1833.01 644.849 1836.12 656.241C1835.43 653.203 1834.74 650.355 1834.05 647.317C1837.84 662.886 1837.84 678.644 1834.05 694.212C1834.74 691.175 1835.43 688.327 1836.12 685.289C1834.39 692.314 1831.98 699.149 1828.53 705.983C1827.15 709.021 1825.42 712.059 1823.35 714.907C1822.32 716.615 1820.94 718.324 1819.9 720.223C1816.1 725.919 1825.77 713.008 1820.94 718.894C1844.05 713.768 1866.82 708.641 1889.94 703.515C1884.08 702.946 1887.18 703.705 1898.91 705.794C1905.47 707.882 1910.99 710.73 1914.78 714.337C1910.3 707.312 1917.54 719.653 1915.82 716.426C1913.75 712.439 1912.02 708.452 1910.99 704.275C1911.68 707.312 1912.37 710.16 1913.06 713.198C1890.29 609.346 1885.46 503.785 1893.39 399.173C1895.81 369.365 1899.26 339.558 1903.74 309.75C1863.03 309.75 1822.32 309.75 1781.6 309.75C1796.78 399.173 1803.68 489.166 1802.99 578.968C1843.02 575.931 1883.04 573.083 1923.06 570.045C1908.23 527.137 1895.81 483.85 1885.11 440.372C1885.8 443.41 1886.49 446.258 1887.18 449.296C1858.54 331.394 1843.36 212.733 1831.29 94.0714C1827.84 60.4665 1824.73 26.8617 1821.28 -6.74312C1819.56 -24.21 1794.37 -41.1075 1760.21 -40.348C1727.09 -39.5886 1699.48 -25.539 1699.14 -6.74312C1698.1 89.7047 1696.72 185.963 1695.69 282.41C1695.34 309.75 1695 337.279 1694.65 364.619C1732.61 358.923 1770.56 353.227 1808.51 347.721C1805.75 344.304 1802.99 340.887 1800.23 337.469C1798.85 335.95 1797.82 334.242 1796.44 332.723C1804.37 341.266 1798.16 335.191 1796.78 333.102C1791.95 326.647 1787.47 320.192 1782.98 313.737C1773.67 299.498 1765.04 285.068 1757.45 270.449C1742.27 240.832 1730.88 210.644 1723.29 180.267C1723.98 183.305 1724.67 186.152 1725.36 189.19C1724.33 184.823 1723.29 180.457 1722.26 176.09C1712.25 185.773 1702.25 195.455 1691.89 205.138C1698.79 202.29 1706.04 199.822 1713.29 197.354C1717.08 196.215 1720.53 195.076 1724.33 194.126C1726.05 193.557 1728.12 193.177 1729.85 192.608C1720.53 194.696 1717.77 195.266 1722.26 194.316C1737.09 191.279 1751.58 189 1767.46 187.861C1761.94 188.241 1756.76 188.621 1751.24 189C1767.11 187.861 1782.98 187.861 1798.51 189C1792.99 188.621 1787.81 188.241 1782.29 187.861C1793.33 188.621 1804.03 189.95 1814.38 191.658C1818.87 192.418 1827.15 195.266 1831.63 195.076C1828.87 195.076 1817.14 191.658 1826.8 194.126C1829.56 194.886 1832.32 195.645 1835.08 196.405C1840.26 197.924 1845.09 199.442 1850.26 201.151C1853.02 202.101 1855.78 203.05 1858.2 204.189C1860.27 204.948 1868.2 208.366 1859.92 204.759C1851.64 201.151 1859.58 204.759 1861.3 205.518C1863.72 206.657 1866.48 207.986 1868.89 209.125C1874.07 211.593 1878.9 214.251 1883.39 217.099C1887.53 199.442 1891.67 181.976 1895.81 164.319C1887.53 166.597 1879.59 168.875 1870.96 170.964C1868.55 171.533 1866.13 172.103 1863.72 172.673C1857.51 174.191 1858.89 173.812 1867.51 171.723C1865.44 171.344 1858.54 173.622 1856.82 174.002C1840.26 177.419 1823.01 180.457 1805.75 183.115C1771.6 188.241 1736.75 191.658 1701.56 194.316C1707.08 193.937 1712.25 193.557 1717.77 193.177C1683.96 195.645 1650.15 197.354 1616.33 199.063C1591.49 200.202 1570.79 206.467 1560.44 219.757C1550.43 232.857 1556.99 245.768 1573.2 256.4C1580.79 261.526 1588.73 266.652 1596.32 271.968C1599.77 274.436 1603.57 276.905 1607.02 279.373C1607.71 279.752 1615.64 285.448 1609.43 281.081C1603.22 276.715 1610.47 281.841 1611.85 282.79C1626.68 293.612 1641.52 304.624 1655.67 315.825C1684.65 338.608 1711.91 361.961 1737.78 385.883C1749.86 369.365 1761.94 353.038 1774.36 336.52C1700.52 351.898 1623.23 360.632 1545.26 366.517C1550.78 366.138 1555.95 365.758 1561.47 365.378C1514.2 368.796 1466.94 371.264 1419.67 373.732C1393.79 375.061 1367.22 383.225 1360.67 398.414C1354.8 412.653 1364.12 429.171 1388.61 436.385C1477.63 462.775 1566.65 488.976 1656.01 515.366C1651.87 497.709 1647.73 480.242 1643.59 462.586C1622.89 477.015 1600.12 490.495 1575.27 502.646C1569.41 505.493 1563.54 508.151 1557.68 510.999C1554.23 512.518 1542.5 516.885 1557.68 511.189C1554.92 512.328 1552.16 513.467 1549.4 514.607C1536.29 519.733 1522.83 524.669 1509.03 529.036C1482.81 537.39 1472.46 555.806 1484.19 570.994C1495.92 586.183 1526.63 594.917 1556.3 590.36C1588.73 585.424 1617.02 576.31 1642.9 564.729C1652.91 560.362 1662.22 555.426 1670.5 549.92C1680.51 543.465 1689.82 537.39 1693.62 528.846C1697.07 520.872 1696.38 512.898 1692.24 505.114C1686.03 493.153 1669.81 483.09 1650.84 476.825C1635.31 471.699 1620.47 470.18 1603.22 468.661C1571.13 465.813 1539.05 462.965 1506.61 460.307C1490.05 458.788 1473.15 457.08 1456.24 456.32C1442.09 455.561 1428.29 456.51 1414.49 457.839C1389.3 460.117 1362.74 467.332 1346.18 478.344C1334.44 486.128 1325.47 494.482 1320.99 504.354C1317.88 511.759 1315.81 519.543 1319.61 526.947C1324.09 536.061 1335.13 541.756 1347.21 547.642C1373.09 559.983 1400 571.944 1427.26 583.335C1480.39 605.738 1536.29 625.863 1595.29 643.33C1615.99 623.965 1636.34 604.599 1657.05 585.234C1638.07 580.297 1619.44 574.981 1601.5 568.906C1592.87 565.868 1584.25 562.831 1575.62 559.603C1570.79 557.894 1566.3 555.996 1561.82 554.287C1557.68 552.578 1541.12 545.364 1558.37 552.958C1522.83 537.2 1489.71 520.302 1459.69 501.317C1452.1 496.57 1444.85 491.824 1437.95 487.077C1435.88 485.748 1434.16 484.419 1432.09 483.09C1424.5 477.964 1441.06 489.735 1434.16 484.419C1430.36 481.571 1426.57 478.913 1422.77 476.065C1408.28 465.054 1394.82 453.852 1382.06 442.461C1368.95 430.689 1356.53 418.539 1345.14 406.198C1339.62 400.122 1334.1 394.047 1328.92 387.971C1326.16 384.554 1323.4 381.137 1320.64 377.909C1319.61 376.77 1318.92 375.631 1317.88 374.492C1316.85 373.352 1316.16 372.213 1315.12 371.074C1318.92 376.2 1319.95 377.15 1317.19 373.922C1294.08 343.165 1275.44 311.459 1261.64 278.993C1259.57 287.537 1257.5 296.27 1255.43 304.814C1257.16 302.725 1260.26 300.637 1261.64 298.548C1263.71 295.321 1253.36 304.624 1257.16 301.966C1260.61 299.498 1265.78 300.257 1251.29 304.244C1252.67 303.864 1254.05 303.295 1255.43 302.915C1261.3 300.637 1248.19 304.814 1247.15 304.814C1249.22 305.193 1256.12 303.485 1258.54 303.295C1253.02 303.675 1247.84 304.054 1242.32 304.434C1247.84 304.054 1253.36 304.244 1259.23 304.624C1253.71 304.244 1248.53 303.864 1243.01 303.485C1247.5 303.864 1251.98 304.434 1256.47 305.003C1259.57 305.573 1273.72 308.421 1262.33 305.953C1251.98 303.485 1259.57 305.383 1261.99 305.953C1264.4 306.712 1266.82 307.282 1269.58 308.041C1274.41 309.56 1279.58 311.079 1284.41 312.598C1294.77 315.825 1305.12 319.433 1314.78 323.23C1319.61 324.939 1324.44 326.837 1328.92 328.736C1331.34 329.685 1333.75 330.634 1335.82 331.584C1346.18 335.761 1324.44 326.647 1334.79 331.014C1375.16 348.861 1411.04 369.175 1442.78 391.769C1462.45 372.973 1482.46 354.367 1502.13 335.571C1480.74 332.153 1459.69 328.736 1438.64 324.559C1433.47 323.61 1428.64 322.47 1423.46 321.521C1421.05 320.952 1418.98 320.572 1416.56 320.002C1406.21 317.724 1430.02 323.23 1420.36 320.952C1410.01 318.483 1399.65 315.636 1389.65 312.788C1379.99 309.94 1370.67 306.712 1361.7 303.295C1359.29 302.346 1356.87 301.396 1354.46 300.447C1348.59 298.169 1366.19 305.573 1358.25 302.156C1353.42 300.067 1348.94 297.789 1344.1 295.511C1335.48 291.144 1327.54 286.587 1319.95 281.651C1317.19 279.752 1311.33 274.626 1321.33 282.79C1319.61 281.271 1317.54 279.752 1315.47 278.234C1311.67 275.196 1307.88 271.968 1304.43 268.551C1292.35 285.068 1280.27 301.396 1267.85 317.914C1376.88 293.992 1489.71 275.955 1605.29 264.754C1628.75 262.475 1646.01 248.806 1649.11 236.844C1652.22 224.694 1641.87 208.935 1620.13 203.429C1526.28 180.077 1432.43 156.535 1338.93 133.182C1334.1 153.687 1329.27 174.191 1324.44 194.506C1383.44 186.152 1443.13 179.697 1503.51 175.331C1497.99 175.71 1492.81 176.09 1487.29 176.47C1588.04 169.255 1689.82 167.546 1791.26 171.533C1785.74 149.51 1780.57 127.486 1775.05 105.463C1764.7 106.982 1754.69 108.311 1743.99 109.07C1749.51 108.69 1754.69 108.311 1760.21 107.931C1742.61 109.07 1724.67 109.07 1707.08 107.741C1712.6 108.121 1717.77 108.501 1723.29 108.88C1710.53 107.931 1698.45 106.222 1686.37 104.134C1683.27 103.564 1680.16 102.995 1677.4 102.425C1674.99 101.856 1665.67 99.7671 1675.68 102.045C1686.03 104.514 1674.64 101.666 1672.57 101.096C1669.47 100.337 1666.71 99.3874 1663.6 98.628C1652.22 95.2106 1641.52 91.0336 1630.82 87.0466C1645.66 92.7424 1635.31 88.9452 1632.2 87.4263C1629.44 86.0973 1626.68 84.9582 1624.27 83.6292C1619.09 80.9712 1613.92 78.1234 1608.74 75.2755C1608.74 91.0337 1608.74 106.982 1608.74 122.74C1613.92 120.082 1619.09 117.424 1624.61 114.766C1628.41 113.057 1637.72 110.399 1623.23 115.146C1625.65 114.386 1627.72 113.247 1630.13 112.298C1640.48 108.121 1651.87 104.514 1663.26 101.286C1666.36 100.527 1669.12 99.7672 1672.23 99.0077C1681.54 96.5396 1661.19 101.286 1668.09 99.957C1673.61 98.8179 1679.13 97.6787 1684.65 96.7294C1696.72 94.641 1709.15 93.312 1721.91 92.3627C1716.39 92.7424 1711.22 93.1221 1705.7 93.5018C1723.29 92.3627 1741.23 92.3627 1758.83 93.5018C1753.31 93.1221 1748.13 92.7424 1742.61 92.3627C1752.62 93.1222 1762.28 94.0713 1771.94 95.5902C1776.43 96.3497 1781.26 97.1091 1785.74 97.8685C1787.81 98.2483 1789.88 98.628 1791.95 99.0077C1803.34 101.286 1778.15 95.5902 1789.54 98.4381C1785.4 80.7813 1781.26 63.3144 1777.12 45.6576C1690.51 103.564 1603.57 161.661 1516.96 219.567C1497.64 232.478 1477.63 245.578 1463.14 260.197C1446.23 277.094 1436.23 294.941 1433.81 314.117C1431.4 332.913 1440.02 352.468 1452.44 370.125C1463.83 386.073 1476.94 401.451 1495.57 415.121C1533.53 443.6 1585.63 468.661 1650.49 475.686C1674.99 478.344 1698.79 474.926 1714.67 463.725C1730.54 452.523 1730.54 438.853 1719.5 426.513C1645.66 342.975 1569.06 260.197 1489.02 178.368C1485.91 191.848 1482.81 205.518 1479.36 218.998C1521.45 199.442 1563.2 179.697 1605.29 160.142C1616.33 155.016 1623.92 144.004 1623.23 136.41C1622.54 127.486 1617.02 119.133 1605.29 112.677C1551.47 82.3002 1485.22 60.0868 1417.25 40.7214C1343.76 20.0268 1270.27 -0.288019 1196.43 -20.7927C1186.08 0.091745 1175.73 20.9761 1165.72 41.8604C1333.75 34.8358 1502.13 28.0008 1670.16 20.9761C1694.31 20.0268 1718.12 19.0776 1742.27 17.9384C1763.66 16.9891 1786.43 14.9007 1808.17 16.0398C1802.65 15.6601 1797.47 15.2803 1791.95 14.9006C1794.02 15.0905 1796.09 15.2803 1798.16 15.6601C1788.85 13.1919 1786.78 12.8123 1792.64 14.5209C1784.71 10.9136 1782.98 10.1542 1787.12 12.4324C1780.91 7.68596 1779.53 6.54692 1782.98 9.39482C1785.05 11.2934 1786.78 13.5717 1788.85 15.4703C1785.05 10.1542 1784.02 9.205 1786.43 12.6224C1787.12 13.7615 1787.81 15.0905 1788.5 16.2297C1794.71 27.0516 1799.54 38.0633 1804.72 49.075C1816.1 72.8072 1827.84 96.5395 1839.22 120.272C1848.54 107.551 1857.85 95.0206 1867.17 82.3002C1864.75 82.8697 1862.34 83.4393 1859.92 84.1987C1850.95 86.477 1863.37 83.2495 1863.37 83.4394C1863.37 83.6293 1848.54 86.4771 1846.81 86.8568C1836.46 88.9452 1825.77 90.654 1815.07 92.3627C1794.02 95.5903 1772.63 97.8685 1750.89 99.3874C1756.41 99.0077 1761.59 98.628 1767.11 98.2483C1691.89 103.754 1614.95 102.235 1539.39 100.527C1459 98.8179 1378.61 95.7802 1298.56 91.4135C1253.02 88.9453 1207.13 85.9075 1161.58 82.6799C1167.1 83.0596 1172.28 83.4394 1177.8 83.8192C1073.95 76.035 970.783 66.1623 868.31 54.0114C868.31 75.6552 868.31 97.1092 868.31 118.753C1023.57 102.235 1178.49 85.9075 1333.75 69.3898C1363.43 66.1623 1381.37 47.936 1377.57 32.5574C1373.43 15.2805 1348.25 4.8382 1317.54 3.5091C1111.9 -6.17363 905.573 -11.1098 699.245 -11.1098C641.28 -11.1098 583.316 -10.7301 525.696 -9.97073C499.818 -9.59096 472.906 0.0917762 466.696 14.7108C460.485 29.3299 470.836 44.7084 494.643 52.6825C536.737 66.3521 577.795 81.161 617.473 96.5395C637.83 104.514 657.842 112.488 677.509 120.841C687.859 125.208 668.883 117.044 675.438 120.082C677.853 121.221 680.269 122.17 682.684 123.31C687.514 125.398 692.69 127.676 697.52 129.765C707.526 134.131 717.187 138.498 726.848 142.865C804.134 178.178 878.66 216.72 944.561 258.488C948.356 260.957 952.152 263.425 955.947 265.893C957.672 267.032 959.397 268.361 961.123 269.31C949.046 262.096 956.982 266.272 959.397 268.171C966.643 273.487 973.544 279.183 979.754 284.879C986.31 290.764 990.795 297.219 996.66 303.105C988.38 294.751 993.9 299.688 995.625 302.156C997.006 304.054 998.041 305.763 999.076 307.662C1001.15 311.459 1003.22 315.256 1004.94 319.243C1007.01 310.699 1009.08 301.966 1011.15 293.422C1004.25 300.447 997.006 307.472 990.105 314.496C1022.19 312.218 1053.94 309.94 1086.02 307.662C1097.06 315.636 1087.4 308.611 1084.64 306.522C1081.88 304.434 1078.78 302.345 1076.02 300.257C1070.15 296.08 1064.29 291.713 1058.77 287.347C1047.03 278.423 1035.3 269.31 1023.92 260.197C1001.15 241.971 979.409 223.365 958.362 204.379C915.579 165.838 876.59 126.157 841.397 85.338C831.391 73.7567 821.386 61.9854 812.07 50.4041C807.239 44.5185 802.409 38.633 797.924 32.5575C796.889 31.2285 795.854 29.8994 794.818 28.5704C794.128 27.6212 793.438 26.6718 792.403 25.5328C793.438 26.8618 794.473 28.1908 795.508 29.5197C795.854 27.0516 789.643 21.7356 787.918 19.4572C778.602 32.1777 769.286 44.7083 759.97 57.4288C762.041 56.4796 774.807 52.8723 764.456 55.3404C754.105 57.6187 766.871 55.3404 769.286 54.9608C763.766 55.3404 758.59 55.7201 753.07 56.0998C758.245 55.7201 763.421 55.7201 768.596 56.0998C763.076 55.7201 757.9 55.3404 752.38 54.9608C755.485 55.1506 758.59 55.5302 761.696 56.0998C763.766 56.4796 765.836 56.8593 767.906 57.2391C765.146 56.6695 762.386 55.91 759.625 55.3404C766.526 56.6695 773.772 59.3274 779.982 61.4159C783.087 62.555 785.848 63.6942 788.953 64.8333C793.783 66.5421 777.567 59.7071 788.263 64.6434C794.128 67.3015 799.649 69.9594 805.169 72.6175C828.286 83.8191 850.368 95.4004 871.76 107.361C893.152 119.323 914.198 131.853 934.21 144.763C944.561 151.219 954.222 157.864 964.228 164.509C966.988 166.407 970.093 168.496 972.853 170.394C974.234 171.344 983.204 177.039 976.649 173.052C970.093 168.875 979.064 174.761 980.444 175.71C983.204 177.799 985.965 179.697 988.725 181.786C986.655 173.242 984.584 164.509 982.514 155.965C978.029 163.18 973.889 170.394 969.403 177.609C999.421 170.964 1029.09 164.319 1059.11 157.484C957.327 132.043 855.544 106.792 753.76 81.3509C735.473 76.7943 718.567 75.2755 699.59 79.6422C683.374 83.4394 667.503 91.4135 664.397 101.476C658.187 120.841 662.672 138.308 678.544 155.965C689.24 167.926 705.801 178.558 723.052 187.861C760.316 208.176 798.269 228.111 835.877 248.426C912.473 289.625 989.415 330.824 1066.01 371.834C1109.14 394.996 1152.27 418.159 1195.4 441.322C1215.06 422.526 1235.08 403.92 1254.74 385.124C1246.81 384.364 1238.87 383.415 1231.28 382.086C1227.83 381.516 1224.03 380.757 1220.58 379.997C1218.86 379.618 1217.13 379.048 1215.41 378.858C1218.17 379.238 1226.8 381.706 1219.55 379.808C1203.68 375.631 1188.15 371.074 1173.32 365.948C1142.26 355.696 1111.56 344.874 1080.5 334.431C1017.02 312.788 953.877 291.334 890.392 269.69C854.163 257.349 817.935 245.008 781.707 232.668C754.45 223.365 713.392 228.871 698.21 244.629C681.994 261.526 691.655 280.132 719.947 290.574C754.45 303.295 787.918 316.585 821.386 330.255C825.181 331.774 828.631 333.292 832.427 334.811C834.497 335.761 836.567 336.52 838.637 337.469C840.362 338.229 847.608 340.887 840.362 338.229C832.082 335.381 844.848 340.127 846.573 340.887C851.748 343.165 856.924 345.443 862.099 347.532C877.97 354.556 893.842 361.581 909.713 368.796C942.146 383.605 973.543 398.793 1004.6 414.552C1031.16 428.031 1057.39 441.511 1080.5 456.7C1083.26 458.409 1085.68 461.446 1076.71 454.042C1078.09 455.181 1079.81 456.32 1081.54 457.459C1084.3 459.548 1087.06 461.826 1089.47 463.915C1094.65 468.281 1099.48 472.838 1103.62 477.584C1104.31 478.344 1105 479.103 1105.69 480.053C1110.52 485.938 1105 477.964 1103.96 477.774C1105.69 477.964 1108.1 484.229 1108.8 485.369C1111.9 490.874 1113.97 496.57 1115.7 502.266C1115.01 499.228 1114.32 496.38 1113.63 493.343C1114.66 497.709 1115.01 502.266 1115.01 506.633C1129.84 495.811 1145.02 484.989 1159.86 474.167C1146.75 476.066 1133.29 477.395 1119.84 478.344C1125.36 477.964 1130.53 477.584 1136.05 477.205C1090.16 480.242 1043.93 478.724 998.386 475.306C1003.91 475.686 1009.08 476.066 1014.6 476.445C924.894 469.8 835.532 460.117 746.169 451.194C656.807 442.081 567.789 432.778 478.427 422.715C428.052 417.02 377.678 411.324 327.304 405.438C321.783 427.462 316.608 449.485 311.087 471.509C536.047 463.345 761.351 458.788 986.655 457.649C1050.49 457.459 1114.32 457.459 1177.8 457.649C1167.45 436.765 1157.1 415.881 1147.09 394.996C1108.1 406.008 1069.12 416.45 1029.09 426.323C1010.46 430.879 992.175 435.436 973.199 439.803C970.783 440.372 968.368 440.942 965.608 441.511C973.889 439.613 975.269 439.233 969.058 440.752C964.228 441.891 959.052 443.03 954.222 444.169C944.216 446.448 934.21 448.726 924.204 450.814C846.228 467.902 766.526 482.9 685.789 495.621C710.976 509.48 735.818 523.15 761.006 537.01C762.041 534.921 763.421 533.023 764.801 530.934C765.491 529.985 766.181 529.036 766.871 528.087C765.491 529.795 764.111 531.504 762.731 533.213C763.076 530.365 768.941 526.188 771.356 523.72C777.567 517.644 784.813 512.139 792.058 506.443C778.947 516.505 792.058 506.633 795.854 504.164C799.994 501.506 804.134 499.038 807.93 496.57C816.555 491.254 825.181 486.128 833.807 481.002C852.783 469.231 871.415 457.08 885.561 443.41C903.158 426.133 912.128 408.096 915.234 388.351C917.994 371.644 884.871 352.848 854.163 354.746C698.9 364.049 543.637 374.492 389.064 385.883C341.45 389.3 293.836 392.908 246.222 396.515C256.918 418.159 267.959 439.613 278.655 461.257C432.883 441.132 587.456 421.007 741.684 400.692C766.526 397.464 787.573 382.466 786.538 368.226C785.158 352.848 768.251 340.697 741.684 335.761C604.707 310.509 467.386 285.448 330.409 260.197C339.38 278.993 348.351 297.599 357.321 316.395C370.778 307.851 385.269 299.877 400.795 292.853C402.52 292.093 403.9 291.334 405.625 290.764C414.596 286.777 395.275 294.941 401.83 292.473C405.625 290.954 409.076 289.435 412.871 288.106C421.152 285.068 429.432 282.031 438.403 279.373C454.275 274.436 470.491 270.07 487.397 265.893C494.643 264.184 471.871 269.31 482.222 267.032C483.947 266.652 486.017 266.273 487.742 265.893C491.883 264.944 496.023 264.184 500.164 263.235C508.789 261.526 517.76 259.817 526.386 258.109C601.257 244.249 677.854 234.376 749.275 215.96C792.403 204.759 832.427 189.76 866.93 171.533C900.742 153.687 883.146 122.36 840.017 115.336C667.848 88.7554 488.778 70.3392 308.327 61.6058C294.181 60.8463 274.514 65.7827 265.199 71.4784C255.883 76.9843 250.362 83.2495 248.292 90.8438C244.497 105.843 262.093 125.208 292.111 127.676C449.789 140.966 608.158 152.548 766.526 162.8C920.754 172.673 1075.33 180.836 1229.9 187.671C1316.85 191.469 1404.14 194.696 1491.43 197.544C1485.91 175.52 1480.74 153.497 1475.22 131.473C1260.61 173.812 1044.62 213.682 826.906 250.894C765.491 261.336 703.731 271.778 641.97 281.841C609.538 287.157 591.596 305.193 599.187 323.23C606.778 341.266 629.894 356.835 659.912 365.189C687.169 372.783 717.532 376.96 746.514 382.086C806.204 392.718 865.894 403.16 925.584 413.792C1044.27 434.866 1162.96 455.751 1281.65 476.825C1314.78 482.711 1348.25 488.596 1381.37 494.482C1389.65 496.001 1397.58 497.33 1405.87 498.848C1410.01 499.608 1414.15 500.367 1417.94 500.937C1426.91 502.456 1424.5 503.595 1414.49 499.798C1416.56 500.557 1419.32 501.317 1421.39 501.886C1430.71 504.734 1410.7 496.57 1417.6 500.367C1425.19 504.734 1409.66 493.153 1414.84 498.279C1417.6 501.317 1416.91 499.988 1412.08 494.292C1412.77 495.241 1413.11 496.19 1413.11 497.14C1412.42 494.102 1411.73 491.254 1411.04 488.216C1411.39 489.925 1411.04 491.254 1410.7 492.963C1411.39 489.925 1412.08 487.077 1412.77 484.04C1412.42 484.609 1412.42 485.179 1412.08 485.748C1426.22 477.964 1440.37 470.18 1454.86 462.206C1449.68 462.775 1444.51 463.155 1439.33 463.535C1444.85 463.155 1450.03 462.775 1455.55 462.396C1423.12 464.674 1391.03 464.294 1358.6 462.016C1364.12 462.396 1369.29 462.775 1374.81 463.155C1340.65 460.497 1307.19 455.941 1274.75 449.865C1258.19 446.827 1241.63 443.41 1225.41 439.993C1220.93 439.043 1216.79 438.094 1212.3 437.145C1210.58 436.765 1208.51 436.195 1206.78 435.816C1206.44 435.816 1218.51 438.664 1212.65 437.145C1205.06 435.246 1197.47 433.537 1189.53 431.639C1131.91 417.399 1076.02 401.072 1022.19 383.035C994.245 373.542 966.643 363.67 939.731 353.227C926.275 348.101 913.163 342.785 900.052 337.469C893.842 335.001 887.976 332.343 881.766 329.875C881.421 329.685 891.772 334.242 886.596 331.963C885.216 331.394 883.491 330.634 882.111 330.065C877.97 328.356 874.175 326.647 870.035 324.939C817.245 301.776 767.216 276.715 718.912 250.704C669.573 223.934 621.614 196.405 570.549 170.584C542.947 156.725 515 143.245 484.637 131.284C456.345 120.082 423.222 110.02 388.719 106.792C221.035 91.4134 169.28 199.632 138.573 268.171C103.725 346.013 84.7483 426.323 81.298 506.633C80.953 516.505 80.608 526.188 80.608 536.061C80.608 553.717 108.555 570.425 141.678 569.665C175.491 568.906 201.713 554.857 202.748 536.061C206.889 451.574 209.994 367.087 212.754 282.41C215.169 197.924 216.895 113.247 217.93 28.7604C218.275 -19.0839 218.62 -66.7382 218.62 -114.582C178.596 -111.545 138.573 -108.697 98.5495 -105.659C102 -93.6981 105.45 -81.7371 108.21 -69.5861C107.52 -72.6238 106.83 -75.4716 106.14 -78.5093C133.742 34.8358 138.573 149.7 147.889 263.804C157.204 379.238 165.14 494.672 171.696 610.295C173.421 642.761 175.146 675.037 176.871 707.502C178.251 736.551 181.011 765.599 174.111 794.457C174.801 791.42 175.491 788.572 176.181 785.534C174.111 793.128 171.696 800.723 167.9 808.127C166.175 811.734 164.105 815.342 161.69 818.759C161 820.088 156.859 825.214 161 819.898C165.485 814.013 159.275 821.417 158.585 822.366C196.538 828.062 234.491 833.758 272.444 839.264C258.298 731.424 259.678 622.826 276.93 515.176C281.76 484.989 287.971 454.801 295.216 424.804C294.526 427.842 293.836 430.69 293.146 433.727C297.976 414.362 303.152 394.806 309.017 375.441C289.351 383.605 269.684 391.958 250.017 400.122C252.433 400.122 254.848 400.122 257.608 400.312C252.087 399.933 246.912 399.553 241.392 399.173C244.152 399.363 246.912 399.933 249.672 400.122C261.403 401.451 236.906 396.135 245.532 399.173C247.602 399.933 250.017 400.692 252.087 401.451C261.058 404.489 241.047 395.945 248.292 399.743C253.123 402.401 257.263 405.059 262.093 407.717C250.362 401.072 256.573 403.919 259.678 406.388C261.403 407.907 263.128 409.236 264.854 410.754C268.994 414.362 272.444 418.159 275.895 421.956C277.275 423.665 278.655 425.374 280.035 427.082C285.21 433.158 275.204 420.247 279.345 425.943C284.865 433.917 289.696 441.891 294.181 450.055C312.813 484.609 328.684 521.062 374.228 548.212C391.824 558.654 426.327 561.312 448.064 553.528C457.035 550.49 464.28 546.313 469.801 541.567C479.117 533.593 478.082 524.669 476.011 515.746C464.971 471.699 448.064 427.842 425.637 385.124C414.941 364.619 402.52 344.304 389.064 324.369C375.263 304.244 359.047 284.499 352.836 263.045C353.526 266.083 354.216 268.931 354.906 271.968C353.181 264.564 352.836 257.159 354.561 249.565C353.871 252.603 353.181 255.451 352.491 258.488C353.526 254.881 354.906 251.274 357.321 247.666C361.117 241.401 355.251 248.616 355.596 249.565C355.251 248.995 359.737 245.198 360.427 244.819C361.807 243.49 363.532 241.401 365.947 240.262C363.187 241.401 356.976 246.337 363.532 242.161C367.327 239.692 371.468 237.414 375.608 235.326C395.275 224.884 417.011 215.391 437.713 205.518C483.947 183.684 530.181 161.661 576.415 139.827C607.468 125.018 595.047 97.8686 563.994 87.0467C473.941 55.1505 383.889 23.4443 293.491 -8.4518C297.631 9.20494 301.772 26.6719 305.912 44.3286C314.538 39.3923 323.508 34.646 333.169 30.2792C334.894 29.3299 336.965 28.5705 338.69 27.8111C348.351 23.4443 330.409 31.0387 336.275 28.7604C341.105 26.8618 345.935 24.9632 351.111 23.0647C360.427 19.6472 370.087 16.6094 379.748 13.9514C384.234 12.6223 402.175 8.8253 383.889 12.6224C389.064 11.4833 394.24 10.3441 399.76 9.39488C429.778 3.69908 452.894 -13.9577 442.544 -31.9942C431.848 -50.0307 400.795 -59.5236 367.327 -55.5366C304.877 -47.7525 241.392 -37.8798 186.877 -18.7041C117.526 5.59777 69.912 42.2402 45.76 85.338C20.9179 129.765 19.5378 177.799 18.1577 224.124C16.4325 274.436 15.0524 324.749 13.3273 375.061C9.53196 476.066 6.4267 577.45 3.32144 678.834C1.5963 728.956 0.216181 778.889 -0.128846 829.011C-0.818902 878.564 -3.2341 928.687 4.01151 978.05C8.15186 1005.39 14.7074 1032.73 35.0641 1057.98C45.07 1070.51 62.6665 1082.66 85.0934 1088.74C115.801 1097.28 146.164 1095.57 178.941 1092.34C264.164 1083.61 342.83 1062.35 427.017 1052.09C448.409 1049.44 470.146 1047.54 492.228 1045.83C486.707 1046.21 481.532 1046.59 476.012 1046.97C547.433 1041.84 619.544 1041.08 691.31 1039.94C764.801 1038.99 838.292 1037.1 911.438 1034.25C1061.18 1028.36 1210.92 1018.3 1358.94 1004.44C1441.06 996.846 1522.83 987.922 1604.26 977.86C1635.31 974.063 1656.7 953.178 1647.04 936.471C1636.34 918.434 1605.29 908.942 1571.82 912.929C1440.71 929.067 1308.57 942.167 1175.39 952.229C1180.91 951.849 1186.08 951.47 1191.6 951.09C1052.56 961.342 912.473 968.177 772.047 971.405C629.894 974.632 484.982 971.785 347.316 993.998C275.204 1005.58 205.854 1022.67 131.327 1028.74C136.848 1028.36 142.023 1027.98 147.544 1027.6C140.298 1028.17 133.397 1028.36 126.152 1027.79C131.672 1028.17 136.848 1028.55 142.368 1028.93C140.298 1028.74 137.538 1027.98 135.468 1027.98C143.403 1030.07 145.819 1030.45 142.023 1029.31C139.608 1028.36 140.298 1028.74 144.783 1030.64C153.064 1034.06 147.544 1031.4 145.819 1030.64C140.988 1028.55 153.064 1036.72 149.614 1033.49C147.199 1031.21 144.783 1028.93 142.368 1026.65C138.573 1022.67 143.403 1028.74 144.438 1029.5C143.058 1028.17 142.368 1026.27 141.333 1024.94C134.433 1013.36 130.292 1001.02 127.532 988.872C128.222 991.91 128.912 994.757 129.602 997.795C123.047 970.456 122.357 942.736 121.666 915.017C120.976 887.108 120.976 859.199 120.976 831.1C121.321 773.953 123.392 716.995 125.117 659.848C128.912 545.933 132.362 432.208 136.158 318.294C137.193 286.397 138.228 254.311 139.263 222.415C140.298 193.747 141.333 165.078 148.234 136.6C147.544 139.637 146.854 142.485 146.164 145.523C150.649 127.297 157.549 109.07 169.28 91.7931C170.316 90.2743 175.491 83.4394 171.351 88.7554C167.21 94.2613 173.076 86.8569 174.111 85.9076C177.561 82.1104 181.011 78.3132 185.152 74.7059C188.947 71.0986 193.087 67.6813 197.228 64.4536C198.263 63.6942 198.953 63.1246 199.988 62.3651C203.438 59.7071 194.813 65.7827 195.158 65.7827C197.228 65.4029 201.368 61.6058 202.748 60.6565C211.719 54.9608 221.725 49.6448 232.076 44.8983C233.456 44.3287 235.526 43.5692 236.561 42.8098C237.251 42.43 224.83 47.5563 230.006 45.6577C232.766 44.5185 235.526 43.5692 237.941 42.43C243.462 40.3417 248.982 38.4431 254.503 36.5445C265.889 32.7473 277.275 29.5198 289.351 26.482C290.731 26.1024 293.146 25.3429 294.526 25.1531C295.906 25.1531 280.38 28.3806 286.245 27.0516C289.351 26.482 292.456 25.7226 295.216 24.9632C301.427 23.6343 307.292 22.495 313.503 21.3558C341.105 16.2297 369.742 12.2428 398.035 8.8253C387.339 -12.8185 376.298 -34.2725 365.602 -55.9163C309.362 -45.0944 259.333 -27.2478 217.585 -3.70533C189.292 12.2427 196.883 37.3039 230.006 49.0751C320.058 80.9712 410.111 112.677 500.509 144.574C496.368 126.917 492.228 109.45 488.087 91.7931C441.509 114.007 394.585 136.03 348.006 158.243C302.807 179.697 251.052 200.202 235.526 233.997C219.31 269.5 243.117 302.915 265.889 335.381C287.625 364.999 304.877 394.996 319.368 425.373C336.275 460.877 349.041 496.76 358.356 533.023C392.514 522.201 426.327 511.189 460.485 500.367C456.69 498.089 450.479 492.203 460.485 500.937C458.76 499.608 457.035 498.279 455.31 496.95C451.169 493.532 447.719 490.115 444.614 486.508C442.544 484.419 440.818 482.331 439.093 480.053C434.263 474.167 443.924 487.077 440.128 481.382C437.368 477.395 434.608 473.218 432.193 469.231C421.842 452.143 414.251 434.487 403.555 417.399C379.748 379.238 334.549 332.913 250.362 332.723C225.865 332.723 195.848 343.165 191.362 357.404C154.099 481.761 137.193 608.017 142.023 734.082C143.403 769.206 146.509 804.14 150.994 839.074C152.719 853.313 168.59 868.122 195.848 871.54C221.38 874.767 252.088 869.641 264.854 856.161C291.076 827.682 299.357 796.166 301.082 764.46C302.462 734.462 299.702 704.465 297.976 674.657C294.526 609.915 290.731 544.984 286.59 480.242C278.31 351.709 268.649 223.365 256.228 95.0207C248.982 21.9254 238.631 -51.1698 217.24 -123.506C215.169 -130.91 201.023 -140.213 189.292 -143.631C176.871 -147.238 164.105 -148.567 150.304 -147.618C120.631 -145.339 97.5144 -131.48 97.5144 -114.582C97.5144 -30.0956 96.8243 54.5809 95.0992 139.068C93.374 223.555 91.3039 308.231 87.8536 392.718C86.1284 440.372 84.0583 488.216 81.6431 535.871C122.357 535.871 163.07 535.871 203.783 535.871C203.438 486.128 209.304 436.575 221.38 387.402C220.69 390.44 220 393.287 219.31 396.325C228.971 357.404 242.082 318.673 259.678 280.702C267.959 262.665 276.585 244.819 287.28 227.162C289.696 223.175 292.111 219.188 294.871 215.201C296.251 213.492 297.286 211.593 298.666 209.885C299.356 208.935 300.047 208.176 300.737 207.227C303.497 203.24 295.216 213.872 298.666 210.075C305.222 202.67 311.432 195.266 319.368 188.241C321.438 186.532 323.509 184.823 325.579 183.305C333.169 177.419 316.953 189 325.234 183.494C329.719 180.647 334.549 177.989 339.38 175.52C348.696 170.774 327.649 179.697 338 176.09C340.76 175.141 343.52 174.191 346.28 173.432C347.661 173.052 349.386 172.673 351.111 172.103C357.666 170.204 337.655 174.571 347.661 173.052C351.801 172.483 355.941 171.913 360.427 171.344C354.906 171.723 349.731 172.103 344.21 172.483C352.836 171.913 361.462 171.913 370.087 172.483C364.567 172.103 359.392 171.723 353.871 171.344C362.842 172.103 371.468 173.242 380.093 174.761C381.818 175.141 384.579 175.9 386.649 176.09C374.918 174.951 376.988 173.622 381.818 174.951C387.339 176.47 392.514 177.989 397.69 179.507C406.316 182.165 414.596 185.203 422.532 188.431C424.602 189.19 426.672 190.14 428.742 190.899C437.023 194.127 426.327 189.95 425.292 189.38C430.123 191.658 435.298 193.747 440.128 196.025C473.596 211.404 505.684 227.921 536.737 244.819C600.222 278.993 661.637 314.496 728.573 346.582C861.409 409.995 1009.08 462.396 1171.25 499.798C1218.17 510.62 1266.13 520.113 1316.16 525.618C1373.78 531.884 1430.36 532.833 1487.98 527.137C1507.65 525.239 1526.28 514.227 1530.77 503.595C1541.12 478.913 1520.76 455.751 1481.43 443.03C1466.94 438.474 1450.72 436.005 1434.85 433.158C1420.01 430.5 1405.18 427.842 1389.99 425.184C1328.92 414.362 1267.85 403.54 1206.78 392.718C1084.64 371.074 962.848 349.43 840.707 327.976C806.894 321.901 773.082 316.015 738.924 309.94C736.854 309.56 718.912 305.193 717.187 305.953C717.532 305.763 732.368 309.94 724.433 307.662C721.327 306.712 718.222 305.953 715.117 304.814C708.216 302.535 711.666 301.206 718.912 306.522C717.532 305.573 715.117 304.054 713.047 303.295C715.117 304.814 717.187 306.143 719.257 307.662C718.222 306.712 717.187 305.953 716.497 305.004C720.292 310.699 721.327 311.838 719.257 308.421C718.567 307.282 718.222 306.143 717.532 305.004C703.386 318.863 689.239 332.533 674.748 346.393C892.807 310.699 1109.49 272.348 1324.44 231.529C1385.85 219.947 1446.92 207.986 1507.99 196.025C1536.98 190.329 1555.95 176.47 1551.81 159.193C1547.67 142.105 1522.48 131.094 1491.78 130.144C1242.67 122.17 993.9 110.209 745.824 94.0714C675.783 89.5148 605.397 84.5785 535.701 79.4524C541.222 79.8321 546.397 80.2118 551.918 80.5915C476.356 74.8959 400.45 69.0102 325.234 62.7449C319.713 84.7684 314.538 106.792 309.017 128.815C350.076 130.714 391.134 133.372 432.193 136.22C426.672 135.84 421.497 135.46 415.976 135.081C549.503 144.953 681.304 160.522 810.345 181.406C801.374 162.61 792.403 144.004 783.432 125.208C776.532 128.815 769.286 132.423 762.041 135.65C760.661 136.41 752.035 140.017 761.006 136.22C769.976 132.423 761.351 136.03 759.625 136.6C755.485 138.308 751.345 139.827 747.204 141.536C731.333 147.421 714.772 152.548 697.52 157.104C689.585 159.193 681.649 161.661 673.023 163.18C673.023 163.18 688.204 159.762 679.234 161.661C677.509 162.04 675.438 162.42 673.713 162.8C668.538 163.939 663.707 164.888 658.532 166.028C641.28 169.445 624.029 172.673 606.777 175.71C531.906 188.431 454.965 199.063 385.959 220.137C343.865 233.047 305.222 249.945 273.824 270.07C259.333 279.373 252.087 290.574 258.298 302.725C264.164 314.496 280.38 322.471 301.082 326.268C438.058 351.519 575.38 376.58 712.356 401.831C712.356 380.187 712.356 358.733 712.356 337.09C558.128 357.214 403.555 377.339 249.327 397.654C218.275 401.641 196.883 422.146 206.544 439.043C211.374 447.207 220.345 454.991 234.491 459.168C250.017 463.725 264.164 463.915 281.415 462.586C315.228 459.928 349.041 457.459 382.854 454.991C377.333 455.371 372.158 455.751 366.637 456.13C529.836 443.98 693.38 433.158 857.269 423.285C836.912 412.083 816.555 400.882 796.199 389.68C795.853 391.389 795.509 392.908 795.163 394.616C795.854 391.579 796.544 388.731 797.234 385.693C795.163 392.908 791.713 399.553 787.573 406.388C783.777 411.894 794.473 398.414 789.643 403.73C787.918 405.438 786.538 407.147 784.813 408.856C782.397 411.324 779.637 413.792 776.877 416.26C773.772 419.108 769.976 421.766 766.526 424.424C760.316 429.171 776.877 417.21 768.941 422.715C766.871 424.044 765.146 425.373 763.076 426.513C755.485 431.449 747.549 436.385 739.614 441.132C700.28 464.864 663.362 489.166 646.111 520.492C632.31 544.984 677.163 568.716 721.327 561.881C890.392 534.921 1054.63 498.469 1211.27 454.422C1234.39 447.967 1247.15 429.93 1239.22 416.45C1230.94 402.211 1208.16 391.958 1180.22 391.769C954.912 390.819 729.608 393.288 504.649 399.363C440.818 401.072 377.333 403.16 313.503 405.438C282.795 406.578 257.608 417.399 253.468 434.487C249.672 450.055 267.269 467.902 297.286 471.319C411.836 484.799 526.386 497.52 641.28 509.481C753.76 521.252 866.929 533.403 980.444 542.136C1052.21 547.642 1123.63 549.92 1194.71 540.048C1220.58 536.44 1239.56 522.201 1239.56 507.582C1239.22 458.219 1188.84 417.399 1126.05 384.364C1056.7 348.101 983.549 314.117 907.643 282.031C867.62 265.133 826.561 248.806 784.468 233.237C763.766 252.603 743.409 271.968 722.707 291.334C851.058 335.001 978.719 379.048 1107.41 422.336C1143.64 434.487 1182.63 446.638 1225.07 450.435C1239.22 451.764 1251.29 451.954 1264.75 448.726C1276.48 446.068 1287.87 441.321 1294.08 435.056C1306.84 421.956 1304.43 405.059 1284.41 394.427C1142.26 318.104 1000.11 241.781 857.614 165.458C838.637 155.395 818.97 145.523 801.374 134.891C799.994 133.941 798.614 133.182 797.234 132.233C796.199 131.473 795.163 130.904 794.128 130.144C791.368 128.246 792.748 129.195 798.614 133.372C796.544 130.714 792.058 128.246 789.643 125.778C788.608 124.639 787.573 123.689 786.538 122.55C781.707 117.424 790.333 128.626 788.263 124.639C786.538 121.411 784.813 118.373 783.777 114.956C784.468 117.993 785.158 120.841 785.848 123.879C785.158 120.082 785.158 116.475 786.193 112.677C785.503 115.715 784.813 118.563 784.123 121.601C784.468 121.031 784.468 120.272 784.813 119.702C754.795 126.347 725.123 132.992 695.105 139.827C796.889 165.268 898.672 190.519 1000.46 215.96C1018.74 220.517 1035.65 222.036 1054.63 217.669C1072.57 213.492 1083.95 206.088 1089.82 195.835C1099.13 180.457 1113.63 163.749 1096.72 148.181C1086.37 138.498 1071.19 129.575 1058.08 120.652C1037.03 106.222 1015.29 91.983 992.52 78.3133C970.783 65.213 948.011 52.6823 924.549 40.5315C898.672 27.0516 871.415 13.002 841.052 2.5599C799.649 -11.6795 743.064 -17.3752 700.97 -0.287995C689.93 4.26865 681.649 8.63535 676.128 15.8499C671.298 22.1152 668.193 31.2284 673.023 37.6836C738.924 125.588 817.935 210.454 915.234 289.245C943.181 311.838 972.508 333.672 1002.87 355.316C1014.26 363.48 1037.03 365.758 1054.28 364.619C1072.57 363.29 1089.82 357.784 1098.79 348.671C1105.69 341.646 1113.28 334.811 1119.84 327.597C1132.6 313.737 1126.74 300.257 1117.77 286.397C1108.1 271.209 1095.34 256.78 1079.12 243.3C1048.76 218.049 1010.12 196.025 971.818 174.571C891.082 129.195 803.444 87.6162 710.631 50.0244C661.637 30.2791 611.263 11.6731 559.163 -5.22427C548.813 15.6601 538.462 36.5445 528.456 57.4288C734.783 54.7708 941.111 56.8593 1146.75 63.8841C1204.71 65.7827 1262.33 68.2507 1320.3 70.9088C1314.78 48.8852 1309.6 26.8616 1304.08 4.8382C1148.82 21.3558 993.9 37.6836 838.637 54.2013C813.45 56.8592 792.748 72.8074 793.783 86.667C794.818 100.906 811.725 115.905 838.637 119.133C981.824 136.03 1126.74 148.75 1272.34 157.294C1342.72 161.471 1413.46 164.509 1484.19 166.597C1553.19 168.496 1622.54 170.204 1691.89 169.065C1775.05 167.736 1855.78 159.952 1931.69 140.587C1955.84 134.321 1966.19 116.095 1959.64 102.615C1943.77 69.7696 1928.58 36.7343 1911.68 4.07877C1902.02 -15.0969 1886.49 -34.0827 1853.71 -44.1452C1821.63 -54.2076 1784.02 -50.4105 1748.82 -48.8917C1625.3 -43.7655 1501.44 -38.6393 1377.92 -33.5131C1307.88 -30.6653 1238.18 -27.6275 1168.14 -24.7796C1142.26 -23.6404 1115.35 -15.0969 1109.14 -0.098071C1103.27 13.7615 1112.59 31.0386 1137.09 37.8735C1209.54 57.9985 1282.34 78.1234 1354.8 98.6281C1385.51 107.362 1416.22 116.475 1445.54 126.727C1453.13 129.385 1460.72 132.233 1468.32 135.271C1471.42 136.41 1474.18 137.739 1477.29 138.878C1482.46 140.966 1481.08 140.587 1473.84 137.359C1475.91 138.118 1477.63 139.068 1479.7 139.827C1494.54 146.472 1508.68 153.497 1521.8 160.901C1521.8 145.143 1521.8 129.195 1521.8 113.437C1479.7 132.992 1437.95 152.737 1395.86 172.293C1374.81 182.165 1374.12 200.582 1386.2 212.922C1466.25 294.751 1543.19 377.339 1616.68 461.067C1639.8 444.549 1662.57 428.221 1685.68 411.704C1680.85 411.134 1676.02 410.565 1671.54 409.805C1669.47 409.425 1658.43 408.286 1657.39 407.147C1657.74 407.527 1673.26 411.324 1663.26 408.476C1661.19 407.906 1659.12 407.337 1657.05 406.767C1652.91 405.628 1648.77 404.299 1644.97 402.97C1640.48 401.451 1636.34 399.743 1631.86 398.034C1625.99 395.756 1643.59 403.35 1636 399.743C1633.58 398.603 1631.51 397.654 1629.1 396.515C1621.16 392.528 1613.57 388.351 1606.67 383.984C1604.95 382.845 1603.22 381.706 1601.5 380.757C1594.94 376.39 1608.4 386.073 1604.26 382.655C1600.81 379.997 1597.36 377.339 1594.25 374.681C1588.04 369.365 1582.18 363.67 1577 357.974C1574.58 355.316 1567.34 344.494 1573.89 354.746C1571.82 351.709 1569.41 348.671 1567.68 345.633C1562.85 338.229 1559.4 330.634 1557.33 323.04C1558.02 326.078 1558.71 328.926 1559.4 331.963C1557.68 324.369 1557.33 316.775 1559.4 309.18C1558.71 312.218 1558.02 315.066 1557.33 318.104C1558.37 314.117 1560.09 310.13 1562.16 306.143C1563.2 304.434 1564.23 302.535 1565.27 300.827C1565.61 300.257 1566.3 298.738 1566.99 298.169C1565.96 298.738 1561.13 305.383 1564.92 301.206C1571.48 293.992 1579.07 286.967 1587.7 280.322C1589.42 278.803 1591.49 277.474 1593.56 275.955C1597.36 273.107 1588.73 279.752 1588.73 279.183C1588.73 278.613 1591.15 277.474 1591.84 277.094C1597.01 273.487 1602.19 270.07 1607.36 266.652C1619.09 258.868 1630.82 250.894 1642.56 243.11C1689.82 211.403 1737.44 179.697 1784.71 147.991C1811.96 129.955 1838.88 111.728 1866.13 93.6916C1878.9 85.1481 1885.8 76.6045 1883.04 65.4029C1880.63 55.91 1870.96 45.0881 1854.06 40.9112C1823.01 33.3168 1794.02 28.7603 1760.56 26.6718C1732.61 24.9631 1704.66 26.2922 1677.06 29.3299C1619.78 35.5951 1567.34 53.252 1525.59 75.4653C1501.44 88.1858 1503.16 110.019 1525.59 122.93C1598.74 164.888 1706.73 186.912 1810.58 170.584C1839.91 166.028 1858.2 150.269 1854.4 133.752C1850.26 116.475 1825.08 105.843 1794.37 104.703C1627.03 98.0585 1457.62 107.172 1295.11 130.144C1271.65 133.372 1254.4 145.143 1251.29 158.053C1248.19 170.204 1258.54 185.963 1280.27 191.469C1374.12 214.821 1467.97 238.363 1561.47 261.716C1566.3 241.211 1571.13 220.707 1575.96 200.392C1460.38 211.593 1347.21 229.63 1238.53 253.552C1220.24 257.539 1206.78 262.665 1198.85 272.918C1191.26 282.6 1191.95 293.612 1201.95 302.725C1232.32 331.014 1276.13 354.177 1328.23 370.315C1373.09 384.174 1422.77 393.098 1472.11 400.882C1496.95 404.869 1528.7 398.414 1541.12 385.503C1546.29 380.187 1549.05 374.492 1549.4 368.606C1550.09 359.113 1541.46 351.898 1531.46 344.874C1477.29 306.522 1408.28 271.778 1329.27 249.565C1288.21 237.984 1235.77 232.098 1194.02 246.337C1179.87 251.274 1169.18 257.349 1159.51 264.943C1157.44 266.652 1155.37 268.361 1153.99 270.26C1145.37 279.942 1143.3 289.055 1147.44 299.688C1151.92 311.079 1157.79 322.281 1164 333.482C1210.58 419.298 1289.59 501.886 1403.79 566.438C1459.69 598.144 1525.25 625.863 1598.39 644.469C1613.57 648.267 1628.75 650.355 1645.32 647.887C1659.46 645.799 1674.99 639.723 1681.89 632.508C1697.07 616.94 1689.82 595.486 1660.15 586.563C1617.02 573.652 1574.93 559.413 1534.91 543.845C1524.9 539.858 1514.89 535.871 1504.89 531.884C1502.82 530.934 1500.75 530.175 1498.68 529.226C1497.99 528.846 1487.64 524.479 1495.57 527.897C1503.16 531.124 1494.19 527.327 1492.47 526.568C1489.71 525.429 1487.29 524.289 1484.88 523.15C1464.52 514.227 1444.85 504.924 1425.19 495.431C1431.05 503.405 1437.26 511.189 1443.13 519.163C1443.13 518.594 1443.47 518.024 1443.47 517.455C1442.78 520.492 1442.09 523.34 1441.4 526.378C1442.09 524.289 1443.13 522.391 1443.82 520.492C1445.2 518.214 1444.85 518.594 1442.78 521.821C1440.37 524.859 1440.02 525.429 1441.75 523.34C1449.34 517.455 1434.5 527.137 1438.3 525.429C1440.37 524.479 1442.09 523.34 1444.16 522.391C1431.4 529.416 1434.16 526.378 1439.33 524.859C1451.06 521.252 1425.88 527.137 1435.19 525.618C1440.37 524.859 1445.54 524.1 1451.06 523.53C1445.54 523.91 1440.37 524.289 1434.85 524.669C1445.54 523.91 1456.24 524.1 1466.94 524.859C1461.41 524.479 1456.24 524.1 1450.72 523.72C1482.81 526.378 1515.24 529.416 1547.33 532.074C1562.51 533.403 1578.38 534.352 1593.56 536.25C1594.25 536.25 1600.46 537.579 1600.46 537.39C1597.01 536.63 1593.91 535.871 1590.46 535.111C1591.84 535.491 1593.56 536.061 1594.94 536.63C1592.18 535.491 1589.42 534.352 1586.66 533.213C1589.77 534.921 1589.08 534.542 1585.28 531.884C1581.83 529.226 1581.14 528.846 1583.21 530.745C1579.41 524.859 1578.03 523.53 1579.41 526.758C1578.72 523.72 1578.03 520.872 1577.34 517.834C1577.69 518.784 1577.69 519.923 1577.34 520.872C1578.03 517.834 1578.72 514.986 1579.41 511.949C1579.41 512.518 1579.07 513.088 1579.07 513.657C1584.25 508.721 1589.42 503.785 1594.6 498.848C1588.73 503.025 1582.52 507.012 1575.62 510.62C1572.17 512.328 1569.06 514.227 1565.27 515.746C1563.89 516.505 1561.82 517.834 1560.09 518.214C1563.54 517.455 1571.48 513.657 1563.2 516.885C1555.95 519.543 1548.71 522.011 1540.77 524.289C1529.04 527.517 1552.85 521.821 1540.77 524.289C1536.29 525.239 1531.8 525.998 1527.32 526.568C1542.84 547.072 1558.71 567.577 1574.24 587.892C1636 568.336 1690.17 541.566 1734.33 510.999C1746.75 502.266 1754 494.102 1751.24 482.71C1748.82 472.648 1738.82 463.155 1722.26 458.219C1633.24 431.829 1544.22 405.628 1454.86 379.238C1444.51 400.122 1434.16 421.007 1424.15 441.891C1554.92 435.246 1687.75 428.221 1811.27 402.401C1829.56 398.603 1843.02 393.098 1850.95 383.035C1858.54 373.352 1857.85 362.341 1847.85 353.227C1793.68 303.105 1732.26 255.261 1664.29 210.264C1649.8 229.44 1635.65 248.426 1621.16 267.601C1679.13 264.754 1737.44 261.716 1794.71 255.64C1852.68 249.375 1909.26 238.933 1961.71 223.744C1997.59 213.302 2000.01 186.152 1974.13 170.964C1928.24 144.194 1868.89 127.486 1802.65 123.309C1743.99 119.512 1681.54 129.385 1633.93 148.371C1617.71 154.826 1601.15 165.078 1603.57 177.419C1618.75 248.806 1651.53 317.724 1706.04 383.035C1716.74 395.945 1751.24 402.78 1775.05 398.414C1800.92 393.857 1819.56 381.326 1819.9 365.948C1820.94 269.5 1822.32 173.242 1823.35 76.7944C1823.7 49.4548 1824.04 21.9255 1824.39 -5.41414C1783.67 -5.41414 1742.96 -5.41414 1702.25 -5.41414C1709.49 71.6682 1717.08 148.75 1727.09 225.833C1737.44 304.624 1751.58 383.415 1770.56 461.826C1780.91 504.354 1793.33 546.882 1807.82 589.221C1813.34 605.549 1847.16 615.421 1874.76 613.333C1904.43 611.054 1927.55 597.195 1927.55 580.297C1928.58 490.495 1921.34 400.502 1906.16 311.079C1904.78 301.966 1900.29 293.992 1888.22 287.347C1877.52 281.461 1860.27 277.094 1845.09 277.474C1809.55 278.423 1787.12 292.283 1784.02 311.079C1765.39 430.31 1765.73 550.3 1785.05 669.531C1788.16 687.947 1790.57 706.743 1795.75 724.969C1800.92 743.575 1821.63 766.358 1859.23 769.396C1873.38 770.535 1885.46 770.915 1898.91 767.687C1909.95 765.029 1923.06 760.283 1928.24 754.017C1958.95 716.236 1966.54 676.176 1954.46 635.546C1944.46 600.992 1913.06 565.109 1862.68 543.085C1829.91 528.656 1794.71 520.113 1752.62 518.214C1727.09 517.075 1699.48 529.416 1693.62 542.895C1687.06 558.464 1698.45 571.754 1721.57 580.867C1724.33 582.006 1727.09 583.145 1729.85 584.285C1740.2 588.461 1718.46 579.158 1728.47 583.715C1732.95 585.803 1737.44 587.702 1741.92 589.98C1752.27 594.917 1762.28 600.043 1771.94 605.549C1781.26 610.865 1790.57 616.371 1799.2 622.256C1801.27 623.585 1803.34 624.914 1805.06 626.243C1807.48 627.952 1814.03 633.837 1804.72 626.053C1808.86 629.471 1813.69 632.888 1818.17 636.306C1835.77 619.408 1853.37 602.701 1870.96 585.803C1782.64 589.601 1699.48 601.751 1618.75 621.497C1601.84 625.674 1591.84 636.685 1589.77 645.988C1587.35 656.241 1592.53 666.873 1606.67 674.277C1658.43 701.617 1721.22 723.071 1791.26 732.943C1801.96 711.299 1813 689.846 1823.7 668.202C1731.23 658.899 1635.65 662.696 1547.67 681.682C1524.56 686.618 1507.3 695.351 1503.85 709.591C1500.4 723.071 1512.13 735.791 1532.84 743.006C1635.31 778.509 1735.37 815.911 1833.36 855.212C1848.88 834.707 1864.75 814.202 1880.28 793.888C1801.27 784.015 1722.6 799.963 1667.74 832.049C1644.63 845.529 1644.63 866.034 1667.74 879.514C1689.82 892.424 1711.22 905.904 1731.57 919.953C1733.99 921.662 1736.4 923.371 1738.82 924.89C1748.48 931.535 1732.61 920.333 1739.85 925.649C1744.68 929.067 1749.17 932.484 1754 936.091C1764.01 943.686 1774.01 951.47 1783.67 959.254C1801.27 942.357 1818.87 925.649 1836.46 908.752C1824.73 908.182 1813 907.423 1801.27 906.663C1806.79 907.043 1811.96 907.423 1817.49 907.802C1778.5 904.765 1739.51 900.208 1701.9 894.133C1682.58 891.095 1663.6 887.488 1644.97 883.69C1636 881.792 1627.37 879.893 1618.75 877.995C1612.54 876.666 1613.92 876.856 1622.2 878.754C1619.78 878.185 1617.37 877.615 1614.61 877.045C1609.78 875.906 1604.6 874.577 1599.77 873.248C1589.42 894.133 1579.07 915.017 1569.06 935.901C1650.49 938.559 1731.92 934.952 1811.62 926.408C1841.29 923.181 1859.23 904.955 1855.44 889.576C1851.3 872.489 1826.11 861.477 1795.4 860.528C1671.88 856.541 1548.36 852.744 1424.84 848.757C1424.84 871.16 1424.84 893.563 1424.84 915.966C1469.01 917.105 1514.89 913.498 1556.64 905.714C1579.76 901.347 1602.19 896.031 1623.58 889.766C1648.77 882.361 1683.96 872.109 1695.34 857.3C1707.42 841.732 1699.83 821.607 1684.3 807.557C1671.88 796.166 1653.6 787.053 1633.24 780.028C1616.33 774.142 1596.67 770.345 1578.38 765.979C1556.3 760.663 1534.22 755.157 1512.13 749.841C1462.79 737.88 1413.46 725.729 1364.12 713.768C1364.12 733.133 1364.12 752.499 1364.12 771.864C1432.43 751.36 1500.4 730.855 1568.72 710.35C1607.71 698.579 1609.09 663.835 1568.72 652.254C1484.88 628.332 1397.93 607.447 1309.26 589.601C1318.23 608.396 1327.2 627.003 1336.17 645.798C1340.65 643.14 1345.83 639.343 1352.04 637.635C1348.25 638.584 1341.34 642.001 1349.63 638.964C1352.39 638.014 1355.49 637.065 1358.25 636.116C1360.67 635.356 1363.77 634.977 1365.5 634.027C1356.53 636.116 1354.11 636.685 1358.6 635.736C1359.98 635.356 1361.7 635.166 1363.08 634.787C1369.29 633.648 1375.5 633.078 1381.71 632.508C1376.19 632.888 1371.02 633.268 1365.5 633.648C1372.74 633.268 1379.99 633.078 1387.58 633.458C1387.58 611.055 1387.58 588.651 1387.58 566.248C1289.59 562.451 1190.57 567.577 1094.99 579.918C1074.98 582.576 1057.39 592.448 1052.21 603.46C1038.75 634.027 1061.87 660.797 1090.85 686.048C1113.28 705.414 1135.71 724.779 1159.17 743.765C1206.09 781.737 1257.16 819.518 1319.61 850.465C1353.08 866.983 1389.65 881.982 1429.67 893.183C1445.2 872.679 1461.07 852.174 1476.6 831.859C1342.38 803.76 1195.05 798.824 1055.32 816.671C1031.85 819.708 1014.6 832.049 1011.5 844.58C1008.39 856.921 1018.74 872.299 1040.48 877.995C1089.13 890.715 1139.5 900.398 1192.98 904.765C1250.26 909.321 1305.46 909.131 1362.74 904.005C1372.05 903.246 1383.09 898.879 1389.65 895.462C1399.31 890.146 1404.83 883.501 1406.56 876.096C1409.66 862.996 1398.62 849.326 1377.57 842.681C1286.83 813.823 1184.36 796.925 1079.47 795.976C1084.99 818 1090.16 840.023 1095.68 862.047C1149.16 857.49 1202.64 852.744 1254.05 842.681C1315.81 830.72 1372.4 812.684 1418.63 786.863C1450.03 769.206 1436.92 736.74 1391.72 730.665C1189.88 703.325 985.62 678.834 787.573 643.71C730.988 633.648 675.093 622.826 619.889 610.485C614.368 632.508 609.193 654.532 603.672 676.556C747.204 672.379 890.736 668.202 1034.27 664.025C1064.63 663.076 1090.16 651.874 1094.3 634.977C1098.44 618.079 1079.81 603.46 1050.49 598.144C833.462 558.464 616.438 518.784 399.76 479.293C336.62 467.712 266.924 457.08 201.713 470.18C181.356 474.357 165.14 481.571 158.93 493.722C153.409 504.544 158.585 518.784 174.456 526.378C314.193 592.448 453.93 658.329 593.666 724.4C633 743.006 672.333 761.612 712.011 780.218C731.678 761.422 751.69 742.816 771.356 724.02C608.503 695.541 439.438 677.505 268.994 670.48C230.351 668.961 190.672 666.873 156.169 678.454C109.245 694.212 96.1343 726.678 115.801 753.828C145.473 795.027 188.602 834.517 235.871 870.211C262.783 889.956 290.731 911.03 325.234 927.738C344.555 937.041 364.567 945.015 388.374 950.521C398.725 952.989 408.386 954.887 419.427 955.837C439.438 957.545 453.24 957.166 473.251 955.647C486.707 954.697 503.614 946.533 509.824 940.268C517.07 932.864 521.9 922.611 516.035 914.448C497.748 889.956 478.427 865.654 457.035 842.112C447.029 831.1 436.678 820.278 425.982 809.456C414.596 797.875 402.865 786.483 386.304 776.801C364.222 764.08 329.719 755.347 297.631 760.852C275.204 764.65 251.742 774.332 246.222 787.433C243.117 794.837 243.462 802.621 245.187 810.026C250.017 833.758 263.128 856.351 288.661 875.716C312.813 893.943 341.105 908.752 374.918 921.472C410.111 934.762 449.789 944.255 488.778 953.179C569.169 971.595 654.392 981.088 740.649 986.594C833.117 992.479 926.275 992.099 1019.43 990.77C1051.18 990.201 1081.88 975.582 1080.5 957.166C1079.12 939.129 1053.59 923.371 1019.43 923.561C779.292 925.08 539.152 924.32 299.011 921.282C230.696 920.523 162.725 919.384 94.4092 918.245C99.9296 940.268 105.105 962.292 110.626 984.315C333.514 960.773 557.093 937.8 779.637 913.308C834.842 907.233 890.392 895.652 926.275 870.59C934.9 864.515 941.111 859.199 943.181 851.225C944.906 844.58 943.871 835.467 935.935 829.771C920.754 818.949 905.573 809.836 883.836 802.811C867.62 797.495 849.333 793.698 831.046 791.23C794.818 786.293 756.865 784.205 719.947 781.167C634.38 774.332 548.468 768.637 462.21 764.08C415.976 761.612 369.742 759.713 323.164 758.005C292.801 756.865 266.924 771.674 263.128 787.053C259.333 801.862 276.93 821.417 306.947 823.885C513.965 840.972 721.327 858.25 926.275 882.361C983.894 889.196 1041.51 896.411 1098.79 904.385C1104.31 882.361 1109.48 860.338 1115.01 838.314C1000.11 837.175 885.561 832.429 771.702 824.075C777.222 824.455 782.397 824.835 787.918 825.214C627.824 813.443 469.801 794.457 314.883 769.016C314.883 790.66 314.883 812.114 314.883 833.758C484.637 794.837 671.643 794.078 845.538 763.131C899.017 753.638 951.807 741.297 1000.46 725.539C1021.5 718.704 1032.89 705.224 1029.44 692.124C1026.33 678.644 1009.08 668.202 985.619 664.215C815.865 634.787 636.105 621.687 458.07 627.003C432.193 627.762 405.28 636.875 399.07 651.684C393.204 665.924 402.52 682.441 427.017 689.656C573.31 732.564 732.368 758.574 894.187 776.231C938.351 781.167 982.514 785.344 1027.02 789.521C1032.54 767.497 1037.72 745.474 1043.24 723.45C885.216 716.426 726.848 713.008 568.479 713.578C527.076 713.768 501.199 734.842 509.479 756.106C522.59 789.331 550.538 821.227 593.666 845.719C615.748 858.439 657.842 859.009 679.924 845.719C702.696 832.429 703.731 812.114 679.924 798.634Z" fill="#C6ECAC"/>
</svg>
