<svg xmlns="http://www.w3.org/2000/svg" viewBox="0 0 411.43 494.54"><defs><style>.cls-1{fill:#c6ecac;}</style></defs><g id="Ebene_2" data-name="Ebene 2"><g id="Ebene_1-2" data-name="Ebene 1"><path class="cls-1" d="M411.32,35.63a13,13,0,0,0-12.75-11.26q-22.44,0-44.89-.16A65.43,65.43,0,0,0,328.8,9.69c-11.69-3.82-24.34-4.56-36.54-4.93C237.74,3.13,183.2,2,128.68.74,114.84.41,101,.13,87.15.05c-13.44-.07-27-.2-40.39.6A106.65,106.65,0,0,0,25.28,3.78C18.65,5.57,11.6,8.42,6.84,13.56.86,20-.73,28.12.28,36.64q1.3,11,3.65,21.75c2.76,12.7,6.33,25.22,8.82,38,.63,3.26,1.19,6.54,1.68,9.82.11.7.2,1.39.3,2.09.22,1.75.44,3.49.63,5.24.72,6.62,1.21,13.25,1.57,19.89,1.46,27.13,1.21,54.34,2.42,81.49a1600.44,1600.44,0,0,0,16,164.54q1.49,10.07,3.12,20.11c.49,3,3.45,6.29,6,7.76a12.36,12.36,0,0,0,2.39,1.06,289,289,0,0,0-7.66,49.89c-.34,5.1,3.54,10,8,11.87a13.14,13.14,0,0,0,14.18-2.69c2.31-2.17,4.56-4.39,6.78-6.64a12.44,12.44,0,0,0,1.6-.12,12.67,12.67,0,0,0,8.13-4.46c0,1,0,2,0,3s-.1,1.79-.19,2.68V462c-1,6.43,1.19,12.54,7.53,15.22,5.68,2.39,13.2.44,16.21-5.32q9.38-17.89,18.25-36.06-.24,7.63-1.24,15.23c0,.17,0,.34,0,.51a23.35,23.35,0,0,0-6.51,4c-3.76,3.31-5,7.6-5.58,12.37-.5,4.48,2.86,9,6.43,11.21a54.06,54.06,0,0,0,53.43,1.34c1.15-.62,2.26-1.3,3.35-2,.38,0,.77.05,1.16.06a648.13,648.13,0,0,0,88.27-5.34c3.57-.46,6.52-1.14,9.18-3.8a13.27,13.27,0,0,0,3.79-9l5.48-.6a164.08,164.08,0,0,0,7.19,25.29c1.88,5,5.31,8.57,10.8,9.3s9.66-1.91,12.93-6.19a68,68,0,0,0,5-7.59c3,4.82,8.81,8.27,14.57,6.14l20.74-7.7,9.51-3.52c3.42-1.27,7-2.46,10.1-4.45a24.26,24.26,0,0,0,8.67-9,28.21,28.21,0,0,0,2.73-14.39c-.3-7.09-.76-14.18-1.14-21.26q-2.34-43.25-4.69-86.49-1.34-24.65-2.66-49.29a13.45,13.45,0,0,0-6.92-11.37q2.21-52.6,2.25-105.26,0-21.93-.36-43.84c-.09-5.5-3.94-11.25-9.53-12.52a15.45,15.45,0,0,0-6.9,0c-2.72.62-6.62,3.31-7.76,6-1.55,3.64-3.17,7.26-4.81,10.86.16-1.21.33-2.43.48-3.64q8.7-18.87,17.41-37.73.63,2.1,1.17,4.23c1.64,6.59,9.41,11.19,16,9.07a13.18,13.18,0,0,0,7.76-6,14.94,14.94,0,0,0,1.3-10c-1.93-11.94-4.33-23.94-8.44-35.24,9.85-1.39,19.64-3.11,29.34-5.32C408.32,48.44,412.14,41.72,411.32,35.63Zm-262,254.16v0Zm130.5-203.1c.24.4.52.79.81,1.18.06.24-.19,0-.88-1.26A.27.27,0,0,1,279.85,86.69ZM261.36,342.37l.12-.29v.06C260.81,344.19,261.05,343.23,261.36,342.37Zm-7.82-51.52-1.76.74,9.61-13.71a31.72,31.72,0,0,0,8.5-3.1q1.71,7.22,3.43,14.42L273,289C266.68,285.07,259.69,288.42,253.54,290.85Zm46.16-20.34q-.45,6.87-.87,13.75-1.9-8-3.79-15.89Zm-73.94,65.11q1.45-1.08,2.94-2.13,5.72-4,11.75-7.59a117,117,0,0,0-7,17.62,13.2,13.2,0,0,0-9.21-1.54C224.77,339.86,225.27,337.74,225.76,335.62Zm-32.57-185c-.37,2.67-.75,5.35-1.11,8-.17,1.21-.33,2.42-.5,3.62-.36-.13-.72-.24-1.09-.34ZM300.61,389.75l1.94,3.17c0,.64.07,1.27.1,1.9L300,391.75ZM241.93,115.8l-2.58-15.07q3.48-1.44,6.91-3Q244.1,106.76,241.93,115.8Zm23.42,243.85c.15.74.29,1.49.44,2.23-.54-.18-1.08-.33-1.63-.48C264.56,360.82,265,360.24,265.35,359.65Zm15.36-154.39,5.4-12.12a15.14,15.14,0,0,0,1.62-8.44c.82,2.29,1.69,4.57,2.62,6.82Zm5.53-24.9a12.44,12.44,0,0,0-4.79-5l-.14-.07,2.4-3.4Q284.88,176.16,286.24,180.36Zm-110-70.79Q174,119,171.78,128.45l-8,33.61q-.24-6.48-.49-12.95a13.46,13.46,0,0,0-5.08-10.18ZM106.05,295.89q-1.06-5.37-1.87-10.79l-.33-2.32v0c0,.12,0,.23,0,.37-.17-1.55-.4-3.1-.59-4.65-.41-3.35-.78-6.7-1.15-10.05-.08-.65-.17-1.27-.27-1.87a13.66,13.66,0,0,0,8.36,5.65l-4.17,23.62ZM91.93,255.73q2.75-16.6,5.15-33.26a44.64,44.64,0,0,0,4.83-10.67q-.8,23.82-2.19,47.6a10.48,10.48,0,0,0,0,1.59,11.51,11.51,0,0,0-1.44-1.75A13.9,13.9,0,0,0,91.93,255.73Zm65.95,33a7,7,0,0,0,.85-.22c-.41.15-.74.26-1,.34Zm7.29-24.3a11.56,11.56,0,0,0,1.74-3.86q6.84-28.65,13.69-57.3,1.74,7.25,3.61,14.45c-1.18,9.63-2.3,19.27-3.28,28.92-1.7,16.74-2,33.35,1,50,.8,4.43,5,7.94,9.37,9.11v.06a220.26,220.26,0,0,0-5.19,26.37,13.08,13.08,0,0,0-6.69,5.44c-.61,1-1.2,1.95-1.81,2.92A335.36,335.36,0,0,0,172.85,273C172.17,269,168.73,266,165.17,264.42Zm92.3,121.9c.39.11.86.34,1.29.46l.06,0c-1-.12-1.53-.41-1.51-.53ZM333,321.75c.19-2.61.4-5.21.6-7.81.21,1.49.41,3,.62,4.46C333.79,319.52,333.38,320.63,333,321.75ZM272.48,143.19l-6.73,9.36a14.16,14.16,0,0,0-5.37-2.41l8.93-37.21c1.84,5.55,3.4,11.2,4.77,16.9.68,2.8,1.32,5.61,1.94,8.43ZM253.52,65l.06-.45.89,0ZM150.79,101.46a12.88,12.88,0,0,0-4.71-1.59,12.68,12.68,0,0,0-5.51.43q1.29-12.55,2.15-25.14c.12-1.73.22-3.46.33-5.2Q157,69.39,171,68.77ZM116.7,76.08q-.44,6.27-1,12.53-.69-3.17-1.45-6.3c.06-1.19.13-2.39.19-3.58a10.94,10.94,0,0,0-.68-4.24,18.45,18.45,0,0,0-1-3.44c1.4,0,2.8,0,4.2,0C116.92,72.73,116.81,74.41,116.7,76.08Zm23.48,175.15a12,12,0,0,0,1-.74l.25,6.62a13.58,13.58,0,0,0,3.77,9,56.94,56.94,0,0,0-8.84,6.05Q138.23,261.69,140.18,251.23ZM268.5,395.14c1,1.15,2.05,2.31,3.07,3.47q-7.95,8.92-16.44,17.31-4.32,2-8.54,4.21-.75-4.26-1.41-8.54Q256.9,403.46,268.5,395.14Zm71-10.63a17.87,17.87,0,0,0-2.79-3.18,234,234,0,0,0,11.8-26.9l1.05,19.44,2,37.29A82.47,82.47,0,0,0,339.54,384.51Zm-30.4-236.3q-.86,5.73-1.79,11.45-1.12-4.53-2.14-9.08c-.5-2.23-1-4.47-1.46-6.7,2.1-3,4.15-6,6.15-9.1l.62,1c-.27,2.74-.51,5.49-.77,8.23C309.55,145.4,309.35,146.81,309.14,148.21ZM75.26,117.43l1.33-.83c-.26,1.59-.53,3.17-.78,4.75C75.62,120.05,75.44,118.74,75.26,117.43ZM92,395.11a.42.42,0,0,0,0-.1l.17.37ZM90.9,373.17c-1,3.21-2,6.47-3,9.72-.33-1.2-.63-2.4-.91-3.61q-.61-2.7-1.09-5.42a14.91,14.91,0,0,0,4.39-6.46c.34-.95.69-1.9,1.06-2.84.08-.22.37-.93.58-1.45l.45-1c.47-1,1-2,1.45-3.06q1.81-3.7,3.89-7.28Q94.31,362.46,90.9,373.17Zm39.24-44.51a18,18,0,0,0-2.81-4.84q.89-5.11,1.76-10.23c5-4.86,10.2-9.58,15.41-14.22,1.79-1.6,3.61-3.16,5.43-4.73q.88,8,1.37,16a12.69,12.69,0,0,0-6.6,8q-3.62,13.7-7.82,27.22Q133.51,337.23,130.14,328.66Zm42.45,78.59c.91,1.48,1.88,2.93,2.92,4.3,1.88,2.47,4.06,5.8,6.83,7.53a140.22,140.22,0,0,0,9.51,11.71c3.06,3.39,8.34,4.52,12.63,3.34a12.22,12.22,0,0,0,7.25-5.46,12.13,12.13,0,0,0,9.93-1q1.22,6.69,2.75,13.3c-5.18.86-10.36,1.75-15.53,2.72l-1,.2c-5.28-.07-10.55-.07-15.82,0a53.83,53.83,0,0,0,.84-6.82c.32-5.43-4.23-11.31-9.53-12.52s-12,.73-14.66,6c-.6,1.18-1.23,2.34-1.87,3.5q-1.51-7.87-3.58-15.63c3.78-1.34,6.7-4.49,8.35-8.73C171.94,408.88,172.26,408.07,172.59,407.25ZM60.19,253.35q-.13-18.27-.19-36.54c.1-6.31.29-12.62.61-18.93a82.64,82.64,0,0,0,4.29,15.37q-.68,9.19-1.21,18.41-1.29,22.77-1.57,45.6a12.34,12.34,0,0,0,2.33,7.31,164.3,164.3,0,0,0-2.1,50.92c.35,3,1,6,3,8.38A13.23,13.23,0,0,0,58.85,355c-.08,1.83-.16,3.66-.23,5.49-.34-2.39-.68-4.79-1-7.18,0-.06,0-.14,0-.23-.11-.76-.2-1.52-.3-2.28l-.66-5.05q-.65-5-1.27-10.1-1.17-9.64-2.23-19.3-2.74-25-4.69-50.13C54.89,265.37,60.25,260.19,60.19,253.35ZM92,420.76a23.4,23.4,0,0,0,8.56-5.24l.19-.2q-2.59,5.39-5.24,10.74A55.21,55.21,0,0,0,92,420.76Zm21.68-33.64,5.07-15.87.16-.52q1.45,3.69,2.9,7.38a10.76,10.76,0,0,0-6.12,5.33q-1.34,2.93-2.68,5.84C113.23,388.56,113.45,387.83,113.68,387.12Zm36.6-.26q5.33-14.3,10-28.83a11.13,11.13,0,0,0,4.19.67,15.39,15.39,0,0,0,2.78-.39q-3.81,7-7.31,14.11A178.8,178.8,0,0,0,148,398.61a12.26,12.26,0,0,0-5.49,1.08c-.27-1.34-.55-2.68-.85-4A14,14,0,0,0,150.28,386.86ZM329.72,62.15a14.18,14.18,0,0,0-7.65,2.46A38.54,38.54,0,0,0,319,60.38l10.77-.78q6.3-.48,12.61-1l-3.45,7.47A12.57,12.57,0,0,0,329.72,62.15ZM108.62,26.28q32.52.57,65,1.42a11.37,11.37,0,0,0-1.31,5.74,14.22,14.22,0,0,0,.63,3.62q-17-1.35-34.12-1.53a20.39,20.39,0,0,0-15.5-8.65c-6.23-.44-11.81,2.65-16.81,6q-2.76,1.85-5.46,3.78C96,37,91,37.42,85.91,37.93c-5.54.56-11.17,3.62-12.52,9.53A13.14,13.14,0,0,0,75.29,58l-.36.33q-3.5,3.42-6.88,7l-.3-2.15q-2.56-18.54-5.14-37.1l5.88-.07C81.87,25.92,95.24,26,108.62,26.28ZM25.7,31.48l0,.15-.23.18.12-.21Zm-.54.47,0,0,.25-.22-.06.14A.48.48,0,0,1,25.16,32Zm1.11,4.89c0-.07,0-.12,0-.2-.08-.7-.17-1.4-.23-2.11,0-.42.07-2.1.05-3.3a4.51,4.51,0,0,1-.38.38c0-.05,0-.1,0-.16L26,31.2l.05,0v0a4.75,4.75,0,0,0,.59-.6c-.17.22-.32.39-.47.55.43-.25.85-.51,1.29-.73.1-.06.32-.16.55-.26l.18-.07c1.57-.56,3.19-1,4.81-1.45.93-.24,1.87-.45,2.81-.64q-.53,24.24-.91,48.48c-2.79-11.76-6-23.44-8-35.36C26.69,39.66,26.48,38.25,26.27,36.84Z"/><path class="cls-1" d="M103.84,282.75c-.38-3.44-.11-.82,0,0Z"/><path class="cls-1" d="M26.07,31.17v.06l.12-.13Z"/></g></g></svg>