<svg width="37" height="41" viewBox="0 0 37 41" fill="none" xmlns="http://www.w3.org/2000/svg">
<g clip-path="url(#clip0)">
<path d="M10.5 10.9C10.6 10.8 10.6 10.6 10.7 10.5C10.6 10.7 10.4 10.8 10.3 11C10.4 10.9 10.5 10.7 10.7 10.6C10.5 10.7 10.4 10.9 10.2 11C10.4 10.9 10.5 10.8 10.7 10.7C10.5 10.8 10.3 10.9 10.1 11C10.3 10.9 10.5 10.8 10.8 10.8C10.6 10.8 10.4 10.9 10.1 10.9C10.3 10.9 10.6 10.9 10.8 10.9C10.6 10.9 10.4 10.8 10.1 10.8C10.3 10.8 10.5 10.9 10.7 11C10.5 10.9 10.3 10.8 10.1 10.7C10.3 10.8 10.4 10.9 10.5 11C10.3 10.9 10.2 10.7 10 10.6C10.1 10.7 10.1 10.7 10.2 10.8C10.6 11.3 11.3 11.5 12 11.5C12.6 11.5 13.3 11.2 13.8 10.8C14.2 10.3 14.6 9.69998 14.5 8.99998C14.5 8.29998 14.2 7.69998 13.8 7.19998C13.2 6.59998 12.5 6.19998 11.8 5.99998C11 5.79998 10.2 5.79998 9.40001 5.99998C9.30001 5.99998 9.10001 5.99998 8.90001 6.09998C8.50001 6.19998 8.10001 6.39998 7.80001 6.59998C7.50001 6.79998 7.20001 7.09998 6.90001 7.39998C6.70001 7.69998 6.40001 7.99998 6.20001 8.39998C6.00001 8.59998 5.90001 8.99998 5.90001 9.29998C5.80001 9.59998 5.80001 9.99998 5.90001 10.3C6.10001 10.9 6.50001 11.5 7.00001 11.8C7.60001 12.1 8.30001 12.3 8.90001 12.1C9.10001 12 9.30001 11.9 9.50001 11.8C10 11.6 10.3 11.3 10.5 10.9Z" fill="#C6ECAC"/>
<path d="M21.5 9.69999C21.5 9.99999 21.5 10.2 21.5 10.5C21.5 10.8 21.6 11.2 21.7 11.5C21.8 11.8 22 12.1 22.2 12.3C22.4 12.5 22.7 12.7 23 12.8C23.3 13 23.6 13 24 13C24.2 13 24.4 12.9 24.7 12.9C25.1 12.8 25.5 12.6 25.8 12.3C25.9 12.1 26.1 12 26.2 11.8C26.4 11.4 26.5 11 26.5 10.5C26.5 10.2 26.5 9.99999 26.5 9.69999C26.5 9.39999 26.4 8.99999 26.3 8.69999C26.2 8.49999 26 8.19999 25.8 7.99999C25.6 7.79999 25.3 7.59999 25 7.49999C24.7 7.29999 24.4 7.29999 24 7.29999C23.8 7.29999 23.6 7.39999 23.3 7.39999C22.9 7.49999 22.5 7.69999 22.2 7.99999C22.1 8.19999 21.9 8.29999 21.8 8.49999C21.6 8.89999 21.5 9.29999 21.5 9.69999Z" fill="#C6ECAC"/>
<path d="M23.6 29.8C23.6 29.9 23.7 29.9 23.7 30C23.6 29.8 23.4 29.7 23.3 29.5C23.5 29.8 23.7 30.1 23.9 30.5C23.9 30.2 23.8 30 23.6 29.8C23.7 29.9 23.7 30 23.8 30.1C23.9 30.4 24 30.7 24.2 31C24.4 31.3 24.6 31.5 24.9 31.6C25.2 31.8 25.5 31.9 25.8 31.9C26.1 32 26.5 32 26.8 31.9C27 31.8 27.2 31.7 27.4 31.6C27.8 31.4 28.1 31.1 28.3 30.7C28.4 30.5 28.5 30.3 28.6 30.1C28.7 29.7 28.7 29.2 28.6 28.8C28.5 28.5 28.3 28.2 28.2 27.8C28.1 27.7 28.1 27.5 28 27.4C27.9 27.3 27.9 27.2 27.8 27.1C27.6 26.9 27.5 26.7 27.3 26.4C27.3 26.3 27.2 26.3 27.2 26.2C27 26 26.7 25.8 26.4 25.7C26.1 25.5 25.8 25.5 25.4 25.5C25.1 25.5 24.7 25.6 24.4 25.7C24.1 25.8 23.8 26 23.6 26.2C23.5 26.4 23.3 26.5 23.2 26.7C23 27.1 22.9 27.5 22.9 28C22.9 28.2 23 28.4 23 28.7C23.1 29.1 23.3 29.5 23.6 29.8Z" fill="#C6ECAC"/>
<path d="M18.3 13.5C17.9 13 18.4 13.8 18.1 13.2C18.1 13.2 17.8 12.5 17.9 12.9C17.8 12.7 17.8 12.4 17.7 12.2C17.8 12.7 17.7 11.9 17.7 11.9C17.6 11.2 17.6 12.1 17.7 11.7C17.7 11.5 17.8 11.3 17.9 11.1C18.1 10.3 17.7 11.5 18 10.7C18.2 10.3 18.4 9.79998 18.5 9.39998C19.2 6.69998 17.5 3.89998 14.7 3.39998C14.3 3.29998 13.9 3.29998 13.4 3.29998C12.7 3.19998 13.6 3.39998 13 3.19998C12.5 2.99998 12 2.79998 11.5 2.59998C10.3 2.09998 9 1.79998 7.7 2.09998C5.3 2.39998 3.6 4.19998 2.2 5.99998C0.600002 7.99998 -0.699998 10.8 0.900002 13.2C1.5 14.1 2.4 14.8 3.4 15.3C3.9 15.6 4.5 15.8 5.1 16C5.3 16.1 5.4 16.1 5.6 16.2C5.8 16.3 5.9 16.3 6.1 16.4C5.9 16.3 5.9 16.3 6.2 16.4C6.2 16.4 6.9 16.8 6.5 16.5C6.6 16.6 6.9 17.1 6.7 16.7C6.6 16.4 6.9 17.2 6.9 17.2C7 17.4 7 17.6 7.1 17.7C7.8 19.4 9.1 20.7 11 20.6C13.4 20.5 14.8 18.3 16 16.5C16 16.4 16.5 15.9 16.1 16.3C16.3 16.1 16.5 15.9 16.6 15.7C16.7 15.6 17 15.4 16.5 15.7C16.6 15.6 16.7 15.6 16.8 15.5C17 15.4 17 15.4 16.7 15.5C17.4 15.5 16.1 15.5 16.9 15.5C17.4 15.5 17.8 15.4 18.3 15.3C19.1 15.1 19.8 14.5 20.3 13.8C21.9 11.5 20.3 8.49998 19.5 6.09998C18.1 6.89998 16.7 7.69998 15.3 8.49998C15.8 8.99998 15.2 8.19998 15.5 8.79998C15.6 8.99998 15.7 9.19998 15.8 9.29998C15.9 9.49998 15.9 9.39998 15.8 9.29998C15.8 9.39998 15.9 9.49998 15.9 9.69998C16 9.89998 16 10.1 16.1 10.3C16.2 10.5 16.2 10.8 16.3 11C16.4 11.4 16.3 11 16.3 11.2C16.4 11.7 16.4 12.2 16.4 12.7C16.4 13 16.4 13.3 16.4 13.6C16.4 13.7 16.4 13.8 16.4 13.9C16.4 13.7 16.4 13.8 16.4 13.9C16.3 14.5 16.3 14.5 16 14.9C16.2 14.6 16 14.9 15.9 15C15.8 15.1 15.8 15.1 16 15C15.9 15.1 15.8 15.1 15.7 15.2C15.5 15.3 15.4 15.4 15.2 15.5C15.6 15.3 14.9 15.6 14.9 15.6C13.5 16 11.6 15.9 9.9 15.5C8.9 15.3 8.2 15 7.5 14.6C6.6 14.1 5.7 13.6 5.1 13.1C4.1 14.4 3.1 15.7 2.1 17C5.1 19.1 8.2 21.2 11.8 22.3C13.9 22.9 16.3 23.3 17.9 21.6C18.6 20.9 19.1 20 19.7 19.2C20.3 18.3 21 17.5 21.6 16.6C22.4 15.5 21.8 13.8 20.7 13.2C19.4 12.5 18.1 13 17.3 14.1C16.3 15.5 15.4 17 14.2 18.2C14.3 18 14.3 18 14.1 18.2C14.3 18 14.5 17.9 14.7 17.9C14.9 17.9 14.9 17.9 14.5 17.9C14.3 17.9 14.1 17.8 13.9 17.8C13.2 17.6 12.5 17.4 11.9 17.2C10.9 16.8 9.4 16.1 8.3 15.4C7 14.6 5.7 13.7 4.5 12.8C2.2 11.2 -0.699998 14.9 1.5 16.7C5.6 20.2 12.1 22.4 17.4 20.1C20.3 18.8 21.5 16 21.4 13C21.3 10.2 20.8 7.29998 18.8 5.29998C17.1 3.59998 13.8 5.29998 14.6 7.69998C14.9 8.59998 15.2 9.59998 15.5 10.5C15.6 10.8 15.7 11.2 15.8 11.5C15.9 12 15.8 11.6 15.8 11.5C15.8 12 15.7 11.9 15.9 11.5C16 11.2 16.5 11 16.6 10.8C16.6 10.8 17.2 10.7 16.5 10.8C16 10.8 15.5 10.9 15 11.1C14.1 11.4 13.4 11.9 12.7 12.5C12.1 13.1 11.7 13.7 11.2 14.4C11 14.7 10.8 14.9 10.6 15.2C10.4 15.5 11 14.8 10.5 15.3C10.4 15.5 10.2 15.6 10.1 15.8C10 15.9 9.9 16 9.8 16.1C10.2 15.8 9.9 16.1 9.8 16.1C10.1 16.1 10.4 16 10.8 16C11 16.1 11.2 16.2 11.4 16.4C11.4 16.4 11.6 17.1 11.3 16.2C10.9 15.1 10.5 14.1 9.6 13.3C8.8 12.6 8 12.2 7.1 11.8C6.7 11.7 6.3 11.5 6 11.4C6 11 5.9 11 5.8 10.9C6.3 11.1 5.6 10.8 5.6 10.8C5.6 10.8 5 10.4 5.3 10.6C5.5 10.8 5 10.4 5 10.4C5.1 10.4 5.2 10.8 5.2 10.8C5 10.5 5.2 10.6 5.2 10.7C5.2 11.1 5.3 10.4 5.2 10.6C5.1 10.8 5.5 9.89998 5.5 9.99998C5.7 9.69998 6 9.29998 6.2 8.89998C6.7 8.19998 6.1 9.09998 6.4 8.69998C6.5 8.49998 6.7 8.39998 6.8 8.19998C7 7.89998 7.3 7.59998 7.6 7.39998C7.9 7.09998 7.2 7.59998 7.8 7.29998C8 7.19998 8.1 7.09998 8.2 6.99998C7.9 7.19998 8.2 6.99998 8.3 6.99998C8.5 6.99998 8.6 6.89998 8.8 6.89998C8.6 6.89998 8.5 6.89998 8.7 6.89998C8.8 6.89998 9.3 6.99998 8.9 6.89998C9.1 6.99998 9.3 6.99998 9.4 7.09998C9.8 7.19998 10.2 7.39998 10.5 7.49998C11.5 7.89998 12.5 8.09998 13.6 8.19998C13.7 8.19998 13.8 8.09998 14 8.29998C13.9 8.29998 13.8 8.19998 13.7 8.19998C13.6 8.09998 13.6 8.09998 13.8 8.29998C13.8 7.99998 13.7 8.19998 13.8 8.39998C13.7 8.29998 13.7 8.19998 13.7 7.99998C13.7 8.09998 13.7 8.19998 13.7 8.19998C13.9 7.89998 13.6 8.29998 13.6 8.39998C13.5 8.59998 13.5 8.59998 13.6 8.39998C13.5 8.69998 13.4 8.99998 13.2 9.19998C13 9.59998 12.9 9.99998 12.8 10.4C12.4 12.8 13 15.1 14.6 17C15.5 18 17.2 17.9 18.1 17C19.3 16 19.2 14.5 18.3 13.5Z" fill="#6A6299"/>
<path d="M20.5 7.89998C21.5 7.49998 22.5 7.19998 23.5 6.79998C24 6.59998 24.4 6.49998 24.9 6.29998C25.2 6.19998 25.4 6.09998 25.7 5.99998C26 5.79998 25.8 5.99998 25.5 5.89998C25.4 5.89998 25.3 5.79998 25.3 5.79998C25.1 5.59998 25 5.59998 25.2 5.79998C25.3 5.89998 25.3 5.99998 25.4 5.99998C25.3 5.79998 25.3 5.79998 25.4 6.09998C25.5 6.19998 25.6 6.39998 25.6 6.49998C25.4 6.09998 25.7 6.79998 25.7 6.79998C25.9 7.49998 25.7 6.59998 25.8 6.99998C25.8 7.19998 25.8 7.39998 25.8 7.69998C25.8 8.39998 25.9 8.99998 26.1 9.69998C26.4 10.7 27 11.6 27.6 12.5C27.8 12.9 28.1 13.2 28.3 13.6C28.4 13.8 28.5 14.1 28.7 14.3C28.7 14.3 29 15 28.9 14.7C28.9 14.8 29 14.9 29 14.9C29.3 15.8 29.6 15.2 29.9 13.3C29.9 13.3 29.1 13.6 29.6 13.5C29.2 13.6 28.8 13.7 28.4 13.8C27.7 14 28.6 13.8 28.2 13.8C28 13.8 27.8 13.8 27.6 13.8C27.1 13.8 26.6 13.8 26.1 13.7C26.1 13.7 25.3 13.6 25.8 13.7C25.5 13.7 25.3 13.6 25.1 13.6C24.7 13.5 24.3 13.4 23.9 13.3C22.6 13 21.5 12.7 20.3 13.5C18.8 14.4 18.6 16.3 19.5 17.7C20.3 18.9 21.7 19.4 23.1 19.4C25.3 19.4 27.3 18.1 29 16.9C30.7 15.8 32.5 14.5 33.5 12.7C34.7 10.5 34.6 7.49998 33.2 5.39998C32.5 4.39998 31.7 3.59998 30.7 2.89998C29.7 2.19998 28.5 1.89998 27.4 1.49998C27.8 2.89998 28.1 4.29998 28.5 5.69998C28.8 5.39998 28.4 5.69998 28.3 5.79998C27.9 5.99998 27.4 5.99998 27.8 5.99998C27.1 5.99998 27.9 6.09998 27.6 5.99998C27.3 5.89998 27.8 6.19998 27.5 5.89998C27.8 6.19998 28 6.59998 28.1 6.99998C28.4 7.79998 28.7 8.69998 29 9.49998C29.1 9.89998 29.2 10.4 29.3 10.8C29.3 11 29.4 11.2 29.4 11.4C29.5 11.8 29.4 10.8 29.4 11.6C29.4 11.8 29.4 11.9 29.4 12.1C29.4 12.2 29.3 12.8 29.4 12.4C29.4 12.6 29.3 12.7 29.3 12.9C29.4 12.5 29.2 13.1 29.1 13.2C29.2 13 29.2 13.1 29 13.2C28.8 13.4 28.7 13.5 28.5 13.7C28.7 13.5 28.6 13.6 28.4 13.7C28.2 13.8 28.1 13.9 27.9 14C26.3 15 25.2 15.4 23.4 15.8C22.1 16.1 21.3 17.6 21.7 18.9C22.1 20.2 23.4 20.9 24.8 20.6C27.1 20.1 29.5 19.1 31.4 17.7C32.6 16.8 33.6 15.7 34.1 14.3C34.6 13 34.5 11.6 34.3 10.2C34.2 9.19998 33.8 7.99998 33.4 6.99998C33 5.79998 32.6 4.59998 31.9 3.49998C31.2 2.39998 30.1 1.49998 28.8 1.09998C27.3 0.699982 25.7 1.09998 24.7 2.19998C23.4 3.69998 24 5.69998 25.8 6.39998C26.2 6.59998 26.7 6.69998 27.1 6.79998C27.3 6.89998 27.4 6.89998 27.1 6.79998C27.3 6.89998 27.4 6.99998 27.6 7.09998C27.8 7.19998 27.9 7.29998 28.1 7.39998C27.8 7.19998 28.1 7.39998 28.2 7.49998C28.3 7.59998 28.5 7.79998 28.6 7.89998C28.4 7.69998 28.5 7.79998 28.6 7.89998C28.7 8.09998 28.8 8.19998 28.9 8.39998C29 8.59998 28.9 8.19998 29 8.59998C29 8.69998 29.2 9.29998 29.1 8.99998C29.1 8.69998 29.1 9.39998 29.1 9.39998C29.1 9.59998 29.1 9.69998 29.1 9.49998C29.1 9.69998 29 9.89998 29 10.1C28.9 10.3 29.2 9.89998 28.9 10.3C28.9 10.3 28.5 10.9 28.7 10.6C28.8 10.4 28.5 10.8 28.5 10.8C28.4 10.9 28.2 11.1 28.1 11.2C28 11.3 27.8 11.5 27.6 11.6C27.6 11.6 27.1 12 27.4 11.7C26.7 12.2 26.1 12.7 25.4 13.1C24.7 13.5 24 14 23.3 14.3C23.6 14.2 23.1 14.3 23.1 14.4C22.9 14.5 23.4 14.4 22.9 14.4C22.6 14.4 22.7 14.3 22.8 14.4C23.1 14.6 23.6 14.9 23.7 15.3C23.7 15.7 23.7 16.2 23.7 16.6C23.7 16.7 23.6 16.8 23.6 16.9C23.3 17.2 23 17.5 22.7 17.8C22.5 18 22 17.8 21.8 18C21.7 18.1 21.7 18 21.9 18.1C22.1 18.2 22.4 18.2 22.6 18.3C23.2 18.4 23.8 18.6 24.3 18.6C25.5 18.8 26.6 18.9 27.8 18.8C30.5 18.6 34.7 17.4 33.7 13.9C33.4 12.8 32.8 11.6 32.2 10.6C31.9 10.1 31.6 9.69998 31.3 9.19998C31.2 8.99998 31 8.79998 30.9 8.49998C30.8 8.29998 30.9 8.49998 30.9 8.49998C30.8 8.29998 30.8 8.19998 30.8 7.99998C30.8 7.99998 30.7 7.59998 30.8 7.79998C30.8 7.99998 30.8 7.59998 30.8 7.59998C30.8 7.29998 30.8 7.09998 30.7 6.79998C30.6 6.09998 30.5 5.39998 30.2 4.69998C29.7 3.39998 28.9 2.19998 27.8 1.39998C26.3 0.399982 24.7 0.899982 23.1 1.39998C21.7 1.89998 20.4 2.39998 19 2.89998C18 3.59998 17 4.79998 17.4 6.19998C17.8 7.39998 19.2 8.39998 20.5 7.89998Z" fill="#6A6299"/>
<path d="M24.5 9.39999H24.6C24.4 9.29999 24.2 9.19999 24 9.09999C24.4 9.29999 24.7 9.49999 25 9.69999C24.9 9.69999 24.7 9.49999 24.5 9.39999C24.9 9.69999 25.1 9.89999 25.4 10.3C25.3 10.1 25.1 9.99999 25 9.79999C25.1 9.99999 25.2 10.1 25.3 10.3C25.5 10.6 25.7 10.8 25.9 11C26.1 11.2 26.4 11.4 26.8 11.4C27.1 11.5 27.5 11.5 27.8 11.4C28.1 11.4 28.4 11.3 28.7 11.1C28.9 11 29 10.8 29.2 10.7C29.5 10.4 29.7 9.99999 29.8 9.59999C29.8 9.39999 29.9 9.19999 29.9 8.89999C29.9 8.39999 29.8 7.99999 29.6 7.59999C29.4 7.19999 29.1 6.79999 28.8 6.49999C28.6 6.29999 28.4 6.09999 28.2 5.89999C27.8 5.59999 27.5 5.29999 27.1 5.09999C26.7 4.89999 26.2 4.69999 25.8 4.49999C25.5 4.39999 25.1 4.39999 24.8 4.49999C24.5 4.49999 24.2 4.59999 23.9 4.79999C23.6 4.99999 23.4 5.19999 23.2 5.39999C23 5.69999 22.8 5.99999 22.7 6.29999C22.7 6.49999 22.6 6.69999 22.6 6.99999C22.6 7.49999 22.7 7.89999 22.9 8.29999C23 8.49999 23.2 8.59999 23.3 8.79999C23.7 9.09999 24.1 9.29999 24.5 9.39999Z" fill="#6A6299"/>
<path d="M26.4 24.8C26.7 26.4 27.9 27.6 29.3 28.1C29.9 28.3 30.6 28.4 31.2 28.3C31.3 28.3 31.7 28.3 31.7 28.3C31.7 28.4 30.9 28.1 30.9 28C30.8 27.9 30.7 27.8 30.6 27.7C30.9 28.1 30.4 27.4 30.6 27.7C30.6 27.8 30.6 27.9 30.7 28C30.7 27.9 30.7 27.4 30.7 27.9C30.7 28.1 30.7 28.3 30.7 28.5C30.7 28.8 30.7 29.1 30.7 29.4C30.7 29.8 30.8 29.1 30.7 29.5C30.7 29.6 30.7 29.7 30.6 29.7C30.6 29.8 30.5 29.9 30.6 29.7C30.6 29.7 30.9 29.3 30.7 29.5C30.5 29.7 30.8 29.4 30.8 29.4C31 29.3 31.1 29.3 31.3 29.3C31.3 29.3 31.7 29.4 31.4 29.3C30.4 29.1 29.4 29 28.5 29.6C27.2 30.4 27 31.9 26.7 33.2C26.6 33.4 26.6 33.6 26.5 33.9C26.4 34.2 26.5 33.8 26.6 33.7C26.5 33.9 26.4 33.9 26.7 33.6C26.4 33.8 26.9 33.5 27 33.5C26.6 33.7 26.9 33.5 27 33.5C27.1 33.5 27.2 33.5 27.2 33.5C27.1 33.5 27.1 33.5 27 33.4C27.1 33.4 27.3 33.5 27 33.4C27 33.4 26.7 33.2 26.9 33.3C27.1 33.4 26.8 33.2 26.8 33.2C26.7 33.1 26.6 33 26.5 32.9C26.1 32.5 25.7 32 25.3 31.6C24.6 30.8 23.6 30.2 22.7 29.7C22.3 29.5 21.9 29.3 21.5 29.1C21.3 29 21 28.6 21.4 29C21.3 28.9 21.3 28.9 21.2 28.8C21.1 28.7 21 28.5 21.1 28.7C21.2 29 21.1 28.7 21.1 28.6C21 28.4 21.2 28.8 21.2 28.8C21.2 28.7 21.1 28.3 21.2 28.8C21.2 28.7 21.3 28.4 21.2 28.7C21.1 29 21.2 28.7 21.2 28.6C21.2 28.8 21.1 28.8 21.2 28.6C21.3 28.5 21.3 28.4 21.4 28.3C21.5 28.1 21.2 28.5 21.5 28.2C21.6 28.1 21.7 28.1 21.7 28C21.9 27.7 21.4 28.2 21.7 28C21.9 27.9 22.1 27.7 22.3 27.6C22.4 27.5 23.1 27.2 22.7 27.4C23 27.3 23.3 27.2 23.6 27C24.8 26.5 25.9 25.9 27 25.3C27.2 25.2 27.5 25 27.7 24.9C28 24.7 27.4 25 27.7 24.9C27.8 24.9 27.9 24.8 28 24.8C28.1 24.8 28.5 24.7 28 24.8C28.1 24.8 28.2 24.8 28.3 24.8C28.5 24.7 28.3 24.8 28.2 24.8C28.4 24.8 28.5 24.9 28.7 24.9C29 25 28.6 24.9 28.6 24.9C28.7 25 28.9 25 29 25.1C29.4 25.3 28.9 24.9 29.2 25.2C29.3 25.3 29.4 25.4 29.5 25.5C29.5 25.5 29.7 25.8 29.6 25.6C29.4 25.4 29.7 25.7 29.7 25.8C29.8 25.9 29.9 26.1 29.9 26.2C29.9 26.3 30.1 26.7 30 26.5C29.9 26.3 30.1 26.6 30.1 26.7C30.2 27 30.3 27.2 30.3 27.5C30.4 27.8 30.4 28.1 30.5 28.3C30.5 28.4 30.5 28.5 30.6 28.7C30.7 29.1 30.5 28.1 30.6 28.9C30.7 30 30.8 31.2 30.8 32.4C30.8 32.5 30.8 32.6 30.8 32.8C30.8 33 30.7 33.3 30.8 33C30.8 33.1 30.7 33.2 30.7 33.4C30.7 33.6 30.5 33.9 30.6 33.6C30.5 33.7 30.5 33.8 30.4 33.9C30.3 34.1 30.7 33.6 30.4 33.9C30.4 33.9 30.1 34.2 30.4 33.9C30.7 33.7 30.3 34 30.2 34C30.2 34 29.9 34.2 30.2 34C30.5 33.8 30 34.1 30 34.1C29.8 34.2 29.1 34.2 29.7 34.2C29.4 34.2 29.2 34.2 28.9 34.2C28.8 34.2 28.7 34.2 28.6 34.2C28.3 34.2 29.2 34.3 28.6 34.2C28.4 34.1 28.1 34.1 27.9 34C27.8 34 27.7 33.9 27.5 33.9C27.2 33.8 27.8 34.1 27.4 33.9C26.8 33.6 26.3 33.3 25.7 32.9C24.6 32.2 23.5 31.4 22.3 30.7C21.2 30.1 19.5 30.4 18.9 31.6C18.3 32.8 18.6 34.3 19.8 35C22.3 36.4 24.5 38.5 27.4 39C30.6 39.6 34 38.5 35.3 35.2C35.9 33.8 35.8 32.2 35.7 30.7C35.6 29.1 35.5 27.5 35.1 26C34.2 22.9 31.6 19.7 28.1 19.9C26.4 20 25 20.8 23.5 21.6C23.2 21.8 22.9 21.9 22.7 22C22.6 22.1 22.4 22.1 22.3 22.2C22.7 22 22.3 22.2 22.2 22.2C21.4 22.5 20.6 22.8 19.8 23.2C16.6 24.8 14.7 28.8 17.2 31.9C18 32.9 19.1 33.4 20.2 34C20.4 34.1 20.6 34.2 20.9 34.4C21 34.5 21.1 34.6 21.2 34.6C21.5 34.7 20.8 34.1 21.2 34.6C21.7 35.1 22.1 35.6 22.6 36.2C23.7 37.5 25.3 38.4 27 38.3C29 38.2 30.4 36.8 31.1 35C31.3 34.4 31.4 33.8 31.5 33.2C31.6 32.5 31.8 32.7 30.6 33.4C29.4 34.1 29.4 33.9 30.1 34C30.8 34.1 31.4 34.1 32 33.9C34.3 33.2 35.2 31 35.3 28.8C35.4 27.1 35.2 25.3 33.9 24.1C33.1 23.3 31.9 23 30.8 23.2C30.6 23.2 30.5 23.1 30.8 23.3C30.5 23.1 30.7 23.3 30.9 23.4C30.9 23.4 31 23.4 31 23.5C30.8 23.3 30.8 23.3 31 23.5C31 23.4 30.9 23.4 30.9 23.3C31 23.6 31 23.6 31 23.3C30.8 22 29.1 21.2 27.9 21.6C26.7 22.2 26.1 23.4 26.4 24.8Z" fill="#6A6299"/>
<path d="M12.3 2.30002C8 2.00002 2.3 2.60002 0.599999 7.30002C-1 11.7 0.999999 17.3 4.7 20.1C6.5 21.5 8.7 22.2 11 22.5C13.4 22.8 16.1 23 18.4 21.8C22.2 19.9 23.4 15.2 22.4 11.3C21.8 8.70002 20.3 6.20002 18.5 4.20002C16.4 2.00002 14 2.60002 11.3 2.40002C11 2.40002 11 2.90002 11.3 2.90002C13.7 3.00002 16 2.50002 17.9 4.30002C19.4 5.70002 20.6 7.70002 21.4 9.60002C22.9 13.2 22.6 17.8 19.4 20.5C17.6 22 15.2 22.2 13 22.1C10.7 22 8.4 21.6 6.4 20.5C2.5 18.3 0.499999 13.8 0.799999 9.40002C0.999999 6.80002 2.5 4.90002 4.8 3.70002C7.2 2.50002 9.9 2.60002 12.5 2.70002C12.6 2.80002 12.6 2.30002 12.3 2.30002Z" fill="black"/>
<path d="M8.6 7.49998C8.7 7.09998 8.9 6.79998 9.1 6.39998C9.3 6.09998 9.7 5.29998 10.1 5.39998C10.4 5.39998 10.6 5.89998 10.7 6.09998C10.8 6.39998 11 6.59998 11.1 6.79998C11.6 7.39998 12.2 7.29998 12.9 7.29998C13.8 7.29998 14.4 8.29998 13.7 9.09998C13.3 9.49998 12.7 9.69998 12.5 10.2C12.4 10.5 12.4 10.8 12.4 11.1C12.4 11.6 12.3 11.9 11.8 12.1C11.1 12.4 10.2 12.2 9.5 11.9C9.1 11.7 8.9 11.5 8.7 11.1C8.6 10.8 8.6 10.5 8.4 10.2C7.9 9.49998 7 9.69998 6.5 9.09998C6.4 8.89998 6.2 8.59998 6.2 8.39998C6.2 8.09998 6.5 8.09998 6.7 7.99998C7.2 7.89998 7.7 7.79998 8.2 7.69998C8.5 7.59998 8.4 7.19998 8.1 7.19998C7.6 7.39998 7 7.39998 6.5 7.59998C6.2 7.69998 5.8 7.79998 5.7 8.19998C5.5 8.99998 6.4 9.69998 7 9.99998C7.5 10.2 7.9 10.3 8.1 10.9C8.2 11.3 8.3 11.7 8.7 12C9.3 12.6 10.4 12.8 11.2 12.8C11.9 12.8 12.7 12.4 12.9 11.6C13 11.1 12.8 10.6 13.2 10.2C13.5 9.89998 13.9 9.69998 14.2 9.39998C14.7 8.79998 14.7 7.89998 14.1 7.29998C13.8 6.99998 13.5 6.89998 13.1 6.89998C12.6 6.89998 12 7.09998 11.6 6.59998C11.1 5.99998 10.8 4.69998 9.9 4.89998C9.5 4.99998 9.1 5.49998 8.9 5.79998C8.6 6.29998 8.3 6.79998 8.1 7.39998C8 7.59998 8.4 7.79998 8.6 7.49998Z" fill="black"/>
<path d="M9.99999 7.80001C9.59999 8.00001 9.19999 8.30001 9.09999 8.80001C8.99999 9.00001 8.99999 9.30001 9.09999 9.50001C9.19999 9.80001 9.49999 9.90001 9.79999 10C10.1 10.1 10.4 10.2 10.6 10.1C10.8 10 11 9.80001 11.1 9.60001C11.2 9.40001 11.2 9.10001 11.2 8.90001C11.2 8.60001 11.2 8.40001 11 8.20001C10.7 7.70001 10.1 7.70001 9.59999 7.70001C9.29999 7.70001 9.29999 8.20001 9.59999 8.20001C9.69999 8.20001 9.79999 8.20001 9.79999 8.20001H9.89999C9.89999 8.20001 9.89999 8.20001 9.99999 8.20001C10.1 8.20001 10.1 8.20001 10.2 8.30001C10.2 8.30001 10.2 8.30001 10.3 8.30001C10.3 8.30001 10.3 8.30001 10.4 8.30001C10.5 8.40001 10.6 8.50001 10.6 8.70001C10.6 8.90001 10.6 9.10001 10.6 9.20001C10.6 9.20001 10.6 9.20001 10.6 9.30001V9.40001C10.6 9.40001 10.6 9.50001 10.5 9.50001C10.4 9.50001 10.5 9.50001 10.5 9.50001H10.4C10.3 9.50001 10.2 9.50001 10.1 9.50001C9.89999 9.50001 9.69999 9.40001 9.59999 9.30001L9.49999 9.20001V9.10001V9.00001C9.49999 8.80001 9.59999 8.70001 9.69999 8.50001C9.79999 8.40001 9.89999 8.30001 10.1 8.20001C10.2 8.20001 10.3 8.00001 10.3 7.90001C10.2 7.80001 10.1 7.70001 9.99999 7.80001Z" fill="black"/>
<path d="M18.1 4.49997C19.2 2.99997 20.7 1.99997 22.3 1.39997C23.8 0.799974 26.2 -2.56896e-05 27.7 0.799974C28.5 1.19997 29.2 1.89997 29.9 2.39997C30.7 2.99997 31.5 3.59997 32.2 4.29997C33.7 5.69997 34.3 7.39997 34.4 9.39997C34.6 12.8 33 16.3 30.2 18.3C27.4 20.4 23.6 20.8 20.3 19.6C20 19.5 19.9 20 20.2 20.1C25.9 22.2 32.4 19.2 34.4 13.4C35.3 10.7 35.3 7.19997 33.5 4.89997C32.5 3.59997 31.1 2.69997 29.9 1.79997C28.6 0.799974 27.6 -0.100026 25.9 0.0999743C22.8 0.399974 19.6 1.69997 17.7 4.29997C17.5 4.49997 17.9 4.69997 18.1 4.49997Z" fill="black"/>
<path d="M20.6 8.09999C21 7.89999 21.2 7.59999 21.5 7.49999C21.9 7.29999 22.4 7.49999 22.6 7.79999C23 8.39999 22.5 9.29999 23.2 9.69999C23.5 9.89999 23.8 9.89999 24.2 9.89999C24.6 9.89999 25 10.1 25.3 10.3C25.9 10.8 26.1 11.9 25.6 12.5C25.3 12.9 24.6 12.8 24.1 12.8C23.6 12.8 23 12.8 22.5 12.8C22.2 12.8 22.2 13.3 22.5 13.3C23.1 13.3 23.7 13.3 24.2 13.3C24.7 13.3 25.3 13.3 25.7 13C26.5 12.5 26.5 11.3 26.2 10.6C25.8 9.79999 25 9.29999 24.1 9.29999C23.9 9.29999 23.6 9.29999 23.5 9.09999C23.4 8.89999 23.4 8.59999 23.4 8.39999C23.4 7.99999 23.3 7.59999 23 7.29999C22.7 6.89999 22.2 6.79999 21.7 6.79999C21.4 6.79999 21.2 6.89999 21 7.09999C20.8 7.29999 20.6 7.49999 20.4 7.59999C20 7.79999 20.3 8.29999 20.6 8.09999Z" fill="black"/>
<path d="M29.7 20.7C27.6 20.8 25.6 21.7 23.7 22.7C22 23.6 20.4 24.6 19.3 26.2C16.6 29.8 18 34 20.7 37C22 38.4 23.4 40.2 25.5 40.5C27.6 40.8 30.1 40.8 32.2 40.3C34.1 39.8 35.2 38.5 35.8 36.6C36.4 34.3 36.8 31.8 36.6 29.4C36.4 27.2 35.6 25 34 23.4C32.7 22.1 30.4 20.1 28.4 20.8C28.1 20.9 28.2 21.4 28.5 21.3C30.2 20.7 32.4 22.6 33.6 23.8C35 25.2 35.8 27 36 29C36.2 31 35.9 33.1 35.5 35.1C35.1 37.2 34.4 38.9 32.3 39.6C30.5 40.2 28.4 40.1 26.5 40C25.3 39.9 24.3 39.7 23.4 38.9C22.7 38.3 22.1 37.7 21.5 37C18.9 34.2 17.1 30.4 19.4 26.8C20.4 25.2 22 24.1 23.6 23.2C25.5 22.2 27.6 21.1 29.7 21.1C30 21.2 30 20.7 29.7 20.7Z" fill="black"/>
<path d="M24.6 27C24.6 26.5 24.7 26 25 25.6C25.2 25.2 25.7 24.6 26.2 24.7C26.6 24.8 26.7 25.6 26.7 25.9C26.7 26.3 26.6 26.8 26.9 27.2C27.5 27.9 28.4 27.3 29.1 27.7C29.6 28 30.7 29.5 29.7 29.9C29.1 30.1 28.4 29.7 27.8 30.2C27.1 30.7 27.5 31.7 26.9 32.3C26.6 32.6 26 32.8 25.6 32.5C25.2 32.3 25 31.8 24.9 31.3C24.7 30.7 24.5 29.9 23.8 29.6C23.6 29.5 23.4 29.5 23.2 29.5C22.9 29.5 22.8 29.3 22.7 29C22.7 28.8 22.6 28.6 22.6 28.4C22.7 28.1 23.1 28.2 23.3 28.2C24.1 28.2 25 27.7 24.6 26.8C24.5 26.5 24 26.6 24.1 26.9C24.4 27.7 23.4 27.7 22.9 27.7C22.5 27.7 22.1 27.8 22 28.3C21.9 28.7 22 29.2 22.2 29.5C22.4 29.9 22.7 30.1 23.1 30.1C24.3 30.2 24.1 31.7 24.7 32.5C25.2 33.3 26.2 33.4 26.9 32.9C27.3 32.7 27.5 32.3 27.6 31.9C27.7 31.4 27.6 30.7 28.2 30.6C28.9 30.4 29.9 30.8 30.4 30C30.8 29.2 30.1 28.2 29.6 27.7C29.3 27.4 28.9 27.2 28.4 27.2C28.1 27.2 27.8 27.3 27.6 27.2C27.1 27.1 27.1 26.8 27.1 26.4C27.1 25.5 26.9 24 25.6 24.4C24.5 24.8 24.1 26.1 24 27.2C24.1 27.3 24.6 27.3 24.6 27Z" fill="black"/>
<path d="M25.5 28C25.3 28.3 25 28.7 24.9 29.1C24.9 29.3001 24.9 29.5001 25 29.7001C25.1 29.8001 25.2 30 25.4 30C25.6 30.1 25.7 30.1 25.9 30.1C26.1 30.1 26.3 30.1 26.4 30C26.6 29.9 26.6 29.6 26.6 29.4C26.6 29.2 26.6 29 26.6 28.8C26.6 28.6 26.6 28.3 26.5 28.1C26.4 27.9 26.1 27.8 25.9 27.8C25.8 27.8 25.7 28 25.7 28.1C25.7 28.2 25.9 28.3 26 28.3V28.4C26 28.4 26 28.5 26 28.6C26 28.7 26 28.8 26 28.8C26 29 26 29.1 26 29.3C26 29.4 26 29.4 26 29.5V29.6H26.1H26C25.9 29.6 25.9 29.6 25.8 29.6C25.8 29.6 25.8 29.6 25.7 29.6H25.6C25.6 29.6 25.6 29.6 25.5 29.6C25.5 29.6 25.5 29.6 25.4 29.6C25.4 29.5 25.3 29.4 25.4 29.3C25.5 29 25.6 28.7 25.8 28.5C25.9 28.4 25.9 28.2 25.8 28.1C25.8 27.9 25.6 27.9 25.5 28Z" fill="black"/>
</g>
<defs>
<clipPath id="clip0">
<rect width="36.6" height="40.7" fill="white"/>
</clipPath>
</defs>
</svg>
