<svg width="77" height="97" viewBox="0 0 77 97" fill="none" xmlns="http://www.w3.org/2000/svg">
<g clip-path="url(#clip0)">
<path d="M24.9 57.6C26.9 68.8 28.9 80 30.9 91.2C31.1 92.4 32.5 93.2 33.6 93C34.9 92.8 35.7 91.8 35.8 90.5C36.4 78.7 41.4 67 38.3 55.1C38 53.9 36.8 53.1 35.6 53.3C34.3 53.5 33.6 54.5 33.4 55.8C32.2 67.4 31.9 79.2 32.5 90.8C32.7 94.1 37.2 94 37.5 90.8C38.2 84.5 39.4 78.3 41 72.3C39.4 72.3 37.8 72.3 36.2 72.3C36.9 75.9 37.9 79.5 39.2 83C39.9 85.1 42.5 85.4 43.8 83.6C46.7 79.2 47.9 74.2 48.5 69C48.8 66.5 49 64 49.1 61.5C49.2 59.2 48.8 56.5 46.4 55.4C45.1 54.8 43 55.1 42.7 56.9C41.3 66.2 40.1 75.5 39.2 84.9C39 87.5 42.7 88.2 43.9 86.2C49.2 77.3 52.7 67.5 56.2 57.7C57.1 55.1 52.8 53.2 51.6 55.8C48 64 45.8 72.8 45.3 81.7C45.2 83.8 45.2 86 45.2 88.1C45.2 88.9 45.3 89.8 45.2 90.6C45.2 90.4 45.1 91.4 45.1 91.1C44.9 91.5 44.9 91.4 45.2 91.1C42.4 88.7 38.9 85.5 35.3 88.5C33.2 90.2 35.5 93.1 37.7 92.7C39.7 92.3 41.7 91.9 43.6 91.5C44.9 91.2 45.7 89.7 45.3 88.4C44.9 87 43.6 86.4 42.2 86.7C40.2 87.1 38.2 87.5 36.3 87.9C37.1 89.3 37.9 90.7 38.7 92.1C38.1 92.6 39.1 92.7 39.5 93C40.3 93.6 40.9 94.4 41.8 95C43.6 96.3 46 96.7 47.9 95.3C49.5 94.2 50 92.3 50.1 90.4C50.2 88.3 50 86.2 50 84.1C50.2 75.3 52.2 66.5 55.7 58.4C54.2 57.8 52.7 57.1 51.1 56.5C47.8 65.8 44.4 75.2 39.3 83.8C40.9 84.2 42.4 84.6 44 85.1C44.8 76.2 45.9 67.3 47.3 58.4C46.1 58.9 44.9 59.4 43.6 59.9C44.2 60.2 43.8 60 43.7 59.9C43.8 60.2 43.8 60.5 43.8 60.8C43.8 61.7 43.7 62.6 43.7 63.5C43.6 65.6 43.4 67.6 43.1 69.7C42.5 73.8 41.4 77.7 39.1 81.2C40.6 81.4 42.1 81.6 43.7 81.8C42.4 78.3 41.5 74.7 40.7 71.1C40.2 68.6 36.5 68.8 35.9 71.1C34.1 77.6 32.9 84.2 32.2 91C33.9 91 35.5 91 37.2 91C36.6 79.3 36.9 67.6 38.1 56C36.5 56.2 34.8 56.4 33.2 56.7C34.6 62.1 34 67.8 33.1 73.3C32.1 79.1 30.8 84.9 30.5 90.8C32.1 90.6 33.8 90.4 35.4 90.1C33.4 78.9 31.4 67.7 29.4 56.5C29.2 55.2 27.5 54.4 26.3 54.8C25.2 55 24.6 56.3 24.9 57.6Z" fill="#C6ECAC"/>
<path d="M11.9 39.4C10.3 37.8 9.4 35.7 8.5 33.6C8.1 32.6 6.7 29.5 8.2 28.7C9.4 28 10.5 30.6 10.7 31.4C11.1 33.1 10.7 35 9.5 36.3C10.7 36.3 11.9 36.3 13 36.3C12.6 35.9 13.5 33.9 13.6 33.4C14.1 31.8 14.8 30.3 15.6 28.9C16.3 27.6 18.7 24.5 19.7 27.1C20.6 29.2 20.1 32.1 18.6 33.9C18.3 34.2 18 34.7 17.6 34.8C17.8 34.7 17.8 35 17.5 34.6C17.3 34.3 17 34.1 16.8 33.9C15.8 32.8 15.2 31.5 15 30.1C15 30.5 15 31 15 31.4C14.7 31.7 14.4 32 14.1 32.3C16 31 19.2 31.7 21 32.8C21.3 33 22 33.8 22.3 33.9L22.4 34C22.7 33.3 22.7 33 22.4 33.2C22.4 33.2 21.8 33.6 21.7 33.6C20.3 34.4 18.6 34.9 17 35.2C15.8 35.5 13.9 35.8 12.7 35.3C12.2 35 11.7 34 11.4 33C10.7 30.9 9.9 27.1 12.2 25.6C12.8 25.2 13.8 25 14.2 25.8C14.5 26.4 13.6 26.9 13.1 27.2C11.8 28.1 10.5 28.9 9.3 29.9C8.1 30.9 6.6 32.1 5.9 33.5C5 35.2 5.8 37 7.1 38.2C8.5 39.5 10.1 40.6 11.6 41.8C12.9 42.8 14.3 44.2 15.8 45C17.7 46 19.5 45.2 21.1 43.9C24 41.4 26.6 38.4 28.7 35.3C30.8 32.2 32.9 28.4 30.7 24.8C29.6 23 26.7 23.3 26.1 25.4C25.4 27.9 25 30.5 24.7 33.1C26.3 32.7 27.8 32.3 29.4 31.8C26.3 26.3 24.2 20.5 23.1 14.3C22.7 11.9 18.7 11.9 18.3 14.3C18.2 15.1 18 15.9 17.8 16.7C17.7 17.2 17.5 18 17.2 18.3C17.6 18.1 17.9 17.9 18.3 17.7C18.2 17.7 18.1 17.8 18 17.8C18.4 17.8 18.9 17.8 19.3 17.8C19.9 18.6 20.1 18.8 19.9 18.3C19.9 18.2 19.8 18 19.8 17.9C19.7 17.5 19.6 17.2 19.5 16.8C19.4 16.1 19.4 15.4 19.4 14.8C19.4 13.8 19.6 12.4 20.3 11.6C20.7 11.1 21.1 11.2 21.6 11.7C22.4 12.5 22.3 13.8 22.3 14.9C23.9 14.5 25.4 14.1 27 13.6C26.6 12.6 26.3 11.5 26.1 10.5C26 9.99999 26 9.39999 26 8.89999C26 8.59999 26 8.29999 26 7.99999C26 7.79999 26.2 7.19999 26 7.59999C25.7 7.89999 25.4 8.19999 25.1 8.49999C24.7 8.79999 25.1 8.59999 25.4 8.59999C25.6 8.59999 25.8 8.59999 26 8.69999C26.5 8.79999 27 8.99999 27.4 9.19999C28.3 9.69999 29.1 10.4 29.5 11.4C30.4 13.3 29.7 15.5 28.2 16.9C29.5 17.1 30.8 17.2 32.1 17.4C31.2 16.2 30.9 14.8 31.6 13.4C32.1 12.3 33.3 11.6 34.5 11.5C35.9 11.5 36.7 12.3 37.1 13.6C37.5 14.9 37.7 16.1 36.5 16.9C35 17.8 33.1 18.3 31.4 18.6C29.5 19 27.3 19.4 25.3 19.2C22.1 18.8 23 14.6 24.6 13C23.2 12.6 21.8 12.3 20.4 11.9C21.2 14.7 21.8 17.5 22.1 20.4C22.2 21.8 22.3 23.2 22.3 24.6C22.3 25.3 22.2 26.1 22.3 26.8C22.3 26.9 22.2 27.2 22.2 27.2C22.3 26.9 22.6 26.8 22.9 26.7C23.5 26.4 24.1 26.8 24.5 27.7C24.2 26.5 23 25.7 21.8 25.9C20.5 26.1 19.8 27.1 19.6 28.4C18.8 34.7 21.6 41.4 26.7 45.4C27.6 46.1 28.7 46.4 29.7 45.8C30.6 45.3 31.2 44 30.8 43C29.3 38.7 23.5 39.6 22.6 43.8C22.2 45.7 22.9 47.6 23.8 49.3C24.7 50.9 25.9 52.4 27.8 52.7C29.8 53 31.6 52 33.3 51C34.9 50.1 36.4 49 37.8 47.9C40.2 46 45.8 41.5 42.6 38.2C41.4 36.9 39.4 36.8 37.7 36.8C36 36.8 34.3 37.1 32.8 37.8C29.6 39.2 26.6 43.1 29 46.5C31.3 49.7 36.1 48 38.9 46.5C42.1 44.8 44.6 42 45.7 38.6C46.4 36.6 46.5 34.5 46.1 32.4C45.8 30.6 45 28.2 43.4 27.2C41.3 25.9 38.9 27.2 37.5 28.9C36.1 30.6 35.3 32.6 35.3 34.8C35.3 36.2 36.4 37.3 37.8 37.3C42 37.5 45 33.8 46.2 30.1C47.3 26.6 46.9 22.6 45 19.4C44.3 18.3 42.7 17.7 41.6 18.5C38.5 20.6 37.1 24 36.5 27.5C35.7 31.8 35.7 36 36.4 40.3C36.7 42.3 40.1 42.8 41 40.9C42.1 38.3 42.7 35.5 42.4 32.6C42.3 31.5 41.7 30.5 40.6 30.2C39.1 29.8 37.9 30.3 36.8 31.2C35.6 32.1 34.4 33.1 33.1 34C30.7 35.8 28.4 37.6 26 39.4C27.1 39.7 28.3 40 29.4 40.3C26.2 35 30.9 29.3 34.5 25.6C35.5 24.5 36.6 23.5 37.9 22.7C38 22.6 39.4 22 39.4 21.9C39.4 21.7 39.2 21.6 39.2 21.8C39.2 21.9 39.4 22.5 39.4 22.6C39.6 23.7 39.3 24.9 38.8 25.9C38.5 26.4 38.2 26.9 37.7 27.3C37.6 27.3 37 27.7 37 27.7C37 27.6 37.8 28 37.8 28.2C38 26.9 36.5 25.7 35.3 25.7C33.8 25.7 33 26.9 32.8 28.2C32.5 30.5 34.7 32.5 36.9 32.6C39 32.7 40.9 31.3 42.2 29.7C44.5 26.8 45.4 22.1 43.3 18.8C40.4 14.5 34.9 18.4 32.3 20.9C29.5 23.5 26.7 26.5 25.1 30C23.2 34.1 22.8 38.9 25.2 42.8C25.8 43.9 27.5 44.5 28.6 43.7C30.6 42.2 32.6 40.7 34.6 39.1C35.6 38.4 36.5 37.6 37.5 36.9C38 36.5 38.5 36.1 39 35.7C39.3 35.5 39.5 35.3 39.8 35.1C40.3 34.8 40.2 34.8 39.4 34.9C38.8 34.1 38.2 33.3 37.6 32.5C37.8 34.5 37.6 36.4 36.8 38.2C38.3 38.4 39.8 38.6 41.4 38.8C40.9 35.6 40.9 32.3 41.4 29.1C41.8 26.9 42.3 24 44.3 22.6C43.2 22.3 42 22 40.9 21.7C42 23.6 42.4 25.7 41.8 27.8C41.4 29.5 40.1 32.1 38 32C38.8 32.8 39.7 33.7 40.5 34.5C40.5 33.9 40.6 33.4 40.8 32.9C40.9 32.6 41.2 32.2 41.4 31.9C41.5 31.7 42 31.5 42 31.3C42.3 31.2 42.1 31.1 41.3 31.1C40.6 30.7 40.4 30.8 40.7 31.3C40.8 31.6 40.9 31.8 41 32.1C41.2 32.8 41.3 33.4 41.3 34.1C41.3 36.8 40 39.4 37.8 41C36.7 41.8 35.4 42.4 34.1 42.7C34 42.7 32.6 43 32.6 43C32.6 42.9 33.2 43.5 33.1 43.5C33.1 43.5 33.1 43.3 33.2 43.2C33.6 42.9 33.8 42.5 34.3 42.2C34.9 41.9 35.5 41.7 36.1 41.6C36.7 41.5 37.3 41.5 37.8 41.5C38.2 41.5 38.5 41.5 38.9 41.5C40 41.6 39 41.7 38.7 41.2C38.6 40.8 38.5 40.4 38.4 39.9C38.5 39.7 38.5 39.7 38.4 39.9C38.3 40.1 38.1 40.2 38 40.4C37.7 40.8 37.3 41.1 37 41.5C36.4 42.1 35.8 42.7 35.2 43.2C33.8 44.4 32.3 45.4 30.7 46.4C30 46.8 29.3 47.3 28.5 47.5C28.3 47.6 28.7 47.5 28.7 47.5C28.5 47.3 28.4 47 28.2 46.8C27.8 46.2 27.5 45.6 27.3 44.9C27.3 44.8 27.2 44.5 27.3 44.6C27.1 44.8 26.9 44.9 26.7 44.9C26.3 44.9 26 44.7 25.8 44.1C27.2 43.3 28.6 42.5 30 41.7C25.9 38.5 23.8 33.5 24.4 28.3C22.8 28.5 21.1 28.7 19.5 29C20.1 31.4 23 32.3 25 31.1C27.2 29.8 27.2 27.2 27.2 25C27.2 20.1 26.5 15.2 25.1 10.5C24.6 8.69999 22.3 7.99999 20.9 9.39999C17.7 12.7 16.8 18.3 20 21.9C21.7 23.8 24.2 24.2 26.6 24.2C29.2 24.1 31.9 23.7 34.4 22.9C36.6 22.3 38.9 21.5 40.6 19.8C42.4 17.9 42.5 15.5 42.1 13.1C41.7 10.8 40.6 8.59999 38.5 7.39999C36.6 6.19999 34 5.99999 31.9 6.79999C26.8 8.79999 24.6 15.1 27.8 19.7C28.7 21 30.5 21.4 31.7 20.2C36.4 15.8 35.5 7.79999 29.9 4.59999C27.5 3.19999 22.3 1.99999 21.3 5.69999C20.3 8.99999 21.4 12.9 22.7 15.8C23.8 18.2 27.3 16.8 27.4 14.5C27.5 11 26.1 7.19999 22.4 6.09999C18.8 5.09999 16 7.89999 15 11.1C14.5 12.7 14.3 14.6 14.5 16.3C14.7 18.1 15 20.3 16.3 21.6C17.9 23.2 20.4 22.6 21.5 20.7C22.4 19.2 22.8 17.2 23.1 15.5C21.5 15.5 19.9 15.5 18.3 15.5C19.5 22.1 21.8 28.4 25.1 34.2C25.6 35.2 26.9 35.6 27.9 35.3C29 35 29.6 34 29.7 32.9C30 30.8 30.4 28.7 31 26.6C29.5 26.8 28 27 26.4 27.2C27.3 28.7 25.4 31.1 24.6 32.3C23.3 34.3 21.8 36.2 20.1 37.9C19.3 38.7 18.3 39.4 17.6 40.3C17.5 40.4 16.8 40.8 17.6 40.5C18.2 40.3 17.9 40.4 17.5 40.1C17 39.7 16.5 39.4 16 39C14.9 38.2 13.9 37.3 12.9 36.5C12.3 36 11.8 35.6 11.2 35.1C11 34.9 10.4 34.5 10.4 34.4C10.4 34.8 10.4 35.3 10.4 35.7C10.5 35.2 11.9 34.2 12.3 33.8C13.2 33 14.1 32.4 15.1 31.8C17.2 30.5 19.2 28.8 19.2 26.1C19.2 23.6 17.4 21.3 15 20.5C12.6 19.7 10 20.6 8.2 22.3C4.5 25.9 5.1 32.2 7.3 36.4C8.4 38.6 10.4 40.1 12.8 40.5C15.4 40.9 18.2 40.4 20.7 39.6C23 38.9 25.9 37.8 27 35.5C28.4 32.7 26.1 30.3 24 28.9C22.1 27.6 19.8 26.9 17.5 26.8C15.4 26.7 12 27 10.7 29C9.3 31.2 10.9 34.4 12.3 36.3C13.9 38.4 16.1 40.5 19 39.7C21.2 39.1 23 36.9 23.9 34.8C24.9 32.6 25.2 30.1 24.9 27.7C24.5 25.1 23.2 22.4 20.5 21.5C17.7 20.5 14.6 21.9 12.8 24.2C10.9 26.5 9.6 29.2 8.7 32C7.8 34.6 7.1 37.9 9.3 40C10.2 40.9 11.9 41 12.8 40C15.2 37.2 16.2 33.6 15.2 30C14.3 26.4 11 23.1 7.1 23.8C3 24.6 1.8 29.1 2.6 32.7C3 34.6 3.9 36.4 4.7 38.1C5.5 39.9 6.6 41.5 8 42.9C10.6 45.2 14.2 41.7 11.9 39.4Z" fill="#00782A"/>
<path d="M40 16.3C39.7 13.6 40 11 40.9 8.30001C39.3 8.10001 37.6 7.90001 36 7.60001C36.3 9.90001 35.5 12 34.9 14.2C34.4 16.3 33.9 18.5 33.6 20.7C32.9 25.3 32.6 29.9 32.7 34.6C32.8 37.3 36.9 38.1 37.6 35.3C38.5 31.4 38.9 27.3 39 23.3C39.1 20.2 40.1 14.4 35.5 14.2C36.3 15 37.2 15.9 38 16.7C37.9 15.8 38.3 15.1 38.8 14.4C39.4 13.4 40 12.5 40.7 11.5C42 9.70001 43.3 8.00001 44.7 6.40001C46 4.80001 45.2 2.10001 42.9 2.10001C39.3 2.10001 35.2 2.70001 33.2 6.10001C31.9 8.40001 34.5 10.5 36.6 9.50001C38.1 8.80001 39.6 8.20001 41.1 7.50001C42.6 6.80001 44.4 6.30001 45.8 5.40001C45.9 5.40001 46 5.30001 46.1 5.30001C46.7 5.10001 46.2 4.80001 44.8 4.40001C44.7 4.60001 45.1 5.30001 45.2 5.50001C45.5 6.20001 45.7 7.00001 45.9 7.70001C46.3 9.20001 46.7 10.8 46.9 12.3C47.1 13.5 47.7 14.6 49.1 14.8C50.3 14.9 51.5 14.2 51.8 13C52 12.1 52.2 11.2 52.5 10.3C52.6 9.80001 52.7 9.40001 52.8 8.90001C52.9 8.60001 53.4 7.80001 52.8 8.30001C52.4 8.60001 52 8.80001 51.7 9.00001C51.8 9.00001 51.9 9.00001 52 8.90001C51.6 8.90001 51.1 8.90001 50.7 8.90001C50.4 8.60001 50.4 8.60001 50.7 9.00001C50.8 9.10001 50.9 9.20001 51 9.30001C51.2 9.60001 51.5 9.90001 51.7 10.2C52.2 10.9 52.7 11.6 53.1 12.4C53.5 13.4 53.8 14.8 53.1 15.8C52.4 16.8 50.7 17 49.6 17.3C48 17.6 46.1 17.9 44.5 17.7C43.3 17.6 42.8 16.8 42.3 15.7C42.1 15.3 42 14.8 42.1 14.4C42.1 14.5 42 14.5 41.9 14.5C42 14.5 42.6 14.4 42.4 14.4C43.3 14.3 44 14.8 44.6 15.7C45.5 17 46.1 18.4 46.8 19.8C47.6 21.2 49.6 21.5 50.7 20.3C52.5 18.4 54.2 16.4 55.8 14.2C56.5 13.2 57.3 12.2 57.9 11.1C58.2 10.6 58.5 10.1 58.8 9.60001C58.9 9.30001 59 9.00001 59.2 8.60001C59.3 8.50001 59.3 8.40001 59.4 8.30001C59.6 8.10001 59.5 8.10001 59.3 8.50001C58.9 8.60001 58.5 8.70001 58 8.80001C59 8.80001 60.4 9.90001 61.1 10.4C62.1 11.1 63 12 63.7 13C65.1 14.8 66.1 17.1 66.4 19.4C67.8 18.8 69.2 18.2 70.7 17.6C69.7 16.5 69.7 15.1 70.2 13.9C68.8 14.3 67.4 14.6 66 15C67.6 17 68.7 19.4 69.3 21.9C69.5 22.8 69.8 23.9 69.2 24.7C68.9 25 68.5 25.3 68.2 25.5C68 25.6 67.8 25.8 67.6 25.9C67.5 26 66.7 26.2 67.1 26.2C67.5 26.3 67.9 26.4 68.4 26.5C68.8 26.8 68.8 27 68.5 26.4C68.4 26.1 68.2 25.8 68 25.5C67.6 24.9 67.3 24.2 66.9 23.6C66.2 22.4 65.6 21.2 64.9 20C63.6 17.6 62.2 15.2 60.9 12.8C60.6 13.9 60.3 15.1 60 16.2C61.8 15.3 64.5 23.7 64.6 24.9C65.4 24.1 66.3 23.2 67.1 22.4C62.1 22.1 58 18.5 53.1 17.6C50 17 48.2 19 47 21.6C45.8 24.3 45.1 27 44.9 29.9C44.8 30.9 45.6 31.8 46.4 32.2C47.4 32.6 48.3 32.3 49.1 31.7C52.3 29.1 55.8 26.9 59.4 25C58.2 24.5 57 24 55.7 23.5C56.4 25.8 54.5 28.3 53.3 30.1C52.6 31.2 51.8 32.3 51 33.4C50.7 33.8 49.9 35.2 49.3 35.3C50 35.7 50.7 36.1 51.5 36.5C48.8 32.7 54.4 29.4 57 27.9C56.2 27.9 55.3 27.9 54.5 27.9C55.3 28.5 55.2 29.8 55 30.6C54.6 32.1 53.4 33.2 52.3 34.1C50.9 35.3 49.3 36.3 47.8 37.2C47 37.7 46.2 38.2 45.4 38.6C45 38.8 44.6 39.1 44.2 39.3C43.2 39.7 44.1 39.3 44.3 39.5C44.5 39.9 44.7 40.2 44.9 40.6C44.9 40.5 44.8 40.4 44.8 40.3C43.8 38 40.9 37.9 40 40.3C37.9 45.5 42 50.8 46.6 52.9C52.9 55.8 54.2 45 54.1 41C54 37.8 49.3 37.8 49.1 41C49 43.5 48.9 46.1 48.7 48.6C48.6 50.2 50.4 51.5 51.9 51C54.1 50.3 55.7 48.8 57.2 47.2C57.8 46.5 58.5 45.7 59.2 45C59.8 44.4 60.4 44.1 61.1 43.9C60.1 43.3 59 42.7 58 42.2C58.5 45.3 57.2 48.3 54.9 50.3C56.2 50.5 57.5 50.6 58.8 50.8C59 50.4 58.9 50 59 49.5C57.7 50.2 56.5 50.9 55.2 51.7C59.5 53.8 63.2 51.1 66.3 48.2C69.2 45.5 71.9 42.4 73.6 38.7C72.1 38.1 70.6 37.4 69 36.8C68 39.3 67.4 41.9 67.1 44.6C66.8 47.5 71.2 47.8 72 45.3C72.9 42.6 73.2 39.7 72.8 36.8C72.5 34.2 71.7 30.6 68.7 29.9C67.2 29.6 65.8 30.1 64.5 30.7C63.2 31.2 62 31.8 60.9 32.7C58.7 34.5 57.5 37.2 58.1 40C58.7 42.6 62.1 42.2 62.9 40C64.3 36.2 65 32.2 65.1 28.1C63.4 28.1 61.8 28.1 60.1 28.1C60.4 30.3 60.4 32.4 59.9 34.6C59.5 36.7 61.6 38.5 63.6 37.4C65.1 36.6 66.6 35.9 68.2 35.4C68.9 35.2 69.7 34.8 70.4 34.8C70.7 34.8 70.5 34.8 70.4 34.8C70.2 34.7 70.6 34.6 70.4 35C70.4 35.2 70.3 35.6 70 36C69.6 36.6 69.1 37.1 68.6 37.5C67.4 38.6 66.2 39.6 65.3 41.1C63.6 43.8 67.9 46.3 69.6 43.6C70.8 41.8 72.9 40.7 74.1 38.8C75.5 36.9 75.8 34.3 74.6 32.2C71.8 27.4 64.5 31 61 33C62.2 33.9 63.4 34.9 64.7 35.8C65.2 33.2 65.4 30.6 65.1 28C64.9 26.7 64.1 25.5 62.6 25.5C61.2 25.5 60.1 26.6 60.1 28C60 31.6 59.3 35.1 58.1 38.5C59.7 38.5 61.3 38.5 62.9 38.5C62.7 37.4 63.7 36.5 64.5 36C65.1 35.6 65.7 35.3 66.4 35.1C66.6 35 67.3 34.9 67.5 34.7C67.8 34.6 67.8 34.6 67.3 34.5C67.1 34.3 67.1 34.2 67.2 34.5C67.2 35 67.6 35.8 67.7 36.3C67.9 37.1 67.9 37.9 68 38.7C68 40.4 67.8 42.1 67.2 43.7C68.8 43.9 70.5 44.1 72.1 44.4C72.3 42.2 73 40 73.8 38C74.9 35.4 70.4 33.5 69.2 36.1C67.9 38.9 66.1 41.2 63.9 43.4C62.9 44.4 61.8 45.5 60.7 46.3C60 46.9 58.7 47.8 57.7 47.3C56 46.5 54 47.5 53.9 49.5C53.8 50.9 54.2 52.2 54.9 53.3C55.8 54.8 57.6 54.9 58.8 53.8C62.5 50.6 64 45.6 63.2 40.8C63 39.4 61.3 38.8 60.1 39.1C57.9 39.6 56.2 41.1 54.8 42.7C53.6 44 52.4 45.7 50.9 46.2C52 47 53 47.8 54.1 48.6C54.2 46.1 54.3 43.5 54.5 41C52.8 41 51.2 41 49.5 41C49.5 42.5 49.4 44 49.1 45.5C48.9 46.2 48.7 46.9 48.5 47.6C48.4 47.9 48.2 48.3 48.1 48.6C48 48.9 47.9 48.8 48 48.8C48.4 48.7 48.8 48.6 49.3 48.5C49.5 48.7 49.4 48.7 49 48.4C48.8 48.3 48.5 48.2 48.3 48C48 47.8 47.6 47.6 47.3 47.4C46.7 47 46.2 46.5 45.8 46C44.8 44.7 44.6 43.2 45.2 41.7C43.6 41.7 42 41.7 40.4 41.7C41.1 43.3 42.2 44.4 44 44.5C45.6 44.6 46.9 43.8 48.2 43C50.9 41.4 53.6 39.8 56 37.8C58.1 36 60 33.7 60.4 30.9C60.8 28 59.8 25.3 57.4 23.6C56.7 23.1 55.6 23.2 54.9 23.6C52.1 25.2 49.2 27 47.5 29.9C45.9 32.7 45.6 36.4 47.5 39.1C48 39.8 48.8 40.5 49.7 40.3C53.6 39.8 55.8 36.1 57.7 33C59.8 29.8 62.1 26 60.8 22.1C60.3 20.5 58.6 19.8 57.1 20.6C53.1 22.7 49.3 25.2 45.7 28.1C47.1 28.7 48.5 29.3 50 29.9C50.2 27.8 50.7 25.8 51.5 23.9C51.7 23.5 51.9 22.8 52.2 22.5C52.4 22.3 51.8 22.5 52.2 22.5C53 22.4 54.2 23.1 55 23.4C59 25 62.7 27.1 67.1 27.3C68.3 27.4 69.7 26.1 69.6 24.8C69.2 21.4 67.8 18.1 66.1 15.1C64.3 12 60.9 10 57.5 11.8C56.3 12.4 56 14.1 56.6 15.2C58.5 18.6 60.4 22 62.2 25.4C63 26.9 63.8 28.9 65 30.2C66.6 31.8 68.7 30.8 70.3 29.9C71.7 29.1 73 28 73.8 26.5C74.7 24.7 74.6 22.8 74.2 20.9C73.4 17.4 71.7 14.2 69.5 11.4C68.2 9.80001 65.9 11 65.3 12.5C64.1 15.5 65 18.8 67.1 21.1C68.5 22.6 71.6 21.5 71.4 19.3C70.7 13.2 67.2 7.50001 61.6 4.80001C60 4.00001 58.1 3.10001 56.4 4.20001C55 5.10001 54.2 7.10001 53.3 8.40001C51.4 11.3 49.3 14 46.9 16.5C48.2 16.7 49.5 16.8 50.8 17C49.7 15 48.9 12.8 47.3 11.2C46 10 43.9 9.20001 41.9 9.30001C39.6 9.50001 37.5 10.9 37 13.3C36.5 15.6 37.6 18 38.9 19.9C40.6 22.1 43 22.7 45.7 22.7C48.2 22.7 50.9 22.3 53.2 21.4C55.5 20.5 57.5 18.9 58.1 16.4C58.7 14 58.1 11.5 57 9.40001C56.3 8.10001 55.4 7.00001 54.4 5.90001C53.5 4.80001 52.2 3.90001 50.6 4.20001C49 4.60001 48.4 5.90001 48 7.30001C47.6 8.80001 47.3 10.3 46.9 11.8C48.5 12 50.2 12.2 51.8 12.5C51.5 10.3 51.1 8.00001 50.5 5.90001C49.9 3.90001 49.3 1.10001 47 0.500013C44.9 -0.0999866 42.4 1.60001 40.5 2.50001C38.3 3.50001 36.2 4.40001 34 5.40001C35.1 6.50001 36.3 7.70001 37.4 8.80001C38.3 7.20001 41 7.20001 42.8 7.30001C42.2 5.90001 41.6 4.50001 41 3.00001C39.3 5.10001 37.6 7.30001 36.1 9.50001C34.6 11.6 32.7 14.1 33 16.8C33.1 18.2 34 19.2 35.5 19.3C35.4 19.3 35.4 19.3 35.3 19.3C34.9 19.1 34.6 18.9 34.2 18.7C33.9 18.5 34.1 18.3 34.1 18.9C34.1 19.6 34.1 20.3 34.1 21C34.1 22.5 34 24 33.9 25.5C33.7 28.4 33.4 31.2 32.8 34C34.4 34.2 36.1 34.4 37.7 34.7C37.5 30.2 37.8 25.7 38.5 21.2C38.9 19 39.3 16.9 39.9 14.7C40.5 12.4 41.2 10.1 40.9 7.70001C40.6 5.00001 37 4.20001 36 7.00001C35 10 34.6 13.2 34.9 16.3C35 17.6 35.9 18.8 37.4 18.8C38.8 18.8 40.2 17.7 40 16.3Z" fill="#00782A"/>
<path d="M25.4 53.3C25.5 56.7 26.2 60 26.6 63.3C27 66.6 26.9 70 27.1 73.3C27.2 76.5 27.6 79.7 28.1 82.8C28.4 84.4 28.7 86 29 87.6C29.1 88.3 29.3 89 29.4 89.8C29.5 90.5 29.6 91.5 29.9 92.1C30.4 93 31.6 92.7 32.5 92.7C34.3 92.7 36.1 92.7 37.9 92.7C39.5 92.7 41.2 92.7 42.8 92.7C43.6 92.7 44.4 92.7 45.2 92.7C45.7 92.7 46.5 92.9 47 92.5C47.7 91.9 47.4 90.4 47.4 89.7C47.5 88 47.7 86.2 48 84.5C48.7 81.1 49.7 77.8 50.6 74.5C52.6 67 54.7 59.5 56.7 52C56.8 51.7 56.3 51.6 56.2 51.9C54.5 58 52.9 64.2 51.2 70.3C49.6 76.1 47.5 82 47 88C47 88.8 47 89.5 47 90.2C47 90.6 47 91 46.9 91.4C46.7 92.1 46.4 92.1 45.8 92.2C45.2 92.3 44.5 92.2 43.8 92.2C42.9 92.2 42 92.2 41.1 92.2C39.6 92.2 38 92.2 36.5 92.2C34.9 92.2 33.1 92.5 31.6 92.2C31 92.1 30.8 92.5 30.3 91.6C30.2 91.4 30.2 90.9 30.1 90.6C29.9 89.8 29.8 89 29.6 88.2C29.3 86.6 29 85 28.7 83.4C28.1 80.2 27.7 77 27.6 73.8C27.5 70.5 27.5 67.1 27.2 63.8C26.8 60.3 26 56.8 25.9 53.3C25.9 52.9 25.4 52.9 25.4 53.3Z" fill="black"/>
<path d="M52.5 52.5C51.3 54.3 50.1 56.2 48.9 58C47.8 59.8 47 61.7 46.3 63.7C46.5 63.7 46.6 63.7 46.8 63.8C46.8 59.8 46.7 55.9 46.7 51.9C46.7 51.6 46.2 51.6 46.2 51.9C46.2 55.9 46.3 59.8 46.3 63.8C46.3 64.1 46.7 64.1 46.8 63.9C47.5 61.8 48.3 59.9 49.4 58.1C50.5 56.3 51.7 54.5 52.9 52.7C53.2 52.4 52.7 52.2 52.5 52.5Z" fill="black"/>
<path d="M36.7 52.9C38.2 60.3 39.3 67.7 40.1 75.2C40.1 75.5 40.5 75.6 40.6 75.3C42.1 68 41.4 60.3 43.3 53.1C43.4 52.8 42.9 52.7 42.8 53C40.9 60.3 41.6 67.9 40.1 75.2C40.3 75.2 40.4 75.2 40.6 75.3C39.8 67.8 38.6 60.3 37.2 52.8C37.2 52.5 36.7 52.6 36.7 52.9Z" fill="black"/>
<path d="M31.4 52.5C31.6 57.2 32.5 61.9001 34.2 66.3001C34.3 66.6001 34.7 66.5 34.7 66.2C34.8 61.6 34.9 57 34.8 52.4C34.8 52.1 34.3 52.1 34.3 52.4C34.4 57 34.3 61.6 34.2 66.2C34.4 66.2 34.5 66.2 34.7 66.1C33 61.7 32.1 57.1 31.9 52.5C31.9 52.2 31.4 52.2 31.4 52.5Z" fill="black"/>
<path d="M29.6 40C29.3 37.9 27.7 35.6 25.4 35.5C23.4 35.4 21.4 37.1001 21.6 39.2001C21.7 39.1001 21.8 39 21.8 39C19.4 39.1 17.2 40.4 16.1 42.5C15.8 43.2 15.2 44.2001 15.7 44.9001C16.2 45.6001 17.3 45.5001 18 45.4001C17.9 45.3001 17.8 45.2001 17.7 45.2001C17.6 47.3001 18 50.1 19.5 51.7001C20.6 52.9001 22 51 22.5 50.1C22.4 50.1 22.2 50.1 22.1 50.1C22.9 51.6 23.9 53.5001 25.7 53.9001C27 54.2001 28.6 53.8001 29.1 52.4001C29.1 52.3001 29.1 52.1 29.2 52.1C29.2 52 29.2 51.9 29.2 51.8C29.5 51.8 29.8 51.8 30.1 51.8C30.4 51.9 30.7 52.4 31.1 52.6C31.7 52.9 32.5 53.1001 33.2 52.9001C34.8 52.6001 35.8 51.0001 35.7 49.4001C35.6 49.5001 35.4 49.5 35.3 49.6C36.2 50.6 37.4 51.8001 38.9 51.4001C40.2 51.0001 40.5 49.5001 40.7 48.4001C41 46.4001 40.6 40.2 37.3 40.8C37.4 40.9 37.5 41 37.6 41C37.7 39.5 37.7 37.7 36.6 36.5C35.8 35.6 34.5 35.3 33.3 35.3C30.7 35.4 27.6 37.4 27.8 40.3C27.8 40.6 28.3 40.6 28.3 40.3C28.1 37.7 30.9 35.9 33.3 35.8C34.4 35.7 35.5 36 36.3 36.8C37.3 37.9 37.2 39.6 37.2 41C37.2 41.2 37.4 41.3001 37.5 41.2001C41.5 40.5001 41.7 56.2001 35.7 49.2001C35.6 49.0001 35.3 49.2001 35.3 49.4001C35.5 51.5001 33.3 53.2001 31.3 52C30.8 51.7001 29.8 50.3 29.1 51.1C28.7 51.5 28.8 52.2 28.5 52.6C28 53.3 27 53.5001 26.2 53.4001C24.4 53.1001 23.4 51.2 22.6 49.8C22.5 49.6 22.3 49.7 22.2 49.8C22 50.1 21.8 50.4 21.6 50.6C21 51 21 51 20.3 51C19.6 51 19.6 51.0001 19.3 50.4001C19.1 50.0001 18.9 49.6 18.7 49.1C18.2 47.8 18 46.4 18.1 45C18.1 44.8 17.9 44.7 17.8 44.8C17.5 44.8 16.8 45 16.5 44.8C16 44.4 16.1 43.6 16.3 43.1C16.6 42.4 17 41.7001 17.6 41.2001C18.7 40.1001 20.2 39.5001 21.8 39.4001C21.9 39.4001 22.1 39.3001 22 39.2001C21.8 37.2001 23.9 35.5 25.9 36.1C27.7 36.6 28.8 38.4001 29.1 40.2001C29.1 40.4001 29.6 40.3 29.6 40Z" fill="black"/>
<path d="M45.3 53.2C43.6 53.8 41.9 52.7 41.2 51.1C40.9 50.3 40.8 49.5 40.8 48.7C40.8 48.3 40.8 48 40.8 47.6C40.8 47.4 40.9 47.1 40.9 46.9C41.2 46.2 41.6 46.1 42.1 46.5C42.2 46.8 42.7 46.7 42.6 46.4C41.5 43.6 41 40.2 43.4 37.9C44.4 36.9 45.9 36.3 47.3 36.7C48.8 37 50 38.3 50.1 39.8C50.1 40 50.4 40.2 50.5 40C52 38.3 55.6 36.4 57.2 39C57.8 40 57.9 41.3 57.7 42.4C57.6 42.9 57.4 43.4 57.1 43.9C56.9 44.3 56.5 44.6 56.3 45C56 45.7 56.4 46.2 56.8 46.8C57.5 47.8 58.2 48.8 58.8 49.9C59.1 50.5 59.7 51.6 59.3 52.3C59 52.8 58.1 53.1 57.5 53.3C56.2 53.8 54.3 53.9 53.8 52.2C53.7 52 53.5 52 53.4 52.1C51.8 53.5 49.1 53 48.1 51.1C48 50.9 47.7 51 47.6 51.2C47.3 52.5 46 53.4 44.6 53C44.3 52.9 44.2 53.4 44.5 53.5C46.1 54 47.7 53 48.1 51.4C47.9 51.4 47.8 51.4 47.6 51.5C48.7 53.7 51.8 54.3 53.7 52.6C53.6 52.6 53.4 52.5 53.3 52.5C54.1 55 57.7 54.4 59.3 53.1C60.3 52.2 59.7 50.9 59.2 49.9C58.9 49.2 58.5 48.5 58.1 47.9C57.9 47.5 57.6 47.2 57.3 46.8C56.8 46.1 56.4 45.9 57 44.8C57.3 44.3 57.7 43.8 57.9 43.2C58.1 42.7 58.2 42.1 58.2 41.5C58.2 40.3 57.9 38.9 57 38C55.1 36 51.5 37.9 50 39.6C50.1 39.7 50.3 39.7 50.4 39.8C50.1 36.5 46.3 35.3 43.7 36.9C40.3 39.1 40.6 43.3 41.8 46.6C42 46.6 42.1 46.5 42.3 46.5C42 45.8 41.2 45.7 40.6 46.1C39.7 46.9 39.9 48.8 40 49.8C40.3 52.2 42.4 54.7 45.1 53.7C45.7 53.6 45.6 53.1 45.3 53.2Z" fill="black"/>
<path d="M15.5 44.2001C12.8 45.8001 9.9 45.3 7.4 43.5C5.2 41.9 3.2 39.9 2.4 37.3C2.3 37.4 2.2 37.5 2.2 37.6C3.3 38 3.5 38.3 2.7 38.6C2.6 38.3 2.4 38.1 2.3 37.8C2 37.2 1.7 36.5 1.5 35.8C1.1 34.8 0.799999 33.8 0.699998 32.8C0.499999 31.5 0.499999 30.2 1.2 29C2 27.6 3.9 26.7 5.3 28C5.5 28.2 5.9 27.9001 5.7 27.6C4.2 26.1 4.3 23.7001 5.8 22.2001C7.2 20.8001 9.4 20.5 11.2 21C11.4 21 11.5 20.9 11.5 20.8C11.7 19.1 16.1 19 17.2 19C18.3 19 19.5 19 20.1 20.1C20.5 20.9 20.4 21.8001 20.4 22.7001C20.4 22.9001 20.6 23 20.8 22.9C21.5 22.5 22.2 22.1 23 22C24.1 22 25.6 22.8 24.9 24.1C24.8 24.3 24.9 24.5 25.1 24.5C26.8 24.5 28.3 25.3001 29.1 26.7001C29.5 27.4001 29.6 28.1 29.7 28.8C29.7 29.4 29.4 29.9 29.4 30.5C29.4 31.4 30.5 31.7 30.8 32.6C31.3 34.4 29.8 35.8001 28.6 36.9001C28.4 37.1001 28.7 37.5 29 37.3C30.2 36.2 31.4 34.9001 31.4 33.2001C31.4 32.6 31.2 32 30.9 31.5C30.8 31.3 30.5 31.2 30.4 31C29.9 30.4 30.1 30 30.2 29.3C30.6 26.3 28.1 23.8 25.1 23.8C25.2 23.9 25.2 24.1001 25.3 24.2001C25.8 23.3001 25.4 22.3001 24.6 21.7001C23.3 20.8001 21.7 21.6 20.5 22.3C20.6 22.4 20.8 22.4 20.9 22.5C21 21.4 21 20.2 20.3 19.3C19.6 18.4 18.5 18.3 17.4 18.3C15.8 18.3 14.1 18.5 12.6 19C11.8 19.3 11 19.7 10.9 20.6C11 20.5001 11.1 20.4 11.2 20.4C9 19.8 6.4 20.2 4.9 22.1C3.6 23.8 3.7 26.3 5.2 27.8C5.3 27.7 5.4 27.6 5.6 27.4C3.3 25.2 0.399999 27.9 0.0999985 30.4C-0.200001 32.5 0.399998 34.3 0.999999 36C1.4 37.1 1.9 39.3 3.2 39.5C3.3 39.5 3.4 39.5001 3.5 39.4001C4.1 38.4001 3.4 37.2 2.3 37.1C2.1 37.1 2 37.3001 2.1 37.4001C2.9 40.3001 5.2 42.5 7.6 44.2001C10.1 45.9001 13.2 46.2 15.8 44.6C16 44.4 15.8 44 15.5 44.2001Z" fill="black"/>
<path d="M13.1 19.2001C12.4 17.4001 11.7 15.6001 11 13.8001C10.7 13.1001 10.4 12.3001 10.4 11.5001C10.4 9.60005 12.5 10.2001 13.5 11.0001C13.7 11.1001 13.9 10.9001 13.9 10.7001C13.5 9.60005 13.1 8.40005 13.4 7.30005C13.7 5.90005 15.9 4.40005 16.7 6.40005C16.8 6.60005 17.1 6.70005 17.2 6.40005C17.3 5.90005 17.4 5.40005 17.6 5.00005C18 4.20005 19.3 3.10005 20 4.40005C20.1 4.60005 20.3 4.50005 20.4 4.50005C21.9 3.20005 26.8 5.28097e-05 28.1 3.20005C28.2 3.40005 28.4 3.40005 28.6 3.30005C30 1.50005 32.7 1.30005 34.1 3.30005C34.9 4.40005 34.6 5.80005 35.5 6.90005C36.1 7.60005 36.6 8.10005 36.9 9.00005C37.1 9.60005 37.1 10.3001 37.4 10.8001C37.9 12.1001 40.9 13.8001 38.5 15.0001C38.2 15.1001 38.5 15.6001 38.8 15.4001C40.2 14.7001 40.1 13.2001 39.2 12.1001C38.7 11.6001 38.2 11.2001 37.9 10.5001C37.7 9.90005 37.6 9.30005 37.4 8.80005C37.1 7.70005 36.4 7.30005 35.8 6.40005C35.1 5.40005 35.3 4.20005 34.7 3.20005C34.3 2.50005 33.6 1.90005 32.9 1.60005C31.2 0.900053 29.4 1.60005 28.3 3.00005C28.5 3.00005 28.6 3.00005 28.8 3.10005C27.3 -0.599947 22.2 2.60005 20.3 4.10005C20.4 4.10005 20.6 4.10005 20.7 4.20005C20.3 3.50005 19.5 3.20005 18.7 3.50005C17.6 3.90005 17.2 5.20005 17 6.30005C17.2 6.30005 17.3 6.30005 17.5 6.30005C17 5.00005 15.5 4.60005 14.4 5.40005C12.6 6.70005 13.2 9.10005 13.8 10.9001C13.9 10.8001 14 10.7001 14.2 10.6001C12.9 9.60005 10.6 9.00005 10.4 11.3001C10.3 12.4001 10.8 13.5001 11.1 14.5001C11.7 16.2001 12.4 17.8001 13 19.5001C12.8 19.6001 13.2 19.5001 13.1 19.2001Z" fill="black"/>
<path d="M25.6 23.8C25.4 22 25.1 20 26.1 18.4C26.6 17.6 27.3 16.9 28.3 16.8C29.4 16.7 30.6 17.4 30.7 18.6C30.9 18.6 31 18.6 31.2 18.6C31 17.3 31.4 15.9 32.5 15C32.9 14.6 33.1 14.5 33.7 14.5C34.4 14.5 34.5 14.8 34.8 15.3C35.2 15.9 35.5 16.5 35.8 17.1C35.9 17.3 36.2 17.2 36.3 17C37.1 14.7 40.4 15 40.6 17.5C40.6 17.6 40.7 17.8 40.9 17.7C42.9 17 44.5 18.4 44.9 20.3C45 20.9 45.1 21.6 45.5 22.2C45.6 22.4 45.8 22.6 46 22.8C46.3 23.2 47.7 25 46.2 25C46 25 45.9 25.2 46 25.4C46.9 27.1 50 28.8 48.3 30.9C47.9 31.4 47.7 31.6 47.6 32.3C47.5 32.9 47.7 33.5 47.6 34.1C47.4 34.9 47 35.5 46.4 36C46.1 36.2 46.4 36.6 46.7 36.4C47.5 35.8 48.1 34.9 48.2 33.9C48.3 33.4 48.1 32.8 48.1 32.3C48.2 31.5 48.8 31.3 49.1 30.7C50.2 28.5 47.3 26.7 46.4 25.1C46.3 25.2 46.3 25.4 46.2 25.5C47 25.5 47.5 24.8 47.4 24C47.3 23.5 47.1 23.2 46.8 22.8C46.1 22 45.8 21.3 45.5 20.3C45.3 19.1 44.9 18.1 43.9 17.5C43 16.9 41.9 16.8 40.9 17.2C41 17.3 41.1 17.4 41.2 17.4C40.9 14.4 36.9 13.9 35.9 16.8C36.1 16.8 36.2 16.8 36.4 16.7C35.8 15.4 34.9 12.9 33 13.9C31.4 14.8 30.7 16.6 30.9 18.3C30.9 18.6 31.4 18.6 31.4 18.3C31.2 16.3 28.9 15.4 27.3 16.4C24.8 17.8 25 21.1 25.3 23.5C25.2 24.1 25.7 24.1 25.6 23.8Z" fill="black"/>
<path d="M35 4.70003C36 3.10003 37.5 2.10003 39.2 1.40003C40.3 1.00003 45.5 -0.699969 45 1.80003C45 2.00003 45.2 2.20003 45.4 2.00003C46.4 0.900031 48.2 0.900031 49.3 2.00003C49.9 2.60003 49.9 3.40003 50.3 4.10003C50.6 4.60003 51.1 4.90003 51.6 5.20003C52.9 5.90003 54.7 7.10003 55.2 8.60003C55.4 9.20003 55.2 9.80003 55.1 10.3C55.1 10.4 55.1 10.6 55.1 10.7C55.3 11.3 55.9 11.8 56.2 12.3C57 13.6 57.9 15.6 57.4 17.1C56.9 18.7 55.5 17.4 54.7 18.4C54.3 18.8 54.3 19 53.7 19.2C53.2 19.3 52.7 19.3 52.2 19.3C51.4 19.3 50.6 18.8 49.8 18.9C49.3 19 48.9 19.3 48.6 19.7C48.2 20.3 47.3 22.5 46.3 21.3C46.1 21 45.7 21.4 45.9 21.7C46.4 22.4 47.3 22.2 47.9 21.7C48.4 21.2 48.6 20.3 49.1 19.9C49.8 19.3 51.8 19.9 52.7 19.9C53.2 19.9 54 19.9 54.5 19.6C55.1 19.3 55 18.6 55.9 18.6C56.9 18.6 57.5 18.5 57.8 17.5C58.2 16.3 57.8 14.9 57.3 13.8C57 13.1 56.7 12.5 56.3 11.9C56.1 11.6 55.7 11.2 55.6 10.9C55.5 10.5 55.8 10 55.8 9.60003C55.9 8.40003 54.6 7.10003 53.8 6.30003C53.3 5.80003 52.8 5.40003 52.2 5.10003C51.9 4.90003 51.6 4.80003 51.3 4.60003C50.6 4.20003 50.3 3.50003 50 2.70003C49.2 0.600032 46.3 -0.0999684 44.8 1.70003C44.9 1.80003 45.1 1.90003 45.2 1.90003C46 -0.799969 42 3.15309e-05 40.6 0.400032C38.2 1.10003 35.9 2.30003 34.5 4.40003C34.4 4.70003 34.8 5.00003 35 4.70003Z" fill="black"/>
<path d="M56 8.49999C57.2 7.89999 58.5 7.39999 59.9 7.09999C62.1 6.69999 62.4 8.69999 62.3 10.3C62.3 10.5 62.6 10.6 62.7 10.5C63.6 9.69999 64.6 9.09999 65.8 8.79999C67.8 8.29999 68.3 9.69999 68.7 11.3C68.9 12.3 69.2 13 69.8 13.8C70.5 14.7 71.4 16.1 70.3 17C70.2 17.1 70.2 17.3 70.3 17.4C71.1 18.2 71.8 19.1 72.6 19.9C73.2 20.6 74.3 21.4 74.5 22.3C74.7 23.6 73.3 23.4 72.9 24.1C72.6 24.5 72.6 25.1 72.7 25.6C72.9 26.9 73.5 28.6 71.2 28.1C70.3 27.9 69.4 27.5 68.5 27.2C67.7 26.9 67.2 26.9 66.3 27C65.1 27.1 63.1 27.1 63 25.4C63 25.1 62.5 25.1 62.5 25.4C62.7 27.9 65.5 27.4 67.2 27.4C68.8 27.4 70.3 28.6 71.9 28.8C72.6 28.9 73.1 28.6 73.3 28C73.8 26.9 72.8 25.7 73.2 24.6C73.6 23.6 75 24 75.1 22.8C75.2 22 74.6 21.3 74.1 20.7C73 19.4 71.8 18.2 70.7 17C70.7 17.1 70.7 17.2 70.7 17.4C71.5 16.7 71.5 15.6 71 14.7C70.7 14 70.1 13.5 69.7 12.8C69.2 11.9 69.2 10.9 68.8 9.89999C67.6 6.99999 64.1 8.79999 62.4 10.2C62.5 10.3 62.7 10.3 62.8 10.4C62.8 8.99999 62.7 7.19999 61.2 6.69999C60.4 6.49999 59.6 6.79999 58.8 6.99999C57.8 7.29999 56.7 7.69999 55.7 8.19999C55.5 8.19999 55.7 8.59999 56 8.49999Z" fill="black"/>
<path d="M55.4 19.4C56.8 19.3 58.3 19.2 59.7 19C60.3 18.9 61.3 18.7 61.9 19.2C62.4 19.7 62.6 20.9 62.7 21.6C62.7 21.9 62.7 22.2 62.7 22.5C62.7 22.7 62.5 23.2 62.6 23.4C62.7 23.7 63 23.9 63.2 24.2C63.9 25.4 63.8 27 62.9 28.1C62.4 28.7 61.5 29.2 61.5 30.1C61.4 31.3 62.3 32.3 62.2 33.5C62.1 34.9 60.8 36.1 59.9 37.1C58.9 38.2 57.9 39.4 56.9 40.5C56.7 40.7 57 41.1 57.3 40.9C58.5 39.5 59.7 38.1 61 36.7C61.8 35.8 62.7 34.9 62.8 33.6C62.9 33 62.7 32.4 62.6 31.9C62.5 31.5 62.3 31.2 62.2 30.8C62 29.9 62.3 29.5 62.9 29C63.7 28.2 64.2 27.5 64.3 26.4C64.4 25.4 64.1 24.6 63.6 23.7C63.2 23 63.4 22.5 63.4 21.8C63.4 21.1 63.2 20.4 63 19.7C62.6 18.8 62.1 18.4 61.2 18.4C59.4 18.4 57.5 18.7 55.7 18.9C55.1 18.9 55.1 19.4 55.4 19.4Z" fill="black"/>
<path d="M58.9 38.4C59.4 38.3 60 38.1 60.5 38C61 37.9 61.9 37.7 62.4 37.9C63.5 38.2 63.5 40.4 63.4 41.3C63.4 41.4 63.5 41.6 63.6 41.5C64.9 41.5 66.6 41.7 66.4 43.4C66.3 44 65.9 44.4 65.8 45C65.8 45.5 66.1 45.8 66.3 46.2C67.4 47.7 64.9 48.8 63.9 49.4C63.3 49.8 62.7 50.1 62.1 50.5C61.4 50.9 60.6 51.5 59.8 51.2C59.5 51.1 59.4 51.6 59.7 51.7C60.4 51.9 61.1 51.7 61.8 51.3C62.6 50.8 63.4 50.3 64.3 49.8C65.4 49.1 67.5 48.2 67.2 46.6C67.1 46.3 67 46.1 66.8 45.8C66.7 45.7 66.5 45.5 66.5 45.3C66.3 44.8 66.6 44.6 66.7 44.2C67 43.6 67.1 42.9 66.8 42.3C66.3 41 64.8 40.8 63.6 40.9C63.7 41 63.8 41.1 63.8 41.1C63.9 40 63.9 38.1 62.9 37.4C62.4 37 61.7 37.2 61.1 37.2C60.3 37.3 59.5 37.5 58.7 37.7C58.5 38 58.6 38.5 58.9 38.4Z" fill="black"/>
<path d="M72.3 29C73.9 29.2 74.9 30.5 75.3 31.9C75.5 32.6 75.7 33.3 75.8 34.1C75.9 35 76.2 36.3 75 36.6C74.7 36.7 74.3 36.7 74.2 37C74 37.4 74.4 37.8 74.5 38.2C75 39.8 72.3 41.6 70.9 41.1C70.7 41 70.6 41.2 70.6 41.3C70.4 43.1 68.9 44.5 67.1 44.5C66.8 44.5 66.8 45 67.1 45C69.2 45 70.9 43.4 71.1 41.3C71 41.4 70.9 41.5 70.8 41.5C72.2 41.9 74.1 40.8 74.8 39.7C75.2 39.1 75.3 38.4 75 37.8C74.9 37.6 74.7 37.5 74.8 37.2C74.9 36.9 75.1 37 75.4 36.9C75.7 36.8 75.9 36.6 76.1 36.4C76.5 35.8 76.5 35.1 76.4 34.4C76.3 33.4 76.1 32.4 75.7 31.4C75.1 29.9 74 28.6 72.4 28.4C72.1 28.4 71.9 28.9 72.3 29Z" fill="black"/>
</g>
<defs>
<clipPath id="clip0">
<rect width="76.4" height="96.2" fill="white"/>
</clipPath>
</defs>
</svg>
