<svg xmlns="http://www.w3.org/2000/svg" viewBox="0 0 76.4 96.24"><defs><style>.cls-1{fill:#c6ecac;}.cls-2{fill:#00782a;}</style></defs><g id="Ebene_2" data-name="Ebene 2"><g id="Ebene_1-2" data-name="Ebene 1"><path class="cls-1" d="M56.15,57.89c.94-2.64-3.41-4.53-4.57-1.93-.08.2-.16.4-.25.6h0v0c-.87,2-1.66,4-2.35,6.11,0-.35.05-.71.07-1.06.11-2.26-.35-5-2.67-6.06-1.3-.58-3.4-.26-3.67,1.49q-1,6.72-1.89,13.46a2.17,2.17,0,0,0-1.9-1.22,38,38,0,0,0-.6-14.08,2.51,2.51,0,0,0-2.75-1.8A2.55,2.55,0,0,0,33.4,55.9q-.8,7.64-1.06,15.32Q31,63.77,29.69,56.31a2.5,2.5,0,1,0-4.82,1.33q3,16.81,6,33.63a2.49,2.49,0,0,0,2.74,1.79l.08,0a2.6,2.6,0,0,0,2.89-.28,2.39,2.39,0,0,0,1.13,0l1.05-.22c.2.16.64.29.9.51.77.65,1.43,1.38,2.26,2A5.19,5.19,0,0,0,48,95.4a6.09,6.09,0,0,0,2.23-4.93c.11-2.09-.12-4.2-.06-6.29a67.48,67.48,0,0,1,2.6-17C53.93,64.11,55.05,61,56.15,57.89ZM37.92,87.45c.25-1.8.53-3.59.86-5.37.12.34.23.69.35,1a3,3,0,0,0,.23.44c0,.52-.11,1-.16,1.54a2.07,2.07,0,0,0,1.1,2.08l-1.44.3A4.21,4.21,0,0,0,37.92,87.45Zm7.29,3.32c0-.09,0,.25-.07.45l-.38-.32a2.61,2.61,0,0,0,.49-.8A4.73,4.73,0,0,1,45.21,90.77Zm0-2.77a2.41,2.41,0,0,0-1.64-1.23,2,2,0,0,0,.33-.42c.46-.76.88-1.54,1.32-2.32C45.14,85.35,45.13,86.67,45.17,88Z"/><path class="cls-2" d="M74.64,32.26a4.67,4.67,0,0,0-4-2.37A8.41,8.41,0,0,0,74,26.57,8.33,8.33,0,0,0,74.35,21a23.1,23.1,0,0,0-4.71-9.49,2,2,0,0,0-1.36-.76,17.35,17.35,0,0,0-6.61-5.81c-1.58-.79-3.5-1.67-5.18-.63a5.55,5.55,0,0,0-1.72,1.9l-.35-.42a3.88,3.88,0,0,0-3.79-1.68,4.27,4.27,0,0,0-.54.18c-.52-1.69-1.27-3.45-3-3.93-2-.54-4.31.93-6.13,1.8-3,.22-6.1,1.12-7.74,4a2.92,2.92,0,0,0-.17.36,6,6,0,0,0-.73.17,9.4,9.4,0,0,0-2.46-2C27.44,3.27,22.26,2.07,21.2,5.7c0,.11-.05.22-.07.33-3.05-.19-5.39,2.32-6.28,5.18a13.45,13.45,0,0,0-.49,5.2,11.07,11.07,0,0,0,1.12,4.32,3.92,3.92,0,0,0-.36-.16,6.72,6.72,0,0,0-6.77,1.8,8.27,8.27,0,0,0-1.21,1.51c-3.8.94-5,5.34-4.17,8.77a27.78,27.78,0,0,0,2.12,5.4,17.82,17.82,0,0,0,3.3,4.84,2.41,2.41,0,0,0,3.87-.57,21.51,21.51,0,0,0,3.55,2.62c1.93,1,3.74.2,5.26-1.09.68-.57,1.32-1.17,2-1.8a4.54,4.54,0,0,0-.67,1.59A7.8,7.8,0,0,0,23.6,49.1c.9,1.6,2.09,3.09,4,3.41s3.81-.74,5.47-1.69a36.87,36.87,0,0,0,4.53-3.13c.69-.55,1.64-1.33,2.58-2.22A12.46,12.46,0,0,0,47,53c2.61,1.18,4.37,0,5.52-2A9.42,9.42,0,0,0,54,50.32a6.76,6.76,0,0,0,1,3,2.54,2.54,0,0,0,3.93.51A12.43,12.43,0,0,0,60.6,52a16.59,16.59,0,0,0,5.66-3.84c.58-.54,1.15-1.09,1.7-1.67A2.74,2.74,0,0,0,72,45.18a19.36,19.36,0,0,0,.88-4.51c.06-.18.11-.36.17-.54a8.72,8.72,0,0,0,1.09-1.26A6.19,6.19,0,0,0,74.64,32.26ZM45.27,5.74c.22.67.44,1.34.62,2,.27,1,.48,2,.67,2.94a7.09,7.09,0,0,0-4.2-1.4c.75-1,1.5-2,2.3-2.94A2.66,2.66,0,0,0,45,5.91ZM59.19,19.68c-.74-.34-1.48-.68-2.23-1a6.58,6.58,0,0,0,.86-1.48ZM58,40s0,0,0,.06a13.26,13.26,0,0,0-3.17,2.72l-.39.45c0-.81.07-1.54,0-2.12a2.49,2.49,0,0,0-.6-1.6c.74-.53,1.47-1.07,2.17-1.66a15.16,15.16,0,0,0,2.71-2.89A6.85,6.85,0,0,0,58,40ZM28.13,37.41A7.82,7.82,0,0,1,28.06,36c.2-.27.41-.54.6-.82l.49-.75a.56.56,0,0,0,.05-.08,13.27,13.27,0,0,0,2.36-6c.36-.44.73-.87,1.09-1.29a3.3,3.3,0,0,0-.22.9A3.55,3.55,0,0,0,32.78,30c0,1.3-.05,2.6,0,3.9ZM15.92,32.3c0-.14,0-.29,0-.43a7.46,7.46,0,0,1,3.43.28c0,.32.06.64.11,1a6.24,6.24,0,0,1-.56.85,3.09,3.09,0,0,1-1,.91.52.52,0,0,1-.11-.13,7.75,7.75,0,0,0-.71-.69A6.87,6.87,0,0,1,15.92,32.3Zm3.78-5.19L19.19,27a5.51,5.51,0,0,0,.08-.71,1.5,1.5,0,0,1,.53.63Zm-1.76,7.78c.06,0,.06,0,0,0ZM61.27,26l-.1.06s0-.06,0-.09Zm-8,4.89c-.59.89-1.19,1.77-1.83,2.62l-.06.08A6.42,6.42,0,0,1,53.3,30.84Zm11.9-.56h0ZM51.64,24s0-.09,0-.13a5.22,5.22,0,0,1,.72-1.41,3.13,3.13,0,0,1,1.25.28C53,23.17,52.31,23.59,51.64,24Zm-5.21-.23a9.52,9.52,0,0,0-.25-1.18c.24,0,.47,0,.71,0C46.73,23,46.57,23.38,46.43,23.79Zm-2.06-6.17c-1.2-.15-1.72-.91-2.19-2a11.54,11.54,0,0,0,0-1.31l.12,0a2.5,2.5,0,0,1,2.14,1.29,14.09,14.09,0,0,1,1.21,2.11C45.19,17.68,44.78,17.66,44.37,17.62Zm-9.79-5.85c0-.14,0-.29-.07-.43a1.88,1.88,0,0,1,.34,0Zm-1.13,6.05.06.11-.14,0A1,1,0,0,0,33.45,17.82Zm-1,25.28h-.07S32.42,43.07,32.46,43.1Zm1.7-.75a5.81,5.81,0,0,1,1.77-.61,7.9,7.9,0,0,1,.85-.12,11.24,11.24,0,0,1-2.88,1.22l-.44.09A2.58,2.58,0,0,1,34.16,42.35Zm25.17-8.22v0c-.07.09-.12.19-.19.28ZM69.44,21.91a5,5,0,0,1,.21,1.95,17,17,0,0,0-.43-1.95l.21,0S69.43,21.9,69.44,21.91ZM26.8,19.15c-.07-.61-.15-1.21-.24-1.82a8,8,0,0,0,.81,1.8Zm.38,25.56c0-.05,0-.09.08-.07S27.21,44.68,27.18,44.71Zm18-5.66c.09-.22.18-.44.26-.67a12.94,12.94,0,0,0,.41-6.18c0-.25-.1-.52-.16-.8a2.63,2.63,0,0,0,1,.77A8.47,8.47,0,0,0,47,38l-1.22.72Zm12.4,8.16.22-.26c0,.13-.11.25-.17.37l-.12,0Zm5-35.49a5.49,5.49,0,0,0-4.64,0c-.07-.24-.15-.48-.23-.71.31-.47.61-.95.91-1.43l.3-.51a12.23,12.23,0,0,1,2.18,1.38A12.72,12.72,0,0,1,62.63,11.72ZM28.11,9.5a8.48,8.48,0,0,0-1.18,1.92,8.76,8.76,0,0,0-1-2.42c0-.13,0-.26,0-.39V8.42a5.17,5.17,0,0,1,1.39.52A6.37,6.37,0,0,1,28.11,9.5Zm-.53,36.4a2.27,2.27,0,0,0,1,.07l.19.32a4.25,4.25,0,0,0,.77.81,6.18,6.18,0,0,1-1,.43,4.16,4.16,0,0,1-.41-.62C27.91,46.57,27.74,46.24,27.58,45.9Zm18.3.08a4.52,4.52,0,0,1-.79-1.54A10.39,10.39,0,0,0,48.31,43l1.18-.7-.09,1.77a14.81,14.81,0,0,1-.27,1.48,16.58,16.58,0,0,1-.62,2.08c0,.12-.11.25-.16.38a9.94,9.94,0,0,1-1-.62A7.26,7.26,0,0,1,45.88,46Zm3.3,2.52ZM48,48.83Zm15.48-4.91a15,15,0,0,0-.2-3.05,1.92,1.92,0,0,0-.42-.9v0c.32-.88.6-1.77.85-2.66a24.63,24.63,0,0,1,3.75-1.67,6.79,6.79,0,0,1,.25.77,13.31,13.31,0,0,1,.22,1.78,14.39,14.39,0,0,0-2.62,2.93,2.33,2.33,0,0,0-.38,1.3c-.32.35-.64.7-1,1Z"/></g><g id="Striche"><path d="M76.35,34.48a13.29,13.29,0,0,0-.66-3,4.46,4.46,0,0,0-3-2.93,1.35,1.35,0,0,0,.46-.56c.54-1.14-.49-2.32-.07-3.41s1.76-.6,1.91-1.8a3,3,0,0,0-1-2.09c-1-1.21-2.17-2.36-3.25-3.53A2.19,2.19,0,0,0,71,14.64c-.35-.7-.94-1.23-1.32-1.9a24.08,24.08,0,0,1-.88-2.89c-1.1-2.69-4.17-1.37-6,0,0-1.28-.26-2.78-1.63-3.22a4.21,4.21,0,0,0-2.37.28,25.56,25.56,0,0,0-3,1.17c-.29.13,0,.56.25.43a18.37,18.37,0,0,1,3.87-1.37c2.17-.43,2.47,1.62,2.42,3.24a.25.25,0,0,0,.42.18,7.64,7.64,0,0,1,3.08-1.66c2-.48,2.5.88,2.85,2.45A6.09,6.09,0,0,0,69.8,13.8c.65.87,1.63,2.26.49,3.17a.27.27,0,0,0,0,.36l2.28,2.47c.62.68,1.72,1.51,1.88,2.44.23,1.27-1.16,1.1-1.64,1.8a2.13,2.13,0,0,0-.2,1.51c.16,1.26.76,3-1.53,2.55a18.11,18.11,0,0,1-2.69-.91A4.18,4.18,0,0,0,66.23,27,5.57,5.57,0,0,1,64,26.79c0-.12.06-.23.08-.35a4.48,4.48,0,0,0-.73-2.71c-.35-.66-.15-1.17-.18-1.93a6.64,6.64,0,0,0-.42-2.07,1.8,1.8,0,0,0-1.85-1.31c-1.8,0-3.67.31-5.46.47-.32,0-.33.52,0,.5L59.7,19c.65-.06,1.64-.31,2.17.18a4.26,4.26,0,0,1,.77,2.41,7.22,7.22,0,0,1,0,.93c0,.25-.2.71-.13.92s.42.53.6.82a3.4,3.4,0,0,1,.41,2.27,1.46,1.46,0,0,1-.62-1.13c0-.32-.52-.32-.5,0a1.9,1.9,0,0,0,1,1.65,3,3,0,0,1-.57,1.06c-.54.64-1.36,1.13-1.45,2-.12,1.16.81,2.22.73,3.44-.09,1.44-1.41,2.57-2.31,3.6l-.54.62-.5.12a.24.24,0,0,0,0,.46l-.76.87A3.81,3.81,0,0,0,57.21,38c-1.8-1.9-5-.35-6.62,1.21A4.07,4.07,0,0,0,47,36.16,3.4,3.4,0,0,0,48.05,34c.06-.51-.12-1,0-1.55.13-.79.71-1,1-1.6,1-2.06-1.42-3.73-2.46-5.25a1.29,1.29,0,0,0,.75-1.43A2.45,2.45,0,0,0,46.69,23a5.18,5.18,0,0,1-1.26-2.5,3.86,3.86,0,0,0-1.63-2.8A3.44,3.44,0,0,0,41,17.33a2.72,2.72,0,0,0-2.14-2.17,1.94,1.94,0,0,0,0-3.05,4.88,4.88,0,0,1-1.27-1.61,18,18,0,0,1-.46-1.75,7.56,7.56,0,0,0-1.59-2.4A4.19,4.19,0,0,1,35,4.7a8.46,8.46,0,0,1,4.15-3.28c1.1-.44,6.28-2.13,5.76.4,0,.23.24.45.42.25a2.69,2.69,0,0,1,3.88,0c.55.59.55,1.44,1,2.1a3.24,3.24,0,0,0,1.32,1.08c1.3.71,3.14,1.92,3.61,3.45a5.38,5.38,0,0,1-.06,1.75,1.75,1.75,0,0,0,0,.39c.15.58.76,1.11,1.07,1.62.76,1.26,1.71,3.26,1.24,4.77s-1.91.34-2.74,1.29c-.37.42-.4.65-1,.82a4.93,4.93,0,0,1-1.49.1,17,17,0,0,0-2.42-.4,1.84,1.84,0,0,0-1.21.8c-.44.58-1.3,2.81-2.29,1.57-.2-.25-.55.11-.35.36a1.32,1.32,0,0,0,2,0c.55-.51.69-1.37,1.25-1.85s2.72.05,3.64,0a4.4,4.4,0,0,0,1.8-.33c.59-.35.5-1,1.36-1s1.58-.1,1.93-1.12a5.49,5.49,0,0,0-.46-3.69,11.62,11.62,0,0,0-1-1.92,5.33,5.33,0,0,1-.72-1c-.12-.37.2-.88.22-1.26C56,8.4,54.75,7.07,54,6.3a9.06,9.06,0,0,0-1.56-1.19c-.31-.18-.63-.32-.94-.5a3.14,3.14,0,0,1-1.26-1.86,3.12,3.12,0,0,0-4.74-1.42c-.16-2-3.53-1.27-4.81-.92a10.21,10.21,0,0,0-5.77,3.64,3.39,3.39,0,0,0-.36-.91,3.91,3.91,0,0,0-1.84-1.57A3.83,3.83,0,0,0,28.34,2.7c-1.63-2.95-6.14-.31-8.09,1.24a1.56,1.56,0,0,0-1.81-.49,2.84,2.84,0,0,0-1.58,2.21,2.06,2.06,0,0,0-2.79-.32c-1.56,1.14-1.27,3.18-.79,4.83-1.29-.72-3-.92-3.27,1a6.7,6.7,0,0,0,.74,3.15l1.88,4.89-.08,0a2.15,2.15,0,0,0-1.61,1.32,5.86,5.86,0,0,0-6,1.76,4.49,4.49,0,0,0-.44,4.72C2.43,26.33.34,28.55.06,30.68A11.34,11.34,0,0,0,1,36c.34.94.82,2.81,1.8,3.38A14.6,14.6,0,0,0,7.5,44.17a7.56,7.56,0,0,0,8.14.46c0,.06,0,.12.08.17a2,2,0,0,0,2,.52c0,2,.39,4.65,1.79,6.2,1,1.08,2.14-.29,2.8-1.24.74,1.34,1.67,2.83,3.15,3.36.13,3.25.81,6.43,1.19,9.66s.34,6.69.46,10a76.23,76.23,0,0,0,1,9.53c.27,1.61.58,3.22.9,4.82.14.72.29,1.44.44,2.16A7.6,7.6,0,0,0,30,92.19c.54.88,1.71.59,2.61.59H45.27c.5,0,1.34.16,1.77-.2.66-.56.4-2.09.45-2.82a37.41,37.41,0,0,1,.62-5.17c.67-3.37,1.7-6.67,2.6-10L56.29,54.1A5.41,5.41,0,0,0,59.45,53,1.53,1.53,0,0,0,60,51.8a2.71,2.71,0,0,0,1.82-.45c.84-.47,1.65-1,2.47-1.48,1.11-.67,3.22-1.57,2.89-3.23a2.09,2.09,0,0,0-.38-.76,2.47,2.47,0,0,1-.31-.46c-.17-.46.08-.7.23-1.05a2.55,2.55,0,0,0,.15-1.86c-.43-1.24-1.78-1.43-2.94-1.43C64,40,64,38.32,63,37.65a2.59,2.59,0,0,0-1.82-.17c-.38,0-.75.1-1.12.17l.78-.89a5.69,5.69,0,0,0,1.77-3A4.54,4.54,0,0,0,62.39,32c-.11-.37-.32-.73-.41-1.11A1.69,1.69,0,0,1,62.63,29a4.8,4.8,0,0,0,1.23-1.78,11.24,11.24,0,0,0,3.21.15c1.6,0,3.07,1.21,4.67,1.38a2,2,0,0,0,.35,0,.18.18,0,0,0,.16.17,4,4,0,0,1,3,2.92A13.34,13.34,0,0,1,75.78,34c.15,1,.35,2.15-.79,2.51-.32.09-.68.05-.85.41s.23.83.35,1.22c.49,1.64-2.22,3.35-3.64,2.92a.25.25,0,0,0-.32.24,3.54,3.54,0,0,1-3.48,3.19c-.32,0-.32.51,0,.5A4,4,0,0,0,71,41.62a4.24,4.24,0,0,0,3.73-1.87,2.09,2.09,0,0,0,.23-1.89c-.1-.25-.31-.34-.18-.61s.29-.18.55-.27a1.36,1.36,0,0,0,.69-.49A2.61,2.61,0,0,0,76.35,34.48ZM40.6,17.63a.26.26,0,0,0,.32.24c2-.71,3.6.67,4,2.61a5.93,5.93,0,0,0,.58,1.89A6.75,6.75,0,0,0,46,23c.29.36,1.7,2.24.18,2.2a.25.25,0,0,0-.21.38c.92,1.68,3.95,3.42,2.26,5.54a2.16,2.16,0,0,0-.71,1.36,14.91,14.91,0,0,1,0,1.77A3.1,3.1,0,0,1,46.3,36.1l0,0a4.56,4.56,0,0,0-2.29.71c-3.15,2-3.16,5.76-2.13,8.93a1.11,1.11,0,0,0-.92.25c-.06.06-.11.13-.17.2-.12-2.46-.87-5.76-3.11-5.67,0-1.47,0-3.11-1-4.25a4.17,4.17,0,0,0-3.31-1.18,6.8,6.8,0,0,0-3,.89,4.07,4.07,0,0,0,1-2.58,2.76,2.76,0,0,0-.55-1.66c-.14-.17-.35-.29-.49-.46-.45-.58-.28-1.05-.2-1.72a4.92,4.92,0,0,0-4.7-5.47s0-.08,0-.12a.21.21,0,0,0,.24-.23c-.23-1.79-.49-3.78.49-5.4a3.1,3.1,0,0,1,2.19-1.57,2.14,2.14,0,0,1,2.44,1.82c0,.31.53.33.5,0a4.06,4.06,0,0,1,1.25-3.56,1.48,1.48,0,0,1,1.17-.47c.72,0,.78.27,1.13.81a15.42,15.42,0,0,1,1,1.78c.1.21.39.13.46-.06A2.23,2.23,0,0,1,40.6,17.63ZM11.06,13.77a6.18,6.18,0,0,1-.57-2.27c0-1.93,2.09-1.31,3.11-.54.17.14.43-.08.36-.28a6.49,6.49,0,0,1-.5-3.44c.33-1.37,2.5-2.9,3.26-.89a.25.25,0,0,0,.48,0A6.3,6.3,0,0,1,17.63,5C18,4.2,19.31,3.08,20,4.41a.25.25,0,0,0,.39.06C21.94,3.17,26.75,0,28.05,3.2a.26.26,0,0,0,.46.06,3.34,3.34,0,0,1,5.47,0c.78,1.12.46,2.51,1.36,3.57a5.46,5.46,0,0,1,1.38,2.06c.18.61.24,1.26.48,1.85.52,1.26,3.45,3,1.13,4.21a.21.21,0,0,0-.12.17A2.69,2.69,0,0,0,36,16.48c-.63-1.37-1.51-3.22-3.14-2.29a4.34,4.34,0,0,0-2.09,3.18,2.86,2.86,0,0,0-3.65-.68c-2.06,1.17-2.28,3.56-2.13,5.73a2.21,2.21,0,0,0-.5-.46c-1.15-.81-2.56-.28-3.69.35a4.31,4.31,0,0,0-.59-2.71,3.3,3.3,0,0,0-2.89-1,16.84,16.84,0,0,0-4.22.54ZM2.91,38.5a6.67,6.67,0,0,1-.29-.74C3.24,38,3.34,38.28,2.91,38.5Zm12.62,5.65h0A7.19,7.19,0,0,1,7.4,43.5a14.9,14.9,0,0,1-4-4.08s0,0,0,0A1.51,1.51,0,0,0,2.21,37.1a.21.21,0,0,0-.17.08c-.2-.44-.41-.88-.58-1.34a16.17,16.17,0,0,1-.83-3,5.6,5.6,0,0,1,.46-3.78c.83-1.44,2.71-2.32,4.1-1,.23.22.58-.12.35-.35a3.91,3.91,0,0,1,.09-5.42,5.54,5.54,0,0,1,5.43-1.18.26.26,0,0,0,.32-.24c.18-1.7,4.55-1.79,5.72-1.81s2.32,0,2.9,1.11a5.25,5.25,0,0,1,.3,2.58.24.24,0,0,0,.37.21,4.85,4.85,0,0,1,2.23-.88c1.07-.05,2.6.8,1.9,2.15a.25.25,0,0,0,.21.37,4.53,4.53,0,0,1,4,2.23A4.46,4.46,0,0,1,29.61,29c0,.59-.27,1.14-.25,1.72,0,.92,1.15,1.24,1.38,2.13.46,1.78-1,3.21-2.18,4.31a.2.2,0,0,0,0,.23,4.19,4.19,0,0,0-3.16-1.93,3.57,3.57,0,0,0-3.79,3.49,6.67,6.67,0,0,0-5.47,3.47A4,4,0,0,0,15.53,44.15Zm7,5.53a.25.25,0,0,0-.43,0,7.92,7.92,0,0,1-.61.82c-.42.48-.43.51-1.14.5s-.65,0-.95-.56a8.37,8.37,0,0,1-.59-1.29A10.48,10.48,0,0,1,18.18,45c0-.17-.16-.26-.32-.24a2.56,2.56,0,0,1-1.29,0c-.52-.36-.45-1.22-.25-1.69a5.73,5.73,0,0,1,1.3-1.92,6.09,6.09,0,0,1,4.19-1.77.25.25,0,0,0,.25-.25,3.07,3.07,0,0,1,3.86-3.12A4.08,4.08,0,0,1,28.3,38a3.74,3.74,0,0,0-.5,2.2c0,.31.53.32.5,0a3.25,3.25,0,0,1,.29-1.65,6.14,6.14,0,0,1,.5,1.61c.05.32.53.18.48-.13a6.34,6.34,0,0,0-.7-2,5.94,5.94,0,0,1,4.42-2.34,3.69,3.69,0,0,1,3,1c1,1.1.94,2.77.88,4.16a.25.25,0,0,0,.31.24c2-.35,3,3.31,2.86,6.26a3.82,3.82,0,0,0-.06.68c-.34,2.64-1.78,4.32-4.57,1.07a.25.25,0,0,0-.42.17,2.66,2.66,0,0,1-4,2.65c-.54-.33-1.48-1.67-2.23-.91-.39.39-.27,1.06-.59,1.5a2.43,2.43,0,0,1-2.33.82,1.8,1.8,0,0,1-.22-.06.24.24,0,0,0-.43-.12C24.05,52.56,23.2,51,22.51,49.68ZM34.2,64.89a42.1,42.1,0,0,1-2.32-12.23,3.13,3.13,0,0,0,1.36.06,2.89,2.89,0,0,0,1.07-.42.14.14,0,0,0,0,.11Q34.38,58.65,34.2,64.89ZM47.11,88.08c-.06.72-.11,1.43-.15,2.15a6.85,6.85,0,0,1-.06,1.2c-.2.71-.53.72-1.14.84a10.58,10.58,0,0,1-1.95,0H36.47a31.93,31.93,0,0,1-4.89,0c-.6-.1-.76.3-1.28-.64a5.43,5.43,0,0,1-.2-1c-.16-.8-.33-1.6-.49-2.4-.33-1.61-.64-3.21-.92-4.82a72.57,72.57,0,0,1-1.1-9.64c-.14-3.35-.05-6.71-.42-10s-1.09-6.64-1.24-10a2.83,2.83,0,0,0,3.19-1.49c0-.1,0-.26.1-.34s0-.18,0-.27l.93,0c.32.15.63.59,1,.77l.23.1s0,0,0,0a42.19,42.19,0,0,0,2.8,13.77.25.25,0,0,0,.49-.07q.21-6.91.1-13.83a.24.24,0,0,0-.31-.22,3.27,3.27,0,0,0,1.27-2.3c.84.88,1.92,1.7,3.19,1.34a2.14,2.14,0,0,0,1.42-1.47,5.2,5.2,0,0,0,2.41,3.75c-1.6,6.58-1.18,13.44-2.29,20.1q-1.2-10.48-3.24-20.82c-.06-.32-.55-.19-.48.13Q38.93,64,40.15,75.25c0,.26.43.37.49.07,1.5-7.13.87-14.53,2.58-21.61a3.18,3.18,0,0,0,2.19,0,.24.24,0,0,0,.15-.16,3.2,3.2,0,0,0,.7-.11c0,3.46.08,6.93.11,10.39a.25.25,0,0,0,.49.07,25.81,25.81,0,0,1,2.64-5.81c1-1.64,2.11-3.26,3.17-4.89a3.46,3.46,0,0,0,.93-.49,2.5,2.5,0,0,0,2.17,1.41L51.33,70.41C49.76,76.2,47.65,82.08,47.11,88.08Zm1-36.3A4,4,0,0,0,52,53.36c-1,1.54-2,3.08-3,4.64a23.12,23.12,0,0,0-2.09,4.38c0-3.06-.07-6.12-.1-9.17A2.87,2.87,0,0,0,48.1,51.78Zm11.3.49c-.3.53-1.24.83-1.77,1a5,5,0,0,1-1.19.28c.13-.48.26-1,.38-1.43a.25.25,0,0,0-.48-.14c-.14.53-.28,1.06-.43,1.58A1.91,1.91,0,0,1,54,52.24a.26.26,0,0,0-.42-.11,3.23,3.23,0,0,1-.54.37.26.26,0,0,0-.45,0l-.22.33a3.5,3.5,0,0,1-4.09-1.69.25.25,0,0,0-.45.06,2.4,2.4,0,0,1-1,1.49c0-.24,0-.48,0-.72a.25.25,0,0,0-.5,0c0,.33,0,.65,0,1a2.35,2.35,0,0,1-1.44,0,.24.24,0,0,0-.22.41,2.81,2.81,0,0,1-1.26-.15l0-.11a.25.25,0,0,0-.48-.13v0a3.91,3.91,0,0,1-1.67-1.89,6.26,6.26,0,0,1-.44-2.42,7.6,7.6,0,0,1,0-1.07,3.21,3.21,0,0,1,.13-.7c.32-.72.7-.84,1.15-.37.12.29.6.17.49-.14-1.08-2.78-1.57-6.19.82-8.49a4.37,4.37,0,0,1,4-1.24,3.65,3.65,0,0,1,2.83,3.07.25.25,0,0,0,.42.18c1.52-1.66,5.14-3.57,6.68-1a4.21,4.21,0,0,1,.34.75l-.78.89c-.21.25.14.6.35.36l.58-.67a5.25,5.25,0,0,1,0,2.09,4.88,4.88,0,0,1-.59,1.48,11.59,11.59,0,0,0-.78,1.1c-.32.69.07,1.24.48,1.79a20.67,20.67,0,0,1,2,3.13C59.2,50.51,59.82,51.53,59.4,52.27Zm1.11-14.19a5.08,5.08,0,0,1,1.94-.14c1.14.32,1.07,2.49,1,3.39a.26.26,0,0,0,.25.25c1.26,0,3,.17,2.81,1.85-.06.59-.52,1-.56,1.62a1.84,1.84,0,0,0,.51,1.16c1.07,1.55-1.35,2.6-2.38,3.22l-1.82,1.1c-.68.41-1.44,1-2.27.76a6.43,6.43,0,0,0-.58-1.53,19.8,19.8,0,0,0-1.14-2c-.24-.36-.5-.72-.76-1.07-.54-.72-.86-.86-.3-2a11.77,11.77,0,0,0,.89-1.55,5.75,5.75,0,0,0,.32-1.7,5.5,5.5,0,0,0-.21-1.65l1.34-1.53C59.85,38.22,60.17,38.13,60.51,38.08Z"/></g></g></svg>