<svg xmlns="http://www.w3.org/2000/svg" viewBox="0 0 50.9 181.8"><defs><style>.cls-1{fill:#54bb0d;}.cls-2{fill:#fd8320;}</style></defs><g id="Ebene_2" data-name="Ebene 2"><g id="Ebene_1-2" data-name="Ebene 1"><path class="cls-1" d="M39.88,31.26a35.54,35.54,0,0,1-3.62,8.14A67.7,67.7,0,0,0,35.1,21.32C34,15.9,32.32,10.55,32.69,5a2.5,2.5,0,1,0-5,0c-.33,5,.83,9.86,1.93,14.68a66.47,66.47,0,0,1,1.84,14,77.44,77.44,0,0,1-1,13.27,30.93,30.93,0,0,0-3.08,4.19C24.6,55.78,23.51,61.06,23,66.4q-.33-2-.81-4a38.69,38.69,0,0,0-2.85-7.86c-1.09-2.22-2.63-4.48-2.9-7a2.58,2.58,0,0,0-2.5-2.5,2.51,2.51,0,0,0-2.5,2.5,18.93,18.93,0,0,0,1.82,6A32.78,32.78,0,0,1,9.8,49.79a16.27,16.27,0,0,1-3.12-8.21,2.57,2.57,0,0,0-2.5-2.5,2.51,2.51,0,0,0-2.5,2.5,21.88,21.88,0,0,0,3,9.52c1.71,2.82,4.16,5,6.38,7.37,4.46,4.8,5.53,11.49,7,17.65a2.22,2.22,0,0,0,1.06,1.49c0,.55.07,1.1.1,1.64A2.63,2.63,0,0,0,23.54,81a2.52,2.52,0,0,0,3.25-1.6c3.3-9.9,6.59-20.1,8.34-30.45a62.29,62.29,0,0,0,4.52-5.61,39.6,39.6,0,0,0,5.05-10.8C45.63,29.5,40.8,28.18,39.88,31.26Z"/><path class="cls-2" d="M26.87,89.68c-.08-1.73-.31-4.1-1.59-5.39-1.51-1.52-3.81-.89-5.67-.53a14,14,0,0,0-6.8,3.1c-2.25.92-2.92,2.92-3,5.1a19.15,19.15,0,0,0-.51,2.39,37.87,37.87,0,0,0-.1,13.35,29.69,29.69,0,0,0,1.42,7.68,2.55,2.55,0,0,0,1.28,1.51c0,3.38-.05,6.76.11,10.14.25,5.21,1.34,10.33,1.54,15.54a39.22,39.22,0,0,1-1.69,12.89c0,.08-.07.17-.11.25a2.74,2.74,0,0,0-.31,1.08c-.2.6-.42,1.2-.65,1.8a2.51,2.51,0,0,0,1.74,3.07,2.56,2.56,0,0,0,3.08-1.74c.28-.73.54-1.47.78-2.21a16.33,16.33,0,0,0,2.25-6.13,63.55,63.55,0,0,0,2.22-14.85c.18-1,.36-2.09.5-3.14,1.21-8.5.73-17.06,1.12-25.6a58.3,58.3,0,0,1,1.89-6.81C25.63,97.5,27.05,93.65,26.87,89.68Zm-10.06,22.2c0-.81,0-1.63-.07-2.44l.75-1.85v0C17.21,109,17,110.45,16.81,111.88Z"/></g><g id="Striche"><path d="M8.84,159.1a12.25,12.25,0,0,0,4.79-3.7c.2-.25-.15-.61-.35-.35a11.79,11.79,0,0,1-5.34,3.86c-.93.33-1.95.58-2.88,1l-1.3-.58a.27.27,0,0,0-.34.09.26.26,0,0,0,.09.35l.94.41a4.74,4.74,0,0,0-2.06,1.79.26.26,0,0,0,.44.26A4.48,4.48,0,0,1,5,160.4l.1,0a.25.25,0,0,0,.34-.09s0-.09,0-.15C6.6,159.79,7.81,159.54,8.84,159.1Z"/><path d="M12.8,178.21l1.09,3.09c.1.31.58.18.48-.13l-1.09-3.09C13.18,177.77,12.69,177.9,12.8,178.21Z"/><path d="M20,163.56a.25.25,0,0,0-.09-.34.26.26,0,0,0-.34.09c-.06.08-.1.17-.16.26a11.92,11.92,0,0,1,0-8.54c.12-.3-.36-.43-.48-.13a12.26,12.26,0,0,0-.43,7.43,16.62,16.62,0,0,0,.63,1.77,4.62,4.62,0,0,0-.42,2.4.25.25,0,0,0,.25.25.25.25,0,0,0,.25-.25,4.13,4.13,0,0,1,.2-1.71c.69,1.78,1.23,3.67-.17,5.13-.23.23.13.58.35.35,1.69-1.75.85-4.13.08-6.11A3.67,3.67,0,0,1,20,163.56Z"/><path d="M50.53,27.49l-.86.65a1.74,1.74,0,0,0-.11-.18.27.27,0,0,0-.34-.09c-1.23.64-2.93,1.68-3.56,3a1,1,0,0,0-.1.55c-1.76,1.49-3.46,3.07-5.1,4.7a3.61,3.61,0,0,0,.27-1.39c0-1.28-1.26-1.66-2.21-.93-1.54,1.18-.39,3.25-1,4.8a3.79,3.79,0,0,1-.33.67.79.79,0,0,0-.61-.58c-.08-.91-.18-1.82-.29-2.72.07-.14.16-.26.23-.4s.12-.27.17-.4l.46.17a.26.26,0,0,0,.14-.49,3.9,3.9,0,0,1-.48-.17,1.62,1.62,0,0,0-.13-1,1.2,1.2,0,0,0-.81-.63c-.08-.57-.17-1.15-.26-1.72a4.53,4.53,0,0,0,3.5-2.5,6.54,6.54,0,0,0,.47-1.95c.46-.38.92-.75,1.4-1.1a.25.25,0,0,0,.46.1,2.59,2.59,0,0,1,1-.86,2.51,2.51,0,0,1-1.61,1.19c-.32.07-.19.56.13.48a3,3,0,0,0,2.2-2.06.26.26,0,0,0-.31-.31,3.14,3.14,0,0,0-.73.31.21.21,0,0,0-.3-.06l-.49.37c-.23-.63-.67-1.22-1.25-.73a3.71,3.71,0,0,0-.93,2.42c-.2.16-.39.34-.58.52-.47-.48-1.36.13-1.82.48a4.44,4.44,0,0,0-1.24,1.55l-.12-.41a.24.24,0,0,0-.16-.15c-.12-.84-.24-1.68-.34-2.52a4.68,4.68,0,0,0,.82-1.6,1.78,1.78,0,0,0-.58-1.71,1.2,1.2,0,0,0-.63-.26c0-.07,0-.14,0-.21a.26.26,0,0,0,.45-.07,6.14,6.14,0,0,0,.3-3.23.73.73,0,0,0-.9-.5c0-.18,0-.35,0-.52a.23.23,0,0,0,.25,0c.94-.91,2.15-2.73,1.6-4.11a1.06,1.06,0,0,0-1-.72,4.08,4.08,0,0,0,.92-1.37c.21-.52.66-2.85-.49-2.75a22.68,22.68,0,0,1,.81-2.27,3.17,3.17,0,0,0,.44,0c.48-.06,1-.15,1.08-.7a1.31,1.31,0,0,0-.65-1.15c.16-.29.31-.57.47-.84a2.54,2.54,0,0,0,1.53-2.21A16.78,16.78,0,0,1,40.44.43c.22-.23-.13-.59-.36-.35s-.48.54-.72.82a.88.88,0,0,1,0-.17c0-.33-.48-.32-.5,0s0,.52-.08.8a20.94,20.94,0,0,0-1.41,2,1,1,0,0,1-1-.28c-.18-.2-.23-.52-.51-.62-.92-.34-1.32,1.59-1,2.17s.66.42,1.17.42l.36,0c-.17.33-.31.67-.46,1H35.3c-1.08,0-2.08.62-1.93,1.84A1.67,1.67,0,0,0,34,9.23a1.7,1.7,0,0,0,.69.26h.17l-.06.22c-.2.42-.34.9-.45,1.14h0a.91.91,0,0,0-.78.29.63.63,0,0,0,.14,1,.43.43,0,0,0,.59-.09c-.06.38-.11.75-.16,1.13-.55.26-1.22.4-1.57.86-.72.92.43,1.9,1.35,1.49q-.11,1.52-.09,3.06a4.23,4.23,0,0,0-.65.25,1.4,1.4,0,0,0-.71.71,2.6,2.6,0,0,0,0,1.41c.18,1.22.37,2.44.55,3.67,0,.28.5.21.5-.07a2.07,2.07,0,0,1,.28-1.29.6.6,0,0,1,.23-.2c.08,1,.18,1.91.29,2.85l-.26.37c-.15.23.15.44.35.33.09.7.18,1.4.28,2.09a1.94,1.94,0,0,0-.54,1A9.27,9.27,0,0,0,33.9,32l-.09.11h0a.52.52,0,0,0-.25,0,.86.86,0,0,0-1-.09,1.28,1.28,0,0,0-.52.94,5.32,5.32,0,0,0,0,1.26h-.08a.25.25,0,0,0-.25.25.24.24,0,0,0,.24.24l-.55.81a.83.83,0,0,0-.6-.65c-1.27-.32-.79,1.87-.66,2.46a.23.23,0,0,0,.07.13c-.52.9-1,1.81-1.47,2.74a1.17,1.17,0,0,0-.05-.11.67.67,0,0,0-.58-.35.81.81,0,0,0-.58.37,2.37,2.37,0,0,0-.29.72,9.59,9.59,0,0,0-.2,1,10.39,10.39,0,0,0-.11,2,.31.31,0,0,0,.07.14,3.2,3.2,0,0,0-.86.86,1.91,1.91,0,0,0-.51-.7.26.26,0,0,0-.42.11,13.11,13.11,0,0,0-.58,3.92l-.07,0a.51.51,0,0,0-.58.51A9.35,9.35,0,0,0,24,50.17c0,.56.07,1.12.11,1.68a.25.25,0,0,0,.26.24c0,.1-.05.21-.07.31A5.59,5.59,0,0,0,23.35,51a.26.26,0,0,0-.42.11L22.24,56a.24.24,0,0,0-.44.07.53.53,0,0,0,.34.64c-.12.88-.25,1.76-.37,2.64a1.21,1.21,0,0,0-.24-.2.25.25,0,0,0-.38.21,39.72,39.72,0,0,0,.45,5.77c0,.32.53.18.49-.13a36.19,36.19,0,0,1-.38-4.28.23.23,0,0,0,.32,0,5.7,5.7,0,0,0,.76-.71q-.42,2.94-.65,5.87c-.05.59-.07,1.19-.11,1.78-.66-2-1.46-4-2.2-5.73-.23-.54-.48-1.07-.73-1.6a1.15,1.15,0,0,0,.49,0c.69-.13.78-.72.75-1.33,0-.76-.25-3.89-1.54-3.49a.26.26,0,0,0-.19.24,5.19,5.19,0,0,1-.08,1.12c-.21.62-.38.52-.84.49h0c-.28-.54-.56-1.09-.86-1.62a14.23,14.23,0,0,0,0-3.06c-.07-.55-.08-1.51-.6-1.88s-.76,0-1,.35a1.17,1.17,0,0,1-.78.63c-.14-.22-.27-.44-.41-.65a7.51,7.51,0,0,0-.65-3.52.25.25,0,0,0-.28-.11.86.86,0,0,0-.57.53,3.51,3.51,0,0,1-.26.55c-.08-.11-.15-.23-.24-.34l.07,0c.24-.22.19-.7.19-1a5.9,5.9,0,0,0-.34-1.9c-.06-.18-.35-.27-.45-.06A4.92,4.92,0,0,0,11,46.92a70.59,70.59,0,0,0-5.11-6c-.23-.24-.58.12-.36.35A66.31,66.31,0,0,1,10.48,47a3.42,3.42,0,0,0-.61-.22c-.52-.12-2.17-.26-1.65.77s2,1.49,2.94,1.73a1.77,1.77,0,0,0,1,0c.39.55.77,1.1,1.14,1.66a8.16,8.16,0,0,0-1.3-.51c-.16,0-.38.13-.3.31a3.07,3.07,0,0,0,2.5,1.57q1,1.6,2,3.27c-.35-.27-.67-.75-1.12-.37A.92.92,0,0,0,15,56.37c-.27-.28-.69-.51-1-.16s-.08.46-.11.69a1.09,1.09,0,0,1-.15.39c-.56-.78-1.13-1.55-1.72-2.32A6.27,6.27,0,0,0,11.68,52a.25.25,0,0,0-.48.13,7.58,7.58,0,0,1,.13,1.77l-.18-.09-.87-1.13a3,3,0,0,0-.06-1.83A3.7,3.7,0,0,0,8.1,48.77a8.69,8.69,0,0,0-.86-.29l-.37-.56a2,2,0,0,0,.23-.27c.72-1.06.1-2.25-.47-3.21a.25.25,0,0,0-.46.06c0,.11,0,.23,0,.35a3.64,3.64,0,0,0-.9-1.6,3,3,0,0,0-1-.62C4.15,42.3,4,42,4,41.62a.56.56,0,0,0,.39-.11c.42-.31.48-1.07.53-1.54a5.85,5.85,0,0,0-.32-2.59c-.06-.18-.36-.28-.46-.06a12.46,12.46,0,0,0-.64,2,14.29,14.29,0,0,1-.16-1.87c0-.32-.51-.32-.5,0a16.82,16.82,0,0,0,.4,3.28,7.19,7.19,0,0,0-.95-.44C1.4,40.06,0,40.36,0,41.47s2.16,1.2,3,1.33a5.79,5.79,0,0,1,.93.25A25.4,25.4,0,0,0,6.18,47.7l-.21,0c-.71.05-1.29-.4-2-.23-.21,0-.22.28-.11.42a2.65,2.65,0,0,0,1.92.8q.6.08,1.2.21c.84,1.27,1.75,2.51,2.68,3.73-.18.25-.46.33-.85,0s-.95-.88-1.68-.69a.26.26,0,0,0-.06.46l1.62.79a1.2,1.2,0,0,0,.72.34l1.46.71.7.92a.21.21,0,0,0,.06.08l.72,1a1.72,1.72,0,0,0-1.57.75,1,1,0,0,0,.46,1.34,2.65,2.65,0,0,0,1.88,0,2.51,2.51,0,0,0,.54-.28l.17.23c.24.35.47.71.69,1.07a1.8,1.8,0,0,1-.39.12c-.54.11-1.23.24-1.38.87s.48,1.14,1,1.24a8.47,8.47,0,0,0,1.33.07,6.1,6.1,0,0,0,.74,0c.41.76.81,1.53,1.17,2.32a1.4,1.4,0,0,1-.45.39,5.92,5.92,0,0,0-1.24-.45.26.26,0,0,0-.29.37,1.33,1.33,0,0,0,1.47.64A5.57,5.57,0,0,1,17.91,66c.22.56.44,1.13.64,1.71,0,.13,0,.27,0,.4a.56.56,0,0,0-.37-.07.59.59,0,0,0-.47.62c0,.53.43.94.75,1.3l1.1,1.24c.29,1.2.53,2.41.71,3.63a.5.5,0,0,0,0,.13l0,.11a1.18,1.18,0,0,0-.52-.45c-.61-.24-1.05.28-1.12.85a1.61,1.61,0,0,0,1.12,1.64A.26.26,0,0,0,20,77c.08-.18.14-.37.22-.56,0,.17.11.34.16.52a12.46,12.46,0,0,1,.31,1.5c.06,1,.08,2.11.05,3.17,0,.19.17.25.32.21l-.33.44q-.59,0-1.14.09a2.18,2.18,0,0,0-1.47.72A6.53,6.53,0,0,0,16.62,83a7.39,7.39,0,0,0-5.52,3.2,18.29,18.29,0,0,0-2.92,8.15c0,.11,0,.21,0,.32L8,94.77a.24.24,0,0,0,.12.44A42.42,42.42,0,0,0,8,104.7c.75,8,3.35,15.82,5.35,23.67a.23.23,0,0,0,.1.41,62.63,62.63,0,0,1,2.33,17.5c-.24,7-2.34,14-7.27,19.11a.22.22,0,0,0,0,.13l-.28.18a.25.25,0,0,0,.25.44,25.81,25.81,0,0,0,4.32-3.3c-1.6,2.28-1.4,5-1,7.79l-1.54,1.92a.26.26,0,0,0,0,.35.24.24,0,0,0,.35,0l1.3-1.6c.56,3.63,1.27,7.29-1.45,10.07a.25.25,0,0,0,.36.35c2.93-3,2-7,1.4-10.82l.38-.46a.27.27,0,0,0,0-.36.26.26,0,0,0-.36,0l-.11.15c-.4-2.92-.43-5.74,1.8-8a.24.24,0,0,0-.12-.4c6.38-6.63,9.17-16.24,10-25.34.65-7,.41-14,.59-21A75.81,75.81,0,0,1,27.5,94.86c.84-2.71,1.52-6-.32-8.47a4.39,4.39,0,0,0-3-1.74s0,0,0,0a2.15,2.15,0,0,0-.58-1.69,2.21,2.21,0,0,0-1.75-.67h-.57c.15-.19.3-.39.43-.59a.24.24,0,0,0,.46-.1v-.73a2,2,0,0,1,.11-.2.23.23,0,0,0,.4-.1l.3-1.26c.84-.91,1.65-1.84,2.42-2.8a.23.23,0,0,0,.13-.17,51.92,51.92,0,0,0,4.26-6.23c.06-.06.12-.13.18-.18.23-.19,1.05-1,1.37-.7s0,1.12-.19,1.46a7,7,0,0,1-1,1.16,11.2,11.2,0,0,1-2.46,1.8.25.25,0,0,0,.25.43,11.7,11.7,0,0,0,3.09-2.42c.6-.68,1.56-2,.6-2.86-.38-.31-.81-.09-1.18.16.12-.21.22-.41.33-.61a.2.2,0,0,0,.14-.22,17.57,17.57,0,0,0,1.14-1.44,7.28,7.28,0,0,0,1.31-2.82,1,1,0,0,0-.16-.77c.25-.62.48-1.25.7-1.88a.25.25,0,0,0,.4.1,10.92,10.92,0,0,0,2-2.4,2.76,2.76,0,0,0,.55-1.22.6.6,0,0,0-.56-.71c-.23,0-.43.13-.67.11a1.43,1.43,0,0,1-.41-.09c.28-1.07.52-2.16.73-3.25a1.85,1.85,0,0,0,.19-1c0-.07,0-.14,0-.21a50.62,50.62,0,0,0,.65-7c.21-.44.54-.83,1.06-.76.32,0,.31-.46,0-.5a1.22,1.22,0,0,0-1,.39c0-.83,0-1.67,0-2.5a2.93,2.93,0,0,0,1-1.78.87.87,0,0,0-.17-.6c.89-1,1.8-1.88,2.7-2.8.11-.1.22-.2.32-.31A10.49,10.49,0,0,0,44.32,34a2,2,0,0,1,.43.85.24.24,0,0,0,.31.17,2.16,2.16,0,0,0,1.54-2.28,2.65,2.65,0,0,0-.24-.72,3.39,3.39,0,0,1-.14-.48c1.05-.89,2.13-1.74,3.22-2.57a1.45,1.45,0,0,1,0,.36c0,.33.47.32.5,0a1.94,1.94,0,0,0-.06-.69c.31-.23.61-.47.92-.69S50.8,27.3,50.53,27.49ZM35.59,14c.5,1.13-.48,2.6-1.29,3.42v-.08c0-.74.06-1.49.12-2.23a1.29,1.29,0,0,0,.19-.32,1.73,1.73,0,0,0,.12-.43,3.85,3.85,0,0,1,.08-.49C35.25,13.49,35.51,13.53,35.59,14Zm-.89-1.22c.08-.48.16-1,.26-1.43h.1a1.42,1.42,0,0,0,.64-.17A3.54,3.54,0,0,1,34.7,12.82Zm.54-2.63c.06-.14.13-.38.21-.52a.6.6,0,0,1-.1,1.07.72.72,0,0,1-.27.09l.15-.62Zm1.9-4.83c.88.7-.25.83-.56.85.14-.3.28-.61.43-.91A.39.39,0,0,1,37.14,5.36Zm-.92-.67L36,4.75c-.62-.26-.81-.59-.58-1a2.77,2.77,0,0,1,.22-.46c.15-.14.23-.12.26.07.23.17.29.44.6.58a1.5,1.5,0,0,0,.62.13l-.34.6A4.44,4.44,0,0,1,36.22,4.69ZM34.06,8.54A1.25,1.25,0,0,1,34,7.26c.36-.56,1.1-.58,1.8-.56A20.22,20.22,0,0,0,35,9,1.2,1.2,0,0,1,34.06,8.54Zm-.7,5.54a6.34,6.34,0,0,1,.61-.21l.12-.06c0,.36-.07.73-.1,1.09C33.79,15,33.65,14,33.36,14.08Zm-5.51,76c.12,3-1.31,5.87-2,8.7a75.81,75.81,0,0,0-1.95,16.58.22.22,0,0,0,0-.11,1.86,1.86,0,0,0-2.77-.39c-.23.22.12.57.36.35a1.34,1.34,0,0,1,2,.3.26.26,0,0,0,.45,0c0,.43,0,.86,0,1.29-.24,12,.61,24.72-4.54,35.94a30.08,30.08,0,0,1-9.4,11.88c7.05-8.36,7.23-20.21,5.19-30.49-.35-1.78-.77-3.56-1.22-5.34a3.34,3.34,0,0,1,3.45,1.51.25.25,0,0,0,.43-.26,3.88,3.88,0,0,0-4-1.74C10.94,117.32,7,106.32,8.61,95a4.25,4.25,0,0,1,4.53.88.25.25,0,0,0,.35-.35,4.75,4.75,0,0,0-4.8-1.1c.05-.3.08-.59.13-.88C9.4,90.45,10.42,87,13,84.94c2.4-2,6.58-2.1,8.3.82a.26.26,0,0,0,.4,0,3.45,3.45,0,0,1,4.21,0A5.39,5.39,0,0,1,27.85,90.05Zm-4.63-6.82a1.69,1.69,0,0,1,.49,1.38,3.61,3.61,0,0,0-2.13.69,5,5,0,0,0-2.94-2.07,2.14,2.14,0,0,1,1.12-.37c.64-.06,1.28-.07,1.92-.09A1.87,1.87,0,0,1,23.22,83.23ZM38.37,34.69a1.41,1.41,0,0,1,.79-.71c.26-.17.47-.07.63.33a.61.61,0,0,1,.39.9,2.92,2.92,0,0,1-.48,1.23,7.75,7.75,0,0,1-.81.28.25.25,0,0,0,0,.48,1.24,1.24,0,0,0,.47,0c-.44.45-.87.91-1.31,1.38a3.07,3.07,0,0,0,.14-.52C38.36,37,37.83,35.66,38.37,34.69ZM36.3,41.91a4.91,4.91,0,0,1-.48.43,4.17,4.17,0,0,1,.46-1C36.29,41.56,36.29,41.73,36.3,41.91Zm-.08-1.33c-.55.61-1.09,1.23-1.62,1.85,0-.19,0-.39.08-.58A6.89,6.89,0,0,1,35,40.64a2.81,2.81,0,0,1,.46-.85,1.1,1.1,0,0,1,.33-.35.42.42,0,0,1,.37-.18Zm0-5.47s0-.1,0-.16l.07,0A.69.69,0,0,1,36.18,35.11Zm.18-.76a.59.59,0,0,1,0,.13l-.26-.11c0-.27-.08-.53-.11-.8A1,1,0,0,1,36.36,34.35Zm-.84-.28-.27-.15a.39.39,0,0,1,.2-.36C35.47,33.73,35.5,33.9,35.52,34.07Zm-.14-1h-.06a1,1,0,0,0-.54.54.71.71,0,0,0-.05.38.45.45,0,0,0,.27.38,5.86,5.86,0,0,0,.61.32l.15,1.2A9.11,9.11,0,0,1,35,37c-.2.25.15.61.35.36a8.33,8.33,0,0,0,.5-.67c.08.68.15,1.36.22,2-1,.24-1.53,1.49-1.74,2.33s-.23,1.42-.34,2.13l-1,1.14c-.4.49-.79,1-1.18,1.49A2.57,2.57,0,0,0,31.2,44a.26.26,0,0,0-.4,0,9.13,9.13,0,0,0-.93,4.11,1,1,0,0,0-1.17.22,3.11,3.11,0,0,0-.55,2c0,.34,0,.68,0,1-.09.15-.17.3-.25.45a.24.24,0,0,0-.32,0,12.31,12.31,0,0,0-3,4.7s0-.11,0-.16a.27.27,0,0,0-.24-.32,1.51,1.51,0,0,0-.38.08c0-.23.09-.46.14-.7l.14-.14a6.2,6.2,0,0,0,2.16-4.06A.25.25,0,0,0,26,51a3.74,3.74,0,0,0-1.23,1.24c.2-.8.41-1.59.63-2.38.13,0,.25-.08.24-.24a2.54,2.54,0,0,1,0-.68c.05-.19.1-.38.16-.57a3.14,3.14,0,0,1,.86-1.2,3.43,3.43,0,0,0,1.45-2c.08-.48.07-1.47-.59-1.46.25-.61.5-1.22.77-1.81a.2.2,0,0,0,.28-.11,2.29,2.29,0,0,0,.19-.83c.12-.26.24-.51.37-.77.18.13.48,0,.39-.23s.25-.69.48-.93a3.94,3.94,0,0,0,.69-.93,3.52,3.52,0,0,0,.16-.39,3.64,3.64,0,0,0,.75-.61c.27-.29.67-.72.5-1.16a.46.46,0,0,0-.32-.29c.22-.35.44-.69.68-1a2.23,2.23,0,0,0,1.49-.7,1.54,1.54,0,0,0,.34-1,1.12,1.12,0,0,0-.17-.58q.42-.54.87-1.05h.08C35.21,31.9,35.29,32.47,35.38,33.05ZM33,45.89a7.12,7.12,0,0,0-.93.42q.87-1.16,1.8-2.28a4.72,4.72,0,0,1-.52,1.33C33.2,45.55,33.08,45.72,33,45.89Zm-3.37,4.54a.27.27,0,0,0,.09.34,1,1,0,0,1,0,1.35,1.75,1.75,0,0,1-1.08.54c0-.37,0-.74,0-1.1.45-.81.92-1.61,1.43-2.39A1.78,1.78,0,0,1,29.59,50.43ZM27.13,56a.66.66,0,0,0-.47,1.15.25.25,0,0,0,.39-.05l.11-.16c.39.4.25.52-.06,1a6.2,6.2,0,0,1-.61.84c-.34.41-.71.78-1.08,1.16a29.72,29.72,0,0,1,2.29-6.63A5.25,5.25,0,0,1,27.13,56ZM25.4,62,25,64.62a.25.25,0,0,0,.48.13l.19-.26a9.85,9.85,0,0,1-1.2,3.82,47.59,47.59,0,0,1,.77-7.4,2,2,0,0,1,.3.33Zm-.68-1.67a2,2,0,0,0-.73,1,14.48,14.48,0,0,1,3.44-8.6c-.25.52-.49,1-.71,1.57a35.64,35.64,0,0,0-1.91,6Zm3.4-7.82v.13a.44.44,0,0,0,0-.1Zm.51-2a4.5,4.5,0,0,1,.19-1.28c.14-.41.54-.81.94-.5C29.37,49.28,29,49.87,28.63,50.47Zm2.45-5.76a2,2,0,0,1-.38,2.54.21.21,0,0,0-.07.19l-.24.32A8.42,8.42,0,0,1,31.08,44.71Zm-7.7,11.8A2.45,2.45,0,0,0,23,57c-.19.32-.34.67-.51,1,.07-.46.13-.93.2-1.39a2.78,2.78,0,0,0,.81-.58C23.44,56.22,23.41,56.36,23.38,56.51Zm.45.24a.75.75,0,0,1,.15-.09,6.2,6.2,0,0,1-.3,1C23.73,57.34,23.77,57,23.83,56.75Zm.45-2.26h0Zm.48-.53a3.24,3.24,0,0,1,1-2.12A5.08,5.08,0,0,1,24.76,54Zm2.58-9.71c.14-.06.25-.06.32.06a1.67,1.67,0,0,1-.06,1.08,2.36,2.36,0,0,1-.67,1l-.55.49Q26.83,45.54,27.34,44.25Zm4.17-8.07c.15-.1.23-.09.15.09A2.21,2.21,0,0,1,31,37l-.13.11c.17-.29.35-.58.53-.87C31.46,36.22,31.48,36.19,31.51,36.18Zm2-2.89a.29.29,0,0,0,.2-.11,1,1,0,0,0,.13-.33l0,0a.85.85,0,0,1-.11.63,1.31,1.31,0,0,1-.8.57C33.09,33.78,33.28,33.54,33.47,33.29Zm4.87-5.35a2.33,2.33,0,0,1,0,.3c-.18.83-1,1.26-1.68,1.58l-.36.15C36.94,29.27,37.62,28.59,38.34,27.94Zm-2.68,2.85a18,18,0,0,0,2.16-1.06l0,.05A4,4,0,0,1,35.66,30.79ZM38.84,28a1.84,1.84,0,0,0-.07-.47l.24-.21C39,27.58,38.9,27.81,38.84,28Zm1.31-3.17c0-.05.19-.31.27-.32s.27.19.34.3a1.31,1.31,0,0,1,.15.37c-.41.3-.82.6-1.21.92A3.17,3.17,0,0,1,40.15,24.86Zm-3.31,3.3a4,4,0,0,1,.89-.59c.15-.07.29-.15.42-.1-.83.74-1.62,1.52-2.37,2.32A3.79,3.79,0,0,1,36.84,28.16ZM34.36,19c.34,0,.39.24.41.51a6.74,6.74,0,0,1-.33,2.56c-.08-1-.12-2-.13-3Zm-.76,3.8a1.37,1.37,0,0,0-.25.33l-.18-1.2c-.07-.42-.13-.84-.19-1.25s-.18-.86.14-1.18a1.73,1.73,0,0,1,.75-.38c0,1.15.08,2.29.17,3.43A1,1,0,0,0,33.6,22.79Zm.93.23a.92.92,0,0,1,.5.4,1.7,1.7,0,0,1-.26,1.9C34.68,24.56,34.6,23.79,34.53,23Zm0,7.34a4.12,4.12,0,0,1,.27-1c0,.25.07.51.11.76s0,.31.07.47h0a3.58,3.58,0,0,0-.39.29.2.2,0,0,0,0,.25,1,1,0,0,0-.13.16A6,6,0,0,1,34.57,30.36Zm-2.11,2.9a1.51,1.51,0,0,1,.23-.77.36.36,0,0,1,.48-.08h0a.79.79,0,0,0,0,.48c-.25.32-.47.66-.71,1C32.44,33.67,32.44,33.47,32.46,33.26Zm-1.83,2.08c.42.15.21.61-.05,1a1.67,1.67,0,0,0-.12.16,5.39,5.39,0,0,1-.08-.56C30.37,35.79,30.28,35.21,30.63,35.34Zm-3,5.49c0-.14.25-.82.49-.55a1.07,1.07,0,0,1,.16.59s0,0,0,0c-.33.7-.66,1.4-1,2.12A9.14,9.14,0,0,1,27.67,40.83ZM24.47,50l0-.92a1.08,1.08,0,0,1,0-.35c.1-.17.15,0,.17.16a.26.26,0,0,0,.5-.06,12.66,12.66,0,0,1,.43-4.07,1.15,1.15,0,0,1,.21.66.25.25,0,0,0,.47.13,3.91,3.91,0,0,1,.4-.57c-.35.91-.67,1.84-1,2.77,0,0,0,0,0,0a3.2,3.2,0,0,0-.4,1.34c-.22.7-.43,1.41-.62,2.13C24.52,50.85,24.5,50.43,24.47,50Zm-1.14,1.74a4.59,4.59,0,0,1,.73,1.55c-.15.62-.28,1.23-.41,1.85l-.08.09-.48.42a3.29,3.29,0,0,1-.34.25C23,54.52,23.14,53.14,23.33,51.75Zm-1.13,8.1v-.09L23,58.14c.06-.12.11-.25.18-.39-.07.4-.14.8-.2,1.2A6.47,6.47,0,0,1,22.2,59.85Zm1.23-.66a6.15,6.15,0,0,0,.6-1.06,27.76,27.76,0,0,0-.7,7.17A16.39,16.39,0,0,0,23.38,67c0,.32.51.33.5,0,0-.63-.05-1.28-.05-1.93A11.71,11.71,0,0,1,24.27,62a3.18,3.18,0,0,1,.35-.83l0,0a33.59,33.59,0,0,0-.6,4.82c-.07,1.2-.08,2.4-.11,3.6a7.32,7.32,0,0,0-.42,1.64c0,.23.21.28.37.19,0,.53-.06,1.06-.1,1.59-.07.75-.19,1.49-.33,2.23a23.51,23.51,0,0,0-1-6.14C22.64,65.74,23,62.45,23.43,59.19ZM22.2,79.41c0-2.78.05-5.59.16-8.41,0,.11.06.22.08.32a15.7,15.7,0,0,1-.13,8ZM18.27,57.87c.89,0,.83-1.09.83-1.84a5.76,5.76,0,0,1,.66,2.22,2.1,2.1,0,0,1-.06,1.29c0,.29-.18.37-.43.23h0a.22.22,0,0,0-.11-.22c-.17-.09-.34-.18-.5-.28-.23-.47-.47-.93-.71-1.4C18.05,57.87,18.16,57.88,18.27,57.87Zm-5.21-9.75a6.84,6.84,0,0,1,.49,2.27c-.32-.47-.64-.93-1-1.39C12.76,48.73,12.88,48.33,13.06,48.12Zm-1.55-.69a4.57,4.57,0,0,1,.17-1.23,4.22,4.22,0,0,1,.1.62,1.9,1.9,0,0,1,0,.67c-.08.13-.15.15-.22.14a1.47,1.47,0,0,0-.1-.13S11.51,47.46,11.51,47.43Zm-.31,1.35A7,7,0,0,1,9.41,48c-.21-.14-.84-.45-.48-.79.15-.14.87.08,1,.13a6.41,6.41,0,0,1,1.41.84h0l.47.66A1.24,1.24,0,0,1,11.2,48.78Zm1.57,2.45a7.61,7.61,0,0,1,.81.4l-.16-.07A5,5,0,0,1,12.77,51.23Zm1,.47h0v0Zm1.28.44c.27-.15.33-.39.53-.58,0-.19.1-.23.27-.13s.26,0,.25.2a3.29,3.29,0,0,1,.15.83,13.05,13.05,0,0,1,.11,2.5c-.51-.92-1.05-1.82-1.62-2.71A1.42,1.42,0,0,0,15.06,52.14ZM15.89,56a1.08,1.08,0,0,0,.63.27c.19.34.37.68.55,1a2.41,2.41,0,0,1-1.32-.59c-.12-.13-.53-.63-.42-.87S15.77,55.88,15.89,56Zm-.42,1.12a3.43,3.43,0,0,0,1.91.74c.22.43.42.88.64,1.32a.26.26,0,0,0,0,.33,3.61,3.61,0,0,0,.33.35c.12.26.25.52.37.79a56.45,56.45,0,0,1,3.21,8.59c0,.08,0,.16,0,.24-.12-.38-.44-.7-.84-.45s-.27.41-.33.67c-.12.6-.17,1.23-.23,1.85L20,71c-.27-1.12-.59-2.23-1-3.32,0-.21,0-.41,0-.62a1.1,1.1,0,0,0,.66.07.21.21,0,0,0,.17-.17,3,3,0,0,0-.41-2.16.25.25,0,0,0-.46.06,9.27,9.27,0,0,0-.34,1.33,2.73,2.73,0,0,1-.34-.34c-.24-.62-.5-1.23-.77-1.83,0-.06.05-.11.07-.16a12.88,12.88,0,0,0,.12-1.6l0,.09c0,.32.47.32.5,0a1.08,1.08,0,0,0-.26-.88.25.25,0,0,0-.39,0,.9.9,0,0,0-.16.18,2.68,2.68,0,0,0,0-1.85.26.26,0,0,0-.42-.11c-.4.32-.52.82-.82,1.21a.89.89,0,0,1-.2.19c-.28-.5-.54-1-.84-1.48l-.06-.09a2.49,2.49,0,0,0,.32-1.36,3,3,0,0,0-.17-1.15A1.29,1.29,0,0,0,15.47,57.1Zm3.88,8.45c.13.28.23.58.13.73a.29.29,0,0,1-.31.12A8,8,0,0,1,19.35,65.55Zm-3-4.1c.42-.26.57-.74.82-1.13a3.46,3.46,0,0,1-.41,1.87C16.6,61.94,16.46,61.7,16.32,61.45Zm.74,1.23.24-.55c0,.11,0,.22,0,.34a6.17,6.17,0,0,1,0,.86l-.29-.6S17,62.71,17.06,62.68ZM14.36,57c0-.06,0-.41,0-.43s.31.24.37.33a2,2,0,0,1,.24,1,4,4,0,0,1-.09,1,1,1,0,0,1,0,.1c-.28-.42-.56-.84-.85-1.25A1.4,1.4,0,0,0,14.36,57ZM4.27,38.23a7,7,0,0,1,.13.92c0,.37.08,1.41-.2,1.65a.52.52,0,0,1-.45.08,1.09,1.09,0,0,1,0-.17A10.51,10.51,0,0,1,4.27,38.23Zm-.78,4.16c-.69-.15-1.91-.06-2.5-.49-.3,0-.35-.23-.14-.57q-.12-.46.24-.54a1.4,1.4,0,0,1,.64-.11A2.74,2.74,0,0,1,3,41.1l.34.24c.1.37.2.74.32,1.1Zm1.78,1.74a5.31,5.31,0,0,1,.61,2.12,24.3,24.3,0,0,1-1.35-2.88A2.34,2.34,0,0,1,5.27,44.13ZM6.32,47a.18.18,0,0,0,.12-.2,11.94,11.94,0,0,1,.1-1.46c.34.75.6,1.72.08,2.15ZM5.13,48.12A1.4,1.4,0,0,1,4.84,48Zm1.26.19-.2,0a1,1,0,0,0,.29-.1l.1.17Zm1.28.83a3.85,3.85,0,0,1,1.4.84,2.78,2.78,0,0,1,.78,1.47,2,2,0,0,1,0,.68C9.09,51.15,8.36,50.16,7.67,49.14ZM10,53.26a.3.3,0,0,0,.08-.08l.15.19Zm3.35,4.42a2.1,2.1,0,0,1-2,.13.52.52,0,0,1,.05-.83,1.87,1.87,0,0,1,1.23-.27s0,0,.06,0c.23.31.46.63.68,1Zm2.21,3.47-1.11,0a1.46,1.46,0,0,1-1-.26c-.3-.28-.15-.6.18-.75s.83-.16,1.21-.34c.28.45.55.91.82,1.37Zm1.59,3.48.16-.15.18.39A4.15,4.15,0,0,0,17.1,64.63Zm1.6,4.86-.33-.4c.11-.38.2-.4.28-.07a.24.24,0,0,0,.34.08l.3,1.05ZM20.25,72l.27.3c.16.19.4,0,.43-.17a13.6,13.6,0,0,1,.23-1.92.72.72,0,0,1,.27-.56l0,.62c0,.35-.12.72-.19,1.07-.16.83-.38,1.65-.62,2.47C20.5,73.19,20.38,72.59,20.25,72Zm-.46,4.16c-.5.2-.71.07-.65-.38-.2-.54,0-.62.71-.25l.1.24a.14.14,0,0,0,0,.06Zm1.41,5a.19.19,0,0,0,.1-.18,14.15,14.15,0,0,0-.17-2.68c-.06-1.13-.19-2.25-.35-3.37.21-.62.41-1.24.57-1.87s.36-1.52.49-2.29a.3.3,0,0,0,0-.1c-.13,3.1-.17,6.19-.16,9.29-.07.06-.13.14-.2.2a.25.25,0,0,0,.2.42v.2c-.15.28-.31.56-.49.83C21.21,81.44,21.2,81.29,21.2,81.14Zm4.43-9.36c.13-.5.74-1.6,1.19-.69a4.36,4.36,0,0,1,.39,2.16s0,0,0,0q-.84,1.2-1.74,2.34A9.16,9.16,0,0,1,25.63,71.78Zm7.08-9.09a21.92,21.92,0,0,1,.17-2.8,4.59,4.59,0,0,1,.62-2.15,1,1,0,0,1,.75-.46,1.14,1.14,0,0,1,.37,0,51.42,51.42,0,0,1-1.78,5.43Zm-.23.44a.43.43,0,0,1,.17.06c-.19.49-.39,1-.6,1.46-.42.94-.86,1.86-1.33,2.76-.47-1.42-.76-3.21.72-4.08A1.36,1.36,0,0,1,32.48,63.13Zm.31,1.07a7.83,7.83,0,0,1-.64,1.42q.35-.75.66-1.5S32.8,64.17,32.79,64.2Zm2.65-6.64a1.4,1.4,0,0,0,.54,0c.18,0,.41-.2.39.09a2.64,2.64,0,0,1-.5,1,10.87,10.87,0,0,1-1.82,2.18c.39-1.12.74-2.26,1.05-3.4A2.14,2.14,0,0,0,35.44,57.56Zm-.57-6.4a3.28,3.28,0,0,1,.78,1.57c0,.29-.11.57-.16.85,0,0,0,.06,0,.09a.21.21,0,0,0,0,.2c-.1.51-.21,1-.33,1.54A9.39,9.39,0,0,1,34.87,51.16Zm1.49-5.79a2.54,2.54,0,0,0-.16.38,9.72,9.72,0,0,0-.35,1.6c-.11.62-.19,1.24-.25,1.87,0,.32.47.31.5,0s.08-.72.13-1.09c0,.12,0,.24,0,.36-.09,1.07-.23,2.14-.4,3.2a6.78,6.78,0,0,0-.93-1.28.24.24,0,0,0-.41.11,9.92,9.92,0,0,0,.38,5.78s0,0,0,0l-.12.51a1.5,1.5,0,0,0-1.1.09,2.7,2.7,0,0,0-1.13,1.94,19.51,19.51,0,0,0-.32,3.73,1.74,1.74,0,0,0-.51.06A2.7,2.7,0,0,0,30,64.48,5.48,5.48,0,0,0,30.39,68c-.23.26-.45.52-.68.77a.24.24,0,0,0,.08.39c-.11.2-.22.39-.34.58s-.31.29-.46.45a8.11,8.11,0,0,0-1.33,1.95,3.41,3.41,0,0,0-.53-1.51c-.47-.64-1.2-.38-1.6.17a5.13,5.13,0,0,0-.66,2.53,9.91,9.91,0,0,0,.19,2.82c-.58.73-1.18,1.44-1.8,2.14.28-1.15.56-2.3.76-3.47a35,35,0,0,0,.39-5.21c.7-1.91,2-3.66,1.71-5.78,0-.17-.21-.35-.38-.22l-.11.09.22-1.38a4.79,4.79,0,0,0,.23-1.67.64.64,0,0,0-.22-.38c.9-.89,2.76-2.64,2-3.85a1,1,0,0,0-.23-.23,5.87,5.87,0,0,0,.59-2.76c.13.18.45.15.44-.12v-.14a2.12,2.12,0,0,0,1.58-.89,1.47,1.47,0,0,0-.1-1.72,1.8,1.8,0,0,0,.25-1.89c.25-.38.51-.76.78-1.13a5.76,5.76,0,0,1,1.18-.81,4,4,0,0,0-1,2.09c0,.17.17.26.32.24a3.12,3.12,0,0,0,2.65-3.21A.26.26,0,0,0,34,45.6l-.45.12a4.63,4.63,0,0,0,.72-1.46,8.8,8.8,0,0,0,.19-1l.84-1a4.13,4.13,0,0,0-.14.63c0,.19.23.31.37.22s.51-.34.78-.55C36.36,43.51,36.37,44.43,36.36,45.37Zm-3.28,1a6.25,6.25,0,0,1,.74-.21,2.59,2.59,0,0,1-1.88,2.3A5.58,5.58,0,0,1,33.08,46.38ZM37,41c-.07.11-.16.21-.24.32,0-.21,0-.41,0-.62l0-.05c.11-.12.22-.25.34-.37A.64.64,0,0,1,37,41Zm8.75-9A1.78,1.78,0,0,1,46,33.42a1.58,1.58,0,0,1-.88,1,2.29,2.29,0,0,0-.64-1,.25.25,0,0,0-.36,0A9.91,9.91,0,0,1,42,35.31c1.21-1.16,2.45-2.3,3.72-3.4A.36.36,0,0,1,45.77,32Zm.65-1.32a4.92,4.92,0,0,1,.33-.39,10,10,0,0,1,2.52-1.87h0C48.31,29.16,47.36,29.91,46.42,30.68Z"/></g></g></svg>