<svg width="51" height="182" viewBox="0 0 51 182" fill="none" xmlns="http://www.w3.org/2000/svg">
<g clip-path="url(#clip0)">
<path d="M1.7 41.6C2 45 2.9 48.2 4.7 51.1C6.4 53.9 8.9 56.1 11.1 58.5C15.6 63.3 16.6 70 18.1 76.2C18.8 79.3 23.7 78 22.9 74.9C21.4 68.6 20.1 61.9 16 56.7C14.1 54.3 11.6 52.4 9.8 49.9C8 47.5 6.9 44.6 6.7 41.7C6.6 40.4 5.6 39.2 4.2 39.2C2.9 39.1 1.6 40.2 1.7 41.6Z" fill="#54BB0D"/>
<path d="M24.2 79.3C23.9 73.7 23.5 68 22.2 62.5C21.5 59.8 20.6 57.1 19.4 54.6C18.3 52.4 16.8 50.1 16.5 47.6C16.4 46.3 15.5 45.1 14 45.1C12.8 45.1 11.4 46.2 11.5 47.6C11.8 50.4 12.9 52.9 14.2 55.4C15.5 57.8 16.5 60.3 17.2 62.9C18.6 68.2 18.9 73.8 19.3 79.2C19.4 82.5 24.4 82.5 24.2 79.3Z" fill="#54BB0D"/>
<path d="M27.5 74.0999C27.8 66.7999 28.1 58.8999 32.3 52.4999C34.5 49.1999 37.4 46.5999 39.6 43.2999C41.8 39.9999 43.5 36.2999 44.6 32.4999C45.5 29.3999 40.7 28.0999 39.8 31.1999C38.7 34.9999 36.9 38.4999 34.6 41.6999C32.3 44.8999 29.3 47.5999 27.2 51.0999C23.1 57.9999 22.7 66.2999 22.4 74.0999C22.4 77.3999 27.4 77.2999 27.5 74.0999Z" fill="#54BB0D"/>
<path d="M26.8 79.4C33 60.7 39.2 41.1 35.1 21.3C34 15.9 32.3 10.6 32.7 5C32.8 3.7 31.5 2.5 30.2 2.5C28.8 2.5 27.8 3.6 27.7 5C27.4 10 28.5 14.9 29.6 19.7C30.7 24.3 31.4 29 31.4 33.7C31.5 43.4 29.6 52.9 26.9 62.2C25.4 67.6 23.6 72.9 21.9 78.2C20.9 81.2 25.8 82.5 26.8 79.4Z" fill="#54BB0D"/>
<path d="M15.6 159.9C17.4 155.4 18.3 150.6 18.5 145.8C18.7 140.9 17.8 136.1 17.3 131.2C16.8 126.2 16.9 121.1 16.9 116.1C16.9 111.3 16.5 106.4 16.8 101.6C17.1 97.4 18.5 92.8 22.1 90.3C21.1 90.2 20.1 90 19.1 89.9C19.4 90.2 18.3 92.5 18.1 92.9C17.4 94.7 16.6 96.5 15.9 98.4C14.4 102 12.9 105.7 11.5 109.3C13.1 109.5 14.8 109.7 16.4 110C16 106.3 15.7 102.5 15.3 98.8C15.1 97 14.9 95.2 14.8 93.4C14.8 93 14.7 92.2 14.8 91.9C14.8 91.8 14.9 91.2 14.9 91.4L14.6 91.6C13.7 90.4 12.7 89.2 11.8 87.9C7 96.5 8.7 106.3 10.7 115.4C12.3 115 13.9 114.5 15.5 114.1C14.5 111.3 14.3 108.4 14.2 105.5C14.1 102.4 13.9 99.3 14.2 96.2C14.4 94.1 14.8 91.6 16.6 90.2C17.5 89.5 18.6 89.2 19.7 88.9C20.8 88.6 22 88.3 23.1 88.3C22.7 88.2 22.3 88.1 21.8 88C21.1 87.7 21.5 87 21.6 87.8C21.6 88.1 21.8 88.4 21.8 88.7C21.9 89.1 21.9 89.5 21.9 90C21.9 91.1 21.8 92.2 21.6 93.2C21.1 95.4 20.4 97.6 19.6 99.7C18 104.2 17.1 108.8 16.6 113.6C15.7 122.9 16.5 132.2 15.6 141.4C15.1 146.3 14 151.3 11.8 155.8C10.4 158.7 14.2 160.9 16.1 158.3C18.5 155 18.9 150.8 19.3 146.9C19.8 142.5 20.8 138.1 21.4 133.7C22.6 124.9 22.1 116 22.6 107.1C22.9 102.2 23.5 97.5 25.1 92.8C26.1 89.7 21.3 88.4 20.3 91.5C17.6 99.8 17.5 108.6 17.4 117.2C17.4 121.5 17.3 125.8 16.9 130.1C16.5 134.6 15.4 139 14.8 143.4C14.2 147.6 14.4 152.3 11.8 155.9C13.2 156.7 14.7 157.6 16.1 158.4C23.2 144 20 127.9 21.8 112.5C22.2 108.7 23.2 105 24.4 101.3C25.7 97.6 27.1 93.8 26.9 89.8C26.8 88.1 26.6 85.7 25.3 84.4C23.8 82.9 21.5 83.5 19.6 83.9C16.2 84.6 13 86 11.1 89C8.8 92.7 8.8 97.7 8.9 102C9 106.5 9 111.2 10.5 115.5C11.6 118.5 16 117.3 15.3 114.2C13.7 106.5 11.8 97.8 15.9 90.5C16.9 88.7 15.2 86.1 13.1 86.8C9 88 9.7 92.8 10.1 96.2C10.5 100.8 11 105.3 11.4 109.9C11.7 112.8 15.2 113.2 16.3 110.6C18 106.3 19.8 102.1 21.5 97.8C22.9 94.3 25.7 89.7 22.7 86.3C22 85.5 20.5 85.3 19.7 85.9C16 88.4 13.7 92.3 12.6 96.6C11.4 101.5 11.7 106.5 11.9 111.5C12 116.7 11.8 121.9 12 127.1C12.2 132.3 13.3 137.4 13.5 142.6C13.7 148.1 12.7 153.5 10.7 158.6C10.2 159.9 11.2 161.3 12.4 161.7C13.9 162.1 15.1 161.2 15.6 159.9Z" fill="#FD8320"/>
<path d="M8.79999 165.7C16.9 157.3 17.2 144.8 15.1 134C12.5 120.7 6.29999 107.3 8.79999 93.5C9.39999 90.4 10.4 86.9 13 84.9C15.4 82.9 19.6 82.8 21.3 85.7C21.4 85.8 21.6 85.9 21.7 85.8C22.9 84.8 24.7 84.9 25.9 85.8C27.2 86.8 27.8 88.5 27.9 90.1C28 93.1 26.6 96 25.9 98.8C24.4 104.7 24 110.7 23.9 116.8C23.7 128.8 24.5 141.5 19.4 152.7C17 158 13.3 162.7 8.29999 165.7C7.99999 165.9 8.29999 166.3 8.59999 166.1C18.9 159.9 22.9 147.8 24 136.5C24.7 129.5 24.4 122.5 24.6 115.5C24.8 108.4 25.6 101.6 27.7 94.8C28.5 92.1 29.2 88.8 27.4 86.3C26 84.5 23.4 83.8 21.5 85.4C21.6 85.4 21.8 85.4 21.9 85.5C20.8 83.7 18.8 82.9 16.8 83C14.5 83.1 12.6 84.4 11.3 86.2C9.59999 88.5 8.79999 91.5 8.39999 94.3C7.89999 97.7 7.89999 101.2 8.19999 104.6C9.49999 118.7 16.5 131.9 16 146.2C15.8 153.2 13.7 160.2 8.69999 165.3C8.19999 165.6 8.59999 166 8.79999 165.7Z" fill="black"/>
<path d="M8.19999 95.2C9.79999 94.3 11.9 94.6 13.1 95.9C13.3 96.1 13.7 95.8 13.5 95.5C12.1 94.1 9.7 93.7 8 94.7C7.7 94.9 7.89999 95.4 8.19999 95.2Z" fill="black"/>
<path d="M21.4 115.2C22 114.7 23 114.8 23.4 115.5C23.6 115.8 24 115.5 23.8 115.2C23.2 114.3 21.8 114.1 21 114.8C20.9 115.1 21.2 115.4 21.4 115.2Z" fill="black"/>
<path d="M13.5 128.8C14.9 128.4 16.5 129 17.3 130.2C17.5 130.5 17.9 130.2 17.7 129.9C16.8 128.4 15 127.7 13.3 128.2C13.1 128.4 13.2 128.9 13.5 128.8Z" fill="black"/>
<path d="M2.8 162.2C4 160.1 6.8 160 8.8 159.1C10.7 158.3 12.3 157 13.6 155.4C13.8 155.1 13.4 154.8 13.2 155C11.8 156.8 10 158.1 7.9 158.9C5.9 159.6 3.5 159.9 2.3 161.9C2.2 162.2 2.7 162.5 2.8 162.2Z" fill="black"/>
<path d="M3.49999 159.7C3.99999 159.9 4.59999 160.2 5.09999 160.4C5.19999 160.5 5.39999 160.4 5.39999 160.3C5.49999 160.2 5.39999 160 5.29999 160C4.79999 159.8 4.19999 159.5 3.69999 159.3C3.59999 159.2 3.39999 159.3 3.39999 159.4C3.39999 159.5 3.39999 159.7 3.49999 159.7Z" fill="black"/>
<path d="M13.5 161.9C8.09999 167.3 15.6 176 10.4 181.4C10.2 181.6 10.5 182 10.8 181.8C16.1 176.3 8.59999 167.7 13.9 162.3C14.1 162 13.7 161.7 13.5 161.9Z" fill="black"/>
<path d="M14.4 181.2C14 180.2 13.7 179.1 13.3 178.1C13.2 177.8 12.7 177.9 12.8 178.2C13.2 179.2 13.5 180.3 13.9 181.3C14 181.6 14.5 181.5 14.4 181.2Z" fill="black"/>
<path d="M10.5 172.9C11.2 172.1 11.8 171.3 12.5 170.4C12.6 170.3 12.6 170.1 12.5 170C12.4 169.9 12.2 169.9 12.1 170C11.4 170.8 10.8 171.6 10.1 172.5C9.99999 172.6 9.99999 172.8 10.1 172.9C10.3 173 10.5 173 10.5 172.9Z" fill="black"/>
<path d="M18.9 154.9C18 157.3 17.8 159.9 18.5 162.3C19.1 164.6 21.3 167.7 19.2 169.9C19 170.1 19.3 170.5 19.6 170.3C21.4 168.4 20.3 165.8 19.5 163.8C18.4 161 18.3 158 19.4 155.1C19.5 154.7 19 154.6 18.9 154.9Z" fill="black"/>
<path d="M19.2 166.5C19.1 165.4 19.4 164.4 20 163.6C20.1 163.5 20 163.3 19.9 163.3C19.8 163.2 19.6 163.3 19.6 163.4C18.9 164.3 18.6 165.5 18.7 166.6C18.7 166.7 18.8 166.8 18.9 166.8C19 166.8 19.2 166.6 19.2 166.5Z" fill="black"/>
<path d="M18.4 83.5C18.7 83.1 19.2 83 19.7 82.9C20.3 82.8 21 82.8 21.6 82.8C22.2 82.8 22.7 82.8 23.1 83.3C23.5 83.7 23.7 84.2 23.6 84.7C23.6 85 24.1 85 24.1 84.7C24.2 84.1 23.9 83.5 23.5 83C23 82.5 22.4 82.3 21.8 82.3C21 82.3 20.2 82.3 19.5 82.4C18.9 82.5 18.3 82.7 17.9 83.2C17.8 83.5 18.3 83.7 18.4 83.5Z" fill="black"/>
<path d="M21 82.7001C25.8 76.8001 22.4 68.0001 19.8 61.9001C16.5 54.1001 11.8 47.0001 5.9 41.0001C5.7 40.8001 5.3 41.1001 5.5 41.4001C11 47.0001 15.5 53.5001 18.7 60.6001C20.2 64.0001 21.7 67.6001 22.4 71.3001C23.2 75.0001 23.2 79.2001 20.6 82.3001C20.5 82.6001 20.8 82.9001 21 82.7001Z" fill="black"/>
<path d="M22.2 81.6001C22.1 65.3001 23 47.8001 32.9 34.0001C35.4 30.5001 38.5 27.4001 42 24.9001C42.3 24.7001 42 24.3001 41.7 24.5001C28.3 33.8001 23.3 50.3001 22 65.8001C21.6 71.0001 21.5 76.3001 21.6 81.5001C21.7 81.9001 22.2 81.9001 22.2 81.6001Z" fill="black"/>
<path d="M22.7 80.5C23.1 78.6 23.7 76.7 24 74.8C24.3 72.9 24.4 70.9 24.4 69C24.5 64.8 24.9 60.8 26.3 56.7C29 49 34.7 42.7 40.3 37C43.5 33.7 47 30.7 50.8 28C51.1 27.8 50.8 27.4 50.5 27.6C44 32.2 38.2 38 33 44.3C30.5 47.3 28.2 50.6 26.7 54.3C25.1 58.1 24.2 61.9 24 66C23.9 68.3 23.9 70.7 23.7 73C23.5 75.5 22.7 78 22.2 80.5C22.2 80.7 22.6 80.9 22.7 80.5Z" fill="black"/>
<path d="M21.9 80.5C29.4 72.9 34.5 63.1 36.2 52.5C37.1 46.9 37 41.4 36.3 35.8C35.5 29.7 34.2 23.6 34.3 17.4C34.4 11.3 36 4.9 40.4 0.400004C40.6 0.200004 40.3 -0.199996 40 4.10527e-06C32.2 8 33.3 20 34.9 30.1C35.8 36.2 36.7 42.3 36.2 48.5C35.7 54.1 34.3 59.6 32 64.7C29.5 70.5 25.9 75.7 21.5 80.2C21.3 80.4 21.6 80.7 21.9 80.5Z" fill="black"/>
<path d="M21.2 81.6C21.4 73.8 19.3 66.1 15.2 59.5C10.8 52.5 3.5 46.3 3.3 37.4C3.3 37.1 2.8 37.1 2.8 37.4C3 45.8 9.4 51.8 13.8 58.3C18.5 65.2 20.9 73.4 20.7 81.7C20.7 82 21.2 82 21.2 81.6Z" fill="black"/>
<path d="M11.5 47.4C11.5 46.7 11.6 46.1 11.9 45.5C11.7 45.5 11.6 45.5 11.4 45.4C11.6 45.8 11.7 46.3 11.7 46.8C11.7 46.9 11.8 47.4 11.7 47.5C11.5 47.8 11.4 47.6 11.3 47.5C11.1 47.4 10.8 47.2 10.6 47.1C10.3 47 10.1 46.9 9.80001 46.8C9.30001 46.7 7.60001 46.5 8.10001 47.6C8.60001 48.5 10.1 49.1 11 49.3C11.4 49.4 11.9 49.4 12.2 49.2C12.6 49 12.7 48.1 13.1 48C13 48 12.9 47.9 12.8 47.9C13.3 49 13.5 50.3 13.4 51.5C13.5 51.4 13.7 51.4 13.8 51.3C13.2 51 12.6 50.7 11.9 50.5C11.7 50.5 11.5 50.6 11.6 50.8C12 51.9 13.9 52.8 14.9 52.2C15.2 52 15.2 51.8 15.4 51.6C15.4 51.4 15.5 51.4 15.7 51.5C15.9 51.5 16 51.5 15.9 51.7C16 51.9 16 52.3 16 52.5C16.2 53.7 16.2 54.9 16 56C16.1 55.9 16.2 55.8 16.2 55.8C15.7 55.8 15.3 54.8 14.7 55.3C14.1 55.8 14.7 56.8 15.1 57.2C15.8 57.9 17 58 17.9 58C18.9 58 18.7 56.6 18.7 55.9C18.6 56 18.6 56.1 18.5 56.1C19 56 19.3 58.1 19.3 58.4C19.4 58.9 19.5 59.3 19.2 59.7C19.2 60 19 60.1 18.8 59.9C18.6 59.9 18.5 59.9 18.4 59.7C18.2 59.6 18.1 59.4 17.9 59.2C17.8 59.3 17.7 59.5 17.6 59.6C17.9 59.8 18.1 59.9 18.4 60.1C18.7 60.3 18.9 59.8 18.7 59.7C18.4 59.5 18.2 59.4 17.9 59.2C17.6 59.1 17.4 59.4 17.6 59.6C18 60.1 18.5 60.6 19.2 60.4C19.9 60.3 20 59.7 19.9 59.1C19.9 58.3 19.7 55.2 18.4 55.6C18.3 55.6 18.2 55.7 18.2 55.8C18.2 56.1 18.2 56.6 18.1 56.9C17.9 57.5 17.7 57.4 17.3 57.4C16.6 57.4 15.9 57.2 15.4 56.7C15.3 56.6 14.9 56.1 15 55.8C15.2 55.5 15.4 55.9 15.6 56C15.8 56.2 16 56.3 16.3 56.3C16.4 56.3 16.5 56.2 16.5 56.1C16.6 55 16.6 53.9 16.5 52.8C16.4 52.3 16.4 51.3 15.9 50.9C15.5 50.6 15.1 50.9 14.9 51.2C14.5 52 13.8 52 13.1 51.6C12.6 51.4 12.1 51.1 11.9 50.6C11.8 50.7 11.7 50.8 11.6 50.9C12.2 51.1 12.8 51.3 13.4 51.6C13.6 51.7 13.8 51.6 13.8 51.4C13.9 50.1 13.7 48.8 13.2 47.6C13.2 47.5 13 47.5 12.9 47.5C12.6 47.6 12.5 47.8 12.3 48C12.2 48.3 12.2 48.5 11.9 48.7C11.6 48.9 11.3 48.9 11 48.8C10.4 48.6 9.70001 48.3 9.20001 48C9.00001 47.9 8.40001 47.6 8.70001 47.2C8.80001 47.1 9.60001 47.3 9.70001 47.3C10.3 47.5 10.6 47.9 11.1 48.1C11.3 48.2 11.6 48.3 11.9 48.1C12.1 47.9 12.1 47.4 12.1 47.1C12.1 46.4 12 45.8 11.8 45.2C11.7 45 11.4 44.9 11.3 45.1C11.2 46 11 46.7 11 47.4C11 47.8 11.5 47.8 11.5 47.4Z" fill="black"/>
<path d="M3.7 40.9C3.8 39.8 4.1 38.7 4.5 37.6C4.3 37.6 4.2 37.6 4 37.5C4.2 38 4.3 38.6 4.3 39.1C4.3 39.5 4.4 40.5 4.1 40.8C3.7 41.2 2.6 40.3 2.1 40.2C1.4 40.1 0 40.4 0 41.5C0 42.7 2.2 42.7 3 42.8C3.9 43 4.8 43.3 5.3 44.1C5.8 44.9 5.9 45.9 6 46.8C6 47.1 6.5 47.1 6.5 46.8C6.5 46.1 6.6 45.3 6.7 44.6C6.5 44.6 6.4 44.6 6.2 44.7C6.7 45.5 7.7 47.6 6 47.7C5.3 47.7 4.7 47.3 4 47.5C3.8 47.5 3.8 47.8 3.9 47.9C4.4 48.5 5.1 48.6 5.8 48.7C7 48.9 8.2 49.1 9.1 50C9.5 50.4 9.8 50.9 9.9 51.5C10 52.2 9.7 53.5 8.8 52.7C8.3 52.2 7.8 51.8 7.1 52C6.9 52.1 6.8 52.4 7 52.5C8.5 53.2 9.9 54 11.4 54.6C11.6 54.7 11.8 54.6 11.8 54.4C11.9 53.6 11.8 52.9 11.7 52.1C11.5 52.1 11.4 52.2 11.2 52.2C11.5 53.1 11.6 54.1 11.5 55.1C11.5 55.4 11.9 55.6 12 55.2C12.1 54.1 12.1 53.1 11.7 52.1C11.6 51.8 11.2 51.9 11.2 52.2C11.4 52.9 11.4 53.6 11.3 54.4C11.4 54.3 11.6 54.3 11.7 54.2C10.2 53.5 8.8 52.8 7.3 52.1C7.3 52.3 7.3 52.4 7.2 52.6C8.2 52.3 8.9 54.3 9.8 53.5C10.5 53 10.4 51.7 10.2 51C9.8 50 9 49.3 8.1 48.9C7.6 48.7 7 48.5 6.4 48.4C5.6 48.3 4.7 48.3 4.2 47.7C4.2 47.8 4.1 48 4.1 48.1C4.8 47.9 5.4 48.5 6.1 48.4C6.5 48.3 6.9 48.1 7.1 47.8C7.8 46.7 7.2 45.5 6.6 44.6C6.5 44.4 6.2 44.4 6.1 44.7C6 45.3 5.9 46 5.9 46.8C6.1 46.8 6.2 46.8 6.4 46.8C6.3 45.6 6.1 44.2 5.2 43.2C4.7 42.7 4.1 42.5 3.5 42.3C2.8 42.2 1.6 42.2 1 41.8C0.7 41.8 0.6 41.6 0.9 41.2C0.8 40.9 0.9 40.7 1.1 40.7C1.3 40.6 1.5 40.6 1.7 40.6C2.2 40.6 2.6 40.8 3 41C3.4 41.2 3.8 41.8 4.3 41.4C4.7 41.1 4.8 40.3 4.8 39.9C4.9 39 4.8 38.1 4.5 37.3C4.4 37.1 4.1 37 4 37.2C3.5 38.3 3.2 39.5 3.1 40.8C3.1 41.2 3.6 41.2 3.7 40.9Z" fill="black"/>
<path d="M12.6 56.2C11.9 56.2 11.1 56.3 10.7 57C10.4 57.5 10.6 58.1 11.2 58.3C11.8 58.6 12.5 58.5 13.1 58.3C13.7 58.1 14.3 57.6 14.4 57C14.4 56.9 14.4 56.6 14.4 56.6C14.5 56.5 14.7 56.8 14.8 56.9C15 57.2 15 57.6 15 57.9C15 58.2 15 58.6 14.9 58.9C14.8 59.3 14.5 59.4 14.1 59.5C13.6 59.6 12.9 59.7 12.7 60.4C12.5 61.1 13.2 61.5 13.8 61.6C14.2 61.7 14.7 61.7 15.1 61.7C15.5 61.7 15.9 61.7 16.3 61.5C16.9 61.2 16.9 60.4 17.4 60C17.3 60 17.1 59.9 17 59.9C17.4 60.8 17 61.7 16.6 62.5C16.5 62.8 16.9 63 17 62.8C17.4 61.9 17.9 60.8 17.5 59.8C17.4 59.6 17.2 59.6 17.1 59.7C16.7 60 16.6 60.5 16.3 60.9C16.1 61.2 15.9 61.2 15.5 61.2C15.1 61.2 14.8 61.2 14.4 61.2C14.1 61.2 13.6 61.2 13.4 60.9C13.1 60.6 13.3 60.3 13.6 60.1C14.1 59.9 14.6 60 15 59.6C15.4 59.2 15.5 58.6 15.5 58C15.5 57.5 15.4 56.9 15.1 56.5C14.9 56.2 14.3 55.7 13.9 56.1C13.7 56.3 13.8 56.6 13.8 56.8C13.8 57.1 13.5 57.4 13.2 57.6C12.7 57.9 11.8 58.1 11.2 57.7C10.9 57.5 11 57.1 11.2 56.9C11.5 56.6 12 56.6 12.4 56.6C12.9 56.7 12.9 56.2 12.6 56.2Z" fill="black"/>
<path d="M21.3 81C21.3 79.7 21.2 78.3 20.9 77C20.7 76.3 20.5 74.9 19.7 74.6C19.1 74.4 18.7 74.9 18.6 75.5C18.5 76.3 19 76.9 19.7 77.1C19.8 77.1 19.9 77.1 20 77C20.6 75.7 21 74.4 21.4 73C21.6 72.2 21.8 71.5 21.9 70.7C22 70.3 22.1 69.9 22 69.5C21.9 69.1 21.6 68.7 21.1 69C20.9 69.2 20.8 69.4 20.8 69.7C20.6 70.5 20.6 71.3 20.5 72.1C20.6 72 20.8 72 20.9 71.9C20.4 71.4 19.9 70.8 19.5 70.3C19.3 70 19 69.8 18.8 69.5C18.7 69.4 18.6 69.2 18.5 69.1C18.6 68.7 18.7 68.7 18.8 69C18.9 69.2 19.3 69.1 19.3 68.9C19.1 67.5 19.3 66.3 19.7 65C19.5 65 19.4 65 19.2 65.1C19.3 65.3 19.8 66.1 19.6 66.4C19.4 66.7 19 66.5 18.9 66.3C18.5 66 18.2 65.5 17.8 65.1C17.1 64.5 16.3 64.1 15.5 63.9C15.3 63.8 15.1 64.1 15.2 64.3C15.6 65 16.4 65.2 17.1 64.8C17.5 64.6 17.7 64.2 17.9 63.9C18.1 63.3 17.8 62.2 18.3 61.8C18.2 61.8 18 61.8 17.9 61.7C18 61.9 18 62.1 18.1 62.3C18.1 62.6 18.6 62.6 18.6 62.3C18.6 61.9 18.6 61.7 18.3 61.4C18.2 61.3 18 61.2 17.9 61.3C17.6 61.6 17.5 61.9 17.5 62.4C17.5 62.8 17.6 63.1 17.4 63.5C17 64.3 16 64.9 15.5 64C15.4 64.1 15.3 64.2 15.2 64.4C16.4 64.7 17.3 65.3 18.1 66.3C18.6 66.8 19 67.3 19.7 67.2C19.8 67.2 19.9 67.1 19.9 67C20 66.2 19.9 65.5 19.5 64.8C19.4 64.6 19.1 64.7 19 64.9C18.5 66.2 18.4 67.6 18.6 69C18.8 69 18.9 68.9 19.1 68.9C18.9 68.5 18.7 68.1 18.2 68.2C17.9 68.3 17.7 68.5 17.7 68.8C17.7 69.3 18.1 69.7 18.4 70.1C19.1 70.9 19.8 71.6 20.4 72.4C20.6 72.6 20.8 72.4 20.8 72.2C20.9 71.6 20.9 70.9 21 70.3C21 70.1 21.1 69.9 21.3 69.7C21.3 69.9 21.3 70.1 21.3 70.3C21.3 70.7 21.2 71 21.1 71.4C20.9 72.6 20.5 73.9 20.1 75C20 75.3 19.9 75.6 19.8 75.8C19.8 75.9 19.7 76 19.7 76.1C19.2 76.3 19 76.2 19.1 75.7C18.9 75.2 19.1 75.1 19.8 75.5C19.9 75.7 19.9 75.8 20 76C20.1 76.3 20.2 76.6 20.3 77C20.7 78.3 20.8 79.6 20.8 81C20.8 81.3 21.3 81.3 21.3 81Z" fill="black"/>
<path d="M22.1 65C21.8 63.1 21.7 61.3 21.7 59.4C21.6 59.5 21.4 59.5 21.3 59.6C21.4 59.8 21.5 59.9 21.6 60.1C21.6 60.3 22 60.4 22.1 60.2C22.4 59.5 22.7 58.9 23 58.2C23.3 57.6 23.6 56.7 24.3 56.6C24.2 56.5 24.1 56.4 24.1 56.3C23.8 57.9 23 59.4 21.7 60.4C21.8 60.5 22 60.6 22.1 60.6C22.5 57.5 23 54.3 23.4 51.2C23.3 51.2 23.1 51.3 23 51.3C23.8 52.2 24.2 53.2 24.2 54.4C24.2 54.7 24.7 54.7 24.7 54.4C24.7 53.2 25.2 52.1 26.2 51.5C26.1 51.4 25.9 51.4 25.8 51.3C25.7 52.4 25.2 53.4 24.5 54.2C24.2 54.6 23.8 54.9 23.5 55.3C23.3 55.4 23.2 55.6 23 55.7C22.9 55.8 22.2 56.3 22.2 56.2C22.3 55.9 21.8 55.8 21.7 56.1C21.6 56.5 21.9 56.8 22.4 56.8C23 56.7 23.7 55.8 24.2 55.4C25.3 54.3 26.3 53 26.4 51.3C26.4 51.1 26.2 51 26 51.1C24.8 51.8 24.2 53.1 24.2 54.4C24.4 54.4 24.5 54.4 24.7 54.4C24.7 53.1 24.2 51.9 23.3 51C23.2 50.9 22.9 50.9 22.9 51.1C22.5 54.2 22 57.4 21.6 60.5C21.6 60.8 21.8 60.9 22 60.7C23.4 59.6 24.3 58.1 24.5 56.4C24.5 56.2 24.4 56.1 24.3 56.1C23.7 56.1 23.3 56.5 22.9 57.1C22.4 58 22 59 21.6 59.9C21.8 59.9 21.9 59.9 22.1 60C22 59.6 21.9 59.4 21.6 59.2C21.4 59.1 21.2 59.2 21.2 59.4C21.2 61.3 21.4 63.3 21.7 65.2C21.7 65.4 22.1 65.3 22.1 65Z" fill="black"/>
<path d="M24.6 51.9C24.6 51.3 24.5 50.7 24.5 50.1C24.5 49.8 24.5 49.5 24.4 49.2C24.4 49.1 24.3 48.9 24.4 48.8C24.5 48.6 24.5 48.9 24.6 49C24.7 49.3 25.1 49.2 25.1 48.9C25 47.4 25.2 45.8 25.7 44.4C25.6 44.4 25.4 44.5 25.3 44.5C25.6 44.8 25.8 45.1 25.8 45.5C25.8 45.7 26.1 45.9 26.3 45.6C26.4 45.4 27.5 43.8 27.8 44.4C27.9 44.7 27.8 45.2 27.7 45.5C27.6 45.9 27.3 46.2 27 46.5C26.5 47 26 47.3 25.6 47.9C25.3 48.5 25.2 49.1 25.2 49.7C25.2 50 25.7 50 25.7 49.7C25.6 48.7 26 47.9 26.8 47.3C27.5 46.7 28.1 46.2 28.2 45.3C28.3 44.8 28.3 43.7 27.5 43.8C26.8 43.9 26.1 44.8 25.8 45.4C26 45.4 26.1 45.5 26.3 45.5C26.3 45 26.1 44.5 25.6 44.1C25.5 44 25.2 44 25.2 44.2C24.7 45.7 24.5 47.3 24.6 48.9C24.8 48.9 24.9 48.9 25.1 48.8C25 48.5 24.9 48.2 24.5 48.1C24.2 48.1 24 48.3 23.9 48.6C23.8 49.1 24 49.7 24 50.2C24 50.8 24.1 51.3 24.1 51.9C24.1 52.2 24.6 52.2 24.6 51.9Z" fill="black"/>
<path d="M27.4 43.8C27.4 42.8 27.5 41.8 27.7 40.9C27.7 40.8 28 40.1 28.2 40.3C28.3 40.4 28.4 40.7 28.4 40.9C28.4 41.1 28.4 41.4 28.3 41.6C28.2 41.9 28.6 42.1 28.7 41.9C28.9 41.4 29 40.7 28.7 40.2C28.6 40 28.4 39.8 28.1 39.9C27.9 39.9 27.7 40.1 27.5 40.3C27.3 40.5 27.3 40.8 27.2 41C27.1 41.3 27.1 41.6 27 42C26.9 42.7 26.9 43.3 26.9 44C26.9 44.1 27.4 44.1 27.4 43.8Z" fill="black"/>
<path d="M29.6 39.9C29.5 39.5 29.9 39.2 30.1 39C30.4 38.7 30.6 38.4 30.8 38.1C31 37.8 31.1 37.4 30.9 37.1C30.7 36.9 30.3 36.9 30.2 37.1C30.4 37.1 30.5 37.1 30.7 37.2C30.6 36.8 30.6 36.4 30.5 36C30.5 35.8 30.4 35.2 30.8 35.4C31.5 35.6 30.4 36.8 30.3 37.1C30.2 37.4 30.6 37.6 30.7 37.4C30.9 37.1 31 36.8 31.3 36.6C31.4 36.5 31.5 36.4 31.7 36.3C31.9 36.2 31.9 36.2 31.9 36.4C31.8 36.7 31.5 36.9 31.3 37.1C31 37.3 30.8 37.5 30.5 37.7C30.2 37.8 30.5 38.3 30.8 38.1C31.3 37.9 31.7 37.6 32 37.2C32.3 36.9 32.7 36.5 32.5 36C32.3 35.5 31.7 35.7 31.4 35.9C31 36.2 30.7 36.6 30.4 37.1C30.5 37.2 30.7 37.3 30.8 37.4C31 36.9 31.5 36.5 31.6 35.9C31.7 35.4 31.4 35 31 34.9C29.7 34.6 30.2 36.8 30.3 37.4C30.3 37.6 30.6 37.6 30.8 37.5C30.7 37.5 30.7 37.5 30.7 37.6V37.7C30.7 37.8 30.7 37.8 30.6 37.9C30.5 38 30.5 38.2 30.4 38.3C30.2 38.5 30.1 38.7 29.9 38.9C29.6 39.3 29.2 39.7 29.4 40.2C29.2 40.4 29.7 40.2 29.6 39.9Z" fill="black"/>
<path d="M32.5 34.3C32.5 33.9 32.5 33.6 32.5 33.2C32.5 33 32.6 32.6 32.7 32.4C32.8 32.2 33 32.2 33.2 32.3C33.4 32.4 33.4 32.7 33.3 32.8C33.5 32.8 33.6 32.8 33.8 32.9C33.8 32.8 33.7 32.7 33.7 32.6C33.7 32.5 33.7 32.5 33.7 32.5C33.7 32.5 33.7 32.5 33.8 32.6L33.9 32.7C34 32.9 33.9 33.2 33.8 33.4C33.4 34 32.6 34.1 32 34.1C31.9 34.1 31.8 34.2 31.8 34.3C31.8 34.4 31.9 34.6 32 34.5C32.7 34.4 33.6 34.4 34.1 33.7C34.3 33.4 34.5 33.1 34.4 32.7C34.4 32.4 34.2 31.9 33.8 31.8C33.6 31.7 33.3 31.9 33.2 32.1C33.1 32.3 33.1 32.6 33.2 32.9C33.3 33.1 33.5 33.1 33.7 33C33.9 32.7 33.9 32.2 33.6 31.9C33.3 31.6 32.9 31.6 32.6 31.8C32.3 32 32.1 32.4 32.1 32.7C32 33.2 32 33.6 32.1 34.1C32.1 34.2 32.2 34.3 32.3 34.3C32.3 34.6 32.5 34.5 32.5 34.3Z" fill="black"/>
<path d="M34.4 32C34.4 31.4 34.5 30.9 34.6 30.3C34.7 29.9 34.8 29 35.2 29C35.1 28.9 35 28.9 34.9 28.8C35 29.2 35.1 29.5 35.2 29.9C35.3 30.1 35.6 30.1 35.7 29.9C35.9 29.2 36.3 28.6 36.8 28.1C37.1 27.9 37.4 27.7 37.7 27.5C37.9 27.4 38.1 27.3 38.2 27.5C38.3 27.7 38.3 28 38.3 28.2C38.1 29 37.3 29.5 36.6 29.8C35.9 30.1 35.2 30.4 34.6 30.9C34.4 31.1 34.6 31.3 34.8 31.3C36.6 31.4 38.4 30.4 39.1 28.8C39.5 28 39.5 27.1 39.7 26.2C39.8 25.7 39.9 25.3 40.2 24.9C40.2 24.9 40.4 24.6 40.5 24.6C40.7 24.6 40.8 24.8 40.8 24.9C41 25.2 41 25.5 41 25.8C41 26.1 41.3 26.1 41.5 25.9C41.9 25.4 42.4 25 43 24.8C42.9 24.7 42.8 24.6 42.7 24.5C42.4 25.4 41.7 26 40.8 26.2C40.5 26.3 40.6 26.8 40.9 26.7C42 26.5 42.8 25.7 43.1 24.6C43.2 24.4 43 24.2 42.8 24.3C42 24.5 41.4 25 41 25.6C41.2 25.6 41.3 25.7 41.5 25.7C41.5 25.1 40.9 23.4 40.1 24.2C39.4 24.8 39.2 26 39.1 26.9C39 28 38.7 29 37.8 29.8C37 30.5 35.9 30.9 34.8 30.9C34.9 31 34.9 31.2 35 31.3C35.8 30.6 37 30.4 37.9 29.8C38.6 29.3 39.1 28.3 38.8 27.5C38.4 26.6 37.3 27.3 36.8 27.7C36.1 28.3 35.5 29.1 35.3 29.9C35.5 29.9 35.6 29.9 35.8 29.9C35.7 29.5 35.6 29.2 35.5 28.8C35.5 28.7 35.3 28.6 35.2 28.6C34.6 28.7 34.5 29.3 34.3 29.8C34.1 30.5 34 31.3 34 32.1C33.9 32.3 34.4 32.3 34.4 32Z" fill="black"/>
<path d="M24 71.2C24.3 68.6 26.5 66.5 26.1 63.8C26.1 63.6 25.9 63.5 25.7 63.6C25.3 63.9 25.1 64.2 24.9 64.6C25.1 64.6 25.2 64.7 25.4 64.7C25.5 63.9 25.7 63.1 25.8 62.3C25.9 61.8 26.1 61.1 26 60.6C25.8 59.9 25.1 60 24.6 60.3C23.8 60.8 23.6 61.9 23.5 62.7C23.2 64.1 23.2 65.5 23.3 67C23.3 67.3 23.8 67.3 23.8 67C23.6 61.8 23.8 56 27.8 52.2C27.7 52.2 27.5 52.1 27.4 52.1C27.9 53.8 27.6 55.5 26.5 56.9C26.6 56.9 26.8 56.9 26.9 56.8C27.5 57.3 27.3 57.4 27 58C26.8 58.3 26.6 58.6 26.4 58.8C26 59.2 25.6 59.7 25.2 60.1C25 60.3 25.3 60.7 25.6 60.5C26.4 59.7 28.6 57.8 27.8 56.5C27.2 55.5 25.8 56.5 26.6 57.3C26.7 57.4 26.9 57.4 27 57.2C28.1 55.7 28.4 53.8 27.9 52C27.8 51.8 27.6 51.8 27.5 51.9C23.4 55.8 23.1 61.8 23.3 67.1C23.5 67.1 23.6 67.1 23.8 67.1C23.7 65.4 23.7 63.7 24.2 62C24.3 61.7 24.4 61.4 24.6 61.2C24.8 60.7 25.1 60.8 25.5 61.3C25.5 61.5 25.4 61.8 25.4 62C25.3 62.9 25.1 63.7 25 64.6C24.9 64.9 25.4 65 25.5 64.7C25.7 64.5 25.9 64.2 26 64C25.9 63.9 25.7 63.9 25.6 63.8C26 66.4 23.8 68.6 23.5 71.2C23.5 71.5 24 71.5 24 71.2Z" fill="black"/>
<path d="M28.6 53.3C28.6 52.5 28.6 51.8 28.6 51C28.6 50.4 28.6 49.7 28.8 49.1C28.9 48.7 29.4 48.2 29.8 48.7C30.3 49.2 29.9 49.9 29.6 50.4C29.5 50.5 29.6 50.7 29.7 50.7C30.1 51 30 51.7 29.7 52.1C29.3 52.6 28.6 52.7 28 52.7C27.7 52.7 27.7 53.2 28 53.2C28.8 53.2 29.7 53 30.2 52.3C30.6 51.7 30.5 50.8 29.9 50.4C29.9 50.5 30 50.6 30 50.7C30.4 50.1 30.8 49.3 30.3 48.6C29.9 48.1 29.2 48 28.7 48.5C28.2 49 28.2 49.8 28.2 50.4C28.1 51.4 28.1 52.4 28.2 53.3C28.2 53.6 28.7 53.6 28.6 53.3Z" fill="black"/>
<path d="M30.4 48.2C30.4 46.8 30.7 45.6 31.3 44.3C31.2 44.3 31 44.3 30.9 44.4C31.7 45.3 31.6 46.5 30.8 47.3C30.6 47.5 30.9 47.9 31.2 47.7C32.1 46.9 33.1 46.4 34.3 46.2C34.2 46.1 34.1 46 34 46C34 47.4 33.1 48.5 31.7 48.7C31.8 48.8 31.9 48.9 32 48.9C32.2 47.2 34 46.1 34.4 44.4C34.6 43.6 34.7 42.8 34.8 42C34.9 41.6 34.9 41.2 35.1 40.8C35.2 40.5 35.4 40.2 35.6 40C35.7 39.9 35.8 39.7 35.9 39.7C36.2 39.4 36.4 39.5 36.8 39.9C36.6 40.1 36.9 40.5 37.1 40.3C37.4 40.6 37.4 41 37.2 41.3C37 41.6 36.9 41.8 36.7 42C36.4 42.4 36 42.7 35.5 43C35.6 43.1 35.8 43.1 35.9 43.2C36.1 41.3 38.1 40.2 38.4 38.3C38.6 37.2 38 35.9 38.6 34.9C38.8 34.6 39.1 34.3 39.4 34.2C39.7 34 39.9 34.1 40 34.5C40.4 34.7 40.6 35 40.4 35.4C40.3 35.9 40 37.1 39.2 36.9C39.2 37.1 39.2 37.2 39.2 37.4C41.4 36.8 43.2 35.7 44.7 34C44.6 34 44.5 34 44.3 34C44.6 34.3 44.8 34.6 44.9 35.1C44.9 35.2 45.1 35.3 45.2 35.3C46.2 35 46.9 34.1 46.7 33C46.7 32.7 46.6 32.5 46.5 32.3C46.2 31.5 46.3 31.2 46.9 30.6C47.7 29.8 48.6 29.1 49.6 28.6C49.5 28.6 49.4 28.5 49.3 28.5C49.6 28.8 49.7 29.2 49.6 29.6C49.6 29.9 50.1 29.9 50.1 29.6C50.1 29.1 50 28.7 49.7 28.3C49.6 28.2 49.5 28.1 49.4 28.2C48.2 28.8 46.5 29.9 45.8 31.2C45.6 31.7 45.7 31.9 45.9 32.4C46.1 32.9 46.3 33.2 46.2 33.8C46 34.4 45.6 34.7 45.1 34.9C45.2 35 45.3 35 45.4 35.1C45.3 34.6 45.1 34.2 44.7 33.8C44.6 33.7 44.4 33.7 44.3 33.8C42.9 35.4 41.1 36.6 39 37.1C38.8 37.2 38.8 37.5 39 37.6C40.3 37.8 40.9 36.1 40.8 35.1C40.8 33.8 39.5 33.4 38.6 34.2C37.1 35.4 38.2 37.5 37.6 39C37 40.6 35.5 41.6 35.2 43.3C35.2 43.5 35.4 43.6 35.6 43.5C36.5 43 37.8 41.9 37.9 40.7C37.9 40.1 37.4 39.6 36.8 40C36.9 40.1 37 40.3 37.1 40.4C37.7 39.8 37.2 39 36.4 39C35.3 39.1 34.7 40.5 34.4 41.4C34 42.8 34.2 44.4 33.4 45.7C32.7 46.9 31.6 47.7 31.5 49.1C31.5 49.3 31.7 49.4 31.8 49.3C33.4 49.1 34.5 47.7 34.5 46.1C34.5 45.9 34.3 45.8 34.2 45.9C32.9 46.1 31.8 46.7 30.9 47.5C31 47.6 31.1 47.7 31.3 47.9C32.3 46.9 32.4 45.4 31.4 44.3C31.3 44.2 31.1 44.2 31 44.4C30.4 45.7 30.1 47.1 30.1 48.5C29.9 48.5 30.4 48.5 30.4 48.2Z" fill="black"/>
<path d="M38.9 0.699989C38.8 1.59999 38.8 2.89999 37.8 3.39999C37.3 3.59999 36.8 3.59999 36.4 3.19999C36.2 2.99999 36.2 2.69999 35.9 2.59999C35 2.29999 34.6 4.19999 34.9 4.79999C35.2 5.29999 35.6 5.19999 36.1 5.19999C36.4 5.19999 36.9 5.09999 37.1 5.29999C38.1 6.09999 36.6 6.09999 36.5 6.19999C36.1 6.19999 35.7 6.19999 35.3 6.19999C34.2 6.19999 33.2 6.79999 33.4 7.99999C33.4 8.49999 33.6 8.99999 34 9.19999C34.2 9.39999 34.4 9.39999 34.7 9.49999C34.9 9.49999 35.1 9.49999 35.2 9.59999C35.9 9.89999 35.8 10.5 35.3 10.8C34.8 11.1 34 10.7 33.5 11.2C33.2 11.5 33.3 12 33.6 12.2C34.2 12.5 34.3 11.9 34.5 11.5C34.7 11.1 34.9 10.7 35.1 10.3C35.2 9.99999 35.4 9.19999 35.7 10.1C35.8 10.3 35.7 10.7 35.7 10.9C35.6 11.7 35.1 12.4 34.5 12.9C33.9 13.4 32.9 13.4 32.5 14C31.7 15 33.1 16 34 15.4C34.2 15.2 34.4 15 34.5 14.8C34.6 14.7 34.6 14.5 34.6 14.4C34.6 14.2 34.6 14.1 34.7 13.9C35.1 13.5 35.4 13.5 35.5 14C36 15.2 34.9 16.7 34.1 17.5C33.9 17.7 34.2 18.1 34.5 17.9C35.4 17 36.6 15.2 36.1 13.8C35.9 13.4 35.5 13 35 13.1C34.3 13.2 34.3 13.8 34.1 14.4C33.7 15.9 33.6 13.7 33.1 14.2C33.2 14.1 33.6 14 33.8 13.9C34.1 13.8 34.3 13.6 34.6 13.5C35.2 13.1 35.6 12.5 35.9 11.8C36.1 11.3 36.6 8.89999 35.3 9.09999C34.7 9.19999 34.4 10.5 34.2 11C34.2 11.1 33.9 11.6 33.9 11.6C33.8 11.5 34.8 11.5 34.9 11.5C35.2 11.5 35.4 11.5 35.6 11.3C36.4 10.7 36.1 9.49999 35.2 9.19999C34.7 9.09999 34.2 9.19999 33.9 8.69999C33.7 8.29999 33.6 7.79999 33.8 7.39999C34.4 6.49999 35.8 6.89999 36.6 6.79999C37.1 6.69999 37.6 6.69999 37.7 6.09999C37.7 5.59999 37.4 4.99999 36.9 4.79999C36.6 4.69999 36.4 4.79999 36 4.79999C35.9 4.79999 35.8 4.79999 35.8 4.89999C35.2 4.59999 35 4.29999 35.2 3.89999C35.3 3.69999 35.3 3.59999 35.4 3.39999C35.5 3.29999 35.6 3.29999 35.7 3.49999C35.9 3.69999 36 3.89999 36.3 4.09999C36.5 4.19999 36.7 4.19999 37 4.19999C38.8 4.19999 39.1 2.19999 39.2 0.799989C39.4 0.399989 38.9 0.399989 38.9 0.699989Z" fill="black"/>
<path d="M25.6 76.2C25.3 74.7 25.3 73.2 25.6 71.8C25.7 71.3 26.3 70.2 26.8 71.1C27.1 71.8 27.2 72.5 27.2 73.3C27.2 73.6 27.6 73.6 27.7 73.4C28 72.5 28.4 71.7 29 70.9C29.3 70.6 29.6 70.2 30 69.9C30.2 69.7 31 68.9 31.4 69.2C31.8 69.6 31.4 70.3 31.2 70.7C30.9 71.1 30.6 71.5 30.2 71.9C29.5 72.6 28.6 73.2 27.7 73.7C27.4 73.9 27.7 74.3 28 74.1C29.2 73.5 30.2 72.7 31.1 71.7C31.7 71 32.7 69.7 31.7 68.8C31.2 68.4 30.7 68.8 30.3 69.1C29.9 69.4 29.4 69.8 29.1 70.2C28.3 71.1 27.7 72.1 27.3 73.2C27.5 73.2 27.6 73.2 27.8 73.3C27.8 72.5 27.7 71.4 27.2 70.7C26.7 70.1 26 70.3 25.6 70.9C25.1 71.6 25 72.6 24.9 73.4C24.8 74.4 24.9 75.4 25.1 76.4C25.2 76.7 25.7 76.5 25.6 76.2Z" fill="black"/>
<path d="M30.9 68C30.3 66.5 29.7 64.3 31.4 63.3C31.7 63.1 32.1 63 32.4 63.1C33 63.2 32.8 63.7 32.7 64.2C32.4 65 32 65.8 31.5 66.5C30.9 67.3 30.3 68.1 29.6 68.8C29.4 69 29.7 69.4 30 69.2C30.7 68.4 31.4 67.6 32 66.8C32.6 66 33.1 65 33.3 64C33.5 63 32.5 62.6 31.6 62.8C30.8 63 30.1 63.8 29.9 64.6C29.5 65.8 30 67.2 30.4 68.3C30.6 68.5 31.1 68.3 30.9 68Z" fill="black"/>
<path d="M32.7 62.8C32.7 61.8 32.8 60.8 32.9 59.9C33 59.2 33.1 58.4 33.5 57.8C33.7 57.6 33.9 57.4 34.3 57.3C34.7 57.3 35.1 57.5 35.5 57.6C35.7 57.6 35.9 57.6 36 57.6C36.2 57.6 36.4 57.4 36.4 57.7C36.4 58.1 36.1 58.4 35.9 58.7C35.4 59.5 34.7 60.3 34 61C33.8 61.2 34.1 61.6 34.4 61.4C35.2 60.7 35.8 59.9 36.4 59C36.6 58.6 36.9 58.2 36.9 57.8C36.9 57.4 36.7 57.1 36.3 57.1C36.1 57.1 35.9 57.2 35.6 57.2C35.3 57.2 35.1 57.1 34.8 57C34.4 56.9 34 56.9 33.6 57.1C32.9 57.5 32.6 58.3 32.5 59C32.3 60.3 32.2 61.6 32.2 63C32.2 63.2 32.7 63.2 32.7 62.8Z" fill="black"/>
<path d="M35.3 56.2C34.6 54.4 34.5 52.5 34.9 50.7C34.8 50.7 34.6 50.8 34.5 50.8C35.2 51.6 36.1 52.7 35.4 53.7C35.2 54 35.7 54.2 35.8 54C36.6 52.7 35.6 51.4 34.8 50.5C34.7 50.4 34.4 50.4 34.4 50.6C34 52.5 34.1 54.5 34.8 56.4C35 56.6 35.4 56.5 35.3 56.2Z" fill="black"/>
<path d="M36.1 49.2C36.2 48.2 36.3 47.1 36.6 46.1C36.8 45.5 37.1 44.6 37.9 44.7C38.2 44.7 38.2 44.2 37.9 44.2C37 44.1 36.5 45 36.2 45.7C36 46.2 35.9 46.8 35.8 47.3C35.7 47.9 35.6 48.5 35.6 49.2C35.6 49.5 36.1 49.5 36.1 49.2Z" fill="black"/>
<path d="M35.4 37.3C35.9 36.8 36.3 36.2 36.6 35.5C36.9 34.9 37.1 34.2 36.8 33.6C36.6 33.1 36 32.8 35.4 33C35.2 33.1 35 33.3 34.9 33.5C34.9 33.6 34.8 33.7 34.8 33.9C34.8 34.1 34.9 34.2 35.1 34.3C35.8 34.7 36.5 35 37.3 35.3C37.6 35.4 37.7 34.9 37.4 34.8C36.6 34.6 35.9 34.3 35.2 33.8L35.3 33.9C35.2 33.6 35.6 33.3 35.9 33.4C36.3 33.5 36.5 33.9 36.5 34.3C36.5 34.8 36.3 35.2 36 35.7C35.7 36.1 35.5 36.6 35.1 37C34.8 37.2 35.1 37.6 35.4 37.3Z" fill="black"/>
<path d="M34.5 26.5C34.9 25.8 35.5 25.2 35.6 24.4C35.7 23.8 35.5 23.1 35 22.7C34.6 22.3 33.9 22.3 33.5 22.7C33 23.1 33 23.9 33 24.5C33.2 24.5 33.3 24.5 33.5 24.4C33.4 23.5 33.2 22.7 33.1 21.8C33 21.4 33 21 32.9 20.6C32.8 20.2 32.7 19.7 33 19.4C33.2 19.2 33.5 19.1 33.8 19C33.9 19 34.1 18.9 34.2 18.9C34.5 18.8 34.6 19.1 34.6 19.4C34.7 20.3 34.5 21.2 34.3 22C34.2 22.3 34.7 22.4 34.8 22.1C35.1 21.1 35.4 19.9 35.1 18.9C34.9 18 33.6 18.5 33.1 18.7C32.8 18.9 32.5 19.1 32.4 19.4C32.2 19.8 32.4 20.3 32.4 20.8C32.6 22 32.8 23.2 33 24.5C33 24.8 33.5 24.7 33.5 24.4C33.5 24 33.5 23.5 33.8 23.1C34.2 22.6 34.7 22.8 35 23.3C35.6 24.3 34.6 25.4 34.1 26.2C33.9 26.5 34.4 26.8 34.5 26.5Z" fill="black"/>
</g>
<defs>
<clipPath id="clip0">
<rect width="50.9" height="181.8" fill="white"/>
</clipPath>
</defs>
</svg>
