<svg xmlns="http://www.w3.org/2000/svg" viewBox="0 0 65.02 127.74"><defs><style>.cls-1{fill:#c6ecac;}.cls-2{fill:#ffcb43;}</style></defs><g id="Ebene_2" data-name="Ebene 2"><g id="Ebene_1-2" data-name="Ebene 1"><path class="cls-1" d="M55.53,32.88c-5,4.13-10.15,8.53-13.09,14.43-3.28,6.58-2.57,14.14-4.89,21-2.17,6.45-6,12-10.11,17.32a26.26,26.26,0,0,0-4.86,8.83,22.78,22.78,0,0,0-.48,7.81c-3.58-5.59-3.75-12.5-2.86-19,.56-4,1.46-7.92,2.14-11.88A119.85,119.85,0,0,0,22.83,59.1c.42-6.64.83-14-1.79-20.31a17.37,17.37,0,0,0-2.55-4.34,8.8,8.8,0,0,0-4.07-3.15,3.25,3.25,0,0,0-1.11-.09A15.6,15.6,0,0,0,11.57,30a2.31,2.31,0,0,0-2.82.3l-.66-1.07C6.34,26.57,2,29.07,3.77,31.78A43.57,43.57,0,0,1,9.85,46.47a65.79,65.79,0,0,1,1,16.34c-.23,5.63-.84,11.23-1.3,16.84s-1,11.21-.18,16.68,5,11.31,11.16,10.66a3.09,3.09,0,0,0,1.95-1,18,18,0,0,0,.67,3c-1.48.39-2.63,1.94-1.54,3.56a31,31,0,0,1,4.78,11.56c.47,2.44,4.27,2.32,4.82,0a74.65,74.65,0,0,1,4-12.22,5.93,5.93,0,0,0,.37-.89,2.54,2.54,0,0,0-1.91-3.07,140.87,140.87,0,0,0,8.89-12.65c2.82-4.57,5.73-9.44,6.52-14.83.82-5.64-.79-11.09-1.68-16.61a21.66,21.66,0,0,1,2.33-14.58c2.77-4.78,7.24-8.34,9.68-13.35A2.51,2.51,0,0,0,55.53,32.88ZM43.06,67.33c.42,2.17.88,4.34,1.13,6.53a2.24,2.24,0,0,0-3.39,0c-.06.06-.11.13-.16.19a47.29,47.29,0,0,0,2-5.2C42.8,68.35,42.92,67.84,43.06,67.33ZM30.81,109.67h0l0,0Zm-2.21,5,.24,0c0,.09-.07.18-.1.26C28.7,114.89,28.65,114.79,28.6,114.69Zm.33-22.41a75.25,75.25,0,0,1,5-6.88c-.68,1.67-1.28,3.38-1.79,5.11-.86,2.9-1.5,5.86-2.07,8.83-.19,1-.38,2.18-.7,3.32-.09.25-.16.49-.24.74A6.13,6.13,0,0,1,27.46,106a32.84,32.84,0,0,1-.47-5.35A14.82,14.82,0,0,1,28.93,92.28ZM16.82,68.08c-.77,4.86-1.8,9.68-2.48,14.57.13-1.64.27-3.27.41-4.9.27-3.09.56-6.2.79-9.31A2.57,2.57,0,0,0,16.82,68.08ZM42.54,85c.6-1.79,1.13-3.6,1.62-5.43A22.8,22.8,0,0,1,42.54,85Z"/><path class="cls-2" d="M40.66,39.74c-.71-2.65-2.54-4.64-3.83-7a30.6,30.6,0,0,1-2.25-6.94,20.46,20.46,0,0,0-3.32-7.65c-1.94-2.47-5.52-3.55-8-1.11A2.3,2.3,0,0,0,23,20.16c-2.27,1.51-3.58,5.11-4.13,7.58a18,18,0,0,0,.41,9.47,2.6,2.6,0,0,0,1,1.28A55.41,55.41,0,0,0,22,53.05a2.26,2.26,0,0,0,1.26,1.48l1,6.81C22.38,64.09,22,68,21.35,71.09q-2.62,12.12-4.59,24.36a2.53,2.53,0,0,0,1.45,3,2.49,2.49,0,0,0,3.12-1,45,45,0,0,0,3.81-10.5,2.53,2.53,0,0,0,3.17-.2,15.28,15.28,0,0,0,3.45-5.43,73.59,73.59,0,0,0,5.56-12.43,12.48,12.48,0,0,0,3.77-8.55,26.19,26.19,0,0,0-.44-6.3c.25-2,.42-4.08.48-6.13A28.2,28.2,0,0,0,40.66,39.74ZM33.28,60.92l0,0,0,0A.11.11,0,0,1,33.28,60.92Zm-.22-8.17c.16.83.32,1.67.49,2.51-.58.22-1.17.46-1.75.72C32.25,54.91,32.67,53.83,33.06,52.75ZM25.38,33.83c.24.79.49,1.57.77,2.34a2.73,2.73,0,0,0,.73,1.12c-.35.72-.69,1.43-1,2.14A21,21,0,0,0,25,36.94a1.62,1.62,0,0,0-.46-.61C24.84,35.51,25.13,34.67,25.38,33.83ZM30.11,42l.6-1.24c.12.59.24,1.19.35,1.78C30.11,45.76,29.14,49,28,52.16c-.13-.94-.27-1.88-.4-2.82A37.11,37.11,0,0,1,30.11,42ZM28.4,75.25c-.08.32-.15.64-.23,1,0-.31.09-.62.13-.94Zm-2,5.32c.13-.82.25-1.63.36-2.45a2.23,2.23,0,0,0,1.21-1.05c-.17.61-.36,1.22-.58,1.82S26.7,80,26.36,80.57Z"/></g><g id="Striche"><path d="M26.94,124.34c.12,1.19.33,2.68,1.57,3.22a1.84,1.84,0,0,0,1.54,0,2.07,2.07,0,0,0,.88-1.59,19.63,19.63,0,0,0,.33-2.64c0-.32-.48-.32-.5,0a19.11,19.11,0,0,1-.22,2c-.06.32-.12.65-.19,1a1.45,1.45,0,0,1-.35.7,1.18,1.18,0,0,1-1.16.15,1.75,1.75,0,0,1-1-1,6,6,0,0,1-.4-1.86c0-.32-.53-.32-.5,0Z"/><path d="M64.78,33.2c-6.1.76-12.68,1.85-17.22,6.39-4.22,4.23-4,9.84-4.51,15.33a.17.17,0,0,0-.14,0A4.34,4.34,0,0,0,41,53.66a2.41,2.41,0,0,0,.62-.81,4.23,4.23,0,0,0,.52-1.94,2.27,2.27,0,0,0-.5-1.67,2.58,2.58,0,0,0-1.7-.56h-.16a3.37,3.37,0,0,0,1.52-2.12,4.15,4.15,0,0,0,.15-2,1.44,1.44,0,0,0-1.22-1,6.46,6.46,0,0,0-2.36,0,5.45,5.45,0,0,0,.86-1.45c.58-1.38.81-3.11-.27-4.32a3.31,3.31,0,0,0-2.5-.9.24.24,0,0,0-.22-.06,3.9,3.9,0,0,1-1.89,0,3.35,3.35,0,0,0,3.22-2,2,2,0,0,0,0-2,3,3,0,0,0-1.48-1.18,3.9,3.9,0,0,0-2.91,0l-.45-.08a1.79,1.79,0,0,0,.59-.16,2.19,2.19,0,0,0,1.1-1.27,5.68,5.68,0,0,0-.23-3.94.9.9,0,0,0-.38-.41,1.52,1.52,0,0,0,.65-1.06,2,2,0,0,0-1.11-1.89,2.62,2.62,0,0,0-.87-.24l.07,0a1.06,1.06,0,0,0,.57-1.12A5.68,5.68,0,0,0,32,20a4.45,4.45,0,0,0-.86-1.21A2.77,2.77,0,0,0,28.61,18l-.12,0a2.06,2.06,0,0,0-.89-1c.18-1.34.37-2.68.55-4a37.74,37.74,0,0,0,.54-4.22c0-2.33-1.78-3.86-3.5-5.12-.26-.19-.51.24-.25.43a10.85,10.85,0,0,1,2.47,2.26,4.36,4.36,0,0,1,.72,3.18c-.28,2.42-.66,4.84-1,7.26a7,7,0,0,0-2.22-.66c.34-3.21,1.43-6.42,0-9.54A10,10,0,0,0,23.5,4.28l0-.44c0-.28-.35-.3-.46-.09A29.91,29.91,0,0,0,18.81.05c-.26-.2-.51.24-.25.43a26.43,26.43,0,0,1,4.43,4q-.27,5.11-.55,10.21c0,.32.49.32.5,0q.27-4.8.52-9.62a9.44,9.44,0,0,1,1.05,1.79c1.33,3,.25,6.15-.09,9.24a6.07,6.07,0,0,0-1.28.05,2.62,2.62,0,0,0-2.32,2.18,1.89,1.89,0,0,0,.25,1.16c-.07.15-.12.3-.19.44a22.89,22.89,0,0,0-2.34-8.28,9.16,9.16,0,0,0-5.66-4.53c-.31-.07-.44.41-.13.48,5.74,1.35,7,8,7.72,12.89a.17.17,0,0,0,.11.16,12.33,12.33,0,0,0-.36,1.18,4.42,4.42,0,0,0-.1,2.25,2,2,0,0,0,.26.53.86.86,0,0,0-.78.82.22.22,0,0,0,.14.21,2.52,2.52,0,0,0,0,2.24A2.21,2.21,0,0,0,22,29.09a1,1,0,0,0,.5-.28,2.35,2.35,0,0,1,1.14.82,2,2,0,0,1,.27,1.18A10.32,10.32,0,0,0,23.73,32c-.07.42-.15.84-.25,1.25a3.51,3.51,0,0,1-1.21,2.26,3.77,3.77,0,0,0-.58,0,.18.18,0,0,0-.16.17c-1.14,0-1.26-1.5-1.32-2.35a16,16,0,0,1,.28-4.47c.07-.31-.41-.44-.48-.13a16.28,16.28,0,0,0-.26,5.07,4.09,4.09,0,0,0,.09.58c-2.45-3.11-5.66-5.83-9.61-6.65A10.53,10.53,0,0,0,.07,31a.25.25,0,0,0,.3.39c3.2-1.35,6.16,1.38,7.27,4.18,1,2.58,1.28,5.49,1.71,8.22a182.21,182.21,0,0,1,2.11,19.78,142.4,142.4,0,0,1-.64,19c-.53,5.92-1.48,12.14.19,18,1.33,4.63,4.64,8.93,9.46,10.17l0,.06a.24.24,0,0,0,.13.36c0,.06,0,.12.07.18.11.3.6.17.48-.13l0-.09c2.79-.48,5.6-1.09,8.42-1.33a13.34,13.34,0,0,1,3.28.06l-1.68.91c-.28.15,0,.58.25.43L33.57,110l.31.07a2.07,2.07,0,0,1,1.65,1.53,7.31,7.31,0,0,1,.07,2.19c-.09,1-.25,1.71-1.3,2a14.55,14.55,0,0,1-2.07.4,24.88,24.88,0,0,1-4.56.26,17,17,0,0,1-4.5-.55c-.94-.3-1-1.18-1.15-2s-.33-1.54-.46-2.32c0-.31-.54-.18-.48.14.12.72.27,1.45.43,2.17a7.16,7.16,0,0,0,.5,1.81,1.75,1.75,0,0,0,1.2.78,13.08,13.08,0,0,0,.25,4.54,5.75,5.75,0,0,0,.69,2,2.38,2.38,0,0,0,1.6.74,10.34,10.34,0,0,0,4.49-.32,4.22,4.22,0,0,0,3.05-2c.68-1.42.59-3.22.71-4.76a.21.21,0,0,0-.21-.23c.87-.17,1.76-.41,2.08-1.33a7.14,7.14,0,0,0,.14-3.64,2.65,2.65,0,0,0-1.79-1.85,27.43,27.43,0,0,0,4.34-3,17.34,17.34,0,0,0,4.6-6.75c2.34-5.85,3.2-12.2,3.89-18.42a53.69,53.69,0,0,0,.64-9.8c-.24-3.15-1.54-6.07-2-9.17A25.54,25.54,0,0,1,64.85,33.69C65.11,33.62,65.07,33.16,64.78,33.2ZM33.5,116.65c-.07.89-.13,1.77-.22,2.65a4.9,4.9,0,0,1-.57,2.13c-.82,1.35-2.88,1.67-4.32,1.85a8.1,8.1,0,0,1-2.69,0,2.19,2.19,0,0,1-1.05-.41,3.13,3.13,0,0,1-.55-1.31,12.88,12.88,0,0,1-.4-4.94c.47.08.94.11,1.3.16a26.06,26.06,0,0,0,8.36-.22l.31-.06A.22.22,0,0,0,33.5,116.65ZM20.44,96.49l0,0a2.24,2.24,0,0,1-2-1.23,2.33,2.33,0,0,1,.38-2.48,7.85,7.85,0,0,1,1.07-1.09,1.34,1.34,0,0,0,.4.06.24.24,0,0,0,.15-.43,3.27,3.27,0,0,1,.31-.17,5.55,5.55,0,0,1,2.59.09c-.25.33-.51.65-.74,1A20.24,20.24,0,0,0,20.44,96.49Zm3.19-5.73s0,0,0,0a10.65,10.65,0,0,0-2.7-.18,2.94,2.94,0,0,0-1.11.54,2.5,2.5,0,0,1-.6-.52,4.26,4.26,0,0,1-.7-1.08,4.41,4.41,0,0,1-.35-1.19,1.72,1.72,0,0,1,.16-1.26,2.79,2.79,0,0,1,1-.74,3.26,3.26,0,0,1,1.31-.46c.51,0,.74.41,1,.76l.89,1.17a2,2,0,0,1,.55,1.28,1.25,1.25,0,0,1-.63,1,.25.25,0,0,0,.25.43,1.78,1.78,0,0,0,.65-2.41,13.63,13.63,0,0,0-1.11-1.51l-.29-.4a3.81,3.81,0,0,1,3.3-3,3,3,0,0,1,2.43.37,1.15,1.15,0,0,1,.11,1.84.26.26,0,0,0,.15.47C26.46,87.48,25,89.05,23.63,90.76Zm-.26-12.87s0,0-.08,0c-1.08,0-2.46,0-3.17-.95s-.48-2.34-.32-3.35a7.51,7.51,0,0,1,.48-1.68,1.23,1.23,0,0,1,.49-.67,2.08,2.08,0,0,1,.93-.13,7.23,7.23,0,0,1,1.79.2c.56.14,1.3.38,1.31,1.08a.22.22,0,0,0,.11.19C23.7,74,22.48,76.05,23.37,77.89ZM21.86,53a2,2,0,0,0,.23.06,5.49,5.49,0,0,0,3.31-.7,5.29,5.29,0,0,0,1.71-1.06A2.23,2.23,0,0,0,27.64,50a4.56,4.56,0,0,0,.75.18l1.52.18a12,12,0,0,0-1.41,1c-.41.32-.83.63-1.22,1a2,2,0,0,0-.66,1,2.2,2.2,0,0,0,.95,2.07,4.28,4.28,0,0,0,.42.26s0,0,0,.07c.6,1.37-1.3,2.14-2.26,2.45a6.32,6.32,0,0,1-3.82.16,3.88,3.88,0,0,1-1.51-.87,1.73,1.73,0,0,1-.54-.79A2.05,2.05,0,0,1,20,55.58,5.17,5.17,0,0,1,21.86,53Zm-.06-.58-.07,0a2.42,2.42,0,0,1-.4-.19,2.85,2.85,0,0,1-1.1-2.91c.07-1,.16-2.89,1.47-3.06a.29.29,0,0,0,.23-.25,3.16,3.16,0,0,0,1.28-.24,5,5,0,0,0,1.46-1.17,3.78,3.78,0,0,1,.8-.55,3.57,3.57,0,0,1,1.38,2.18c-.5.24-1.1.57-1.09,1.18a3.22,3.22,0,0,0,.71,1.75,2.12,2.12,0,0,0,.68.56c0,1.35-1.36,1.88-2.42,2.35a4.61,4.61,0,0,1-2.58.45A.23.23,0,0,0,21.8,52.39Zm.05-11.85a4,4,0,0,0,3-1.28,3,3,0,0,0,.43-.56,4.81,4.81,0,0,0,.36.68,4.41,4.41,0,0,0,2.12,1.67,1.87,1.87,0,0,0-.62.66,2.78,2.78,0,0,0-2-2.11.25.25,0,0,0-.14.48,2.19,2.19,0,0,1,1.7,2.16c0,.67-.58,1-1.13,1.26a.23.23,0,0,0-.26.12,4.2,4.2,0,0,0-.63.38c-.39.3-.69.72-1.08,1a2.53,2.53,0,0,1-1.49.51,2.15,2.15,0,0,1-1.44-.46A2.35,2.35,0,0,1,20,43.54a4.74,4.74,0,0,1,.89-3.18A3.66,3.66,0,0,0,21.85,40.54Zm3.68-3.08a1.59,1.59,0,0,1,.07-.2,2.68,2.68,0,0,1,.62-.68,5,5,0,0,1,1.51-1,3.21,3.21,0,0,1,.66-.17,4,4,0,0,0,.5,0l.78,0a3.07,3.07,0,0,1,1.68.47,2.28,2.28,0,0,1,.59,1.54,3,3,0,0,1-1.38,2.9l0,.06h-.16a10.76,10.76,0,0,0-1.95.34,3.82,3.82,0,0,1-2-1.12,3.56,3.56,0,0,1-.82-1.37,2.29,2.29,0,0,1-.07-.28.24.24,0,0,0,0-.08A1.17,1.17,0,0,0,25.53,37.46Zm-1.17-6.71c0-.19.07-.39.09-.58a2.22,2.22,0,0,1,1.18-.79,3.83,3.83,0,0,0,.75.05,4.13,4.13,0,0,0,1.21-.24h.18a5.16,5.16,0,0,1,2,.4,1.92,1.92,0,0,1,.28.18c0,.11,0,.23,0,.34a2.07,2.07,0,0,0,.63,1.2,5.74,5.74,0,0,1-.37,1.84c-.23.63-.55,1.48-1.25,1.68a1.2,1.2,0,0,1-.2,0,4.48,4.48,0,0,0-.63.06,8.94,8.94,0,0,1-1.4-.16A4.5,4.5,0,0,1,25,34.08a2.13,2.13,0,0,1-.8-1.86A10.49,10.49,0,0,0,24.36,31,1.77,1.77,0,0,0,24.36,30.75Zm1.13-5.89s0,0,.05-.06a2.38,2.38,0,0,0,1.75-.24.87.87,0,0,0,.11-.09,7,7,0,0,1,1.37,0,1,1,0,0,1,1,1,2.84,2.84,0,0,1-.33,1.43,3.54,3.54,0,0,1-1.93,1.74,5.9,5.9,0,0,0-1.92.2,1.54,1.54,0,0,1-1.38-1,3.21,3.21,0,0,1,.33-1.82A2,2,0,0,1,25.49,24.86Zm4.76.78a1.94,1.94,0,0,0,.54.45l-.16.16a3.48,3.48,0,0,0-.52,1.66c0,.41-.07.84-.07,1.26a5,5,0,0,0-1.47-.4h-.12a4.14,4.14,0,0,0,1.18-1.18A3.81,3.81,0,0,0,30.25,25.64Zm4.56,19c-.18.12-.37.22-.54.35a2,2,0,0,0-.62,1.72A3.5,3.5,0,0,0,35,49.85a3.4,3.4,0,0,0-1.43,1.89.26.26,0,0,0-.24.36,3.89,3.89,0,0,1,.16.44s0,0,0,0a1.86,1.86,0,0,0,.09.47,4.7,4.7,0,0,1,0,.75,3.72,3.72,0,0,1-.19.8,2.87,2.87,0,0,1-.18.4,1.18,1.18,0,0,1-.11.19s-.1.13-.06.15a.23.23,0,0,0-.3.17.26.26,0,0,0,.17.31c.39.16.65-.39.79-.67A3.86,3.86,0,0,0,34,54.07a1,1,0,0,0,0-.17,2,2,0,0,0,.89.57,2.49,2.49,0,0,0-.86.59,2.82,2.82,0,0,0-.54,1.52,1.73,1.73,0,0,0-1.07-.87,6.11,6.11,0,0,0-1.54-.17,3,3,0,0,0-1.19.2A4.61,4.61,0,0,1,27.89,55a1.94,1.94,0,0,1-.78-1.14,1.27,1.27,0,0,1,.53-1.21c.4-.35.84-.67,1.26-1a10.28,10.28,0,0,1,1.26-.9,3,3,0,0,1,.71-.31l.36,0a.19.19,0,0,0,.22-.15,1.74,1.74,0,0,1,.32,0,1.37,1.37,0,0,0-.2.13c-.26.2.1.55.35.35a2.05,2.05,0,0,1,.47-.29,1.29,1.29,0,0,1,.34.25c.14.15.32,0,.39-.1l.36.3a.27.27,0,0,0,.18.07.26.26,0,0,0,.17-.07.25.25,0,0,0,.08-.18.3.3,0,0,0-.08-.18l-.58-.47a.35.35,0,0,0-.14-.06,1.11,1.11,0,0,0,.28-.29,2.73,2.73,0,0,0,.23-1.93A4.93,4.93,0,0,0,33,45.8a1.45,1.45,0,0,0-1.32-.44,3.47,3.47,0,0,0,1.37-1.61,4,4,0,0,0,.17-.59A3.27,3.27,0,0,0,34.81,44.65ZM37,59.47a4.17,4.17,0,0,0,1.6-.38l.26.11a17.19,17.19,0,0,1,1.92,1,1.15,1.15,0,0,1,.64.83,2.88,2.88,0,0,1-.16,1A8.82,8.82,0,0,1,40.71,64a3.36,3.36,0,0,1-1.63,1.29,6.23,6.23,0,0,1-2.06.67,3,3,0,0,1-2-.32c-.6-.39-.53-1.17-.4-1.78a11.36,11.36,0,0,1,1.87-4.22.21.21,0,0,0,0-.15Zm0-.51a1.36,1.36,0,0,1,.86-.11l0,0A3.27,3.27,0,0,1,36.92,59Zm0,7.73c.12.27-.33.5-.5.59a1.8,1.8,0,0,0-.71.54s0,.05,0,.08a1.6,1.6,0,0,0-.58-.77,2,2,0,0,0-1.39-.28,2.38,2.38,0,0,0,.77-1.16s.08.12.13.17a3,3,0,0,0,2.07.58l.31,0A.24.24,0,0,0,36.9,66.69Zm-1.37,3.86a2.77,2.77,0,0,1-2.86,2.16c-.33,0-.33.48,0,.5l.4,0-.32.19,0,0a4.82,4.82,0,0,1-2.55-1.57,1.23,1.23,0,0,1-.43-.73,1.1,1.1,0,0,1,0-.18,2,2,0,0,0,.08-.26,3.47,3.47,0,0,1,.27-.46,11.31,11.31,0,0,1,1.12-1.46,6,6,0,0,1,.64-.58H32a.26.26,0,0,0,.29-.3,2.91,2.91,0,0,1,2-.49c.72.13.88.69,1,1.31a.57.57,0,0,1,0,.14,2.49,2.49,0,0,0,.11.78.52.52,0,0,0,.06.13A2.76,2.76,0,0,1,35.53,70.55Zm-6.24.25,0,.1a1.6,1.6,0,0,1-1.29.8A4.87,4.87,0,0,1,24.5,71a2.1,2.1,0,0,1-.85-2.85c.18-.31.4-.61.6-.92a.22.22,0,0,0,.2-.16,2.34,2.34,0,0,0,0-.26,2.08,2.08,0,0,0,.23-.78A5.91,5.91,0,0,0,26,65.56a7.71,7.71,0,0,0,2.23-1.49c0,.18-.07.35-.1.52a3.33,3.33,0,0,0,.11,1.85c.51,1.19,1.78,1.46,3,1.63A9,9,0,0,0,30,69.52v-.06a.25.25,0,0,0-.5,0,5.14,5.14,0,0,1-.1,1A1.6,1.6,0,0,0,29.29,70.8Zm1.26-7.72a.19.19,0,0,0,.16-.19,6.68,6.68,0,0,1,1.08-.15,7.51,7.51,0,0,1,.82,0,1,1,0,0,1,.86.3A3.24,3.24,0,0,1,34,64.5c.17,1.17-.53,2.45-1.85,2.28-.32,0-.32.46,0,.5h.14a4.83,4.83,0,0,0-.59.35,4.37,4.37,0,0,1-2.62-.85,1.82,1.82,0,0,1-.54-1.4,5.18,5.18,0,0,1,.24-1.51c.17-.49.63-.66,1.09-.8A1.72,1.72,0,0,0,30.55,63.08Zm3.7.36a1.17,1.17,0,0,1,0-.11,2,2,0,0,0-.47-.73.31.31,0,0,0,.21-.06,5.23,5.23,0,0,0,.94-1A9.85,9.85,0,0,0,34.25,63.44Zm1.18-3.06a4,4,0,0,0,.16-.45.25.25,0,0,0-.48-.14,4.58,4.58,0,0,1-1.52,2.39.24.24,0,0,0,0,.3,1.19,1.19,0,0,0-.63-.23,8,8,0,0,0-2.18.11c-.3.06-.62.12-.93.21a2.36,2.36,0,0,1-1.42-2,5.35,5.35,0,0,1,.33-3.28,2.59,2.59,0,0,1,1-1h0l.76.14a.27.27,0,0,0,.29-.36,4.69,4.69,0,0,1,.53,0,2.77,2.77,0,0,1,1.36.31,1.87,1.87,0,0,1,.66,1.5.25.25,0,0,0,.24.22,1.43,1.43,0,0,0,.69.84,4.68,4.68,0,0,0,1.21.36l.56.09C35.84,59.7,35.63,60,35.43,60.38Zm-8-11a2.21,2.21,0,0,1-1-1.31c-.1-.27-.26-.63-.07-.89a1.66,1.66,0,0,1,.63-.42.29.29,0,0,0,.18.07.25.25,0,0,0,.25-.25h0a8.86,8.86,0,0,1,3.13-.66l.82,0a3.42,3.42,0,0,1,1,0c.32.1.39.41.49.7a8.28,8.28,0,0,1,.25,1c.11.58.29,1.48-.13,2a1.76,1.76,0,0,1-.56.41,2.59,2.59,0,0,0-1.46-.1l-.11,0-1.55-.18A5.52,5.52,0,0,1,27.45,49.36Zm-.58-6.31a2.17,2.17,0,0,0,0,.25,3.16,3.16,0,0,0,2.56,2.2,8.92,8.92,0,0,0-2.16.56,4.07,4.07,0,0,0-1.38-2.24A2.46,2.46,0,0,0,26.87,43.05Zm5.82.24a3,3,0,0,1-2.35,2.11h0l-.24,0c.07-.13.06-.3-.13-.33a3.14,3.14,0,0,1-2.41-1.48,1.67,1.67,0,0,1,.65-2.28,1.84,1.84,0,0,1,.25-.09,3.7,3.7,0,0,0,.81.07.23.23,0,0,0,.22-.31l.35,0a15.75,15.75,0,0,1,1.83-.16,1,1,0,0,1,.71.16s0,.07.07.1a11.12,11.12,0,0,0,.33,1.08A3.19,3.19,0,0,1,32.69,43.29Zm-.6-4c0,.35.11.7.18,1a2.55,2.55,0,0,0-.78-.06h-.1A3.29,3.29,0,0,0,32.09,39.32Zm.35-1.65a4.15,4.15,0,0,0-.11-1,4.23,4.23,0,0,0,1.16.54A3,3,0,0,0,32.44,37.67ZM27,58.18a2.34,2.34,0,0,0,1.51-2.28,5.89,5.89,0,0,0,.59.21,3.45,3.45,0,0,0-1.23,2.15,6.33,6.33,0,0,0,.21,3.26,2.68,2.68,0,0,0,1.06,1.3,3.54,3.54,0,0,0-.33.19h0l0-.06c.06-.31-.42-.45-.49-.13-.23,1.15-1.59,1.78-2.53,2.27a5.38,5.38,0,0,1-1.3.48.23.23,0,0,0-.25,0,3.3,3.3,0,0,1-2-.31,3.57,3.57,0,0,1-1.93-2.77A8.31,8.31,0,0,1,21,58.48,7,7,0,0,0,27,58.18Zm-4.72,8a2.74,2.74,0,0,1,1.14,0,.71.71,0,0,1,.51.55c-.24.45-.59.85-.82,1.28a2.41,2.41,0,0,0,.22,2.61,1.36,1.36,0,0,1,.12.12l-.39-.08-.58-.07c.15-.14.1-.44-.15-.42A1.81,1.81,0,0,1,20.65,69a5.39,5.39,0,0,1-.35-1,1.28,1.28,0,0,1-.07-.67,1,1,0,0,1,.27-.44A2.89,2.89,0,0,1,22.32,66.16Zm1.3,9.74a7.64,7.64,0,0,1,1.93-3.36.25.25,0,0,0-.28-.39,1.7,1.7,0,0,0,0-.22,6.36,6.36,0,0,0,.62.19,4.87,4.87,0,0,0,3-.17,1.66,1.66,0,0,0,.51-.38A4.74,4.74,0,0,0,31,73.16a4.25,4.25,0,0,0,1.2.61c-.2.14-.4.26-.59.4a4.81,4.81,0,0,0-.94.86,2.79,2.79,0,0,0-.29,2.26,1.09,1.09,0,0,1-.17.13,10.71,10.71,0,0,1-1.7.75c-1.11.48-2.33,1.35-3.55.7A2.76,2.76,0,0,1,23.62,75.9Zm7.14.79a3.42,3.42,0,0,1,0-.64A.84.84,0,0,1,30.76,76.69Zm-4.48,2.89A6,6,0,0,0,27.92,79c.59-.29,1.19-.52,1.8-.77a4.6,4.6,0,0,0,.76-.4,2.65,2.65,0,0,0,.36.78,8.29,8.29,0,0,0-2.13.57,3.09,3.09,0,0,0-1.78,1.36,3.14,3.14,0,0,0-.1,2.18,3.89,3.89,0,0,0-1-.08,5.69,5.69,0,0,0-2.21.6,8.93,8.93,0,0,0,.72-1.09,4.57,4.57,0,0,0,.61-2,1.25,1.25,0,0,0-.24-.8A2.64,2.64,0,0,0,26.28,79.58Zm-1.8.75a4.68,4.68,0,0,1-.67,1.8,40,40,0,0,1-2.65,3.31s0,0,0,0a1.48,1.48,0,0,0-.86,0,3.77,3.77,0,0,1,.06-5.74,3.3,3.3,0,0,1,3.15-.61,2.33,2.33,0,0,1,.75.43A.89.89,0,0,1,24.48,80.33Zm3.95,3.36a2.15,2.15,0,0,0-1.07-.84s0,0,0,0a2.81,2.81,0,0,1,0-2,2.55,2.55,0,0,1,1.44-1.11,8.56,8.56,0,0,1,1.89-.57c.18,0,.42-.07.67-.09a1,1,0,0,0,.21.08.22.22,0,0,0,.21-.07.71.71,0,0,1,.7.53.22.22,0,0,0,.31.15,50.62,50.62,0,0,1-4,5.29l-.19.21A1.63,1.63,0,0,0,28.43,83.69Zm3.06-5.17a1.58,1.58,0,0,1-.61-1.07,1.91,1.91,0,0,0,.24-.32,1.44,1.44,0,0,0,0-1.51.22.22,0,0,0-.17-.11,3,3,0,0,1,.91-.9c.31-.24.65-.49,1-.72a1.42,1.42,0,0,0,.29,0,.26.26,0,0,0,.23-.32,6,6,0,0,1,.81-.38c.68-.23,1.69-.22,2,.58a.24.24,0,0,0,.25.15c-.45.78-.91,1.55-1.38,2.32-.67,1.08-1.37,2.15-2.08,3.21,0,0,0,0,0-.06C32.8,78.72,32.12,78.52,31.49,78.52Zm5.12-4.93a1.77,1.77,0,0,0-1.49-1,2.55,2.55,0,0,0-.39,0A3,3,0,0,0,36,70.48a2.24,2.24,0,0,0,1.88.69C37.5,72,37.06,72.79,36.61,73.59Zm1.61-3a1.74,1.74,0,0,1-2.15-1q0-.3-.09-.6c0-.08,0-.18-.07-.27a1.79,1.79,0,0,1,.11-.51,1.18,1.18,0,0,1,.63-.53c.48-.24.94-.7.68-1.27,0,0,0,0-.07-.06A6.85,6.85,0,0,0,39,65.81a5.19,5.19,0,0,0,1.8-1.19A52.7,52.7,0,0,1,38.22,70.59ZM41.48,60.1a3.91,3.91,0,0,0-1.09-.7l-1.21-.58.31-.14a29.82,29.82,0,0,0,3-1.39,1.74,1.74,0,0,0,.26-.19c0,.12,0,.24,0,.36a36.86,36.86,0,0,1-.88,3.91A1.52,1.52,0,0,0,41.48,60.1Zm1.22-4.69a.18.18,0,0,0,.09.08,1.38,1.38,0,0,1,0,.92,1.66,1.66,0,0,1-.83.64l-2,.91c-.43.19-.86.41-1.3.6a2.33,2.33,0,0,0-2,0,.23.23,0,0,0,0,.39,10.54,10.54,0,0,1-1.25-.22c-.78-.17-1.31-.48-1.34-1.34a3.6,3.6,0,0,1,.4-1.91c.42-.61,1.42-.83,2.08-1a9.72,9.72,0,0,1,2.27-.52A4.45,4.45,0,0,1,42.7,55.41Zm-1.4-5.78a2.44,2.44,0,0,1,.24,1.93c-.07.32-.55,1.92-1.07,1.73a.22.22,0,0,0-.3.17,5.88,5.88,0,0,0-1-.07,9.6,9.6,0,0,0-2.9.59l-.1,0a.26.26,0,0,0-.27-.06,1.32,1.32,0,0,1-1.67-.63A2,2,0,0,1,34,53a2.47,2.47,0,0,0-.06-.29,2,2,0,0,1,.11-1,3,3,0,0,1,1.47-1.57l.15,0a.27.27,0,0,0,.3-.26,7.41,7.41,0,0,1,1.26-.41,10.77,10.77,0,0,1,2.19-.28A2.54,2.54,0,0,1,41.3,49.63Zm-.61-5.36c.43.38.29,1.1.22,1.6-.19,1.18-.85,2.55-2.21,2.64a.25.25,0,0,0-.23.22,8.5,8.5,0,0,0-3,.81h0a2.48,2.48,0,0,1-1.32-2.36,2.33,2.33,0,0,1,.29-1.67,3.79,3.79,0,0,1,1-.68,3.08,3.08,0,0,0,1.68-.63,7.88,7.88,0,0,1,2-.26A2.59,2.59,0,0,1,40.69,44.27Zm-2.26-2.86A5.14,5.14,0,0,1,37,43.72,9.37,9.37,0,0,0,36,44c-.28.12-.56.25-.83.39a.23.23,0,0,0-.15-.18,3.33,3.33,0,0,1-1.79-2.17.92.92,0,0,0,0-.16,2.88,2.88,0,0,0-.35-1,11.79,11.79,0,0,1-.35-1.77c0-.3-.13-.72.09-1a2,2,0,0,1,1-.41,7.68,7.68,0,0,1,2.18-.33,3.35,3.35,0,0,1,1.94.41C38.89,38.6,38.83,40.23,38.43,41.41Zm-3.81-9.56c1,.18,2.38.94,2.16,2.16a3.22,3.22,0,0,1-1.15,1.72,2.13,2.13,0,0,1-1.84.56.25.25,0,0,0-.23.42,3.88,3.88,0,0,1-1.23-.63,2.29,2.29,0,0,1-.72-3,2.39,2.39,0,0,1,1.11-1l.75.06c.2,0,.26-.18.21-.33A3,3,0,0,1,34.62,31.85Zm-3,.45A2.7,2.7,0,0,0,31,35.16,3.32,3.32,0,0,0,30.4,35l-.5-.07a3.47,3.47,0,0,0,.74-1.12,6.86,6.86,0,0,0,.58-2.14A2.82,2.82,0,0,0,32,32,4.14,4.14,0,0,0,31.57,32.3Zm2-4.77a5.93,5.93,0,0,1,0,1.63,2.44,2.44,0,0,1-.67,1.52,1.21,1.21,0,0,1-1.4.19.21.21,0,0,0-.26,0,2.13,2.13,0,0,0-.65-1.38l0,0c0-.22,0-.44,0-.64a7.57,7.57,0,0,1,.17-1.58,1.57,1.57,0,0,1,.63-1,1.36,1.36,0,0,0,.6,0,.21.21,0,0,0,.16-.17h.1a1.53,1.53,0,0,1,.77.06,1.06,1.06,0,0,1,.36.63A5.08,5.08,0,0,1,33.54,27.53Zm-.14-3.22a1,1,0,0,1-1,1.17.2.2,0,0,0-.19.07h0a2.82,2.82,0,0,0-.87.19,1.24,1.24,0,0,1-.8-.63,1.88,1.88,0,0,1,.08-1.74c.34-.51,1.2-.43,1.71-.27A1.56,1.56,0,0,1,33.4,24.31Zm-2.91-5.45a4.37,4.37,0,0,1,1.34,2c.14.35.42.83.07,1.14s-.91.21-1.34.13-.45.41-.13.48l.32.06a1.14,1.14,0,0,0-.37.21,2,2,0,0,0-.56,1.61l-.07-.09A2.53,2.53,0,0,0,28,23.94a3.09,3.09,0,0,0,.77-1.82,1.67,1.67,0,0,0-.64-1.4,8.8,8.8,0,0,1-1.3-.89c-.22-.24-.57.11-.36.35.51.56,1.52.72,1.75,1.5A2.4,2.4,0,0,1,27.29,24L27.2,24a16.87,16.87,0,0,0-1.71.27,2.46,2.46,0,0,1-.38-.14,2.8,2.8,0,0,1-1.44-1.78,5,5,0,0,1,.14-2.75,24.94,24.94,0,0,1,4-.31.29.29,0,0,0,.32.14,5,5,0,0,0,.38.72,4.45,4.45,0,0,0,2.35,1.76c.31.09.44-.39.14-.49a3.84,3.84,0,0,1-1.72-1.1,3.55,3.55,0,0,1-.58-.85s0-.12-.08-.17h.12c.32,0,.32-.49,0-.5h-.15a1.53,1.53,0,0,0,0-.3A2.08,2.08,0,0,1,30.49,18.86Zm-8-2a3.93,3.93,0,0,1,1.9-.29l0,.3c0,.32.48.32.5,0l0-.26a8.43,8.43,0,0,1,.9.19,6.22,6.22,0,0,1,1.29.52v.05c0,.29.34.41.45.19h0a1.49,1.49,0,0,1,.53.68h0a.6.6,0,0,0-.14.56,25.3,25.3,0,0,0-2.89.13c-.35,0-.7.1-1,.15a.25.25,0,0,0-.48-.06.65.65,0,0,1,0,.13l-.16,0-.89.17a2.88,2.88,0,0,1-.4.09.46.46,0,0,1-.49-.27A1.74,1.74,0,0,1,22.47,16.84Zm-1.84,5.42a11,11,0,0,1,.82-2.43c.5.27,1.22,0,1.74-.13l.08,0q-.07.3-.12.6a.18.18,0,0,0-.14.16,24.53,24.53,0,0,1-.6,2.83A4.05,4.05,0,0,1,22,24.49a.51.51,0,0,1-.29.2,6,6,0,0,0-.61-.12L21,24.5C20.35,24,20.49,23,20.63,22.26Zm-.38,5.43a2,2,0,0,1,.09-2.18.22.22,0,0,0-.14-.35.88.88,0,0,1,.64-.13,1.15,1.15,0,0,0,.73.2l.14,0,.1,0a1.49,1.49,0,0,1,.67.4,1.12,1.12,0,0,1,.13,1c-.07.4-.09.81-.18,1.21a1.77,1.77,0,0,1-.15.42l-.17-.06c-.37-.1-1.09-.29-1.4,0A2,2,0,0,1,20.25,27.69Zm.94.83a1.82,1.82,0,0,1,.61.08A1.08,1.08,0,0,1,21.19,28.52Zm1.56-.12a7.05,7.05,0,0,0,.35-1.7,1.72,1.72,0,0,0-.16-1.28,1.79,1.79,0,0,0-.67-.52,3.17,3.17,0,0,0,.53-1.2c.14-.47.26-.95.37-1.43a3.2,3.2,0,0,0,1.52,2.19.24.24,0,0,0,0,.39,2.92,2.92,0,0,0-.53.84,4.87,4.87,0,0,0-.5,1.9,1.7,1.7,0,0,0,1.2,1.57,2.92,2.92,0,0,0-.4.29.27.27,0,0,0-.37.05,2.26,2.26,0,0,0-.25-.38A2.85,2.85,0,0,0,22.75,28.4ZM24,33.49a2.22,2.22,0,0,0,.54.81,4.31,4.31,0,0,0,2.14.93l.51.09a5.46,5.46,0,0,0-.94.62,4.15,4.15,0,0,0-.93.94,2.52,2.52,0,0,0-.3-.35,3.77,3.77,0,0,0-2-.94A4.81,4.81,0,0,0,24,33.49ZM11,98.39C9.86,92,11.13,85.33,11.63,79c1-13-.22-25.88-2.35-38.73-.45-2.75-1-5.85-3.09-7.87a5.79,5.79,0,0,0-5.09-1.7,10.18,10.18,0,0,1,9.34-2.29c3.88.93,7,3.71,9.35,6.82a.27.27,0,0,0,.32.08,1.52,1.52,0,0,0,1.59,1,1.85,1.85,0,0,0,.73-.24,3.51,3.51,0,0,1,1.78.55,1.84,1.84,0,0,1,.81.91v0A2.48,2.48,0,0,0,25,38a1.88,1.88,0,0,1-.4.75A3.7,3.7,0,0,1,22.41,40a3,3,0,0,1-1.35-.12.23.23,0,0,0-.29-.13A1.31,1.31,0,0,1,20.1,39a2.12,2.12,0,0,1,1-2.33.25.25,0,0,0-.25-.43,2.63,2.63,0,0,0-1.31,2.48,1.74,1.74,0,0,0,.76,1.34l.17.1a5.19,5.19,0,0,0-.95,3.22A3.41,3.41,0,0,0,20,45.14a2.17,2.17,0,0,0,1.2.78A2.63,2.63,0,0,0,19.88,48a6.62,6.62,0,0,0,0,3.25,2.65,2.65,0,0,0,1.37,1.49,5.66,5.66,0,0,0-1.59,2.1,3.42,3.42,0,0,0-.36,1.68,2.19,2.19,0,0,0,.81,1.33,4.14,4.14,0,0,0,.48.34s-.06,0-.07.07A8.36,8.36,0,0,0,19.91,63,4,4,0,0,0,22,65.69a5.17,5.17,0,0,0-.82.2,2.09,2.09,0,0,0-1.44,1.36,2.67,2.67,0,0,0,.18,1.21,4.66,4.66,0,0,0,.44,1.06,2.49,2.49,0,0,0,1.23,1.06H21.3a1.47,1.47,0,0,0-1.19.55,6.46,6.46,0,0,0-.9,3.25,4,4,0,0,0,.65,3c.86,1,2.24,1,3.43,1a.23.23,0,0,0,.23-.2,1.58,1.58,0,0,0,.15.24,3.76,3.76,0,0,0,.25.31c-2.37-1.14-5.1.86-5.43,3.3a4.27,4.27,0,0,0,1.24,3.57l-.12,0a5.42,5.42,0,0,0-1.45.85c-.83.71-.62,2-.28,2.89a4.76,4.76,0,0,0,.88,1.51,3.3,3.3,0,0,0,.61.57l-.37.36a4,4,0,0,0-1.27,2,2.74,2.74,0,0,0,.52,2.11,2.66,2.66,0,0,0,.72.62,2.45,2.45,0,0,0-1,1.79,1.7,1.7,0,0,0,1.25,2,.25.25,0,1,0,.13-.48,1.24,1.24,0,0,1-.88-1.52,1.82,1.82,0,0,1,1-1.52s0,0,0,0a3.08,3.08,0,0,0,.79.16,21.21,21.21,0,0,0,0,13.16C15.05,108.6,12,103.49,11,98.39ZM45,56.23a26.07,26.07,0,0,0,.62,8.44c.38,1.59.93,3.15,1.27,4.76a20.63,20.63,0,0,1,.32,5.49,100.61,100.61,0,0,1-2.92,19.91c-.94,3.52-2.14,7.23-4.62,10a23.54,23.54,0,0,1-6.08,4.58,12.09,12.09,0,0,0-3.17-.2A70.51,70.51,0,0,0,21,110.62a20.55,20.55,0,0,1,1.6-17.47c1.65-2.74,4-5,6.11-7.33a56.5,56.5,0,0,0,5.61-7.45,61.34,61.34,0,0,0,8-16.75,41.94,41.94,0,0,0,1.37-8.91c.21-3.39.36-6.93,2.07-10C49,36.94,55.71,35.06,62,34.09A26.31,26.31,0,0,0,45,56.23Z"/><path d="M21.85,16.2A33.17,33.17,0,0,0,19.58,5.86c-.11-.3-.6-.17-.48.13A32.92,32.92,0,0,1,21.35,16.2C21.37,16.52,21.87,16.53,21.85,16.2Z"/></g></g></svg>