<svg width="65" height="128" viewBox="0 0 65 128" fill="none" xmlns="http://www.w3.org/2000/svg">
<g clip-path="url(#clip0)">
<path d="M3.8 31.8C6.7 36.3 8.8 41.2 9.9 46.5C11 51.9 11.2 57.4 10.9 62.8C10.7 68.4 10 74 9.6 79.7C9.2 85.2 8.6 90.9 9.4 96.4C10.2 101.8 14.4 107.7 20.6 107.1C22.3 106.9 24 105 22.8 103.3C18.6 97.6 18.4 90.2 19.3 83.4C19.9 79.4 20.8 75.5 21.4 71.5C22.1 67.4 22.6 63.3 22.8 59.1C23.2 52.5 23.6 45.1 21 38.8C20.3 37.2 19.5 35.8 18.4 34.5C17.4 33.3 15.9 31.8 14.3 31.3C12.5 30.8 10.8 31.9 10.1 33.6C9.4 35.3 9.8 36.9 10.2 38.6C12.2 47.6 13.1 56.8 12.8 66C12.7 68.8 17 69.4 17.7 66.7C18.5 63.2 19.2 59.6 19.6 56C20 52.6 20.4 49.1 20.1 45.6C19.6 39.4 17 33.2 11.4 30C8.6 28.4 6.1 32.7 8.9 34.3C13.4 36.9 15 42.1 15.2 47C15.4 53.1 14.3 59.4 12.9 65.3C14.5 65.5 16.2 65.7 17.8 66C18 58.3 17.5 50.6 16.2 43C15.9 41.2 15.5 39.4 15.1 37.6C14.9 36.9 14.8 36.4 14.8 35.9V35.8C14.8 35.5 14.8 35.4 14.8 35.6C14.6 35.6 13.4 37.3 13.2 36.4C13.3 36.8 14.4 37.5 14.7 37.9C15 38.3 15.3 38.7 15.5 39.1C16.2 40.3 16.7 41.6 17.1 43C17.8 45.6 18 48.3 18 50.9C18 54.7 17.9 58.4 17.5 62.2C16.8 69.7 14.9 76.9 14 84.3C13.1 91.7 13.7 99.8 18.3 106C19 104.7 19.7 103.5 20.5 102.2C15.9 102.7 14.3 97.5 14 93.9C13.7 88.6 14.2 83.2 14.6 78C15.5 67.2 16.8 56.3 14.6 45.6C13.4 39.9 11.1 34.4 8 29.5C6.3 26.6 2 29.1 3.8 31.8Z" fill="#C6ECAC"/>
<path d="M21.6 112.5C24 116 25.6 119.9 26.4 124.1C26.9 126.5 30.7 126.4 31.2 124.1C32.2 119.8 33.6 115.6 35.3 111.6C33.8 111 32.3 110.3 30.7 109.7C30.7 109.7 30.7 109.6 30.8 109.6C30.6 109.9 30.6 109.9 30.8 109.7C30.8 109.7 30.9 109.7 30.9 109.6C30.7 109.7 30.6 109.8 30.7 109.7C31 109.7 30.2 109.8 30.3 109.8C30.7 109.7 29.9 109.8 29.9 109.8C30.2 109.8 29.1 109.5 29.3 109.6C29 109.4 28.7 109.1 28.4 108.6C27.1 106.4 27.1 103.1 27 100.6C26.9 97.6 27.4 94.8 28.9 92.2C30.4 89.6 32.4 87.3 34.1 84.9C37.7 80 40.7 74.6 42.6 68.7C43.6 65.6 44 62.4 44.4 59.1C44.8 56.1 45.1 53 46.4 50.2C49.1 44.4 54.2 40.2 59 36.3C57.7 35.3 56.4 34.3 55.1 33.3C53 37.7 49.3 41 46.5 44.9C43.5 49.3 41.9 54.6 42 59.9C42.2 65.2 44 70.3 44.3 75.6C44.6 81 42.4 85.6 39.7 90.2C36.6 95.5 33.1 100.6 29.2 105.4C30.6 106 32 106.6 33.5 107.2C33.4 104.6 34.7 102.3 36 100C37.3 97.5 38.6 95 39.7 92.4C42 87.1 43.8 81.7 45 76.1C45.5 73.8 42.6 71.7 40.8 73.7C36.6 78.5 33.9 84.3 32.1 90.3C31.2 93.2 30.6 96.2 30 99.1C29.6 101.3 29.2 104.5 27.2 106C26.1 106.8 25.6 108.2 26.3 109.4C26.9 110.5 28.6 111.1 29.7 110.3C34.8 106.4 34.8 99.3 36.3 93.6C37.9 87.7 40.2 81.8 44.3 77.2C42.9 76.4 41.5 75.6 40.1 74.8C38.8 80.4 37.1 85.9 34.7 91.2C33.6 93.8 32.2 96.2 30.9 98.7C29.5 101.4 28.3 104.2 28.4 107.2C28.4 109.2 31.2 110.8 32.7 109C36.2 104.6 39.6 99.9 42.5 95.1C45.3 90.5 48.2 85.7 49 80.3C49.8 74.7 48.2 69.2 47.3 63.7C46.5 58.7 47 53.6 49.6 49.1C52.4 44.3 56.8 40.8 59.3 35.8C60.6 33.2 57.6 30.9 55.4 32.8C50.4 36.9 45.3 41.3 42.3 47.2C39 53.8 39.7 61.3 37.4 68.2C35.2 74.6 31.4 80.2 27.3 85.5C25.3 88.2 23.3 91 22.4 94.3C21.4 98 21.8 101.9 22.3 105.7C22.8 109.2 24 113 27.7 114.3C30.8 115.4 34.4 114.1 35.4 110.8C36.2 108.2 32 106.2 30.8 108.9C28.9 113.3 27.3 117.9 26.2 122.6C27.8 122.6 29.4 122.6 31 122.6C30.1 118 28.3 113.7 25.7 109.8C24.2 107.4 19.8 109.9 21.6 112.5Z" fill="#C6ECAC"/>
<path d="M21.6 23.2C21.9 27.3 21.3 31.5 19.6 35.3C21.1 35.5 22.6 35.7 24.2 35.9C23.5 34 23.3 32 23.6 30C23.7 29.1 24 28.1 24.3 27.2C24.6 26.3 25.3 25.5 25.6 24.6C25.7 24.4 25.8 24.3 25.9 24.2C25.5 24.3 25 24.3 24.6 24.3C24.6 24.3 24.9 25.1 24.9 25C25.3 26.1 25.6 27.3 25.8 28.5C26.2 30.8 26.3 33.2 26.1 35.5C27.7 35.3 29.4 35.1 31 34.8C30.2 32.5 29.5 30.1 29 27.6C28.8 26.4 28.6 25.3 28.5 24.1C28.4 23.2 28.1 21.5 28.3 20.9C28.1 21.3 27.9 21.6 27.7 22C27.8 21.9 27.8 21.9 27.9 21.8C27.5 22 27.2 22.2 26.8 22.4C26.4 22.3 26 22.3 25.6 22.2C25.7 22.3 25.7 22.3 25.8 22.4C25.9 22.7 26.3 23.1 26.4 23.3C26.8 23.8 27.1 24.4 27.4 24.9C28 25.9 28.5 27 28.8 28.2C29.4 30.7 28.8 33.1 27.8 35.3C26.7 37.9 25.3 40.3 24.3 43C23.3 45.8 22.5 48.6 22.1 51.5C23.7 51.5 25.3 51.5 26.9 51.5C25.8 47.1 25.3 42.6 25.4 38C23.8 38.4 22.3 38.8 20.7 39.3C22.1 42.5 22.2 46.4 22.7 49.8C23.2 53.7 23.8 57.5 24.3 61.4C24.6 63.6 27.9 63.7 28.9 62C32.3 56.2 34.2 49.7 36.1 43.3C34.5 43.3 32.9 43.3 31.3 43.3C32.7 48.4 33.5 53.5 34.3 58.7C35.9 58.3 37.5 57.8 39.1 57.4C37.7 50.1 36.3 42.8 34.8 35.5C33.3 36.1 31.8 36.8 30.2 37.4C31.6 39.8 32.8 42.4 33.7 45.1C34.1 46.4 34.5 47.8 34.8 49.2C34.9 49.7 35.4 51.1 34.9 51.6C36.2 51.8 37.5 51.9 38.8 52.1C37.3 50 36.3 47.6 36 45C34.6 45.6 33.2 46.2 31.7 46.8C35 50.3 36.1 55.3 36 59.9C35.9 62.4 35 64.2 33.1 65.8C31 67.7 28.7 69.2 26.3 70.7C27.6 71.4 28.8 72.1 30.1 72.9C29.5 67.7 29.3 62.6 29.3 57.4C29.3 54.2 24.4 54.2 24.3 57.4C24.2 63.4 24.1 69.4 23.2 75.3C24.7 75.1 26.2 74.9 27.8 74.7C27.5 74 27.2 73.4 26.9 72.7C26.4 71.7 25.1 71.3 24.1 71.6C23 71.9 22.4 72.9 22.3 74C21.4 81.2 20.4 88.5 17 95C18.5 95.6 20 96.3 21.6 96.9C22.8 89.4 24.2 81.9 25.8 74.5C26.2 72.7 26.6 70.8 27 69C27.3 67.5 27.5 65.6 28.4 64.3C29.3 63.1 30.8 62.4 32 61.7C33.5 60.8 35.1 60.1 36.8 59.5C35.7 58.7 34.7 57.9 33.6 57.1C33.5 62.6 31.8 67.9 28.8 72.5C30.3 72.7 31.8 72.9 33.4 73.1C32.9 69.9 33.2 66.7 34.2 63.6C32.6 63.4 30.9 63.2 29.3 62.9C29.7 66.6 29.5 70.2 28.8 73.8C28.1 76.9 27.2 81 24.8 83.2C26.1 84.2 27.4 85.2 28.7 86.2C34.8 77.3 38.8 66.9 40.4 56.2C40.8 53.4 41.1 50.6 41.2 47.8C41.3 45.2 41.4 42.3 40.7 39.7C40 37 38.2 35.1 36.9 32.7C35.7 30.6 35.3 28.1 34.7 25.8C34 23.1 33.1 20.4 31.4 18.2C29.5 15.7 25.9 14.7 23.4 17.1C21.1 19.4 24.6 22.9 26.9 20.6C26.7 20.8 27.2 20.9 27.4 21.2C28 21.9 28.5 22.9 28.8 23.8C29.6 25.8 30 27.9 30.5 29.9C31.1 32.2 31.9 34.4 33.2 36.4C34.3 38.2 35.8 39.9 36.1 42C36.4 44.3 36.3 46.8 36.2 49.2C36.1 51.5 35.9 53.8 35.5 56C34.7 60.7 33.5 65.3 31.9 69.7C30 74.7 27.5 79.4 24.5 83.7C22.9 86.1 26.4 88.6 28.4 86.7C31.4 83.9 32.7 79.4 33.6 75.5C34.5 71.3 34.8 67 34.4 62.8C34.1 60.1 30.4 59.3 29.5 62.1C28.2 66 28 70.2 28.7 74.2C29.1 76.5 32.2 76.4 33.3 74.8C36.8 69.5 38.6 63.3 38.8 56.9C38.8 55.4 37.2 54 35.6 54.5C32.1 55.7 28.2 57.4 25.5 60C22.6 62.7 22.3 67.4 21.5 71.1C19.7 79.2 18.2 87.3 16.9 95.5C16.7 96.7 17.1 98 18.3 98.4C19.4 98.8 20.8 98.5 21.4 97.4C25.2 90.1 26.3 81.9 27.4 73.9C25.8 74.3 24.3 74.7 22.7 75.2C23 75.9 23.3 76.5 23.6 77.2C24.5 79.1 27.8 78.7 28.2 76.6C29.2 70.2 29.4 63.8 29.5 57.4C27.8 57.4 26.2 57.4 24.5 57.4C24.5 62.6 24.7 67.8 25.3 72.9C25.5 74.7 27.3 76.1 29.1 75.1C31.9 73.4 34.8 71.5 37.2 69.2C39.7 66.8 41 63.9 41.2 60.4C41.5 54.3 39.7 47.8 35.5 43.3C34.1 41.9 31 42.9 31.2 45.1C31.6 48.6 32.7 51.9 34.7 54.8C35.6 56.1 37.4 56.5 38.6 55.3C41.2 52.6 40 48.5 39 45.3C38 41.8 36.5 38.3 34.6 35.2C33.1 32.7 29.5 34.4 30 37.1C31.4 44.4 32.8 51.7 34.3 59C34.6 60.3 36.1 61.1 37.4 60.7C38.8 60.3 39.4 59 39.1 57.6C38.3 52.4 37.5 47.2 36.1 42.2C35.4 39.8 32 39.8 31.3 42.2C29.5 48.2 27.8 54.3 24.6 59.8C26.1 60 27.6 60.2 29.2 60.4C28.6 56.4 28.1 52.4 27.5 48.4C27 44.6 26.6 40.8 25.1 37.2C24.7 36.2 23.2 35.8 22.3 36.1C21.2 36.4 20.5 37.4 20.5 38.5C20.4 43.5 21 48.5 22.2 53.4C22.8 55.6 26.7 55.9 27 53.4C27.6 49.6 28.6 45.8 30.3 42.3C32 38.8 33.9 35.3 34.2 31.4C34.4 27.6 32.7 24 30.6 21C29.5 19.4 28 17.5 25.8 18.1C23.4 18.7 23.4 21 23.5 23C23.8 27.6 24.7 32.2 26.3 36.6C27.3 39.3 31 38.8 31.2 35.9C31.5 32.5 31.2 28.9 30.3 25.6C29.9 24.1 29.4 22.3 28.3 21.2C27.1 19.9 25.2 19.5 23.7 20.3C21.2 21.6 19.7 25.5 19.2 28.1C18.5 31.2 18.6 34.5 19.6 37.6C20.2 39.4 23.2 40.3 24.2 38.2C26.3 33.6 27.3 28.6 26.9 23.6C26.8 22.3 25.8 21.1 24.4 21.1C22.8 20.7 21.5 21.9 21.6 23.2Z" fill="#FFCB43"/>
<path d="M21.1 111.7C21.2 112.4 21.4 113.2 21.5 113.9C21.6 114.5 21.7 115.2 22 115.7C22.5 116.6 24.1 116.6 25 116.7C27.8 117.1 30.6 117 33.4 116.5C34.4 116.3 35.5 116.2 35.9 115.1C36.3 114 36.3 112.6 36 111.5C35.5 109.2 32.3 109.2 30.4 109.3C27.1 109.4 23.8 110.2 20.6 110.8C20.3 110.9 20.4 111.3 20.7 111.3C23.6 110.8 26.6 110.2 29.5 109.9C30.9 109.8 32.4 109.8 33.8 110.2C34.6 110.4 35.2 110.9 35.4 111.7C35.6 112.4 35.5 113.2 35.5 113.9C35.4 114.9 35.3 115.6 34.2 115.9C33.5 116.1 32.8 116.2 32.1 116.3C30.6 116.5 29.1 116.6 27.5 116.6C26 116.6 24.4 116.5 23 116C22.1 115.7 22 114.8 21.9 114C21.7 113.2 21.6 112.5 21.4 111.7C21.5 111.3 21 111.4 21.1 111.7Z" fill="black"/>
<path d="M23.2 116.4C23 117.9 23.1 119.5 23.4 121C23.6 121.6 23.7 122.4 24.1 123C24.5 123.5 25.1 123.6 25.7 123.7C27.2 124 28.7 123.8 30.2 123.4C31.4 123.1 32.7 122.6 33.2 121.4C33.9 120 33.8 118.2 33.9 116.6C33.9 116.3 33.4 116.3 33.4 116.6C33.3 117.5 33.3 118.4 33.2 119.3C33.1 120 33 120.8 32.6 121.4C31.8 122.8 29.7 123.1 28.3 123.3C27.4 123.4 26.5 123.4 25.6 123.2C25.2 123.1 24.8 123.1 24.6 122.8C24.3 122.5 24.2 121.9 24.1 121.5C23.6 119.8 23.5 118.1 23.7 116.4C23.8 116.1 23.2 116.1 23.2 116.4Z" fill="black"/>
<path d="M26.9 124.3C27 125.5 27.2 127 28.5 127.5C29 127.7 29.6 127.8 30 127.5C30.6 127.2 30.8 126.5 30.9 125.9C31.1 125 31.2 124.1 31.2 123.3C31.2 123 30.7 123 30.7 123.3C30.7 124 30.6 124.6 30.5 125.3C30.4 125.6 30.4 125.9 30.3 126.3C30.2 126.6 30.1 126.8 30 127C29.7 127.3 29.2 127.3 28.8 127.1C28.3 126.9 28 126.6 27.8 126.1C27.5 125.5 27.5 124.9 27.4 124.2C27.4 124 26.9 124 26.9 124.3Z" fill="black"/>
<path d="M21.2 111.2C18.9 105.4 19.3 98.6 22.6 93.2C24.3 90.5 26.6 88.2 28.7 85.9C30.8 83.6 32.6 81.1 34.3 78.5C37.7 73.3 40.7 67.7 42.4 61.7C43.2 58.8 43.6 55.8 43.8 52.8C44 49.4 44.2 45.9 45.9 42.8C49.7 36.1 58 34.6 64.9 33.7C64.9 33.5 64.9 33.4 64.8 33.2C54 35.9 46 45.2 45 56.2C44.7 59 44.9 61.9 45.6 64.6C46 66.2 46.5 67.8 46.9 69.4C47.3 71.2 47.3 73.1 47.2 74.9C46.8 81.5 46 88.4 44.3 94.8C43.4 98.3 42.2 102 39.7 104.8C37.4 107.4 34.2 109.1 31.2 110.7C30.9 110.9 31.2 111.3 31.5 111.1C34 109.8 36.5 108.4 38.6 106.5C40.7 104.7 42.2 102.3 43.2 99.8C45.5 93.9 46.4 87.6 47.1 81.4C47.5 78.2 48 74.9 47.7 71.6C47.5 68.5 46.2 65.5 45.7 62.4C44.7 56.2 46.1 49.7 49.5 44.5C53 39.1 58.6 35.2 64.9 33.6C65.2 33.5 65.1 33.1 64.8 33.1C58.7 34 52.1 35 47.6 39.6C42.7 44.5 43.8 51.2 42.8 57.5C41.7 64.3 38.7 70.5 35.1 76.3C33.2 79.4 31.2 82.3 28.8 85C26.7 87.4 24.4 89.6 22.6 92.2C18.9 97.8 18.3 105.1 20.7 111.3C20.8 111.6 21.3 111.5 21.2 111.2Z" fill="black"/>
<path d="M20.6 110.2C15.2 108.8 11.9 103.6 11 98.3C9.80001 91.9 11.1 85.2 11.6 78.9C12.6 65.9 11.4 53 9.30001 40.2C8.80001 37.5 8.30001 34.4 6.20001 32.3C4.60001 30.7 2.30001 30 0.100007 30.9C0.200007 31 0.300007 31.2 0.400007 31.3C2.80001 28.4 6.80001 27.5 10.4 28.3C14.3 29.2 17.4 32 19.8 35.1C20 35.4 20.4 35.1 20.2 34.8C17.7 31.5 14.4 28.5 10.2 27.7C6.60001 27 2.50001 28.1 0.100007 31C-0.0999931 31.2 0.100007 31.5 0.400007 31.4C3.60001 30 6.60001 32.8 7.70001 35.6C8.70001 38.2 9.00001 41.1 9.40001 43.8C10.4 50.4 11.2 57 11.5 63.6C11.8 70 11.4 76.3 10.9 82.6C10.4 88.5 9.40001 94.7 11.1 100.6C12.4 105.2 15.8 109.6 20.6 110.8C20.8 110.8 21 110.3 20.6 110.2Z" fill="black"/>
<path d="M43.1 55.2C42.2 54 40.6 53.4 39.1 53.4C38.1 53.4 37.1 53.7 36.2 54C35.5 54.2 34.5 54.5 34 55.1C33.5 55.7 33.4 56.6 33.4 57.3C33.4 58 33.6 58.6 34.2 59C34.6 59.2 35 59.3 35.4 59.4C35.9 59.5 36.4 59.6 36.8 59.6C37.7 59.6 38.5 59.2 39.3 58.8C40.3 58.4 41.4 58 42.3 57.4C43.4 56.8 43.4 56 43.1 55.2C43.1 54.8 42.6 54.9 42.7 55.2C42.8 55.6 42.9 56 42.7 56.4C42.5 56.7 42.2 56.9 41.9 57C41.2 57.3 40.5 57.6 39.9 57.9C39.2 58.2 38.5 58.6 37.8 58.8C37 59 36.2 58.8 35.4 58.7C34.6 58.5 34.1 58.2 34.1 57.4C34.1 56.8 34.2 56 34.5 55.5C34.9 54.9 35.9 54.7 36.6 54.4C37.3 54.2 38.1 53.9 38.9 53.9C40.4 53.8 42 54.2 42.9 55.4C42.9 55.7 43.3 55.4 43.1 55.2Z" fill="black"/>
<path d="M40.3 53.8C40.9 54 41.3 53.3 41.6 52.9C41.9 52.3 42.1 51.6 42.1 51C42.1 50.4 42 49.8 41.6 49.3C41.2 48.9 40.5 48.8 39.9 48.7C38.4 48.6 36.8 48.9 35.5 49.6C34.4 50.2 33.4 51.3 33.5 52.6C33.6 53.9 34.9 55 36.2 54.4C36.5 54.3 36.2 53.8 35.9 54C35.3 54.3 34.6 53.9 34.2 53.4C33.9 52.9 33.9 52.3 34.1 51.7C34.6 50.4 36 49.8 37.3 49.5C38 49.3 38.7 49.2 39.5 49.2C40.1 49.2 40.9 49.2 41.3 49.7C41.7 50.2 41.7 51.1 41.5 51.6C41.4 51.9 41 53.5 40.4 53.3C40.2 53.2 40 53.7 40.3 53.8Z" fill="black"/>
<path d="M35.8 49.6C34.6 49.4 34.2 48.2 34.1 47.1C34.1 46.6 34 45.8 34.4 45.4C34.8 45 35.3 44.8 35.8 44.5C36.8 44 38 43.8 39.1 43.8C39.6 43.8 40.3 43.8 40.6 44.1C41 44.5 40.9 45.2 40.8 45.7C40.6 46.9 40 48.2 38.6 48.3C38.3 48.3 38.3 48.8 38.6 48.8C39.9 48.7 40.8 47.6 41.2 46.4C41.4 45.8 41.5 45 41.4 44.4C41.3 43.8 40.8 43.5 40.2 43.4C38.8 43.1 37.3 43.4 36 43.9C35.4 44.1 34.8 44.5 34.2 44.9C33.6 45.3 33.6 45.9 33.6 46.6C33.6 48 34 49.8 35.7 50C36 50.2 36.2 49.7 35.8 49.6Z" fill="black"/>
<path d="M35.1 44.2C33.9 43.8 33.4 42.4 33.1 41.2C32.9 40.5 32.7 39.8 32.7 39C32.7 38.7 32.6 38.3 32.8 38C33 37.8 33.5 37.7 33.7 37.6C34.4 37.4 35.1 37.3 35.9 37.3C36.6 37.3 37.3 37.3 37.8 37.7C39 38.5 38.9 40.1 38.5 41.3C38 42.7 37.1 44.2 35.5 44.2C35.2 44.2 35.2 44.7 35.5 44.7C37.1 44.6 38.2 43.3 38.8 42C39.4 40.6 39.6 38.9 38.5 37.7C37.4 36.5 35.3 36.7 33.9 37.1C33.3 37.2 32.3 37.4 32.1 38.1C32 38.4 32.1 38.8 32.1 39.2C32.2 39.7 32.2 40.1 32.3 40.6C32.7 42.1 33.3 44.1 34.9 44.7C35.2 44.8 35.4 44.3 35.1 44.2Z" fill="black"/>
<path d="M35.7 36.7999C34.5 37.0999 33.3 36.7999 32.3 36.0999C31.4 35.3999 31 34.1999 31.6 33.0999C32.2 31.9999 33.5 31.6999 34.6 31.8999C35.6 32.0999 37 32.7999 36.8 34.0999C36.7 34.7999 36.2 35.3999 35.7 35.7999C35.2 36.1999 34.5 36.4999 33.9 36.3999C33.6 36.2999 33.5 36.7999 33.8 36.8999C35.2 37.1999 36.6 36.0999 37.2 34.8999C37.5 34.2999 37.6 33.4999 37.2 32.8999C36.9 32.2999 36.3 31.9999 35.7 31.6999C34.4 31.1999 32.7 31.2999 31.7 32.3999C30.8 33.3999 30.7 34.8999 31.6 35.9999C32.6 37.2999 34.4 37.7999 36 37.3999C36.2 37.1999 36 36.6999 35.7 36.7999Z" fill="black"/>
<path d="M33.5 31.6C32.5 31.5001 31.2 31.5 30.8 30.5C30.6 30 30.6 29.4 30.6 28.8C30.6 28.3 30.6 27.7001 30.8 27.2001C30.9 26.7001 31.1 26.3001 31.6 26.1C31.8 26 32.1 26 32.3 26C32.5 26 32.9 25.9 33.1 26.1C33.3 26.2 33.4 26.5001 33.5 26.7001C33.6 27.0001 33.7 27.2 33.7 27.5C33.8 28 33.8 28.6 33.7 29.1C33.6 29.6 33.5 30.2 33 30.6C32.6 30.9001 32.1 31.1 31.6 30.8C31.3 30.6 31.1 31.1001 31.3 31.2001C31.8 31.5001 32.3 31.5001 32.8 31.2001C33.3 31.0001 33.7 30.5 33.9 29.9C34.1 29.3 34.2 28.6 34.1 27.9C34.1 27.2 33.9 26.5 33.6 25.9C33.3 25.3 32.7 25.3 32.1 25.3C31.5 25.3 30.9 25.5 30.6 26C30.2 26.5 30.1 27.1001 30.1 27.7001C30 28.4001 30 29.2 30.1 29.9C30.2 30.6 30.6 31.1 31.2 31.4C31.9 31.8 32.7 31.8 33.5 31.9C33.8 32.2 33.8 31.7 33.5 31.6Z" fill="black"/>
<path d="M31.8 25.7C31.3 25.9 30.7 25.5 30.5 25.1C30.2 24.6 30.3 23.9 30.6 23.4C30.9 22.9 31.8 23 32.3 23.1C32.9 23.3 33.3 23.7 33.4 24.3C33.5 24.9 33 25.5 32.4 25.5C32.1 25.5 32.1 26 32.4 26C33.2 26.1 33.8 25.4 33.9 24.7C34 23.9 33.5 23.1 32.8 22.8C32.4 22.6 32 22.5 31.6 22.5C31.2 22.5 30.8 22.6 30.4 22.8C29.8 23.3 29.7 24.3 30 25C30.3 25.8 31.1 26.4 32 26.2C32.3 26.1 32.1 25.7 31.8 25.7Z" fill="black"/>
<path d="M30.9 21.4C30.2 21.2 29.6 20.8 29.2 20.3C29 20 28.8 19.8 28.6 19.5C28.5 19.3 28.5 19.2 28.4 19C28.3 18.8 28.2 18.6 28.4 18.5C29 18.2 29.9 18.4 30.4 18.8C31 19.3 31.4 20 31.7 20.8C31.8 21.2 32.1 21.6 31.8 21.9C31.4 22.2 30.9 22.1 30.5 22C30.2 21.9 30.1 22.4 30.4 22.5C30.9 22.6 31.5 22.7 32 22.4C32.4 22.2 32.7 21.8 32.6 21.3C32.5 20.8 32.3 20.3 32 19.9C31.8 19.5 31.5 19 31.1 18.7C30.5 18.1 29.5 17.7 28.6 17.9C28.4 18 28.2 18 28 18.2C27.8 18.4 27.8 18.7 27.9 18.9C28 19.3 28.2 19.7 28.5 20.1C29.1 20.9 29.9 21.6 30.9 21.9C31.1 22 31.3 21.5 30.9 21.4Z" fill="black"/>
<path d="M28.7 18.8C27.5 18.8 26.2 18.8 25 18.9C24.4 19 23.8 19 23.3 19.1C23 19.2 22.7 19.2 22.4 19.3C22.3 19.3 22.1 19.4 22 19.4C21.7 19.4 21.6 19.3 21.5 19.1C21 18.2 21.7 17.2 22.5 16.8C23.5 16.3 24.8 16.5 25.8 16.7C26.4 16.9 27 17.1 27.5 17.5C28 17.8 28.4 18.5 27.8 19C27.5 19.2 27.9 19.6 28.2 19.4C28.6 19.1 28.7 18.5 28.5 18C28.3 17.4 27.7 17 27.2 16.8C26 16.2 24.5 15.9 23.2 16.1C22.1 16.3 21 17.1 20.9 18.3C20.8 18.8 21 19.4 21.4 19.7C21.9 20.2 22.7 19.8 23.3 19.7C25.1 19.4 27 19.2 28.8 19.3C29 19.3 29 18.8 28.7 18.8Z" fill="black"/>
<path d="M23.5 19C22.8 20.9 22.8 23.4 24.8 24.5C25.6 24.9 26.5 25 27.3 24.5C28.1 24 28.7 23 28.8 22.1C28.8 21.5 28.6 21 28.2 20.7C27.8 20.4 27.3 20.2 26.9 19.8C26.7 19.6 26.3 19.9 26.5 20.2C27 20.8 28 20.9 28.2 21.7C28.4 22.5 27.9 23.5 27.3 24C26.7 24.5 25.8 24.5 25.1 24.2C24.4 23.8 23.9 23.2 23.7 22.4C23.4 21.3 23.6 20.2 24 19.2C24.1 18.9 23.6 18.7 23.5 19Z" fill="black"/>
<path d="M21.1 19.4C20.7 20.2 20.4 21 20.2 21.8C20 22.5 19.9 23.3 20.1 24.1C20.3 24.7 20.8 25.3 21.5 25.3C22.3 25.3 22.5 24.4 22.7 23.8C23 22.8 23.2 21.7 23.4 20.7C23.4 20.4 23 20.2 22.9 20.6C22.8 21.6 22.6 22.5 22.3 23.4C22.2 23.8 22.1 24.3 21.9 24.6C21.6 25 21.2 24.9 20.9 24.6C20.3 24.1 20.4 23.1 20.6 22.4C20.8 21.5 21.1 20.6 21.5 19.8C21.7 19.3 21.3 19.1 21.1 19.4Z" fill="black"/>
<path d="M25.2 24.4C24.7 24.6 24.3 25.1 24.1 25.7C23.9 26.3 23.6 27 23.6 27.6C23.6 29 25.2 29.5 26.3 29.4C27.6 29.4 28.8 28.7 29.6 27.6C30.2 26.7 30.6 25.2 29.7 24.4C29.1 23.9 28.1 24 27.4 24C26.5 24.1 25.6 24.3 24.7 24.4C24.4 24.5 24.5 24.9 24.8 24.9C26.1 24.6 27.4 24.3 28.7 24.5C29.3 24.6 29.6 24.9 29.7 25.5C29.7 26 29.6 26.5 29.4 26.9C28.9 27.9 28.1 28.6 27 28.8C26.1 29 24.4 28.9 24.2 27.9C24 27.3 24.3 26.6 24.5 26.1C24.7 25.6 25 25.1 25.5 24.9C25.8 24.7 25.5 24.3 25.2 24.4Z" fill="black"/>
<path d="M19.9 25.3C19.4 26.1 19.3 27.1 19.8 27.9C20.2 28.6 21.1 29.4 22 29.2C23 28.9 23 27.6 23.1 26.8C23.2 26.4 23.2 25.9 22.9 25.5C22.7 25.2 22.3 25 22 24.9C21.6 24.7 21.1 24.6 20.6 24.6C20.1 24.6 19.6 24.9 19.6 25.5C19.6 25.8 20.1 25.8 20.1 25.5C20.1 24.8 21.5 25.2 21.8 25.3C22 25.4 22.3 25.5 22.5 25.7C22.7 26 22.7 26.3 22.6 26.7C22.5 27.1 22.5 27.5 22.4 27.9C22.3 28.2 22.2 28.5 21.9 28.7C21.6 28.8 21.2 28.7 20.9 28.5C20.6 28.3 20.4 28.1 20.2 27.8C19.8 27.1 19.9 26.3 20.3 25.6C20.5 25.2 20.1 25 19.9 25.3Z" fill="black"/>
<path d="M20 28.8C19.6 30.5 19.6 32.2001 19.7 33.9001C19.8 35.0001 20.3 36.4 21.7 36.3C23.2 36.2 23.7 34.6 24 33.4001C24.2 32.6 24.3 31.8 24.4 31C24.4 30.3 24.3 29.7 23.9 29.1C23.5 28.6 22.8 28.3 22.2 28.2C21.8 28.1 20.8 27.8 20.7 28.5C20.6 28.8 21.1 28.9 21.2 28.6C21.3 28.3 22.4 28.7 22.6 28.8C23 29 23.5 29.2 23.8 29.6C24.1 30.1 24.1 30.8 24 31.3C23.9 31.9 23.8 32.6 23.7 33.2C23.5 34.2 23.1 35.6 21.8 35.7C20.6 35.8 20.5 34.2 20.4 33.3C20.3 31.8 20.3 30.3 20.7 28.8C20.6 28.6 20.1 28.5 20 28.8Z" fill="black"/>
<path d="M24 29.6C23.9 31.1 23.2 33 24.5 34.3C25.1 34.8 25.9 35.1 26.6 35.2C27.4 35.4 28.3 35.5 29.1 35.3C29.9 35.1 30.3 34.5 30.6 33.8C30.9 33.1 31.2 32.3 31.2 31.5C31.2 30.8 31.1 30 30.5 29.5C30 29 29.2 28.9 28.5 28.8C27 28.6 24.8 28.6 23.9 30C23.7 30.3 24.2 30.5 24.3 30.3C25 29.2 26.5 29.2 27.7 29.2C28.4 29.2 29.1 29.3 29.7 29.6C30.4 29.9 30.6 30.5 30.7 31.2C30.7 31.9 30.5 32.5 30.3 33.2C30.1 33.8 29.8 34.7 29.1 34.9C28.4 35.1 27.6 35 26.9 34.8C26.3 34.7 25.5 34.5 25 34.1C23.6 33.1 24.4 31 24.5 29.6C24.5 29.3 24 29.3 24 29.6Z" fill="black"/>
<path d="M36.1 59.3C35.1 60.7 34.4 62.3 34.1 64C34 64.7 34 65.4 34.6 65.9C35.1 66.4 36 66.5 36.7 66.5C37.5 66.5 38.3 66.2 39.1 65.9C39.8 65.6 40.6 65.2 41.1 64.5C41.5 63.8 41.6 63 41.8 62.3C42 61.6 42.1 60.8 41.6 60.2C41.3 59.9 40.9 59.7 40.5 59.5C40 59.3 39.6 59 39.1 58.8C38.3 58.5 37.5 58.2 36.7 58.6C36.4 58.8 36.7 59.2 37 59C37.6 58.6 38.4 58.9 39 59.2C39.6 59.5 40.3 59.8 40.9 60.2C41.2 60.4 41.5 60.6 41.5 61C41.5 61.4 41.4 61.7 41.3 62C41.1 62.6 41.1 63.3 40.8 63.9C40.5 64.5 39.8 64.9 39.2 65.2C38.6 65.5 37.9 65.8 37.1 65.9C36.5 66 35.7 66 35.1 65.6C34.5 65.2 34.6 64.4 34.7 63.8C35 62.3 35.7 60.8 36.6 59.6C36.7 59.3 36.3 59.1 36.1 59.3Z" fill="black"/>
<path d="M38.3 70.6C37.2 71 36 70.2 35.9 69C35.9 68.7 35.9 68.4 36 68.2C36.1 67.9 36.4 67.8 36.6 67.7C37.1 67.5 37.5 67 37.3 66.4C37.2 66.1 36.7 66.4 36.9 66.7C37 67 36.6 67.2 36.4 67.3C36.1 67.4 35.9 67.6 35.7 67.8C35.4 68.3 35.3 69 35.5 69.6C35.9 70.8 37.2 71.5 38.4 71C38.7 70.9 38.6 70.4 38.3 70.6Z" fill="black"/>
<path d="M20.4 96.4999C19.6 96.4999 18.8 95.9999 18.4 95.2999C18 94.4999 18.2 93.4999 18.8 92.7999C19.3 92.1999 20 91.4999 20.7 91.1999C21.6 90.7999 22.6 91.2999 23.6 91.2999C23.9 91.2999 23.9 90.7999 23.6 90.7999C22.7 90.7999 21.8 90.3999 20.9 90.5999C20.1 90.7999 19.5 91.2999 19 91.7999C18.4 92.3999 17.9 92.9999 17.7 93.7999C17.6 94.4999 17.8 95.2999 18.2 95.8999C18.7 96.5999 19.5 96.8999 20.4 96.8999C20.7 96.9999 20.7 96.4999 20.4 96.4999Z" fill="black"/>
<path d="M19.3 96.4C18.5 96.7 18 97.6 17.9 98.4C17.8 99.3 18.2 100.3 19.1 100.4C19.2 100.4 19.4 100.4 19.4 100.2C19.4 100.1 19.4 99.9 19.2 99.9C18.5 99.8 18.2 99 18.3 98.4C18.4 97.8 18.7 97.1 19.3 96.9C19.8 96.7 19.6 96.2 19.3 96.4Z" fill="black"/>
<path d="M20.3 91.2C19.8 91.2 19.5 90.9 19.2 90.5C18.9 90.2 18.7 89.8 18.5 89.4C18.3 89 18.2 88.6 18.1 88.2C18 87.8 18 87.3 18.3 86.9C18.5 86.6 19 86.3 19.3 86.2C19.7 86 20.2 85.8 20.6 85.7C21.1 85.7 21.3 86.1 21.6 86.5C21.9 86.9 22.2 87.3 22.5 87.7C22.8 88.1 23.1 88.5 23.1 89C23.1 89.4 22.8 89.8 22.5 90C22.2 90.2 22.5 90.6 22.8 90.4C23.6 89.9 23.9 88.8 23.4 88C23.1 87.5 22.7 87 22.3 86.5C22 86.1 21.7 85.5 21.2 85.3C20.7 85.1 20.1 85.3 19.7 85.5C19.2 85.7 18.7 86 18.2 86.3C17.4 87 17.6 88.3 17.9 89.2C18.1 89.8 18.4 90.3 18.8 90.7C19.2 91.1 19.7 91.6 20.3 91.6C20.6 91.7 20.6 91.2 20.3 91.2Z" fill="black"/>
<path d="M20.3 85.5C18.5 84 18.5 81.2 20.3 79.7C21.2 79 22.4 78.7 23.4 79.1C23.7 79.2 23.9 79.3 24.2 79.5C24.5 79.7 24.5 80 24.4 80.3C24.3 80.9 24.1 81.6 23.7 82.1C23 83.3 21.9 84.3 21 85.5C20.8 85.8 21.2 86 21.4 85.8C22.3 84.6 23.5 83.6 24.2 82.2C24.5 81.6 24.8 80.9 24.8 80.2C24.8 79.5 24.4 79.1 23.9 78.8C21.5 77.5 18.7 79.6 18.3 82C18.1 83.4 18.7 84.9 19.8 85.8C20.2 86 20.6 85.7 20.3 85.5Z" fill="black"/>
<path d="M21.9 86.2C22.1 84.5 23.6 83.5 25.2 83.2C26 83.1 27 83 27.6 83.6C28.2 84 28.4 85 27.7 85.4C27.4 85.6 27.7 86 28 85.8C28.7 85.3 28.9 84.3 28.4 83.6C27.8 82.7 26.8 82.5 25.8 82.5C23.8 82.6 21.7 83.8 21.4 86C21.4 86.4 21.9 86.5 21.9 86.2Z" fill="black"/>
<path d="M27.4 82.8C27.2 82.2 27.1 81.4 27.4 80.8C27.7 80.2 28.3 79.9 28.8 79.7C29.4 79.4 30 79.2 30.7 79.1C31.2 79 32.3 78.8 32.5 79.5C32.6 79.8 33.1 79.7 33 79.4C32.8 78.6 31.9 78.4 31.2 78.5C30.3 78.6 29.5 78.8 28.7 79.1C28 79.4 27.3 79.7 26.9 80.5C26.6 81.2 26.6 82.1 26.9 82.9C27 83.2 27.5 83.1 27.4 82.8Z" fill="black"/>
<path d="M31.7 78.6C31 78.5 30.9 77.4 30.8 76.8C30.7 76.4 30.7 75.9 30.9 75.6C31.1 75.2 31.5 74.9 31.8 74.6C32.5 74.1 33.3 73.5 34.1 73.2C34.8 73 35.8 73 36.1 73.8C36.2 74.1 36.7 74 36.6 73.7C36.4 73.1 35.7 72.7 35.1 72.6C34.2 72.5 33.4 73 32.7 73.4C32.3 73.6 31.9 73.9 31.5 74.2C31.2 74.5 30.8 74.7 30.6 75.1C30.1 75.8 30.2 76.6 30.3 77.4C30.4 78.1 30.7 79 31.5 79.2C31.9 79.2 32 78.7 31.7 78.6Z" fill="black"/>
<path d="M33.1 73.4C31.9 73.5 30.9 72.6 30.1 71.8C29.9 71.6 29.7 71.4 29.7 71.1C29.7 70.8 29.9 70.5 30.1 70.2C30.4 69.7 30.8 69.2 31.2 68.7C32 67.9 33.1 67.1 34.3 67.3C35 67.4 35.2 68 35.4 68.6C35.6 69.2 35.7 69.8 35.6 70.5C35.3 71.8 34.1 72.7 32.7 72.7C32.4 72.7 32.4 73.2 32.7 73.2C34.1 73.3 35.4 72.4 35.9 71.1C36.2 70.4 36.2 69.7 36 69C35.9 68.4 35.7 67.5 35.1 67.1C33.9 66.4 32.3 67.1 31.4 67.9C30.8 68.4 30.3 69 29.9 69.6C29.5 70.2 29.1 70.8 29.4 71.5C29.7 72.2 30.4 72.7 31 73.1C31.6 73.6 32.4 73.9 33.2 73.9C33.5 73.9 33.5 73.4 33.1 73.4Z" fill="black"/>
<path d="M32.1 67.7C31.1 67.6 29.9 67.6 29.1 66.8C28.7 66.4 28.6 65.9 28.6 65.4C28.6 64.9 28.7 64.4 28.8 63.9C29 63.3 29.6 63.2 30.1 63C30.7 62.8 31.2 62.7 31.8 62.7C32.1 62.7 32.3 62.7 32.6 62.7C32.9 62.7 33.2 62.7 33.5 63C33.8 63.4 34 64 34.1 64.5C34.3 65.7 33.6 67 32.2 66.8C31.9 66.8 31.9 67.3 32.2 67.3C33.5 67.5 34.4 66.4 34.6 65.2C34.7 64.5 34.5 63.9 34.3 63.3C34 62.7 33.7 62.3 33 62.2C32.3 62.1 31.5 62.2 30.8 62.3C30.2 62.4 29.4 62.6 28.9 63C28.4 63.4 28.3 64 28.2 64.6C28.1 65.2 28.1 65.9 28.3 66.4C28.9 67.9 30.7 67.9 32 68.1C32.3 68.2 32.4 67.7 32.1 67.7Z" fill="black"/>
<path d="M30.4 62.6C29.2 62.8 28.5 61.6 28.4 60.6C28.2 59.5 28.2 58.3 28.7 57.3C28.9 56.9 29.3 56.5 29.7 56.2C30.2 55.9 30.8 55.9 31.3 56C31.8 56 32.3 56.1 32.7 56.3C33.2 56.6 33.3 57.3 33.4 57.8C33.4 58.1 33.9 58.1 33.9 57.8C33.8 56.8 33.5 56 32.5 55.6C32 55.5 31.5 55.4 31 55.4C30.5 55.4 30 55.5 29.5 55.7C28.6 56.2 28.1 57.1 28 58.1C27.8 59.1 27.8 60.4 28.2 61.4C28.6 62.4 29.5 63.2 30.6 63C30.9 63 30.7 62.5 30.4 62.6Z" fill="black"/>
<path d="M33.9 62.5C34.7 61.8 35.3 60.9 35.5 59.9C35.6 59.6 35.1 59.5 35 59.8C34.8 60.7 34.2 61.6 33.5 62.2C33.4 62.3 33.4 62.5 33.5 62.6C33.7 62.6 33.8 62.6 33.9 62.5Z" fill="black"/>
<path d="M30.7 55.9C29.8 55.7 28.7 55.6 27.9 55C27.5 54.7 27.2 54.3 27.1 53.9C27 53.4 27.3 53 27.6 52.7C28 52.3 28.4 52 28.9 51.7C29.3 51.4 29.7 51.1 30.2 50.8C31 50.3 32.1 50.1 32.8 50.8C33 51 33.4 50.7 33.2 50.4C32.6 49.8 31.8 49.7 31 49.9C30.1 50.1 29.3 50.8 28.6 51.3C28.2 51.6 27.8 51.9 27.4 52.3C27.1 52.6 26.8 52.9 26.7 53.3C26.5 54.1 27 54.9 27.6 55.4C28.4 56.1 29.5 56.3 30.6 56.4C30.8 56.5 31 56 30.7 55.9Z" fill="black"/>
<path d="M32.9 55.8C33.3 56 33.6 55.4 33.7 55.1C33.9 54.8 34 54.4 34 54C34.1 53.2 34 52.5 33.7 51.8C33.6 51.5 33.1 51.8 33.3 52.1C33.5 52.6 33.6 53.2 33.6 53.8C33.6 54.1 33.5 54.3 33.4 54.6C33.4 54.7 33.3 54.9 33.2 55C33.2 55.1 33.1 55.1 33.1 55.2L33 55.3C32.9 55.2 32.7 55.4 32.7 55.5C32.7 55.6 32.8 55.7 32.9 55.8Z" fill="black"/>
<path d="M33.8 50.6C33.6 50.4 33.4 50.3 33.2 50.1C33.1 50.1 33.1 50 33 50C32.9 50 32.9 50 32.8 50.1C32.8 50.1 32.7 50.2 32.7 50.3C32.7 50.4 32.7 50.4 32.8 50.5C33 50.7 33.2 50.8 33.4 51C33.5 51 33.5 51.1 33.6 51.1C33.7 51.1 33.7 51.1 33.8 51C33.8 51 33.9 50.9 33.9 50.8C33.9 50.7 33.9 50.7 33.8 50.6Z" fill="black"/>
<path d="M31.2 50C30.5 49.9 29.9 49.8 29.2 49.8C28.6 49.7 27.9 49.7 27.4 49.4C26.9 49.1 26.6 48.6 26.4 48.1C26.3 47.8 26.1 47.5 26.3 47.2C26.5 47 26.8 46.8 27 46.7C28.1 46.2 29.3 46 30.5 45.9C30.8 45.9 31 45.9 31.3 45.9C31.6 45.9 32 45.8 32.3 45.9C32.6 46 32.7 46.3 32.8 46.6C32.9 46.9 33 47.2 33.1 47.6C33.2 48.2 33.4 49.1 33 49.6C32.7 50 32 50.2 31.6 50.5C31.3 50.7 31.7 51.1 32 50.9C32.5 50.5 33.1 50.4 33.5 49.9C33.9 49.3 33.8 48.6 33.7 48C33.6 47.3 33.5 46.5 33.1 45.9C32.7 45.4 31.9 45.5 31.3 45.5C29.9 45.5 28.4 45.7 27.1 46.3C26.6 46.5 25.8 46.9 25.9 47.5C25.9 48.1 26.3 48.8 26.6 49.3C27.1 49.9 27.8 50.1 28.5 50.2C29.4 50.3 30.4 50.4 31.3 50.5C31.6 50.5 31.6 50 31.2 50Z" fill="black"/>
<path d="M29.9 45.1C29 44.9 27.9 44.5 27.5 43.6C27.1 42.8 27.3 41.7 28.1 41.3C28.6 41.1 29.2 41.0001 29.7 40.9001C30.3 40.8001 30.9 40.8001 31.5 40.7001C31.7 40.7001 32 40.7001 32.2 40.9001C32.4 41.1001 32.5 41.4 32.5 41.6C32.6 42.1 32.6 42.7001 32.5 43.2001C32.2 44.3001 31.3 45.1 30.2 45.3C29.9 45.4 30 45.8 30.3 45.8C31.5 45.6 32.4 44.8001 32.9 43.7001C33.1 43.1001 33.2 42.5001 33.1 41.9001C33 41.4001 32.8 40.6001 32.2 40.4001C31.9 40.3001 31.6 40.3 31.3 40.3C30.9 40.3 30.5 40.3001 30.2 40.4001C29.5 40.5001 28.8 40.6 28.1 40.8C27.6 41 27.1 41.3 26.9 41.8C26.7 42.3 26.6 42.8 26.7 43.3C27 44.6 28.4 45.4 29.6 45.6C30.1 45.6 30.3 45.1 29.9 45.1Z" fill="black"/>
<path d="M29.3 40.8C28.2 40.8 27.2 40.4 26.5 39.6C26.1 39.2 25.8 38.7 25.7 38.2C25.6 37.9 25.5 37.5 25.7 37.2C25.8 36.9 26.1 36.7 26.3 36.5C26.7 36.1 27.2 35.7 27.8 35.5C28.4 35.3 29.1 35.3 29.7 35.3C30.3 35.4 30.9 35.4 31.4 35.8C31.8 36.2 32 36.8 32 37.3C32.1 38.4 31.6 39.6 30.6 40.2C30.3 40.4 30.6 40.8 30.9 40.6C32 40 32.5 38.8 32.5 37.5C32.5 36.9 32.4 36.2 32.1 35.7C31.7 35.1 31.1 34.9 30.5 34.8C29.7 34.7 28.9 34.6 28.2 34.8C27.5 35 26.9 35.3 26.3 35.8C25.8 36.2 25.2 36.7 25.1 37.4C25 38.1 25.3 38.8 25.7 39.3C26.5 40.5 27.9 41.3 29.4 41.2C29.6 41.3 29.6 40.8 29.3 40.8Z" fill="black"/>
<path d="M20.9 36.1999C20 36.6999 19.5 37.6999 19.6 38.6999C19.7 39.2999 19.9 39.6999 20.4 39.9999C20.8 40.2999 21.4 40.4999 21.9 40.4999C23 40.4999 24.1 39.9999 24.9 39.1999C25.3 38.7999 25.6 38.3999 25.6 37.7999C25.7 37.2999 25.4 36.7999 25 36.4999C24.1 35.6999 22.9 35.2999 21.7 35.4999C21.4 35.5999 21.5 35.9999 21.8 35.9999C22.6 35.8999 23.5 35.9999 24.2 36.4999C24.5 36.6999 24.9 36.9999 25 37.3999C25.1 37.7999 24.8 38.2999 24.6 38.5999C24 39.2999 23.2 39.7999 22.4 39.8999C21.6 39.9999 20.4 39.7999 20.1 38.8999C19.8 37.9999 20.3 36.9999 21.1 36.5999C21.4 36.4999 21.1 36.0999 20.9 36.1999Z" fill="black"/>
<path d="M20.7 39.8C19.9 40.8 19.5 42.1 19.5 43.3C19.5 43.9 19.6 44.6 20 45.1C20.3 45.6 20.9 45.8 21.4 45.9C22 46 22.6 45.9 23.1 45.7C23.7 45.4 24.1 45 24.6 44.5C25.4 43.7 26.8 43.6 27 42.4C27.2 41.1 26.2 39.8 25 39.5C24.7 39.4 24.6 39.9 24.9 40C25.8 40.2 26.7 41.1 26.6 42.2C26.5 43.2 25.3 43.4 24.6 44C24.2 44.3 23.9 44.7 23.5 45C23.1 45.3 22.5 45.5 22 45.5C21.5 45.5 20.9 45.4 20.6 45C20.2 44.6 20.1 44 20 43.5C19.9 42.3 20.3 41.1 21 40.1C21.2 39.9 20.9 39.6 20.7 39.8Z" fill="black"/>
<path d="M21.7 45.8C20.5 45.9 20 47 19.9 48C19.7 49 19.6 50.2 19.9 51.2C20.2 52.2 21.1 52.8 22.1 52.9C23.3 53.1 24.4 52.7 25.4 52.2C26 51.9 26.7 51.6 27.1 51.1C27.5 50.7 27.7 50.1 27.6 49.5C27.6 49.2 27.1 49.2 27.1 49.5C27.2 50.9 25.8 51.5 24.7 51.9C23.6 52.4 22.4 52.7 21.3 52.1C20.2 51.5 20.1 50.3 20.2 49.2C20.3 48.2 20.4 46.3 21.7 46.1C22 46.2 22 45.7 21.7 45.8Z" fill="black"/>
<path d="M27.4 46.6C27.3 45.4 26.6 44.2 25.6 43.6C25.3 43.4 25.1 43.9 25.3 44C26.2 44.6 26.8 45.6 26.9 46.6C26.9 46.7 27 46.8 27.1 46.8C27.3 46.8 27.4 46.7 27.4 46.6Z" fill="black"/>
<path d="M21.8 52.4C20.9 53 20.1 53.9 19.7 54.9C19.5 55.4 19.3 56 19.3 56.6C19.4 57.1 19.7 57.6 20.1 57.9C22 59.6 24.9 59.2 27 58.2C28 57.7 28.9 56.6 28.4 55.5C28.3 55.2 27.8 55.5 28 55.8C28.6 57.2 26.7 57.9 25.7 58.2C24.5 58.6 23.1 58.8 21.9 58.4C21.3 58.2 20.8 57.9 20.4 57.5C20.2 57.3 19.9 57 19.9 56.7C19.8 56.3 19.9 56 20 55.6C20.3 54.5 21.1 53.5 22.1 52.8C22.3 52.6 22.1 52.2 21.8 52.4Z" fill="black"/>
<path d="M20.6 58.3C20.1 59.8 19.6 61.4 19.9 62.9C20.2 64.2 21 65.3 22.2 65.8C23.5 66.4 24.8 66.1 26 65.5C27.1 64.9 28.6 64.2 28.8 62.9C28.9 62.6 28.4 62.5 28.3 62.8C28.1 64 26.7 64.6 25.8 65.1C24.7 65.7 23.4 65.9 22.2 65.3C21.1 64.8 20.4 63.7 20.3 62.5C20.1 61.1 20.5 59.7 21 58.4C21.2 58.1 20.7 58 20.6 58.3Z" fill="black"/>
<path d="M24.2 65.8001C24.2 66.7001 23.5 67.3001 23.1 68.1001C22.7 69.0001 22.7 69.9001 23.3 70.7001C23.9 71.5001 24.8 72.0001 25.8 72.2001C26.7 72.4001 27.9 72.5001 28.8 72.0001C29.8 71.5001 29.9 70.5001 29.9 69.5001C29.9 69.2001 29.4 69.2001 29.4 69.5001C29.4 70.0001 29.4 70.5001 29.2 70.9001C29 71.4001 28.5 71.6001 27.9 71.7001C26.7 71.9001 25.4 71.7001 24.4 71.0001C23.4 70.4001 22.9 69.2001 23.5 68.1001C23.9 67.3001 24.6 66.7001 24.6 65.7001C24.7 65.5001 24.2 65.5001 24.2 65.8001Z" fill="black"/>
<path d="M25.2 72.2C23.8 73.9 22.1 76.3 23.7 78.4C24.3 79.2 25.3 79.7 26.3 79.6C26.9 79.5 27.4 79.3 27.9 79C28.5 78.7 29.1 78.5 29.7 78.2C30.3 78 30.8 77.7 31.1 77.1C31.4 76.6 31.4 76 31.1 75.6C30.9 75.3 30.5 75.6 30.7 75.9C31.1 76.5 30.7 77.1 30.2 77.5C29.7 77.8 29.1 78 28.5 78.2C27.4 78.7 26.2 79.6 25 78.9C23.9 78.3 23.5 77.1 23.7 75.9C23.9 74.6 24.8 73.5 25.6 72.5C25.8 72.3 25.4 71.9 25.2 72.2Z" fill="black"/>
<path d="M23.3 77.9C22.2 77.9 20.8 77.9 20.1 76.9C19.5 76 19.6 74.6 19.8 73.6C19.9 73 20 72.5 20.3 71.9C20.4 71.7 20.5 71.4 20.8 71.2C21.1 71.1 21.4 71.1 21.7 71.1C22.3 71.1 22.9 71.2 23.5 71.3C24.1 71.4 24.8 71.7 24.8 72.4C24.8 72.7 25.3 72.7 25.3 72.4C25.3 71.2 24 70.9 23.1 70.7C22.5 70.6 21.9 70.6 21.3 70.6C20.8 70.6 20.4 70.8 20.1 71.2C19.5 72.1 19.3 73.4 19.2 74.5C19.1 75.5 19.1 76.7 19.8 77.5C20.7 78.5 22 78.5 23.2 78.5C23.6 78.3 23.6 77.8 23.3 77.9Z" fill="black"/>
<path d="M22.4 70.2C21.6 70.3 21 69.7 20.7 69C20.5 68.7 20.4 68.3 20.3 68C20.2 67.8 20.2 67.5 20.2 67.3C20.2 67.1 20.4 67 20.5 66.9C21 66.4 21.7 66.2 22.3 66.2C22.7 66.2 23.1 66.1 23.4 66.2C23.7 66.3 24 66.6 23.9 66.9C23.8 67.2 24.3 67.3 24.4 67C24.6 66.3 24 65.7 23.3 65.6C22.6 65.5 21.8 65.6 21.1 65.8C20.5 66 19.8 66.5 19.7 67.2C19.6 67.6 19.8 68 19.9 68.4C20 68.8 20.1 69.1 20.3 69.5C20.7 70.2 21.5 70.8 22.3 70.7C22.7 70.7 22.7 70.2 22.4 70.2Z" fill="black"/>
<path d="M20.9 20.2999C20.5 17.2999 20 14.1999 18.5 11.5999C17.3 9.39994 15.3 7.59994 12.8 7.09994C12.5 6.99994 12.4 7.49994 12.7 7.59994C18.4 8.89994 19.7 15.5999 20.4 20.4999C20.5 20.7999 21 20.5999 20.9 20.2999Z" fill="black"/>
<path d="M21.9 16.2C21.7 12.7 20.9 9.20001 19.6 5.90001C19.5 5.60001 19 5.70001 19.1 6.00001C20.4 9.30001 21.2 12.7 21.4 16.2C21.4 16.5 21.9 16.5 21.9 16.2Z" fill="black"/>
<path d="M22.9 14.7C23.1 11.1 23.3 7.50005 23.5 3.90005C23.5 3.60005 23 3.60005 23 3.90005C22.8 7.50005 22.6 11.1 22.4 14.7C22.4 15 22.9 15 22.9 14.7Z" fill="black"/>
<path d="M24.8 16.7999C25 13.2999 26.4 9.89994 24.9 6.49994C23.7 3.69994 21.1 1.79994 18.8 -5.69299e-05C18.5 -0.200057 18.3 0.199943 18.5 0.399943C20.8 2.09994 23.3 3.99994 24.5 6.69994C25.9 9.89994 24.5 13.3999 24.3 16.6999C24.3 17.1999 24.8 17.1999 24.8 16.7999Z" fill="black"/>
<path d="M27.5 17.5C27.7 16 27.9 14.5 28.1 13C28.3 11.6 28.6 10.2 28.6 8.80002C28.6 6.50002 26.8 4.90002 25.1 3.70002C24.8 3.50002 24.6 3.90002 24.8 4.10002C25.7 4.80002 26.6 5.50002 27.3 6.40002C28 7.40002 28.2 8.40002 28 9.60002C27.7 12.2 27.3 14.8 26.9 17.4C27 17.7 27.5 17.8 27.5 17.5Z" fill="black"/>
</g>
<defs>
<clipPath id="clip0">
<rect width="65" height="127.7" fill="white"/>
</clipPath>
</defs>
</svg>
