<svg width="24" height="156" viewBox="0 0 24 156" fill="none" xmlns="http://www.w3.org/2000/svg">
<g clip-path="url(#clip0)">
<path d="M6.6 41.6C6.2 62 8.1 82.4 12.4 102.3C14 101.9 15.6 101.4 17.2 101C12.2 82.2 7.2 63.2 7.2 43.6C5.5 43.6 3.9 43.6 2.2 43.6C2.4 52.1 2.5 60.5 2.7 69C2.7 71.7 7 72.5 7.6 69.7C9.5 60.9 11.2 52.1 12.8 43.2C14.3 34.8 16 26.3 15.9 17.8C15.8 13.1 15.1 8.40001 13.5 4.10001C13 2.80001 12 2.00001 10.7 2.20001C9.5 2.40001 8.5 3.40001 8.5 4.60001C9.1 15.2 7 25.6 5.7 36.1C5.1 41.4 4.7 46.6 4.9 51.9C5.2 57.4 6 62.8 7.1 68.1C8.4 74.1 10 80 11.7 85.9C12 87.1 13.2 87.9 14.4 87.7C15.7 87.5 16.4 86.5 16.6 85.2C17.6 76.3 18.6 67.4 19.6 58.6C20.1 54.2 20.6 49.9 21.1 45.5C21.5 42 22.1 38.5 21.5 35C20.8 31.6 18.6 28.7 15 28.5C13.6 28.4 12.6 29.7 12.5 31C11.9 46.3 11.5 61.6 11.5 77C13.1 76.8 14.8 76.6 16.4 76.3C14.7 68.7 13 61 11.2 53.4C10.8 51.5 7.5 50.8 6.6 52.8C1.9 63.9 2.9 75.8 4.9 87.4C5.9 93.2 7.2 99 8.1 104.9C9.1 111.2 9.7 117.5 10 123.8C10.3 130.9 10.3 138.1 9.8 145.2C11.1 144.5 12.3 143.8 13.6 143C12.3 142.2 11.9 140.4 11.7 139C11.4 136.8 11.3 134.5 11.1 132.2C10.7 126.8 10.4 121.5 10.1 116.1C9.5 105.3 9.1 94.6 8.9 83.8C8.8 77.7 8.7 71.5 8.7 65.4C8.7 62.7 4.3 61.9 3.8 64.7C-9.53674e-07 87.6 0.899999 110.8 3.4 133.8C4.1 140.3 4.9 146.7 5.8 153.2C5.9 154.2 6.3 155.1 7.3 155.5C8.2 155.9 9.3 155.7 10 155C12.3 152.6 13.6 149.5 14.5 146.4C15.5 143 16.3 139.5 17 136.1C18.6 128.8 19.8 121.5 20.8 114.1C22.7 99.6 23.3 84.9 22.8 70.3C22.5 62 21.8 53.8 20.7 45.6C20.5 44.3 19.7 43.1 18.2 43.1C16.8 43.1 15.8 44.2 15.7 45.6C13.6 70.4 13.2 95.3 13.2 120.2C13.2 127.2 13.2 134.3 13.3 141.3C13.3 144 17.6 144.8 18.2 142C19.7 134.4 20.4 126.6 20.2 118.9C20.1 115.7 15.1 115.7 15.2 118.9C15.4 126.2 14.8 133.5 13.3 140.7C14.9 140.9 16.6 141.1 18.2 141.4C18.1 116.5 17.9 91.6 19.2 66.7C19.6 59.7 20 52.7 20.6 45.7C18.9 45.7 17.3 45.7 15.6 45.7C19.3 74 18.6 102.9 13 130.9C12.2 134.8 11.3 138.7 10.4 142.5C9.6 145.7 8.8 149.1 6.5 151.6C7.9 152.2 9.3 152.8 10.8 153.4C7.8 130.8 5.3 108.1 6.6 85.3C7 78.9 7.6 72.5 8.7 66.1C7.1 65.9 5.4 65.7 3.8 65.4C3.8 88 4.6 110.6 6.3 133.2C6.7 138.1 6.4 144.4 11.1 147.3C12.8 148.4 14.7 147 14.9 145.1C15.7 132.6 15.3 120 13.6 107.6C12 96.1 8.7 84.9 8.2 73.3C7.9 67.2 8.5 60.9 10.9 55.2C9.4 55 7.9 54.8 6.3 54.6C8 62.2 9.7 69.9 11.5 77.5C12.1 80.3 16.4 79.6 16.4 76.8C16.5 61.5 16.8 46.2 17.4 30.8C16.6 31.6 15.7 32.5 14.9 33.3C15.1 33.3 15.3 33.4 15.2 33.3C15.3 33.4 15.5 33.5 15.6 33.6C15.4 33.5 15.4 33.5 15.7 33.7C15.9 33.9 15.9 33.9 15.8 33.8C15.9 33.9 16 34.1 16.1 34.2C16.3 34.6 16.3 34.6 16.4 34.9C16.9 36.4 16.9 37.7 16.9 39.3C16.6 44.2 15.8 49.1 15.3 54C14.1 64.4 13 74.7 11.8 85.1C13.4 84.9 15.1 84.7 16.7 84.4C13.9 74.3 11 64 10.2 53.5C9.5 42.9 11.5 32.6 12.8 22.1C13.6 16.3 14.1 10.4 13.7 4.50001C12.1 4.70001 10.4 4.90001 8.8 5.20001C11.6 12.7 11.3 20.7 10.3 28.5C9 37 7.4 45.4 5.8 53.6C4.8 58.5 3.8 63.4 2.8 68.3C4.4 68.5 6 68.7 7.7 69C7.6 60.6 7.4 52.1 7.3 43.7C7.2 40.5 2.3 40.5 2.3 43.7C2.3 63.7 7.4 83.2 12.5 102.4C13.3 105.5 18 104.2 17.3 101.1C13.1 81.6 11.2 61.7 11.6 41.7C11.6 38.4 6.6 38.4 6.6 41.6Z" fill="#00782A"/>
<path d="M9.6 151.9C7.2 153.6 5.3 150.1 4.8 148.2C4.2 145.7 4.3 143.1 4.2 140.6C4.1 135.3 3.9 130 3.7 124.7C3.3 114 2.8 103.3 2.1 92.7C1.4 82 0.3 71.5 0.5 60.9C0.6 55.7 1.1 50.5 2.1 45.4C3 40.6 4.3 35.9 5.5 31.2C6.8 25.9 7.9 20.6 8.3 15.2C8.5 12.3 8.3 9.40002 8.8 6.60002C9.2 4.30002 10.4 0.600024 13.3 0.500024C13.2 0.400024 13.1 0.300024 13.1 0.200024C11.2 10.3 15.3 19.8 18.6 29.2C22 39.1 23 49.4 23 59.9C23 70.6 22.5 81.2 22.1 91.9C21.7 102.7 21.5 113.6 21 124.4C20.8 130.2 20.3 136.2 18.3 141.7C16.7 146.1 13.8 151.1 9 152.3C8.7 152.4 8.8 152.9 9.1 152.8C12.7 151.9 15.3 148.9 17 145.7C19.3 141.6 20.3 136.9 20.8 132.3C21.4 126.9 21.5 121.5 21.7 116.1C21.9 110.5 22.1 104.9 22.2 99.3C22.6 88.2 23 77.1 23.3 66C23.5 55.7 23.4 45.3 20.8 35.2C17.8 23.7 11 12.6 13.3 0.200024C13.3 2.4423e-05 13.2 -0.0999756 13.1 -0.0999756C9.2 2.44156e-05 8.2 6.00002 8 9.00002C7.8 11.8 7.9 14.5 7.6 17.3C7.3 20 6.9 22.7 6.3 25.3C4.2 35.8 0.8 45.8 0.2 56.6C-0.5 68 0.7 79.3 1.5 90.7C2.3 102.3 2.9 113.9 3.3 125.5C3.5 131.9 3.5 138.2 3.8 144.6C3.9 146.9 4.2 149.5 5.6 151.4C6.6 152.7 8.3 153.6 9.8 152.5C10.1 152.1 9.9 151.7 9.6 151.9Z" fill="black"/>
<path d="M13.3 142C16.2 116.8 16.7 91.2 14.7 65.9C14.2 58.8 13.4 51.8 12.5 44.7C12.5 44.4 12 44.4 12 44.7C15.3 69.9 16.2 95.4 14.7 120.7C14.3 127.8 13.6 134.9 12.8 141.9C12.8 142.4 13.3 142.4 13.3 142Z" fill="black"/>
</g>
<defs>
<clipPath id="clip0">
<rect width="23.5" height="155.7" fill="white"/>
</clipPath>
</defs>
</svg>
