<svg width="24" height="24" viewBox="0 0 24 24" fill="none" xmlns="http://www.w3.org/2000/svg">
<g clip-path="url(#clip0)">
<path d="M13.1 18.4C13.1 17 13.1 15.7 13.1 14.3C13.1 14.1 13.1 14.1 13.3 14.1C14.1 14.1 14.8 14.1 15.6 14.1C15.7 14.1 15.8 14.1 15.8 13.9C15.9 13 16 12.1 16.2 11.2C16.2 11.1 16.2 11 16.1 11C15.2 11 14.3 11 13.4 11C13.2 11 13.2 11 13.2 10.8C13.2 10.2 13.2 9.69998 13.2 9.09998C13.2 8.89998 13.2 8.79998 13.2 8.59998C13.3 7.89998 13.7 7.59998 14.4 7.49998C15 7.49998 15.6 7.49998 16.1 7.49998C16.3 7.49998 16.3 7.49998 16.3 7.29998C16.3 6.49998 16.3 5.69998 16.3 4.89998C16.3 4.69998 16.3 4.69998 16.1 4.69998C15.3 4.59998 14.4 4.59998 13.6 4.59998C12.2 4.69998 11.2 5.19998 10.5 6.49998C9.99995 7.29998 9.89995 7.99998 9.89995 8.79998C9.89995 9.49998 9.89995 10.1 9.89995 10.8C9.89995 11 9.89995 11 9.69995 11C8.89995 11 8.19995 11 7.39995 11C7.19995 11 7.19995 11 7.19995 11.2C7.19995 12.1 7.19995 13 7.19995 13.9C7.19995 14.1 7.29995 14.1 7.39995 14.1C8.19995 14.1 8.89995 14.1 9.69995 14.1C9.79995 14.1 9.89995 14.1 9.89995 14.3C9.89995 17 9.89995 19.8 9.89995 22.5C9.89995 22.7 9.79995 22.7 9.69995 22.7C7.79995 22.3 6.19995 21.6 4.69995 20.4C3.39995 19.3 2.39995 18 1.69995 16.5C0.999951 14.9 0.699951 13.3 0.699951 11.6C0.799951 9.09998 1.59995 6.89998 3.09995 4.99998C4.39995 3.29998 5.99995 2.19998 7.89995 1.39998C9.59995 0.699979 11.4 0.599979 13.3 0.799979C15.7 1.09998 17.8 2.19998 19.5 3.89998C21.2 5.49998 22.2 7.49998 22.6 9.79998C23.1 12.5 22.6 15.1 21.2 17.5C19.7 19.9 17.6 21.5 14.9 22.4C14.4 22.6 13.9 22.7 13.4 22.7C13.3 22.7 13.2 22.7 13.2 22.6C13.1 21.2 13.1 19.8 13.1 18.4Z" stroke="black" stroke-width="1.5" stroke-miterlimit="10"/>
</g>
<defs>
<clipPath id="clip0">
<rect width="23.5" height="23.5" fill="white"/>
</clipPath>
</defs>
</svg>
