<svg xmlns="http://www.w3.org/2000/svg" viewBox="0 0 173.77 325.16"><defs><style>.cls-1{fill:#fff;}</style></defs><g id="Ebene_2" data-name="Ebene 2"><g id="Ebene_1-2" data-name="Ebene 1"><path class="cls-1" d="M170,21.68a2.49,2.49,0,0,0-3.12,1c-8.66,16.1-10,35.38-20.67,50.5a42.1,42.1,0,0,1-4.07,5,23.5,23.5,0,0,0-3.81-2.37c.16-.6.33-1.2.49-1.8q1.32-4.79,2.63-9.59c1.56-4.38,2.82-8.93,4.61-13.06,2.41-5.61,5.32-11,8.15-16.4l9.17-17.44c1.45-2.86-2.82-5.39-4.32-2.53C154.53,23.94,148,31.71,143.8,40.8A97.86,97.86,0,0,0,138.58,56l-1.77,6.48a39.39,39.39,0,0,1-3.95,8.6,25,25,0,0,1-1.58,2.15c-2.05-.55-4.11-1-6.15-1.61A244.86,244.86,0,0,0,138.5,45.88c3.43-7.81,6.55-15.75,9.66-23.69A37.8,37.8,0,0,0,151.78,13c.75-3.2-3.65-4.27-4.82-1.33s-2.23,5.67-3.34,8.5c-3.23,6-7.77,11.4-11.21,17.18A105.37,105.37,0,0,0,120.67,66c-.25,1-.47,2.05-.69,3.08-.13-.13-.27-.25-.39-.38a3.83,3.83,0,0,0-.29-.28,56.22,56.22,0,0,1,.75-6.34,122.68,122.68,0,0,1,3.63-14.36c1.8-5.92,3.56-11.92,5.59-17.81,3.59-6.61,7.06-13.24,10.18-20.08l1.79-2a2.57,2.57,0,0,0-.77-4,2.61,2.61,0,0,0-.3-.27,2.49,2.49,0,0,0-3.29.19l-.39.51h0a54.37,54.37,0,0,0-4,5.87c-1.79,2.08-3.52,4.21-5.15,6.44a54.15,54.15,0,0,0-7.47,14.22c-.67,1.92-1.25,3.86-1.79,5.82a2.41,2.41,0,0,0-1.72,1.18,77.8,77.8,0,0,0-7.64,16c-1.08,2.33-2.15,4.66-3.19,7-1.51,3.43-3.5,7-3.89,10.8A8,8,0,0,0,97.13,75c-3.08,4.27-1.39,10,1.83,13.65,2.08,2.33,4.82,3.36,7.6,4.46a23.91,23.91,0,0,1-1,2.85c-6.38,14.94-13.91,29.34-21.51,43.68-7.75,14.65-15.59,29.28-22.31,44.44a280.8,280.8,0,0,0-10.43,26.83,250.39,250.39,0,0,1-11.15,23.75c-4.34,7.83-10.08,14.91-13.7,23.13-2.15,4.89-3.6,10-5.57,15-3.21,7.2-8,13.52-12.16,20.16C4,300.45.31,308.63,0,317.66a7.57,7.57,0,0,0,7.5,7.5,7.66,7.66,0,0,0,7.5-7.5c0-.59.07-1.18.12-1.77A34.76,34.76,0,0,1,17,309.1c3.1-6.92,7.7-13,11.74-19.4a78.93,78.93,0,0,0,6.23-12c1.69-4.09,2.9-8.36,4.52-12.48,3.6-8.1,9.22-15.1,13.52-22.83a259.06,259.06,0,0,0,11.75-25.09,8.65,8.65,0,0,0,.8-1.74c2.13-6.63,4.58-13.14,7.25-19.56,6.48-15.22,14.17-29.88,21.9-44.48,6.83-12.89,13.69-25.76,19.8-39a8.17,8.17,0,0,0,1.83-.22l15.19-3.8c4.7-1.17,9.35-2.63,13-6A14.82,14.82,0,0,0,148.69,88q4.55-11.1,9.1-22.19c3.53-8.61,7.14-17.21,10-26.06a86.48,86.48,0,0,0,3.63-15.14A2.54,2.54,0,0,0,170,21.68ZM114.44,66.54l-.53,0,.08-.18c.23-.52.44-1.06.66-1.58C114.58,65.38,114.49,66,114.44,66.54Zm17.82,23,.64.42,0,.06C132.42,89.7,132.23,89.55,132.26,89.54Zm1,.67Zm.1.24.18.18c.18.29.35.58.51.88a2,2,0,0,1,.07.26l-.32.21A6.37,6.37,0,0,0,133.38,90.45Zm.49,1.82.2-.37,0,0C134,92,133.94,92.13,133.87,92.27Zm.26-.48v0h0Zm0-.05,0,0,0,0v0Zm.07-.11v0l0,0Zm.08-.13v0l0,0Zm.08,0,.11-.25C134.6,91.16,134.57,91.28,134.4,91.49ZM145.79,82l-.19-.26.25-.26.28-.3Z"/><path d="M105.48,107.1a31.3,31.3,0,0,0-4.08-15.65c-.93-1.62-2.15-3-3.15-4.56C97,85,98,82.22,98.58,80.16s1.19-4,1.86-5.91c1.26-3.67,2.63-7.31,4.08-10.92A221.87,221.87,0,0,1,143,.72l-.69-.41c-4.16,19-14.46,35.68-21.93,53.41-.94,2.22-1.84,4.46-2.67,6.72a12.85,12.85,0,0,0-1,5.39,4.46,4.46,0,0,0,2.14,3.68c1.56.82,2.64-.09,3.39-1.43,2.44-4.36,3.67-9.31,5.91-13.78,2.38-4.77,5-9.41,7.56-14.09,2.82-5.19,5.61-10.4,8.45-15.58a74.59,74.59,0,0,1,9.47-14.18c.35-.39-.23-1-.59-.58-6.25,7-10.32,15.67-14.75,23.84L131,47.17a105.62,105.62,0,0,0-6.22,12.74A71.86,71.86,0,0,1,122,66.67c-.57,1.14-1.31,3-2.92,2a3.66,3.66,0,0,1-1.58-2.88,13,13,0,0,1,1.12-5.58c.83-2.23,1.72-4.43,2.65-6.62,3.55-8.37,7.69-16.46,11.52-24.71,4.25-9.14,8.11-18.51,10.28-28.39.08-.37-.4-.73-.69-.4a222.52,222.52,0,0,0-37.46,60q-2.34,5.57-4.39,11.26A74.37,74.37,0,0,0,97,83.32a5.28,5.28,0,0,0,1,4.69,34,34,0,0,1,3.6,5.72,30.6,30.6,0,0,1,3,13.37.41.41,0,0,0,.82,0Z"/><path d="M152.69,9.92c-5,19.1-15.62,36-25.63,52.79-1.87,3.14-4.56,7.3-2.06,10.86,2.14,3.06,5.7,1.68,7.67-.75a30.94,30.94,0,0,0,3.25-5.64l3.7-7.3,7.29-14.38,8.3-16.37,4-8,2.13-4.2c.57-1.14,1.26-2.85,2.76-2.82l-.4-.53c-.73,5.16-3,9.85-5.22,14.5l-6.8,14.34L137.8,71.8c-1.22,2.57-3.68,7.87.48,9.33,3.75,1.31,6.59-4,8.22-6.41a231.49,231.49,0,0,0,14.71-25.28,233.8,233.8,0,0,0,12.55-30.22l-.82-.11c-1.41,18.93-9.8,36.25-17.49,53.28-1.88,4.14-3.72,8.29-5.45,12.5-1.83,4.46-3.47,9-6,13.19A23,23,0,0,1,135,107c-4.09,2.05-8.52,1.48-12.9,2.12a11.79,11.79,0,0,0-5.92,2.45,34.23,34.23,0,0,0-5.08,5.79,150.62,150.62,0,0,0-9.38,13.56c-.28.45.44.87.71.41q3.93-6.37,8.47-12.36a59.14,59.14,0,0,1,4.77-5.83,11.1,11.1,0,0,1,6.25-3.16c4.19-.69,8.46-.09,12.47-1.79a21.92,21.92,0,0,0,8.87-7.41c2.73-3.74,4.51-8.07,6.23-12.34q2.72-6.75,5.7-13.39C159,66.5,163,58,166.37,49.3c3.74-9.7,6.62-19.77,7.4-30.19,0-.48-.67-.53-.81-.11a232.57,232.57,0,0,1-23.38,49.45q-1.8,2.85-3.67,5.66a24.13,24.13,0,0,1-4,5.2,3.52,3.52,0,0,1-3.37,1,3.08,3.08,0,0,1-1.8-2.93c0-2.41,1.61-4.86,2.61-7l12.86-27.11,7.12-15c2.2-4.65,4.47-9.34,5.2-14.48a.42.42,0,0,0-.4-.52c-1.58,0-2.47,1.3-3.14,2.56-1.2,2.27-2.32,4.58-3.48,6.86l-7.06,13.94-14,27.65c-1.09,2.16-2.09,4.42-3.36,6.49-1,1.62-2.57,3.71-4.69,3.74-2.43,0-3.69-2.56-3.55-4.69.16-2.4,1.63-4.54,2.83-6.55,4.78-8,9.65-16,14-24.26a136.39,136.39,0,0,0,11.79-28.92.41.41,0,0,0-.79-.22Z"/><path d="M104.72,107.1a297.22,297.22,0,0,1-21.54,46.22.41.41,0,0,0,.71.41,297.36,297.36,0,0,0,21.62-46.41c.19-.5-.61-.72-.79-.22Z"/><path d="M83.68,152.79,54.22,211.22,24.76,269.66l-16.65,33c-.24.47.48.89.72.42l29.46-58.44,29.46-58.43,16.64-33c.24-.48-.47-.9-.71-.42Z"/><path d="M102.39,131.44l-18,36.13c-5.79,11.63-11.77,23.19-16.93,35.12q-3.76,8.69-6.73,17.66c-2.08,6.24-4,12.53-6.65,18.58-2.51,5.82-5.43,11.45-8.3,17.1q-4.08,8.06-7.73,16.3c-5.23,11.81-10.38,23.92-18.9,33.8-.35.4.24,1,.58.58C27.3,298,32.25,287.5,36.9,277c2.34-5.28,4.66-10.58,7.21-15.77,2.83-5.75,5.86-11.42,8.59-17.22,5.44-11.57,8.58-24,13.35-35.79C71,196.09,77,184.4,82.8,172.67l20.3-40.82c.24-.47-.48-.89-.71-.41Z"/><path d="M19.27,306.32c-2.2,4.43-4.37,8.89-6.61,13.3-1,2-2.19,3.77-4.47,4.3a5.65,5.65,0,0,1-5.69-1.86c-2.74-3.4-1.53-8.6.45-12,2.37-4.11,4.61-8.2,6.65-12.49.22-.48-.49-.9-.72-.41a123.46,123.46,0,0,1-6.09,11.55c-1.84,3-3.08,6.41-2.54,10,.44,3,2.33,5.59,5.42,6.11,3.27.56,5.81-1.24,7.32-4,2.49-4.59,4.67-9.37,7-14,.23-.48-.48-.9-.72-.42Z"/></g></g></svg>