<svg xmlns="http://www.w3.org/2000/svg" viewBox="0 0 265.09 260.6"><defs><style>.cls-1{fill:#fff;}</style></defs><g id="Ebene_2" data-name="Ebene 2"><g id="Ebene_1-2" data-name="Ebene 1"><g id="Ebene_2-2" data-name="Ebene 2"><g id="Ebene_1-2-2" data-name="Ebene 1-2"><path class="cls-1" d="M260.65,29.72a2.5,2.5,0,0,0-3.28-.11c-13.6,12.21-21.39,29.9-36.55,40.51a42.4,42.4,0,0,1-5.53,3.32,23,23,0,0,0-2.78-3.52l1.07-1.53,5.73-8.13c2.95-3.59,5.67-7.45,8.76-10.72,4.17-4.47,8.73-8.55,13.22-12.67l14.54-13.31c2.33-2.2-.83-6-3.21-3.84-7.29,6.89-16.07,12-23.1,19.11a97.8,97.8,0,0,0-10.06,12.54l-3.86,5.49A39.64,39.64,0,0,1,209,63.62a26,26,0,0,1-2.22,1.49c-1.74-1.22-3.53-2.34-5.24-3.6a244.88,244.88,0,0,0,21.3-19.69c5.87-6.19,11.5-12.6,17.12-19a37.73,37.73,0,0,0,6.51-7.42c1.79-2.75-2-5.25-4.08-2.88s-4,4.58-6,6.86c-5.07,4.55-11.17,8.1-16.37,12.37a105.53,105.53,0,0,0-20.75,23c-.57.85-1.14,1.77-1.69,2.66-.08-.16-.17-.32-.24-.49a3,3,0,0,0-.18-.36A57.32,57.32,0,0,1,200,50.81a122.72,122.72,0,0,1,8.28-12.28c3.7-5,7.39-10,11.3-14.86,5.61-5,11.13-10.07,16.38-15.45L238.28,7a2.57,2.57,0,0,0,1-3.49,2.66,2.66,0,0,0-.39-.54,2.37,2.37,0,0,0-.19-.35,2.49,2.49,0,0,0-3.16-.94L235,2h0a52.28,52.28,0,0,0-5.75,4.17c-2.39,1.35-4.74,2.76-7,4.31a54.09,54.09,0,0,0-11.85,10.85c-1.28,1.58-2.48,3.21-3.65,4.87a2.39,2.39,0,0,0-2,.53,78.22,78.22,0,0,0-12.61,12.46c-1.8,1.83-3.6,3.66-5.37,5.51-2.58,2.71-5.67,5.4-7.32,8.84A8,8,0,0,0,174,55.2c-4.34,3-4.69,8.94-2.9,13.46,1.17,2.9,3.4,4.8,5.64,6.77a23.89,23.89,0,0,1-1.91,2.35c-11.06,11.89-23,22.89-35,33.81-12.26,11.15-24.59,22.26-36,34.25a280.31,280.31,0,0,0-18.9,21.71,249.86,249.86,0,0,1-18.54,18.57C59.59,192,51.8,196.73,45.6,203.24c-3.67,3.87-6.77,8.19-10.32,12.23-5.46,5.68-12.11,10-18.27,14.84C10,235.77,3.78,242.21.43,250.6a7.56,7.56,0,0,0,4.51,9.6,7.67,7.67,0,0,0,9.6-4.51c.2-.56.46-1.09.71-1.63a34.55,34.55,0,0,1,4.07-5.75C24.58,242.85,31,238.69,36.94,234a79.15,79.15,0,0,0,9.93-9.18c3-3.27,5.56-6.88,8.48-10.21,6.13-6.4,13.79-11.08,20.45-16.9a256.8,256.8,0,0,0,19.56-19.62,9.14,9.14,0,0,0,1.34-1.37c4.25-5.51,8.76-10.81,13.45-15.94,11.25-12.13,23.45-23.32,35.67-34.43,10.79-9.82,21.61-19.6,31.84-30a8,8,0,0,0,1.8.41L195,98.37c4.82.5,9.69.7,14.26-1.24a14.8,14.8,0,0,0,8.83-12.23q8-8.9,16.08-17.79c6.24-6.91,12.55-13.78,18.24-21.14A86.3,86.3,0,0,0,261,33,2.55,2.55,0,0,0,260.65,29.72ZM193.17,53.11l-.49-.18.13-.15c.39-.41.78-.84,1.16-1.26C193.7,52.06,193.4,52.61,193.17,53.11Zm9,27.67.46.61,0,.06c-.34-.46-.47-.67-.44-.67Zm.73,1.23.1.23c.07.34.14.67.19,1a2.48,2.48,0,0,1,0,.27l-.37.09a6,6,0,0,0,.12-1.58Zm-.16,1.88.31-.28h0l-.29.29Zm.72-.56.19-.2c.17,0,.1.07-.13.21Zm14-5.06-.09-.31.33-.16.36-.18Z"/><path d="M171,88.23a31.33,31.33,0,0,0,1.47-16.11c-.33-1.83-1-3.55-1.42-5.35-.54-2.2,1.34-4.48,2.59-6.22s2.47-3.36,3.75-4.93q3.65-4.54,7.54-8.9A222.11,222.11,0,0,1,242.34.85l-.51-.62c-10.35,16.47-25.69,28.68-38.72,42.83-1.64,1.77-3.25,3.57-4.79,5.41a12.88,12.88,0,0,0-2.77,4.74,4.44,4.44,0,0,0,.77,4.18c1.19,1.3,2.51.81,3.67-.19,3.77-3.28,6.61-7.52,10.23-11,3.86-3.68,7.89-7.16,11.89-10.69,4.41-3.93,8.8-7.89,13.23-11.8a74.3,74.3,0,0,1,13.71-10.13c.46-.25.12-1-.36-.75-8.25,4.47-15,11.25-21.95,17.44L215.32,40.49a104.26,104.26,0,0,0-10.17,9.88,70,70,0,0,1-4.91,5.42c-.92.88-2.25,2.38-3.42.89a3.67,3.67,0,0,1-.51-3.24,12.94,12.94,0,0,1,2.94-4.87c1.54-1.82,3.12-3.59,4.74-5.33,6.17-6.68,12.81-12.89,19.21-19.35,7.09-7.16,13.9-14.67,19.29-23.23.2-.32-.13-.82-.52-.61A222.76,222.76,0,0,0,186.4,43.81q-4.08,4.45-7.94,9.11A74,74,0,0,0,171.08,63a5.33,5.33,0,0,0-.65,4.76,33.66,33.66,0,0,1,1.45,6.6,30.65,30.65,0,0,1-1.7,13.59.41.41,0,0,0,.24.53.42.42,0,0,0,.53-.25Z"/><path d="M248.34,12.79c-11.17,16.28-26.89,28.58-42,41-2.83,2.32-6.77,5.32-5.62,9.52,1,3.6,4.79,3.51,7.47,1.89a30.69,30.69,0,0,0,5-4.21l6-5.61,11.73-11.06,13.36-12.59,6.47-6.17,3.43-3.23c.92-.88,2.15-2.26,3.55-1.72l-.2-.63c-2.43,4.6-6.16,8.25-9.82,11.87L236.38,43,213.37,66c-2,2-6.13,6.16-2.71,8.94,3.09,2.5,7.56-1.53,9.91-3.25A232.39,232.39,0,0,0,243,52.86a232.72,232.72,0,0,0,22-24.18l-.74-.38c-7.74,17.33-21.5,30.79-34.5,44.2-3.17,3.26-6.31,6.54-9.37,9.92-3.23,3.57-6.31,7.29-10.11,10.37a22.9,22.9,0,0,1-11.49,5.35c-4.54.54-8.52-1.5-12.85-2.38a11.8,11.8,0,0,0-6.4.3,34.7,34.7,0,0,0-6.75,3.73,148.46,148.46,0,0,0-13.41,9.58c-.42.33.11,1,.52.63q5.87-4.66,12.16-8.76a58.69,58.69,0,0,1,6.46-3.87,11.13,11.13,0,0,1,7-.86c4.17.77,8,2.78,12.33,2.54a22,22,0,0,0,10.86-4c3.84-2.59,7-6.06,10-9.5q4.85-5.42,9.9-10.66c6.48-6.76,13.13-13.4,19.24-20.44,6.81-7.86,12.93-16.36,17.19-25.9a.41.41,0,0,0-.72-.38,232.43,232.43,0,0,1-38.75,38.61q-2.66,2.07-5.37,4.08a24.44,24.44,0,0,1-5.53,3.54,3.55,3.55,0,0,1-3.51-.2,3.1,3.1,0,0,1-.7-3.37c.82-2.27,3.16-4,4.83-5.7L236.59,44l11.79-11.7c3.64-3.63,7.37-7.28,9.79-11.87a.42.42,0,0,0-.11-.58l-.09,0c-1.48-.54-2.76.39-3.82,1.34-1.9,1.73-3.73,3.53-5.6,5.28L237.19,37.16,214.65,58.44c-1.76,1.66-3.47,3.45-5.36,5-1.49,1.19-3.68,2.62-5.68,1.93-2.29-.82-2.61-3.66-1.75-5.61,1-2.21,3.07-3.72,4.88-5.21,7.21-5.9,14.5-11.78,21.39-18.08A136.25,136.25,0,0,0,249,13.22a.41.41,0,1,0-.67-.48Z"/><path d="M170.29,88a297.39,297.39,0,0,1-35.93,36.19.42.42,0,0,0,0,.58.41.41,0,0,0,.57.05A296.92,296.92,0,0,0,171,88.45C171.31,88,170.63,87.56,170.29,88Z"/><path d="M135,123.83l-47.51,45L40,213.83,13.14,239.24c-.39.36.15,1,.53.64l47.52-45,47.51-45,26.84-25.41c.39-.37-.14-1-.53-.64Z"/><path d="M159.85,110.09,130.67,138c-9.38,9-18.93,17.83-27.82,27.31q-6.48,6.9-12.32,14.33c-4.07,5.17-8,10.44-12.55,15.23-4.33,4.63-9,8.94-13.6,13.28q-6.57,6.19-12.8,12.72c-8.92,9.34-17.87,19-29.23,25.39-.46.26-.11,1,.35.75,10.07-5.63,18.29-13.84,26.22-22.14,4-4.17,8-8.38,12.13-12.39,4.61-4.46,9.38-8.76,13.91-13.3,9-9,16.2-19.67,24.69-29.15,8.76-9.73,18.37-18.7,27.8-27.77l32.93-31.53C160.76,110.35,160.23,109.71,159.85,110.09Z"/><path d="M22.4,246.46c-3.57,3.43-7.12,6.89-10.73,10.28-1.61,1.54-3.33,2.8-5.66,2.53a5.63,5.63,0,0,1-4.72-3.68c-1.43-4.13,1.47-8.61,4.49-11.14,3.62-3.06,7.11-6.15,10.48-9.5.37-.37-.15-1-.53-.62a123.65,123.65,0,0,1-9.65,8.8c-2.74,2.2-5.07,5-5.77,8.55-.61,3,.29,6.05,3,7.58s5.88.8,8.24-1.28c3.9-3.48,7.57-7.24,11.33-10.8.38-.38-.15-1-.54-.64Z"/></g></g></g></g></svg>