<svg xmlns="http://www.w3.org/2000/svg" viewBox="0 0 65.62 72.79"><defs><style>.cls-1{fill:#c6ecac;}.cls-2{fill:#992b4d;}</style></defs><g id="Ebene_2" data-name="Ebene 2"><g id="Ebene_1-2" data-name="Ebene 1"><path class="cls-1" d="M42.35,12.63c-3.3-.46-5.21,1.64-6.26,4.3-.91.78-1.84,1.56-2.73,2.36a3.5,3.5,0,0,0-.07-.45c-.61-2.75-3.69-3.09-5.74-1.73a8.61,8.61,0,0,0-3.16,4.78c-.3.94-.56,1.9-.81,2.85h-.24c0-.39,0-.77,0-1.15-.18-3.23-1.08-7-3.67-9.15-1.37-1.16-3.33-2-5.15-1.49a3.77,3.77,0,0,0-1.21.64,8.43,8.43,0,0,0-2.91-1.24c-1.73-.37-3.57-.21-5.27-.49A2.53,2.53,0,0,0,2,13.6c-.44,2.05.48,3.72,1.65,5.33.64.87,1.32,1.69,2,2.51l-.22-.05A2.51,2.51,0,0,0,3.56,26l8.89,6.22a2.14,2.14,0,0,0,1.62.31l1.21.92c-.54,1.43-1.09,2.85-1.63,4.28l-.16-.06a2.59,2.59,0,0,0-2.82,1.15,15.31,15.31,0,0,0-.34,16.34c1.22,2,4.83,1.32,4.66-1.26,0-.39,0-.78,0-1.17a22.9,22.9,0,0,0,1.93-1.75,2.39,2.39,0,0,0,3.69.33c2.12-2,4-4.36,3.52-7.43-.42-2.66-3.19-4.9-5.9-4.11.47-1.24.93-2.48,1.4-3.71a2.62,2.62,0,0,0,2.32-1.85c.32-1.38.63-2.78.89-4.19.79,1.59,3.39,2,4.39.29,1.25.25,2.49.56,3.7.92,2,.6,4.13,1.91,6.23,1.17,1.87-.67,2.54-2.62,2.69-4.43.17-2,0-4.09.2-6.12a12.16,12.16,0,0,1,.38-2.07,28.19,28.19,0,0,0,3.05-2.93C44.53,15.56,44.37,12.92,42.35,12.63ZM34.87,27.26h0l-1.32-.46A12.88,12.88,0,0,1,35,24.73C35,25.58,34.94,26.43,34.87,27.26Zm-19,.31c0-.06,0-.08,0,0ZM16.71,17s0-.09,0-.1A.1.1,0,0,1,16.71,17Zm-5.27,1.57c.06.33.15.66.22,1l0,1.12c-.88-1-1.8-2.05-2.68-3.09-.13-.16-.25-.34-.39-.5l.17,0A4.14,4.14,0,0,1,11.44,18.56Zm23.35,9.56c0,.31-.4.38,0,0Z"/><path class="cls-2" d="M33.41,46.63a3.22,3.22,0,0,0,1.07-1,.6.6,0,0,0,.09-.15,2.86,2.86,0,0,0,.3-.78,3.82,3.82,0,0,0,0-1.58,2.53,2.53,0,0,0-.12-.36,1.15,1.15,0,0,0,.12-.25c.06.12.11.25.17.37A2.49,2.49,0,0,0,37.62,44a16.07,16.07,0,0,0,3.18.11l.11,0c.15.39.28.78.4,1.18a2.54,2.54,0,0,0,2.41,1.83,2.57,2.57,0,0,0,2.41-1.83,4.77,4.77,0,0,0-1.36-4.64,6.57,6.57,0,0,0-1.08-1.39,5.69,5.69,0,0,0-2.79-1.55,14.77,14.77,0,0,0-2.2-.22,3.21,3.21,0,0,0-.48-.34,2.42,2.42,0,0,0-.64-.25,3,3,0,0,0-.92-.94,2.55,2.55,0,0,0-1.93-.25,3.06,3.06,0,0,0-.79.39,4.16,4.16,0,0,0,.21-1.36,3.49,3.49,0,0,0,.29-.58c.66-1.68-.61-3.51-2.18-4.06a6.49,6.49,0,0,0-3.47.05,4.33,4.33,0,0,0-2.92,2.26,4.19,4.19,0,0,0-.3,1,5.46,5.46,0,0,0-2-.94,3.68,3.68,0,0,0-4.31,2.3,3.27,3.27,0,0,0,.34,2.75,3.93,3.93,0,0,0,1.14,2.36c2,2,6.28,1.49,7.16-1.46a.36.36,0,0,0,0-.1l.1,0a4.8,4.8,0,0,0,.63-.24,4.51,4.51,0,0,0,1,.32A3.91,3.91,0,0,0,33,37.58a3.16,3.16,0,0,0,0,1.11c-.09,0-.18-.07-.27-.09a4.4,4.4,0,0,0-.81-.12h-.27a7.17,7.17,0,0,0-2.13.49,6,6,0,0,0-1.19.58,4.88,4.88,0,0,0-1.09,1,2.54,2.54,0,0,0-1,.95A2.5,2.5,0,0,0,27,44.91a5.68,5.68,0,0,0,.58.79,3.07,3.07,0,0,0,.26.25,5.77,5.77,0,0,0,.81.59A4.9,4.9,0,0,0,30,47a5.92,5.92,0,0,0,1.46.1A4.41,4.41,0,0,0,33.41,46.63Z"/><path class="cls-2" d="M55.05,59.22A4.09,4.09,0,0,0,53,55.88a16.48,16.48,0,0,0-1.43-4.6c-.92-1.91-2.51-4-4.84-4a2.53,2.53,0,0,0-2.09.92,3.34,3.34,0,0,0-1.36,1.57,16.77,16.77,0,0,0-1,2.71,6.52,6.52,0,0,0-2.94-2.82A5.92,5.92,0,0,0,35,49.43l-.27-.16a2.57,2.57,0,0,0-3.42.9,2.53,2.53,0,0,0,.9,3.42c.08,0,.14.09.22.14a6.48,6.48,0,0,0,2.79,4.47A2.32,2.32,0,0,0,38,58a5.82,5.82,0,0,0,.46,1.33,4.12,4.12,0,0,0-.1,1.27,6.33,6.33,0,0,0,3.39,5.1,4.05,4.05,0,0,0,3.73-.19,4.22,4.22,0,0,0,1,3.5A3.69,3.69,0,0,0,52,72.29a2.62,2.62,0,0,0,1.15-1.48,2,2,0,0,0,.45-.39,3.35,3.35,0,0,0-.83-5.29,3.63,3.63,0,0,0-1.14-.37A16.25,16.25,0,0,0,54,62,3.89,3.89,0,0,0,55.05,59.22Zm-7.53,0A4.87,4.87,0,0,0,47,57.87a4.25,4.25,0,0,0-.44-.64c0-.13,0-.26,0-.4a9.16,9.16,0,0,0,1.09.86l.27.16A4.09,4.09,0,0,0,47.52,59.18Zm.1,1.55a3.14,3.14,0,0,0,.28.68c-.22.25-.44.49-.64.74A5.11,5.11,0,0,0,47.62,60.73Z"/><path class="cls-2" d="M63.54,64.09a6.06,6.06,0,0,0-1.07-.75,3.69,3.69,0,0,0-4.51.74,4,4,0,0,0-.74,1,7.76,7.76,0,0,0-.34.84A6.47,6.47,0,0,0,56.72,67a3.69,3.69,0,0,0,0,.88c.06.52.14,1,.25,1.54a1.94,1.94,0,0,0,.45.85,1.88,1.88,0,0,0,.7.64,2,2,0,0,0,.93.3,1.94,1.94,0,0,0,.76,0,.33.33,0,0,1,.1.06,3.93,3.93,0,0,0,2.12.49,4.1,4.1,0,0,0,1.61-.43,2.84,2.84,0,0,0,.86-.64,3.89,3.89,0,0,0,1.09-2.78A5.11,5.11,0,0,0,63.54,64.09Z"/></g><g id="Striche"><path d="M64.71,64.54a5.39,5.39,0,0,0-1-1.63.24.24,0,0,0-.08-.47c-.2,0-.39,0-.58,0a1.71,1.71,0,0,0-.65-.11.25.25,0,0,0-.22.21,20.43,20.43,0,0,0-2.43.58,6.66,6.66,0,0,0-2.8,1.39,3.47,3.47,0,0,0-.88,1.5,4.22,4.22,0,0,1-1.37-.11,4.31,4.31,0,0,0-1.49-2.34l-.06,0A12.05,12.05,0,0,0,52,62a4.91,4.91,0,0,0,1-.37.3.3,0,0,0,.13,0,.2.2,0,0,0,.15-.17,6.53,6.53,0,0,0,1.33-1c1.29-1.26,2.08-3.14.92-4.76-1.35-1.89-3.75-2-5.87-1.86a2.44,2.44,0,0,0,.35-.43,2.68,2.68,0,0,1,.28-.18.24.24,0,0,0,0-.4,7.08,7.08,0,0,0,0-3.79,4.37,4.37,0,0,0-3.53-3.57,4.19,4.19,0,0,0,.33-1,.29.29,0,0,0,.14-.22.24.24,0,0,0-.07-.17A5.74,5.74,0,0,0,45.28,39a3.66,3.66,0,0,0-2.22-.81c-.89,0-1.74.36-2.63.33l0-.1a9.51,9.51,0,0,0-1.23-2.23,3.28,3.28,0,0,0-3.79-1.3,3.63,3.63,0,0,0-.73.44,5.7,5.7,0,0,0,.06-3.25,17.82,17.82,0,0,0,5.14-4.48c.85-1.15,1.28-2.95,0-3.86a12.27,12.27,0,0,0,2-3.23.25.25,0,0,0-.17-.31l-1.85-.31A49.86,49.86,0,0,0,42,10.43c0-.25-.35-.32-.47-.12a11.76,11.76,0,0,1-2.28,2.79,9.52,9.52,0,0,1-1.49,1.12c-.5.28-.79.41-1.24,0s-.08-.23-.42-.56a.7.7,0,0,0-1-.12,3.06,3.06,0,0,0-.64.87,4.4,4.4,0,0,1-.67.76,1.08,1.08,0,0,1-1.39.34q-.95.09-.84-.93a.25.25,0,0,0-.42-.24,8.47,8.47,0,0,0-1.82,2.84C28.83,16,27.84,13.68,27,15.11a7.65,7.65,0,0,0-.44,1.8c-.18.66-.37,1.31-.57,2-.26.83-.55,1.65-.86,2.47-.06-1.52-.15-3-.29-4.55A80.23,80.23,0,0,0,23.12,6.33a14.52,14.52,0,0,0-1.27-4,3.19,3.19,0,0,0-.94-1.06C20.27.79,19.33.78,18.83.11a.25.25,0,0,0-.43.26c2.39,4.78,4.24,9.44,4.35,14.86,0,.87,0,1.74,0,2.61A15.3,15.3,0,0,0,16,10.07a.26.26,0,0,0-.37.15A7.71,7.71,0,0,0,15.22,12a4.82,4.82,0,0,0-3.33-1.72c-1.16-.16-2.34-.15-3.5-.35S6,9.4,4.72,9.22a.25.25,0,0,0-.28.37c.09.18.17.37.26.55a27.46,27.46,0,0,0-3.22-.56,1.25,1.25,0,0,0-1.39.67,1.6,1.6,0,0,0,.3,1.54,3.32,3.32,0,0,0,1,.77c.18.11.37.19.55.3a1.63,1.63,0,0,1,.55.46c.57.38.44.83-.39,1.37-.23-.11-.54.2-.3.39l3.1,2.49a3.32,3.32,0,0,1,.61.5c.75,1,.13,1.55-.45,2-.43.32-.92.55-1.32.9C2.59,22,3,23.23,4,24.21c.32.32.7.59,1,.93a1.91,1.91,0,0,1,.2,2,5.16,5.16,0,0,0-.24.47,1.2,1.2,0,0,0,.44,1.2,7.39,7.39,0,0,0,2.52,1.1l3.49,1.23-.7.82a.26.26,0,0,0,.18.43,41.64,41.64,0,0,0,8.86.2A6.25,6.25,0,0,0,18.19,34a4.48,4.48,0,0,0-.28.47c0-.19-.25-.33-.41-.15-1,1.16-2.54,1.73-3.83,2.5a21.4,21.4,0,0,0-3.21,2.31,10.32,10.32,0,0,0-3.53,6.29c0,.11.09.21.18.24a1.05,1.05,0,0,0,.78,0c.49-.19,1.07-1,1.35.08a6,6,0,0,1-.17,1.87C9,48.41,8.9,49.22,8.82,50c0,.13.12.25.25.25a2.38,2.38,0,0,0,.39,0,7.6,7.6,0,0,0-.41,2.49,23.58,23.58,0,0,0,.33,5.69.25.25,0,0,0,.37.14,27.73,27.73,0,0,0,7.07-6.51,13.08,13.08,0,0,1,.55,3.18.25.25,0,0,0,.47.12A10.6,10.6,0,0,0,19.46,50a3.64,3.64,0,0,1,1.09,2.47.26.26,0,0,0,.38.21c2.59-1.31,4.95-3.58,4.38-6.73-.06-.31-.54-.18-.48.13.5,2.79-1.59,4.79-3.83,6a4.13,4.13,0,0,0-1.56-2.79.25.25,0,0,0-.43.17,12.36,12.36,0,0,1-1.2,5,12.89,12.89,0,0,0-.65-3,.25.25,0,0,0-.46-.06,27,27,0,0,1-6.89,6.5,23.37,23.37,0,0,1-.31-3.83c0-1.14-.17-3.55.91-4.27h0l.05,0c.22-.18-.06-.55-.3-.39l-.05,0h0l-.76.25c.12-1.06.23-2.12.33-3.19.05-.54.21-1.36-.36-1.71a1,1,0,0,0-1,0c-.58.25-.74.29-.73-.44a4.57,4.57,0,0,1,.59-1.55,12.94,12.94,0,0,1,4.66-4.89c1.56-1,3.58-1.72,4.86-3.12a3.52,3.52,0,0,0-.27,2.24,7.46,7.46,0,0,0,1.78,3.06,7.36,7.36,0,0,0,.91.86.18.18,0,0,0-.17.11,4.83,4.83,0,0,1-1.28,1.42A3.88,3.88,0,0,0,17.65,44,5.77,5.77,0,0,0,17.32,46c0,.4-.14,1.46.54,1.34.26,0,.2-.37,0-.45s0-.7,0-.8a7.16,7.16,0,0,1,.05-.8,4,4,0,0,1,.51-1.61c.54-.9,1.59-1.35,2-2.31a.22.22,0,0,0,0-.16,4.19,4.19,0,0,0,1.45.62,4.68,4.68,0,0,0,2.74-.26c.15-.06.28-.15.42-.22a.94.94,0,0,0-.06.15,6.93,6.93,0,0,0,1.72,6.44,5.28,5.28,0,0,0,2.88,1.49,4.78,4.78,0,0,0,1.51,0,2.38,2.38,0,0,0-.16,1.52,10.58,10.58,0,0,0,.94,3,6.15,6.15,0,0,0,4.22,3.44A6,6,0,0,0,39.27,57a5.93,5.93,0,0,0-.57.75,5.52,5.52,0,0,0,0,6A5.16,5.16,0,0,0,44.2,66a5.62,5.62,0,0,0,.82-.27,6.62,6.62,0,0,0,1.27,4.9,4.78,4.78,0,0,0,2,1.58,3.53,3.53,0,0,0,1.24.22.22.22,0,0,0,.27,0,5.17,5.17,0,0,0,1.45-.28,11.09,11.09,0,0,0,2.28-1l.16.08a.25.25,0,0,0,.31-.37h0a2.43,2.43,0,0,0,1-2.2,12.93,12.93,0,0,0-.2-2.15,4.77,4.77,0,0,0,1.13.06,4.45,4.45,0,0,0,.77,3.23,6.68,6.68,0,0,0,5.45,2.51,3,3,0,0,0,2.44-1.16,4.93,4.93,0,0,0,.85-2.74A8.92,8.92,0,0,0,64.71,64.54ZM52.08,62.9a4.93,4.93,0,0,0-4.32-.33A5.7,5.7,0,0,0,48,61.19a4,4,0,0,0,0-.49,4.18,4.18,0,0,0,1.54,1.17,3.74,3.74,0,0,0,1.9.27C51.66,62.38,51.87,62.64,52.08,62.9ZM53.26,61a1.88,1.88,0,0,1,.4-1.33,1.08,1.08,0,0,1,1.27-.29c-.09.13-.19.27-.29.39A6.75,6.75,0,0,1,53.26,61Zm1.26-5.58a2.84,2.84,0,0,1,1.09,2,3,3,0,0,1-.41,1.53,1.58,1.58,0,0,0-1.87.36,2.48,2.48,0,0,0-.54,2,3.53,3.53,0,0,1-2.57.36,3.66,3.66,0,0,1-2.29-1.86,8.18,8.18,0,0,0-.48-2,5,5,0,0,1,1.35-3.26l.28-.15a.21.21,0,0,0,.18.08C51,54.27,53.07,54.14,54.52,55.37Zm-14.81.9a5.4,5.4,0,0,1-1.44.53,3.44,3.44,0,0,1,1-1.35,1.73,1.73,0,0,1,1.43-.25A2,2,0,0,1,39.71,56.27Zm1.48-.8a6.45,6.45,0,0,0,.12-3.09,5.63,5.63,0,0,0-.91-2.78c-1.16-1.61-3.49-3-5.53-2.53a4.23,4.23,0,0,0,.23-.48,4.52,4.52,0,0,0,.22-2,4.76,4.76,0,0,0,1.69.2,6.86,6.86,0,0,0,2-.26.22.22,0,0,0,.29-.1h0a2.68,2.68,0,0,0,.47-.26,7.42,7.42,0,0,0,.84,1.28A7.75,7.75,0,0,0,42.09,47a2.8,2.8,0,0,0,.65.32,4.93,4.93,0,0,0-1,4.24,4.65,4.65,0,0,0,2,3.41,9,9,0,0,0-2.66.66C41.11,55.59,41.16,55.54,41.19,55.47ZM39.93,43.29a.24.24,0,0,0-.45.17,1.72,1.72,0,0,0,.07.21l-.24.14a4.16,4.16,0,0,1,.41-1.31c.16-.36.41-.94.85-1A3.09,3.09,0,0,1,40,43.22Zm6.8,11.91a.2.2,0,0,0,.08.1.26.26,0,0,0,.34-.09l.07-.15.63-.21a5.39,5.39,0,0,0-.8,2l0,0a3.13,3.13,0,0,0-1.5-1.4A6,6,0,0,0,46.73,55.2ZM48.49,54a7.69,7.69,0,0,1-.92.37,2.79,2.79,0,0,1,.55-.64,1.78,1.78,0,0,1,1.18-.46A8.09,8.09,0,0,0,48.49,54Zm1.21-5.37A7.51,7.51,0,0,1,50,51.08a4.34,4.34,0,0,1-.3,1.78,2.17,2.17,0,0,0-1.86.47,3.64,3.64,0,0,0-1,1.32,4.57,4.57,0,0,1-1.87.23c-1.55-.17-2.38-1.58-2.69-3s-.25-3.3,1-4.38c0,0,0,0,0,0a3.13,3.13,0,0,0,1.63-.19.23.23,0,0,0,.22-.1A3.38,3.38,0,0,0,46.53,46,3.66,3.66,0,0,1,49.7,48.67ZM45.21,46a3,3,0,0,1,.26-.89,1,1,0,0,1,.57-.53,1.58,1.58,0,0,1,.57,0,3.5,3.5,0,0,1-.4,1v0a2.64,2.64,0,0,1-.23.35,3.07,3.07,0,0,1-.81.71C45.17,46.39,45.18,46.18,45.21,46Zm-.94-7a4.42,4.42,0,0,1,2.29,3.08A5.62,5.62,0,0,1,46.7,44a2.43,2.43,0,0,0-.81.07,1.49,1.49,0,0,0-.82.68,3.24,3.24,0,0,0-.33,1,5.71,5.71,0,0,0-.07,1.09,2.36,2.36,0,0,1-2-.06,5,5,0,0,1-1.53-1.43,6.75,6.75,0,0,1-1-1.54,3.87,3.87,0,0,0,.93-3,7,7,0,0,0-.44-1.8C41.87,39.05,43,38.44,44.27,39ZM36,35.26c1.89-.41,3.12,1.54,3.78,3A8.22,8.22,0,0,1,40.56,41c-.61.07-1,.63-1.23,1.14a4.75,4.75,0,0,0-.53,1.91,4.48,4.48,0,0,1-1.16.21A4.69,4.69,0,0,1,35.23,44c0-.19-.07-.37-.12-.54a12.48,12.48,0,0,0-1.93-3.75c-.13-.17-.27-.32-.41-.47s0,0,0-.05a6.56,6.56,0,0,1,1.06-2.27A3.88,3.88,0,0,1,36,35.26Zm-8.4,1.22.29.35a4.36,4.36,0,0,0,1.52,1.32,8.94,8.94,0,0,0-2.32.84A6.4,6.4,0,0,0,27.57,36.48Zm5.91-.14a4.16,4.16,0,0,1-1.24.81,2,2,0,0,1,1.9-1.84A3.17,3.17,0,0,1,33.48,36.34Zm-.46.95a8,8,0,0,0-.64,1.6,2.94,2.94,0,0,0-1.6-.67,7.76,7.76,0,0,0,1-.33A8.3,8.3,0,0,0,33,37.29Zm1.27-2.44a.15.15,0,0,0-.1,0,2.49,2.49,0,0,0-2.46,2.56h0l-.65.24a2.22,2.22,0,0,1-1.39.14,2.86,2.86,0,0,1-1.14-.87c-.35-.4-.69-.81-1-1.22a5,5,0,0,0-1.79-3.15,2,2,0,0,1,.1-.44,4.81,4.81,0,0,1,2.26-2.28,10,10,0,0,1,1-.53.25.25,0,0,0,.16.1c.85.11,1.69-.06,2.53,0a2.27,2.27,0,0,1,2,1.66q.16.42.3.87l-.25.15a.25.25,0,0,0,.25.44l.14-.09A5.39,5.39,0,0,1,34.29,34.85Zm-7.5-.1-.09-.1a4.49,4.49,0,0,1-.89-1.39A4.39,4.39,0,0,1,26.79,34.75Zm3.6-5.87h0ZM26.67,18.42q.21-.69.39-1.38a4.72,4.72,0,0,1,.34-1.39c.48-.62.84.41,1,.82s.44,1,.67,1.56c.09.21.4.12.45-.06a7.71,7.71,0,0,1,1.54-2.81,1.51,1.51,0,0,0,1.63,1.06,2.74,2.74,0,0,0,1.65-.92c.21-.22.47-.79.69-.92,1.18-.7.51,0,.89.24s.53.47,1.12.39a3.91,3.91,0,0,0,1.64-.85,12,12,0,0,0,2.6-2.63,49.25,49.25,0,0,1-2.12,8.53.25.25,0,0,0,.18.31l1.81.3a11.3,11.3,0,0,1-1.91,3,.25.25,0,0,0,.05.39c2.25,1.17-.23,3.84-1.29,4.9a19.35,19.35,0,0,1-3.45,2.68h0A3.58,3.58,0,0,0,32.71,29a3.84,3.84,0,0,0-1.47-.19c.27,0,.29-.32.1-.45a8.1,8.1,0,0,0,2.6-1.2,5.08,5.08,0,0,0,2.32-4.4c0-.32-.53-.32-.5,0A4.71,4.71,0,0,1,33.39,27,14,14,0,0,1,28,28.56c-.31.05-.18.53.14.48l.34-.05-.54.28a6.46,6.46,0,0,0-2.36,2.07,3.06,3.06,0,0,0-.33.87,3.54,3.54,0,0,0-.89-.39.21.21,0,0,0-.17-.28h0a.9.9,0,0,0,.34-.22c.73-.7.52-2.38.56-3.27.09-1.83.11-3.66.07-5.5C25.75,21.2,26.25,19.83,26.67,18.42ZM19.28,1c.34.15.71.26,1.1.47,1.2.63,1.54,2.12,1.85,3.33a74.08,74.08,0,0,1,1.7,8.46,78.22,78.22,0,0,1,.76,8.77v.43c-.12.31-.24.62-.37.93s.24.5.39.29c0,.89,0,1.78,0,2.67,0,.72-.05,1.43-.09,2.15,0,.32,0,.64-.05,1a6.31,6.31,0,0,1-.08.76c0,.47-.29.7-.91.7-.19-.25-.63,0-.43.25a1.06,1.06,0,0,0,.29.27,5.78,5.78,0,0,0-.72,0,1.72,1.72,0,0,0,.09-.36c0-.11,0-.23,0-.35a.23.23,0,0,0,.09-.19c-.43-5.44.55-10.86.3-16.31C23,9.51,21.34,5.26,19.28,1Zm-.14,31.05a42.92,42.92,0,0,1-7.77-.17l.63-.73a.26.26,0,0,0-.12-.42L8.44,29.55c-.61-.22-1.23-.41-1.83-.65a2.1,2.1,0,0,1-.72-.35c-.13-.35-.25-.69-.37-1l.18-.27c.21-.65.45-1,.15-1.65-.4-.94-1.33-1.4-1.92-2.18-1.63-2.17,2.45-2.58,2.52-4.54,0-.77-.61-1.21-1.16-1.65-.84-.68-1.68-1.36-2.53-2a1.38,1.38,0,0,0,.31-2.08c-.62-.76-1.83-.9-2.32-1.75-.94-1.63,1.31-1.18,2-1l2.31.42a.25.25,0,0,0,.28-.37c-.09-.19-.18-.38-.26-.57,1.61.28,3.2.72,4.84.86,2,.15,4.3.18,5.23,2.26.1.24.45.1.46-.13a7.92,7.92,0,0,1,.43-2.11,14.74,14.74,0,0,1,6.32,7.59.25.25,0,0,0,.34.14c-.12,3.15-.41,6.29-.39,9.44-.05-.14-.1-.28-.14-.41C20.24,22,15,18.92,10,16.7c-.29-.12-.55.31-.25.44C14.17,19.08,18.68,21.58,21,26a11.2,11.2,0,0,1,1.14,3.26,3.74,3.74,0,0,1,.14,1.15,2.39,2.39,0,0,1-.56,1.26,6.44,6.44,0,0,0-1,.37C20.14,32.08,19.49,32.06,19.14,32.08Zm1,8.23c-1.43-1.34-2.9-3.45-1.89-5.43A5.44,5.44,0,0,1,21.1,32.4l.21,0a2.41,2.41,0,0,0,1-.32l.42-.06a.19.19,0,0,0,.22.19,3.46,3.46,0,0,1,2.32.59A2.3,2.3,0,0,0,25.56,34a11.67,11.67,0,0,0,1,1.3c.15.18.31.36.46.55a6,6,0,0,1-.25,2.51c-.29.09-.58.11-.87.19a1.39,1.39,0,0,0-.75.49,2.94,2.94,0,0,0-.45,1.59.22.22,0,0,0,.18.22A4,4,0,0,1,20.14,40.31Zm5.08.31h0a2.36,2.36,0,0,1,.35-1.29.77.77,0,0,1,.21-.19,1.13,1.13,0,0,1,.36-.14l.42-.08a5.55,5.55,0,0,1-.4.72,4.23,4.23,0,0,0-.68.78Zm2,7.12a6.5,6.5,0,0,1-1.89-5.6,3.39,3.39,0,0,1,.57-1.46,4.3,4.3,0,0,0,.59-.69A7.5,7.5,0,0,1,30,38.53a.25.25,0,0,0,.29.18A3,3,0,0,1,33,40.35a13.76,13.76,0,0,1,1.43,2.71,5.75,5.75,0,0,1,.29,1.06.23.23,0,0,0,0,.14,4.06,4.06,0,0,1-.18,2.17.21.21,0,0,0-.24,0,4.59,4.59,0,0,1-1,.19,2.09,2.09,0,0,0-.91.55,3.82,3.82,0,0,0-.51.79,1.44,1.44,0,0,1-.55.62.21.21,0,0,0-.1.24A4.57,4.57,0,0,1,27.24,47.74ZM34.31,47A3.33,3.33,0,0,1,33,48.22a6.68,6.68,0,0,1-.87.37c.24-.32.39-.7.65-1a1.55,1.55,0,0,1,.81-.51C33.8,47,34.07,47,34.31,47Zm-1.46,7.68A8.28,8.28,0,0,1,31.68,52c-.18-.66-.69-2.16.07-2.62a.22.22,0,0,0,.11-.19,8.06,8.06,0,0,0,1.1-.42A4.38,4.38,0,0,0,34.5,47.6a.22.22,0,0,0,.16,0c1.72-.57,3.52.46,4.74,1.61s1.48,3.09,1.51,4.84a4.65,4.65,0,0,1,0,.66,2.22,2.22,0,0,0-1.81.26,4.12,4.12,0,0,0-1.27,1.67.23.23,0,0,0,0,.23A4.59,4.59,0,0,1,37,57,5.18,5.18,0,0,1,32.85,54.63Zm6.38,9A5,5,0,0,1,39,58.34a5.05,5.05,0,0,1,2.1-2.12,7.64,7.64,0,0,1,2.9-.75.24.24,0,0,0,.29.33c1.22-.38,2.13.66,2.57,1.67a2.92,2.92,0,0,1,.14.38,4.77,4.77,0,0,0,.5,2,8.94,8.94,0,0,1,.06,1,5.14,5.14,0,0,1-.61,2.45.23.23,0,0,0-.13-.1,2.42,2.42,0,0,0-2,.56,5.93,5.93,0,0,0-1.33,1.81A4.68,4.68,0,0,1,39.23,63.61ZM44,65.52A4.83,4.83,0,0,1,45,64.27a1.89,1.89,0,0,1,1.67-.53h0a4.26,4.26,0,0,1-2.47,1.75Zm7.7,5.93a7,7,0,0,1-1.17.38,6.86,6.86,0,0,1,1.13-.74,1.89,1.89,0,0,1,1-.23,2,2,0,0,1,.24,0C52.54,71.12,52.11,71.29,51.73,71.45ZM54,70.21a4.52,4.52,0,0,1-.47.37,2.59,2.59,0,0,0-.72-.21,2.27,2.27,0,0,0-1.18.2,7.55,7.55,0,0,0-2,1.38,3.52,3.52,0,0,1-.64,0,3.85,3.85,0,0,1-2-1.21,6.11,6.11,0,0,1-1.43-5.26,4.79,4.79,0,0,0,2-2.25.23.23,0,0,0,.16,0c1.43-.9,3.24-.36,4.6.43a4.76,4.76,0,0,1,.47.31,10.81,10.81,0,0,1,.65,1.21c.22.5.34,1,.86,1.21a10.65,10.65,0,0,1,.19,1.49A2.85,2.85,0,0,1,54,70.21Zm3.32-.46a4,4,0,0,1-.83-3.43.29.29,0,0,0,0-.09A3,3,0,0,1,57.19,65a5.92,5.92,0,0,1,2.75-1.37,14.86,14.86,0,0,1,3-.64,3.59,3.59,0,0,1,1.38,1.91,8.56,8.56,0,0,1,.63,3,6,6,0,0,1-.16,1.53.25.25,0,0,0-.22-.06,2,2,0,0,0-1.49,2.24,2.59,2.59,0,0,1-.92.19A6.35,6.35,0,0,1,57.32,69.75Zm6.24,1.62a1.31,1.31,0,0,1,0-.4,1.51,1.51,0,0,1,.23-.52,1.71,1.71,0,0,1,.37-.39,1.45,1.45,0,0,1,.49-.22A2.94,2.94,0,0,1,63.56,71.37Z"/></g></g></svg>