<svg width="66" height="73" viewBox="0 0 66 73" fill="none" xmlns="http://www.w3.org/2000/svg">
<g clip-path="url(#clip0)">
<path d="M15.3 23.5C15.4 24.2 15.4 24.8 15.5 25.5C17.1 25.1 18.6 24.7 20.2 24.2C18.2 21.3 17.5 17.7 15.1 15C13.9 13.7 12.2 12.7 10.5 12.3C8.80001 11.9 6.90001 12.1 5.20001 11.8C3.90001 11.6 2.40001 12.1 2.10001 13.5C1.70001 15.6 2.60001 17.2 3.80001 18.8C4.80001 20.2 5.90001 21.5 7.00001 22.7C8.80001 24.7 10.9 27.2 11.3 29.9C12.6 29.2 13.8 28.5 15.1 27.7C12.1 25.6 9.20001 23.6 6.20001 21.5C5.60001 23 4.90001 24.5 4.30001 26.1C5.60001 26.3 6.60001 26.7 7.60001 27.4C8.70001 28.1 9.50001 29.4 11 29.7C14.5 30.3 16.1 26.3 16.5 23.6C16.7 22 16.9 20.4 16.9 18.7C16.9 18.6 17 16.9 16.9 16.8C17.1 17 16.4 17.5 16.4 17.5C16.3 17.6 16 17.6 15.9 17.7C15.8 17.7 16.2 17.8 16.1 17.8C16 17.7 16.6 18.1 16.5 18C16.5 18 16.8 18.3 16.9 18.4C17.1 18.6 17.4 19.2 17.7 19.6C17.8 19.9 17.8 19.8 17.9 20.3C18 20.6 18.1 21 18.2 21.3C18.4 21.9 18.5 22.5 18.5 23.1C18.7 26.4 18 29.5 17.3 32.7C18.5 32.2 19.7 31.7 21 31.2C20.2 30.6 19.4 30 18.6 29.4C17.8 28.8 17 28 16.2 27.6C16 27.5 16 27.2 16.1 27.6C16.1 27.5 16.3 28 16.3 28L16.5 27.5L16.6 27.4C16.8 27.3 16.7 27.3 16.5 27.4C16.3 27.5 16.2 27.6 15.9 27.5C15.6 27.5 15.5 27.5 15.3 27.4C15 27.2 15 27 15 26.6C15 25.8 14.9 25.6 14.7 26.1C16.2 25.9 17.7 25.7 19.3 25.5C17.9 22.8 16.9 19.9 16.4 16.9C14.9 17.5 13.4 18.2 11.8 18.8C12.9 21 14.5 23 16.5 24.5C17.6 25.3 19 25.5 20 24.5C20.9 23.6 21.1 21.8 20 21C18.3 19.7 17.1 18.2 16.1 16.3C15.5 15.2 14.1 14.8 13 15.3C11.8 15.8 11.3 17 11.6 18.2C12.2 21.6 13.3 24.9 15 28C15.5 28.9 16.6 29.3 17.5 29.2C18.6 29 19.2 28.4 19.6 27.4C20.4 25.4 18.7 23.1 16.8 22.7C14.4 22.2 12.5 24 11.7 26.1C11.4 27 11.2 28.1 11.4 29C11.7 30.2 12.5 30.9 13.4 31.6C15.1 32.9 16.8 34.2 18.5 35.5C19.8 36.5 21.8 35.4 22.2 34C23 30.5 23.8 27 23.6 23.4C23.4 20.2 22.5 16.4 19.9 14.2C18.5 13 16.6 12.2 14.8 12.7C12.8 13.3 12 15.2 12 17.2C12 18.9 12.1 20.5 11.8 22.2C11.7 22.9 11.6 23.6 11.4 24.3C11.3 24.6 11.3 24.6 11.3 24.5C11.2 24.7 11.1 24.8 11 25C11.1 24.8 11.1 24.9 10.9 25.1C11 24.9 11.2 24.8 11.5 24.8C11.9 24.9 12.3 25 12.8 25.1C13 25.3 12.9 25.3 12.7 25C12.6 24.9 12.5 24.8 12.4 24.7C12.2 24.5 12 24.3 11.7 24.1C11.1 23.6 10.5 23.1 9.80001 22.8C8.60001 22.1 7.20001 21.6 5.80001 21.3C3.00001 20.8 1.50001 24.2 3.90001 25.9C6.90001 28 9.80001 30 12.8 32.1C14.3 33.1 16.8 31.8 16.6 29.9C16.2 26.4 14.5 23.6 12.4 21C11.4 19.8 10.4 18.7 9.40001 17.5C9.00001 17 8.60001 16.5 8.20001 15.9C8.00001 15.6 7.80001 15.3 7.60001 14.9C7.00001 14.8 7.00001 14.7 6.90001 14.8C6.80001 14.4 6.80001 14.4 6.80001 14.9C5.80001 15.5 4.70001 16.1 3.70001 16.6C5.30001 16.9 7.10001 16.8 8.60001 17C9.90001 17.2 10.7 17.7 11.6 18.7C13.4 20.8 14.1 24.2 15.8 26.6C16.4 27.5 17.5 28.1 18.6 27.7C19.6 27.4 20.5 26.4 20.4 25.3C20.3 24.6 20.3 24 20.2 23.3C20.1 22 19.2 20.8 17.7 20.8C16.5 21 15.1 22.2 15.3 23.5Z" fill="#C6ECAC"/>
<path d="M27.5 29.6C28 27.6 28.5 25.6 29.1 23.7C29.3 23.1 29.8 21.3 30.4 21.3C30 21.2 29.6 21.1 29.1 21C29.2 21 29.3 21.1 29.4 21.1C29.1 20.8 28.8 20.5 28.5 20.2C28.4 19.7 28.4 19.7 28.5 20.3C28.5 20.6 28.5 20.9 28.5 21.3C28.5 21.8 28.5 22.3 28.5 22.7C28.5 23.8 28.6 24.9 28.6 26C28.7 28.3 32.1 29.6 33.3 27.3C35.5 22.8 40.3 20.5 43.5 16.8C44.6 15.6 44.4 12.9 42.4 12.6C37.2 11.9 35.4 17.6 35.1 21.8C34.9 23.8 35.2 25.8 34.9 27.8C35 27.4 34.9 28.3 34.9 28.1C34.9 28.5 34.2 28.6 35.3 27.8C35.6 27.6 35.8 27.8 35.6 27.5C35.5 27.4 35.1 27.3 35 27.3C33.9 26.9 32.8 26.5 31.7 26.2C29.5 25.6 27.2 25.2 25 24.9C22.8 24.6 20.3 24.4 18.6 26.2C17.1 27.8 16.5 30.4 15.8 32.4C15 34.5 14.2 36.6 13.4 38.7C11.6 43.5 9.8 48.6 10.1 53.8C11.7 53.4 13.2 53 14.8 52.5C12.6 49 12.8 44.6 15.1 41.2C13.5 40.8 12 40.4 10.4 39.9C10 43.8 9.7 47.7 9.7 51.6C9.7 53.4 11.9 54.8 13.5 53.8C16.5 51.8 19 49.1 20.7 45.8C19.3 45.8 17.8 45.8 16.4 45.8C16.9 46.5 17.2 47.3 16.8 48.2C15.6 50.7 18.6 53.2 20.7 51.2C22.8 49.2 24.7 46.8 24.2 43.8C23.8 41 20.7 38.7 17.9 39.8C16.7 40.3 15.8 41.5 16.2 42.9C16.5 44.1 18 45.2 19.3 44.6C19.7 44.4 19.5 44.5 19.5 44.6C19.2 44.3 19.5 44.4 19.4 44.5C19.3 44.7 19.4 45 19.3 45.2C19 46.2 18 47 17.2 47.7C18.5 48.7 19.8 49.7 21.1 50.7C22.2 48.3 22.3 45.5 20.7 43.3C19.7 41.9 17.3 41.5 16.4 43.3C15.1 45.8 13.3 47.9 11 49.5C12.3 50.2 13.5 50.9 14.8 51.7C14.8 47.8 15.1 43.9 15.5 40C15.6 38.9 14.6 37.9 13.7 37.6C12.6 37.3 11.5 37.8 10.9 38.7C7.6 43.5 7.5 50.1 10.6 55C11.8 57 15.4 56.3 15.3 53.7C15 49.7 16.2 45.9 17.6 42.1C19 38.2 20.5 34.3 22 30.4C22.1 30.2 22.2 29.6 22.4 29.4C22.4 29.4 22.4 29.4 22.7 29.4C23.6 29.5 24.5 29.5 25.4 29.6C27.4 29.9 29.3 30.3 31.2 30.9C33.2 31.5 35.3 32.8 37.4 32.1C39.3 31.4 39.9 29.5 40.1 27.7C40.3 25.7 40.1 23.6 40.3 21.6C40.4 20.7 40.5 19.8 40.8 19C40.9 18.6 41.1 18.1 41.4 17.7C41.8 17.2 42.1 17.4 41.3 17.3C40.9 15.9 40.6 14.5 40.2 13.1C36.7 17.1 31.6 19.7 29.2 24.6C30.8 25 32.3 25.4 33.9 25.9C33.9 24.6 33.8 23.3 33.8 22.1C33.8 21 33.9 19.8 33.6 18.7C33 15.9 29.9 15.6 27.9 17C26.2 18.1 25.3 19.9 24.7 21.8C24 23.9 23.5 26.1 23 28.2C21.8 31.4 26.7 32.7 27.5 29.6Z" fill="#C6ECAC"/>
<path d="M24.2 35.2C24.1 35.2 23.8 34.8 23.7 34.8C23.8 34.8 24 35.3 23.8 35C24 35.4 24 35.9 24 36.3C23.9 36.7 23.6 37.1 23.3 37.3C22.8 37.6 22.9 37.4 23.1 37.4C22.8 37.5 22.6 37.5 22.3 37.4C22.8 37.5 21.8 37.1 22.3 37.4C22.5 37.5 22.7 37.6 22.9 37.8L23.2 38C23.2 38 22.8 37.6 23.1 37.9C23.2 38 23.3 38 23.3 38.1C23.6 38.4 23.3 38 23.2 38C23.4 38.3 23.2 37.9 23.1 37.8C23 37.5 23.1 37.1 23.3 36.8C23.4 36.6 23.6 36.4 23.8 36.3C23.9 36.3 24.4 36.1 24 36.2C23.9 36.2 23.7 36.2 23.7 36.3C23.8 36.3 23.8 36.3 23.9 36.3C24.1 36.3 24.1 36.3 23.9 36.3H23.8C23.6 36.3 23.7 36.3 24.1 36.3C23.9 36.3 23.8 36.1 24.2 36.4C24.3 36.4 24.6 36.8 24.4 36.5C24.5 36.6 24.5 36.7 24.6 36.8C24.5 36.6 24.5 36.6 24.6 36.8C24.6 36.9 24.7 37.7 24.7 37.2C24.7 37.5 24.7 37.7 24.5 37.9C24.4 38.1 24.2 38.3 24 38.4C24.3 38.2 24 38.6 23.8 38.5L24.1 38.4C24 38.4 23.5 38.4 23.9 38.4C24.2 38.4 24.5 38.4 24.7 38.4C25.9 38.5 27 38.6 28.1 38.3C29.3 38 30.5 37.1 31.1 36C31.3 35.5 31.5 35 31.6 34.4C31.7 34 31.5 34.5 31.5 34.6C31.4 34.8 31.2 35 31 35.1C30.8 35.2 30.5 35.3 30.3 35.3C30.1 35.3 29.9 35.3 29.7 35.2C29.5 35.1 29.5 35.1 29.7 35.2C29.5 35.1 29.3 34.9 29.2 34.7C29.4 35 29.1 34.6 29.1 34.5C29.1 34.5 29.2 34.7 29.2 34.8C29.3 35.2 29.2 34.7 29.2 34.6V34.9C29.1 34.8 29.3 34.3 29.4 34.2C29.5 34 29.7 33.8 29.9 33.7C30.1 33.6 30.2 33.5 30.4 33.5C30.6 33.5 30.7 33.5 30.5 33.5C30.5 33.5 31.2 33.5 30.7 33.5C30.6 33.5 30.6 33.5 30.5 33.4C30.8 33.5 30.9 33.6 30.7 33.5C30.5 33.4 30.3 33.2 30.1 33.1C29.7 32.9 30.2 33.1 30.2 33.2C30.1 33.2 30.1 33.1 30 33C29.9 32.9 29.9 32.9 30.2 33.2C30.4 33.5 30.5 34 30.3 34.4C30.3 34.5 30.2 34.6 30.2 34.7C30.3 34.5 30.3 34.5 30.2 34.7L30.1 34.8C30.3 34.6 30.3 34.6 30 34.9C30.1 34.9 30.1 34.8 30.2 34.8C29.9 34.9 29.8 35 30 34.9C30.1 34.9 30.2 34.8 30.3 34.8C30.7 34.7 30.5 34.8 30.2 34.8C30.3 34.8 30.4 34.8 30.5 34.8C30.6 34.8 31 34.8 31 34.8C30.7 34.9 29.9 34.3 30 34.3C29.6 33.9 29.4 33.2 29.6 32.7C29.1 33.9 30.1 35.5 31.3 35.8C32.7 36.1 33.9 35.4 34.4 34.1C35.1 32.4 33.8 30.6 32.2 30C31.1 29.6 29.8 29.8 28.7 30.1C27.5 30.4 26.3 31.2 25.8 32.4C25.1 33.9 25.4 35.6 26.6 36.8C27.4 37.5 28.5 38.2 29.5 38.4C31 38.7 32.6 38.2 33.5 36.9C34.2 35.9 34.2 34.4 33.8 33.2C33.4 31.9 32.4 30.8 31 30.4C29.4 30 27.9 30.7 27.1 32.1C26.8 32.5 26.7 33 26.6 33.5C26.6 33.6 26.4 34.2 26.6 33.8C26.8 33.3 26.4 34 26.7 33.6C27 33.2 26.6 33.6 26.6 33.7C26.6 33.7 27 33.4 26.8 33.5C26.7 33.5 26.4 33.7 26.8 33.5C27.2 33.3 26.6 33.5 26.5 33.6C26.1 33.7 27.1 33.6 26.5 33.6C26.2 33.6 26 33.6 25.7 33.6C24.6 33.5 23.7 33.4 22.6 33.6C21.2 33.9 20 34.9 19.6 36.2C19.2 37.5 19.6 39 20.6 40C22.6 41.9 26.9 41.5 27.8 38.5C28.2 37 27.7 35.4 26.6 34.4C25.8 33.6 24.6 32.8 23.5 32.6C21.7 32.2 19.8 33.1 19.2 34.9C18.7 36.4 19.4 37.9 20.6 38.9C21.1 39.3 21.6 39.6 22.4 39.6C23 39.6 23.7 39.3 24.2 38.9C25 37.9 25.3 36.1 24.2 35.2Z" fill="#992B4D"/>
<path d="M29 45.2C29.5 45 30 44.9 30.5 44.8C30.3 44.8 30.1 44.9 29.8 44.9C30.1 44.9 30.4 44.9 30.7 44.9C30.5 44.9 30.3 44.8 30 44.8C30.2 44.8 30.4 44.9 30.6 45C30.4 44.9 30.2 44.8 30 44.7C30.2 44.8 30.3 44.9 30.5 45C30.3 44.9 30.2 44.7 30 44.6C30.1 44.7 30.2 44.8 30.3 44.9C30.2 44.7 30 44.6 29.9 44.4C30 44.5 30 44.6 30.1 44.7C30 44.5 29.9 44.3 29.8 44.1C29.8 44.2 29.9 44.3 29.9 44.4C29.9 44.2 29.8 44 29.8 43.7C29.8 43.8 29.8 43.8 29.8 43.9C29.8 43.7 29.9 43.5 29.9 43.2C29.9 43.3 29.9 43.3 29.9 43.4C30 43.2 30.1 43 30.2 42.8C30.2 42.9 30.1 42.9 30.1 43C30.2 42.8 30.4 42.7 30.5 42.5L30.4 42.6C30.6 42.5 30.7 42.3 30.9 42.2C30.8 42.2 30.8 42.3 30.7 42.3C30.9 42.2 31.1 42.1 31.3 42C31.2 42 31 42.1 30.9 42.1C31.1 42.1 31.3 42 31.6 42C31.3 42 31 42 30.7 42C30.9 42 31.1 42.1 31.4 42.1C31.2 42.1 31 42 30.7 41.9C30.9 42 31.1 42.1 31.3 42.2C31.1 42.1 31 42 30.8 41.9C31 42 31.1 42.2 31.3 42.3C31.2 42.2 31.1 42.1 31 42C31.1 42.2 31.3 42.3 31.4 42.5C31.3 42.4 31.2 42.3 31.2 42.1C31.3 42.3 31.4 42.5 31.5 42.7C31.4 42.6 31.4 42.4 31.4 42.3C31.4 42.5 31.5 42.7 31.5 43C31.5 42.9 31.5 42.8 31.5 42.6C31.5 42.8 31.4 43 31.4 43.3C31.4 43.2 31.4 43.1 31.5 43C31.4 43.2 31.3 43.4 31.2 43.6C31.3 43.5 31.3 43.4 31.4 43.3C31.3 43.5 31.1 43.6 31 43.8C31.1 43.7 31.2 43.6 31.3 43.5C31.1 43.6 31 43.8 30.8 43.9C31 43.8 31.2 43.6 31.4 43.5C31.2 43.6 31 43.7 30.8 43.8C31.3 43.6 31.7 43.5 32.2 43.4C32 43.4 31.8 43.5 31.5 43.5C31.6 43.5 31.7 43.5 31.9 43.5C31.7 43.5 31.5 43.4 31.2 43.4C31.3 43.4 31.3 43.4 31.4 43.5C31.2 43.4 31 43.3 30.8 43.2C30.9 43.2 30.9 43.3 31 43.3C30.8 43.2 30.7 43 30.5 42.9L30.6 43C30.5 42.8 30.3 42.7 30.2 42.5C30.2 42.5 30.2 42.6 30.3 42.6C30.2 42.4 30.1 42.2 30 42V42.1C30 41.9 29.9 41.7 29.9 41.4V41.5C29.9 42.1 30.2 42.8 30.6 43.3C31 43.7 31.7 44.1 32.4 44C33 44 33.7 43.8 34.2 43.3C34.7 42.8 34.9 42.2 34.9 41.5C34.9 41 34.8 40.5 34.5 40C34.2 39.5 33.9 39.2 33.4 38.9C33.3 38.9 33.3 38.8 33.2 38.8C33 38.7 32.7 38.6 32.5 38.5C32.2 38.4 31.9 38.4 31.7 38.4C31.6 38.4 31.5 38.4 31.4 38.4C30.7 38.5 29.9 38.6 29.3 38.9C28.9 39.1 28.5 39.2 28.1 39.5C27.6 39.9 27.2 40.2 26.8 40.8C26.5 41.3 26.3 41.8 26.3 42.3C26.3 42.5 26.2 42.7 26.3 43C26.3 43.3 26.4 43.7 26.5 44C26.7 44.7 27 45.1 27.5 45.7C27.6 45.8 27.7 45.9 27.8 46C28.1 46.2 28.3 46.4 28.6 46.6C29 46.8 29.5 47 30 47.1C30.5 47.2 31 47.2 31.5 47.2C32.2 47.1 32.8 47 33.4 46.7C33.9 46.4 34.2 46.1 34.5 45.7C34.5 45.6 34.6 45.6 34.6 45.5C34.7 45.3 34.8 45 34.9 44.7C35 44.1 35 43.7 34.9 43.1C34.8 42.8 34.7 42.5 34.5 42.2C34.4 42 34.3 41.8 34.1 41.7C34 41.5 33.8 41.3 33.6 41.2C33.4 41 33.1 40.8 32.8 40.6C32.5 40.4 32.2 40.3 31.9 40.2C31.8 40.1 31.6 40.1 31.5 40.1C31.2 40 30.8 40 30.5 40C29.9 40 29.4 40.1 28.8 40.2C28.4 40.3 28 40.4 27.7 40.5C27.1 40.7 26.5 41.1 26.2 41.6C25.9 42.1 25.8 42.9 25.9 43.5C26.1 44.1 26.5 44.7 27 45C27.7 45.3 28.4 45.4 29 45.2Z" fill="#992B4D"/>
<path d="M39.3 40.3C39.2 40.2 39.2 40 39.1 39.9C39.2 40.1 39.3 40.3 39.4 40.5C39.3 40.1 39.2 39.8 39.1 39.4C39.1 39.6 39.2 39.8 39.2 40.1C39.2 39.9 39.2 39.6 39.2 39.4C38.6 40.2 38 41 37.4 41.8H37.5C37.3 41.8 37.1 41.9 36.8 41.9H36.9C36.7 41.9 36.5 41.8 36.2 41.8H36.3C36.1 41.7 35.9 41.6 35.7 41.5C35.9 41.6 35.8 41.5 35.5 41.2C35.2 40.8 35.1 40.7 35.2 41C35.1 40.8 35 40.6 34.9 40.4V40.5C34.9 40.3 34.8 40.1 34.8 39.8V39.9C34.8 39.7 34.9 39.5 34.9 39.2C34.8 39.6 34.7 40 34.7 40.5C34.7 41.1 34.9 41.6 35.1 42.1C35.5 42.9 36.3 43.5 37.1 43.8C38.4 44.4 39.7 43.9 41.1 44.1C40.9 44.1 40.7 44 40.4 44C40.8 44.1 41.1 44.1 41.5 44.3C41.3 44.2 41.1 44.1 40.9 44C41.1 44.1 41.2 44.2 41.4 44.3C41.8 44.5 40.9 43.9 41.3 44.3C41.7 44.7 41 43.8 41.3 44.2C41.4 44.3 41.5 44.5 41.5 44.6C41.4 44.4 41.3 44.2 41.2 44C41.3 44.2 41.3 44.3 41.3 44.5C41.3 44.3 41.2 44.1 41.2 43.8C41.2 44 41.2 44.2 41.2 44.4C41.2 44.2 41.3 44 41.3 43.7C41.3 43.8 41.3 43.9 41.2 43.9C42.8 43.9 44.4 43.9 46 43.9C45.5 42.2 44.8 40.5 43.6 39.2C42.8 38.5 41.9 37.9 40.8 37.7C39.7 37.5 38.7 37.5 37.6 37.4C37.8 37.4 38 37.5 38.3 37.5C38 37.5 37.6 37.4 37.3 37.2C37.5 37.3 37.7 37.4 37.9 37.5C37.8 37.4 37.6 37.4 37.5 37.3C37.3 37.2 37.3 37 37.7 37.4C37.7 37.3 37.5 37.2 37.5 37.2C37.8 37.6 37.8 37.7 37.7 37.5C37.7 37.4 37.6 37.4 37.6 37.3C37.7 37.5 37.8 37.7 37.9 37.9C37.8 37.8 37.8 37.6 37.8 37.5C37.7 36.9 37.1 36.3 36.7 36C36.2 35.7 35.4 35.6 34.8 35.7C34.2 35.9 33.6 36.3 33.3 36.8C33 37.4 32.9 38 33 38.7C33.2 40.3 34.7 41.4 36.2 42C37.4 42.5 38.7 42.3 40 42.5C39.8 42.5 39.6 42.4 39.3 42.4C39.6 42.4 40 42.5 40.3 42.6C40.1 42.5 39.9 42.4 39.7 42.3C39.9 42.4 40.2 42.6 40.4 42.7C40 42.4 40 42.4 40.2 42.5C40.3 42.6 40.3 42.6 40.4 42.7C40.5 42.8 40.8 43.2 40.5 42.8C40.2 42.4 40.5 42.8 40.6 42.9C40.7 43 40.7 43.1 40.8 43.2C40.9 43.5 41.1 43.7 41.2 44C41.1 43.8 41 43.6 40.9 43.4C41.1 44 41.3 44.5 41.5 45.1C41.8 46.1 42.8 47 43.9 46.9C45 46.9 46 46.2 46.3 45.1C46.9 43 45.8 40.7 43.9 39.7C43 39.2 42 39 40.9 38.9C40.1 38.9 39.4 39 38.6 39C38.8 39 39 39.1 39.3 39.1C39.2 39.1 39 39 38.9 39C39.1 39.1 39.3 39.2 39.5 39.3C39.4 39.3 39 39 39.3 39.2C39.5 39.4 39.5 39.4 39.4 39.2C39.7 39.6 39.7 39.6 39.6 39.4C39.7 39.6 39.8 39.8 39.9 40C39.9 39.9 39.8 39.9 39.8 39.8C39.8 40 39.9 40.2 39.9 40.5C39.9 40.4 39.9 40.3 39.9 40.3C39.9 40.5 39.8 40.7 39.8 41C39.9 40.6 40 40.2 40 39.8C40 39.2 39.8 38.7 39.5 38.2C39.2 37.8 38.8 37.4 38.4 37.1C37.7 36.7 37 36.7 36.2 36.8C35.7 36.9 35.2 37.3 34.9 37.7C34.6 38.1 34.4 38.6 34.4 39.2C34.4 40.4 34.7 41.6 35.3 42.7C35.9 43.9 37.6 44.3 38.7 43.6C39.6 43 40 41.6 39.3 40.3Z" fill="#992B4D"/>
<path d="M32.2 53.6C33.3 54.2 33.9 55 34 56.1C35.3 55.4 36.5 54.7 37.8 53.9C37.7 53.8 37.5 53.6 37.5 53.4C37.4 53.1 37.4 53.2 37.5 53.2C37.5 53.6 37.2 53.9 36.7 54.1C37.1 54 37.1 54 36.9 54.1C37.3 54.1 36.9 54 37.3 54.2C36.9 54 37.9 54.6 37.6 54.4C37.6 54.4 38.1 55 37.9 54.7C38.2 55.1 38.1 55.3 38.1 55.6C37.8 57.7 38.2 59.1 39.5 60.7C40 61.3 40.5 61.9 41.1 62.4C41.6 62.9 42.6 63.4 43 63.8C42.8 63.4 42.6 63.1 42.4 62.7C42.3 61.8 42.8 61.2 43.7 61C44.2 61.2 44.3 61.2 43.9 61C43.9 61.1 43.7 60.6 43.6 60.6C43.4 60.5 43.3 60.4 43.5 60.3C43.5 60.3 43.5 60.4 43.4 60.4C43.5 60.5 43 60.7 43.3 60.5C43.3 60.6 43.2 60.6 43.1 60.6C43.4 60.5 43.4 60.5 43.2 60.6C43.1 60.5 42.4 60.3 43 60.5C42.9 60.4 42.8 60.3 42.8 60.2C42.9 60.5 42.9 60.5 42.8 60.2C42.8 60.5 42.8 60.5 42.8 60.2C42.8 60.1 42.9 60 43 59.9C44.4 60.3 45.8 60.6 47.2 61C46.5 58.1 46.5 54.4 48 51.7C47.7 52 47.4 52.3 47.1 52.6C47.2 52.5 47.2 52.5 47.3 52.4C46.9 52.5 46.5 52.6 46 52.7C46.1 52.7 46.2 52.7 46.3 52.7C45.9 52.6 45.5 52.5 45 52.4C46.1 53 46.6 54.3 46.6 55.4C47.9 54.7 49.1 54 50.4 53.2C49.9 52.9 49.5 52.4 49.2 51.8C49.1 51.6 49 51.3 49 51C48.9 50.5 49 51.2 49 50.8C49 50.5 49.2 50.1 49 50.6C48.8 51 48.6 51.3 48.4 51.7L48.5 51.6C48.1 51.8 47.8 52 47.4 52.2C46 52.6 46.3 51.7 46.6 52.3C46.5 52.1 46.8 52.6 46.8 52.7C47.1 53.2 47.4 53.7 47.6 54.2C48.1 55.3 48.3 56.5 48.4 57.7C48.5 59.1 49.5 60.2 50.9 60.2C49.9 60.2 50.3 58.7 50.9 58.4C51.8 58 52.8 59.1 52.7 59.9C52.3 61 51.4 61.1 50 60.3C49.9 60.1 49.8 59.8 49.9 59.6C49.8 59.6 48.7 60.8 48.5 61C47.8 61.7 47.2 62.4 46.7 63.2C45.4 65 45.2 67.3 46.7 69C47.2 69.5 47.8 70 48.3 70.4C48.5 70.6 48.5 70.6 48.3 70.4C48.4 70.5 48.5 70.6 48.6 70.7C48.8 70.9 48.8 70.9 48.6 70.7C48.5 70.5 48.5 70.4 48.4 70.2C48.8 69.5 49.2 68.8 49.6 68C50.4 67.5 52.2 68.5 51.4 69.5C51.2 69.8 51.3 69.6 51.2 69.7H51.1C50.3 69.6 49.8 69 49.7 67.8C49.9 67.4 50.1 67.1 50.3 66.7C50.2 66.8 50.2 66.8 50.1 66.9C47.9 69.3 51.4 72.8 53.6 70.4C55.1 68.8 54.8 66.2 52.8 65.1C51.1 64.2 48.9 64.8 47.7 66.1C46.4 67.5 46 69.4 47 71C48 72.7 50.3 73.3 52 72.2C52.7 71.8 53.3 70.9 53.2 70C53.1 68.1 52 67 50.6 66C50.4 65.8 50.4 65.8 50.6 66C50.5 65.9 50.4 65.8 50.3 65.7C49.9 65.4 50.4 66 50.2 65.6C50.4 65.9 50.4 66.1 50.3 66.4C50.4 66.2 50.5 66 50.7 65.8C50.9 65.5 51.2 65.2 51.4 65C52.6 63.6 54.2 62.5 54.6 60.6C55 58.4 53.5 56 51 56C48.9 56 47.4 57.8 47.5 59.8C47.5 62 49.6 63.6 51.8 63.2C53.7 62.8 55.1 61.1 55.1 59.2C55 56.9 52.9 55.3 50.7 55.2C51.5 56 52.4 56.9 53.2 57.7C53.1 55.4 52.6 53.3 51.6 51.3C50.7 49.4 49.1 47.4 46.8 47.4C43.9 47.4 43.6 50.7 44.1 52.8C44.6 54.9 46 56.6 47.7 57.8C49.3 58.9 51.4 57.4 51.5 55.6C51.5 53.5 50.8 51.4 49.4 49.8C48.7 49 47.7 48.1 46.6 48C45.1 47.8 43.9 48.6 43.4 49.9C41.6 53.9 41.3 58.3 42.4 62.5C42.8 64.2 45.4 65.1 46.6 63.6C48 62 48.3 59.8 47.2 57.9C46.2 56.1 44 55.2 42 55.8C39.9 56.4 38.4 58.4 38.5 60.6C38.6 62.7 40 64.8 41.9 65.7C44.3 66.8 47.3 65.4 47.4 62.6C47.5 60.2 45.1 59.6 43.8 58.1C43.6 57.9 43.4 57.6 43.2 57.3C43.1 57.2 42.9 56.7 42.9 57.1C42.7 56.8 43 56 43 55.6C43 55.1 43 54.5 42.9 54C42.5 52.1 41.1 50.5 39.4 49.7C37 48.6 33.6 49 32.7 51.8C31.8 54.3 33.3 56.8 35.3 58.2C36.8 59.3 39.2 57.8 39.1 56C38.9 53.2 37.4 50.5 34.9 49.2C33.7 48.6 32.2 48.9 31.5 50.1C30.6 51.3 31 53 32.2 53.6Z" fill="#992B4D"/>
<path d="M61.8 68.1C61.7 67.8 61.7 67.5 61.6 67.2C61.6 67.4 61.7 67.6001 61.7 67.9001C61.7 67.6001 61.6 67.3 61.7 67C61.7 67.2 61.6 67.4 61.6 67.7C61.6 67.5 61.7 67.3 61.7 67.2C61.6 67.4 61.5 67.6001 61.4 67.8001C61.5 67.6001 61.6 67.5001 61.7 67.3001C61.6 67.5001 61.4 67.6001 61.3 67.8001C61.4 67.7001 61.5 67.6 61.6 67.5C61.4 67.6 61.3 67.8001 61.1 67.9001C61.2 67.8001 61.3 67.8 61.4 67.7C61.2 67.8 61 67.9 60.8 68C60.9 68 61 67.9001 61.1 67.9001C60.9 67.9001 60.7 68 60.4 68C60.5 68 60.6 68 60.7 68C60.5 68 60.3 67.9001 60 67.9001C60.1 67.9001 60.2 67.9 60.3 68C60.1 67.9 59.9 67.8 59.7 67.7C59.9 67.8 60.1 67.9 60.3 68.1C60.1 68 60 67.8 59.8 67.7C60.1 67.9 60.4 68.2 60.7 68.5C60.6 68.3 60.4 68.2 60.3 68C60.4 68.2 60.5 68.4 60.6 68.5C60.5 68.3 60.4 68.1001 60.3 67.9001C60.4 68.1001 60.4 68.3001 60.4 68.4001C60.4 68.2001 60.3 68 60.3 67.7C60.3 67.8 60.3 68 60.3 68.1C60.3 67.9 60.4 67.7001 60.4 67.4001C60.4 67.5001 60.3 67.6001 60.3 67.8001C60.4 67.6001 60.5 67.4 60.6 67.2C60.6 67.3 60.5 67.4 60.4 67.5C60.5 67.3 60.7 67.2 60.8 67C60.7 67.1 60.7 67.1 60.6 67.2C60.8 67.1 60.9 66.9001 61.1 66.8001C61 66.9001 60.9 66.9001 60.9 66.9001C61.1 66.8001 61.3 66.7 61.5 66.6C61.4 66.6 61.3 66.7 61.2 66.7C61.4 66.7 61.6 66.6 61.9 66.6C61.8 66.6 61.6 66.6 61.5 66.6C61.7 66.6 61.9 66.7 62.2 66.7C62.1 66.7 62 66.6 61.9 66.6C62.1 66.7 62.3 66.8001 62.5 66.9001C62.4 66.9001 62.3 66.8 62.2 66.7C62.4 66.8 62.5 67 62.7 67.1C62.6 67 62.6 67.0001 62.5 66.9001C62.6 67.1001 62.8 67.2001 62.9 67.4001C62.8 67.3001 62.8 67.2 62.8 67.2C62.9 67.4 63 67.6001 63.1 67.8001C63 67.5001 62.9 67.2001 62.7 66.9001C62.5 66.6001 62.3 66.4001 62 66.3001C61.7 66.1001 61.4 66 61.1 66C60.8 65.9 60.4 65.9 60.1 66C59.5 66.2 58.9 66.6 58.6 67.1C58.5 67.3 58.4 67.5 58.3 67.7C58.2 68.1 58.2 68.6 58.3 69C58.5 69.6 58.7 69.9001 59.2 70.4001C59.4 70.7001 59.7 70.9 60.1 71.1C60.7 71.4 61.5 71.7 62.2 71.6C62.9 71.5 63.2 71.5 63.8 71.2C64.1 71 64.4 70.8 64.7 70.6C65.4 69.9 65.8 68.8001 65.8 67.8001C65.8 66.3001 64.9 64.9 63.7 64C63.4 63.7 63 63.4 62.6 63.3C62 63 61.4 62.8 60.8 62.8C59.8 62.8 58.8 63.2 58.1 64C57.8 64.3 57.5 64.7 57.4 65C57.3 65.3 57.1 65.6001 57.1 65.8001C57 66.1001 57 66.5001 56.9 66.9001C56.9 67.2001 56.9 67.5001 56.9 67.8001C57 68.3001 57 68.8001 57.2 69.3001C57.3 69.6001 57.4 69.9 57.6 70.2C57.8 70.5 58 70.7001 58.3 70.8001C58.6 71.0001 58.9 71.1 59.2 71.1C59.5 71.2 59.9 71.2 60.2 71.1C60.8 70.9 61.4 70.5 61.7 70C61.8 69.8 61.9 69.6001 62 69.4001C61.9 69.0001 61.9 68.5 61.8 68.1Z" fill="#992B4D"/>
<path d="M22.9 30.5999C22.5 25.1999 23.5 19.6999 23.2 14.2999C23 9.19995 21.1 4.69995 18.8 0.0999477C18.7 0.199948 18.5 0.299948 18.4 0.399948C18.9 1.09995 19.6 1.09995 20.4 1.49995C21.6 2.09995 21.9 3.59995 22.3 4.79995C23 7.59995 23.6 10.3999 24 13.2999C24.4 16.1999 24.7 19.0999 24.8 22.0999C24.8 23.4999 24.8 24.9999 24.8 26.3999C24.8 27.0999 24.8 27.7999 24.7 28.5999C24.7 28.8999 24.7 29.1999 24.6 29.5999C24.6 29.8999 24.6 30.0999 24.5 30.3999C24.5 30.8999 24.2 31.0999 23.6 31.0999C23.4 30.7999 23 31.0999 23.2 31.3999C23.6 31.8999 24.2 31.9999 24.6 31.4999C25.3 30.7999 25.1 29.0999 25.2 28.1999C25.4 24.4 25.3 20.6999 24.9 16.8999C24.6 13.3999 24 9.89995 23.2 6.39995C22.9 5.09995 22.6 3.59995 21.9 2.39995C21.7 1.99995 21.4 1.59995 21 1.29995C20.4 0.899948 19.4 0.799948 18.9 0.199948C18.7 -0.100052 18.3 0.199948 18.5 0.499948C20.9 5.29995 22.7 9.89995 22.9 15.3999C23 20.4999 22.2 25.5999 22.6 30.7999C22.4 30.8999 22.9 30.8999 22.9 30.5999Z" fill="black"/>
<path d="M22.9 18.1C21.6 14.7 19.3 11.8 16.1 9.99995C15.9 9.89995 15.8 9.99995 15.7 10.1C15.4 10.9 15.2 11.8 15.2 12.7C15.4 12.7 15.5 12.6 15.7 12.6C15 11.1 13.5 10.5 12 10.3C10.8 10.1 9.70001 10.1 8.50001 9.89995C7.20001 9.69995 6.00001 9.39995 4.70001 9.19995C4.50001 9.19995 4.30001 9.39995 4.40001 9.59995C4.60001 9.89995 4.70001 10.3 4.90001 10.6C5.00001 10.5 5.10001 10.4 5.20001 10.2C4.00001 9.99995 2.70001 9.69995 1.50001 9.59995C0.900007 9.59995 0.400007 9.69995 0.100007 10.3C-0.0999931 10.8 0.100007 11.4 0.400007 11.8C0.700007 12.1 1.10001 12.4 1.40001 12.6C1.60001 12.7 1.80001 12.8 2.00001 12.9C2.20001 13 2.40001 13.2 2.60001 13.4C3.20001 13.8 3.00001 14.2 2.20001 14.8C2.00001 14.7 1.70001 15 1.90001 15.2C2.90001 16 4.00001 16.9 5.00001 17.7C5.20001 17.8 5.50001 18 5.60001 18.2C6.40001 19.2 5.70001 19.8 5.10001 20.2C4.70001 20.5 4.20001 20.7 3.80001 21.1C2.60001 22 3.00001 23.2 4.00001 24.2C4.30001 24.5 4.70001 24.8 5.00001 25.1C5.50001 25.7 5.50001 26.4 5.20001 27.1C5.10001 27.3 5.00001 27.4 5.00001 27.6C4.90001 28.1 5.10001 28.5 5.40001 28.7999C6.10001 29.4 7.10001 29.6 7.90001 29.9C9.20001 30.4 10.5 30.7999 11.8 31.2999C11.8 31.1999 11.7 31 11.7 30.9C11.4 31.3 11.1 31.6 10.8 32C10.7 32.2 10.8 32.4 11 32.4C14.4 32.8 18 32.9 21.4 32.4C22.2 32.3 22.7 32 22.9 31.2C23.1 30 22.7 28.6 22.3 27.5C20.2 22 15 18.9 10 16.7C9.70001 16.6 9.50001 17 9.70001 17.1C14.1 19 18.6 21.5 21 26C21.5 27 21.9 28.0999 22.1 29.2999C22.2 29.6999 22.3 30.1 22.2 30.5C22.1 31 21.9 31.7 21.4 31.9C20.9 32.2 19.6 32.0999 19 32.0999C16.2 32.2999 13.5 32.2 10.7 31.9C10.8 32 10.8 32.1999 10.9 32.2999C11.2 31.9 11.5 31.6 11.8 31.2C11.9 31.1 11.9 30.7999 11.7 30.7999C10.6 30.4 9.40001 30 8.30001 29.6C7.70001 29.4 7.10001 29.2 6.50001 29C6.30001 28.9 5.90001 28.8 5.80001 28.6C5.70001 28.3 5.60001 27.9 5.40001 27.6C5.50001 27.5 5.50001 27.4 5.60001 27.2999C5.80001 26.6999 6.00001 26.3 5.70001 25.7C5.30001 24.8 4.40001 24.3 3.80001 23.5C2.20001 21.3 6.20001 20.9 6.30001 19C6.30001 18.2 5.70001 17.8 5.10001 17.3C4.10001 16.5 3.00001 15.6 2.00001 14.8C2.10001 14.9 2.00001 15 1.90001 15.1C3.20001 15.7 3.80001 14 3.10001 13.1C2.50001 12.3 1.30001 12.2 0.800007 11.4C-0.0999931 9.79995 2.10001 10.2 2.80001 10.4C3.60001 10.5 4.30001 10.7 5.10001 10.8C5.30001 10.8 5.50001 10.6 5.40001 10.4C5.20001 9.99995 5.00001 9.69995 4.90001 9.29995C4.80001 9.49995 4.70001 9.59995 4.60001 9.69995C6.40001 9.99995 8.10001 10.5 9.90001 10.6C11.8 10.8 14.2 10.8 15.1 12.9C15.2 13.1 15.6 13 15.6 12.8C15.6 11.9 15.8 11.2 16.1 10.4C16 10.4 15.9 10.5 15.7 10.5C18.8 12.2 21.1 15 22.3 18.3C22.5 18.6 23 18.4 22.9 18.1Z" fill="black"/>
<path d="M24.7 23.7C25.4 22 26.1 20.2 26.6 18.4C26.7 17.9 26.9 17.5 27 17C27.1 16.7 27.1 15.9 27.3 15.6C27.8 15 28.1 16 28.3 16.4C28.5 16.9 28.7 17.4 29 18C29.1 18.2 29.4 18.1 29.5 17.9C29.9 16.7 30.5 15.6 31.4 14.6C31.3 14.5 31.1 14.4 31 14.4C30.8 15.4 31.6 16.2 32.7 16.1C33.3 16 33.9 15.6 34.4 15.2C34.6 15 34.9 14.4 35.1 14.3C36.3 13.6 35.6 14.3 36 14.5C36.4 14.8 36.5 15 37.1 14.9C37.7 14.8 38.3 14.4 38.7 14C40 13 41.1 11.8 41.9 10.4C41.7 10.4 41.6 10.3 41.4 10.3C41 13.6 40.2 16.8 39.1 19.9C39.1 20 39.1 20.2 39.3 20.2C40 20.3 40.7 20.4 41.4 20.6C41.3 20.5 41.3 20.4 41.2 20.3C40.7 21.5 40 22.6 39.2 23.5C39.1 23.6 39.1 23.8 39.3 23.9C41.5 25.1 39.1 27.7 38 28.8C36.8 30 35.4 31.1 33.9 31.9C33.6 32.1 33.9 32.5 34.2 32.3C36.4 31.1 38.4 29.5 39.9 27.5C40.8 26.3 41.3 24.3 39.6 23.5C39.6 23.6 39.6 23.8 39.7 23.9C40.6 22.9 41.3 21.7 41.9 20.4C41.9 20.3 41.8 20.1 41.7 20.1C41 20 40.3 19.9 39.6 19.7C39.7 19.8 39.7 19.9 39.8 20C40.9 16.8 41.7 13.6 42.1 10.2C42.1 9.89996 41.8 9.89996 41.6 10.1C41 11.1 40.2 12.1 39.3 12.9C38.8 13.3 38.3 13.7 37.8 14C37.3 14.3 37 14.4 36.6 14C36.1 13.6 36.5 13.8 36.2 13.4C35.9 13.1 35.6 13 35.2 13.3C34.9 13.5 34.7 13.9 34.6 14.2C34.4 14.5 34.2 14.7 33.9 15C33.5 15.5 33 15.6 32.5 15.3C31.9 15.4 31.6 15.1 31.7 14.4C31.7 14.2 31.5 14 31.3 14.2C30.3 15.2 29.7 16.3 29.2 17.7C29.4 17.7 29.5 17.7 29.7 17.6C29.5 17.1 28.2 13.2 27.2 14.9C26.9 15.4 26.9 16.2 26.8 16.7C26.6 17.4 26.4 18 26.2 18.7C25.7 20.2 25.1 21.8 24.5 23.2C24.2 23.7 24.6 24 24.7 23.7Z" fill="black"/>
<path d="M28.3 28.6C28.6 28.6 28.6 28.1 28.3 28.1C27.9 28.1 27.9 28.6 28.3 28.6Z" fill="black"/>
<path d="M28.4 28.7999C28.7 28.7999 28.7 28.2999 28.4 28.2999C28.1 28.2999 28.1 28.7999 28.4 28.7999Z" fill="black"/>
<path d="M28.2 29C30.2 28.7 32.3 28.4 34 27.2C35.4 26.2 36.5 24.6 36.3 22.8C36.3 22.5 35.8 22.5 35.8 22.8C35.9 24.5 34.8 26.1 33.4 27C31.8 28 29.9 28.3 28.1 28.6C27.7 28.6 27.9 29.1 28.2 29Z" fill="black"/>
<path d="M17.5 34.2999C16.5 35.4999 15 35.9999 13.7 36.7999C12.6 37.4999 11.5 38.1999 10.5 39.0999C8.6 40.7999 7.3 42.8999 7 45.3999C7 45.4999 7.1 45.5999 7.2 45.5999C7.5 45.6999 7.7 45.6999 8 45.5999C8.5 45.3999 9.1 44.5999 9.4 45.6999C9.5 46.1999 9.3 46.9999 9.2 47.5999C9 48.3999 8.9 49.1999 8.8 49.9999C8.8 50.0999 8.9 50.1999 9 50.1999C9.6 50.1999 9.9 50.0999 10.4 49.6999C10.6 49.4999 10.3 49.1999 10.1 49.2999C9 49.9999 9.1 51.4999 9 52.6999C8.9 54.5999 9 56.4999 9.3 58.3999C9.3 58.5999 9.5 58.5999 9.7 58.4999C12.6 56.6999 15.1 54.2999 17.1 51.5999C16.9 51.5999 16.8 51.5999 16.6 51.4999C17 52.6999 17.2 53.8999 17.3 55.0999C17.3 55.3999 17.6 55.3999 17.8 55.1999C19 53.4999 19.3 51.3999 19.5 49.2999C19.4 49.3999 19.2 49.3999 19.1 49.4999C20 50.1999 20.5 51.0999 20.6 52.2999C20.6 52.4999 20.8 52.5999 21 52.4999C23.6 51.1999 26 48.8999 25.4 45.7999C25.3 45.4999 24.9 45.5999 24.9 45.8999C25.4 48.7999 23.1 50.8999 20.7 52.0999C20.8 52.1999 21 52.1999 21.1 52.2999C21 50.9999 20.5 49.8999 19.5 49.0999C19.3 48.9999 19.1 49.0999 19.1 49.2999C18.9 51.2999 18.7 53.1999 17.5 54.8999C17.7 54.8999 17.8 54.9999 18 54.9999C17.9 53.6999 17.7 52.4999 17.3 51.1999C17.2 50.9999 17 50.9999 16.8 51.0999C14.8 53.7999 12.4 55.9999 9.6 57.7999C9.7 57.7999 9.8 57.8999 10 57.8999C9.8 56.4999 9.6 55.0999 9.6 53.6999C9.6 52.5999 9.4 50.0999 10.5 49.3999C10.4 49.2999 10.3 49.0999 10.2 48.9999C9.9 49.0999 9.5 49.1999 9.2 49.3999C9.3 49.4999 9.4 49.5999 9.4 49.5999C9.5 48.3999 9.7 47.1999 9.8 46.0999C9.8 45.5999 10 44.6999 9.4 44.3999C9.1 44.1999 8.8 44.2999 8.4 44.3999C7.8 44.5999 7.7 44.6999 7.7 43.9999C7.7 43.4999 8.1 42.8999 8.3 42.3999C9.3 40.2999 11.1 38.7999 13 37.4999C14.6 36.3999 16.7 35.6999 18 34.2999C18.1 34.4999 17.7 34.0999 17.5 34.2999Z" fill="black"/>
<path d="M20 41.1C19.7 41.7 19.2 42.1 18.7 42.5C18.2 42.9 17.9 43.4 17.6 44C17.4 44.6 17.3 45.3 17.3 45.9C17.3 46.3 17.2 47.4 17.8 47.2C18.1 47.1 18 46.7 17.7 46.7C17.7 46.7 17.7 46.7 17.6 46.7C17.7 46.7 17.7 46.7 17.8 46.7C17.7 46.7 17.8 46 17.8 45.9C17.8 45.6 17.8 45.4 17.8 45.1C17.9 44.5 18 44 18.3 43.5C18.8 42.6 19.9 42.2 20.3 41.2C20.6 41 20.1 40.8 20 41.1Z" fill="black"/>
<path d="M24.2 31.5C21.9 31.1 19.5 32.1 18.2 34C17.6 34.9 17.2 36 17.5 37C17.7 38.2 18.5 39.1999 19.3 40.0999C20 40.8999 20.9 41.5999 21.9 41.7999C22.8 41.9999 23.8 41.9 24.6 41.5C26.7 40.6 27.7 38.1999 27.6 36.0999C27.5 33.6999 25.5 31.4 22.9 31.7C22.6 31.7 22.6 32.2 22.9 32.2C24.9 32 26.6 33.5 27 35.4C27.4 37.3 26.7 39.6999 25 40.7999C23.5 41.6999 21.5 41.4999 20.2 40.2999C18.8 38.9999 17.3 36.8 18.3 34.9C19.3 32.9 21.9 31.7 24.2 32C24.4 32.1 24.5 31.6 24.2 31.5Z" fill="black"/>
<path d="M31.2 28.3C30 28.2 28.9 28.6 27.9 29.2C27 29.7 26.1 30.4 25.5 31.3C25 32.1 24.9 33.1 25.4 34C25.7 34.5 26.1 34.9 26.4 35.3C26.8 35.8 27.2 36.3 27.7 36.8C28.3 37.5 29 38.3 30.1 38.3C30.6 38.3 31.1 38.1 31.6 37.9C32.1 37.7 32.6 37.5 33 37.2C34.9 36 35 33.6 34.4 31.6C34.1 30.6 33.6 29.4 32.5 29C31.4 28.6 30.2 29 29.1 28.8C28.8 28.8 28.8 29.3 29.1 29.3C29.9 29.4 30.8 29.2 31.6 29.3C32.7 29.4 33.2 30 33.6 31C34.3 32.7 34.7 34.9 33.3 36.3C32.7 36.9 31.7 37.3 30.9 37.6C30.5 37.8 30 37.9 29.5 37.7C29 37.6 28.7 37.2 28.4 36.8C27.8 36.1 27.2 35.3 26.6 34.6C26 33.8 25.4 33.1 25.7 32C26.1 31 27.1 30.3 28 29.7C29 29.1 30 28.7 31.1 28.8C31.6 28.9 31.6 28.4 31.2 28.3Z" fill="black"/>
<path d="M25.2 40.5999C25.2 40.1999 25.3 39.6999 25.5 39.2999C25.6 39.1999 25.6 39.1999 25.7 39.0999C25.8 38.9999 25.9 38.9999 26.1 38.9999C26.4 38.8999 26.7 38.8999 26.9 38.7999C27 38.7999 27.1 38.5999 27.1 38.4999C27.1 38.3999 26.9 38.2999 26.8 38.2999C26.5 38.3999 26.2 38.3999 25.9 38.4999C25.6 38.5999 25.3 38.6999 25.2 38.9999C24.9 39.3999 24.8 39.9999 24.7 40.5999C24.7 40.6999 24.8 40.7999 24.9 40.7999C25.1 40.8999 25.2 40.7999 25.2 40.5999Z" fill="black"/>
<path d="M32.2 37.3999C32.2 36.8999 32.4 36.2999 32.8 35.8999C33.2 35.4999 33.7 35.2999 34.2 35.2999C34.5 35.2999 34.5 34.7999 34.2 34.7999C33.5 34.7999 32.9 35.0999 32.4 35.5999C31.9 36.0999 31.7 36.6999 31.7 37.3999C31.7 37.6999 32.2 37.6999 32.2 37.3999Z" fill="black"/>
<path d="M30.3 38C28.1 38.3 25.6 39.1 24.9 41.5C24.3 43.6 25 46.4 26.6 47.9C27.4 48.7 28.4 49.2 29.5 49.4C30.7 49.6 31.8 49.3 32.9 48.8C33.9 48.3 34.7 47.7 35 46.6C35.4 45.6 35.3 44.5 35 43.5C34.6 42.2 33.9 40.8 33.1 39.8C32.4 38.8 31.3 38.1 30.1 38.3C29.8 38.3 29.9 38.8 30.2 38.8C31.4 38.6 32.3 39.5 32.9 40.4C33.5 41.2 34 42.2 34.3 43.1C35 45 34.8 47.2 32.8 48.3C30.9 49.3 28.7 49.3 27.1 47.8C25.6 46.4 24.9 44.2 25.2 42.2C25.6 39.7 28.1 38.9 30.3 38.5C30.8 38.4 30.7 37.9 30.3 38Z" fill="black"/>
<path d="M31.6 48.9999C32.2 48.6999 32.3 47.9999 32.7 47.5999C32.9 47.2999 33.2 47.1999 33.5 47.0999C33.8 46.9999 34.2 47.0999 34.5 46.8999C34.8 46.6999 34.5 46.2999 34.2 46.4999C33.9 46.6999 33.5 46.5999 33.2 46.6999C32.9 46.7999 32.5 46.9999 32.3 47.2999C32.1 47.4999 31.9 47.7999 31.8 48.0999C31.7 48.2999 31.5 48.5999 31.3 48.6999C31.1 48.6999 31.4 49.1999 31.6 48.9999Z" fill="black"/>
<path d="M32.8 39.1999C33 38.3999 33.4 37.5999 33.9 36.8999C34.4 36.1999 35.1 35.3999 36 35.1999C37.9 34.7999 39.1 36.6999 39.8 38.1999C40.5 39.6999 41.1 41.6999 40 43.1999C39.4 43.9999 38.6 44.1999 37.6 44.1999C36.8 44.1999 35.8 44.2999 35 43.8999C34.7 43.6999 34.5 44.1999 34.7 44.2999C35.4 44.6999 36.1 44.6999 36.9 44.6999C37.7 44.6999 38.5 44.6999 39.2 44.2999C40.5 43.6999 41.1 42.0999 41 40.7999C40.9 39.9999 40.7 39.1999 40.3 38.3999C40 37.5999 39.6 36.7999 39.1 36.1999C38.2 35.0999 36.7 34.2999 35.3 34.8999C33.7 35.5999 32.7 37.3999 32.3 38.9999C32.3 39.3999 32.7 39.4999 32.8 39.1999Z" fill="black"/>
<path d="M39.3 44.3C39.3 43.7 39.5 43 39.7 42.5C39.9 42.1 40.1 41.5 40.6 41.5C40.9 41.5 40.9 41 40.6 41C39.9 41 39.6 41.6 39.3 42.2C39 42.9 38.7 43.6 38.8 44.4C38.8 44.6 39.3 44.6 39.3 44.3Z" fill="black"/>
<path d="M40.3 39.0999C41.7 39.1999 43 38.3999 44.3 38.9999C45.5 39.5999 46.3 40.7999 46.6 42.0999C46.9 43.3999 46.8 44.8999 46 45.8999C45.2 46.8999 43.9 47.3999 42.7 46.7999C42.1 46.4999 41.6 45.8999 41.2 45.3999C40.7 44.7999 40.2 44.0999 40 43.3999C39.9 43.0999 39.4 43.1999 39.5 43.4999C39.7 44.2999 40.1 44.8999 40.6 45.4999C41 46.0999 41.5 46.6999 42.1 47.0999C43.2 47.8999 44.7 47.6999 45.7 46.8999C48.1 45.0999 47.5 40.7999 45.3 39.0999C44.7 38.5999 43.9 38.2999 43.1 38.2999C42.2 38.2999 41.3 38.6999 40.3 38.5999C39.9 38.4999 39.9 38.9999 40.3 39.0999Z" fill="black"/>
<path d="M45.2 47.1C45.2 46.7 45.2 46.4 45.2 46C45.2 45.7 45.3 45.4 45.5 45.1C45.6 44.9 45.8 44.7 46.1 44.6C46.4 44.5 46.8 44.5 47.1 44.6C47.2 44.6 47.3 44.5 47.3 44.4C47.3 44.3 47.2 44.2 47.1 44.2C46.7 44.2 46.3 44.1 46 44.2C45.6 44.3 45.4 44.6 45.2 44.9C45 45.2 44.9 45.6 44.9 45.9C44.8 46.3 44.8 46.8 44.8 47.2C44.7 47.4 45.2 47.4 45.2 47.1Z" fill="black"/>
<path d="M34.7 47.6C36.4 47 38.2 48.1 39.4 49.2C40.8 50.5 40.9 52.3 40.9 54C40.9 55 40.6 55.7 39.7 56.2C38.9 56.7 37.9 57 37 57C35.3 57 33.8 56 32.9 54.7C32.3 53.9 32 53 31.7 52.1C31.5 51.4 31 49.9 31.8 49.5C32.1 49.3 31.8 48.9 31.5 49.1C30.8 49.5 30.8 50.3 30.9 51C31.1 52.1 31.4 53.1 31.8 54C32.6 55.7 34.1 57.1 36 57.4C37.1 57.6 38.2 57.4 39.2 57C40 56.7 40.7 56.3 41.1 55.5C41.5 54.6 41.3 53.4 41.2 52.4C41.1 51.4 40.9 50.4 40.3 49.6C39.1 47.9 36.5 46.4 34.4 47.1C34.2 47.2 34.4 47.7 34.7 47.6Z" fill="black"/>
<path d="M38.2 56.8999C38.5 56.3999 38.8 55.7999 39.3 55.3999C39.8 55.0999 40.4 54.9999 41 55.1999C41.1 55.1999 41.3 55.0999 41.3 54.9999C41.3 54.8999 41.3 54.6999 41.1 54.6999C40.4 54.3999 39.7 54.4999 39.1 54.8999C38.5 55.2999 38.1 55.8999 37.8 56.5999C37.6 56.8999 38.1 57.1999 38.2 56.8999Z" fill="black"/>
<path d="M42.9 47.2C41.7 48.3 41.5 50.1 41.7 51.6C41.9 53.1 42.7 54.8 44.3 55.3C45.2 55.6 46.2 55.4 47 55.2C47.8 54.9 48.8 54.6 49.5 54.1C50.8 53 50.6 50.7 50.3 49.2C49.9 47.3 48.4 45.6 46.4 45.6C46.1 45.6 46.1 46.1 46.4 46.1C48 46.1 49.2 47.4 49.7 48.8C50 49.6 50 50.4 50 51.2C50 51.9 49.9 52.7 49.5 53.3C49 54 48.1 54.3 47.4 54.5C46.6 54.8 45.8 55 44.9 54.9C43.3 54.7 42.5 53.3 42.2 51.9C41.9 50.4 41.9 48.6 43.2 47.5C43.5 47.3 43.1 47 42.9 47.2Z" fill="black"/>
<path d="M47.2 55.2C47.4 54.7 47.7 54.1 48.2 53.8C48.6 53.4 49.2 53.2 49.7 53.4C50 53.5 50.1 53 49.8 52.9C49.1 52.7 48.4 52.9 47.9 53.4C47.4 53.8 47 54.4 46.8 55C46.7 55.1 46.8 55.3 46.9 55.3C46.9 55.4 47.1 55.3 47.2 55.2Z" fill="black"/>
<path d="M44.9 54.8999C43.6 54.9999 42.2 55.0999 41 55.6999C40 56.0999 39.2 56.8999 38.7 57.7999C37.5 59.5999 37.5 61.9999 38.7 63.7999C39.9 65.5999 42 66.4999 44.1 65.9999C46.4 65.3999 47.8 63.4999 47.9 61.1999C48 59.6999 47.7 58.0999 46.9 56.7999C46.3 55.7999 45.2 54.8999 44 55.2999C43.7 55.3999 43.8 55.8999 44.1 55.7999C45.3 55.3999 46.2 56.4999 46.7 57.4999C47.2 58.5999 47.4 59.7999 47.4 60.8999C47.4 62.9999 46.2 64.8999 44.1 65.4999C42.2 65.9999 40.2 65.1999 39.1 63.5999C38.1 61.9999 38 59.9999 38.9 58.2999C39.4 57.3999 40.1 56.5999 41 56.1999C42.2 55.5999 43.6 55.4999 44.9 55.3999C45.2 55.3999 45.2 54.8999 44.9 54.8999Z" fill="black"/>
<path d="M43.8 65.9C44.1 65.3 44.5 64.7 45 64.3C45.4 63.9 46.1 63.6 46.7 63.8C47 63.9 47.1 63.4 46.8 63.3C46.1 63.1 45.3 63.4 44.8 63.9C44.2 64.4 43.8 65.0999 43.4 65.6999C43.2 65.8999 43.7 66.2 43.8 65.9Z" fill="black"/>
<path d="M50 52.8C48.4 53.7 47.1 55.3 46.9 57.2C46.7 59.1 47.7 61 49.5 61.8C51.4 62.6 53.2 61.7 54.6 60.4C55.9 59.1 56.7 57.3 55.5 55.6C54.1 53.6 51.4 53.6 49.2 53.8C48.9 53.8 48.9 54.3 49.2 54.3C51 54.2 53 54.1 54.5 55.3C55.1 55.8 55.5 56.5 55.6 57.3C55.6 58.2 55.2 59 54.6 59.7C53.5 60.9 51.9 62 50.2 61.6C48.5 61.1 47.5 59.6 47.4 57.9C47.4 55.9 48.6 54.3 50.2 53.3C50.6 53.1 50.3 52.7 50 52.8Z" fill="black"/>
<path d="M53.3 61.3999C53.2 60.7999 53.3 60.0999 53.7 59.6999C54 59.2999 54.6 59.1999 55.1 59.3999C55.2 59.4999 55.4 59.3999 55.4 59.2999C55.5 59.1999 55.4 58.9999 55.3 58.9999C54.7 58.5999 53.8 58.7999 53.4 59.2999C52.8 59.8999 52.8 60.7999 52.9 61.5999C52.9 61.6999 53.1 61.7999 53.2 61.7999C53.3 61.5999 53.3 61.4999 53.3 61.3999Z" fill="black"/>
<path d="M51.4 62.0999C52.2 62.9999 52.9 63.9999 53.4 65.0999C53.6 65.5999 53.7 66.1999 54.3 66.2999C54.9 66.4999 55.6 66.4999 56.2 66.4999C56.5 66.4999 56.5 65.9999 56.2 65.9999C55.6 66.0999 55 65.9999 54.4 65.8999C54.1 65.7999 54 65.4999 53.9 65.2999C53.8 64.9999 53.7 64.7999 53.6 64.4999C53.1 63.4999 52.5 62.5999 51.7 61.6999C51.5 61.4999 51.2 61.8999 51.4 62.0999Z" fill="black"/>
<path d="M63.6 62.4C62.3 62.4 61 62.7 59.7 63.1C58.7 63.4 57.7 63.7 56.9 64.5C55.5 65.9 55.6 68.2 56.7 69.7C57.9 71.4 60.1 72.2 62.1 72.2C63.1 72.2 64 71.8 64.5 71C65.1 70.2 65.3 69.2 65.3 68.3C65.4 67 65.1 65.7 64.6 64.5C64.2 63.6 63.5 62.2 62.3 62.3C62 62.3 62 62.8 62.3 62.8C63.3 62.7 63.9 64 64.2 64.8C64.6 65.7 64.8 66.8 64.8 67.8C64.8 69.6 64.1 71.7 62 71.7C60.3 71.7 58.3 71 57.2 69.7C56.1 68.4 55.8 66.2 57.1 64.9C57.8 64.1 58.9 63.8 59.8 63.5C61 63.2 62.2 62.8 63.5 62.8C63.9 62.9 63.9 62.4 63.6 62.4Z" fill="black"/>
<path d="M63.6 71.4999C63.6 71.2999 63.6 71.0999 63.6 70.9999C63.6 70.7999 63.7 70.6999 63.8 70.4999C63.9 70.3999 64 70.1999 64.2 70.0999C64.4 69.9999 64.5 69.8999 64.7 69.8999C64.8 69.8999 64.9 69.6999 64.9 69.5999C64.9 69.4999 64.7 69.3999 64.6 69.3999C63.6 69.5999 62.9 70.6999 63.1 71.6999C63.1 71.7999 63.3 71.8999 63.4 71.8999C63.5 71.7999 63.6 71.5999 63.6 71.4999Z" fill="black"/>
<path d="M47.7 63.2C49.1 62.3 50.9 62.8 52.3 63.6C53.1 64.1 53.7 64.6 54 65.5C54.3 66.2 54.4 67 54.4 67.8C54.5 68.6 54.6 69.6 53.9 70.2C53.3 70.8 52.4 71.1 51.6 71.4C50.8 71.8 49.8 72 48.9 71.8C48.1 71.6 47.4 71.2 46.9 70.6C45.6 69.2 45.1 67.2 45.5 65.3C45.6 65 45.1 64.9 45 65.2C44.6 67.1 45 69 46.2 70.6C46.7 71.3 47.4 71.9 48.2 72.2C49.2 72.6 50.2 72.5 51.2 72.1C52.1 71.8 53.1 71.3 54 70.8C54.8 70.3 55 69.5 55 68.6C55 66.8 54.7 64.8 53.2 63.6C51.6 62.4 49.2 61.6 47.4 62.7C47.2 62.9 47.4 63.3 47.7 63.2Z" fill="black"/>
<path d="M49.9 72.3999C50.5 71.8999 51.1 71.3999 51.7 71.0999C52 70.8999 52.4 70.7999 52.7 70.8999C53.1 70.8999 53.4 71.0999 53.7 71.1999C54 71.3999 54.2 70.8999 54 70.7999C53.6 70.5999 53.3 70.3999 52.9 70.3999C52.5 70.3999 52.1 70.3999 51.7 70.5999C50.9 70.8999 50.2 71.4999 49.6 72.0999C49.3 72.2999 49.6 72.5999 49.9 72.3999Z" fill="black"/>
</g>
<defs>
<clipPath id="clip0">
<rect width="65.6" height="72.8" fill="white"/>
</clipPath>
</defs>
</svg>
