<svg xmlns="http://www.w3.org/2000/svg" viewBox="0 0 335.97 136.84"><defs><style>.cls-1{fill:#fff;}</style></defs><g id="Ebene_2" data-name="Ebene 2"><g id="Ebene_1-2" data-name="Ebene 1"><path class="cls-1" d="M275.21,108.31q-6.66-2.41-13.36-4.77l10,1.24a7.42,7.42,0,0,0,5.3-2.2,7.65,7.65,0,0,0,2.06-4.31c.45-3.34-1.68-7.64-5.37-8.22a641.43,641.43,0,0,1-80.9-18.15Q182.93,69,173,65.69q-4.72-1.55-9.41-3.18c-1.45-.51-2.89-1-4.32-1.58l-2-.79c-.44-.19-.89-.38-1.32-.58a51.22,51.22,0,0,1-7.94-4.48l-.74-.53c-.52-.44-1.05-.88-1.56-1.35a44.3,44.3,0,0,1-3.13-3.15c-.88-1-1.7-2-2.53-3-.14-.19-.29-.38-.43-.58-.51-.68-1-1.37-1.51-2.07-1.66-2.32-3.26-4.68-4.93-7a92,92,0,0,0-7.06-8.81,79.23,79.23,0,0,0-8-7.15c-1.36-1.11-2.72-2.24-4-3.43-.68-.63-1.34-1.27-2-1.94s-1-1.33-1.56-1.82c-.16-.24-.34-.48-.5-.73a23.08,23.08,0,0,1-1.23-2.16c-.08-.26-.33-.91-.37-1-.12-.4-.21-.79-.3-1.19s-.05-.66-.06-1C108,4.2,104.68.43,100.59.62a7.62,7.62,0,0,0-7.5,7.5c.12,7.73,4.23,14.6,9.7,19.83,2.34,2.24,4.86,4.25,7.32,6.32a8,8,0,0,0-2.79,2.66A28.66,28.66,0,0,0,104.37,43a5.76,5.76,0,0,0-1.62-.66,7.79,7.79,0,0,0-1.88-.19c-2.32-1.34-4.71-2.58-7.14-3.72a7.73,7.73,0,0,0-6.68-.38,8.63,8.63,0,0,0-1.51.84c-.82-.38-1.64-.77-2.48-1.12-8.45-3.57-17.22-6.49-26-9.23q-14.51-4.55-29.34-8c-3.81-.88-8.3,1.18-9.22,5.24A7.66,7.66,0,0,0,23.76,35q6.49,2.1,12.86,4.52c2.2.84,4.38,1.71,6.56,2.6.45.19,2.18.94.22.09l1.35.58c1.12.48,2.23,1,3.34,1.46Q57.72,48.6,67,53.67q-12.63.53-25.27.22A336.87,336.87,0,0,0,7.51,51.43,7.5,7.5,0,0,0,2.2,64.23a8.76,8.76,0,0,0,5.31,2.2q17,2,34.06,2.44l3,.38q9.8,1.35,19.51,3.27c1.4.28,2.81.54,4.2.9.61.16,1.21.33,1.81.52l.48.17c.41.21.83.42,1.23.67h0l-.12.4-.16.24s-.11.16-.2.3-.65.59-.92.86c-.16.1-.32.2-.49.29s-.38.19-.57.28a28.58,28.58,0,0,1-3.38.8c-3.61.36-7.26.32-10.88.39l-12.87.27-25.74.53c-3.92.08-7.69,3.39-7.5,7.5a7.66,7.66,0,0,0,7.5,7.5A369.45,369.45,0,0,0,76,92a14.35,14.35,0,0,0,.49,1.44l-5.87,3.47a52.72,52.72,0,0,0-6.21,3.6l-.86.29-1.07.37q-7,2.3-14,4.83A8.11,8.11,0,0,0,44,109.42a7.63,7.63,0,0,0-.75,5.78c1.18,3.66,5.25,6.61,9.22,5.24l13.6-4.7,2.06-.67a7.18,7.18,0,0,0,2.45-.76,381.74,381.74,0,0,1,42.7-10.67,285.45,285.45,0,0,1,34.88,1.55c4.93.47,9.84,1.06,14.75,1.71,14.14,1.94,28.19,4.46,42.21,7.08,14.36,2.69,28.69,5.63,43.1,8,9,1.52,17.88,2.3,27,.75,3.09-.53,5.65-4.2,5.51-7.23A7.88,7.88,0,0,0,275.21,108.31ZM71.81,74.54h0l0-.05Zm.1.17a.25.25,0,0,0,0-.07s0,0,0,.08Zm37.76-36.35,0,.07C110.17,36.93,109.87,37.92,109.67,38.36ZM71.15,76a1,1,0,0,0-.16.27S71,76.08,71.15,76Zm-1,.88s-.05.06,0,.06S70.12,76.86,70.15,76.83ZM69,77.31l-.15.08A.68.68,0,0,1,69,77.31Z"/><path d="M141.64,105.47a244.54,244.54,0,0,0-85.38,9.72c-5.45,1.64-13.37,4.25-17.73-1l-.22.85a375,375,0,0,0,40-18.56A.5.5,0,0,0,78.5,96c-1.09-3.3-4.47-4.42-7.64-4.79a66.41,66.41,0,0,0-7-.21c-2.92,0-5.83-.13-8.74-.25q-8.9-.37-17.75-1.25a159.29,159.29,0,0,1-16.44-2.14C16.25,86.37,11,84.51,9.17,79.7l-.48.64L73.74,74a.51.51,0,0,0,.44-.76c-1.09-2.34-3.26-3.64-5.64-4.43-3.38-1.12-7-1.47-10.54-2.09q-12.16-2.16-24.31-4.54Q21.24,59.72,8.83,57.06c-1.48-.31-3.36-.54-4.51-1.64-1.82-1.73.14-3.37,1.85-3.84a15.71,15.71,0,0,1,4.59-.28q3.26.06,6.51.16,25,.76,49.94,3.93c2.21.28,4.42.59,6.63.89A4.61,4.61,0,0,0,77,56c2.38-1.53-.51-3.78-1.87-4.62a115.06,115.06,0,0,0-16.62-8.12C45.21,37.78,30.9,33,21,22.06l-.36.86c10.2,0,19.68,4,28.9,8a154.88,154.88,0,0,0,28.57,9.47,134,134,0,0,0,15,2.3q3.84.36,7.68.5a33.06,33.06,0,0,0,7.24,0c3.45-.66,3.67-4.56,1.83-7-1.24-1.62-3.06-2.7-4.57-4a30.67,30.67,0,0,1-4.56-5,32.45,32.45,0,0,1-5.43-12.24c-.77-3.61-2-10.86,1.85-13.22,2.24-1.38,5.15-.3,6.91,1.36a18,18,0,0,1,3.7,6.22c1.78,4.17,3.41,8.49,6.2,12.11s6.47,5.81,10.16,8.17a40.88,40.88,0,0,1,10.2,9.07c5.44,6.81,9.56,14.57,16.76,19.8,7.63,5.55,16.67,8.43,25.72,10.65S194.81,73.1,203.82,75c11.68,2.41,23.39,4.7,35.1,7q18.57,3.57,37.16,7,16.21,3,32.44,5.91,10.75,2,21.52,3.85l2.9.51c.64.11.92-.87.27-1q-9-1.58-18-3.19Q300,92.25,284.71,89.45q-18.25-3.36-36.48-6.8t-36.31-7.08c-9.85-2-19.71-4-29.5-6.27-6.93-1.59-13.77-3.23-20.32-6a49.32,49.32,0,0,1-12.52-7.38,53.69,53.69,0,0,1-8.75-10.15,108.16,108.16,0,0,0-7.72-10.22,47.73,47.73,0,0,0-10.23-8c-4.25-2.72-7.77-5.69-10.25-10.16-2.22-4-3.43-8.52-5.78-12.44-1.79-3-5.07-5.65-8.77-4.68s-4.41,5.16-4.4,8.44a33.07,33.07,0,0,0,9.11,22.44,60.84,60.84,0,0,0,4.78,4.16c1.69,1.43,4.16,4.92,1.27,6.54-1.16.66-2.68.48-4,.47s-2.67,0-4-.08Q97,42,93.18,41.67a131.52,131.52,0,0,1-31-6.83C52.78,31.55,44,26.84,34.42,24a49.3,49.3,0,0,0-13.74-2.13.51.51,0,0,0-.36.86C28.68,32.08,40.34,37,51.7,41.6c6,2.45,12.13,4.84,17.93,7.86q2.07,1.08,4.1,2.28c.56.34,1.13.67,1.67,1,.85.58,1.36.81.95,1.82s-.77.84-1.67.77c-4-.3-8-1.08-12-1.55q-24.87-2.94-50-3.5c-2.7-.06-5.9-.51-8.37.89a3,3,0,0,0-1.1,4.55C5,57.9,8.67,58.07,11.11,58.59q6.21,1.3,12.42,2.57Q37.24,64,51,66.45c4.52.83,9.05,1.59,13.56,2.41,3.32.61,7.18,1.52,8.73,4.86l.44-.76-65,6.37c-.3,0-.62.3-.49.64,3,7.91,13.31,8.62,20.44,9.52A315.64,315.64,0,0,0,63.81,92c4.15.06,12-.87,13.71,4.26l.24-.57A372.45,372.45,0,0,1,38,114.11a.52.52,0,0,0-.22.85c3.34,4,8.88,3.66,13.51,2.64,3.18-.69,6.27-1.77,9.4-2.65q5.42-1.52,10.9-2.77a242.51,242.51,0,0,1,44.71-6,245.39,245.39,0,0,1,25.3.3c.66,0,.65-1,0-1Z"/><path d="M142.7,106.88c10.47,1.15,20.92,2.6,31.35,4.08,13.5,1.91,27,4,40.47,6q22.08,3.41,44.14,7,20.55,3.33,41.08,6.77,16.27,2.72,32.53,5.55l3.07.53c.63.12.91-.86.26-1q-15.5-2.73-31-5.32-20.32-3.42-40.66-6.73-22.05-3.59-44.13-7-20.72-3.23-41.45-6.24c-10.84-1.55-21.68-3.07-32.55-4.33l-3.09-.35c-.65-.08-.65.94,0,1Z"/></g></g></svg>