<svg xmlns="http://www.w3.org/2000/svg" viewBox="0 0 272.53 262.66"><defs><style>.cls-1{fill:#fff;}</style></defs><g id="Ebene_2" data-name="Ebene 2"><g id="Ebene_1-2" data-name="Ebene 1"><g id="Ebene_2-2" data-name="Ebene 2"><g id="Ebene_1-2-2" data-name="Ebene 1-2"><path class="cls-1" d="M57.59,209q5.74-4.14,11.47-8.34l-6.66,7.56a7.41,7.41,0,0,0-1.17,5.62,7.58,7.58,0,0,0,2.4,4.13c2.5,2.25,7.25,2.92,9.81.19A643.16,643.16,0,0,1,134,161.52q8-6.63,16.37-13,3.94-3,7.93-6c1.24-.91,2.46-1.83,3.74-2.68l1.78-1.21,1.22-.76a51,51,0,0,1,8.18-4l.85-.31c.66-.18,1.32-.37,2-.53,1.44-.34,2.9-.61,4.36-.81s2.61-.27,3.91-.39l.72,0c.85,0,1.7-.06,2.56-.08,2.85-.07,5.7-.06,8.56-.13a92.17,92.17,0,0,0,11.26-.87,78,78,0,0,0,10.41-2.58c1.69-.49,3.39-1,5.09-1.37.9-.2,1.81-.39,2.73-.55s1.66-.08,2.38-.27c.29,0,.59,0,.89,0a23,23,0,0,1,2.48.2c.26.08.93.24,1,.26.4.13.77.27,1.15.42a3.92,3.92,0,0,1,.86.52c3.34,2.15,8.32,1.53,10.47-2A7.61,7.61,0,0,0,243,115c-6.45-4.26-14.44-4.74-21.84-3.17-3.17.67-6.25,1.62-9.35,2.49a8,8,0,0,0-.62-3.81,28.81,28.81,0,0,0-3.36-5.85,5.8,5.8,0,0,0,1.46-1,7.69,7.69,0,0,0,1.22-1.45q3.62-1.74,7.1-3.8a7.77,7.77,0,0,0,4.08-5.3,9,9,0,0,0,.15-1.72c.78-.47,1.56-.92,2.33-1.42,7.71-5,15.06-10.57,22.27-16.27Q258.37,64.3,269.58,54c2.87-2.65,3.7-7.52.87-10.57a7.66,7.66,0,0,0-10.58-.85q-5.4,4.17-11,8.07C247,52,245,53.3,243,54.6c-.41.26-2,1.27-.2.13l-1.24.79c-1,.65-2.08,1.27-3.09,1.93q-9,5.5-18.44,10.31,6.69-10.73,14.06-21a334.3,334.3,0,0,0,21.32-26.88,7.5,7.5,0,0,0-7.58-11.6,8.8,8.8,0,0,0-4.81,3.15q-11.24,12.92-21.21,26.76l-2,2.26q-6.65,7.34-13.7,14.28c-1,1-2,2-3.11,3-.48.41-1,.81-1.45,1.2l-.41.3c-.41.22-.82.45-1.25.64h0l-.26-.33-.11-.26s-.07-.18-.14-.34-.12-.87-.19-1.24c0-.19,0-.38,0-.57s.06-.42.09-.63a28.83,28.83,0,0,1,1.24-3.24C202.34,50,204.43,47,206.41,44l7-10.78,14.07-21.56c2.15-3.29,1.54-8.27-2-10.42a7.67,7.67,0,0,0-10.43,2,369.69,369.69,0,0,0-31.78,50.38,14.47,14.47,0,0,0-1.47-.4l.45-6.81a53.52,53.52,0,0,0,.52-7.16l.25-.87.29-1.09q2.06-7.08,3.91-14.29a8.21,8.21,0,0,0-.3-5.63,7.67,7.67,0,0,0-4.36-3.88c-3.68-1.08-8.42.62-9.52,4.67L169.33,32l-.61,2.08a7.28,7.28,0,0,0-.76,2.45,379,379,0,0,1-15.25,41.29,284.45,284.45,0,0,1-20.94,27.94c-3.16,3.8-6.42,7.53-9.72,11.22-9.58,10.58-19.58,20.77-29.64,30.87C82.09,158.21,71.59,168.39,61.51,179c-6.33,6.58-12,13.48-15.84,21.88-1.3,2.86.28,7,2.87,8.63A7.88,7.88,0,0,0,57.59,209ZM200.12,60h0l0,0Zm-.19,0a.1.1,0,0,0,0,0l-.06,0Zm8.74,51.68-.06,0C209.57,112.86,208.92,112.05,208.67,111.64Zm-9.38-53a1.43,1.43,0,0,0-.13-.28A.35.35,0,0,1,199.29,58.6Zm-.16-1.32s0-.07,0,0,.08,0,.09.06Zm.29-1.19,0-.17A.88.88,0,0,1,199.42,56.09Z"/><path d="M135.22,100.22a244.59,244.59,0,0,0,40.09-76c1.72-5.43,4-13.44,10.82-14.09l-.58-.66A374.51,374.51,0,0,0,178.34,53a.48.48,0,0,0,.29.42c3.34,1,6.17-1.2,8.26-3.61A67.58,67.58,0,0,0,191,44.13c1.64-2.41,3.39-4.74,5.13-7.08q5.33-7.14,11-14a159.66,159.66,0,0,1,11-12.37c3.46-3.31,7.95-6.6,13-5.4l-.26-.76L199.48,61.87a.51.51,0,0,0,.14.71.43.43,0,0,0,.24.08c2.55.42,4.85-.64,6.84-2.16,2.83-2.16,5.16-5,7.67-7.53q8.63-8.82,17.45-17.52,9-8.9,18.24-17.65c1.09-1.05,2.34-2.47,3.9-2.8,2.45-.53,2.7,2,2.12,3.69a15.46,15.46,0,0,1-2.35,3.95q-1.89,2.67-3.8,5.29-14.72,20.22-31.4,39c-1.47,1.66-3,3.32-4.47,5a4.63,4.63,0,0,0-1.55,2.77c-.08,2.83,3.41,1.71,4.87,1.06a116.48,116.48,0,0,0,16.08-9.15c12-7.9,24-17,38.65-19l-.51-.78c-5.75,8.42-14.39,14-22.89,19.36a155.55,155.55,0,0,0-23.93,18.26,134.07,134.07,0,0,0-10.35,11.1c-1.64,2-3.23,4-4.75,6.06a33.42,33.42,0,0,0-4.08,6c-1.39,3.22,1.7,5.6,4.76,5.46,2-.11,3.95-1,5.88-1.52a30.84,30.84,0,0,1,6.7-1A32.48,32.48,0,0,1,236.11,113c3.41,1.4,10.09,4.47,9.87,9-.12,2.63-2.65,4.43-5,4.94a18,18,0,0,1-7.23-.45c-4.45-.88-8.93-2-13.5-1.7s-8.44,2.07-12.47,3.79a40.73,40.73,0,0,1-13.24,3.31c-8.69.66-17.42-.31-25.8,2.69-8.89,3.17-16.36,9-23.3,15.24s-13.44,12.63-20.09,19c-8.58,8.29-17.07,16.67-25.57,25.05q-13.41,13.32-26.72,26.75Q61.43,232.26,49.88,244q-7.71,7.75-15.31,15.61l-2,2.11c-.46.46.2,1.25.67.78Q39.57,256,46,249.45q10.91-11,21.84-22Q80.88,214.24,94,201.13t26.31-26c7.21-7,14.42-14,21.81-20.84,5.22-4.82,10.43-9.55,16.41-13.4a49.13,49.13,0,0,1,13.15-6.18A53.81,53.81,0,0,1,185,133.2a107.19,107.19,0,0,0,12.79-.62,47.59,47.59,0,0,0,12.37-3.94c4.65-2,9.08-3.21,14.17-2.74,4.56.42,9,2,13.54,2.24,3.48.21,7.52-1,8.81-4.61s-1.78-6.55-4.5-8.39A33,33,0,0,0,218.5,110a62,62,0,0,0-6.13,1.6c-2.13.59-6.41.67-6.12-2.63.11-1.33,1.12-2.49,1.87-3.57s1.51-2.21,2.32-3.26c1.58-2,3.17-4,4.79-6a132,132,0,0,1,23.11-21.76c8-5.91,16.86-10.5,24.6-16.82a48.73,48.73,0,0,0,9.51-10.15.5.5,0,0,0-.15-.7.51.51,0,0,0-.36-.08c-12.43,1.64-23.07,8.5-33.27,15.29-5.41,3.57-10.84,7.29-16.6,10.38q-2.06,1.09-4.2,2.1l-1.76.82c-1,.37-1.44.66-2-.25s-.26-1.11.3-1.81c2.51-3.13,5.4-6,8-9q16.44-18.88,31.07-39.33c1.57-2.19,3.75-4.58,4-7.41A3,3,0,0,0,255,14a2.93,2.93,0,0,0-.66,0c-2.81.25-5,3.19-6.82,4.91q-4.57,4.39-9.12,8.81-10.08,9.73-19.86,19.71c-3.23,3.27-6.41,6.58-9.63,9.85-2.37,2.39-5.3,5.07-8.93,4.47l.38.79L231.72,5.17a.5.5,0,0,0-.25-.77c-8.23-2-14.63,6.14-19.39,11.52a315.7,315.7,0,0,0-21.87,27.6c-2.39,3.4-6.05,10.41-11.25,8.93l.34.52a374,374,0,0,1,7.19-43.23.51.51,0,0,0-.35-.64.44.44,0,0,0-.23,0c-5.18.51-8,5.27-9.79,9.67-1.22,3-2.07,6.18-3.11,9.26q-1.8,5.34-3.85,10.57a243.21,243.21,0,0,1-20.25,40.31A245.24,245.24,0,0,1,134.4,99.62a.5.5,0,0,0,.83.56Z"/><path d="M133.45,100.3c-6.85,8-13.94,15.82-21,23.6-9.18,10.07-18.52,20-27.76,30Q69.38,170.26,54,186.46q-14.34,15.1-28.75,30.12Q13.83,228.49,2.32,240.32L.15,242.56c-.45.45.2,1.24.68.78q11-11.26,21.87-22.61Q37,205.87,51.18,190.94q15.39-16.2,30.65-32.51,14.36-15.3,28.52-30.72c7.39-8.08,14.75-16.18,21.92-24.45l2-2.35c.43-.5-.41-1.07-.82-.57Z"/></g></g></g></g></svg>