<svg width="24" height="24" viewBox="0 0 24 24" fill="none" xmlns="http://www.w3.org/2000/svg">
<g clip-path="url(#clip0)">
<path d="M11.8 16.8C14.5615 16.8 16.8 14.5615 16.8 11.8C16.8 9.03863 14.5615 6.80005 11.8 6.80005C9.03863 6.80005 6.80005 9.03863 6.80005 11.8C6.80005 14.5615 9.03863 16.8 11.8 16.8Z" stroke="black" stroke-width="1.5" stroke-miterlimit="10"/>
<path d="M11.7 0.800049H3.40005C1.90005 0.800049 0.800049 2.00005 0.800049 3.40005V20.1C0.800049 21.6 2.00005 22.7001 3.40005 22.7001H20.1C21.6 22.7001 22.7001 21.5 22.7001 20.1V12.6" stroke="black" stroke-width="1.5" stroke-miterlimit="10" stroke-linecap="round"/>
<path d="M18.5 5.90005C19.2179 5.90005 19.7999 5.31802 19.7999 4.60005C19.7999 3.88208 19.2179 3.30005 18.5 3.30005C17.782 3.30005 17.2 3.88208 17.2 4.60005C17.2 5.31802 17.782 5.90005 18.5 5.90005Z" fill="black"/>
</g>
<defs>
<clipPath id="clip0">
<rect width="23.5" height="23.5" fill="white"/>
</clipPath>
</defs>
</svg>
