<svg width="360" height="582" viewBox="0 0 360 582" fill="none" xmlns="http://www.w3.org/2000/svg">
<g opacity="0.5" clip-path="url(#clip0)">
<path d="M146.6 243.8C127.3 238 108.2 227.3 96.1 210.8C89.6 202 85.4 191.5 84.8 180.6C84.2 170.1 86.8 158.6 93 149.9C96.5 145 101.5 141.7 106.7 139C112.4 136.1 118.5 133.9 124.6 131.8C126.7 131 125.8 127.6 123.7 128.4C113.1 132.1 101.3 135.9 93.2 144.2C89.1 148.4 86.4 153.7 84.4 159.2C82.5 164.5 81.4 170.1 81.2 175.8C80.8 187.5 84.2 199.2 90.5 209C96 217.6 103.4 224.8 111.6 230.8C121.9 238.2 133.5 243.6 145.6 247.3C147.8 247.9 148.8 244.4 146.6 243.8Z" fill="white"/>
<path d="M362.7 389C355.1 366.9 347.6 344.8 340 322.6C337.9 316.3 335.7 310.1 333.6 303.8C332.1 299.4 329.5 295.6 325.5 293.2C323.5 291.9 321.3 291.2 318.9 291.1C316.5 290.6 314.2 290.7 311.8 291.4C307.5 292.8 303.4 295.4 301.2 299.5C299.1 303.6 297.9 308.6 299.4 313.1C307 335.2 314.5 357.3 322.1 379.5C324.2 385.8 326.4 392 328.5 398.3C330 402.7 332.6 406.5 336.6 408.9C338.6 410.2 340.8 410.9 343.2 411C345.6 411.5 347.9 411.4 350.3 410.7C354.6 409.3 358.7 406.7 360.9 402.6C363.1 398.6 364.3 393.5 362.7 389Z" fill="#C6ECAC"/>
<path d="M354.6 379.7C353.4 380.9 352.2 382 350.9 383C348.5 385 351.6 382.9 351.9 382.2C351.7 382.6 350 383.6 349.6 383.9C346.8 385.8 343.8 387.6 340.8 389.1C340.1 389.5 339.3 389.8 338.5 390.2C337.9 390.5 335 391.7 337.8 390.5C340.6 389.3 337.7 390.5 337.1 390.8C336.1 391.2 335.2 391.5 334.2 391.9C330.5 393.2 326.8 394.2 323 395C330.5 400.7 337.9 406.4 345.4 412.1C345.1 366.2 346.8 320.3 350.6 274.5C350.9 270.4 348.4 264.7 345.4 262C342.5 259.3 339.2 257.7 335.2 257.1C327.3 256 317.2 261.1 315.8 269.8C308.3 314.7 299.1 359.7 282.2 402.2C281.6 403.8 280.9 405.4 280.3 407C280.1 407.5 279.9 408.1 279.6 408.6C278.8 410.7 281.1 405.1 279.8 408.1C278.5 411.1 277.2 414.1 275.8 417.1C272.9 423.3 269.9 429.4 266.7 435.4C277.7 438.4 288.7 441.4 299.7 444.3C298.3 418.4 299.3 392.5 302.8 366.8C302.6 368.4 302.4 369.9 302.2 371.5C305.5 347.5 310.8 323.9 318.1 300.8C307.3 302.2 296.5 303.6 285.8 305C289.2 310.9 292.3 316.9 295.1 323.1C295.6 324.3 297.6 329.4 295.7 324.3C296.3 325.8 296.9 327.3 297.5 328.8C298.7 332 299.9 335.1 301 338.4C305.2 350.8 308.4 363.5 311.1 376.3C316.4 401.6 319.8 427.2 325.7 452.3C329.1 466.9 333.4 481.3 339.2 495.2C340.7 498.9 342.3 501.9 345.5 504.4C348.5 506.7 352.3 508.4 356.2 508.2C364.1 507.8 370.9 502.9 373.3 495.2C391.7 433.8 403.5 370.5 408.5 306.7C409.9 289.1 410.7 271.6 411 254C411.2 245.2 404.1 237.8 395.7 236.6C387.2 235.5 378.5 240.7 376.3 249.3C361.4 308.3 351 368.3 341.6 428.4C339 445.2 336.5 462 333.9 478.7C345.5 480.3 357.1 481.8 368.7 483.4C370.8 451.2 374 419.1 378.3 387.1C378.1 388.7 377.9 390.2 377.7 391.8C379.4 378.9 381.3 366.1 383.4 353.3C383.8 351 384.2 348.7 384.7 346.5C385.2 344.2 386.2 342 386.7 339.8C385.5 342.7 385.2 343.2 386 341.6C386.3 341.1 386.5 340.5 386.8 340C387.4 338.9 388 337.9 388.7 336.9C389.8 335.4 389.4 335.9 387.6 338.3C388 337.8 388.4 337.4 388.9 336.9C389.8 336 393.4 333.1 389 336.4C381.9 335.5 374.7 334.6 367.6 333.6C370 335.5 372.9 337.8 374.5 340.4C374.4 340.3 371.9 336.7 373.4 339C373.8 339.6 374.2 340.3 374.6 340.9C375.5 342.3 376.2 343.8 376.9 345.3C378.4 348.3 375.5 341.8 376.4 343.9C376.7 344.6 376.9 345.3 377.2 346C377.6 347.2 378.1 348.5 378.4 349.8C379.3 352.8 380 355.8 380.6 358.8C383.7 373.9 386.5 389.1 389.4 404.2C395.5 436.1 401.7 468 407.8 499.9C411.3 518.1 414.8 536.2 418.3 554.4C420 563 429.6 568.2 437.7 567.1C446.5 565.9 452.8 558.6 453 549.7C455.2 480.1 456.3 410.5 456.2 340.9C456.2 321.1 456 301.4 455.8 281.6C444 281.6 432.2 281.6 420.4 281.6C421.2 310.7 421.3 339.9 417.4 368.8C417.6 367.2 417.8 365.7 418 364.1C415.2 384.7 410.3 405.1 402.5 424.4C400.9 428.5 403.6 421.9 402.4 424.8C401.9 426 401.4 427.2 400.8 428.4C399.6 431 398.4 433.5 397.1 436C395 440.2 392.8 444.3 390.2 448.3C389.2 449.9 388.1 451.4 387.1 452.9C385 455.8 389.4 450.1 387.6 452.2C386.9 453 386.2 453.9 385.5 454.7C382.9 457.7 380.1 460.4 377.1 463C376.7 463.3 376.2 463.8 375.8 464.1C376.1 464 379.3 461.5 377.3 462.9C376.2 463.6 375.2 464.4 374.1 465.1C372.1 466.3 370.1 467.5 368 468.5C364.6 470.1 371.8 467.1 368.2 468.4C367.1 468.8 366 469.2 364.8 469.5C362.3 470.2 359.8 470.8 357.2 471.2C358.8 471 360.3 470.8 361.9 470.6C359 471 356.2 471.1 353.3 471.1C357.5 472.8 361.6 474.6 365.8 476.3C366.9 477.4 367.7 478.6 368.1 480.1C368.7 481.8 368.8 482.1 368.5 480.9C368.7 482.5 368.9 484 369.1 485.6C369 485.1 369 484.7 369.1 484.2C368.9 485.8 368.7 487.3 368.5 488.9C368.6 488.5 368.8 488 368.8 487.5C367.5 490.4 367.1 491.2 367.9 490C368.4 489.3 368.2 489.5 367.2 490.8C365.2 493.3 367.9 490.2 368.6 489.6C371 487.5 367.9 489.6 367.7 490.2C367.8 489.9 369 489.3 369.3 489.1C370.6 488.2 372 487.5 373.4 486.7C379.2 483.4 385 480.3 390.9 477.3C396.7 474.3 402.6 471.5 408.5 468.7C411.7 467.2 414.9 465.8 418.1 464.4C419.5 463.8 421 463.2 422.4 462.6C421.7 462.9 421 463.2 420.3 463.5C420.8 463.3 421.4 463 421.9 462.8C422.8 462.4 423.7 462.1 424.6 461.7C417.3 457.6 410.1 453.5 402.8 449.3C402.8 449.6 402.9 449.9 402.9 450.2C402.7 448.6 402.5 447.1 402.3 445.5C402.5 447.3 402.4 449 402.2 450.8C402.4 449.2 402.6 447.7 402.8 446.1C402.6 447.3 402.4 448.4 402.1 449.6C401.9 450.2 401.8 450.7 401.6 451.3C401 453 401.2 452.4 402.4 449.6C401.2 451.4 400.4 453.6 399.1 455.4C398.7 455.9 398.3 456.5 398 457C399.8 454.8 400.1 454.4 398.9 455.8C398 456.8 397.1 457.9 396.2 458.9C394.5 460.7 392.8 462.5 391 464.2C387.1 467.8 383 471.2 378.8 474.5C377.3 475.6 377.7 475.4 379.9 473.7C379.3 474.1 378.8 474.6 378.2 475C377.2 475.7 376.2 476.5 375.2 477.2C373 478.8 370.9 480.3 368.7 481.9C359.7 488.2 350.4 493.9 340.8 499.2C335.9 501.9 330.9 504.5 325.9 507C323.6 508.2 321.2 509.2 318.8 510.4C317.1 511.2 317.5 511 320.1 509.8C319.4 510.1 318.8 510.3 318.1 510.5C316.7 510.9 315.4 511.2 314 511.4C315.6 511.2 317.1 511 318.7 510.8C317.3 510.9 316 510.9 314.6 510.7C316.2 510.9 317.7 511.1 319.3 511.3C319.2 511.3 316.9 510.9 316.9 510.7C316.9 510.5 321.5 513.1 318.8 511.4C317.1 510.3 322.2 514.6 320.5 512.7C318.9 510.9 320.4 511.5 321.5 514.2C321.3 513.7 320.9 513.2 320.7 512.7C319.7 511 322.3 517.2 321.6 514.7C321.2 513.4 320.9 512.1 320.7 510.7C320.9 512.3 321.1 513.8 321.3 515.4C320.5 507.6 321.9 499.2 322.6 491.4C323.4 482.2 324.4 473 325.7 463.8C325.5 465.4 325.3 466.9 325.1 468.5C330 432.7 338 397.3 349 362.8C351.3 355.6 347.6 346.4 340.9 342.8C334.3 339.3 324.7 339.5 319.5 345.6C284.7 386.1 250 426.6 215.2 467.1C205.4 478.5 195.6 489.9 185.8 501.4C195.7 504 205.5 506.6 215.4 509.2C214.3 506.3 213.6 503.4 213.2 500.4C213.4 502 213.6 503.5 213.8 505.1C213.3 500.6 213.4 496.2 213.9 491.7C213.7 493.3 213.5 494.8 213.3 496.4C215.3 482.3 220.8 468.8 225.2 455.4C229.9 441.3 234.5 427.3 239.2 413.2C248.5 385.3 257.7 357.4 267 329.4C272.3 313.6 277.5 297.8 282.8 281.9C271.2 280.3 259.6 278.8 248 277.2C250.2 318.8 252.4 360.4 254.6 402C255.1 410.8 261 418.2 269.9 419.4C273.7 419.9 277.9 419.4 281.2 417.3C285.3 414.6 287.5 411.2 289.3 406.7C311.8 350.9 325.7 292.3 340 234.1C344.2 217.1 348.3 200.1 352.5 183.1C342.6 185.7 332.8 188.3 322.9 190.9C325.9 193.8 328.3 197.3 331.2 200.2C327.8 196.8 330 198.7 330.9 199.8C331.5 200.6 332.1 201.4 332.6 202.2C333.7 203.8 334.7 205.5 335.7 207.2C337.7 210.5 339.4 214 341 217.5C341.5 218.6 342.7 221.9 340.7 216.8C341 217.7 341.4 218.6 341.8 219.5C342.5 221.3 343.1 223.1 343.7 224.9C348.5 239.2 351 254.1 353.3 269C353.9 272.9 358 277.8 361.4 279.6C365 281.5 368.7 282.2 372.7 281.7C381.4 280.5 387.9 273.2 388 264.3C388.1 258.5 388.5 252.7 389.3 246.9C389.1 248.5 388.9 250 388.7 251.6C390.1 241.4 392.5 231.3 395.8 221.5C396.7 219 397.6 216.6 398.5 214.1C398.7 213.6 398.9 213.1 399.1 212.5C399.6 211.3 399.4 211.8 398.4 214.1C399 213.8 399.9 210.6 400.3 209.9C402.6 205 405.1 200.3 407.8 195.6C397 194.2 386.2 192.8 375.5 191.4C375.7 192.9 376 194.3 376.2 195.8C376 194.2 375.8 192.7 375.6 191.1C377.1 202.5 377 214 375.5 225.4C375.7 223.8 375.9 222.3 376.1 220.7C375.1 227.5 373.7 234.3 371.7 240.9C370.7 244.2 369.6 247.4 368.4 250.6C368.1 251.3 367.9 252 367.6 252.7C367.4 253.2 367.2 253.8 367 254.3C367.3 253.6 367.6 252.9 367.9 252.2C367 253.9 366.3 255.7 365.5 257.5C376.3 258.9 387.1 260.3 397.8 261.7C396.4 255.7 395.3 249.7 394.4 243.7C394.6 245.3 394.8 246.8 395 248.4C392.8 231.8 392.8 215.1 394.9 198.5C394.7 200.1 394.5 201.6 394.3 203.2C396.4 187.9 400.2 172.9 405.7 158.5C407.2 154.6 406.1 148.3 403.9 144.9C401.8 141.6 399.1 139.2 395.4 137.7C387.8 134.5 377.3 137 373.3 144.9C371.2 149.1 368.9 153.1 366.3 157C365 158.9 363.7 160.8 362.3 162.6C361.6 163.5 360.2 165 363.4 161.2C363 161.7 362.6 162.2 362.2 162.7C361.4 163.7 360.6 164.6 359.8 165.6C353.3 173.3 346.1 180.4 338.4 187C336.5 188.7 334.6 190.3 332.6 191.9C331.7 192.7 330.8 193.4 329.8 194.1C329.3 194.5 328.7 195 328.2 195.4C327.7 195.8 325.2 197.7 327.6 195.9C330 194.1 326.7 196.6 326.1 197C325 197.8 323.9 198.7 322.8 199.5C320.6 201.2 318.3 202.8 316 204.4C307 210.8 297.9 216.8 288.6 222.8C283.5 226.1 278.4 229.3 273.3 232.5C270.7 234.1 268 235.6 265.3 237C263.9 237.7 263.2 237.1 266.6 236.5C265.9 236.6 265.3 237 264.6 237.2C262.9 237.7 261.2 238.1 259.5 238.4C261.1 238.2 262.6 238 264.2 237.8C262.1 238 260.1 238 258 237.8C259.6 238 261.1 238.2 262.7 238.4C262 238.3 261.3 238.1 260.6 238C264.7 242.1 268.8 246.2 273 250.4C271 241.8 269.3 233 268.1 224.2C268.3 225.8 268.5 227.3 268.7 228.9C266.3 211 265.7 193 267 175C267.6 165.7 258.4 156.9 249.3 157.3C239 157.8 232.5 165.1 231.6 175C230.3 189.9 237.7 204.8 248.4 214.9C253 219.3 259.4 221.2 265.6 219.4C271.9 217.7 275.8 213 278 207C280.1 201.2 282.4 195.4 284.7 189.6C285.9 186.7 287.1 183.8 288.3 180.9C288 181.8 287 184 287.9 181.9C288.2 181.2 288.5 180.5 288.8 179.7C289.5 178.1 290.2 176.5 290.9 174.9C296.1 163.2 301.6 151.6 307.5 140.2C297.3 140.2 287.1 140.2 276.9 140.2C287.7 160 298.5 179.7 309.3 199.5C312.3 204.9 318.5 208.3 324.6 208.3C330.3 208.3 337.4 205.1 339.9 199.5C347.6 182.2 355.3 164.9 362.9 147.6C366.4 139.6 369.6 131.2 373.7 123.6C374.4 122.4 375.2 121.2 375.9 120C376.9 118.3 373 123.4 374.8 121.4C375.3 120.8 375.9 120.2 376.4 119.7C377.9 118.3 378.9 118.6 375.2 120.4C375.8 120.1 376.6 119.5 377.2 119.1C379.6 117.5 372.9 120.3 375.9 119.6C376.7 119.4 377.5 119.2 378.3 119C376.7 119.2 375.2 119.4 373.6 119.6C375.1 119.4 376.5 119.4 378 119.5C372.9 116.6 367.8 113.7 362.7 110.7C365.2 114.1 367.6 117.7 369.7 121.4C370.7 123.1 371.6 124.9 372.5 126.7C373 127.7 373.5 128.6 373.9 129.6C374.6 131 374.9 133.6 373.8 129.3C374.7 133 376.6 136.6 377.6 140.2C378.7 144.2 379.5 148.3 380.1 152.4C379.9 150.8 379.7 149.3 379.5 147.7C380.2 153.1 380.4 158.6 380.2 164.1C379.8 173.4 388.6 182.2 397.9 181.8C407.9 181.4 415 174 415.6 164.1C417.7 128.3 419.7 92.5002 421.8 56.7002C410.2 58.3002 398.6 59.8002 387 61.4002C388 66.5002 388.8 71.7002 389.5 76.8002C389.3 75.2002 389.1 73.7002 388.9 72.1002C391.1 88.7002 391.7 105.5 390.7 122.3C390.3 129.7 396.5 137.7 403.7 139.4C406.8 140.1 410 140.1 413.1 139.4C416.9 138.5 422 134.9 423.7 131.3C436.4 103.7 444.4 75.1002 447.2 44.8002C448.4 31.7003 431.2 22.4002 420.6 29.5002C403.3 41.2002 386.7 54.2002 371.5 68.6002C379.8 68.6002 388.2 68.6002 396.5 68.6002C395.5 67.6002 394.5 66.7002 393.5 65.7002C392.9 65.1002 392.3 64.4002 391.8 63.8002C391.4 63.3002 389.9 61.4002 391.6 63.6002C393.4 65.9002 390.8 62.5002 390.4 61.8002C389.6 60.6002 388.9 59.3002 388.2 58.1002C387.9 57.6002 386.3 55.2002 386.5 54.7002C386.5 54.8002 388.1 58.8002 387.2 56.3002C387 55.7002 386.8 55.1001 386.6 54.5002C385.7 51.9002 385.2 49.2002 384.8 46.5002C385 48.1001 385.2 49.6002 385.4 51.2002C385 47.6002 385 44.0002 385.5 40.4002C385.3 42.0002 385.1 43.5002 384.9 45.1002C385.1 43.9002 385.3 42.7002 385.6 41.5002C387.6 32.8002 383.7 24.1002 375.4 20.6002C366.8 17.0002 358.6 20.6002 353.3 27.8002C332.7 56.2002 312.9 85.2002 294.2 114.9C305 116.3 315.8 117.7 326.5 119.1C322.6 109.1 319.8 98.7002 318.3 88.0002C318.5 89.6002 318.7 91.1002 318.9 92.7002C317.5 81.8002 317.5 70.9002 318.9 60.0002C318.7 61.6001 318.5 63.1002 318.3 64.7002C318.6 62.4002 319 60.2002 319.4 58.0002C320.3 53.2002 320.1 48.7002 317.6 44.4002C315.5 40.7002 311.2 37.2002 307 36.3002C297.8 34.2002 287.7 39.1002 285.2 48.7002C284.2 52.6002 282.9 56.4002 281.5 60.1002C280.3 63.4002 283.1 56.6002 281.7 59.6002C281.3 60.5002 280.8 61.5002 280.4 62.4002C279.4 64.4002 278.4 66.4002 277.2 68.3002C275.1 72.0002 272.7 75.5002 270.2 78.9002C269.2 80.3002 272.8 75.6002 270.3 78.7002C269.6 79.6002 268.9 80.4002 268.2 81.2002C266.6 83.0002 265 84.8002 263.3 86.5002C272.6 87.7002 281.8 88.9002 291.1 90.1002C290.8 89.4002 290.5 88.7002 290.2 87.9002C290.5 88.6002 290.8 89.3002 291.1 90.0002C290.7 88.9002 290.2 87.8002 289.8 86.8002C288.9 84.6002 288.1 82.5002 287.3 80.3002C285.8 76.1002 284.5 71.9002 283.2 67.7002C280.8 59.1002 279 50.4002 277.7 41.5002C277.9 43.1001 278.1 44.6002 278.3 46.2002C277.8 42.5002 277.4 38.7002 277.1 35.0002C276.6 28.6001 274 23.1002 268.3 19.7002C263.2 16.7002 255.5 16.2002 250.4 19.7002C234.1 31.1002 220.1 44.3001 208.7 60.5002C219.7 63.5002 230.7 66.5002 241.7 69.4002C241.8 68.6002 241.8 67.9002 241.9 67.1002C241.7 68.7002 241.5 70.2002 241.3 71.8002C241.7 69.4002 242.3 67.3001 243.1 65.0002C243.9 62.7002 242.3 67.0002 242.2 67.0002C242.1 66.8001 242.8 65.7002 242.9 65.5002C243.5 64.4002 244.1 63.3002 244.7 62.3002C245.1 61.7002 245.5 61.1002 245.9 60.6002C247.2 58.6002 245 62.0002 244.7 62.1002C245.6 61.6002 246.5 59.9002 247.3 59.1002C248.2 58.1002 249.2 57.2002 250.2 56.3002C250.6 55.9002 251.1 55.5002 251.6 55.1002C252.1 54.6002 254.4 52.9002 252 54.8002C249.5 56.7002 253 54.2002 253.6 53.7002C254.8 52.9002 256 52.1002 257.3 51.4002C258.6 50.7002 259.9 50.0002 261.2 49.4002C261.8 49.1002 262.4 48.8002 263 48.6002C265 47.7002 259.1 50.1001 262.1 49.0002C267.8 46.9002 273.6 45.5002 279.6 44.6002C278 44.8002 276.5 45.0002 274.9 45.2002C283.1 44.1002 291.4 44.1002 299.6 45.2002C298 45.0002 296.5 44.8002 294.9 44.6002C298.6 45.1002 302.2 45.8002 305.8 46.8002C307.4 47.2002 309 47.7002 310.5 48.3002C311.4 48.6002 312.3 49.0002 313.3 49.3002C316.3 50.4002 309.5 47.6001 312.6 49.0002C309.9 42.3002 307.2 35.7002 304.5 29.0002C304.2 30.7002 304.6 29.8002 305.7 26.4002C306.8 24.5002 308.3 22.9002 310.2 21.8002C306.5 23.1002 313 21.0002 311.3 21.5002C309.2 22.1001 307.1 22.6002 304.9 22.9002C306.5 22.7002 308 22.5002 309.6 22.3002C254.9 28.9002 199.3 30.3001 144.2 28.0002C128.5 27.3001 112.8 26.3001 97.1 25.0001C97.1 36.8001 97.1 48.6002 97.1 60.4002C144.2 56.0002 191.6 54.0002 238.9 54.2002C237.3 42.6002 235.8 31.0002 234.2 19.4002C211.6 23.7002 188.8 27.3002 165.9 30.4002C167.5 30.2002 169 30.0002 170.6 29.8002C108.5 38.1002 46 42.5001 -16.5 46.0001C-34.2 47.0001 -51.8999 47.9002 -69.5999 48.9002C-78.7999 49.4002 -87.7 56.7001 -87.2999 66.6002C-86.8999 76.2002 -79.5 84.2001 -69.5999 84.3002C-18.7999 84.6001 31.9 85.0002 82.7 85.3002C97.1 85.4002 111.6 85.5002 126 85.6002C123 74.6002 120 63.6002 117.1 52.6002C115.3 53.4002 113.5 54.2002 111.7 55.0001C110.9 55.4002 110 55.7002 109.2 56.1002C113.7 53.8002 110.5 55.6001 109.4 56.0001C106 57.4002 102.6 58.7002 99.2 60.0001C91.7 62.7002 84.1001 65.2002 76.4 67.4002C60.8 71.8002 44.9 75.1001 28.9 77.3002C30.5 77.1001 32 76.9002 33.6 76.7002C31.3 77.0001 29 77.3002 26.7 77.6002C31.8 80.5002 36.9 83.4002 42 86.4002C40.5 84.4002 39.2 82.3002 37.9 80.2002C37.3 79.1001 36.7 78.1002 36.2 77.0002C35.9 76.5002 35.7 75.9002 35.4 75.4002C36.5 78.1002 36.8 78.9002 36.3 77.6002C34.7 73.3002 33.5 69.1001 32.9 64.5001C33.1001 66.1001 33.3 67.6001 33.5 69.2002C32.9 64.6002 32.9 60.0001 33.5 55.5001C33.3 57.1001 33.1001 58.6002 32.9 60.2002C33.3 57.0001 34 53.9002 34.9 50.9002C35.3 49.6002 36.8 47.2002 36.7 45.9002C36.7 46.7002 34.9 50.1002 36.2 47.3002C36.6 46.5002 37 45.7002 37.4 44.9002C38.2 43.4002 39 42.0001 39.9 40.5001C40.4 39.7002 40.9 38.9002 41.5 38.2002C41.9 37.6002 43.7 35.3001 41.8 37.7002C39.9 40.1002 41.8 37.8002 42.2 37.3002C42.8 36.6002 43.5 35.8002 44.1 35.1002C45.4 33.6002 46.8 32.2002 48.3 30.9002C39 29.7002 29.8 28.5002 20.5 27.3002C21.7 29.7002 22.9 32.0001 24 34.5001C24.3 35.2002 24.6001 35.9002 24.9 36.6002C25.7 38.4002 25.5 38.0001 24.4 35.5001C24.2 36.1001 25.4 38.1002 25.6 38.6002C27.4 43.4002 29 48.4002 30.4 53.4002C33.1001 63.3002 34.9 73.4002 36.3 83.6002C36.1 82.0002 35.9 80.5002 35.7 78.9002C37 88.7002 37.9 98.5002 38.8 108.3C39.4 115.5 42.7 121.5 49.7 124.5C56.6 127.4 63.4 125.5 69 120.8C71.7 118.6 74.4 116.3 77.2 114.1C78.5 113.1 79.8 112 81.1 111C81.3 110.8 84.3 108.5 82 110.3C79.7 112.1 82.4 110 82.9 109.6C88.6 105.3 94.4 101 100.3 96.9002C112.3 88.5002 124.6 80.6002 137.2 73.1002C128.5 69.6002 119.9 66.1002 111.2 62.5001C119.3 83.9001 123.9 106.3 127 128.9C126.8 127.3 126.6 125.8 126.4 124.2C128.2 137.9 129.5 151.6 130.8 165.3C131.5 172.8 135.8 180.5 143.8 182.4C151.3 184.1 160 181.4 163.8 174.3C177.7 148.5 191.5 122.7 205.4 96.8002C196.1 98.0002 186.9 99.2002 177.6 100.4C185.2 106.4 192.3 113 198.7 120.2C200.2 121.9 201.6 123.6 203.1 125.3C203.9 126.3 206.2 129.7 203.2 125.3C203.8 126.1 204.4 126.9 205 127.7C207.7 131.5 210.3 135.4 212.6 139.4C217 147 226.7 150 234.7 146.6C242.7 143.2 247.3 134.3 244.9 125.7C242.3 116.3 237.5 108.1 231.4 100.6C229.1 97.7002 226.5 95.0002 223.6 92.6002C220.2 89.7002 217 87.0002 212.5 85.9002C208.3 84.9002 204.1 85.1002 200 86.3002C193.7 88.1002 188.4 92.8002 185.1 98.3002C182.4 102.8 181.6 107.1 180.8 112.1C179.3 121.4 177.8 130.7 176.4 140.1C175.6 144.9 174.7 149.8 174.3 154.7C173.9 158.8 174.4 162.8 175.1 166.8C176.3 174.1 180.1 181.8 185.9 186.6C190 190 194.4 192.6 199.6 193.9C203.5 194.8 207.6 195.4 211.5 194.3C216.3 193 219.3 189.8 222.4 186.3C228.9 178.8 235.2 171 241.2 163.1C253 147.7 263.6 131.5 272.8 114.4C262.6 108.4 252.4 102.5 242.2 96.5002C239.6 102 236.8 107.4 233.6 112.6C232 115.1 230.4 117.6 228.7 120.1C227.8 121.5 226.8 122.8 225.9 124.1C225 125.3 221.2 130.1 225.2 125.1C216.9 135.4 208 145 198 153.7C195.5 155.9 193 158 190.5 160C189.8 160.6 189.1 161.1 188.4 161.7C185.7 163.9 191.9 159.1 189.1 161.1C187.6 162.2 186.2 163.3 184.7 164.4C178.9 168.6 173 172.5 167 176.2C160.8 180 154.4 183.6 147.9 186.9C144.7 188.5 141.5 190.1 138.3 191.6C136.5 192.4 134.7 193.2 133 194C132.4 194.3 131.8 194.5 131.2 194.8C130.6 195.1 130 195.3 129.4 195.6C132.1 194.5 132.6 194.2 130.9 195C114.7 201.7 98 207.1 80.9 211.1C85.4 211.7 90 212.3 94.5 212.9C93.4 212.4 92.3 211.5 91.2 211.1C89.5 210.5 94.4 213.5 93 212.4C91.7 211.4 92.1 209.9 94.2 214.1C94 213.7 93.7 213.3 93.5 212.9C92.3 211.2 94.5 215 94.5 215.3C94.7 214.7 93.8 212.7 93.7 212C93.9 213.6 94.1 215.1 94.3 216.7C94.1 215.1 94.2 213.5 94.4 211.8C94.2 213.4 94 214.9 93.8 216.5C94 215.2 94.3 213.9 94.6 212.6C94.9 211.7 96.4 207.6 95.1 210.9C93.8 213.9 94.8 211.7 95.1 211C95.5 210.3 95.8 209.6 96.2 208.8C97 207.4 97.8 205.9 98.6 204.5C100.3 201.5 102.2 198.5 104.2 195.7C105.1 194.3 106.1 192.9 107.1 191.6C107.6 190.9 108.1 190.2 108.6 189.6C110.8 186.6 106 192.9 108.3 189.9C117.7 178.2 128.4 167.8 140.3 158.6C130.4 152.9 120.6 147.1 110.7 141.4C108.9 147.6 107.1 153.7 104.9 159.8C104.4 161.3 103.8 162.7 103.3 164.2C103 164.9 102.8 165.5 102.5 166.2C101.3 169.2 104.2 162.3 103 165.1C101.7 168.1 100.2 171.1 98.7 174C97.2 176.8 95.5 179.5 93.7 182.1C93.2 182.8 92.7 183.5 92.2 184.2C91 185.9 94.9 180.8 93.1 183.1C92 184.5 90.8 185.8 89.6 187.2C87.3 189.7 84.9 192 82.3 194.2C81.3 195 78.6 196.7 82.9 193.8C82.1 194.3 81.3 194.9 80.5 195.5C78.9 196.6 77.2 197.7 75.4 198.7C84.1 202.2 92.7 205.7 101.4 209.3C88.8 177.7 79.3 145 73.4 111.5C72.2 104.7 65 99.7002 58.7 98.8002C52.3 97.9002 44 100.9 41.1 107.2C28.8 134.4 16.4 161.6 4.10001 188.7C14.9 190.1 25.7 191.5 36.4 192.9C32 175.8 28.6 158.5 26.3 141C26.5 142.6 26.7 144.1 26.9 145.7C23.1 116.5 22.2 87.0002 24.3 57.6002C12.7 59.2002 1.10005 60.7002 -10.5 62.3002C-9.69997 65.3002 -8.99996 68.2001 -8.59993 71.3002C-8.79994 69.7001 -8.99996 68.2002 -9.19997 66.6002C-8.59999 71.7002 -8.59993 76.9002 -9.29994 82.0002C-9.09993 80.4002 -8.89998 78.9002 -8.69997 77.3002C-9.19997 81.0002 -10.1 84.5002 -11.2 88.0002C-11.5 88.9002 -11.7999 89.8002 -12.0999 90.6002C-12.3999 91.3002 -13.5 94.0002 -12.2999 91.1002C-11 88.1002 -12.5 91.4002 -12.7999 92.0002C-13.2 92.9002 -13.6999 93.7002 -14.0999 94.6002C-15.8999 97.9002 -18.1 101 -20.2 104.1C-17.2 99.8002 -19.2 102.8 -20 103.7C-20.7 104.5 -21.2999 105.3 -22 106C-23.4 107.5 -24.8999 109 -26.3999 110.5C-18.0999 110.5 -9.69991 110.5 -1.39992 110.5C-2.79995 109 -4.19991 107.5 -5.59993 105.9C-6.49996 104.8 -7.89992 102.1 -5.39992 106.3C-5.79995 105.6 -6.39992 105 -6.89992 104.3C-9.09993 101.3 -11 98.0001 -12.7 94.7001C-13.1 93.8002 -13.4999 93.0002 -13.8999 92.1002C-15.1999 89.4002 -12.6999 95.3002 -13.3999 93.3002C-13.9999 91.7001 -14.5999 90.1002 -15.0999 88.5002C-16.1999 85.0002 -16.8999 81.4002 -17.3999 77.7001C-17.1999 79.3002 -17 80.8002 -16.7999 82.4002C-17.3999 77.3002 -17.3999 72.1001 -16.7999 67.0001C-17 68.6001 -17.1999 70.1001 -17.3999 71.7001C-16.9999 68.8002 -16.5 66.0001 -15.7 63.2001C-15.2999 61.9002 -14.9 60.5001 -14.5 59.2001C-14.2999 58.6002 -14.0999 58.0001 -13.8999 57.4002C-12.6999 54.1002 -15.7 61.4002 -14.2 58.1002C-23.5 59.3002 -32.7 60.5001 -42 61.7001C-11.5 86.8002 19.1 112 49.6 137.1C56.4 142.7 63.3 148.5 71 152.7C79.9 157.6 89.3 160.5 99.4 161.2C109.3 161.9 119.6 159.4 128.9 155.8C137.3 152.5 145.4 148.7 152.6 143.3C167.6 132.3 180.8 117.2 184.5 98.4002C185.9 91.3002 184.1 84.4002 178.2 79.8002C172.3 75.2002 165.1 75.2002 158.6 78.4002C114.6 99.8002 71 122 27.9 145.2C35 146.1 42.2 147 49.3 148C39 135.8 28.6 123.7 18.3 111.5C15.6 108.3 9.80003 106.1 5.80003 106.3C1.10002 106.5 -3.29995 108.1 -6.69997 111.5C-22.7 127.1 -34.3999 146.3 -44.5999 166C-55.5 187.3 -66.2 208.6 -77 230C-66 233 -55 236 -44 238.9C-47.7 190.2 -51.2999 141.4 -55 92.7001C-55.5 85.7001 -56 78.8002 -56.5999 71.8002C-57.0999 65.6001 -58.1999 59.0001 -57.5999 52.7001C-57.7999 54.3001 -58 55.8002 -58.2 57.4002C-58.1 56.8002 -58 56.2001 -57.7999 55.6002C-59.0999 58.3002 -59.2999 58.9002 -58.3999 57.2001C-60.2999 59.5001 -60.7 60.0002 -59.5 58.8002C-62 60.6002 -62.5999 61.0001 -61.0999 60.0001C-60.0999 59.4002 -58.8999 58.9002 -57.8999 58.3002C-60.6999 59.4002 -61.1999 59.7001 -59.3999 59.0001C-58.7999 58.8001 -58.0999 58.6002 -57.5 58.4002C-51.7999 56.6002 -46 55.2001 -40.2 53.7001C-27.7 50.4002 -15.2 47.0001 -2.69997 43.7002C-9.39998 41.0001 -16 38.3002 -22.7 35.6002C-22.4 36.3002 -22.1 37.0001 -21.7 37.7001C-20.5 40.3001 -22.1999 36.7001 -22.0999 36.7001C-22 36.7001 -20.5 41.0001 -20.2999 41.5001C-19.2 44.5001 -18.2999 47.6002 -17.3999 50.7001C-15.6999 56.8001 -14.5 63.0002 -13.7 69.3002C-13.9 67.7002 -14.0999 66.2002 -14.2999 64.6002C-11.3999 86.4002 -12.1999 108.7 -13.0999 130.6C-14 153.9 -15.5999 177.2 -17.8999 200.4C-19.1999 213.6 -20.8 226.9 -22.5 240.1C-22.3 238.5 -22.0999 237 -21.8999 235.4C-25.9999 265.5 -31.1999 295.4 -37.6 325.1C-26.1999 325.1 -14.9 325.1 -3.49998 325.1C-12.2 280.1 -20.8 235.2 -29.5 190.2C-31.2 181.6 -40.8 176.4 -48.8999 177.5C-57.9999 178.7 -63.5 186 -64.2 194.9C-69.3 254.5 -71.8999 314.3 -71.8999 374.1C-71.8999 390.9 -71.7 407.7 -71.3 424.4C-71.1 431.9 -66 439.7 -58.3 441.5C-50.6 443.3 -42.5 440.3 -38.3 433.4C-31.1 421.2 -23.3 409.3 -15.2 397.8C-11 391.9 -6.79997 386.1 -2.39995 380.4C-0.0999581 377.4 -4.39995 382.9 -2.79997 381C-2.2 380.3 -1.69999 379.6 -1.09999 378.9C1.74473e-05 377.5 1.2 376 2.30001 374.6C4.59999 371.7 6.90001 368.9 9.2 366.1C27.8 343.7 48.1 322.1 70.1 303C71.4 301.9 72.7 300.8 74 299.7C74.6 299.2 75.3 298.7 75.8 298.2C72 301.7 74.2 299.4 75.2 298.7C78 296.6 81 294.6 84 292.8C87.1 290.9 90.5 289.6 93.6 287.9C89.2 290.3 91.8 288.7 93.1 288.2C94.1 287.8 95 287.5 96 287.2C98 286.6 100 286 102.1 285.5C97.6 284.9 93 284.3 88.5 283.7C92.2 285.7 95.9 287.8 99.6 289.8C98.4 280.5 97.2 271.3 96 262C100.2 258.8 96.5 261.6 95.4 262.4C94.3 263.2 93.2 264.1 92.1 264.9C89.9 266.6 87.6 268.3 85.3 269.9C80.6 273.3 75.8 276.7 71 280C61.4 286.6 51.6 292.9 41.6 299C21.3 311.4 0.400047 322.7 -21.1 332.9C-27.1999 335.8 -33.4 338.7 -39.5 341.4C-42.6 342.8 -45.6999 344.2 -48.8999 345.5C-49.6 345.8 -50.3 346.1 -51 346.4C-51.5 346.6 -52 346.8 -52.6 347.1C-51.8999 346.8 -51.2 346.5 -50.5 346.2C-51.8 346.1 -54.6 347.9 -55.8 348.4C-49.1 351.1 -42.5 353.8 -35.8 356.5C-36.3 355.9 -38.1999 352.2 -36.8999 355.2C-35.6999 358.2 -36.8999 354.5 -37.1 353.8C-36.8999 355.4 -36.7 356.9 -36.5 358.5C-36.7 357 -36.7 355.5 -36.5 354C-36.7 355.6 -36.8999 357.1 -37.1 358.7C-37 357.8 -36.8 356.9 -36.5 356C-36.3 355.4 -36.1 354.8 -35.8999 354.2C-36.1999 355 -36.6 355.8 -36.8999 356.6C-36.1999 354.6 -34.8 352.5 -33.7 350.7C-33.1 349.8 -32.4999 349 -31.8999 348.1C-30.9999 346.7 -34.6 351.4 -32 348.3C-30.6 346.6 -29.2 345 -27.8 343.4C-21.8999 336.7 -15.8 330.3 -9.49998 324.1C-3.19999 317.9 3.40002 311.8 10.2 306C13.6 303 17.1 300.2 20.6 297.3C21.6 296.5 22.7 295.6 23.7 294.8C24.2 294.4 27.2 291.8 25.1 293.7C22.9 295.6 26 293 26.5 292.6C27.6 291.8 28.6 291 29.7 290.2C25.2 290.8 20.6 291.4 16.1 292C19.9 293.3 23.7 294.5 27.5 295.8C24 287.1 20.5 278.5 16.9 269.8C3.50002 299.3 -9.79997 328.8 -23.2 358.3C-25.6 363.6 -26.3999 368.5 -24.1 374C-22.1 378.7 -17.8999 383.3 -12.6 384.2C-2.39995 386 6.8 384.7 16.1 380.1C22.4 377 28 372.2 32.9 367.2C43.6 356.4 54.1 345.4 64.8 334.5C86.5 312.3 108.2 290 129.8 267.8C142 255.3 154.2 242.8 166.4 230.3C156.5 224.6 146.7 218.8 136.8 213.1C136.4 215.4 135.9 217.7 135.2 219.9C134.9 220.9 134.5 222 134.1 223C133.9 223.5 133.6 224 133.5 224.5C133.7 223.7 135 221.2 134 223.3C131.8 227.9 129.4 232.4 126.7 236.7C121.3 245.7 115.6 254.6 110.1 263.6C98.7 282 87.4 300.3 76 318.7C69.5 329.2 63 339.7 56.5 350.2C51.6 358.1 54.5 370 62.8 374.4C71.7 379.1 81.5 376.3 87 368.1C93.7 358.1 100.7 348.4 107.9 338.7C108.7 337.6 109.5 336.6 110.3 335.5C110.8 334.9 111.2 334.3 111.7 333.7C112.1 333.2 113.5 331.1 112.1 333.2C110.6 335.6 113.1 331.9 113.5 331.4C114.7 329.9 115.9 328.4 117 326.9C120.7 322.3 124.4 317.7 128.2 313.1C136 303.7 144 294.6 152.3 285.6C159.4 277.9 166.5 270.3 174.5 263.6C175.4 262.8 177 262.1 173.1 264.7C173.7 264.3 174.3 263.8 174.9 263.3C176 262.5 177.2 261.7 178.3 261C180.6 259.5 183 258.1 185.5 256.9C185.9 256.7 186.3 256.5 186.8 256.3C189.9 254.9 185.7 256.5 185.6 256.8C185.7 256.3 189 255.6 189.6 255.4C192.5 254.5 195.5 253.9 198.5 253.4C196.9 253.6 195.4 253.8 193.8 254C196.1 253.7 198.5 253.6 200.8 253.6C195.1 249.3 189.4 244.9 183.7 240.6C184.7 244.4 185.4 248.3 185.9 252.2C185.7 250.6 185.5 249.1 185.3 247.5C186.9 260.8 186.1 274.2 184.3 287.4C184.5 285.8 184.7 284.3 184.9 282.7C181.4 308.7 176.3 334.6 171.6 360.5C166.8 386.4 161.9 412.2 156.6 438.1C153.6 452.7 150.6 467.3 147.5 481.9C159.1 483.5 170.7 485 182.3 486.6C178 421.4 175.6 356.1 175 290.8C174.9 272.3 174.9 253.8 175 235.4C164 238.4 153 241.4 142 244.3C147.8 255.6 153.3 266.9 158.5 278.5C160.9 283.9 163.3 289.2 165.6 294.7C165.9 295.4 166.2 296.1 166.5 296.9C165.5 294.5 165.3 294.1 166.1 295.9C166.7 297.3 167.3 298.8 167.9 300.2C169.1 303.1 170.3 306 171.4 308.9C180.4 331.5 188.3 354.6 195 378C202.3 370.7 209.5 363.5 216.8 356.2C215.7 355.9 214.7 355.5 213.6 355.1C213.1 354.9 212.6 354.7 212.1 354.5C213 354.9 213.9 355.3 214.8 355.7C213.3 355.6 211.1 353.9 209.8 353.2C206.6 351.4 203.7 349.3 200.7 347.2C206 351 200.8 347.2 199.5 346.1C198.1 344.9 196.8 343.7 195.5 342.6C192.7 340.1 190 337.6 187.3 335.1C181.1 329.6 174.7 324.2 167.5 320.1C158.4 315 148.9 312.4 138.5 311.5C129.7 310.7 119.8 320.3 120.8 329.2C125.7 374.2 131.2 419.2 137.2 464C139 477.8 140.9 491.6 142.8 505.4C154.2 502.3 165.5 499.1 176.9 496C166.3 451.3 155.7 406.5 145 361.8C143.3 354.6 135.4 348.5 127.9 348.8C119.8 349.2 113.4 354.1 110.8 361.8C97.5 401.5 84.3 441.3 71 481C80.9 478.4 90.7 475.8 100.6 473.2C96.1 469.3 91.9 465.1 88.2 460.6C87.8 460.1 87.4 459.7 87.1 459.2C85 456.6 89.3 462.2 88 460.3C87.2 459.2 86.4 458.2 85.7 457.1C84.1 454.7 82.5 452.3 81.1 449.7C78.5 445.1 76.2 440.4 74 435.5C73.1 433.4 75.8 440 74.6 437C74.4 436.5 74.2 435.9 74 435.4C73.5 434.2 73.1 433 72.6 431.8C71.7 429.3 70.8 426.7 69.9 424.2C62.6 402.5 57.4 380.3 47.7 359.6C41.8 347.1 33.9 335.5 24.3 325.5C14.9 315.7 -1.59995 320.8 -5.29997 333.3C-19.3 383.2 -29 435.1 -33.6 487.4C-34 491.5 -31.4 497.2 -28.4 499.9C-25.4999 502.6 -22.2 504.2 -18.2 504.8C-10.3 505.9 -0.0999994 500.8 1.19999 492.1C8.19999 446.4 14.3 400.5 19.7 354.6C24.9 309.9 29.2 265.1 32.8 220.3C34.8 195.1 36.5 169.8 38 144.5C26.4 146.1 14.8 147.6 3.20002 149.2C25.5 211.4 46.5 274 66.1 337.1C71.6 354.9 77.1 372.8 82.4 390.7C85.2 400.1 94.7 405.3 104.2 403.1C113.7 400.9 121.9 394.2 126.3 385.5C130.3 377.6 132.5 368.8 135.2 360.4C140.8 343.1 146.3 325.8 151.9 308.5C163 274.1 174 239.7 185.1 205.3C188.2 195.7 191.3 186 194.4 176.4C195.2 174 195.9 171.7 196.7 169.3C197.1 168.1 197.5 166.9 197.8 165.8C198.6 163.2 199.2 163.9 197.2 166.8C197.6 166.2 198 165.4 198.3 164.8C199.8 162.1 195.5 167.9 197.5 165.9C199.8 163.7 193.7 168.2 196.4 166.7C198 165.9 197.3 166.1 194.3 167.5C194.8 167.3 195.3 167.2 195.8 167.2C194.2 167.4 192.7 167.6 191.1 167.8C192 167.7 192.7 167.8 193.6 167.9C192 167.7 190.5 167.5 188.9 167.3C189.2 167.4 189.5 167.4 189.8 167.5C185.7 163.4 181.6 159.3 177.4 155.1C177.7 156.6 177.9 158.1 178.1 159.6C177.9 158 177.7 156.5 177.5 154.9C178.7 164.3 178.5 173.6 177.3 183C177.5 181.4 177.7 179.9 177.9 178.3C176.5 188.2 174.1 197.9 170.9 207.3C169.3 212.1 167.5 216.9 165.7 221.6C165.2 222.9 164.7 224.1 164.2 225.4C164 225.9 163.7 226.5 163.5 227C163.5 227.1 165 223.6 164.2 225.3C163.2 227.5 162.3 229.7 161.3 232C153.8 248.7 145.2 264.9 135.7 280.5C130.7 288.6 125.5 296.6 120 304.4C117.3 308.3 114.5 312.1 111.7 315.9C110.4 317.7 109 319.4 107.7 321.2C107.6 321.3 110 318.3 108.8 319.8C108.5 320.2 108.1 320.7 107.8 321.1C106.9 322.3 106 323.4 105.1 324.6C92.9 339.9 79.7 354.4 66 368.4C51.9 382.7 37.4 396.6 23.8 411.4C16.5 419.4 9.39998 427.5 3.09999 436.3C-2.80004 444.5 -8.09996 454.1 -9.79998 464.1C-17.9 512.7 39.1 527.7 75.2 536.6C116.2 546.7 158.5 552.2 200.8 553.2C206 553.3 211.1 553.4 216.3 553.4C225.6 553.4 234.4 545.3 234 535.7C233.6 525.9 226.2 518.3 216.3 518C171.8 516.8 127.3 515.9 82.7 515.1C38.2 514.4 -6.39996 513.9 -50.9 513.6C-76.1 513.5 -101.2 513.4 -126.4 513.4C-124.8 525 -123.3 536.6 -121.7 548.2C-115.4 547.2 -109.1 546.2 -102.7 545.4C-104.3 545.6 -105.8 545.8 -107.4 546C-47.6999 538 12.8 536.6 72.9 533.9C133.7 531.2 194.5 528.9 255.4 527C272.5 526.5 289.5 526 306.6 525.5C321.9 525.1 337.2 524.3 352.4 526.3C350.8 526.1 349.3 525.9 347.7 525.7C351.7 526.3 355.7 527 359.6 528.1C361.5 528.6 363.4 529.2 365.2 529.9C365.9 530.1 368.6 531.3 365.8 530.1C362.7 528.8 366.6 530.6 367.1 530.8C370.1 519.8 373.1 508.8 376 497.8C319.2 501.9 262 501.5 205.3 496.5C189.4 495.1 173.5 493.3 157.7 491.2C159.3 491.4 160.8 491.6 162.4 491.8C152.2 490.4 141.9 488.9 131.7 487.2C136 492.9 140.4 498.6 144.7 504.3C144.7 503.6 144.7 502.9 144.8 502.1C144.6 503.7 144.4 505.2 144.2 506.8C144.3 506 144.6 505.2 144.7 504.4C145.4 501 142.6 508.1 144.2 505.6C144.6 505 145 504.3 145.4 503.7C147 501.1 142.5 506.9 144.5 504.8C145.9 503.4 147.3 502.2 148.7 500.8C145.2 504.2 146.7 502.4 148 501.5C148.8 501 149.5 500.5 150.3 500C152.2 498.8 154.2 497.8 156.2 496.8C157.1 496.4 158 496 158.9 495.6C162.1 494.1 155.3 497 158.3 495.8C162.5 494.2 166.7 492.8 171 491.5C189.2 486.1 208.4 481.5 222.7 468.3C228.2 463.2 229.6 453.2 225.5 446.9C223.9 444.3 221.7 442.2 219.2 440.6C215 437.9 210.3 438.2 205.6 438.8C182.4 442 159.3 446.9 136.8 453.4C126 456.5 115.3 460.1 104.8 464C94.2 468 83.8 472.7 72.5 474.5C74.1 474.3 75.6 474.1 77.2 473.9C73.3 474.4 69.4 474.5 65.4 474C67 474.2 68.5 474.4 70.1 474.6C68.2 474.3 66.3 473.9 64.4 473.2C61.1 472.1 64.9 473.8 65.4 473.7C65.1 473.8 63.1 472.5 62.9 472.3C62.2 471.9 61.1 471.4 60.5 470.7C61.1 471.5 63.7 473.3 61.5 471.4C60.2 470.3 59 469.1 57.9 467.9C52.4 462.2 47.4 455.9 42.2 449.9C30.7 436.5 19.1 423.1 7.59999 409.7C-0.199997 400.7 -14.5 404.3 -20.2 413.3C-37 439.4 -53.7 465.5 -70.5 491.7C-61.2 490.5 -52 489.3 -42.7 488.1C-45.3 485.6 -47.8 483 -50.1 480.2C-50.6 479.7 -50.9999 479.1 -51.4 478.6C-53.6999 475.8 -49.6999 481 -50.9 479.3C-51.9 477.9 -52.9 476.5 -53.9 475C-55.6999 472.3 -57.3 469.5 -58.7 466.7C-59.4 465.4 -61.4 460.2 -59.4 465.5C-59.9999 464 -60.6 462.5 -61.1 460.9C-64.1 452.2 -73.4 445.5 -82.9 448.5C-92.4 451.6 -97.4 460.6 -95.3 470.3C-91.2 488.4 -85.9999 506.8 -75.9 522.6C-63.1 542.7 -43.8 556.5 -21.1 563.5C2.30002 570.7 27.6 571.1 52 571.5C78.5 572 105 572.4 131.5 572.9C184.7 574 238.1 574.9 291.5 575.8C317.9 576.3 344.2 576.7 370.6 576.8C396.7 577 423.1 577.7 449.1 575.6C463.5 574.4 477.9 572.5 491.2 566.6C497.8 563.7 504.2 558.6 507.4 552.1C511.9 543.2 511 534.4 509.3 524.9C504.7 500.2 493.5 477.4 488.1 453C486.7 446.8 485.7 440.5 484.8 434.1C485 435.7 485.2 437.2 485.4 438.8C482.7 418.1 482.3 397.2 481.7 376.4C481.2 355.1 480.2 333.8 478.7 312.6C475.6 269.2 470.3 225.8 463 182.9C459 159.1 454.3 135.4 449 111.8C447 102.8 436 96.6002 427.2 99.4002C417.7 102.5 412.7 111.5 414.8 121.2C423.3 159.2 430.2 197.5 435.5 236.1C435.3 234.5 435.1 233 434.9 231.4C440.3 271.7 443.9 312.3 445.6 353C447.3 394.2 445.8 436.2 457.5 476.1C463.6 497 472.6 517.1 475.8 538.7C475.6 537.1 475.4 535.6 475.2 534C475.5 536.1 475.6 538.1 475.3 540.2C475.5 538.6 475.7 537.1 475.9 535.5C475.8 536.1 475.4 536.9 475.4 537.5C476.5 535.2 476.7 534.5 476.1 535.6C475.6 536.3 475.8 536.1 476.8 534.8C478.6 532.4 477.2 534 476.8 534.5C475.7 535.9 480 532.4 478.3 533.4C477.1 534.1 475.9 534.8 474.7 535.5C472.6 536.6 475.8 535.2 476.2 534.9C475.5 535.3 474.5 535.5 473.8 535.8C467.7 537.8 461.2 539 454.8 539.8C456.4 539.6 457.9 539.4 459.5 539.2C445.1 541.1 430.5 541.3 415.9 541.5C401.2 541.7 386.5 541.7 371.7 541.7C341.6 541.6 311.6 541 281.5 540.5C221.5 539.4 161.6 538.4 101.6 537.3C84.8 537 67.9 536.7 51.1 536.4C36 536.1 20.9 535.8 5.9 533.8C7.5 534 8.99997 534.2 10.6 534.4C0.999973 533.1 -8.60003 531.1 -17.7 527.7C-18.5 527.4 -22.1 525.9 -19.3 527.1C-16.4 528.3 -20.3 526.6 -20.8 526.3C-22.8 525.3 -24.8 524.3 -26.7 523.1C-28.6 522 -30.4 520.8 -32.1 519.6C-32.5 519.3 -32.8 519.1 -33.2 518.8C-34.6 517.8 -31.4 520.3 -31.4 520.2C-31.6 519.6 -33.6 518.4 -34.1 518C-37.1 515.4 -39.9 512.5 -42.4 509.5C-42.6999 509.1 -43.1 508.5 -43.5 508.2C-43.7 508 -41 511.6 -42 510.1C-42.6 509.3 -43.1 508.5 -43.7 507.8C-44.8 506.2 -45.8 504.6 -46.8 503C-48.8 499.7 -50.5 496.4 -52.1 492.9C-52.3 492.5 -52.7 491.8 -52.8 491.4C-52.8 491 -51.1 495.5 -51.8 493.8C-52.1 492.9 -52.4999 492 -52.9 491.2C-53.6 489.4 -54.2 487.7 -54.8 485.9C-57.5 477.9 -59.6 469.6 -61.4 461.4C-72.8 464.5 -84.1 467.7 -95.5 470.8C-89.8 487.1 -80.4 501.6 -68 513.7C-59.6 521.9 -46.4 519.7 -40.2 510.1C-23.4 484 -6.7 457.9 10.1 431.7C0.8 432.9 -8.40001 434.1 -17.7 435.3C-5.99999 448.8 5.59999 462.4 17.3 475.9C28.6 489 39.4 504 57.2 508.5C75.9 513.2 93.5 506.3 110.6 499.7C126.2 493.4 142 488.4 158 484.2C176.7 479.3 195.6 475.6 214.7 472.9C209 463 203.2 453.2 197.5 443.3C196.3 444.4 193.2 446.2 197.8 443.3C197.1 443.8 196.4 444.3 195.7 444.8C193.9 446 192.1 447 190.2 447.9C189.1 448.5 188 449 186.8 449.5C183.7 450.9 190.5 448.1 187.5 449.2C185.4 450 183.2 450.8 181.1 451.5C172.1 454.5 162.8 456.7 153.8 459.8C133.7 466.7 109.3 479.8 109.2 504.2C109.2 511.3 114.7 520 122.2 521.3C187.7 532.1 254.2 537 320.6 535.6C339.1 535.2 357.5 534.3 375.9 533C383.4 532.5 391.2 527.9 393 520C394.7 512.6 392 503.7 384.9 500C369.9 492.4 353.3 490 336.6 489.5C320.8 489.1 305 489.9 289.3 490.4C255.2 491.4 221 492.5 186.9 493.7C119.2 496.1 51.6 498.9 -16 502.5C-54.5 504.6 -93 507.6 -131.1 513.8C-135 514.4 -139.9 518.5 -141.7 521.9C-143.6 525.5 -144.3 529.2 -143.8 533.2C-142.6 541.8 -135.3 548.5 -126.4 548.5C-81.9 548.5 -37.3 548.7 7.19998 549.2C51.7 549.7 96.3 550.3 140.8 551.3C165.9 551.8 191.1 552.4 216.2 553.1C216.2 541.3 216.2 529.5 216.2 517.7C190 517.8 163.9 516.1 138 512.6C139.6 512.8 141.1 513 142.7 513.2C122.2 510.4 101.8 506.6 81.8 501.5C72.3 499.1 62.9 496.6 53.6 493.5C51.5 492.8 49.4 492.1 47.3 491.3C46.4 490.9 45.4 490.6 44.5 490.2C44 490 43.6 489.8 43.1 489.6C41 488.8 46.6 491.2 44.6 490.2C40.7 488.3 36.8 486.5 33.1 484.2C32.2 483.6 31.3 483 30.5 482.4C27.4 480.2 33.5 484.9 30.6 482.5C29.1 481.2 27.7 479.8 26.4 478.4C23.9 475.7 28.6 481.8 26.7 478.8C26.2 478 25.7 477.2 25.3 476.4C25.1 476 24.9 475.5 24.6 475C23.6 473.1 25.9 478.9 25.1 476C24.8 474.8 24.5 473.6 24.2 472.3C24.4 473.9 24.6 475.4 24.8 477C24.5 474.5 24.5 472 24.8 469.5C24.6 471.1 24.4 472.6 24.2 474.2C24.6 471.6 25.2 469.1 26 466.6C26.2 466.1 26.6 465.3 26.7 464.7C26.1 468.1 25.4 467.5 26.1 466.1C26.9 464.5 27.7 463 28.5 461.5C29.9 459 31.5 456.6 33.2 454.3C33.6 453.7 34.1 453.1 34.5 452.5C36.2 450.1 34 453.2 33.7 453.5C34.9 452.1 36 450.6 37.2 449.2C45.3 439.5 54 430.2 62.9 421.2C80.9 402.8 99.6 385 116.5 365.6C149.9 327.1 177.5 284.3 197.2 237.3C202.9 223.7 207.9 209.8 210.8 195.3C214.1 178.6 214.6 162.2 211.6 145.5C210.6 139.8 204.8 134.4 199.2 133.1C186.2 130.1 174 136 167.3 147.4C164.9 151.6 163.6 156.3 162.1 160.9C160.7 165.2 159.3 169.5 157.9 173.9C152.2 191.6 146.5 209.3 140.8 227C129.4 262.4 118 297.7 106.7 333.1C103.5 342.9 100.4 352.7 97.2 362.6C97 363.2 94.7 368.4 95.1 368.9C95 368.8 97.2 364.5 96 366.8C95.5 367.7 95.1 368.6 94.5 369.5C93.3 371.5 92.6 370.5 95.4 368.4C94.9 368.8 94.1 369.5 93.7 370.1C94.5 369.5 95.2 368.9 96 368.3C95.5 368.6 95.1 368.9 94.6 369.1C97.6 368 98.2 367.7 96.4 368.3C95.8 368.5 95.2 368.6 94.6 368.8C101.9 372.9 109.1 377 116.4 381.2C97.6 318 77.4 255.2 55.9 192.9C49.8 175.1 43.5 157.4 37.2 139.7C34.2 131.3 26.9 125.8 17.8 127C8.80003 128.2 3.00001 135.5 2.50001 144.4C-1.69998 216.6 -7.99997 288.7 -16.5 360.6C-18.9 380.9 -21.5 401.3 -24.2 421.5C-24 419.9 -23.8 418.4 -23.6 416.8C-26.6 438.7 -29.7 460.7 -33 482.5C-21.4 484.1 -9.79998 485.6 1.8 487.2C2.8 475.3 4.19999 463.4 5.69999 451.5C5.49998 453.1 5.3 454.6 5.09999 456.2C10.3 417.5 18.5 379.3 29.5 341.9C19.6 344.5 9.80001 347.1 -0.0999862 349.7C1.80001 351.7 3.7 353.8 5.40001 355.9C5.80001 356.3 7.7 358.8 5.7 356.2C3.7 353.6 5.60003 356.1 5.90001 356.6C6.80001 357.8 7.59999 359 8.49999 360.2C11.6 364.8 14.3 369.6 16.7 374.6C17.8 376.9 19.1 379.2 19.9 381.7C19.9 381.7 18.1 377.3 19.1 379.9C19.3 380.4 19.5 381 19.7 381.5C20.3 383 20.8 384.4 21.4 385.9C23.2 390.9 24.9 395.9 26.5 400.9C33.2 422.6 38.8 444.9 49.9 464.9C56.7 477.1 65.6 488.3 76.2 497.4C81.1 501.6 87 503.7 93.4 501.9C99.6 500.2 103.8 495.5 105.8 489.5C119.1 449.8 132.3 410 145.6 370.3C134.2 370.3 122.9 370.3 111.5 370.3C122.1 415 132.7 459.8 143.4 504.5C145.5 513.5 156.3 519.7 165.2 516.9C169.5 515.5 173.6 512.9 175.8 508.8C178.2 504.3 178.3 500.2 177.6 495.2C176.2 485.4 174.9 475.6 173.6 465.8C173.8 467.4 174 468.9 174.2 470.5C167.8 423.2 162.1 375.8 156.9 328.3C151 334.2 145.1 340.1 139.2 346C140.1 346.1 140.9 346.2 141.8 346.3C140.2 346.1 138.7 345.9 137.1 345.7C140.9 346.3 144.4 347.3 148 348.5C150.9 349.6 143.8 346.5 146.6 347.9C147.5 348.4 148.4 348.8 149.3 349.3C150.6 350 151.9 350.8 153.2 351.6C154.7 352.5 156.1 353.6 157.5 354.6C160 356.4 153.7 351.6 156.6 353.9C157.3 354.5 158 355 158.6 355.6C161.2 357.8 163.8 360.1 166.3 362.4C178.8 373.8 191.6 384.5 208.1 389.5C221 393.5 233.5 380.5 229.9 367.7C215.7 318.7 196.5 271.1 173.3 225.7C169.9 219 160.4 215.3 153.3 217.6C145.8 220 140.4 226.6 140.3 234.7C139.8 300 141.1 365.3 144.3 430.5C145.2 449 146.3 467.4 147.5 485.9C148.1 494.8 153.8 502.1 162.8 503.3C171 504.4 180.4 499.3 182.2 490.6C189.3 457.4 196 424.2 202.3 390.9C208.5 358.3 214.9 325.5 219.5 292.6C222.4 271.8 223.6 251.1 218.4 230.5C216.5 223 209 217.5 201.3 217.5C175.3 217.6 153.8 232.2 136.4 250.4C117.3 270.5 99.4 291.7 82.5 313.7C73.6 325.3 65 337.2 56.8 349.4C67 355.4 77.2 361.3 87.4 367.3C110.4 330.1 133.6 293.1 156.4 255.8C162.8 245.3 169.2 234 171.2 221.7C171.9 217.6 172 214.1 170.3 210.2C168.9 206.8 166.4 203.5 163.1 201.7C156.2 198 147.3 198.7 141.7 204.5C101.5 245.7 61.3 286.9 21.1 328.2C15.8 333.7 10.6 339.4 4.99999 344.5C4.49999 344.9 4.1 345.3 3.6 345.7C3.2 346 2.89998 346.3 2.49999 346.6C1.49999 347.4 1.99999 347 4.2 345.3C2.80001 345.9 1.49999 347.2 0.200002 347.9C-0.400004 348.2 -0.899974 348.5 -1.49998 348.8C-4.19999 350.2 1.7 347.7 -0.400004 348.3C-2.10002 348.8 -3.69999 349.3 -5.49998 349.6C-3.9 349.4 -2.4 349.2 -0.799998 349C-2.80003 349.2 -4.69999 349.2 -6.69999 348.9C-5.10002 349.1 -3.59996 349.3 -1.99998 349.5C-2.29997 349.4 -2.69999 349.4 -2.99998 349.3C0.500019 358 3.99999 366.6 7.59999 375.3C21 345.8 34.3 316.3 47.7 286.8C50.1 281.5 50.9 276.6 48.6 271.1C46.4 265.9 42.5 262.6 37.1 260.9C29 258.2 20.2 254 12 258.9C6.89999 261.9 2.20004 266.3 -2.49997 270.1C-10.0999 276.2 -17.5999 282.5 -24.8 289.1C-31.7 295.4 -38.3 302 -44.7 308.8C-51.8 316.3 -59.2 324.2 -64.7 333C-72.2 345 -75.2 361.4 -66.2 373.6C-63.8 376.8 -61.5 379.2 -57.7 380.8C-54.4 382.2 -49.6 383.1 -46.2 381.7C0.0999943 362.6 44.8 339.7 86.3 311.5C98.2 303.4 109.7 294.9 121.1 286.1C125.4 282.8 126.6 276.2 126 271.2C125.3 265.9 122.4 260.9 117.6 258.3C113.9 256.3 110.3 254.1 106.5 252.2C99.2 248.5 92.1 250.2 84.8 252.8C76.8 255.6 69.2 259.3 62.1 264C48.8 272.8 37.2 284 25.9 295.1C2.00002 318.5 -19.9 343.9 -39.7 370.8C-50.1 385 -59.8999 399.6 -68.8 414.7C-57.8 417.7 -46.8 420.7 -35.8 423.6C-37.2 363.8 -36.1 304 -32.3999 244.4C-31.3999 227.6 -30.1 210.9 -28.7 194.1C-40.3 195.7 -51.9 197.2 -63.5 198.8C-54.8 243.8 -46.2 288.7 -37.5 333.7C-36.1 341 -27.6999 347 -20.3999 346.7C-12.8999 346.4 -4.99998 341.5 -3.29997 333.7C5.60003 292.2 12.3 250.2 16.8 208C19 187.6 20.6 167.1 21.7 146.6C22.7 126.6 23.6 106.5 23 86.4002C22.3 62.3002 18.2 38.9002 8.00002 16.9002C4.70003 9.90016 -4.89997 6.90016 -12 8.80019C-29.2999 13.4002 -46.6999 17.8001 -63.8999 22.7001C-73.9999 25.5001 -84 30.0001 -89.2999 39.5001C-94.5999 48.8001 -92.5999 59.7001 -91.7999 69.9002C-89.0999 105.7 -86.4 141.6 -83.7 177.4C-82.2 197.7 -80.5999 217.9 -79.0999 238.2C-78.5 245.7 -74 253.5 -66.0999 255.3C-58.8 257 -49.6999 254.3 -46.0999 247.2C-35.5 226.2 -24.8999 205.1 -14.0999 184.1C-9.49996 175.2 -4.69998 166.3 0.700018 157.8C2.10001 155.6 3.60001 153.4 5.20002 151.2C5.80003 150.3 6.50001 149.5 7.10001 148.6C8.20002 147.1 8.00004 147.5 6.30003 149.6C6.70002 149 7.20002 148.5 7.60001 147.9C11.1 143.6 14.8 139.5 18.7 135.7C10.4 135.7 2.00004 135.7 -6.29995 135.7C4.00004 147.9 14.4 160 24.7 172.2C29.9 178.3 39.6 178.5 46.1 175C89.2 151.8 132.7 129.5 176.8 108.2C168.1 101.5 159.5 94.9002 150.8 88.2002C150.5 89.6002 150.2 91.0002 149.8 92.3002C149.6 92.9002 149 96.1002 148.4 96.4002C148.6 96.3002 150.6 91.8002 149.1 94.7002C148.8 95.3002 148.5 95.9002 148.2 96.5002C147.6 97.7002 146.9 98.9002 146.2 100C145.4 101.3 144.5 102.5 143.6 103.8C142.4 105.5 146.4 100.4 144.5 102.6C143.9 103.3 143.4 103.9 142.8 104.6C140.7 106.9 138.5 109.1 136.2 111.1C135.6 111.6 135 112.1 134.5 112.6C132.2 114.5 137.3 110.6 135.5 111.8C134.1 112.8 132.7 113.8 131.3 114.7C128.5 116.5 125.5 118.2 122.5 119.7C121.1 120.4 115.4 122.5 120.8 120.6C119.2 121.2 117.6 121.9 116 122.4C112.1 123.8 108.1 124.8 104.1 125.4C105.7 125.2 107.2 125 108.8 124.8C104.8 125.3 100.8 125.4 96.8 124.8C98.4 125 99.9 125.2 101.5 125.4C99.4 125.1 97.3 124.6 95.2 124C94.3 123.7 93.3 123.4 92.4 123.1C92.1 123 91.3 122.8 91 122.6C91.3 122.9 94.8 124.3 92.6 123.2C88.8 121.3 85.1 119.1 81.6 116.6C80.8 116.1 80.1 115.5 79.3 114.9C77.8 113.8 81.3 116.3 81 116.3C80.7 116.3 80.1 115.6 79.9 115.4C78 113.9 76.2 112.4 74.4 110.9C70.3 107.5 66.1 104.1 62 100.7C45.3 87.0001 28.6001 73.2002 11.9 59.5001C2.40004 51.6001 -7.19997 43.8002 -16.7 35.9002C-21.2 32.2001 -25.6999 30.2001 -31.5999 31.0001C-36.5999 31.7001 -42.2999 34.5001 -44.5 39.4002C-48.5 48.4002 -50.9 56.8001 -52 66.5001C-52.9 74.6001 -52.1999 82.7001 -50.5999 90.7001C-47.2999 107.3 -38 122.5 -26.2999 134.6C-19.5999 141.6 -8.1 141.1 -1.29998 134.6C20.8 113.4 32.4 82.1001 23.8 52.0001C21.4 43.5001 13.1001 38.2002 4.40004 39.3002C-4.69997 40.5002 -10.2999 47.8001 -10.8999 56.7001C-14.3999 105.2 -9.6 154.3 2.5 201.4C4.20001 208.2 10.4 213.2 17.2 214.1C23.6 215 31.9 212 34.8 205.7C47.1 178.5 59.5 151.3 71.8 124.2C61 122.8 50.2 121.4 39.5 120C45.4 153.5 54.9 186.3 67.5 217.8C69.6 223.1 72.3 227 77.7 229.3C82.8 231.5 88.6 231.3 93.4 228.4C108.3 219.6 120.5 206.9 129 191.8C136.3 178.8 141 164.4 145.1 150.1C147.2 142.9 143.8 133.7 137 130.1C134.2 128.6 131.2 127.8 128.1 127.7C123.1 127.5 119.3 130 115.6 132.9C95.4 148.6 77.1 168.6 65.4 191.5C59.3 203.4 56.2 218.6 63.7 230.7C66.3 234.8 69.5 237.9 73.5 240.7C74.4 241.3 75.3 241.9 76.3 242.3C81.4 244.8 86.2 245.4 91.8 244.2C97.8 242.9 103.7 241.2 109.6 239.4C154.8 225.9 198.3 203 232.3 169.9C249 153.7 263.6 134.7 273.4 113.5C275.4 109.1 276.5 104.7 275.2 99.9002C274.1 95.8002 270.9 91.3002 267.1 89.3002C258.9 84.9002 247.6 87.0002 242.9 95.6002C236.1 108.1 228.6 120.3 220.4 131.9C218.3 134.8 216.2 137.7 214.1 140.6C213.6 141.2 213.2 141.8 212.7 142.4C212.5 142.6 210.2 145.6 212 143.3C213.7 141.1 211.7 143.7 211.3 144.2C210.7 145 210.1 145.7 209.5 146.4C204.8 152.3 199.9 158 194.9 163.7C199.1 162 203.2 160.2 207.4 158.5C207.1 158.5 206.8 158.4 206.5 158.4C208.1 158.6 209.6 158.8 211.2 159C210.1 158.8 209.1 158.5 208.1 158.3C206.9 157.9 207.1 158 208.8 158.6C210.4 159.3 210.7 159.4 209.6 158.9C206.5 156.7 211.6 161 210.7 159.9C210.2 159.3 209.6 158.8 209.1 158.2C212.8 161.9 211.2 161.1 210.4 159.6C208.5 156.2 211.6 163.5 210.8 160.8C210.4 159.3 210 157.8 209.7 156.2C209.9 157.8 210.1 159.3 210.3 160.9C209.9 157.8 210 154.7 210.4 151.6C210.2 153.2 210 154.7 209.8 156.3C211.2 147 212.8 137.6 214.2 128.3C214.9 123.9 215.4 119.3 216.4 114.9C216.4 114.7 217.1 112.9 217 112.9C216.6 113.9 216.2 114.8 215.8 115.8C216 115.4 216.3 114.9 216.6 114.5C216 115.3 215.4 116.1 214.8 116.9C215.7 116 215.5 116.2 214.1 117.3C212.7 118.3 212.5 118.5 213.5 117.9C210.4 119 209.7 119.4 211.4 119C209.8 119.2 208.3 119.4 206.7 119.6C207.2 119.5 207.8 119.5 208.3 119.6C206.7 119.4 205.2 119.2 203.6 119C203.9 119 204.2 119.1 204.5 119.1C201.9 117.6 199.3 116.1 196.7 114.6C198.9 116.3 201 118.1 202.9 120.1C203.8 121.1 204.8 122 205.6 123.1C206 123.5 206.7 124.1 206.9 124.6C206.5 123.6 204.5 121.3 206.2 123.7C207.6 125.8 208.9 127.9 210.1 130.2C211.8 133.6 208.8 126.7 210.1 130.2C210.6 131.5 211 132.8 211.3 134.1C222.1 129.6 232.9 125 243.6 120.5C233.3 102.6 219.2 86.9002 203.1 74.1002C198.5 70.5002 194.2 68.4002 188.2 69.2002C182.9 69.9002 177.9 72.8002 175.3 77.6002C161.4 103.4 147.6 129.2 133.7 155.1C144.7 158.1 155.7 161.1 166.7 164C163.2 126.1 159.5 87.6002 145.9 51.8002C143.9 46.5002 141 42.6002 135.7 40.3002C130.6 38.1002 124.8 38.3001 120 41.2002C93.6 56.9002 68.4 74.7002 44.7 94.4002C54.8 98.6002 64.8 102.7 74.9 106.9C73.4 90.1002 71.8 73.2002 68.6 56.6002C65.3 39.8002 59.8 23.4002 51.8 8.20016C46.3 -2.19987 32 -2.89982 24 4.60018C9.90001 17.9002 1.10005 35.1002 -1.09996 54.3002C-3.09993 71.3002 2.10002 89.4002 12.1 103.2C15.5 107.9 20.9 112.7 27.4 112C65 107.6 101.3 98.1002 135.7 82.3002C142.5 79.2002 146.1 69.2002 143.8 62.3002C141.4 54.8002 134.8 49.4002 126.7 49.3002C75.9 49.0002 25.2001 48.6002 -25.5999 48.3002C-40 48.2002 -54.4999 48.1001 -68.8999 48.0001C-68.8999 59.8001 -68.8999 71.6002 -68.8999 83.4002C-28.2999 81.3002 12.3 79.1001 52.9 76.2002C94.4 73.2002 135.9 69.1002 177.2 63.6002C199.6 60.6002 222 57.0002 244.3 52.8002C252.9 51.2002 258.1 41.4002 257 33.4002C255.8 24.8002 248.5 18.1002 239.6 18.1002C192.3 17.8002 144.9 19.9002 97.8 24.3002C93 24.7002 88.8 26.0001 85.3 29.5001C82.2 32.6001 79.9 37.6001 80.1 42.0001C80.6 52.3001 87.9 58.8001 97.8 59.7002C160.6 65.1002 223.8 65.0002 286.6 59.4002C296.3 58.5002 306.2 57.8002 315.8 56.3002C325.6 54.8002 337.6 48.8002 339.2 37.9002C339.8 33.8002 340 30.3002 338.3 26.4002C336.9 23.2002 334.4 19.4002 331.1 17.9002C311.2 9.00017 290.1 6.80021 268.7 10.3002C250.5 13.2002 231.6 22.3002 220 36.9002C212.4 46.4002 207.9 56.6002 206.9 68.8002C206.3 76.2002 212.8 84.2002 219.9 85.9002C228.1 87.8002 235.1 84.5002 239.9 77.8002C240.5 77.0002 241.1 76.2002 241.7 75.4002C243.9 72.4002 239 78.7002 241.4 75.8002C242.5 74.5002 243.5 73.2002 244.7 71.9002C247.3 68.9002 250 66.0002 252.9 63.2002C255.7 60.5002 258.6 57.8002 261.7 55.3002C262.4 54.7002 263.1 54.1002 263.8 53.6002C264.7 52.9002 267.8 51.0002 263.7 53.7002C265.5 52.5002 267.3 51.1002 269.1 49.8002C260.2 44.7002 251.4 39.6001 242.5 34.5002C244.5 60.1001 250.9 84.2002 261.3 107.6C263.5 112.5 269.3 115.4 274.2 116C279.6 116.7 285.2 115.2 289.1 111.1C303.5 96.1002 314.8 77.9002 320 57.6002C308.6 54.5002 297.3 51.3002 285.9 48.2002C281 75.0002 283 102.7 293 128.2C295.6 134.9 300.2 139.9 307.7 140.9C314.8 141.9 321.5 138.5 325.3 132.5C344 102.8 363.7 73.8002 384.4 45.4002C373.6 40.9002 362.8 36.3002 352.1 31.8002C346.9 54.7002 355.3 77.5002 372.2 93.4002C379.3 100.1 390.1 100.1 397.2 93.4002C404 87.0002 411.1 80.8002 418.5 74.9002C419.4 74.2002 420.3 73.5002 421.1 72.8002C424.6 70.0002 418.7 74.6002 421.5 72.5002C423.3 71.1002 425.1 69.8002 427 68.4002C431 65.5002 435.1 62.6002 439.2 59.8002C430.3 54.7002 421.5 49.6002 412.6 44.5002C412.3 47.9002 411.9 51.3002 411.5 54.7002C411.7 53.1002 411.9 51.6002 412.1 50.0002C410.5 61.3002 408.1 72.6002 404.9 83.5002C403.3 89.1002 401.4 94.6002 399.4 100C398.4 102.6 397.4 105.1 396.4 107.6C395.7 109.4 395.8 109 396.8 106.6C396.5 107.3 396.2 108 395.9 108.8C395.3 110.2 394.6 111.7 393.9 113.1C404.9 116.1 415.9 119.1 426.9 122C428.3 98.4002 426.4 74.8002 421.9 51.7002C420.2 43.1002 410.6 37.9002 402.5 39.0002C393.5 40.2002 387.7 47.5002 387.2 56.4002C385.1 92.2002 383.1 128 381 163.8C392.8 163.8 404.6 163.8 416.4 163.8C417 151 415.1 137.7 411 125.6C408.7 118.9 405.9 112.4 402.6 106.2C398.7 98.9002 393.3 88.7002 385.5 85.4002C377.3 81.9002 366.7 84.1002 359.3 88.6002C353.3 92.2002 348.5 97.5002 344.8 103.4C341.7 108.3 339.7 114 337.4 119.3C334.6 125.7 331.7 132.1 328.9 138.5C322.6 152.8 316.2 167.1 309.9 181.4C320.1 181.4 330.3 181.4 340.5 181.4C329.7 161.6 318.9 141.9 308.1 122.1C301.9 110.8 283.6 110.4 277.5 122.1C264.9 146.4 253.9 171.6 244.5 197.3C254.4 194.7 264.2 192.1 274.1 189.5C272.7 188.2 270.7 186.7 269.8 184.9C270.3 186 272.1 188 270.5 185.6C270 184.8 269.5 183.9 269 183.1C268.6 182.4 268.4 181.5 267.9 181C269 183.6 269.3 184.3 268.8 183C268.6 182.6 268.5 182.1 268.3 181.7C267.7 179.9 267.4 178.1 267.1 176.3C267.3 177.9 267.5 179.4 267.7 181C267.5 178.9 267.4 176.8 267.6 174.6C255.8 174.6 244 174.6 232.2 174.6C230.2 203 232.9 231.7 239.4 259.4C240.8 265.2 246 270.3 251.8 271.8C267.9 275.7 282 269 295.3 260.6C305.5 254.1 315.7 247.6 325.7 240.8C345.7 227.2 365.6 212.4 381.9 194.3C390.6 184.6 398.5 174 404.4 162.4C393.6 157.9 382.8 153.3 372.1 148.8C357.3 187.7 354.7 230.4 364.1 270.9C365.7 277.7 372.2 282.7 378.8 283.6C385.3 284.5 393.4 281.5 396.4 275.2C403.1 261.1 408.2 246.5 410.5 231C412.9 214.4 412.8 198.4 410.1 181.8C409.7 179.1 407.4 175.9 405.6 174C402.8 171.2 399.3 169.6 395.4 169.1C388.5 168.2 381.3 171.4 377.8 177.5C362.6 203.8 353.7 233.5 353.2 263.9C364.8 262.3 376.4 260.8 388 259.2C385.6 243.7 383.1 228.2 377.8 213.3C371.5 195.4 362 179 348.4 165.6C339.1 156.5 322 160.3 318.8 173.4C304.4 231.9 291.5 291.1 273 348.5C267.7 364.9 262 381.1 255.5 397.1C267.1 398.7 278.7 400.2 290.3 401.8C288.1 360.2 285.9 318.6 283.7 277C283.2 268.2 277.3 260.8 268.4 259.6C259.5 258.4 251.8 263.8 249 272.3C228.1 335.2 207.2 398.1 186.4 460.9C180.3 479.2 174.7 499.4 181.6 518.3C183.8 524.2 187.6 528.9 194 530.7C199.7 532.3 207.2 530.8 211.2 526.2C246 485.7 280.7 445.2 315.5 404.7C325.3 393.3 335.1 381.9 344.9 370.4C335 364.7 325.2 358.9 315.3 353.2C300.3 400.4 290.8 449.4 287.1 498.8C286.3 510 285.2 521.5 291.3 531.5C299.6 545.1 316.7 548.9 331 543.2C352.7 534.6 373.5 522.1 392.3 508.4C402.7 500.6 413.8 492.5 422.6 482.5C427.5 476.9 431.7 471.1 434.6 464.2C435.9 461.2 436.9 458.4 437.4 455.2C438.3 449.4 438.1 445.4 437.3 439.6C436.8 435.7 432.5 430.8 429.2 429C425.3 426.9 419.9 425.5 415.6 427.2C402.7 432.5 389.9 438.1 377.5 444.3C371.7 447.2 366 450.2 360.3 453.3C354.2 456.6 348.2 460 343.1 464.8C336.4 471.2 331.8 481.2 334.7 490.5C336.7 497 341.8 503.8 348.7 505.4C352.6 506.3 356.7 506.2 360.6 505.7C373.1 504.3 385 500.5 395.2 493.1C404.8 486.1 412.6 477.9 419.3 468.1C426.3 457.9 431.3 446.4 436 435.1C445.7 411.8 450.7 387.1 453.6 362.1C456.7 335.3 456.5 308.3 455.8 281.3C455.5 272.1 447.8 263.2 438.1 263.6C428.6 264 420.3 271.4 420.4 281.3C421.2 350.9 420.8 420.5 419.2 490.1C418.8 509.9 418.2 529.6 417.6 549.4C429.2 547.8 440.8 546.3 452.4 544.7C440 480.1 427.9 415.3 415 350.8C411.8 334.8 405.7 318.7 392.5 308.3C389.3 305.8 386.5 304 382.3 303.4C378.8 302.9 374 303.2 371 305.5C365.3 309.9 360.5 314.3 356.8 320.6C354 325.3 352 330.6 350.7 335.9C348.1 346.4 347 357.4 345.4 368.1C341.8 392.9 338.8 417.8 336.4 442.8C335.1 456.2 334.1 469.6 333.2 483.1C332.6 491.9 340.4 499.4 348.5 500.5C356.3 501.6 366.6 496.5 367.9 487.8C376.9 427.8 386 367.7 398.7 308.3C402.3 291.6 406.1 274.9 410.3 258.3C398.7 256.7 387.1 255.2 375.5 253.6C374.9 286.9 372.4 320.1 368 353.1C368.2 351.5 368.4 350 368.6 348.4C362.4 394.8 352.4 440.6 339 485.5C350.4 485.5 361.7 485.5 373.1 485.5C352.6 436.3 352.2 382.1 335.9 331.7C330.9 316.2 324.4 300.9 316.1 286.8C312.5 280.7 305.4 277.4 298.5 278.4C291.4 279.3 285.9 284.3 283.8 291.1C268.3 340.3 261.4 392.4 264.2 444C264.6 451.5 269.4 459.3 277.2 461.1C284.7 462.8 293.4 460.1 297.2 453C319.8 410.6 333.5 364.5 342.8 317.6C345.4 304.8 347.6 292 349.8 279.1C338.2 277.5 326.6 276 315 274.4C311.3 320.2 309.5 366.1 309.8 412C309.9 424 321 431.5 332.2 429.1C349.7 425.3 366.5 417.2 379.4 404.7C386.1 398.3 386.4 386.1 379.4 379.7C372.4 373.1 361.7 372.8 354.6 379.7Z" fill="#C6ECAC"/>
</g>
<defs>
<clipPath id="clip0">
<rect width="654.7" height="581.4" fill="white" transform="translate(510.7 581.4) rotate(-180)"/>
</clipPath>
</defs>
</svg>
