<svg width="360" height="512" viewBox="0 0 360 512" fill="none" xmlns="http://www.w3.org/2000/svg">
<path d="M93.6999 355.6C92.4999 354.4 91.3999 353.2 90.3999 351.9C88.3999 349.5 90.4999 352.6 91.1999 352.9C90.8 352.7 89.8 351 89.4999 350.6C87.6 347.8 85.7999 344.8 84.2999 341.8C83.9 341.1 83.5999 340.3 83.1999 339.5C82.8999 338.9 81.6999 336 82.8999 338.8C84.0999 341.6 82.9 338.7 82.6 338.1C82.2 337.1 81.8999 336.2 81.4999 335.2C80.1999 331.5 79.1999 327.8 78.3999 324C72.6999 331.5 66.9999 338.9 61.3 346.4C107.2 346.1 153.1 347.8 198.9 351.6C203 351.9 208.7 349.4 211.4 346.4C214.1 343.5 215.7 340.2 216.3 336.2C217.4 328.3 212.3 318.2 203.6 316.8C158.7 309.3 113.7 300.1 71.1999 283.2C69.5999 282.6 67.9999 281.9 66.3999 281.3C65.8999 281.1 65.2999 280.9 64.7999 280.6C62.6999 279.8 68.2999 282.1 65.2999 280.8C62.2999 279.5 59.2999 278.2 56.2999 276.8C50.0999 273.9 43.9999 270.9 37.9999 267.7C34.9999 278.7 31.9999 289.7 29.1 300.7C54.9999 299.3 80.9 300.3 106.6 303.8C105 303.6 103.5 303.4 101.9 303.2C125.9 306.5 149.5 311.8 172.6 319.1C171.2 308.3 169.8 297.5 168.4 286.8C162.5 290.2 156.5 293.3 150.3 296.1C149.1 296.6 144 298.6 149.1 296.7C147.6 297.3 146.1 297.9 144.6 298.5C141.4 299.7 138.3 300.9 135 302C122.6 306.2 109.9 309.4 97.1 312.1C71.7999 317.4 46.2 320.8 21.1 326.7C6.49995 330.1 -7.90006 334.4 -21.8001 340.2C-25.5001 341.7 -28.5001 343.3 -31.0001 346.5C-33.3001 349.5 -35.0001 353.3 -34.8001 357.2C-34.4001 365.1 -29.5001 371.9 -21.8001 374.3C39.5999 392.7 102.9 404.5 166.7 409.5C184.3 410.9 201.8 411.7 219.4 412C228.2 412.2 235.6 405.1 236.8 396.7C237.9 388.2 232.7 379.5 224.1 377.3C165.1 362.4 105.1 352 44.9999 342.6C28.1999 340 11.3999 337.5 -5.30006 334.9C-6.90005 346.5 -8.40005 358.1 -10.0001 369.7C22.1999 371.8 54.3 375 86.3 379.3C84.6999 379.1 83.2 378.9 81.6 378.7C94.4999 380.4 107.3 382.3 120.1 384.4C122.4 384.8 124.7 385.2 126.9 385.7C129.2 386.2 131.4 387.2 133.6 387.7C130.7 386.5 130.2 386.2 131.8 387C132.3 387.3 132.9 387.5 133.4 387.8C134.5 388.4 135.5 389 136.5 389.7C138 390.8 137.5 390.4 135.1 388.6C135.6 389 136 389.4 136.5 389.9C137.4 390.8 140.3 394.4 137 390C137.9 382.9 138.8 375.7 139.8 368.6C137.9 371 135.6 373.9 133 375.5C133.1 375.4 136.7 372.9 134.4 374.4C133.8 374.8 133.1 375.2 132.5 375.6C131.1 376.5 129.6 377.2 128.1 377.9C125.1 379.4 131.6 376.5 129.5 377.4C128.8 377.7 128.1 377.9 127.4 378.2C126.2 378.6 124.9 379.1 123.6 379.4C120.6 380.3 117.6 381 114.6 381.6C99.4999 384.7 84.3 387.5 69.1999 390.4C37.3 396.5 5.39995 402.7 -26.5001 408.8C-44.7001 412.3 -62.8 415.8 -81 419.3C-89.6001 421 -94.8 430.6 -93.7 438.7C-92.5 447.5 -85.2 453.8 -76.3 454C-6.70005 456.2 62.9 457.3 132.5 457.2C152.3 457.2 172 457 191.8 456.8C191.8 445 191.8 433.2 191.8 421.4C162.7 422.2 133.5 422.3 104.6 418.4C106.2 418.6 107.7 418.8 109.3 419C88.6999 416.2 68.3 411.3 48.9999 403.5C44.8999 401.9 51.4999 404.6 48.6 403.4C47.4 402.9 46.1999 402.4 44.9999 401.8C42.3999 400.6 39.8999 399.4 37.3999 398.1C33.1999 396 29.1 393.8 25.1 391.2C23.5 390.2 21.9999 389.1 20.4999 388.1C17.5999 386 23.2999 390.4 21.1999 388.6C20.3999 387.9 19.4999 387.2 18.6999 386.5C15.6999 383.9 12.9999 381.1 10.3999 378.1C10.0999 377.7 9.59995 377.2 9.29995 376.8C9.39995 377.1 11.9 380.3 10.4999 378.3C9.79995 377.2 8.99995 376.2 8.29995 375.1C7.09995 373.1 5.89995 371.1 4.89995 369C3.29995 365.6 6.29995 372.8 4.99995 369.2C4.59995 368.1 4.19995 367 3.89995 365.8C3.19995 363.3 2.59995 360.8 2.19994 358.2C2.39994 359.8 2.59995 361.3 2.79995 362.9C2.39995 360 2.29995 357.2 2.29995 354.3C0.599954 358.5 -1.20006 362.6 -2.90005 366.8C-4.00005 367.9 -5.20005 368.7 -6.70005 369.1C-8.40005 369.7 -8.70005 369.8 -7.50005 369.5C-9.10005 369.7 -10.6001 369.9 -12.2 370.1C-11.7 370 -11.3001 370 -10.8001 370.1C-12.4001 369.9 -13.9001 369.7 -15.5001 369.5C-15.1001 369.6 -14.6001 369.8 -14.1001 369.8C-17.0001 368.5 -17.8 368.1 -16.6001 368.9C-15.9001 369.4 -16.1001 369.2 -17.4001 368.2C-19.9001 366.2 -16.8 368.9 -16.2 369.6C-14.1001 372 -16.2001 368.9 -16.8001 368.7C-16.5001 368.8 -15.9 370 -15.7 370.3C-14.8 371.6 -14.1001 373 -13.3001 374.4C-10.0001 380.2 -6.90005 386 -3.90005 391.9C-0.900052 397.7 1.89994 403.6 4.69995 409.5C6.19995 412.7 7.59995 415.9 8.99995 419.1C9.59995 420.5 10.2 422 10.8 423.4C10.5 422.7 10.2 422 9.89995 421.3C10.0999 421.8 10.4 422.4 10.5999 422.9C11 423.8 11.2999 424.7 11.6999 425.6C15.7999 418.3 19.9 411.1 24.1 403.8C23.8 403.8 23.4999 403.9 23.1999 403.9C24.8 403.7 26.2999 403.5 27.8999 403.3C26.0999 403.5 24.4 403.4 22.6 403.2C24.2 403.4 25.6999 403.6 27.3 403.8C26.1 403.6 24.9999 403.4 23.8 403.1C23.2 402.9 22.7 402.8 22.1 402.6C20.4 402 20.9999 402.2 23.8 403.4C21.9999 402.2 19.8 401.4 17.9999 400.1C17.4999 399.7 16.9 399.3 16.4 399C18.5999 400.8 18.9999 401.1 17.5999 399.9C16.5999 399 15.4999 398.1 14.4999 397.2C12.6999 395.5 10.8999 393.8 9.19995 392C5.59995 388.1 2.19995 384 -1.10005 379.8C-2.20005 378.3 -2.00005 378.7 -0.300055 380.9C-0.700056 380.3 -1.20005 379.8 -1.60005 379.2C-2.30005 378.2 -3.10006 377.2 -3.80005 376.2C-5.40005 374 -6.90005 371.9 -8.50005 369.7C-14.8001 360.7 -20.5001 351.4 -25.8001 341.8C-28.5001 336.9 -31.1001 331.9 -33.6001 326.9C-34.8 324.6 -35.8001 322.2 -37.0001 319.8C-37.8001 318.1 -37.6001 318.5 -36.4001 321.1C-36.7001 320.4 -36.9001 319.8 -37.1001 319.1C-37.5001 317.7 -37.8001 316.4 -38.0001 315C-37.8001 316.6 -37.6001 318.1 -37.4001 319.7C-37.5001 318.3 -37.5001 317 -37.3001 315.6C-37.5001 317.2 -37.7001 318.7 -37.9001 320.3C-37.9001 320.2 -37.5001 317.9 -37.3001 317.9C-37.1001 317.9 -39.7001 322.5 -38.0001 319.8C-36.9001 318.1 -41.2001 323.2 -39.3001 321.5C-37.5001 319.9 -38.1001 321.4 -40.8001 322.5C-40.3001 322.3 -39.8001 321.9 -39.3001 321.7C-37.6001 320.7 -43.8001 323.3 -41.3001 322.6C-40.0001 322.2 -38.7001 321.9 -37.3001 321.7C-38.9001 321.9 -40.4001 322.1 -42.0001 322.3C-34.2001 321.5 -25.8001 322.9 -18.0001 323.6C-8.80006 324.4 0.399948 325.4 9.59994 326.7C7.99995 326.5 6.49995 326.3 4.89995 326.1C40.6999 331 76.1 339 110.6 350C117.8 352.3 127 348.6 130.6 341.9C134.1 335.3 133.9 325.7 127.8 320.5C87.2999 285.7 46.7999 251 6.29994 216.2C-5.10006 206.4 -16.5001 196.6 -28.0001 186.8C-30.6001 196.7 -33.2001 206.5 -35.8001 216.4C-32.9001 215.3 -30.0001 214.6 -27.0001 214.2C-28.6001 214.4 -30.1001 214.6 -31.7001 214.8C-27.2001 214.3 -22.8001 214.4 -18.3001 214.9C-19.9001 214.7 -21.4001 214.5 -23.0001 214.3C-8.90006 216.3 4.59994 221.8 17.9999 226.2C32.0999 230.9 46.0999 235.5 60.1999 240.2C88.0999 249.5 116 258.7 144 268C159.8 273.3 175.6 278.5 191.5 283.8C193.1 272.2 194.6 260.6 196.2 249C154.6 251.2 113 253.4 71.3999 255.6C62.5999 256.1 55.1999 262 53.9999 270.9C53.4999 274.7 53.9999 278.9 56.1 282.2C58.7999 286.3 62.1999 288.5 66.6999 290.3C122.5 312.8 181.1 326.7 239.3 341C256.3 345.2 273.3 349.3 290.3 353.5C287.7 343.6 285.1 333.8 282.5 323.9C279.6 326.9 276.1 329.3 273.2 332.2C276.6 328.8 274.7 331 273.6 331.9C272.8 332.5 272 333.1 271.2 333.6C269.6 334.7 267.9 335.7 266.2 336.7C262.9 338.7 259.4 340.4 255.9 342C254.8 342.5 251.5 343.7 256.6 341.7C255.7 342 254.8 342.4 253.9 342.8C252.1 343.5 250.3 344.1 248.5 344.7C234.2 349.5 219.3 352 204.4 354.3C200.5 354.9 195.6 359 193.8 362.4C191.9 366 191.2 369.7 191.7 373.7C192.9 382.4 200.2 388.9 209.1 389C214.9 389.1 220.7 389.5 226.5 390.3C224.9 390.1 223.4 389.9 221.8 389.7C232 391.1 242.1 393.5 251.9 396.8C254.4 397.7 256.8 398.6 259.3 399.5C259.8 399.7 260.3 399.9 260.9 400.1C262.1 400.6 261.6 400.4 259.3 399.4C259.6 400 262.8 400.9 263.5 401.3C268.4 403.6 273.1 406.1 277.8 408.8C279.2 398 280.6 387.2 282 376.5C280.5 376.7 279.1 377 277.6 377.2C279.2 377 280.7 376.8 282.3 376.6C270.9 378.1 259.4 378 248 376.5C249.6 376.7 251.1 376.9 252.7 377.1C245.9 376.1 239.1 374.7 232.5 372.7C229.2 371.7 226 370.6 222.8 369.4C222.1 369.1 221.4 368.9 220.7 368.6C220.2 368.4 219.6 368.2 219.1 368C219.8 368.3 220.5 368.6 221.2 368.9C219.5 368 217.7 367.3 215.9 366.5C214.5 377.3 213.1 388.1 211.7 398.8C217.7 397.4 223.7 396.3 229.7 395.4C228.1 395.6 226.6 395.8 225 396C241.6 393.8 258.3 393.8 274.9 395.9C273.3 395.7 271.8 395.5 270.2 395.3C285.5 397.4 300.5 401.2 314.9 406.7C318.8 408.2 325.1 407.1 328.5 404.9C331.8 402.8 334.2 400.1 335.7 396.4C338.9 388.8 336.4 378.3 328.5 374.3C324.3 372.2 320.3 369.9 316.4 367.3C314.5 366 312.6 364.7 310.8 363.3C309.9 362.6 308.4 361.2 312.2 364.4C311.7 364 311.2 363.6 310.7 363.2C309.7 362.4 308.8 361.6 307.8 360.8C300.1 354.3 293 347.1 286.4 339.4C284.7 337.5 283.1 335.6 281.5 333.6C280.7 332.7 280 331.8 279.3 330.8C278.9 330.3 278.4 329.7 278 329.2C277.6 328.7 275.7 326.2 277.5 328.6C279.3 331 276.8 327.7 276.4 327.1C275.6 326 274.7 324.9 273.9 323.8C272.2 321.6 270.6 319.3 269 317C262.6 308 256.6 298.9 250.6 289.6C247.3 284.5 244.1 279.4 240.9 274.3C239.3 271.7 237.8 269 236.4 266.3C235.7 264.9 236.3 264.2 236.9 267.6C236.8 266.9 236.4 266.3 236.2 265.6C235.7 263.9 235.3 262.2 235 260.5C235.2 262.1 235.4 263.6 235.6 265.2C235.4 263.1 235.4 261.1 235.6 259C235.4 260.6 235.2 262.1 235 263.7C235.1 263 235.3 262.3 235.4 261.6C231.3 265.7 227.2 269.8 223 274C231.6 272 240.4 270.3 249.2 269.1C247.6 269.3 246.1 269.5 244.5 269.7C262.4 267.3 280.4 266.7 298.4 268C307.7 268.6 316.5 259.4 316.1 250.3C315.6 240 308.3 233.5 298.4 232.6C283.5 231.3 268.6 238.7 258.5 249.4C254.1 254 252.2 260.4 254 266.6C255.7 272.9 260.4 276.8 266.4 279C272.2 281.1 278 283.4 283.8 285.7C286.7 286.9 289.6 288.1 292.5 289.3C291.6 289 289.4 288 291.5 288.9C292.2 289.2 292.9 289.5 293.7 289.8C295.3 290.5 296.9 291.2 298.5 291.9C310.2 297.1 321.8 302.6 333.2 308.5C333.2 298.3 333.2 288.1 333.2 277.9C313.4 288.7 293.7 299.5 273.9 310.3C268.5 313.3 265.1 319.5 265.1 325.6C265.1 331.3 268.3 338.4 273.9 340.9C291.2 348.6 308.5 356.3 325.8 363.9C333.8 367.4 342.2 370.6 349.8 374.7C351 375.4 352.2 376.2 353.4 376.9C355.1 377.9 350 374 352 375.8C352.6 376.3 353.2 376.9 353.7 377.4C355.1 378.9 354.8 379.9 353 376.2C353.3 376.8 353.9 377.6 354.3 378.2C355.9 380.6 353.1 373.9 353.8 376.9C354 377.7 354.2 378.5 354.4 379.3C354.2 377.7 354 376.2 353.8 374.6C354 376.1 354 377.5 353.9 379C356.8 373.9 359.7 368.8 362.7 363.7C359.3 366.2 355.7 368.6 352 370.7C350.3 371.7 348.5 372.6 346.7 373.5C345.7 374 344.8 374.5 343.8 374.9C342.4 375.6 339.8 375.9 344.1 374.8C340.4 375.7 336.8 377.6 333.2 378.6C329.2 379.7 325.1 380.5 321 381.1C322.6 380.9 324.1 380.7 325.7 380.5C320.3 381.2 314.8 381.4 309.3 381.2C300 380.8 291.2 389.6 291.6 398.9C292 408.9 299.4 416 309.3 416.6C345.1 418.7 380.9 420.7 416.7 422.8C415.1 411.2 413.6 399.6 412 388C406.9 389 401.7 389.8 396.6 390.5C398.2 390.3 399.7 390.1 401.3 389.9C384.7 392.1 367.9 392.7 351.1 391.7C343.7 391.3 335.7 397.5 334 404.7C333.3 407.8 333.3 411 334 414.1C334.9 417.9 338.5 423 342.1 424.7C369.7 437.4 398.3 445.4 428.6 448.2C441.7 449.4 451 432.2 443.9 421.6C432.2 404.3 419.2 387.7 404.8 372.5C404.8 380.8 404.8 389.2 404.8 397.5C405.8 396.5 406.7 395.5 407.7 394.5C408.3 393.9 409 393.3 409.6 392.8C410.1 392.4 412 390.9 409.8 392.6C407.5 394.4 410.9 391.8 411.6 391.4C412.8 390.6 414.1 389.9 415.3 389.2C415.8 388.9 418.2 387.3 418.7 387.5C418.6 387.5 414.6 389.1 417.1 388.2C417.7 388 418.3 387.8 418.9 387.6C421.5 386.7 424.2 386.2 426.9 385.8C425.3 386 423.8 386.2 422.2 386.4C425.8 386 429.4 386 433 386.5C431.4 386.3 429.9 386.1 428.3 385.9C429.5 386.1 430.7 386.3 431.9 386.6C440.6 388.6 449.3 384.7 452.8 376.4C456.4 367.8 452.8 359.6 445.6 354.3C417.2 333.7 388.2 313.9 358.5 295.2C357.1 306 355.7 316.8 354.3 327.5C364.3 323.6 374.7 320.8 385.4 319.3C383.8 319.5 382.3 319.7 380.7 319.9C391.6 318.5 402.5 318.5 413.4 319.9C411.8 319.7 410.3 319.5 408.7 319.3C411 319.6 413.2 320 415.4 320.4C420.2 321.3 424.7 321.1 429 318.6C432.7 316.5 436.2 312.2 437.1 308C439.2 298.8 434.3 288.7 424.7 286.2C420.8 285.2 417 283.9 413.3 282.5C410 281.3 416.8 284.1 413.8 282.7C412.9 282.3 411.9 281.8 411 281.4C409 280.4 407 279.4 405.1 278.2C401.4 276.1 397.9 273.7 394.5 271.2C393.1 270.2 397.8 273.8 394.7 271.3C393.8 270.6 393 269.9 392.2 269.2C390.4 267.6 388.6 266 386.9 264.3C385.7 273.6 384.5 282.8 383.3 292.1C384 291.8 384.7 291.5 385.5 291.2C384.8 291.5 384.1 291.8 383.4 292.1C384.5 291.7 385.6 291.2 386.6 290.8C388.8 289.9 390.9 289.1 393.1 288.3C397.3 286.8 401.5 285.5 405.7 284.2C414.3 281.8 423 280 431.9 278.7C430.3 278.9 428.8 279.1 427.2 279.3C430.9 278.8 434.7 278.4 438.4 278.1C444.8 277.6 450.3 275 453.7 269.3C456.7 264.2 457.2 256.5 453.7 251.4C442.3 235.1 429.1 221.1 412.9 209.7C409.9 220.7 406.9 231.7 404 242.7C404.8 242.8 405.5 242.8 406.3 242.9C404.7 242.7 403.2 242.5 401.6 242.3C404 242.7 406.1 243.3 408.4 244.1C410.7 244.9 406.4 243.3 406.4 243.2C406.6 243.1 407.7 243.8 407.9 243.9C409 244.5 410.1 245.1 411.1 245.7C411.7 246.1 412.3 246.5 412.8 246.9C414.8 248.2 411.4 246 411.3 245.7C411.8 246.6 413.5 247.5 414.3 248.3C415.3 249.2 416.2 250.2 417.1 251.2C417.5 251.6 417.9 252.1 418.3 252.6C418.8 253.1 420.5 255.4 418.6 253C416.7 250.5 419.2 254 419.7 254.6C420.5 255.8 421.3 257 422 258.3C422.7 259.6 423.4 260.9 424 262.2C424.3 262.8 424.6 263.4 424.8 264C425.7 266 423.3 260.1 424.4 263.1C426.5 268.8 427.9 274.6 428.8 280.6C428.6 279 428.4 277.5 428.2 275.9C429.3 284.1 429.3 292.4 428.2 300.6C428.4 299 428.6 297.5 428.8 295.9C428.3 299.6 427.6 303.2 426.6 306.8C426.2 308.4 425.7 310 425.1 311.5C424.8 312.4 424.4 313.3 424.1 314.3C423 317.3 425.8 310.5 424.4 313.6C431.1 310.9 437.7 308.2 444.4 305.5C442.7 305.2 443.6 305.6 447 306.7C448.9 307.8 450.5 309.3 451.6 311.2C450.3 307.5 452.4 314 451.9 312.3C451.3 310.2 450.8 308.1 450.5 305.9C450.7 307.5 450.9 309 451.1 310.6C444.5 255.9 443.1 200.3 445.4 145.2C446.1 129.5 447.1 113.8 448.4 98.0999C436.6 98.0999 424.8 98.0999 413 98.0999C417.4 145.2 419.4 192.6 419.2 239.9C430.8 238.3 442.4 236.8 454 235.2C449.7 212.6 446.1 189.8 443 166.9C443.2 168.5 443.4 170 443.6 171.6C435.3 109.5 430.9 46.9999 427.4 -15.5001C426.4 -33.2001 425.5 -50.9 424.5 -68.6C424 -77.8001 416.7 -86.7001 406.8 -86.3001C397.2 -85.9 389.2 -78.5001 389.1 -68.6C388.8 -17.8001 388.4 32.8999 388.1 83.6999C388 98.0999 387.9 112.6 387.8 127C398.8 124 409.8 121 420.8 118.1C420 116.3 419.2 114.5 418.4 112.7C418 111.9 417.7 111 417.3 110.2C419.6 114.7 417.8 111.5 417.4 110.4C416 107 414.7 103.6 413.4 100.2C410.7 92.6999 408.2 85.0999 406 77.3999C401.6 61.7999 398.3 45.8999 396.1 29.8999C396.3 31.4999 396.5 32.9999 396.7 34.5999C396.4 32.2999 396.1 29.9999 395.8 27.6999C392.9 32.7999 390 37.8999 387 42.9999C389 41.4999 391.1 40.1999 393.2 38.8999C394.3 38.2999 395.3 37.6999 396.4 37.1999C396.9 36.8999 397.5 36.6999 398 36.3999C395.3 37.4999 394.5 37.7999 395.8 37.2999C400.1 35.6999 404.3 34.4999 408.9 33.8999C407.3 34.0999 405.8 34.2999 404.2 34.4999C408.8 33.8999 413.4 33.8999 417.9 34.4999C416.3 34.2999 414.8 34.0999 413.2 33.8999C416.4 34.2999 419.5 34.9999 422.5 35.8999C423.8 36.2999 426.2 37.7999 427.5 37.6999C426.7 37.6999 423.3 35.8999 426.1 37.1999C426.9 37.5999 427.7 37.9999 428.5 38.3999C430 39.1999 431.4 39.9999 432.9 40.8999C433.7 41.3999 434.5 41.8999 435.2 42.4999C435.8 42.8999 438.1 44.6999 435.7 42.7999C433.3 40.8999 435.6 42.7999 436.1 43.1999C436.8 43.7999 437.6 44.4999 438.3 45.0999C439.8 46.3999 441.2 47.7999 442.5 49.2999C443.7 39.9999 444.9 30.7999 446.1 21.4999C443.7 22.6999 441.4 23.8999 438.9 24.9999C438.2 25.2999 437.5 25.5999 436.8 25.8999C435 26.6999 435.4 26.4999 437.9 25.3999C437.3 25.1999 435.3 26.3999 434.8 26.5999C430 28.3999 425 29.9999 420 31.3999C410.1 34.0999 400 35.8999 389.8 37.2999C391.4 37.0999 392.9 36.8999 394.5 36.6999C384.7 37.9999 374.9 38.8999 365.1 39.7999C357.9 40.3999 351.9 43.6999 348.9 50.6999C346 57.5999 347.9 64.3999 352.6 69.9999C354.8 72.6999 357.1 75.3999 359.3 78.1999C360.3 79.4999 361.4 80.7999 362.4 82.0999C362.6 82.2999 364.9 85.2999 363.1 82.9999C361.3 80.6999 363.4 83.3999 363.8 83.8999C368.1 89.5999 372.4 95.3999 376.5 101.3C384.9 113.3 392.8 125.6 400.3 138.2C403.8 129.5 407.3 120.9 410.9 112.2C389.5 120.3 367.1 124.9 344.5 128C346.1 127.8 347.6 127.6 349.2 127.4C335.5 129.2 321.8 130.5 308.1 131.8C300.6 132.5 292.9 136.8 291 144.8C289.3 152.3 292 161 299.1 164.8C324.9 178.7 350.7 192.5 376.6 206.4C375.4 197.1 374.2 187.9 373 178.6C367 186.2 360.4 193.3 353.2 199.7C351.5 201.2 349.8 202.6 348.1 204.1C347.1 204.9 343.7 207.2 348.1 204.2C347.3 204.8 346.5 205.4 345.7 206C341.9 208.7 338 211.3 334 213.6C326.4 218 323.4 227.7 326.8 235.7C330.2 243.7 339.1 248.3 347.7 245.9C357.1 243.3 365.3 238.5 372.8 232.4C375.7 230.1 378.4 227.5 380.8 224.6C383.7 221.2 386.4 218 387.5 213.5C388.5 209.3 388.3 205.1 387.1 201C385.3 194.7 380.6 189.4 375.1 186.1C370.6 183.4 366.3 182.6 361.3 181.8C352 180.3 342.7 178.8 333.3 177.4C328.5 176.6 323.6 175.7 318.7 175.3C314.6 174.9 310.6 175.4 306.6 176.1C299.3 177.3 291.6 181.1 286.8 186.9C283.4 191 280.8 195.4 279.5 200.6C278.6 204.5 278 208.6 279.1 212.5C280.4 217.3 283.6 220.3 287.1 223.4C294.6 229.9 302.4 236.2 310.3 242.2C325.7 254 341.9 264.6 359 273.8C365 263.6 370.9 253.4 376.9 243.2C371.4 240.6 366 237.8 360.8 234.6C358.3 233 355.8 231.4 353.3 229.7C351.9 228.8 350.6 227.8 349.3 226.9C348.1 226 343.3 222.2 348.3 226.2C338 217.9 328.4 209 319.7 199C317.5 196.5 315.4 194 313.4 191.5C312.8 190.8 312.3 190.1 311.7 189.4C309.5 186.7 314.3 192.9 312.3 190.1C311.2 188.6 310.1 187.2 309 185.7C304.8 179.9 300.9 174 297.2 168C293.4 161.8 289.8 155.4 286.5 148.9C284.9 145.7 283.3 142.5 281.8 139.3C281 137.5 280.2 135.7 279.4 134C279.1 133.4 278.9 132.8 278.6 132.2C278.3 131.6 278.1 131 277.8 130.4C278.9 133.1 279.2 133.6 278.4 131.9C271.7 115.7 266.3 98.9999 262.3 81.8999C261.7 86.3999 261.1 90.9999 260.5 95.4999C261 94.3999 261.9 93.2999 262.3 92.1999C262.9 90.4999 259.9 95.3999 261 93.9999C262 92.6999 263.5 93.0999 259.3 95.1999C259.7 94.9999 260.1 94.6999 260.5 94.4999C262.2 93.2999 258.4 95.4999 258.1 95.4999C258.7 95.6999 260.7 94.7999 261.4 94.6999C259.8 94.8999 258.3 95.0999 256.7 95.2999C258.3 95.0999 259.9 95.1999 261.6 95.3999C260 95.1999 258.5 94.9999 256.9 94.7999C258.2 94.9999 259.5 95.2999 260.8 95.5999C261.7 95.8999 265.8 97.3999 262.5 96.0999C259.5 94.7999 261.7 95.7999 262.4 96.0999C263.1 96.4999 263.8 96.7999 264.6 97.1999C266 97.9999 267.5 98.7999 268.9 99.5999C271.9 101.3 274.9 103.2 277.7 105.2C279.1 106.1 280.5 107.1 281.8 108.1C282.5 108.6 283.2 109.1 283.8 109.6C286.8 111.8 280.5 107 283.5 109.3C295.2 118.7 305.6 129.4 314.8 141.3C320.5 131.4 326.3 121.6 332 111.7C325.8 109.9 319.7 108.1 313.6 105.9C312.1 105.4 310.7 104.8 309.2 104.3C308.5 104 307.9 103.8 307.2 103.5C304.2 102.3 311.1 105.2 308.3 104C305.3 102.7 302.3 101.2 299.4 99.6999C296.6 98.1999 293.9 96.4999 291.3 94.6999C290.6 94.1999 289.9 93.6999 289.2 93.1999C287.5 91.9999 292.6 95.8999 290.3 94.0999C288.9 92.9999 287.6 91.7999 286.2 90.5999C283.7 88.2999 281.4 85.8999 279.2 83.2999C278.4 82.2999 276.7 79.5999 279.6 83.8999C279.1 83.0999 278.5 82.2999 277.9 81.4999C276.8 79.8999 275.7 78.1999 274.7 76.3999C271.2 85.0999 267.7 93.6999 264.1 102.4C295.7 89.7999 328.4 80.2999 361.9 74.3999C368.7 73.1999 373.7 65.9999 374.6 59.6999C375.5 53.2999 372.5 44.9999 366.2 42.0999C339 29.7999 311.8 17.3999 284.7 5.09991C283.3 15.8999 281.9 26.6999 280.5 37.3999C297.6 32.9999 314.9 29.5999 332.4 27.2999C330.8 27.4999 329.3 27.6999 327.7 27.8999C356.9 24.0999 386.4 23.1999 415.8 25.2999C414.2 13.6999 412.7 2.09994 411.1 -9.50007C408.1 -8.70008 405.2 -8.00007 402.1 -7.60004C403.7 -7.80006 405.2 -8.00007 406.8 -8.20008C401.7 -7.6001 396.5 -7.60004 391.4 -8.30006C393 -8.10004 394.5 -7.90009 396.1 -7.70008C392.4 -8.20008 388.9 -9.1001 385.4 -10.2001C384.5 -10.5001 383.6 -10.8001 382.8 -11.1C382.1 -11.4 379.4 -12.5001 382.3 -11.3001C385.3 -10.0001 382 -11.5001 381.4 -11.8001C380.5 -12.2001 379.7 -12.7 378.8 -13.1C375.5 -14.9 372.4 -17.1001 369.3 -19.2001C373.6 -16.2001 370.6 -18.2001 369.7 -19.0001C368.9 -19.7001 368.1 -20.3001 367.4 -21.0001C365.9 -22.4001 364.4 -23.9 362.9 -25.4C362.9 -17.1 362.9 -8.70002 362.9 -0.40003C364.4 -1.80005 365.9 -3.20002 367.5 -4.60004C368.6 -5.50007 371.3 -6.90003 367.1 -4.40003C367.8 -4.80005 368.4 -5.40003 369.1 -5.90003C372.1 -8.10004 375.4 -10.0001 378.7 -11.7001C379.6 -12.1001 380.4 -12.5 381.3 -12.9C384 -14.2 378.1 -11.7 380.1 -12.4C381.7 -13 383.3 -13.6 384.9 -14.1C388.4 -15.2 392 -15.9 395.7 -16.4C394.1 -16.2 392.6 -16.0001 391 -15.8001C396.1 -16.4 401.3 -16.4 406.4 -15.8001C404.8 -16.0001 403.3 -16.2 401.7 -16.4C404.6 -16 407.4 -15.5001 410.2 -14.7001C411.5 -14.3001 412.9 -13.9001 414.2 -13.5001C414.8 -13.3001 415.4 -13.1 416 -12.9C419.3 -11.7 412 -14.7001 415.3 -13.2001C414.1 -22.5001 412.9 -31.7001 411.7 -41.0001C386.6 -10.5001 361.4 20.0999 336.3 50.5999C330.7 57.3999 324.9 64.2999 320.7 71.9999C315.8 80.8999 312.9 90.2999 312.2 100.4C311.5 110.3 314 120.6 317.6 129.9C320.9 138.3 324.7 146.4 330.1 153.6C341.1 168.6 356.2 181.8 375 185.5C382.1 186.9 389 185.1 393.6 179.2C398.2 173.3 398.2 166.1 395 159.6C373.6 115.6 351.4 71.9999 328.2 28.8999C327.3 35.9999 326.4 43.1999 325.4 50.2999C337.6 39.9999 349.7 29.5999 361.9 19.2999C365.1 16.5999 367.3 10.7999 367.1 6.79992C366.9 2.09991 365.3 -2.30005 361.9 -5.70008C346.3 -21.7001 327.1 -33.4 307.4 -43.6C286.1 -54.5001 264.8 -65.2001 243.4 -76.0001C240.4 -65.0001 237.4 -54.0001 234.5 -43.0001C283.2 -46.7001 332 -50.3001 380.7 -54.0001C387.7 -54.5001 394.6 -55.0001 401.6 -55.6C407.8 -56.1 414.4 -57.2 420.7 -56.6C419.1 -56.8001 417.6 -57.0001 416 -57.2001C416.6 -57.1001 417.2 -57.0001 417.8 -56.8001C415.1 -58.1 414.5 -58.3001 416.2 -57.4C413.9 -59.3001 413.4 -59.7001 414.6 -58.5001C412.8 -61.0001 412.4 -61.6 413.4 -60.1C414 -59.1 414.5 -57.9 415.1 -56.9C414 -59.7 413.7 -60.2 414.4 -58.4C414.6 -57.8001 414.8 -57.1 415 -56.5001C416.8 -50.8001 418.2 -45.0001 419.7 -39.2001C423 -26.7001 426.4 -14.2001 429.7 -1.70008C432.4 -8.40009 435.1 -15.0001 437.8 -21.7001C437.1 -21.4001 436.4 -21.1001 435.7 -20.7001C433.1 -19.5001 436.7 -21.2 436.7 -21.1C436.7 -21.0001 432.4 -19.5001 431.9 -19.3001C428.9 -18.2001 425.8 -17.3001 422.7 -16.4C416.6 -14.7 410.4 -13.5001 404.1 -12.7001C405.7 -12.9001 407.2 -13.1 408.8 -13.3001C387 -10.4 364.7 -11.2 342.8 -12.1C319.5 -13.0001 296.2 -14.6 273 -16.9C259.8 -18.2 246.5 -19.8 233.3 -21.5001C234.9 -21.3 236.4 -21.1 238 -20.9C207.9 -25 178 -30.2 148.3 -36.6C148.3 -25.2 148.3 -13.9001 148.3 -2.50006C193.3 -11.2001 238.2 -19.8 283.2 -28.5001C291.8 -30.2001 297 -39.8001 295.9 -47.9C294.7 -57 287.4 -62.5001 278.5 -63.2001C218.9 -68.3 159.1 -70.9 99.2999 -70.9C82.4999 -70.9 65.6999 -70.7001 48.9999 -70.3C41.4999 -70.1 33.6999 -65.0001 31.8999 -57.3C30.0999 -49.6 33.0999 -41.5001 39.9999 -37.3C52.1999 -30.1 64.0999 -22.3 75.5999 -14.2001C81.4999 -10.0001 87.2999 -5.80004 92.9999 -1.40002C95.9999 0.89997 90.4999 -3.40002 92.3999 -1.80004C93.0999 -1.20007 93.7999 -0.700067 94.4999 -0.100061C95.8999 0.999946 97.3999 2.19993 98.7999 3.29993C101.7 5.59992 104.5 7.89994 107.3 10.1999C129.7 28.7999 151.3 49.0999 170.4 71.0999C171.5 72.3999 172.6 73.6999 173.7 74.9999C174.2 75.5999 174.7 76.2999 175.2 76.7999C171.7 72.9999 174 75.1999 174.7 76.1999C176.8 78.9999 178.8 81.9999 180.6 84.9999C182.5 88.0999 183.8 91.4999 185.5 94.5999C183.1 90.1999 184.7 92.7999 185.2 94.0999C185.6 95.0999 185.9 95.9999 186.2 96.9999C186.8 98.9999 187.4 101 187.9 103.1C188.5 98.5999 189.1 93.9999 189.7 89.4999C187.7 93.1999 185.6 96.8999 183.6 100.6C192.9 99.3999 202.1 98.1999 211.4 96.9999C214.6 101.2 211.8 97.4999 211 96.3999C210.2 95.2999 209.3 94.1999 208.5 93.0999C206.8 90.8999 205.1 88.5999 203.5 86.2999C200.1 81.5999 196.7 76.7999 193.4 71.9999C186.8 62.3999 180.5 52.5999 174.4 42.5999C162 22.2999 150.7 1.39997 140.5 -20.1C137.6 -26.2 134.7 -32.4001 132 -38.5001C130.6 -41.6 129.2 -44.7 127.9 -47.9C127.6 -48.6 127.3 -49.3 127 -50.0001C126.8 -50.5001 126.6 -51.0001 126.3 -51.6C126.6 -50.9 126.9 -50.2001 127.2 -49.5001C127.3 -50.8 125.5 -53.6 125 -54.8C122.3 -48.1 119.6 -41.5001 116.9 -34.8C117.5 -35.3 121.2 -37.2 118.2 -35.9C115.2 -34.7 118.9 -35.9 119.6 -36.1C118 -35.9 116.5 -35.7001 114.9 -35.5001C116.4 -35.7001 117.9 -35.7001 119.4 -35.5001C117.8 -35.7001 116.3 -35.9 114.7 -36.1C115.6 -36.0001 116.5 -35.8 117.4 -35.5001C118 -35.3 118.6 -35.1 119.2 -34.9C118.4 -35.2 117.6 -35.6 116.8 -35.9C118.8 -35.2 120.9 -33.8 122.7 -32.7001C123.6 -32.1001 124.4 -31.5 125.3 -30.9C126.7 -30 122 -33.6 125.1 -31.0001C126.8 -29.6 128.4 -28.2001 130 -26.8C136.7 -20.9 143.1 -14.8 149.3 -8.50006C155.5 -2.20007 161.6 4.39994 167.4 11.1999C170.4 14.5999 173.2 18.0999 176.1 21.5999C176.9 22.5999 177.8 23.6999 178.6 24.6999C179 25.1999 181.6 28.1999 179.7 26.0999C177.8 23.8999 180.4 26.9999 180.8 27.4999C181.6 28.5999 182.4 29.5999 183.2 30.6999C182.6 26.1999 182 21.5999 181.4 17.0999C180.1 20.8999 178.9 24.6999 177.6 28.4999C186.3 24.9999 194.9 21.4999 203.6 17.8999C174.1 4.49994 144.6 -8.80004 115.1 -22.2001C109.8 -24.6001 104.9 -25.4 99.3999 -23.1C94.6999 -21.1 90.0999 -16.9 89.1999 -11.6C87.3999 -1.40002 88.6999 7.79993 93.2999 17.0999C96.3999 23.3999 101.2 28.9999 106.2 33.8999C117 44.6 128 55.0999 138.9 65.7999C161.1 87.4999 183.4 109.2 205.6 130.8C218.1 143 230.6 155.2 243.1 167.4C248.8 157.5 254.6 147.7 260.3 137.8C258 137.4 255.7 136.9 253.5 136.2C252.5 135.9 251.4 135.5 250.4 135.1C249.9 134.9 249.4 134.6 248.9 134.5C249.7 134.7 252.2 136 250.1 135C245.5 132.8 241 130.4 236.7 127.7C227.7 122.3 218.8 116.6 209.8 111.1C191.4 99.6999 173.1 88.3999 154.7 76.9999C144.2 70.4999 133.7 63.9999 123.2 57.4999C115.3 52.5999 103.4 55.4999 98.9999 63.7999C94.2999 72.6999 97.0999 82.4999 105.3 87.9999C115.3 94.6999 125 101.7 134.7 108.9C135.8 109.7 136.8 110.5 137.9 111.3C138.5 111.8 139.1 112.2 139.7 112.7C140.2 113.1 142.3 114.5 140.2 113.1C137.8 111.6 141.5 114.1 142 114.5C143.5 115.7 145 116.9 146.5 118C151.1 121.7 155.7 125.4 160.3 129.2C169.7 137 178.8 145 187.8 153.3C195.5 160.4 203.1 167.5 209.8 175.5C210.6 176.4 211.3 178 208.7 174.1C209.1 174.7 209.6 175.3 210.1 175.9C210.9 177 211.7 178.2 212.4 179.3C213.9 181.6 215.3 184 216.5 186.5C216.7 186.9 216.9 187.3 217.1 187.8C218.5 190.9 216.9 186.7 216.6 186.6C217.1 186.7 217.8 190 218 190.6C218.9 193.5 219.5 196.5 220 199.5C219.8 197.9 219.6 196.4 219.4 194.8C219.7 197.1 219.8 199.5 219.8 201.8C224.1 196.1 228.5 190.4 232.8 184.7C229 185.7 225.1 186.4 221.2 186.9C222.8 186.7 224.3 186.5 225.9 186.3C212.6 187.9 199.2 187.1 186 185.3C187.6 185.5 189.1 185.7 190.7 185.9C164.7 182.4 138.8 177.3 112.9 172.6C86.9999 167.8 61.1999 162.9 35.2999 157.6C20.6999 154.6 6.09994 151.6 -8.50006 148.5C-10.1001 160.1 -11.6001 171.7 -13.2001 183.3C51.9999 179 117.3 176.6 182.6 176C201.1 175.9 219.6 175.9 238 176C235 165 232 154 229.1 143C217.8 148.8 206.5 154.3 194.9 159.5C189.5 161.9 184.2 164.3 178.7 166.6C178 166.9 177.3 167.2 176.5 167.5C178.9 166.5 179.3 166.3 177.5 167.1C176.1 167.7 174.6 168.3 173.2 168.9C170.3 170.1 167.4 171.3 164.5 172.4C141.9 181.4 118.8 189.3 95.3999 196C102.7 203.3 109.9 210.5 117.2 217.8C117.5 216.7 117.9 215.7 118.3 214.6C118.5 214.1 118.7 213.6 118.9 213.1C118.5 214 118.1 214.9 117.7 215.8C117.8 214.3 119.5 212.1 120.2 210.8C122 207.6 124.1 204.7 126.2 201.7C122.4 207 126.2 201.8 127.3 200.5C128.5 199.1 129.7 197.8 130.8 196.5C133.3 193.7 135.8 191 138.3 188.3C143.8 182.1 149.2 175.7 153.3 168.5C158.4 159.4 161 149.9 161.9 139.5C162.7 130.7 153.1 120.8 144.2 121.8C99.1999 126.7 54.1999 132.2 9.39994 138.2C-4.40006 140 -18.2001 141.9 -32.0001 143.8C-28.9001 155.2 -25.7001 166.5 -22.6001 177.9C22.0999 167.3 66.8999 156.7 111.6 146C118.8 144.3 124.9 136.4 124.6 128.9C124.2 120.8 119.3 114.4 111.6 111.8C71.8999 98.4999 32.0999 85.2999 -7.60006 71.9999C-5.00006 81.8999 -2.40007 91.6999 0.199933 101.6C4.09993 97.0999 8.29994 92.8999 12.7999 89.1999C13.2999 88.7999 13.6999 88.3999 14.1999 88.0999C16.7999 85.9999 11.1999 90.2999 13.0999 88.9999C14.1999 88.1999 15.1999 87.3999 16.2999 86.6999C18.6999 85.0999 21.0999 83.4999 23.6999 82.0999C28.2999 79.4999 32.9999 77.1999 37.8999 74.9999C39.9999 74.0999 33.3999 76.7999 36.3999 75.5999C36.8999 75.3999 37.4999 75.1999 37.9999 74.9999C39.1999 74.4999 40.3999 74.0999 41.5999 73.5999C44.0999 72.6999 46.6999 71.7999 49.1999 70.8999C70.8999 63.6 93.0999 58.3999 113.8 48.6999C126.3 42.7999 137.9 34.8999 147.9 25.2999C157.7 15.8999 152.6 -0.600033 140.1 -4.30004C90.1999 -18.3 38.2999 -28.0001 -14.0001 -32.6C-18.1001 -33 -23.8001 -30.4 -26.5001 -27.4C-29.2001 -24.5 -30.8001 -21.2001 -31.4001 -17.2001C-32.5001 -9.30004 -27.4001 0.899945 -18.7001 2.19993C26.9999 9.19993 72.8999 15.2999 118.8 20.6999C163.5 25.8999 208.3 30.1999 253.1 33.7999C278.3 35.7999 303.6 37.4999 328.9 38.9999C327.3 27.3999 325.8 15.7999 324.2 4.19992C262 26.4999 199.4 47.4999 136.3 67.0999C118.5 72.5999 100.6 78.1 82.6999 83.3999C73.2999 86.1999 68.0999 95.6999 70.2999 105.2C72.4999 114.7 79.1999 122.9 87.8999 127.3C95.7999 131.3 104.6 133.5 113 136.2C130.3 141.8 147.6 147.3 164.9 152.9C199.3 164 233.7 175 268.1 186.1C277.7 189.2 287.4 192.3 297 195.4C299.4 196.2 301.7 196.9 304.1 197.7C305.3 198.1 306.5 198.5 307.6 198.8C310.2 199.6 309.5 200.2 306.6 198.2C307.2 198.6 308 199 308.6 199.3C311.3 200.8 305.5 196.5 307.5 198.5C309.7 200.8 305.2 194.7 306.7 197.4C307.5 199 307.3 198.3 305.9 195.3C306.1 195.8 306.2 196.3 306.2 196.8C306 195.2 305.8 193.7 305.6 192.1C305.7 193 305.6 193.7 305.5 194.6C305.7 193 305.9 191.5 306.1 189.9C306 190.2 306 190.5 305.9 190.8C310 186.7 314.1 182.6 318.3 178.4C316.8 178.7 315.3 178.9 313.8 179.1C315.4 178.9 316.9 178.7 318.5 178.5C309.1 179.7 299.8 179.5 290.4 178.3C292 178.5 293.5 178.7 295.1 178.9C285.2 177.5 275.5 175.1 266.1 171.9C261.3 170.3 256.5 168.5 251.8 166.7C250.5 166.2 249.3 165.7 248 165.2C247.5 165 246.9 164.7 246.4 164.5C246.3 164.5 249.8 166 248.1 165.2C245.9 164.2 243.7 163.3 241.4 162.3C224.7 154.8 208.5 146.2 192.9 136.7C184.8 131.7 176.8 126.5 169 121C165.1 118.3 161.3 115.5 157.5 112.7C155.7 111.4 154 110 152.2 108.7C152.1 108.6 155.1 111 153.6 109.8C153.2 109.5 152.7 109.1 152.3 108.8C151.1 107.9 150 107 148.8 106.1C133.5 93.8999 119 80.6999 105 66.9999C90.6999 52.8999 76.7999 38.3999 61.9999 24.7999C53.9999 17.4999 45.8999 10.3999 37.0999 4.09992C28.8999 -1.8001 19.2999 -7.10003 9.29993 -8.80004C-39.3001 -16.9 -54.3001 40.0999 -63.2001 76.1999C-73.3001 117.2 -78.8001 159.5 -79.8001 201.8C-79.9001 207 -80.0001 212.1 -80.0001 217.3C-80.0001 226.6 -71.9001 235.4 -62.3001 235C-52.5001 234.6 -44.9001 227.2 -44.6001 217.3C-43.4001 172.8 -42.5001 128.3 -41.7001 83.6999C-41.0001 39.1999 -40.5001 -5.40001 -40.2001 -49.9C-40.1001 -75.1 -40.0001 -100.2 -40.0001 -125.4C-51.6001 -123.8 -63.2001 -122.3 -74.8001 -120.7C-73.8001 -114.4 -72.8001 -108.1 -72.0001 -101.7C-72.2001 -103.3 -72.4001 -104.8 -72.6001 -106.4C-64.6001 -46.7 -63.2001 13.7999 -60.5001 73.8999C-57.8001 134.7 -55.5001 195.5 -53.6001 256.4C-53.1001 273.5 -52.6001 290.5 -52.1001 307.6C-51.7001 322.9 -50.9001 338.2 -52.9001 353.4C-52.7001 351.8 -52.5001 350.3 -52.3001 348.7C-52.9001 352.7 -53.6001 356.7 -54.7001 360.6C-55.2001 362.5 -55.8001 364.4 -56.5001 366.2C-56.7001 366.9 -57.9001 369.6 -56.7001 366.8C-55.4001 363.7 -57.2001 367.6 -57.4001 368.1C-46.4001 371.1 -35.4001 374.1 -24.4001 377C-28.5001 320.2 -28.1001 263 -23.1001 206.3C-21.7001 190.4 -19.9001 174.5 -17.8001 158.7C-18.0001 160.3 -18.2001 161.8 -18.4001 163.4C-17.0001 153.2 -15.5001 142.9 -13.8001 132.7C-19.5001 137 -25.2001 141.4 -30.9001 145.7C-30.2001 145.7 -29.5001 145.7 -28.7001 145.8C-30.3001 145.6 -31.8001 145.4 -33.4001 145.2C-32.6001 145.3 -31.8001 145.6 -31.0001 145.7C-27.6001 146.4 -34.7001 143.6 -32.2001 145.2C-31.6001 145.6 -30.9001 146 -30.3001 146.4C-27.7001 148 -33.5001 143.5 -31.4001 145.5C-30.0001 146.9 -28.8001 148.3 -27.4001 149.7C-30.8001 146.2 -29.0001 147.7 -28.1001 149C-27.6001 149.8 -27.1001 150.5 -26.6001 151.3C-25.4001 153.2 -24.4001 155.2 -23.4001 157.2C-23.0001 158.1 -22.6001 159 -22.2001 159.9C-20.7001 163.1 -23.6001 156.3 -22.4001 159.3C-20.8001 163.5 -19.4001 167.7 -18.1001 172C-12.7001 190.2 -8.10006 209.4 5.09994 223.7C10.1999 229.2 20.1999 230.6 26.4999 226.5C29.0999 224.9 31.1999 222.7 32.7999 220.2C35.4999 216 35.2 211.3 34.5999 206.6C31.3999 183.4 26.4999 160.3 19.9999 137.8C16.8999 127 13.2999 116.3 9.39994 105.8C5.39994 95.1999 0.69994 84.7999 -1.10006 73.4999C-0.900066 75.0999 -0.700062 76.5999 -0.500065 78.1999C-1.00006 74.2999 -1.10006 70.3999 -0.600064 66.3999C-0.800061 67.9999 -1.00007 69.4999 -1.20006 71.0999C-0.900059 69.1999 -0.500065 67.2999 0.199932 65.3999C1.29993 62.1 -0.400067 65.8999 -0.300068 66.3999C-0.400067 66.1 0.899936 64.1 1.09993 63.8999C1.49993 63.1999 1.99993 62.0999 2.69993 61.4999C1.89993 62.0999 0.0999332 64.6999 1.99993 62.4999C3.09993 61.1999 4.29994 59.9999 5.49993 58.8999C11.1999 53.3999 17.4999 48.3999 23.4999 43.1999C36.8999 31.6999 50.2999 20.0999 63.6999 8.59992C72.6999 0.799934 69.0999 -13.5001 60.0999 -19.2001C33.9999 -36.0001 7.89992 -52.7001 -18.3001 -69.5C-17.1001 -60.2001 -15.9001 -51 -14.7001 -41.7001C-12.2001 -44.3 -9.60008 -46.8 -6.80007 -49.1C-6.30007 -49.6 -5.70007 -50 -5.20007 -50.4C-2.40006 -52.7 -7.60007 -48.7 -5.90007 -49.9C-4.50007 -50.9 -3.10007 -51.9 -1.60007 -52.9C1.09993 -54.7 3.89992 -56.3 6.69993 -57.7001C7.99993 -58.4001 13.1999 -60.4 7.89993 -58.4C9.39993 -59 10.8999 -59.6 12.4999 -60.1C21.1999 -63.1 27.8999 -72.4 24.8999 -81.9C21.7999 -91.4 12.7999 -96.4 3.09993 -94.3C-15.0001 -90.2001 -33.4001 -85 -49.2001 -74.9C-69.3001 -62.1 -83.1001 -42.8 -90.1001 -20.1C-97.3001 3.29997 -97.7001 28.5999 -98.1001 52.9999C-98.6001 79.4999 -99.0001 106 -99.5001 132.5C-100.6 185.7 -101.5 239.1 -102.4 292.5C-102.9 318.9 -103.3 345.2 -103.4 371.6C-103.6 397.7 -104.3 424.1 -102.2 450.1C-101 464.5 -99.1 478.9 -93.2 492.2C-90.3 498.8 -85.2 505.2 -78.7 508.4C-69.8 512.9 -61 512 -51.5 510.3C-26.8 505.7 -4.00005 494.5 20.3999 489.1C26.5999 487.7 32.9 486.7 39.3 485.8C37.7 486 36.2 486.2 34.6 486.4C55.3 483.7 76.1999 483.3 97 482.7C118.3 482.2 139.6 481.2 160.8 479.7C204.2 476.6 247.6 471.3 290.5 464C314.3 460 338 455.3 361.6 450C370.6 448 376.8 437 374 428.2C370.9 418.7 361.9 413.7 352.2 415.8C314.2 424.3 275.9 431.2 237.3 436.5C238.9 436.3 240.4 436.1 242 435.9C201.7 441.3 161.1 444.9 120.4 446.6C79.1999 448.3 37.1999 446.8 -2.70005 458.5C-23.6 464.6 -43.7 473.6 -65.3 476.8C-63.7 476.6 -62.2 476.4 -60.6 476.2C-62.7 476.5 -64.7 476.6 -66.8 476.3C-65.2 476.5 -63.7 476.7 -62.1 476.9C-62.7 476.8 -63.5 476.4 -64.1 476.4C-61.8 477.5 -61.1 477.7 -62.2 477.1C-62.9 476.6 -62.7 476.8 -61.4 477.8C-59 479.6 -60.6 478.2 -61.1 477.8C-62.5 476.7 -59 481 -60 479.3C-60.7 478.1 -61.4 476.9 -62.1 475.7C-63.2 473.6 -61.8 476.8 -61.5 477.2C-61.9 476.5 -62.1 475.5 -62.4 474.8C-64.4 468.7 -65.6001 462.2 -66.4 455.8C-66.2 457.4 -66 458.9 -65.8 460.5C-67.7 446.1 -67.9 431.5 -68.1 416.9C-68.3 402.2 -68.3001 387.5 -68.3001 372.7C-68.2001 342.6 -67.6001 312.6 -67.1001 282.5C-66.0001 222.5 -65.0001 162.6 -63.9001 102.6C-63.6001 85.7999 -63.3001 68.8999 -63.0001 52.0999C-62.7001 36.9999 -62.4001 21.8999 -60.4001 6.89995C-60.6001 8.49995 -60.8001 9.99992 -61.0001 11.5999C-59.7001 1.99992 -57.7001 -7.60008 -54.3001 -16.7001C-54.0001 -17.5 -52.5001 -21.1 -53.7001 -18.3C-54.9001 -15.4 -53.2001 -19.3 -52.9001 -19.8C-51.9001 -21.8 -50.9001 -23.8 -49.7001 -25.7001C-48.6001 -27.6001 -47.4001 -29.4 -46.2001 -31.1C-45.9001 -31.5 -45.7001 -31.8 -45.4001 -32.2001C-44.4001 -33.6001 -46.9001 -30.4 -46.8001 -30.4C-46.2001 -30.6 -45.0001 -32.6 -44.6001 -33.1C-42.0001 -36.1 -39.1001 -38.9 -36.1001 -41.4C-35.7001 -41.7 -35.1001 -42.1 -34.8001 -42.5C-34.6001 -42.7001 -38.2001 -40 -36.7001 -41C-35.9001 -41.6 -35.1001 -42.1001 -34.4001 -42.7001C-32.8001 -43.8 -31.2001 -44.8 -29.6001 -45.8C-26.3001 -47.8 -23.0001 -49.5 -19.5001 -51.1C-19.1001 -51.3 -18.4001 -51.7001 -18.0001 -51.8C-17.6001 -51.8 -22.1001 -50.1 -20.4001 -50.8C-19.5001 -51.1 -18.6001 -51.5 -17.8001 -51.9C-16.0001 -52.6 -14.3001 -53.2001 -12.5001 -53.8C-4.50007 -56.5001 3.79993 -58.6 11.9999 -60.4C8.89993 -71.8 5.69993 -83.1 2.59993 -94.5001C-13.7001 -88.8 -28.2001 -79.4001 -40.3001 -67C-48.5001 -58.6 -46.3001 -45.4001 -36.7001 -39.2001C-10.6001 -22.4001 15.4999 -5.70006 41.6999 11.0999C40.4999 1.79994 39.2999 -7.40008 38.0999 -16.7001C24.5999 -5.00005 10.9999 6.59992 -2.50007 18.2999C-15.6001 29.5999 -30.6001 40.3999 -35.1001 58.1999C-39.8001 76.8999 -32.9001 94.4999 -26.3001 111.6C-20.0001 127.2 -15.0001 143 -10.8001 159C-5.90006 177.7 -2.20006 196.6 0.499941 215.7C10.3999 210 20.1999 204.2 30.0999 198.5C28.9999 197.3 27.2 194.2 30.0999 198.8C29.5999 198.1 29.0999 197.4 28.5999 196.7C27.3999 194.9 26.3999 193.1 25.4999 191.2C24.8999 190.1 24.3999 189 23.8999 187.8C22.4999 184.7 25.2999 191.5 24.1999 188.5C23.3999 186.4 22.5999 184.2 21.8999 182.1C18.8999 173.1 16.6999 163.8 13.5999 154.8C6.69993 134.7 -6.40006 110.3 -30.8001 110.2C-37.9001 110.2 -46.6001 115.7 -47.9001 123.2C-58.7001 188.7 -63.6001 255.2 -62.2001 321.6C-61.8001 340.1 -60.9001 358.5 -59.6001 376.9C-59.1 384.4 -54.5001 392.2 -46.6 394C-39.2 395.7 -30.3 393 -26.6 385.9C-19.0001 370.9 -16.6001 354.3 -16.1001 337.6C-15.7001 321.8 -16.5001 306 -17.0001 290.3C-18.0001 256.2 -19.1001 222 -20.3001 187.9C-22.7001 120.2 -25.5001 52.6 -29.1001 -15C-31.2001 -53.5 -34.2001 -92 -40.4001 -130.1C-41.0001 -134 -45.1001 -138.9 -48.5001 -140.7C-52.1001 -142.6 -55.8001 -143.3 -59.8001 -142.8C-68.4001 -141.6 -75.1001 -134.3 -75.1001 -125.4C-75.1001 -80.9 -75.3001 -36.3001 -75.8001 8.19993C-76.3001 52.6999 -76.9001 97.2999 -77.9001 141.8C-78.4001 166.9 -79.0001 192.1 -79.7001 217.2C-67.9001 217.2 -56.1001 217.2 -44.3001 217.2C-44.4001 191 -42.7001 164.9 -39.2001 139C-39.4001 140.6 -39.6001 142.1 -39.8001 143.7C-37.0001 123.2 -33.2001 102.8 -28.1001 82.7999C-25.7001 73.2999 -23.2001 63.8999 -20.1001 54.5999C-19.4001 52.4999 -18.7001 50.3999 -17.9001 48.2999C-17.5001 47.3999 -17.2001 46.3999 -16.8001 45.4999C-16.6001 44.9999 -16.4001 44.5999 -16.2001 44.0999C-15.4001 41.9999 -17.8001 47.5999 -16.8001 45.5999C-14.9001 41.6999 -13.1001 37.7999 -10.8001 34.0999C-10.2001 33.1999 -9.60007 32.2999 -9.00007 31.4999C-6.80007 28.3999 -11.5001 34.4999 -9.10007 31.5999C-7.80006 30.0999 -6.40007 28.6999 -5.00007 27.3999C-2.30007 24.8999 -8.40007 29.5999 -5.40007 27.6999C-4.60007 27.1999 -3.80007 26.6999 -3.00007 26.2999C-2.60007 26.0999 -2.10007 25.8999 -1.60007 25.5999C0.299936 24.5999 -5.50007 26.8999 -2.60007 26.0999C-1.40007 25.7999 -0.200072 25.4999 1.09993 25.1999C-0.500067 25.3999 -2.00007 25.5999 -3.60007 25.7999C-1.10007 25.4999 1.39993 25.4999 3.89993 25.7999C2.29994 25.5999 0.799928 25.3999 -0.80007 25.1999C1.79993 25.5999 4.29994 26.1999 6.79994 26.9999C7.29994 27.1999 8.09993 27.5999 8.69993 27.6999C5.29993 27.0999 5.89993 26.3999 7.29994 27.0999C8.89993 27.8999 10.3999 28.6999 11.8999 29.4999C14.3999 30.8999 16.7999 32.4999 19.0999 34.1999C19.6999 34.5999 20.2999 35.0999 20.8999 35.4999C23.2999 37.1999 20.1999 34.9999 19.8999 34.6999C21.2999 35.8999 22.7999 36.9999 24.1999 38.1999C33.8999 46.2999 43.1999 54.9999 52.1999 63.8999C70.5999 81.8999 88.3999 100.6 107.8 117.5C146.3 150.9 189.1 178.5 236.1 198.2C249.7 203.9 263.6 208.9 278.1 211.8C294.8 215.1 311.2 215.6 327.9 212.6C333.6 211.6 339 205.8 340.3 200.2C343.3 187.2 337.4 175 326 168.3C321.8 165.9 317.1 164.6 312.5 163.1C308.2 161.7 303.9 160.3 299.5 158.9C281.8 153.2 264.1 147.5 246.4 141.8C211 130.4 175.7 119 140.3 107.7C130.5 104.5 120.7 101.4 110.8 98.1999C110.2 97.9999 105 95.6999 104.5 96.0999C104.6 95.9999 108.9 98.1999 106.6 96.9999C105.7 96.4999 104.8 96.0999 103.9 95.4999C101.9 94.2999 102.9 93.6 105 96.3999C104.6 95.8999 103.9 95.0999 103.3 94.6999C103.9 95.4999 104.5 96.1999 105.1 96.9999C104.8 96.4999 104.5 96.0999 104.3 95.5999C105.4 98.5999 105.7 99.1999 105.1 97.3999C104.9 96.7999 104.8 96.1999 104.6 95.5999C100.5 102.9 96.3999 110.1 92.1999 117.4C155.4 98.5999 218.2 78.3999 280.5 56.8999C298.3 50.7999 316 44.4999 333.7 38.1999C342.1 35.1999 347.6 27.8999 346.4 18.7999C345.2 9.79992 337.9 3.9999 329 3.4999C256.8 -0.700074 184.7 -7.00006 112.8 -15.5001C92.4999 -17.9001 72.0999 -20.5001 51.8999 -23.2001C53.4999 -23.0001 54.9999 -22.8 56.5999 -22.6C34.6999 -25.6 12.6999 -28.7001 -9.10007 -32C-10.7001 -20.4001 -12.2001 -8.80004 -13.8001 2.79994C-1.90007 3.79994 9.99992 5.19993 21.8999 6.69993C20.2999 6.49992 18.7999 6.29994 17.1999 6.09992C55.8999 11.2999 94.0999 19.4999 131.5 30.4999C128.9 20.5999 126.3 10.7999 123.7 0.899938C121.7 2.79993 119.6 4.69993 117.5 6.39994C117.1 6.79993 114.6 8.69993 117.2 6.69993C119.8 4.69993 117.3 6.59995 116.8 6.89994C115.6 7.79993 114.4 8.59992 113.2 9.49991C108.6 12.5999 103.8 15.2999 98.7999 17.6999C96.4999 18.7999 94.1999 20.1 91.6999 20.8999C91.6999 20.8999 96.0999 19.0999 93.4999 20.0999C92.9999 20.2999 92.3999 20.4999 91.8999 20.6999C90.3999 21.2999 88.9999 21.7999 87.4999 22.3999C82.4999 24.1999 77.4999 25.8999 72.4999 27.4999C50.7999 34.1999 28.4999 39.7999 8.49993 50.8999C-3.70006 57.6999 -14.9001 66.5999 -24.0001 77.1999C-28.2001 82.0999 -30.3001 88 -28.5001 94.3999C-26.8001 100.6 -22.1001 104.8 -16.1001 106.8C23.5999 120.1 63.3999 133.3 103.1 146.6C103.1 135.2 103.1 123.9 103.1 112.5C58.3999 123.1 13.5999 133.7 -31.1001 144.4C-40.1001 146.5 -46.3001 157.3 -43.5001 166.2C-42.1001 170.5 -39.5001 174.6 -35.4001 176.8C-30.9001 179.2 -26.8001 179.3 -21.8001 178.6C-12.0001 177.2 -2.20007 175.9 7.59994 174.6C5.99994 174.8 4.49994 175 2.89994 175.2C50.1999 168.8 97.5999 163.1 145.1 157.9C139.2 152 133.3 146.1 127.4 140.2C127.3 141.1 127.2 141.9 127.1 142.8C127.3 141.2 127.5 139.7 127.7 138.1C127.1 141.9 126.1 145.4 124.9 149C123.8 151.9 126.9 144.8 125.5 147.6C125 148.5 124.6 149.4 124.1 150.3C123.4 151.6 122.6 152.9 121.8 154.2C120.9 155.7 119.8 157.1 118.8 158.5C117 161 121.8 154.7 119.5 157.6C118.9 158.3 118.4 159 117.8 159.6C115.6 162.2 113.3 164.8 111 167.3C99.5999 179.8 88.8999 192.6 83.8999 209.1C79.8999 222 92.8999 234.5 105.7 230.9C154.7 216.7 202.3 197.5 247.7 174.3C254.4 170.9 258.1 161.4 255.8 154.3C253.4 146.8 246.8 141.4 238.7 141.3C173.4 140.8 108.1 142.1 42.8999 145.3C24.3999 146.2 5.99994 147.3 -12.5001 148.5C-21.4001 149.1 -28.7001 154.8 -29.9001 163.8C-31.0001 172 -25.9001 181.4 -17.2001 183.2C15.9999 190.3 49.1999 197 82.4999 203.3C115.1 209.5 147.9 215.9 180.8 220.5C201.6 223.4 222.3 224.6 242.9 219.4C250.4 217.5 255.9 210 255.9 202.3C255.8 176.3 241.2 154.8 223 137.4C202.9 118.3 181.7 100.4 159.7 83.4999C148.1 74.5999 136.2 65.9999 124 57.7999C118 67.9999 112.1 78.1999 106.1 88.3999C143.3 111.4 180.3 134.6 217.6 157.4C228.1 163.8 239.4 170.2 251.7 172.2C255.8 172.9 259.3 173 263.2 171.3C266.6 169.9 269.9 167.4 271.7 164.1C275.4 157.2 274.7 148.3 268.9 142.7C227.7 102.5 186.5 62.2999 145.2 22.0999C139.7 16.7999 134 11.5999 128.9 5.99991C128.5 5.49991 128.1 5.09992 127.7 4.59992C127.4 4.19993 127.1 3.89991 126.8 3.49991C126 2.49991 126.4 2.99991 128.1 5.19993C127.5 3.79993 126.2 2.49991 125.5 1.19993C125.2 0.59992 124.9 0.0999503 124.6 -0.500056C123.2 -3.20007 125.7 2.69993 125.1 0.59992C124.6 -1.10009 124.1 -2.70007 123.8 -4.50006C124 -2.90008 124.2 -1.40008 124.4 0.199926C124.2 -1.8001 124.2 -3.70007 124.5 -5.70007C124.3 -4.10009 124.1 -2.60003 123.9 -1.00006C124 -1.30004 124 -1.70007 124.1 -2.00006C115.4 1.49994 106.8 4.99991 98.0999 8.59992C127.6 21.9999 157.1 35.2999 186.6 48.6999C191.9 51.0999 196.8 51.8999 202.3 49.5999C207.5 47.3999 210.8 43.4999 212.5 38.0999C215.2 29.9999 219.4 21.1999 214.5 12.9999C211.5 7.8999 207.1 3.19995 203.3 -1.50006C197.2 -9.10003 190.9 -16.6 184.3 -23.8C178 -30.7001 171.4 -37.3 164.6 -43.7001C157.1 -50.8 149.2 -58.2001 140.4 -63.7001C128.4 -71.2001 112 -74.2001 99.7999 -65.2001C96.5999 -62.8 94.1999 -60.5001 92.5999 -56.7001C91.1999 -53.4001 90.2999 -48.6001 91.6999 -45.2001C110.8 1.09992 133.7 45.7999 161.9 87.2999C170 99.1999 178.5 110.7 187.3 122.1C190.6 126.4 197.2 127.6 202.2 127C207.5 126.3 212.5 123.4 215.1 118.6C217.1 114.9 219.3 111.3 221.2 107.5C224.9 100.2 223.2 93.0999 220.6 85.7999C217.8 77.7999 214.1 70.1999 209.4 63.0999C200.6 49.7999 189.4 38.1999 178.3 26.8999C154.9 2.99994 129.5 -18.9001 102.6 -38.7001C88.3999 -49.1001 73.7999 -58.9 58.6999 -67.8C55.6999 -56.8 52.6999 -45.8 49.7999 -34.8C109.6 -36.2001 169.4 -35.1 229 -31.4C245.8 -30.4 262.5 -29.1001 279.3 -27.7001C277.7 -39.3001 276.2 -50.9001 274.6 -62.5001C229.6 -53.8 184.7 -45.2001 139.7 -36.5001C132.4 -35.1 126.4 -26.7 126.7 -19.4C127 -11.9 131.9 -4.00006 139.7 -2.30004C181.2 6.59995 223.2 13.2999 265.4 17.7999C285.8 19.9999 306.3 21.5999 326.8 22.6999C346.8 23.6999 366.9 24.5999 387 23.9999C411.1 23.2999 434.5 19.1999 456.5 8.9999C463.5 5.69991 466.5 -3.9001 464.6 -11.0001C460 -28.3001 455.6 -45.7 450.7 -62.9C447.9 -73 443.4 -83.0001 433.9 -88.3001C424.6 -93.6 413.7 -91.6 403.5 -90.8001C367.7 -88.1 331.8 -85.4001 296 -82.7001C275.7 -81.2001 255.5 -79.6 235.2 -78.1C227.7 -77.5001 219.9 -73.0001 218.1 -65.1C216.4 -57.8 219.1 -48.7 226.2 -45.1C247.2 -34.5001 268.3 -23.9 289.3 -13.1C298.2 -8.50006 307.1 -3.70008 315.6 1.69992C317.8 3.09991 320 4.59991 322.2 6.19992C323.1 6.79992 323.9 7.49991 324.8 8.09991C326.3 9.19992 325.9 8.99994 323.8 7.29992C324.4 7.69992 324.9 8.19992 325.5 8.59991C329.8 12.0999 333.9 15.7999 337.7 19.6999C337.7 11.3999 337.7 2.99993 337.7 -5.30005C325.5 4.99994 313.4 15.3999 301.2 25.6999C295.1 30.8999 294.9 40.5999 298.4 47.0999C321.6 90.1999 343.9 133.7 365.2 177.8C371.9 169.1 378.5 160.5 385.2 151.8C383.8 151.5 382.4 151.2 381.1 150.8C380.5 150.6 377.3 150 377 149.4C377.1 149.6 381.6 151.6 378.7 150.1C378.1 149.8 377.5 149.5 376.9 149.2C375.7 148.6 374.5 147.9 373.4 147.2C372.1 146.4 370.9 145.5 369.6 144.6C367.9 143.4 373 147.4 370.8 145.5C370.1 144.9 369.5 144.4 368.8 143.8C366.5 141.7 364.3 139.5 362.3 137.2C361.8 136.6 361.3 136 360.8 135.5C358.9 133.2 362.8 138.3 361.6 136.5C360.6 135.1 359.6 133.7 358.7 132.3C356.9 129.5 355.2 126.5 353.7 123.5C353 122.1 350.9 116.4 352.8 121.8C352.2 120.2 351.5 118.6 351 117C349.6 113.1 348.6 109.1 348 105.1C348.2 106.7 348.4 108.2 348.6 109.8C348.1 105.8 348 101.8 348.6 97.7999C348.4 99.3999 348.2 100.9 348 102.5C348.3 100.4 348.8 98.2999 349.4 96.1999C349.7 95.2999 350 94.2999 350.3 93.3999C350.4 93.0999 350.6 92.2999 350.8 91.9999C350.5 92.2999 349.1 95.7999 350.2 93.5999C352.1 89.7999 354.3 86.0999 356.8 82.5999C357.3 81.7999 357.9 81.0999 358.5 80.2999C359.6 78.7999 357.1 82.2999 357.1 81.9999C357.1 81.6999 357.8 81.0999 358 80.8999C359.5 78.9999 361 77.1999 362.5 75.3999C365.9 71.2999 369.3 67.0999 372.7 62.9999C386.4 46.2999 400.2 29.5999 413.9 12.8999C421.8 3.39993 429.6 -6.20008 437.5 -15.7001C441.2 -20.2001 443.2 -24.7 442.4 -30.6C441.7 -35.6 438.9 -41.3001 434 -43.5001C425 -47.5001 416.6 -49.9001 406.9 -51.0001C398.8 -51.9001 390.7 -51.2 382.7 -49.6C366.1 -46.3001 350.9 -37.0001 338.8 -25.3001C331.8 -18.6 332.3 -7.1001 338.8 -0.300083C360 21.7999 391.3 33.3999 421.4 24.7999C429.9 22.3999 435.2 14.0999 434.1 5.39992C432.9 -3.70008 425.6 -9.30006 416.7 -9.90003C368.2 -13.4 319.1 -8.6001 272 3.49991C265.2 5.19992 260.2 11.3999 259.3 18.1999C258.4 24.5999 261.4 32.8999 267.7 35.7999C294.9 48.0999 322.1 60.4999 349.2 72.7999C350.6 61.9999 352 51.1999 353.4 40.4999C319.9 46.3999 287.1 55.8999 255.6 68.4999C250.3 70.5999 246.4 73.2999 244.1 78.6999C241.9 83.7999 242.1 89.5999 245 94.3999C253.8 109.3 266.5 121.5 281.6 130C294.6 137.3 309 142 323.3 146.1C330.5 148.2 339.7 144.8 343.3 138C344.8 135.2 345.6 132.2 345.7 129.1C345.9 124.1 343.4 120.3 340.5 116.6C324.8 96.3999 304.8 78.0999 281.9 66.3999C270 60.2999 254.8 57.1999 242.7 64.6999C238.6 67.2999 235.5 70.4999 232.7 74.4999C232.1 75.3999 231.5 76.2999 231.1 77.2999C228.6 82.3999 228 87.1999 229.2 92.7999C230.5 98.7999 232.2 104.7 234 110.6C247.5 155.8 270.4 199.3 303.5 233.3C319.7 250 338.7 264.6 359.9 274.4C364.3 276.4 368.7 277.5 373.5 276.2C377.6 275.1 382.1 271.9 384.1 268.1C388.5 259.9 386.4 248.6 377.8 243.9C365.3 237.1 353.1 229.6 341.5 221.4C338.6 219.3 335.7 217.2 332.8 215.1C332.2 214.6 331.6 214.2 331 213.7C330.8 213.5 327.8 211.2 330.1 213C332.3 214.7 329.7 212.7 329.2 212.3C328.4 211.7 327.7 211.1 327 210.5C321.1 205.8 315.4 200.9 309.7 195.9C311.4 200.1 313.2 204.2 314.9 208.4C314.9 208.1 315 207.8 315 207.5C314.8 209.1 314.6 210.6 314.4 212.2C314.6 211.1 314.9 210.1 315.1 209.1C315.5 207.9 315.4 208.1 314.8 209.8C314.1 211.4 314 211.7 314.5 210.6C316.7 207.5 312.4 212.6 313.5 211.7C314.1 211.2 314.6 210.6 315.2 210.1C311.5 213.8 312.3 212.2 313.8 211.4C317.2 209.5 309.9 212.6 312.6 211.8C314.1 211.4 315.6 211 317.2 210.7C315.6 210.9 314.1 211.1 312.5 211.3C315.6 210.9 318.7 211 321.8 211.4C320.2 211.2 318.7 211 317.1 210.8C326.4 212.2 335.8 213.8 345.1 215.2C349.5 215.9 354.1 216.4 358.5 217.4C358.7 217.4 360.5 218.1 360.5 218C359.5 217.6 358.6 217.2 357.6 216.8C358 217 358.5 217.3 358.9 217.6C358.1 217 357.3 216.4 356.5 215.8C357.4 216.7 357.2 216.5 356.1 215.1C355.1 213.7 354.9 213.5 355.5 214.5C354.4 211.4 354 210.7 354.4 212.4C354.2 210.8 354 209.3 353.8 207.7C353.9 208.2 353.9 208.8 353.8 209.3C354 207.7 354.2 206.2 354.4 204.6C354.4 204.9 354.3 205.2 354.3 205.5C355.8 202.9 357.3 200.3 358.8 197.7C357.1 199.9 355.3 202 353.3 203.9C352.3 204.8 351.4 205.8 350.3 206.6C349.9 207 349.3 207.7 348.8 207.9C349.8 207.5 352.1 205.5 349.7 207.2C347.6 208.6 345.5 209.9 343.2 211.1C339.8 212.8 346.7 209.8 343.2 211.1C341.9 211.6 340.6 212 339.3 212.3C343.8 223.1 348.4 233.9 352.9 244.6C370.8 234.3 386.5 220.2 399.3 204.1C402.9 199.5 405 195.2 404.2 189.2C403.5 183.9 400.6 178.9 395.8 176.3C370 162.4 344.2 148.6 318.3 134.7C315.3 145.7 312.3 156.7 309.4 167.7C347.3 164.2 385.8 160.5 421.6 146.9C426.9 144.9 430.8 142 433.1 136.7C435.3 131.6 435.1 125.8 432.2 121C416.5 94.5999 398.7 69.3999 379 45.6999C374.8 55.7999 370.7 65.7999 366.5 75.8999C383.3 74.3999 400.2 72.7999 416.8 69.5999C433.6 66.2999 450 60.7999 465.2 52.7999C475.6 47.2999 476.3 32.9999 468.8 24.9999C455.5 10.8999 438.3 2.09994 419.1 -0.100075C402.1 -2.10004 384 3.09991 370.2 13.0999C365.5 16.4999 360.7 21.8999 361.4 28.3999C365.8 65.9999 375.3 102.3 391.1 136.7C394.2 143.5 404.2 147.1 411.1 144.8C418.6 142.4 424 135.8 424.1 127.7C424.4 76.8999 424.8 26.1999 425.1 -24.6C425.2 -39.0001 425.3 -53.5 425.4 -67.9C413.6 -67.9 401.8 -67.9 390 -67.9C392.1 -27.3001 394.3 13.2999 397.2 53.8999C400.2 95.3999 404.3 136.9 409.8 178.2C412.8 200.6 416.4 223 420.6 245.3C422.2 253.9 432 259.1 440 258C448.6 256.8 455.3 249.5 455.3 240.6C455.6 193.3 453.5 145.9 449.1 98.7999C448.7 93.9999 447.4 89.7999 443.9 86.2999C440.8 83.1999 435.8 80.8999 431.4 81.0999C421.1 81.5999 414.6 88.8999 413.7 98.7999C408.3 161.6 408.4 224.8 414 287.6C414.9 297.3 415.6 307.2 417.1 316.8C418.6 326.6 424.6 338.6 435.5 340.2C439.6 340.8 443.1 341 447 339.3C450.2 337.9 454 335.4 455.5 332.1C464.4 312.2 466.6 291.1 463.1 269.7C460.2 251.5 451.1 232.6 436.5 221C427 213.4 416.8 208.9 404.6 207.9C397.2 207.3 389.2 213.8 387.5 220.9C385.6 229.1 388.9 236.1 395.6 240.9C396.4 241.5 397.2 242.1 398 242.7C401 244.9 394.7 240 397.6 242.4C398.9 243.5 400.2 244.5 401.5 245.7C404.5 248.3 407.4 251 410.2 253.9C412.9 256.7 415.6 259.6 418.1 262.7C418.7 263.4 419.3 264.1 419.8 264.8C420.5 265.7 422.4 268.8 419.7 264.7C420.9 266.5 422.3 268.3 423.6 270.1C428.7 261.2 433.8 252.4 438.9 243.5C413.3 245.5 389.2 251.9 365.8 262.3C360.9 264.5 358 270.3 357.4 275.2C356.7 280.6 358.2 286.2 362.3 290.1C377.3 304.5 395.5 315.8 415.8 321C418.9 309.6 422.1 298.3 425.2 286.9C398.4 282 370.7 284 345.2 294C338.5 296.6 333.5 301.2 332.5 308.7C331.5 315.8 334.9 322.5 340.9 326.3C370.6 345 399.6 364.7 428 385.4C432.5 374.6 437.1 363.8 441.6 353.1C418.7 347.9 395.9 356.3 380 373.2C373.3 380.3 373.3 391.1 380 398.2C386.4 405 392.6 412.1 398.5 419.5C399.2 420.4 399.9 421.3 400.6 422.1C403.4 425.6 398.8 419.7 400.9 422.5C402.3 424.3 403.6 426.1 405 428C407.9 432 410.8 436.1 413.6 440.2C418.7 431.3 423.8 422.5 428.9 413.6C425.5 413.3 422.1 412.9 418.7 412.5C420.3 412.7 421.8 412.9 423.4 413.1C412.1 411.5 400.8 409.1 389.9 405.9C384.3 404.3 378.8 402.4 373.4 400.4C370.8 399.4 368.3 398.4 365.8 397.4C364 396.7 364.4 396.8 366.8 397.8C366.1 397.5 365.4 397.2 364.6 396.9C363.2 396.3 361.7 395.6 360.3 394.9C357.3 405.9 354.3 416.9 351.4 427.9C375 429.3 398.6 427.4 421.7 422.9C430.3 421.2 435.5 411.6 434.4 403.5C433.2 394.5 425.9 388.7 417 388.2C381.2 386.1 345.4 384.1 309.6 382C309.6 393.8 309.6 405.6 309.6 417.4C322.4 418 335.7 416.1 347.8 412C354.5 409.7 361 406.9 367.2 403.6C374.5 399.7 384.7 394.3 388 386.5C391.5 378.3 389.3 367.7 384.8 360.3C381.2 354.3 375.9 349.5 370 345.8C365.1 342.7 359.4 340.7 354.1 338.4C347.7 335.6 341.3 332.7 334.9 329.9C320.6 323.6 306.3 317.2 292 310.9C292 321.1 292 331.3 292 341.5C311.8 330.7 331.5 319.9 351.3 309.1C362.6 302.9 363 284.6 351.3 278.5C327 265.9 301.8 254.9 276.1 245.5C278.7 255.4 281.3 265.2 283.9 275.1C285.2 273.7 286.7 271.7 288.5 270.8C287.4 271.3 285.4 273.1 287.8 271.5C288.6 271 289.5 270.5 290.3 270C291 269.6 291.9 269.4 292.4 268.9C289.8 270 289.1 270.3 290.4 269.8C290.8 269.6 291.3 269.5 291.7 269.3C293.5 268.7 295.3 268.4 297.1 268.1C295.5 268.3 294 268.5 292.4 268.7C294.5 268.5 296.6 268.4 298.8 268.6C298.8 256.8 298.8 245 298.8 233.2C270.4 231.2 241.7 233.9 214 240.4C208.2 241.8 203.1 247 201.6 252.8C197.7 268.9 204.4 283 212.8 296.3C219.3 306.5 225.8 316.7 232.6 326.7C246.2 346.7 261 366.6 279.1 382.9C288.8 391.6 299.4 399.5 311 405.4C315.5 394.6 320.1 383.8 324.6 373.1C285.7 358.3 243 355.7 202.5 365.1C195.7 366.7 190.7 373.2 189.8 379.8C188.9 386.3 191.9 394.4 198.2 397.4C212.3 404.1 226.9 409.2 242.4 411.5C259 413.9 275 413.8 291.6 411.1C294.3 410.7 297.5 408.4 299.4 406.6C302.2 403.8 303.8 400.3 304.3 396.4C305.2 389.5 302 382.3 295.9 378.8C269.6 363.6 239.9 354.7 209.5 354.2C211.1 365.8 212.6 377.4 214.2 389C229.7 386.6 245.2 384.1 260.1 378.8C278 372.5 294.4 363 307.8 349.4C316.9 340.1 313.1 323 300 319.8C241.5 305.4 182.3 292.5 124.9 274C108.5 268.7 92.2999 263 76.2999 256.5C74.6999 268.1 73.2 279.7 71.6 291.3C113.2 289.1 154.8 286.9 196.4 284.7C205.2 284.2 212.6 278.3 213.8 269.4C215 260.5 209.6 252.8 201.1 250C138.2 229.1 75.2999 208.2 12.4999 187.4C-5.80006 181.3 -26.0001 175.7 -44.9001 182.6C-50.8001 184.8 -55.5001 188.6 -57.3001 195C-58.9001 200.7 -57.4001 208.2 -52.8001 212.2C-12.3001 247 28.1999 281.7 68.6999 316.5C80.0999 326.3 91.4999 336.1 103 345.9C108.7 336 114.5 326.2 120.2 316.3C72.9999 301.3 23.9999 291.8 -25.4001 288.1C-36.6001 287.3 -48.1001 286.2 -58.1001 292.3C-71.7001 300.6 -75.5001 317.7 -69.8001 332C-61.2 353.7 -48.7001 374.5 -35.0001 393.3C-27.2 403.7 -19.1 414.8 -9.10005 423.6C-3.50005 428.5 2.29995 432.7 9.19995 435.6C12.1999 436.9 15 437.9 18.1999 438.4C24 439.3 28 439.1 33.8 438.3C37.6999 437.8 42.5999 433.5 44.3999 430.2C46.5 426.3 47.8999 420.9 46.1999 416.6C40.8999 403.7 35.3 390.9 29.1 378.5C26.2 372.7 23.2 367 20.1 361.3C16.8 355.2 13.3999 349.2 8.59995 344.1C2.19994 337.4 -7.80005 332.8 -17.1001 335.7C-23.6001 337.7 -30.4001 342.8 -32.0001 349.7C-32.9001 353.6 -32.8001 357.7 -32.3001 361.6C-30.9001 374.1 -27.1 386 -19.7 396.2C-12.7 405.8 -4.50005 413.6 5.29995 420.3C15.5 427.3 27 432.3 38.3 437C61.6 446.7 86.3 451.7 111.3 454.6C138.1 457.7 165.1 457.5 192.1 456.8C201.3 456.5 210.2 448.8 209.8 439.1C209.4 429.6 202 421.3 192.1 421.4C122.5 422.2 52.9 421.8 -16.7 420.2C-36.5 419.8 -56.2001 419.2 -76 418.6C-74.4 430.2 -72.9 441.8 -71.3 453.4C-6.70005 441 58.1 428.9 122.6 416C138.6 412.8 154.7 406.7 165.1 393.5C167.6 390.3 169.4 387.5 170 383.3C170.5 379.8 170.2 375 167.9 372C163.5 366.3 159.1 361.5 152.8 357.8C148.1 355 142.8 353 137.5 351.7C127 349.1 116 348 105.3 346.4C80.4999 342.8 55.6 339.8 30.6 337.4C17.2 336.1 3.79995 335.1 -9.70005 334.2C-18.5001 333.6 -26.0001 341.4 -27.1001 349.5C-28.2 357.3 -23.1001 367.6 -14.4001 368.9C45.5999 377.9 105.7 387 165.1 399.7C181.8 403.3 198.5 407.1 215.1 411.3C216.7 399.7 218.2 388.1 219.8 376.5C186.5 375.9 153.3 373.4 120.3 369C121.9 369.2 123.4 369.4 125 369.6C78.5999 363.4 32.8 353.4 -12.1001 340C-12.1001 351.4 -12.1001 362.7 -12.1001 374.1C37.1 353.6 91.3 353.2 141.7 336.9C157.2 331.9 172.5 325.4 186.6 317.1C192.7 313.5 196 306.4 195 299.5C194.1 292.4 189.1 286.9 182.3 284.8C133.1 269.3 80.9999 262.4 29.3999 265.2C21.8999 265.6 14.0999 270.4 12.2999 278.2C10.6 285.7 13.2999 294.4 20.3999 298.2C62.7999 320.8 108.9 334.5 155.8 343.8C168.6 346.4 181.4 348.6 194.3 350.8C195.9 339.2 197.4 327.6 199 316C153.2 312.3 107.3 310.5 61.3999 310.8C49.3999 310.9 41.9 322 44.2999 333.2C48.1 350.7 56.1999 367.5 68.6999 380.4C75.0999 387.1 87.3 387.4 93.6999 380.4C100.3 373.4 100.6 362.7 93.6999 355.6Z" fill="#C6ECAC"/>
</svg>
