<svg width="360" height="582" viewBox="0 0 360 582" fill="none" xmlns="http://www.w3.org/2000/svg">
<path d="M409.765 382.694C408.557 383.902 407.348 385.01 406.04 386.016C403.623 388.03 406.744 385.916 407.046 385.211C406.845 385.614 405.133 386.621 404.731 386.923C401.912 388.835 398.891 390.648 395.871 392.158C395.166 392.561 394.361 392.863 393.555 393.265C392.951 393.567 390.031 394.776 392.85 393.567C395.67 392.359 392.75 393.567 392.146 393.869C391.139 394.272 390.233 394.574 389.226 394.977C385.501 396.286 381.776 397.293 377.95 398.098C385.501 403.837 392.951 409.576 400.502 415.314C400.2 369.102 401.912 322.89 405.737 276.779C406.04 272.651 403.523 266.912 400.502 264.194C397.582 261.475 394.26 259.864 390.233 259.26C382.279 258.153 372.11 263.288 370.701 272.047C363.15 317.252 353.887 362.558 336.872 405.347C336.268 406.958 335.564 408.569 334.959 410.18C334.758 410.683 334.557 411.287 334.255 411.791C333.449 413.905 335.765 408.267 334.456 411.287C333.147 414.308 331.838 417.328 330.429 420.348C327.509 426.59 324.489 432.732 321.267 438.773C332.342 441.793 343.417 444.814 354.491 447.733C353.082 421.657 354.089 395.581 357.612 369.706C357.411 371.317 357.21 372.827 357.008 374.438C360.331 350.275 365.667 326.515 373.017 303.258C362.143 304.667 351.27 306.077 340.497 307.486C343.92 313.426 347.041 319.467 349.86 325.709C350.364 326.917 352.377 332.052 350.464 326.917C351.068 328.427 351.672 329.938 352.276 331.448C353.485 334.67 354.693 337.791 355.8 341.113C360.029 353.598 363.251 366.384 365.969 379.271C371.305 404.743 374.728 430.517 380.668 455.788C384.091 470.487 388.421 484.985 394.26 498.979C395.77 502.705 397.381 505.725 400.603 508.242C403.623 510.558 407.449 512.269 411.376 512.068C419.329 511.665 426.176 506.732 428.592 498.979C447.117 437.162 458.997 373.431 464.031 309.198C465.441 291.478 466.246 273.859 466.548 256.139C466.75 247.279 459.601 239.829 451.144 238.621C442.586 237.514 433.827 242.749 431.612 251.407C416.611 310.809 406.14 371.216 396.676 431.725C394.059 448.639 391.542 465.554 388.924 482.367C400.603 483.978 412.282 485.488 423.961 487.099C426.075 454.68 429.297 422.362 433.626 390.144C433.425 391.755 433.223 393.265 433.022 394.876C434.733 381.889 436.646 369.002 438.761 356.114C439.163 353.799 439.566 351.483 440.069 349.268C440.573 346.953 441.58 344.738 442.083 342.523C440.875 345.442 440.573 345.946 441.378 344.335C441.68 343.832 441.882 343.227 442.184 342.724C442.788 341.617 443.392 340.61 444.097 339.603C445.204 338.093 444.801 338.596 442.989 341.013C443.392 340.509 443.795 340.106 444.298 339.603C445.204 338.697 448.829 335.777 444.399 339.1C437.25 338.193 430.001 337.287 422.853 336.281C425.269 338.193 428.189 340.509 429.8 343.127C429.699 343.026 427.182 339.402 428.693 341.717C429.095 342.321 429.498 343.026 429.901 343.63C430.807 345.04 431.512 346.55 432.216 348.06C433.727 351.08 430.807 344.536 431.713 346.651C432.015 347.355 432.216 348.06 432.518 348.765C432.921 349.973 433.425 351.282 433.727 352.591C434.633 355.611 435.337 358.631 435.941 361.652C439.063 376.855 441.882 392.158 444.801 407.361C450.943 439.478 457.185 471.594 463.326 503.711C466.85 522.035 470.374 540.258 473.898 558.582C475.609 567.24 485.275 572.476 493.43 571.368C502.29 570.16 508.632 562.811 508.834 553.85C511.049 483.777 512.156 413.703 512.056 343.63C512.056 323.696 511.854 303.862 511.653 283.927C499.773 283.927 487.892 283.927 476.012 283.927C476.818 313.225 476.918 342.623 472.992 371.72C473.193 370.109 473.394 368.599 473.596 366.988C470.777 387.728 465.843 408.267 457.99 427.698C456.38 431.826 459.098 425.181 457.89 428.101C457.386 429.309 456.883 430.517 456.279 431.725C455.071 434.343 453.863 436.86 452.554 439.377C450.439 443.605 448.224 447.733 445.607 451.76C444.6 453.371 443.492 454.882 442.486 456.392C440.371 459.311 444.801 453.573 442.989 455.687C442.284 456.492 441.58 457.399 440.875 458.204C438.257 461.224 435.438 463.943 432.418 466.56C432.015 466.862 431.512 467.366 431.109 467.668C431.411 467.567 434.633 465.05 432.619 466.46C431.512 467.165 430.505 467.97 429.397 468.675C427.384 469.883 425.37 471.091 423.256 472.098C419.833 473.709 427.082 470.688 423.457 471.997C422.35 472.4 421.242 472.803 420.034 473.105C417.517 473.809 415 474.413 412.382 474.816C413.993 474.615 415.503 474.413 417.114 474.212C414.195 474.615 411.376 474.716 408.456 474.716C412.684 476.427 416.812 478.239 421.041 479.951C422.148 481.058 422.954 482.267 423.356 483.777C423.961 485.488 424.061 485.79 423.759 484.582C423.961 486.193 424.162 487.703 424.363 489.314C424.263 488.811 424.263 488.408 424.363 487.905C424.162 489.515 423.961 491.026 423.759 492.637C423.86 492.234 424.061 491.73 424.061 491.227C422.752 494.147 422.35 494.952 423.155 493.744C423.659 493.039 423.457 493.241 422.45 494.549C420.437 497.066 423.155 493.945 423.86 493.341C426.276 491.227 423.155 493.341 422.954 493.945C423.054 493.643 424.263 493.039 424.565 492.838C425.873 491.932 427.283 491.227 428.693 490.422C434.532 487.099 440.371 483.978 446.312 480.958C452.151 477.937 458.091 475.118 464.031 472.299C467.253 470.789 470.475 469.379 473.696 467.97C475.106 467.366 476.616 466.762 478.026 466.158C477.321 466.46 476.616 466.762 475.911 467.064C476.415 466.862 477.019 466.56 477.522 466.359C478.428 465.956 479.335 465.654 480.241 465.252C472.891 461.124 465.642 456.996 458.292 452.767C458.292 453.069 458.393 453.371 458.393 453.673C458.192 452.063 457.99 450.552 457.789 448.941C457.99 450.754 457.89 452.465 457.688 454.277C457.89 452.667 458.091 451.156 458.292 449.546C458.091 450.754 457.89 451.861 457.588 453.069C457.386 453.673 457.286 454.177 457.084 454.781C456.48 456.492 456.682 455.888 457.89 453.069C456.682 454.882 455.876 457.097 454.567 458.909C454.165 459.412 453.762 460.016 453.46 460.52C455.272 458.305 455.574 457.902 454.366 459.311C453.46 460.318 452.554 461.426 451.648 462.433C449.936 464.245 448.224 466.057 446.412 467.769C442.486 471.393 438.358 474.816 434.129 478.139C432.619 479.246 433.022 479.045 435.237 477.333C434.633 477.736 434.129 478.239 433.525 478.642C432.518 479.347 431.512 480.152 430.505 480.857C428.29 482.468 426.176 483.978 423.961 485.589C414.899 491.932 405.536 497.671 395.871 503.007C390.938 505.725 385.904 508.343 380.87 510.86C378.554 512.068 376.138 513.075 373.721 514.283C372.01 515.088 372.412 514.887 375.03 513.679C374.325 513.981 373.721 514.182 373.016 514.383C371.607 514.786 370.298 515.088 368.889 515.29C370.5 515.088 372.01 514.887 373.621 514.685C372.211 514.786 370.902 514.786 369.493 514.585C371.104 514.786 372.614 514.988 374.225 515.189C374.124 515.189 371.808 514.786 371.808 514.585C371.808 514.383 376.44 517.001 373.721 515.29C372.01 514.182 377.144 518.511 375.433 516.598C373.822 514.786 375.332 515.39 376.44 518.109C376.238 517.605 375.836 517.102 375.634 516.598C374.627 514.887 377.245 521.129 376.54 518.612C376.138 517.303 375.836 515.994 375.634 514.585C375.836 516.196 376.037 517.706 376.238 519.317C375.433 511.464 376.842 503.007 377.547 495.154C378.353 485.891 379.359 476.628 380.668 467.366C380.467 468.977 380.265 470.487 380.064 472.098C384.997 436.054 393.052 400.414 404.127 365.679C406.442 358.43 402.717 349.168 395.972 345.543C389.327 342.019 379.661 342.221 374.426 348.362C339.389 389.138 304.453 429.913 269.417 470.688C259.55 482.166 249.684 493.643 239.817 505.222C249.784 507.839 259.651 510.457 269.618 513.075C268.511 510.155 267.806 507.235 267.403 504.215C267.605 505.826 267.806 507.336 268.007 508.947C267.504 504.416 267.605 499.986 268.108 495.456C267.907 497.066 267.705 498.577 267.504 500.188C269.517 485.992 275.055 472.4 279.485 458.909C284.217 444.713 288.848 430.618 293.58 416.422C302.943 388.332 312.206 360.242 321.569 332.052C326.905 316.145 332.14 300.237 337.476 284.229C325.798 282.618 314.119 281.108 302.44 279.497C304.655 321.38 306.87 363.263 309.085 405.146C309.588 414.005 315.528 421.456 324.489 422.664C328.315 423.167 332.543 422.664 335.866 420.55C339.993 417.831 342.208 414.408 344.021 409.878C366.674 353.698 380.668 294.7 395.065 236.104C399.294 218.988 403.422 201.873 407.65 184.757C397.683 187.375 387.816 189.993 377.849 192.61C380.87 195.53 383.286 199.054 386.206 201.973C382.782 198.55 384.997 200.463 385.904 201.571C386.508 202.376 387.112 203.182 387.615 203.987C388.723 205.598 389.729 207.309 390.736 209.021C392.75 212.343 394.461 215.867 396.072 219.391C396.576 220.499 397.784 223.821 395.77 218.686C396.072 219.592 396.475 220.499 396.878 221.405C397.582 223.217 398.187 225.029 398.791 226.841C403.623 241.239 406.14 256.24 408.456 271.241C409.06 275.168 413.188 280.101 416.611 281.913C420.235 283.826 423.961 284.531 427.988 284.028C436.747 282.819 443.291 275.47 443.392 266.509C443.493 260.67 443.895 254.83 444.701 248.991C444.499 250.602 444.298 252.112 444.097 253.723C445.506 243.454 447.922 233.285 451.245 223.418C452.151 220.901 453.057 218.485 453.963 215.968C454.165 215.465 454.366 214.961 454.567 214.357C455.071 213.149 454.869 213.652 453.863 215.968C454.467 215.666 455.373 212.444 455.775 211.739C458.091 206.806 460.608 202.074 463.326 197.342C452.453 195.933 441.58 194.523 430.807 193.114C431.008 194.624 431.31 196.033 431.512 197.544C431.31 195.933 431.109 194.422 430.908 192.812C432.418 204.289 432.317 215.867 430.807 227.345C431.008 225.734 431.21 224.224 431.411 222.613C430.404 229.459 428.995 236.305 426.981 242.95C425.974 246.273 424.867 249.494 423.659 252.716C423.357 253.421 423.155 254.126 422.853 254.83C422.652 255.334 422.45 255.938 422.249 256.441C422.551 255.737 422.853 255.032 423.155 254.327C422.249 256.039 421.544 257.851 420.739 259.663C431.612 261.073 442.486 262.482 453.258 263.892C451.849 257.851 450.741 251.81 449.835 245.769C450.037 247.38 450.238 248.89 450.439 250.501C448.224 233.788 448.224 216.975 450.339 200.262C450.137 201.873 449.936 203.383 449.735 204.994C451.849 189.59 455.675 174.488 461.212 159.99C462.722 156.063 461.615 149.721 459.4 146.297C457.286 142.975 454.567 140.559 450.842 139.048C443.19 135.827 432.619 138.344 428.592 146.297C426.478 150.526 424.162 154.553 421.544 158.48C420.235 160.393 418.927 162.306 417.517 164.118C416.812 165.024 415.403 166.534 418.625 162.708C418.222 163.212 417.819 163.715 417.416 164.218C416.611 165.225 415.806 166.131 415 167.138C408.456 174.891 401.207 182.039 393.455 188.684C391.542 190.395 389.629 192.006 387.615 193.617C386.709 194.422 385.803 195.127 384.796 195.832C384.293 196.235 383.689 196.738 383.185 197.141C382.682 197.544 380.165 199.456 382.581 197.644C384.997 195.832 381.675 198.349 381.071 198.752C379.963 199.557 378.856 200.463 377.748 201.269C375.534 202.98 373.218 204.591 370.902 206.202C361.841 212.646 352.679 218.686 343.316 224.727C338.181 228.05 333.047 231.271 327.912 234.493C325.294 236.104 322.576 237.614 319.857 239.024C318.448 239.728 317.743 239.124 321.166 238.52C320.462 238.621 319.857 239.024 319.153 239.225C317.441 239.728 315.73 240.131 314.018 240.433C315.629 240.232 317.139 240.03 318.75 239.829C316.636 240.03 314.622 240.03 312.508 239.829C314.119 240.03 315.629 240.232 317.24 240.433C316.535 240.333 315.83 240.131 315.126 240.03C319.253 244.158 323.381 248.286 327.61 252.515C325.596 243.856 323.885 234.996 322.677 226.137C322.878 227.748 323.079 229.258 323.281 230.869C320.864 212.847 320.26 194.724 321.569 176.602C322.173 167.239 312.911 158.379 303.749 158.782C293.379 159.285 286.834 166.635 285.928 176.602C284.619 191.603 292.07 206.605 302.843 216.773C307.474 221.203 313.917 223.116 320.16 221.304C326.502 219.592 330.429 214.861 332.644 208.82C334.758 202.98 337.074 197.141 339.389 191.301C340.598 188.382 341.806 185.462 343.014 182.542C342.712 183.448 341.705 185.663 342.611 183.549C342.913 182.844 343.215 182.139 343.517 181.334C344.222 179.723 344.927 178.112 345.632 176.501C350.867 164.722 356.404 153.043 362.344 141.565C352.075 141.565 341.806 141.565 331.536 141.565C342.41 161.5 353.283 181.334 364.157 201.269C367.177 206.705 373.419 210.129 379.561 210.129C385.299 210.129 392.448 206.907 394.965 201.269C402.717 183.851 410.469 166.433 418.121 149.016C421.645 140.961 424.867 132.504 428.995 124.853C429.699 123.644 430.505 122.436 431.21 121.228C432.216 119.517 428.29 124.651 430.102 122.638C430.605 122.034 431.21 121.429 431.713 120.926C433.223 119.517 434.23 119.819 430.505 121.631C431.109 121.329 431.914 120.725 432.518 120.322C434.935 118.711 428.189 121.53 431.21 120.825C432.015 120.624 432.82 120.423 433.626 120.221C432.015 120.423 430.505 120.624 428.894 120.825C430.404 120.624 431.814 120.624 433.324 120.725C428.189 117.805 423.054 114.885 417.92 111.865C420.437 115.288 422.853 118.912 424.967 122.638C425.974 124.349 426.88 126.161 427.786 127.974C428.29 128.98 428.793 129.887 429.196 130.893C429.901 132.303 430.203 134.921 429.095 130.591C430.001 134.317 431.914 137.941 432.921 141.565C434.029 145.593 434.834 149.721 435.438 153.848C435.237 152.238 435.035 150.727 434.834 149.116C435.539 154.553 435.74 160.091 435.539 165.628C435.136 174.991 443.996 183.851 453.359 183.448C463.427 183.046 470.575 175.595 471.18 165.628C473.294 129.585 475.307 93.5411 477.422 57.4977C465.743 59.1086 454.064 60.6188 442.385 62.2297C443.392 67.3643 444.197 72.5997 444.902 77.7344C444.701 76.1235 444.499 74.6133 444.298 73.0024C446.513 89.7153 447.117 106.63 446.11 123.544C445.707 130.994 451.95 139.048 459.199 140.76C462.32 141.465 465.541 141.465 468.663 140.76C472.488 139.854 477.623 136.229 479.335 132.605C492.121 104.817 500.175 76.0228 502.994 45.5168C504.203 32.3278 486.886 22.9644 476.214 30.1127C458.796 41.8923 442.083 54.9807 426.78 69.4786C435.136 69.4786 443.593 69.4786 451.95 69.4786C450.943 68.4718 449.936 67.5657 448.929 66.5589C448.325 65.9548 447.721 65.2501 447.218 64.646C446.815 64.1426 445.305 62.2297 447.016 64.4446C448.829 66.7602 446.211 63.3371 445.808 62.6324C445.003 61.4242 444.298 60.1154 443.593 58.9072C443.291 58.4038 441.68 55.9875 441.882 55.4841C441.882 55.5848 443.493 59.612 442.586 57.095C442.385 56.4909 442.184 55.8868 441.982 55.2827C441.076 52.665 440.573 49.9466 440.17 47.2283C440.371 48.8392 440.573 50.3494 440.774 51.9603C440.371 48.3358 440.371 44.7114 440.875 41.0868C440.673 42.6977 440.472 44.2079 440.271 45.8188C440.472 44.6106 440.673 43.4025 440.976 42.1943C442.989 33.4352 439.063 24.676 430.706 21.1522C422.048 17.5278 413.792 21.1523 408.456 28.4012C387.716 56.9943 367.781 86.1915 348.954 116.093C359.827 117.503 370.701 118.912 381.474 120.322C377.547 110.254 374.728 99.7833 373.218 89.0105C373.419 90.6214 373.621 92.1316 373.822 93.7425C372.412 82.7684 372.412 71.7942 373.822 60.8201C373.621 62.431 373.419 63.9412 373.218 65.552C373.52 63.2364 373.923 61.0215 374.325 58.8065C375.231 53.9739 375.03 49.4433 372.513 45.1141C370.399 41.3889 366.07 37.8651 361.841 36.959C352.579 34.8447 342.41 39.778 339.893 49.4433C338.886 53.3698 337.577 57.1957 336.168 60.9208C334.96 64.2433 337.779 57.397 336.369 60.4174C335.966 61.3235 335.463 62.3303 335.06 63.2364C334.053 65.25 333.047 67.2637 331.838 69.1766C329.724 72.9017 327.308 76.4255 324.791 79.8486C323.784 81.2582 327.409 76.5262 324.892 79.6473C324.187 80.5534 323.482 81.3588 322.777 82.1643C321.166 83.9765 319.555 85.7888 317.844 87.5003C327.207 88.7085 336.47 89.9166 345.833 91.1248C345.531 90.4201 345.229 89.7153 344.927 88.9098C345.229 89.6146 345.531 90.3194 345.833 91.0241C345.43 89.9166 344.927 88.8092 344.524 87.8023C343.618 85.5874 342.813 83.4731 342.007 81.2582C340.497 77.0296 339.188 72.801 337.879 68.5725C335.463 59.914 333.651 51.1548 332.342 42.1943C332.543 43.8052 332.745 45.3154 332.946 46.9262C332.443 43.2011 332.04 39.3753 331.738 35.6501C331.234 29.2066 328.617 23.6692 322.878 20.2461C317.743 17.2257 309.991 16.7223 304.856 20.2461C288.445 31.7236 274.35 45.0133 262.873 61.3235C273.947 64.3439 285.022 67.3643 296.097 70.284C296.198 69.4786 296.198 68.7738 296.298 67.9684C296.097 69.5793 295.896 71.0895 295.694 72.7004C296.097 70.284 296.701 68.1697 297.507 65.8541C298.312 63.5384 296.701 67.8677 296.6 67.8677C296.5 67.6664 297.205 66.5589 297.305 66.3575C297.909 65.25 298.513 64.1426 299.117 63.1358C299.52 62.5317 299.923 61.9276 300.326 61.4242C301.634 59.4106 299.419 62.8337 299.117 62.9344C300.024 62.431 300.93 60.7195 301.735 59.914C302.641 58.9072 303.648 58.0011 304.655 57.095C305.058 56.6922 305.561 56.2895 306.064 55.8868C306.568 55.3834 308.883 53.6719 306.467 55.5848C303.95 57.4977 307.474 54.9807 308.078 54.4773C309.286 53.6719 310.494 52.8664 311.803 52.1617C313.112 51.4569 314.421 50.7521 315.73 50.148C316.334 49.846 316.938 49.544 317.542 49.3426C319.555 48.4365 313.615 50.8528 316.636 49.7453C322.374 47.631 328.214 46.2215 334.255 45.3154C332.644 45.5168 331.134 45.7181 329.523 45.9195C337.779 44.812 346.135 44.812 354.391 45.9195C352.78 45.7181 351.27 45.5168 349.659 45.3154C353.384 45.8188 357.008 46.5236 360.633 47.5304C362.244 47.9331 363.855 48.4365 365.365 49.0406C366.271 49.3426 367.177 49.7453 368.184 50.0474C371.204 51.1549 364.358 48.3358 367.479 49.7453C364.761 42.9997 362.042 36.3548 359.324 29.6093C359.022 31.3208 359.425 30.4148 360.532 26.9916C361.64 25.0787 363.15 23.4679 365.063 22.3604C361.338 23.6692 367.882 21.5549 366.17 22.0583C364.056 22.6624 361.942 23.1658 359.727 23.4679C361.338 23.2665 362.848 23.0652 364.459 22.8638C309.387 29.5086 253.409 30.9181 197.934 28.6025C182.127 27.8977 166.321 26.891 150.514 25.5821C150.514 37.4623 150.514 49.3426 150.514 61.2228C197.934 56.7929 245.656 54.7793 293.278 54.9807C291.667 43.3018 290.157 31.6229 288.546 19.9441C265.792 24.2733 242.837 27.8977 219.782 31.0188C221.392 30.8175 222.903 30.6161 224.514 30.4148C161.991 38.7712 99.0663 43.2011 36.1413 46.7249C18.321 47.7316 0.500657 48.6378 -17.3197 49.6446C-26.5823 50.148 -35.5428 57.4977 -35.1401 67.465C-34.7374 77.1303 -27.2871 85.1846 -17.3197 85.2853C33.8257 85.5874 84.8704 85.9901 136.016 86.2921C150.514 86.3928 165.112 86.4935 179.61 86.5942C176.59 75.5194 173.569 64.4446 170.65 53.3698C168.838 54.1753 167.025 54.9806 165.213 55.7861C164.408 56.1888 163.501 56.4909 162.696 56.8936C167.227 54.578 164.005 56.3902 162.897 56.7929C159.474 58.2024 156.051 59.5113 152.628 60.8201C145.077 63.5384 137.425 66.0554 129.673 68.2704C113.967 72.7003 97.9588 76.0228 81.85 78.2377C83.4609 78.0364 84.9711 77.835 86.582 77.6337C84.2663 77.9357 81.9507 78.2378 79.6351 78.5398C84.7697 81.4595 89.9044 84.3792 95.0391 87.3996C93.5289 85.386 92.2201 83.2717 90.9112 81.1574C90.3071 80.05 89.703 79.0432 89.1997 77.9357C88.8976 77.4323 88.6963 76.8282 88.3942 76.3248C89.5017 79.0432 89.8037 79.8486 89.3003 78.5398C87.6895 74.2106 86.4813 69.982 85.8772 65.3507C86.0786 66.9616 86.2799 68.4718 86.4813 70.0826C85.8772 65.4514 85.8772 60.8201 86.4813 56.2894C86.2799 57.9003 86.0786 59.4105 85.8772 61.0214C86.28 57.7997 86.9847 54.6786 87.8908 51.6582C88.2935 50.3494 89.8037 47.9331 89.703 46.6242C89.703 47.4296 87.8908 50.8528 89.1997 48.0338C89.6024 47.2284 90.0051 46.4229 90.4078 45.6175C91.2133 44.1072 92.0187 42.6977 92.9248 41.1875C93.4282 40.382 93.9316 39.5766 94.5357 38.8718C94.9384 38.2678 96.7507 35.9521 94.8378 38.3684C92.9248 40.7847 94.8377 38.4692 95.2405 37.9658C95.8445 37.261 96.5493 36.4556 97.1534 35.7508C98.4622 34.2406 99.8718 32.8311 101.382 31.5222C92.0187 30.314 82.7561 29.1059 73.3929 27.8978C74.6011 30.3141 75.8092 32.6297 76.9167 35.1467C77.2187 35.8515 77.5208 36.5562 77.8228 37.261C78.6283 39.0733 78.4269 38.6705 77.3194 36.1535C77.1181 36.7576 78.3262 38.7712 78.5276 39.2746C80.3398 44.1073 81.9507 49.1412 83.3602 54.1753C86.0786 64.1425 87.8908 74.3112 89.3003 84.5806C89.099 82.9697 88.8976 81.4595 88.6962 79.8486C90.0051 89.7153 90.9112 99.5819 91.8173 109.449C92.4214 116.697 95.7438 122.738 102.791 125.759C109.738 128.678 116.585 126.765 122.223 122.034C124.941 119.819 127.659 117.503 130.478 115.288C131.787 114.281 133.096 113.174 134.405 112.167C134.606 111.966 137.627 109.65 135.311 111.462C132.995 113.274 135.714 111.16 136.217 110.757C141.956 106.428 147.795 102.099 153.736 97.971C165.817 89.5139 178.201 81.5602 190.886 74.0092C182.127 70.4854 173.469 66.9616 164.71 63.3371C172.865 84.8826 177.496 107.435 180.617 130.189C180.416 128.578 180.214 127.068 180.013 125.457C181.825 139.25 183.134 153.043 184.443 166.836C185.148 174.387 189.477 182.139 197.531 184.052C205.082 185.764 213.841 183.046 217.667 175.897C231.662 149.922 245.556 123.946 259.55 97.8703C250.187 99.0785 240.924 100.287 231.561 101.495C239.213 107.536 246.361 114.18 252.805 121.429C254.315 123.141 255.724 124.853 257.235 126.564C258.04 127.571 260.356 130.994 257.335 126.564C257.939 127.37 258.543 128.175 259.147 128.98C261.866 132.806 264.483 136.733 266.799 140.76C271.229 148.412 280.995 151.432 289.049 148.009C297.104 144.586 301.735 135.625 299.319 126.967C296.701 117.503 291.868 109.247 285.727 101.696C283.411 98.7765 280.794 96.0581 277.874 93.6418C274.451 90.7221 271.229 88.0037 266.698 86.8962C262.47 85.8894 258.241 86.0908 254.113 87.299C247.771 89.1112 242.435 93.8431 239.112 99.3805C236.394 103.911 235.588 108.24 234.783 113.274C233.273 122.638 231.763 132.001 230.353 141.465C229.548 146.297 228.641 151.231 228.239 156.164C227.836 160.292 228.339 164.319 229.044 168.346C230.252 175.696 234.078 183.448 239.918 188.281C244.045 191.704 248.475 194.322 253.711 195.631C257.637 196.537 261.765 197.141 265.692 196.033C270.524 194.724 273.545 191.503 276.666 187.979C283.21 180.428 289.553 172.575 295.594 164.621C307.474 149.116 318.146 132.806 327.409 115.59C317.139 109.549 306.87 103.609 296.6 97.5683C293.983 103.106 291.164 108.542 287.942 113.778C286.331 116.295 284.72 118.812 283.009 121.329C282.102 122.738 281.096 124.047 280.19 125.356C279.283 126.564 275.458 131.397 279.485 126.363C271.128 136.733 262.168 146.398 252.1 155.157C249.583 157.372 247.066 159.487 244.549 161.5C243.844 162.104 243.139 162.608 242.435 163.212C239.716 165.427 245.958 160.594 243.139 162.608C241.629 163.715 240.22 164.823 238.709 165.93C232.87 170.159 226.93 174.085 220.889 177.81C214.647 181.636 208.203 185.261 201.659 188.583C198.437 190.194 195.216 191.805 191.994 193.315C190.182 194.12 188.369 194.926 186.658 195.731C186.054 196.033 185.45 196.235 184.846 196.537C184.242 196.839 183.637 197.04 183.033 197.342C185.752 196.235 186.255 195.933 184.544 196.738C168.233 203.484 151.42 208.92 134.204 212.948C138.734 213.552 143.365 214.156 147.896 214.76C146.789 214.256 145.681 213.35 144.574 212.948C142.862 212.343 147.795 215.364 146.386 214.256C145.077 213.25 145.48 211.739 147.594 215.968C147.393 215.565 147.091 215.163 146.889 214.76C145.681 213.048 147.896 216.874 147.896 217.176C148.097 216.572 147.191 214.558 147.091 213.854C147.292 215.465 147.493 216.975 147.695 218.586C147.493 216.975 147.594 215.364 147.795 213.652C147.594 215.263 147.393 216.773 147.191 218.384C147.393 217.075 147.695 215.767 147.997 214.458C148.299 213.552 149.809 209.424 148.5 212.746C147.191 215.767 148.198 213.552 148.5 212.847C148.903 212.142 149.205 211.437 149.608 210.632C150.413 209.222 151.219 207.712 152.024 206.303C153.736 203.282 155.648 200.262 157.662 197.443C158.568 196.033 159.575 194.624 160.582 193.315C161.085 192.61 161.589 191.905 162.092 191.301C164.307 188.281 159.474 194.624 161.79 191.603C171.254 179.824 182.027 169.353 194.008 160.091C184.04 154.352 174.174 148.512 164.206 142.774C162.394 149.016 160.582 155.157 158.367 161.299C157.863 162.809 157.259 164.218 156.756 165.729C156.454 166.433 156.253 167.037 155.95 167.742C154.742 170.763 157.662 163.816 156.454 166.635C155.145 169.655 153.635 172.676 152.125 175.595C150.614 178.414 148.903 181.133 147.091 183.75C146.587 184.455 146.084 185.16 145.58 185.865C144.372 187.576 148.299 182.442 146.487 184.757C145.379 186.167 144.171 187.476 142.963 188.885C140.647 191.402 138.231 193.718 135.613 195.933C134.606 196.738 131.888 198.45 136.217 195.53C135.412 196.033 134.606 196.637 133.801 197.241C132.19 198.349 130.478 199.456 128.666 200.463C137.425 203.987 146.084 207.511 154.843 211.135C142.157 179.32 132.593 146.398 126.653 112.67C125.444 105.824 118.195 100.79 111.853 99.8839C105.409 98.9778 97.0527 101.998 94.133 108.341C81.7493 135.726 69.265 163.111 56.8814 190.395C67.7548 191.805 78.6283 193.214 89.401 194.624C84.9711 177.408 81.548 159.99 79.2323 142.371C79.4337 143.982 79.635 145.492 79.8364 147.103C76.0106 117.704 75.1045 88.0037 77.2187 58.4038C65.5399 60.0147 53.861 61.5249 42.1821 63.1358C42.9875 66.1561 43.6924 69.0758 44.0951 72.1969C43.8937 70.586 43.6923 69.0759 43.491 67.465C44.095 72.5997 44.0951 77.835 43.3903 82.9697C43.5917 81.3588 43.793 79.8486 43.9944 78.2377C43.4909 81.9629 42.5848 85.4867 41.4773 89.0105C41.1753 89.9166 40.8733 90.8227 40.5713 91.6282C40.2692 92.3329 39.1617 95.0513 40.3699 92.1316C41.6788 89.1112 40.1685 92.4336 39.8665 93.0377C39.4638 93.9438 38.9604 94.7493 38.5577 95.6554C36.7454 98.9778 34.5304 102.099 32.4161 105.22C35.4366 100.891 33.423 103.911 32.6175 104.817C31.9128 105.623 31.3087 106.428 30.6039 107.133C29.1944 108.643 27.6842 110.153 26.1741 111.663C34.5305 111.663 42.9876 111.663 51.344 111.663C49.9345 110.153 48.525 108.643 47.1155 107.032C46.2093 105.925 44.7998 103.206 47.3168 107.435C46.9141 106.73 46.31 106.126 45.8066 105.421C43.5917 102.401 41.6787 99.0785 39.9671 95.756C39.5644 94.8499 39.1617 94.0445 38.759 93.1384C37.4502 90.42 39.9672 96.3601 39.2624 94.3465C38.6584 92.7356 38.0542 91.1248 37.5509 89.5139C36.4434 85.9901 35.7386 82.3656 35.2352 78.6404C35.4366 80.2513 35.6379 81.7615 35.8393 83.3724C35.2352 78.2377 35.2352 73.0023 35.8393 67.8677C35.6379 69.4786 35.4366 70.9888 35.2352 72.5997C35.638 69.6799 36.1413 66.8609 36.9468 64.0418C37.3495 62.733 37.7522 61.3235 38.1549 60.0147C38.3563 59.4105 38.5577 58.8065 38.759 58.2024C39.9672 54.88 36.9468 62.2296 38.457 58.9072C29.0937 60.1154 19.8312 61.3235 10.4679 62.5316C41.1753 87.8023 71.9834 113.174 102.691 138.444C109.537 144.082 116.484 149.922 124.236 154.15C133.197 159.084 142.661 162.003 152.829 162.708C162.797 163.413 173.167 160.896 182.53 157.272C190.987 153.949 199.142 150.123 206.391 144.687C221.493 133.612 234.783 118.409 238.508 99.4812C239.918 92.3329 238.105 85.386 232.165 80.7547C226.225 76.1235 218.976 76.1235 212.432 79.3452C168.133 100.891 124.236 123.242 80.8432 146.599C87.9915 147.506 95.2405 148.412 102.389 149.418C92.0187 137.136 81.548 124.953 71.1779 112.67C68.4596 109.449 62.6201 107.234 58.5929 107.435C53.861 107.636 49.4311 109.247 46.0079 112.67C29.8991 128.376 18.1196 147.707 7.85026 167.541C-3.12387 188.986 -13.8966 210.431 -24.7701 231.976C-13.6953 234.996 -2.62051 238.017 8.45431 240.937C4.72916 191.905 1.10465 142.774 -2.6205 93.7424C-3.12386 86.6948 -3.62728 79.7479 -4.23134 72.7003C-4.73476 66.4581 -5.84218 59.8133 -5.23811 53.4705C-5.43947 55.0813 -5.64088 56.5915 -5.84224 58.2024C-5.74159 57.5983 -5.64088 56.9943 -5.43947 56.3902C-6.74837 59.1085 -6.94966 59.7126 -6.04353 58.001C-7.9565 60.3167 -8.35921 60.8201 -7.15108 59.6119C-9.66805 61.4242 -10.2721 61.8269 -8.76192 60.8201C-7.75514 60.216 -6.54695 59.7127 -5.54018 59.1085C-8.35921 60.216 -8.86256 60.518 -7.05037 59.8132C-6.4463 59.6119 -5.74153 59.4106 -5.13747 59.2092C0.601303 57.397 6.44072 55.9874 12.2801 54.4772C24.8652 51.1548 37.4501 47.7317 50.0351 44.4093C43.2896 41.6909 36.6447 38.9725 29.8992 36.2542C30.2012 36.9589 30.5032 37.6637 30.9059 38.3684C32.1141 40.9861 30.4026 37.3616 30.5033 37.3616C30.6039 37.3616 32.1141 41.6909 32.3155 42.1943C33.423 45.2147 34.3291 48.3358 35.2352 51.4569C36.9468 57.5983 38.1549 63.8405 38.9604 70.1834C38.759 68.5725 38.5577 67.0623 38.3563 65.4514C41.276 87.3996 40.4706 109.851 39.5644 131.9C38.6584 155.359 37.0475 178.817 34.7318 202.175C33.423 215.465 31.812 228.855 30.1005 242.145C30.3018 240.534 30.5033 239.024 30.7046 237.413C26.5767 267.717 21.3414 297.821 14.8978 327.723C26.3754 327.723 37.7522 327.723 49.2297 327.723C40.4705 282.417 31.812 237.211 23.0529 191.905C21.3413 183.247 11.6761 178.012 3.52103 179.119C-5.64083 180.327 -11.1783 187.677 -11.8831 196.637C-17.0177 256.643 -19.6354 316.849 -19.6354 377.056C-19.6354 393.97 -19.4341 410.884 -19.0314 427.698C-18.8299 435.249 -13.6953 443.102 -5.94292 444.914C1.8094 446.726 9.96449 443.706 14.1931 436.759C21.442 424.476 29.2951 412.495 37.4501 400.917C41.6787 394.977 45.9073 389.137 50.3372 383.399C52.6528 380.378 48.3236 385.916 49.9345 384.003C50.5385 383.298 51.0419 382.593 51.646 381.889C52.7535 380.479 53.9616 378.969 55.0691 377.559C57.3848 374.64 59.7004 371.821 62.016 369.001C80.7425 346.449 101.181 324.702 123.33 305.472C124.639 304.365 125.948 303.257 127.257 302.15C127.861 301.647 128.566 301.143 129.069 300.64C125.243 304.164 127.458 301.848 128.465 301.143C131.284 299.029 134.304 297.015 137.325 295.203C140.446 293.29 143.869 291.981 146.99 290.27C142.56 292.686 145.178 291.075 146.487 290.572C147.493 290.169 148.399 289.867 149.406 289.565C151.42 288.961 153.433 288.357 155.548 287.853C151.017 287.249 146.386 286.645 141.855 286.041C145.58 288.055 149.306 290.169 153.031 292.183C151.823 282.819 150.614 273.557 149.406 264.194C153.635 260.972 149.91 263.791 148.802 264.596C147.695 265.402 146.587 266.308 145.48 267.113C143.265 268.825 140.949 270.536 138.634 272.147C133.902 275.571 129.069 278.994 124.236 282.316C114.571 288.961 104.704 295.304 94.6363 301.445C74.1983 313.93 53.1562 325.306 31.51 335.576C25.3686 338.495 19.1264 341.415 12.9849 344.134C9.86385 345.543 6.74276 346.953 3.52102 348.261C2.81624 348.563 2.11147 348.866 1.4067 349.168C0.90328 349.369 0.399923 349.57 -0.204142 349.872C0.500631 349.57 1.20534 349.268 1.91012 348.966C0.601278 348.866 -2.21775 350.678 -3.42594 351.181C3.31966 353.9 9.9645 356.618 16.71 359.336C16.2067 358.732 14.2938 355.007 15.6026 358.027C16.8107 361.048 15.6026 357.323 15.4013 356.618C15.6026 358.229 15.8039 359.739 16.0053 361.35C15.8039 359.84 15.8039 358.329 16.0053 356.819C15.8039 358.43 15.6026 359.94 15.4013 361.551C15.5019 360.645 15.7033 359.739 16.0053 358.833C16.2067 358.229 16.408 357.625 16.6094 357.021C16.3074 357.826 15.9047 358.631 15.6026 359.437C16.3074 357.423 17.7168 355.309 18.8243 353.497C19.4284 352.591 20.0326 351.785 20.6366 350.879C21.5427 349.47 17.9182 354.202 20.5359 351.08C21.9454 349.369 23.3549 347.758 24.7645 346.147C30.7046 339.402 36.846 332.958 43.1889 326.716C49.5318 320.474 56.1766 314.332 63.0229 308.493C66.4459 305.472 69.9698 302.653 73.4936 299.734C74.5004 298.928 75.6078 298.022 76.6146 297.217C77.118 296.814 80.1384 294.196 78.0241 296.109C75.8092 298.022 78.9303 295.404 79.4336 295.002C80.5411 294.196 81.548 293.391 82.6554 292.585C78.1248 293.189 73.4936 293.794 68.9629 294.398C72.7888 295.706 76.6146 296.915 80.4405 298.223C76.9167 289.464 73.3929 280.806 69.7684 272.047C56.2773 301.747 42.8869 331.448 29.3957 361.148C26.9794 366.484 26.174 371.418 28.4896 376.955C30.5033 381.687 34.7318 386.318 40.0678 387.225C50.3372 389.037 59.5997 387.728 68.9629 383.097C75.3058 379.976 80.9439 375.143 85.8772 370.109C96.65 359.236 107.221 348.161 117.994 337.187C139.842 314.836 161.689 292.384 183.436 270.033C195.719 257.448 208.002 244.863 220.285 232.278C210.318 226.539 200.451 220.7 190.484 214.961C190.081 217.277 189.578 219.592 188.873 221.807C188.571 222.814 188.168 223.922 187.765 224.928C187.564 225.432 187.262 225.935 187.161 226.439C187.363 225.633 188.671 223.116 187.665 225.231C185.45 229.862 183.033 234.392 180.315 238.722C174.878 247.783 169.14 256.743 163.602 265.805C152.125 284.33 140.748 302.754 129.27 321.279C122.726 331.851 116.182 342.422 109.638 352.993C104.704 360.947 107.624 372.928 115.981 377.358C124.941 382.09 134.808 379.271 140.345 371.015C147.091 360.947 154.138 351.181 161.387 341.415C162.193 340.308 162.998 339.301 163.803 338.193C164.307 337.589 164.71 336.985 165.213 336.381C165.616 335.878 167.025 333.764 165.616 335.878C164.106 338.294 166.623 334.569 167.025 334.066C168.233 332.555 169.442 331.045 170.549 329.535C174.274 324.904 177.999 320.272 181.825 315.641C189.678 306.177 197.733 297.015 206.089 287.954C213.237 280.202 220.386 272.55 228.44 265.805C229.346 264.999 230.957 264.294 227.031 266.912C227.635 266.509 228.239 266.006 228.843 265.503C229.95 264.697 231.158 263.892 232.266 263.187C234.582 261.677 236.998 260.267 239.515 259.059C239.918 258.858 240.32 258.656 240.824 258.455C243.945 257.045 239.716 258.656 239.616 258.958C239.716 258.455 243.039 257.75 243.643 257.549C246.562 256.643 249.583 256.039 252.603 255.535C250.992 255.737 249.482 255.938 247.871 256.139C250.187 255.837 252.603 255.737 254.919 255.737C249.18 251.407 243.441 246.977 237.703 242.648C238.709 246.474 239.414 250.401 239.918 254.327C239.716 252.716 239.515 251.206 239.314 249.595C240.924 262.986 240.119 276.477 238.307 289.766C238.508 288.156 238.709 286.645 238.911 285.034C235.387 311.211 230.252 337.287 225.52 363.363C220.688 389.44 215.754 415.415 210.418 441.491C207.398 456.19 204.378 470.89 201.256 485.589C212.935 487.2 224.614 488.71 236.293 490.321C231.964 424.678 229.548 358.934 228.943 293.19C228.843 274.564 228.843 255.938 228.943 237.413C217.869 240.433 206.794 243.454 195.719 246.373C201.558 257.75 207.096 269.127 212.331 280.806C214.748 286.243 217.164 291.579 219.48 297.116C219.782 297.821 220.084 298.526 220.386 299.331C219.379 296.915 219.177 296.512 219.983 298.324C220.587 299.734 221.191 301.244 221.795 302.653C223.003 305.573 224.212 308.493 225.319 311.413C234.38 334.166 242.334 357.423 249.079 380.982C256.429 373.633 263.678 366.384 271.028 359.034C269.92 358.732 268.913 358.329 267.806 357.927C267.303 357.725 266.799 357.524 266.296 357.323C267.202 357.725 268.108 358.128 269.014 358.531C267.504 358.43 265.289 356.719 263.98 356.014C260.758 354.202 257.839 352.087 254.818 349.973C260.154 353.799 254.919 349.973 253.61 348.866C252.201 347.657 250.892 346.449 249.583 345.342C246.764 342.825 244.045 340.308 241.327 337.791C235.085 332.253 228.641 326.817 221.392 322.689C212.231 317.554 202.666 314.936 192.195 314.03C183.335 313.225 173.368 322.89 174.375 331.851C179.308 377.157 184.846 422.463 190.886 467.567C192.699 481.461 194.612 495.355 196.524 509.249C208.002 506.128 219.379 502.906 230.856 499.785C220.184 454.781 209.512 409.676 198.739 364.672C197.028 357.423 189.074 351.282 181.523 351.584C173.368 351.987 166.925 356.92 164.307 364.672C150.916 404.642 137.627 444.713 124.236 484.683C134.204 482.065 144.07 479.447 154.038 476.83C149.507 472.903 145.278 468.675 141.553 464.144C141.15 463.641 140.748 463.238 140.446 462.735C138.331 460.117 142.661 465.755 141.352 463.842C140.546 462.735 139.741 461.728 139.036 460.62C137.425 458.204 135.814 455.788 134.405 453.17C131.787 448.539 129.472 443.807 127.257 438.873C126.351 436.759 129.069 443.404 127.861 440.384C127.659 439.88 127.458 439.276 127.257 438.773C126.753 437.565 126.351 436.356 125.847 435.148C124.941 432.631 124.035 430.014 123.129 427.497C115.779 405.649 110.544 383.298 100.778 362.457C94.8377 349.872 86.884 338.193 77.2187 328.125C67.7548 318.259 51.1426 323.393 47.4174 335.978C33.3223 386.218 23.5563 438.471 18.9251 491.126C18.5223 495.254 21.14 500.993 24.1604 503.711C27.0801 506.43 30.4025 508.041 34.4297 508.645C42.3834 509.752 52.6528 504.617 53.9616 495.858C61.0092 449.848 67.1507 403.635 72.5874 357.423C77.8228 312.419 82.152 267.315 85.7765 222.21C87.7901 196.839 89.5017 171.367 91.0119 145.895C79.333 147.506 67.6541 149.016 55.9753 150.627C78.4269 213.25 99.5697 276.275 119.303 339.804C124.84 357.725 130.378 375.747 135.714 393.769C138.533 403.233 148.097 408.468 157.662 406.253C167.227 404.038 175.482 397.293 179.912 388.533C183.94 380.58 186.154 371.72 188.873 363.263C194.511 345.845 200.048 328.428 205.686 311.01C216.862 276.376 227.937 241.742 239.112 207.108C242.233 197.443 245.354 187.677 248.475 178.012C249.281 175.595 249.986 173.28 250.791 170.863C251.194 169.655 251.596 168.447 251.899 167.34C252.704 164.722 253.308 165.427 251.294 168.346C251.697 167.742 252.1 166.937 252.402 166.333C253.912 163.614 249.583 169.454 251.596 167.44C253.912 165.225 247.771 169.756 250.489 168.246C252.1 167.44 251.395 167.642 248.375 169.051C248.878 168.85 249.382 168.749 249.885 168.749C248.274 168.95 246.764 169.152 245.153 169.353C246.059 169.252 246.764 169.353 247.67 169.454C246.059 169.252 244.549 169.051 242.938 168.85C243.24 168.95 243.542 168.95 243.844 169.051C239.716 164.923 235.588 160.795 231.36 156.567C231.662 158.077 231.863 159.587 232.065 161.097C231.863 159.487 231.662 157.976 231.46 156.365C232.669 165.829 232.467 175.193 231.259 184.656C231.46 183.046 231.662 181.535 231.863 179.925C230.454 189.892 228.037 199.658 224.816 209.122C223.205 213.954 221.392 218.787 219.58 223.519C219.077 224.828 218.573 226.036 218.07 227.345C217.869 227.848 217.567 228.452 217.365 228.956C217.365 229.056 218.875 225.533 218.07 227.244C217.063 229.459 216.157 231.674 215.15 233.99C207.599 250.803 198.941 267.113 189.376 282.819C184.342 290.975 179.107 299.029 173.569 306.882C170.851 310.808 168.032 314.634 165.213 318.46C163.904 320.272 162.495 321.984 161.186 323.796C161.085 323.897 163.501 320.876 162.293 322.387C161.991 322.789 161.589 323.293 161.286 323.696C160.38 324.904 159.474 326.011 158.568 327.219C146.285 342.623 132.995 357.222 119.202 371.317C105.006 385.714 90.4078 399.709 76.7153 414.61C69.3657 422.664 62.2174 430.819 55.8746 439.679C49.9344 447.935 44.5984 457.6 42.8869 467.668C34.7318 516.598 92.1193 531.7 128.465 540.661C169.744 550.83 212.331 556.367 254.919 557.374C260.154 557.474 265.289 557.575 270.524 557.575C279.888 557.575 288.747 549.42 288.345 539.755C287.942 529.888 280.492 522.236 270.524 521.934C225.722 520.726 180.919 519.82 136.016 519.015C91.2132 518.31 46.31 517.807 1.50739 517.504C-23.8639 517.404 -49.1346 517.303 -74.506 517.303C-72.8951 528.982 -71.3849 540.661 -69.774 552.34C-63.4312 551.333 -57.0884 550.326 -50.6449 549.521C-52.2557 549.722 -53.7659 549.923 -55.3768 550.125C4.72919 542.07 65.6405 540.661 126.149 537.943C187.363 535.224 248.576 532.909 309.89 530.996C327.106 530.492 344.222 529.989 361.438 529.485C376.842 529.083 392.246 528.277 407.55 530.291C405.939 530.09 404.429 529.888 402.818 529.687C406.845 530.291 410.872 530.996 414.799 532.103C416.712 532.607 418.625 533.211 420.437 533.915C421.142 534.117 423.86 535.325 421.041 534.117C417.92 532.808 421.846 534.62 422.35 534.821C425.37 523.747 428.39 512.672 431.31 501.597C374.124 505.725 316.535 505.322 259.449 500.288C243.441 498.879 227.433 497.066 211.526 494.952C213.137 495.154 214.647 495.355 216.258 495.556C205.988 494.147 195.618 492.637 185.349 490.925C189.678 496.664 194.108 502.402 198.437 508.141C198.437 507.436 198.437 506.732 198.538 505.926C198.337 507.537 198.135 509.047 197.934 510.658C198.035 509.853 198.337 509.047 198.437 508.242C199.142 504.819 196.323 511.967 197.934 509.45C198.337 508.846 198.739 508.141 199.142 507.537C200.753 504.919 196.222 510.759 198.236 508.645C199.646 507.235 201.055 506.027 202.465 504.617C198.941 508.041 200.451 506.228 201.76 505.322C202.565 504.819 203.27 504.315 204.075 503.812C205.988 502.604 208.002 501.597 210.016 500.59C210.922 500.188 211.828 499.785 212.734 499.382C215.956 497.872 209.109 500.792 212.13 499.583C216.358 497.973 220.587 496.563 224.916 495.254C243.24 489.817 262.571 485.186 276.968 471.896C282.505 466.762 283.915 456.694 279.787 450.351C278.176 447.733 275.961 445.619 273.444 444.008C269.215 441.29 264.483 441.592 259.752 442.196C236.394 445.418 213.137 450.351 190.484 456.895C179.61 460.016 168.838 463.641 158.266 467.567C147.594 471.594 137.123 476.326 125.746 478.139C127.357 477.937 128.868 477.736 130.478 477.535C126.552 478.038 122.625 478.139 118.598 477.635C120.209 477.837 121.719 478.038 123.33 478.239C121.417 477.937 119.504 477.535 117.591 476.83C114.269 475.722 118.095 477.434 118.598 477.333C118.296 477.434 116.283 476.125 116.081 475.924C115.376 475.521 114.269 475.018 113.665 474.313C114.269 475.118 116.887 476.93 114.672 475.018C113.363 473.91 112.155 472.702 111.047 471.494C105.51 465.755 100.476 459.412 95.2404 453.371C83.6622 439.88 71.9834 426.389 60.4051 412.898C52.5521 403.837 38.1549 407.461 32.4161 416.522C15.5019 442.8 -1.3117 469.077 -18.2259 495.456C-8.86266 494.247 0.399849 493.039 9.76313 491.831C7.14545 489.314 4.62849 486.696 2.31281 483.877C1.80946 483.374 1.40675 482.77 1.00404 482.266C-1.31164 479.447 2.71558 484.683 1.50739 482.971C0.500619 481.562 -0.506217 480.152 -1.51299 478.642C-3.32525 475.924 -4.93615 473.105 -6.34569 470.286C-7.05047 468.977 -9.06402 463.741 -7.05041 469.077C-7.65447 467.567 -8.25853 466.057 -8.76195 464.446C-11.7823 455.687 -21.1456 448.941 -30.7102 451.962C-40.2748 455.083 -45.3088 464.144 -43.1945 473.91C-39.0666 492.133 -33.8313 510.658 -23.6626 526.566C-10.7756 546.802 8.65564 560.696 31.51 567.744C55.0691 574.993 80.5411 575.395 105.107 575.798C131.787 576.302 158.467 576.704 185.148 577.208C238.709 578.315 292.473 579.221 346.236 580.127C372.815 580.631 399.294 581.034 425.873 581.134C452.151 581.336 478.73 582.04 504.907 579.926C519.405 578.718 533.903 576.805 547.294 570.865C553.938 567.945 560.382 562.811 563.604 556.266C568.134 547.306 567.228 538.446 565.517 528.881C560.885 504.013 549.609 481.058 544.172 456.492C542.763 450.25 541.756 443.907 540.85 437.464C541.051 439.075 541.253 440.585 541.454 442.196C538.736 421.355 538.333 400.313 537.729 379.372C537.226 357.927 536.219 336.482 534.709 315.138C531.587 271.443 526.251 227.748 518.902 184.556C514.875 160.594 510.143 136.733 504.807 112.972C502.793 103.911 491.718 97.669 482.858 100.488C473.294 103.609 468.26 112.67 470.374 122.436C478.932 160.695 485.879 199.255 491.215 238.118C491.013 236.507 490.812 234.997 490.611 233.386C496.047 273.96 499.672 314.836 501.383 355.812C503.095 397.293 501.585 439.578 513.364 479.75C519.506 500.792 528.567 521.028 531.789 542.775C531.587 541.164 531.386 539.654 531.185 538.043C531.487 540.158 531.587 542.171 531.285 544.285C531.487 542.675 531.688 541.164 531.89 539.553C531.789 540.158 531.386 540.963 531.386 541.567C532.494 539.251 532.695 538.547 532.091 539.654C531.587 540.359 531.789 540.158 532.796 538.849C534.608 536.432 533.198 538.043 532.796 538.547C531.688 539.956 536.017 536.432 534.306 537.439C533.098 538.144 531.89 538.849 530.681 539.553C528.567 540.661 531.789 539.251 532.192 538.949C531.487 539.352 530.48 539.553 529.775 539.855C523.634 541.869 517.09 543.077 510.646 543.883C512.257 543.681 513.767 543.48 515.378 543.279C500.88 545.192 486.181 545.393 471.482 545.594C456.682 545.796 441.882 545.796 426.981 545.796C396.676 545.695 366.472 545.091 336.168 544.587C275.76 543.48 215.452 542.473 155.044 541.366C138.13 541.064 121.115 540.762 104.201 540.46C88.9982 540.157 73.7956 539.855 58.6936 537.842C60.3045 538.043 61.8146 538.245 63.4255 538.446C53.7603 537.137 44.095 535.123 34.9331 531.7C34.1277 531.398 30.5032 529.888 33.3223 531.096C36.2419 532.304 32.3154 530.593 31.8121 530.291C29.7985 529.284 27.7849 528.277 25.8719 527.069C23.959 525.962 22.1468 524.753 20.4352 523.545C20.0325 523.243 19.7304 523.042 19.3277 522.74C17.9182 521.733 21.14 524.25 21.14 524.149C20.9387 523.545 18.9251 522.337 18.4216 521.934C15.4013 519.317 12.5822 516.397 10.0652 513.377C9.76319 512.974 9.36042 512.37 8.95771 512.068C8.75635 511.866 11.4747 515.491 10.4679 513.981C9.86384 513.175 9.36042 512.37 8.75629 511.665C7.64881 510.054 6.64204 508.443 5.63526 506.832C3.62165 503.51 1.9101 500.188 0.299263 496.664C0.0978468 496.261 -0.304863 495.556 -0.40551 495.154C-0.40551 494.751 1.30604 499.281 0.601265 497.57C0.299202 496.664 -0.103447 495.758 -0.506218 494.952C-1.21093 493.14 -1.81506 491.428 -2.41912 489.616C-5.1375 481.562 -7.25176 473.205 -9.06402 464.95C-20.5415 468.071 -31.9184 471.292 -43.3959 474.413C-37.6572 490.824 -28.1932 505.423 -15.7089 517.605C-7.25177 525.861 6.03797 523.646 12.2801 513.981C29.1943 487.703 46.0079 461.426 62.9221 435.048C53.5589 436.256 44.2963 437.464 34.9331 438.672C46.7127 452.264 58.3916 465.956 70.1711 479.548C81.548 492.737 92.4214 507.839 110.342 512.37C129.17 517.102 146.889 510.155 164.106 503.51C179.812 497.167 195.719 492.133 211.828 487.905C230.655 482.971 249.684 479.246 268.913 476.528C263.175 466.56 257.335 456.694 251.596 446.726C250.388 447.834 247.267 449.646 251.898 446.726C251.194 447.23 250.489 447.733 249.784 448.237C247.972 449.445 246.16 450.452 244.247 451.358C243.139 451.962 242.032 452.465 240.824 452.969C237.703 454.378 244.549 451.559 241.528 452.667C239.414 453.472 237.199 454.277 235.085 454.982C226.024 458.003 216.66 460.218 207.599 463.339C187.363 470.286 162.797 483.475 162.696 508.041C162.696 515.189 168.233 523.948 175.784 525.257C241.73 536.13 308.682 541.064 375.533 539.654C394.159 539.251 412.684 538.345 431.21 537.036C438.761 536.533 446.614 531.902 448.426 523.948C450.137 516.498 447.419 507.537 440.271 503.812C425.169 496.16 408.456 493.744 391.642 493.241C375.735 492.838 359.827 493.643 344.021 494.147C309.689 495.154 275.256 496.261 240.924 497.469C172.764 499.885 104.704 502.705 36.6447 506.329C-2.11712 508.443 -40.8789 511.464 -79.238 517.706C-83.1645 518.31 -88.0978 522.438 -89.9101 525.861C-91.823 529.485 -92.5277 533.211 -92.0243 537.238C-90.8162 545.896 -83.4665 552.642 -74.506 552.642C-29.7034 552.642 15.1998 552.843 60.0024 553.347C104.805 553.85 149.708 554.454 194.511 555.461C219.782 555.964 245.153 556.568 270.424 557.273C270.424 545.393 270.424 533.513 270.424 521.632C244.045 521.733 217.768 520.021 191.692 516.498C193.303 516.699 194.813 516.9 196.424 517.102C175.784 514.283 155.246 510.457 135.11 505.322C125.545 502.906 116.081 500.389 106.718 497.268C104.604 496.563 102.489 495.858 100.375 495.053C99.469 494.65 98.4622 494.348 97.556 493.945C97.0527 493.744 96.6499 493.543 96.1465 493.341C94.0322 492.536 99.6703 494.952 97.6567 493.945C93.7302 492.032 89.8037 490.22 86.0785 487.905C85.1724 487.3 84.2663 486.696 83.4609 486.092C80.3398 483.877 86.4812 488.609 83.5615 486.193C82.0513 484.884 80.6418 483.475 79.333 482.065C76.816 479.347 81.548 485.488 79.635 482.468C79.1316 481.662 78.6282 480.857 78.2255 480.052C78.0241 479.649 77.8228 479.145 77.5207 478.642C76.5139 476.729 78.8296 482.569 78.0241 479.649C77.7221 478.441 77.4201 477.232 77.118 475.924C77.3194 477.535 77.5207 479.045 77.7221 480.656C77.4201 478.139 77.4201 475.622 77.7221 473.105C77.5207 474.715 77.3194 476.226 77.118 477.837C77.5207 475.219 78.1248 472.702 78.9302 470.185C79.1316 469.681 79.5343 468.876 79.635 468.272C79.0309 471.695 78.3262 471.091 79.0309 469.681C79.8364 468.071 80.6418 466.56 81.4472 465.05C82.8568 462.533 84.4677 460.117 86.1792 457.801C86.582 457.197 87.0853 456.593 87.488 455.989C89.1996 453.573 86.9847 456.694 86.6826 456.996C87.8908 455.586 88.9983 454.076 90.2064 452.667C98.3615 442.901 107.121 433.537 116.081 424.476C134.204 405.951 153.031 388.03 170.046 368.498C203.673 329.736 231.46 286.645 251.294 239.326C257.033 225.633 262.067 211.639 264.987 197.04C268.309 180.227 268.813 163.715 265.792 146.901C264.786 141.163 258.946 135.726 253.308 134.417C240.22 131.397 227.937 137.337 221.191 148.814C218.775 153.043 217.466 157.775 215.956 162.406C214.546 166.735 213.137 171.065 211.727 175.495C205.988 193.315 200.25 211.135 194.511 228.956C183.033 264.596 171.556 300.136 160.179 335.777C156.957 345.644 153.836 355.51 150.614 365.478C150.413 366.082 148.097 371.317 148.5 371.821C148.399 371.72 150.614 367.391 149.406 369.706C148.903 370.612 148.5 371.519 147.896 372.425C146.688 374.438 145.983 373.431 148.802 371.317C148.299 371.72 147.493 372.425 147.091 373.029C147.896 372.425 148.601 371.821 149.406 371.216C148.903 371.519 148.5 371.821 147.997 372.022C151.017 370.914 151.621 370.612 149.809 371.216C149.205 371.418 148.601 371.519 147.997 371.72C155.346 375.848 162.595 379.976 169.945 384.204C151.017 320.574 130.68 257.347 109.034 194.624C102.892 176.703 96.5493 158.882 90.2065 141.062C87.186 132.605 79.8364 127.068 70.6745 128.276C61.6134 129.484 55.7739 136.833 55.2705 145.794C51.0419 218.485 44.6991 291.075 36.1413 363.464C33.725 383.902 31.1073 404.441 28.3889 424.778C28.5903 423.167 28.7917 421.657 28.9931 420.046C25.9726 442.095 22.8515 464.245 19.5291 486.193C31.208 487.804 42.8868 489.314 54.5657 490.925C55.5725 478.944 56.982 466.963 58.4922 454.982C58.2909 456.593 58.0895 458.103 57.8881 459.714C63.1235 420.751 71.3793 382.291 82.4541 344.637C72.4867 347.255 62.6201 349.872 52.6528 352.49C54.5658 354.504 56.4787 356.618 58.1902 358.732C58.5929 359.135 60.5058 361.652 58.4922 359.034C56.4786 356.417 58.3916 358.934 58.6936 359.437C59.5997 360.645 60.4051 361.853 61.3113 363.061C64.4323 367.693 67.1507 372.525 69.567 377.559C70.6745 379.875 71.9834 382.191 72.7888 384.708C72.7888 384.708 70.9765 380.278 71.9834 382.895C72.1847 383.399 72.3861 384.003 72.5874 384.506C73.1915 386.016 73.6949 387.426 74.299 388.936C76.1113 393.97 77.8228 399.004 79.4336 404.038C86.1792 425.886 91.8173 448.337 102.993 468.473C109.839 480.756 118.8 492.032 129.472 501.194C134.405 505.423 140.345 507.537 146.789 505.725C153.031 504.013 157.259 499.281 159.273 493.241C172.663 453.271 185.953 413.2 199.344 373.23C187.866 373.23 176.489 373.23 165.012 373.23C175.684 418.234 186.356 463.339 197.129 508.343C199.243 517.404 210.116 523.646 219.077 520.827C223.406 519.417 227.534 516.8 229.749 512.672C232.165 508.141 232.266 504.013 231.561 498.979C230.152 489.113 228.843 479.246 227.534 469.379C227.735 470.99 227.937 472.501 228.138 474.111C221.694 426.49 215.956 378.767 210.72 330.944C204.78 336.885 198.84 342.825 192.9 348.765C193.806 348.866 194.612 348.966 195.518 349.067C193.907 348.866 192.397 348.664 190.786 348.463C194.612 349.067 198.135 350.074 201.76 351.282C204.68 352.389 197.531 349.268 200.35 350.678C201.256 351.181 202.163 351.584 203.069 352.087C204.378 352.792 205.686 353.597 206.995 354.403C208.505 355.309 209.915 356.417 211.324 357.423C213.841 359.236 207.499 354.403 210.418 356.719C211.123 357.323 211.828 357.826 212.432 358.43C215.05 360.645 217.667 362.961 220.184 365.276C232.769 376.754 245.656 387.527 262.269 392.561C275.256 396.588 287.841 383.499 284.217 370.612C269.92 321.279 250.59 273.356 227.232 227.647C223.809 220.901 214.244 217.176 207.096 219.492C199.545 221.908 194.108 228.553 194.008 236.708C193.504 302.452 194.813 368.196 198.035 433.839C198.941 452.465 200.048 470.99 201.256 489.616C201.861 498.577 207.599 505.926 216.66 507.134C224.916 508.242 234.38 503.107 236.192 494.348C243.341 460.922 250.086 427.497 256.429 393.97C262.671 361.148 269.115 328.125 273.746 295.002C276.666 274.06 277.874 253.22 272.639 232.479C270.726 224.929 263.175 219.391 255.422 219.391C229.246 219.492 207.599 234.191 190.081 252.515C170.851 272.751 152.829 294.096 135.814 316.245C126.854 327.924 118.195 339.905 109.94 352.188C120.209 358.229 130.478 364.169 140.748 370.21C163.904 332.757 187.262 295.505 210.217 257.952C216.661 247.38 223.104 236.003 225.118 223.62C225.822 219.492 225.923 215.968 224.211 212.041C222.802 208.618 220.285 205.296 216.963 203.484C210.016 199.758 201.055 200.463 195.417 206.303C154.944 247.783 114.47 289.263 73.9969 330.844C68.6609 336.381 63.4255 342.12 57.7875 347.255C57.284 347.657 56.8813 348.06 56.378 348.463C55.9752 348.765 55.6732 349.067 55.2705 349.369C54.2637 350.174 54.767 349.772 56.982 348.06C55.5725 348.664 54.2637 349.973 52.9549 350.678C52.3507 350.98 51.8474 351.282 51.2433 351.584C48.5249 352.993 54.465 350.476 52.3507 351.08C50.6392 351.584 49.0283 352.087 47.2161 352.389C48.827 352.188 50.3372 351.987 51.948 351.785C49.9344 351.987 48.0215 351.987 46.0079 351.685C47.6188 351.886 49.129 352.087 50.7399 352.289C50.4378 352.188 50.0351 352.188 49.7331 352.087C53.2569 360.846 56.7807 369.505 60.4051 378.264C73.8963 348.563 87.2867 318.863 100.778 289.162C103.194 283.826 104 278.893 101.684 273.356C99.469 268.12 95.5425 264.798 90.1057 263.086C81.9507 260.368 73.0908 256.139 64.8351 261.073C59.7004 264.093 54.9685 268.523 50.2365 272.349C42.5848 278.49 35.0338 284.833 27.7849 291.478C20.838 297.821 14.1931 304.466 7.74954 311.312C0.60128 318.863 -6.84904 326.817 -12.3865 335.676C-19.9375 347.758 -22.9579 364.27 -13.8966 376.553C-11.4803 379.774 -9.16472 382.191 -5.33885 383.801C-2.01646 385.211 2.81618 386.117 6.23934 384.708C52.8541 365.478 97.8581 342.422 139.64 314.03C151.621 305.875 163.199 297.317 174.677 288.458C179.006 285.135 180.214 278.49 179.61 273.456C178.905 268.12 175.986 263.086 171.153 260.469C167.428 258.455 163.803 256.24 159.978 254.327C152.628 250.602 145.48 252.313 138.13 254.931C130.076 257.75 122.424 261.475 115.276 266.207C101.885 275.067 90.2064 286.343 78.8296 297.519C54.7671 321.078 32.7182 346.651 12.7835 373.733C2.31282 388.03 -7.55382 402.729 -16.5143 417.932C-5.4395 420.952 5.63527 423.973 16.71 426.892C15.3006 366.686 16.408 306.479 20.1332 246.474C21.14 229.56 22.4488 212.746 23.8583 195.832C12.1795 197.443 0.500583 198.953 -11.1783 200.564C-2.4191 245.87 6.23934 291.075 14.9985 336.381C16.408 343.731 24.8652 349.772 32.2148 349.47C39.7658 349.168 47.7195 344.234 49.4311 336.381C58.3916 294.599 65.1371 252.313 69.6677 209.826C71.8827 189.288 73.4936 168.648 74.6011 148.009C75.6079 127.873 76.514 107.636 75.9099 87.3996C75.2051 63.1358 71.0773 39.5766 60.8079 17.427C57.4855 10.3794 47.8202 7.35902 40.6719 9.27199C23.2543 13.9033 5.73601 18.3331 -11.5809 23.2664C-21.7496 26.0855 -31.8176 30.6161 -37.1537 40.1807C-42.4898 49.5439 -40.4762 60.5181 -39.6707 70.7874C-36.9524 106.831 -34.234 142.975 -31.5157 179.018C-30.0055 199.456 -28.3946 219.794 -26.8843 240.232C-26.2802 247.783 -21.7497 255.636 -13.7959 257.448C-6.44632 259.16 2.7156 256.441 6.34006 249.293C17.0121 228.15 27.6842 206.907 38.5577 185.764C43.1889 176.803 48.0215 167.843 53.4582 159.285C54.8678 157.07 56.378 154.855 57.9888 152.64C58.5929 151.734 59.2977 150.929 59.9018 150.023C61.0093 148.512 60.8079 148.915 59.0964 151.029C59.4991 150.425 60.0024 149.922 60.4052 149.318C63.929 144.989 67.6541 140.861 71.5806 137.035C63.2242 137.035 54.7671 137.035 46.4107 137.035C56.7807 149.318 67.2514 161.5 77.6214 173.783C82.8568 179.925 92.6227 180.126 99.167 176.602C142.56 153.244 186.356 130.793 230.756 109.348C221.997 102.602 213.338 95.9574 204.579 89.2119C204.277 90.6214 203.975 92.0309 203.572 93.3398C203.371 93.9438 202.767 97.1656 202.163 97.4676C202.364 97.3669 204.378 92.8363 202.867 95.756C202.565 96.3601 202.263 96.9642 201.961 97.5683C201.357 98.7765 200.652 99.9846 199.948 101.092C199.142 102.401 198.236 103.609 197.33 104.918C196.122 106.629 200.149 101.495 198.236 103.71C197.632 104.415 197.129 105.019 196.525 105.723C194.41 108.039 192.195 110.254 189.88 112.268C189.276 112.771 188.671 113.274 188.168 113.778C185.852 115.691 190.987 111.764 189.175 112.972C187.765 113.979 186.356 114.986 184.946 115.892C182.127 117.704 179.107 119.416 176.086 120.926C174.677 121.631 168.938 123.745 174.375 121.832C172.764 122.436 171.153 123.141 169.542 123.644C165.616 125.054 161.589 126.061 157.561 126.665C159.172 126.463 160.682 126.262 162.293 126.061C158.266 126.564 154.239 126.665 150.212 126.061C151.823 126.262 153.333 126.463 154.944 126.665C152.829 126.363 150.715 125.859 148.601 125.255C147.695 124.953 146.688 124.651 145.782 124.349C145.48 124.248 144.674 124.047 144.372 123.846C144.674 124.148 148.198 125.557 145.983 124.45C142.157 122.537 138.432 120.322 134.908 117.805C134.103 117.302 133.398 116.698 132.593 116.093C131.083 114.986 134.606 117.503 134.304 117.503C134.002 117.503 133.398 116.798 133.197 116.597C131.284 115.087 129.472 113.576 127.659 112.066C123.532 108.643 119.303 105.22 115.175 101.797C98.3615 88.0037 81.548 74.1098 64.7344 60.3167C55.1698 52.3629 45.5046 44.51 35.9399 36.5562C31.4093 32.8311 26.8788 30.8175 20.9386 31.6229C15.9047 32.3276 10.1659 35.1467 7.95091 40.08C3.92375 49.1412 1.50743 57.5983 0.399947 67.3643C-0.506181 75.5194 0.198591 83.6744 1.80949 91.7288C5.13188 108.442 14.4952 123.745 26.2747 135.927C33.0202 142.975 44.5984 142.472 51.4447 135.927C73.6949 114.583 85.3738 83.0704 76.7153 52.7657C74.299 44.2079 65.9426 38.8719 57.1834 39.9794C48.0215 41.1875 42.3835 48.5371 41.7795 57.4976C38.2557 106.327 43.0882 155.761 55.2705 203.182C56.982 210.028 63.2242 215.062 70.0704 215.968C76.5139 216.874 84.8704 213.854 87.7901 207.511C100.174 180.126 112.658 152.741 125.042 125.457C114.168 124.047 103.295 122.638 92.5221 121.228C98.4622 154.956 108.027 187.979 120.712 219.693C122.827 225.029 125.545 228.956 130.982 231.271C136.117 233.486 141.956 233.285 146.789 230.365C161.79 221.505 174.073 208.719 182.631 193.516C189.98 180.428 194.712 165.93 198.84 151.533C200.954 144.284 197.531 135.021 190.685 131.397C187.866 129.887 184.846 129.081 181.725 128.98C176.691 128.779 172.865 131.296 169.14 134.216C148.802 150.023 130.378 170.159 118.598 193.214C112.457 205.195 109.336 220.499 116.887 232.681C119.504 236.809 122.726 239.93 126.753 242.749C127.659 243.353 128.566 243.957 129.572 244.36C134.707 246.877 139.54 247.481 145.178 246.273C151.219 244.964 157.159 243.252 163.099 241.44C208.606 227.848 252.402 204.792 286.633 171.467C303.447 155.157 318.146 136.028 328.013 114.684C330.026 110.254 331.134 105.824 329.825 100.991C328.717 96.8636 325.496 92.333 321.67 90.3193C313.414 85.8894 302.037 88.0037 297.305 96.6622C290.459 109.247 282.908 121.53 274.652 133.209C272.538 136.129 270.424 139.048 268.309 141.968C267.806 142.572 267.403 143.176 266.9 143.78C266.698 143.982 264.383 147.002 266.195 144.687C267.907 142.472 265.893 145.089 265.49 145.593C264.886 146.398 264.282 147.103 263.678 147.808C258.946 153.748 254.013 159.486 248.979 165.225C253.207 163.514 257.335 161.701 261.564 159.99C261.262 159.99 260.96 159.889 260.658 159.889C262.269 160.091 263.779 160.292 265.39 160.493C264.282 160.292 263.275 159.99 262.269 159.789C261.06 159.386 261.262 159.487 262.973 160.091C264.584 160.795 264.886 160.896 263.779 160.393C260.658 158.178 265.792 162.507 264.886 161.399C264.383 160.795 263.779 160.292 263.275 159.688C267 163.413 265.39 162.608 264.584 161.097C262.671 157.674 265.792 165.024 264.987 162.306C264.584 160.795 264.181 159.285 263.879 157.674C264.081 159.285 264.282 160.795 264.483 162.406C264.081 159.285 264.181 156.164 264.584 153.043C264.383 154.654 264.181 156.164 263.98 157.775C265.39 148.412 267 138.948 268.41 129.585C269.115 125.155 269.618 120.523 270.625 116.093C270.625 115.892 271.33 114.08 271.229 114.08C270.826 115.087 270.424 115.993 270.021 117C270.222 116.597 270.524 116.093 270.826 115.691C270.222 116.496 269.618 117.302 269.014 118.107C269.92 117.201 269.719 117.402 268.309 118.51C266.9 119.517 266.698 119.718 267.705 119.114C264.584 120.221 263.879 120.624 265.591 120.221C263.98 120.423 262.47 120.624 260.859 120.825C261.362 120.725 261.967 120.725 262.47 120.825C260.859 120.624 259.349 120.423 257.738 120.221C258.04 120.221 258.342 120.322 258.644 120.322C256.026 118.812 253.409 117.302 250.791 115.791C253.006 117.503 255.12 119.315 257.033 121.329C257.939 122.336 258.946 123.242 259.752 124.349C260.154 124.752 260.859 125.356 261.06 125.859C260.658 124.853 258.644 122.537 260.356 124.953C261.765 127.068 263.074 129.182 264.282 131.497C265.994 134.921 262.973 127.974 264.282 131.497C264.786 132.806 265.188 134.115 265.49 135.424C276.364 130.893 287.237 126.262 298.01 121.732C287.64 103.71 273.444 87.9031 257.235 75.016C252.603 71.3915 248.274 69.2772 242.233 70.0826C236.897 70.7874 231.863 73.7072 229.246 78.5398C215.251 104.515 201.357 130.491 187.363 156.567C198.437 159.587 209.512 162.608 220.587 165.527C217.063 127.37 213.338 88.6078 199.646 52.5644C197.632 47.2284 194.712 43.3018 189.376 40.9862C184.242 38.7712 178.402 38.9726 173.569 41.8922C146.99 57.699 121.619 75.62 97.7575 95.454C107.926 99.6826 117.994 103.81 128.163 108.039C126.653 91.1248 125.042 74.1099 121.82 57.397C118.498 40.4827 112.96 23.9712 104.906 8.66787C99.3683 -1.80284 84.9711 -2.50761 76.9167 5.04341C62.7208 18.4339 53.861 35.7508 51.646 55.0814C49.6324 72.1969 54.8678 90.42 64.9358 104.314C68.3589 109.046 73.7956 113.878 80.3398 113.174C118.196 108.744 154.742 99.1792 189.376 83.2717C196.222 80.1507 199.847 70.0827 197.531 63.1358C195.115 55.5847 188.47 50.148 180.315 50.0474C129.17 49.7453 78.1249 49.3426 26.9795 49.0405C12.4816 48.9399 -2.11702 48.8391 -16.6149 48.7385C-16.6149 60.6187 -16.6149 72.499 -16.6149 84.3792C24.2611 82.2649 65.1372 80.05 106.013 77.1302C147.795 74.1099 189.578 69.982 231.158 64.4446C253.711 61.4242 276.263 57.7997 298.715 53.5712C307.373 51.9603 312.609 42.0937 311.501 34.0392C310.293 25.3808 302.943 18.6352 293.983 18.6352C246.361 18.3332 198.639 20.4475 151.219 24.8774C146.386 25.2801 142.157 26.5889 138.634 30.1127C135.512 33.2338 133.197 38.2678 133.398 42.6977C133.902 53.0677 141.251 59.612 151.219 60.518C214.446 65.9548 278.075 65.8541 341.302 60.216C351.068 59.3099 361.036 58.6052 370.701 57.095C380.568 55.5848 392.649 49.544 394.26 38.5699C394.864 34.442 395.065 30.9182 393.354 26.9916C391.944 23.7699 389.427 19.9441 386.105 18.4339C366.07 9.47331 344.826 7.2584 323.281 10.7822C304.957 13.7019 285.928 22.8637 274.249 37.563C266.598 47.1277 262.067 57.397 261.06 69.68C260.456 77.1303 267.001 85.1847 274.149 86.8962C282.405 88.8091 289.452 85.4867 294.285 78.7412C294.889 77.9357 295.493 77.1303 296.097 76.3248C298.312 73.3045 293.379 79.6473 295.795 76.7275C296.902 75.4187 297.909 74.1099 299.117 72.801C301.735 69.7806 304.453 66.8609 307.373 64.0418C310.192 61.3235 313.112 58.6052 316.233 56.0882C316.938 55.4841 317.643 54.88 318.347 54.3766C319.253 53.6719 322.375 51.7589 318.247 54.4773C320.059 53.2691 321.871 51.8596 323.683 50.5508C314.723 45.4161 305.863 40.2813 296.902 35.1467C298.916 60.9208 305.36 85.1847 315.83 108.744C318.045 113.677 323.885 116.597 328.818 117.201C334.255 117.906 339.893 116.395 343.819 112.268C358.317 97.1656 369.694 78.8418 374.929 58.4038C363.452 55.2828 352.075 52.061 340.598 48.9399C335.664 75.9221 337.678 103.81 347.746 129.484C350.364 136.229 354.995 141.263 362.546 142.27C369.694 143.277 376.44 139.854 380.265 133.813C399.093 103.911 418.927 74.714 439.767 46.1208C428.894 41.5903 418.02 36.959 407.248 32.4284C402.012 55.4841 410.469 78.4391 427.484 94.4473C434.633 101.193 445.506 101.193 452.654 94.4473C459.501 88.0037 466.649 81.7616 474.099 75.8215C475.005 75.1167 475.911 74.4119 476.717 73.7072C480.241 70.8881 474.301 75.5194 477.12 73.4051C478.932 71.9956 480.744 70.6868 482.657 69.2773C486.684 66.3575 490.812 63.4379 494.94 60.6188C485.979 55.4841 477.12 50.3494 468.159 45.2147C467.857 48.6378 467.454 52.061 467.052 55.4841C467.253 53.8732 467.454 52.363 467.656 50.7521C466.045 62.129 463.629 73.5058 460.407 84.4799C458.796 90.118 456.883 95.6554 454.869 101.092C453.863 103.71 452.856 106.227 451.849 108.744C451.144 110.556 451.245 110.153 452.252 107.737C451.95 108.442 451.648 109.147 451.346 109.952C450.741 111.361 450.037 112.872 449.332 114.281C460.407 117.302 471.482 120.322 482.556 123.242C483.966 99.4813 482.053 75.7208 477.522 52.4637C475.811 43.8052 466.146 38.5698 457.99 39.6773C448.929 40.8855 443.09 48.2352 442.586 57.1957C440.472 93.2391 438.459 129.283 436.344 165.326C448.224 165.326 460.105 165.326 471.985 165.326C472.589 152.439 470.676 139.048 466.548 126.866C464.233 120.121 461.414 113.576 458.091 107.334C454.165 99.9846 448.728 89.7153 440.875 86.3928C432.619 82.869 421.947 85.084 414.497 89.6146C408.456 93.2391 403.623 98.5751 399.898 104.515C396.777 109.449 394.763 115.187 392.448 120.523C389.629 126.967 386.709 133.41 383.89 139.854C377.547 154.251 371.104 168.648 364.761 183.046C375.03 183.046 385.299 183.046 395.569 183.046C384.695 163.111 373.822 143.277 362.949 123.342C356.706 111.966 338.282 111.563 332.14 123.342C319.455 147.808 308.38 173.179 298.916 199.054C308.883 196.436 318.75 193.818 328.717 191.201C327.308 189.892 325.294 188.382 324.388 186.569C324.891 187.677 326.704 189.691 325.093 187.274C324.589 186.469 324.086 185.563 323.583 184.757C323.18 184.052 322.979 183.146 322.475 182.643C323.583 185.261 323.885 185.965 323.381 184.657C323.18 184.254 323.079 183.75 322.878 183.348C322.274 181.535 321.972 179.723 321.67 177.911C321.871 179.522 322.072 181.032 322.274 182.643C322.072 180.529 321.972 178.414 322.173 176.199C310.293 176.199 298.413 176.199 286.532 176.199C284.519 204.793 287.237 233.688 293.781 261.576C295.191 267.415 300.426 272.55 306.266 274.06C322.475 277.987 336.671 271.241 350.061 262.784C360.331 256.24 370.6 249.696 380.668 242.85C400.804 229.157 420.84 214.256 437.25 196.033C446.01 186.267 453.963 175.595 459.903 163.916C449.03 159.386 438.156 154.755 427.384 150.224C412.483 189.388 409.865 232.379 419.329 273.154C420.94 280 427.484 285.034 434.129 285.941C440.673 286.847 448.829 283.826 451.849 277.483C458.594 263.288 463.729 248.588 466.045 232.983C468.461 216.27 468.36 200.161 465.642 183.448C465.239 180.73 462.924 177.508 461.112 175.595C458.292 172.776 454.769 171.165 450.842 170.662C443.895 169.756 436.646 172.978 433.122 179.119C417.819 205.598 408.859 235.5 408.355 266.107C420.034 264.496 431.713 262.986 443.392 261.375C440.976 245.769 438.459 230.164 433.122 215.163C426.78 197.141 417.215 180.629 403.523 167.138C394.159 157.976 376.943 161.802 373.721 174.991C359.223 233.889 346.236 293.492 327.61 351.282C322.274 367.793 316.535 384.104 309.991 400.212C321.67 401.823 333.349 403.333 345.027 404.944C342.813 363.061 340.598 321.179 338.383 279.296C337.879 270.436 331.939 262.986 322.979 261.777C314.018 260.569 306.266 266.006 303.447 274.564C282.405 337.891 261.362 401.219 240.421 464.446C234.279 482.871 228.641 503.208 235.588 522.236C237.803 528.177 241.629 532.909 248.073 534.721C253.811 536.332 261.362 534.821 265.39 530.19C300.426 489.415 335.362 448.639 370.399 407.864C380.265 396.386 390.132 384.909 399.999 373.331C390.031 367.592 380.165 361.753 370.197 356.014C355.095 403.535 345.531 452.868 341.806 502.604C341 513.88 339.893 525.458 346.034 535.526C354.391 549.219 371.607 553.045 386.004 547.306C407.852 538.647 428.793 526.062 447.721 512.269C458.192 504.416 469.367 496.261 478.227 486.193C483.16 480.555 487.389 474.716 490.309 467.769C491.618 464.748 492.624 461.929 493.128 458.707C494.034 452.868 493.832 448.841 493.027 443.001C492.524 439.075 488.194 434.142 484.872 432.329C480.945 430.215 475.509 428.805 471.179 430.517C458.192 435.853 445.305 441.491 432.82 447.733C426.981 450.653 421.242 453.673 415.503 456.794C409.362 460.117 403.321 463.54 398.186 468.373C391.441 474.816 386.81 484.884 389.729 494.247C391.743 500.792 396.878 507.638 403.825 509.249C407.751 510.155 411.879 510.054 415.805 509.551C428.39 508.141 440.371 504.315 450.641 496.865C460.306 489.818 468.159 481.562 474.905 471.695C481.952 461.426 486.986 449.848 491.718 438.471C501.484 415.012 506.518 390.144 509.438 364.974C512.559 337.992 512.358 310.809 511.653 283.625C511.351 274.362 503.598 265.402 493.832 265.805C484.268 266.207 475.911 273.658 476.012 283.625C476.818 353.698 476.415 423.771 474.804 493.845C474.401 513.779 473.797 533.613 473.193 553.548C484.872 551.937 496.551 550.427 508.23 548.816C495.745 483.777 483.563 418.536 470.575 353.597C467.354 337.489 461.212 321.279 447.922 310.809C444.701 308.292 441.882 306.479 437.653 305.875C434.129 305.372 429.297 305.674 426.276 307.989C420.537 312.419 415.705 316.849 411.98 323.192C409.161 327.924 407.147 333.26 405.838 338.596C403.221 349.168 402.113 360.242 400.502 371.015C396.878 395.984 393.857 421.053 391.441 446.223C390.132 459.714 389.125 473.205 388.219 486.797C387.615 495.657 395.468 503.208 403.623 504.315C411.476 505.423 421.846 500.288 423.155 491.529C432.216 431.121 441.378 370.612 454.165 310.809C457.789 293.995 461.615 277.181 465.843 260.469C454.165 258.858 442.486 257.347 430.807 255.737C430.203 289.263 427.686 322.689 423.256 355.913C423.457 354.302 423.659 352.792 423.86 351.181C417.618 397.897 407.55 444.008 394.059 489.213C405.536 489.213 416.913 489.213 428.39 489.213C407.751 439.679 407.348 385.11 390.938 334.368C385.904 318.762 379.359 303.358 371.003 289.162C367.378 283.021 360.23 279.698 353.283 280.705C346.135 281.611 340.598 286.645 338.483 293.492C322.878 343.026 315.931 395.48 318.75 447.431C319.153 454.982 323.985 462.835 331.838 464.648C339.389 466.359 348.149 463.641 351.974 456.492C374.728 413.804 388.521 367.391 397.884 320.172C400.502 307.285 402.717 294.398 404.932 281.41C393.253 279.799 381.574 278.289 369.895 276.678C366.17 322.789 364.358 369.002 364.66 415.214C364.761 427.295 375.936 434.846 387.212 432.43C404.831 428.604 421.746 420.449 434.733 407.864C441.479 401.42 441.781 389.138 434.733 382.694C427.686 376.049 416.913 375.747 409.765 382.694Z" fill="#C6ECAC" fill-opacity="0.5"/>
</svg>
