<svg width="360" height="582" viewBox="0 0 360 582" fill="none" xmlns="http://www.w3.org/2000/svg">
<g opacity="0.5" clip-path="url(#clip0)">
<path d="M215.6 243.8C196.3 238 177.2 227.3 165.1 210.8C158.6 202 154.4 191.5 153.8 180.6C153.2 170.1 155.8 158.6 162 149.9C165.5 145 170.5 141.7 175.7 139C181.4 136.1 187.5 133.9 193.6 131.8C195.7 131 194.8 127.6 192.7 128.4C182.1 132.1 170.3 135.9 162.2 144.2C158.1 148.4 155.4 153.7 153.4 159.2C151.5 164.5 150.4 170.1 150.2 175.8C149.8 187.5 153.2 199.2 159.5 209C165 217.6 172.4 224.8 180.6 230.8C190.9 238.2 202.5 243.6 214.6 247.3C216.8 247.9 217.8 244.4 215.6 243.8Z" fill="white"/>
<path d="M423.6 379.7C422.4 380.9 421.2 382 419.9 383C417.5 385 420.6 382.9 420.9 382.2C420.7 382.6 419 383.6 418.6 383.9C415.8 385.8 412.8 387.6 409.8 389.1C409.1 389.5 408.3 389.8 407.5 390.2C406.9 390.5 404 391.7 406.8 390.5C409.6 389.3 406.7 390.5 406.1 390.8C405.1 391.2 404.2 391.5 403.2 391.9C399.5 393.2 395.8 394.2 392 395C399.5 400.7 406.9 406.4 414.4 412.1C414.1 366.2 415.8 320.3 419.6 274.5C419.9 270.4 417.4 264.7 414.4 262C411.5 259.3 408.2 257.7 404.2 257.1C396.3 256 386.2 261.1 384.8 269.8C377.3 314.7 368.1 359.7 351.2 402.2C350.6 403.8 349.9 405.4 349.3 407C349.1 407.5 348.9 408.1 348.6 408.6C347.8 410.7 350.1 405.1 348.8 408.1C347.5 411.1 346.2 414.1 344.8 417.1C341.9 423.3 338.9 429.4 335.7 435.4C346.7 438.4 357.7 441.4 368.7 444.3C367.3 418.4 368.3 392.5 371.8 366.8C371.6 368.4 371.4 369.9 371.2 371.5C374.5 347.5 379.8 323.9 387.1 300.8C376.3 302.2 365.5 303.6 354.8 305C358.2 310.9 361.3 316.9 364.1 323.1C364.6 324.3 366.6 329.4 364.7 324.3C365.3 325.8 365.9 327.3 366.5 328.8C367.7 332 368.9 335.1 370 338.4C374.2 350.8 377.4 363.5 380.1 376.3C385.4 401.6 388.8 427.2 394.7 452.3C398.1 466.9 402.4 481.3 408.2 495.2C409.7 498.9 411.3 501.9 414.5 504.4C417.5 506.7 421.3 508.4 425.2 508.2C433.1 507.8 439.9 502.9 442.3 495.2C460.7 433.8 472.5 370.5 477.5 306.7C478.9 289.1 479.7 271.6 480 254C480.2 245.2 473.1 237.8 464.7 236.6C456.2 235.5 447.5 240.7 445.3 249.3C430.4 308.3 420 368.3 410.6 428.4C408 445.2 405.5 462 402.9 478.7C414.5 480.3 426.1 481.8 437.7 483.4C439.8 451.2 443 419.1 447.3 387.1C447.1 388.7 446.9 390.2 446.7 391.8C448.4 378.9 450.3 366.1 452.4 353.3C452.8 351 453.2 348.7 453.7 346.5C454.2 344.2 455.2 342 455.7 339.8C454.5 342.7 454.2 343.2 455 341.6C455.3 341.1 455.5 340.5 455.8 340C456.4 338.9 457 337.9 457.7 336.9C458.8 335.4 458.4 335.9 456.6 338.3C457 337.8 457.4 337.4 457.9 336.9C458.8 336 462.4 333.1 458 336.4C450.9 335.5 443.7 334.6 436.6 333.6C439 335.5 441.9 337.8 443.5 340.4C443.4 340.3 440.9 336.7 442.4 339C442.8 339.6 443.2 340.3 443.6 340.9C444.5 342.3 445.2 343.8 445.9 345.3C447.4 348.3 444.5 341.8 445.4 343.9C445.7 344.6 445.9 345.3 446.2 346C446.6 347.2 447.1 348.5 447.4 349.8C448.3 352.8 449 355.8 449.6 358.8C452.7 373.9 455.5 389.1 458.4 404.2C464.5 436.1 470.7 468 476.8 499.9C480.3 518.1 483.8 536.2 487.3 554.4C489 563 498.6 568.2 506.7 567.1C515.5 565.9 521.8 558.6 522 549.7C524.2 480.1 525.3 410.5 525.2 340.9C525.2 321.1 525 301.4 524.8 281.6C513 281.6 501.2 281.6 489.4 281.6C490.2 310.7 490.3 339.9 486.4 368.8C486.6 367.2 486.8 365.7 487 364.1C484.2 384.7 479.3 405.1 471.5 424.4C469.9 428.5 472.6 421.9 471.4 424.8C470.9 426 470.4 427.2 469.8 428.4C468.6 431 467.4 433.5 466.1 436C464 440.2 461.8 444.3 459.2 448.3C458.2 449.9 457.1 451.4 456.1 452.9C454 455.8 458.4 450.1 456.6 452.2C455.9 453 455.2 453.9 454.5 454.7C451.9 457.7 449.1 460.4 446.1 463C445.7 463.3 445.2 463.8 444.8 464.1C445.1 464 448.3 461.5 446.3 462.9C445.2 463.6 444.2 464.4 443.1 465.1C441.1 466.3 439.1 467.5 437 468.5C433.6 470.1 440.8 467.1 437.2 468.4C436.1 468.8 435 469.2 433.8 469.5C431.3 470.2 428.8 470.8 426.2 471.2C427.8 471 429.3 470.8 430.9 470.6C428 471 425.2 471.1 422.3 471.1C426.5 472.8 430.6 474.6 434.8 476.3C435.9 477.4 436.7 478.6 437.1 480.1C437.7 481.8 437.8 482.1 437.5 480.9C437.7 482.5 437.9 484 438.1 485.6C438 485.1 438 484.7 438.1 484.2C437.9 485.8 437.7 487.3 437.5 488.9C437.6 488.5 437.8 488 437.8 487.5C436.5 490.4 436.1 491.2 436.9 490C437.4 489.3 437.2 489.5 436.2 490.8C434.2 493.3 436.9 490.2 437.6 489.6C440 487.5 436.9 489.6 436.7 490.2C436.8 489.9 438 489.3 438.3 489.1C439.6 488.2 441 487.5 442.4 486.7C448.2 483.4 454 480.3 459.9 477.3C465.7 474.3 471.6 471.5 477.5 468.7C480.7 467.2 483.9 465.8 487.1 464.4C488.5 463.8 490 463.2 491.4 462.6C490.7 462.9 490 463.2 489.3 463.5C489.8 463.3 490.4 463 490.9 462.8C491.8 462.4 492.7 462.1 493.6 461.7C486.3 457.6 479.1 453.5 471.8 449.3C471.8 449.6 471.9 449.9 471.9 450.2C471.7 448.6 471.5 447.1 471.3 445.5C471.5 447.3 471.4 449 471.2 450.8C471.4 449.2 471.6 447.7 471.8 446.1C471.6 447.3 471.4 448.4 471.1 449.6C470.9 450.2 470.8 450.7 470.6 451.3C470 453 470.2 452.4 471.4 449.6C470.2 451.4 469.4 453.6 468.1 455.4C467.7 455.9 467.3 456.5 467 457C468.8 454.8 469.1 454.4 467.9 455.8C467 456.8 466.1 457.9 465.2 458.9C463.5 460.7 461.8 462.5 460 464.2C456.1 467.8 452 471.2 447.8 474.5C446.3 475.6 446.7 475.4 448.9 473.7C448.3 474.1 447.8 474.6 447.2 475C446.2 475.7 445.2 476.5 444.2 477.2C442 478.8 439.9 480.3 437.7 481.9C428.7 488.2 419.4 493.9 409.8 499.2C404.9 501.9 399.9 504.5 394.9 507C392.6 508.2 390.2 509.2 387.8 510.4C386.1 511.2 386.5 511 389.1 509.8C388.4 510.1 387.8 510.3 387.1 510.5C385.7 510.9 384.4 511.2 383 511.4C384.6 511.2 386.1 511 387.7 510.8C386.3 510.9 385 510.9 383.6 510.7C385.2 510.9 386.7 511.1 388.3 511.3C388.2 511.3 385.9 510.9 385.9 510.7C385.9 510.5 390.5 513.1 387.8 511.4C386.1 510.3 391.2 514.6 389.5 512.7C387.9 510.9 389.4 511.5 390.5 514.2C390.3 513.7 389.9 513.2 389.7 512.7C388.7 511 391.3 517.2 390.6 514.7C390.2 513.4 389.9 512.1 389.7 510.7C389.9 512.3 390.1 513.8 390.3 515.4C389.5 507.6 390.9 499.2 391.6 491.4C392.4 482.2 393.4 473 394.7 463.8C394.5 465.4 394.3 466.9 394.1 468.5C399 432.7 407 397.3 418 362.8C420.3 355.6 416.6 346.4 409.9 342.8C403.3 339.3 393.7 339.5 388.5 345.6C353.7 386.1 319 426.6 284.2 467.1C274.4 478.5 264.6 489.9 254.8 501.4C264.7 504 274.5 506.6 284.4 509.2C283.3 506.3 282.6 503.4 282.2 500.4C282.4 502 282.6 503.5 282.8 505.1C282.3 500.6 282.4 496.2 282.9 491.7C282.7 493.3 282.5 494.8 282.3 496.4C284.3 482.3 289.8 468.8 294.2 455.4C298.9 441.3 303.5 427.3 308.2 413.2C317.5 385.3 326.7 357.4 336 329.4C341.3 313.6 346.5 297.8 351.8 281.9C340.2 280.3 328.6 278.8 317 277.2C319.2 318.8 321.4 360.4 323.6 402C324.1 410.8 330 418.2 338.9 419.4C342.7 419.9 346.9 419.4 350.2 417.3C354.3 414.6 356.5 411.2 358.3 406.7C380.8 350.9 394.7 292.3 409 234.1C413.2 217.1 417.3 200.1 421.5 183.1C411.6 185.7 401.8 188.3 391.9 190.9C394.9 193.8 397.3 197.3 400.2 200.2C396.8 196.8 399 198.7 399.9 199.8C400.5 200.6 401.1 201.4 401.6 202.2C402.7 203.8 403.7 205.5 404.7 207.2C406.7 210.5 408.4 214 410 217.5C410.5 218.6 411.7 221.9 409.7 216.8C410 217.7 410.4 218.6 410.8 219.5C411.5 221.3 412.1 223.1 412.7 224.9C417.5 239.2 420 254.1 422.3 269C422.9 272.9 427 277.8 430.4 279.6C434 281.5 437.7 282.2 441.7 281.7C450.4 280.5 456.9 273.2 457 264.3C457.1 258.5 457.5 252.7 458.3 246.9C458.1 248.5 457.9 250 457.7 251.6C459.1 241.4 461.5 231.3 464.8 221.5C465.7 219 466.6 216.6 467.5 214.1C467.7 213.6 467.9 213.1 468.1 212.5C468.6 211.3 468.4 211.8 467.4 214.1C468 213.8 468.9 210.6 469.3 209.9C471.6 205 474.1 200.3 476.8 195.6C466 194.2 455.2 192.8 444.5 191.4C444.7 192.9 445 194.3 445.2 195.8C445 194.2 444.8 192.7 444.6 191.1C446.1 202.5 446 214 444.5 225.4C444.7 223.8 444.9 222.3 445.1 220.7C444.1 227.5 442.7 234.3 440.7 240.9C439.7 244.2 438.6 247.4 437.4 250.6C437.1 251.3 436.9 252 436.6 252.7C436.4 253.2 436.2 253.8 436 254.3C436.3 253.6 436.6 252.9 436.9 252.2C436 253.9 435.3 255.7 434.5 257.5C445.3 258.9 456.1 260.3 466.8 261.7C465.4 255.7 464.3 249.7 463.4 243.7C463.6 245.3 463.8 246.8 464 248.4C461.8 231.8 461.8 215.1 463.9 198.5C463.7 200.1 463.5 201.6 463.3 203.2C465.4 187.9 469.2 172.9 474.7 158.5C476.2 154.6 475.1 148.3 472.9 144.9C470.8 141.6 468.1 139.2 464.4 137.7C456.8 134.5 446.3 137 442.3 144.9C440.2 149.1 437.9 153.1 435.3 157C434 158.9 432.7 160.8 431.3 162.6C430.6 163.5 429.2 165 432.4 161.2C432 161.7 431.6 162.2 431.2 162.7C430.4 163.7 429.6 164.6 428.8 165.6C422.3 173.3 415.1 180.4 407.4 187C405.5 188.7 403.6 190.3 401.6 191.9C400.7 192.7 399.8 193.4 398.8 194.1C398.3 194.5 397.7 195 397.2 195.4C396.7 195.8 394.2 197.7 396.6 195.9C399 194.1 395.7 196.6 395.1 197C394 197.8 392.9 198.7 391.8 199.5C389.6 201.2 387.3 202.8 385 204.4C376 210.8 366.9 216.8 357.6 222.8C352.5 226.1 347.4 229.3 342.3 232.5C339.7 234.1 337 235.6 334.3 237C332.9 237.7 332.2 237.1 335.6 236.5C334.9 236.6 334.3 237 333.6 237.2C331.9 237.7 330.2 238.1 328.5 238.4C330.1 238.2 331.6 238 333.2 237.8C331.1 238 329.1 238 327 237.8C328.6 238 330.1 238.2 331.7 238.4C331 238.3 330.3 238.1 329.6 238C333.7 242.1 337.8 246.2 342 250.4C340 241.8 338.3 233 337.1 224.2C337.3 225.8 337.5 227.3 337.7 228.9C335.3 211 334.7 193 336 175C336.6 165.7 327.4 156.9 318.3 157.3C308 157.8 301.5 165.1 300.6 175C299.3 189.9 306.7 204.8 317.4 214.9C322 219.3 328.4 221.2 334.6 219.4C340.9 217.7 344.8 213 347 207C349.1 201.2 351.4 195.4 353.7 189.6C354.9 186.7 356.1 183.8 357.3 180.9C357 181.8 356 184 356.9 181.9C357.2 181.2 357.5 180.5 357.8 179.7C358.5 178.1 359.2 176.5 359.9 174.9C365.1 163.2 370.6 151.6 376.5 140.2C366.3 140.2 356.1 140.2 345.9 140.2C356.7 160 367.5 179.7 378.3 199.5C381.3 204.9 387.5 208.3 393.6 208.3C399.3 208.3 406.4 205.1 408.9 199.5C416.6 182.2 424.3 164.9 431.9 147.6C435.4 139.6 438.6 131.2 442.7 123.6C443.4 122.4 444.2 121.2 444.9 120C445.9 118.3 442 123.4 443.8 121.4C444.3 120.8 444.9 120.2 445.4 119.7C446.9 118.3 447.9 118.6 444.2 120.4C444.8 120.1 445.6 119.5 446.2 119.1C448.6 117.5 441.9 120.3 444.9 119.6C445.7 119.4 446.5 119.2 447.3 119C445.7 119.2 444.2 119.4 442.6 119.6C444.1 119.4 445.5 119.4 447 119.5C441.9 116.6 436.8 113.7 431.7 110.7C434.2 114.1 436.6 117.7 438.7 121.4C439.7 123.1 440.6 124.9 441.5 126.7C442 127.7 442.5 128.6 442.9 129.6C443.6 131 443.9 133.6 442.8 129.3C443.7 133 445.6 136.6 446.6 140.2C447.7 144.2 448.5 148.3 449.1 152.4C448.9 150.8 448.7 149.3 448.5 147.7C449.2 153.1 449.4 158.6 449.2 164.1C448.8 173.4 457.6 182.2 466.9 181.8C476.9 181.4 484 174 484.6 164.1C486.7 128.3 488.7 92.5002 490.8 56.7002C479.2 58.3002 467.6 59.8002 456 61.4002C457 66.5002 457.8 71.7002 458.5 76.8002C458.3 75.2002 458.1 73.7002 457.9 72.1002C460.1 88.7002 460.7 105.5 459.7 122.3C459.3 129.7 465.5 137.7 472.7 139.4C475.8 140.1 479 140.1 482.1 139.4C485.9 138.5 491 134.9 492.7 131.3C505.4 103.7 513.4 75.1002 516.2 44.8002C517.4 31.7003 500.2 22.4002 489.6 29.5002C472.3 41.2002 455.7 54.2002 440.5 68.6002C448.8 68.6002 457.2 68.6002 465.5 68.6002C464.5 67.6002 463.5 66.7002 462.5 65.7002C461.9 65.1002 461.3 64.4002 460.8 63.8002C460.4 63.3002 458.9 61.4002 460.6 63.6002C462.4 65.9002 459.8 62.5002 459.4 61.8002C458.6 60.6002 457.9 59.3002 457.2 58.1002C456.9 57.6002 455.3 55.2002 455.5 54.7002C455.5 54.8002 457.1 58.8002 456.2 56.3002C456 55.7002 455.8 55.1001 455.6 54.5002C454.7 51.9002 454.2 49.2002 453.8 46.5002C454 48.1001 454.2 49.6002 454.4 51.2002C454 47.6002 454 44.0002 454.5 40.4002C454.3 42.0002 454.1 43.5002 453.9 45.1002C454.1 43.9002 454.3 42.7002 454.6 41.5002C456.6 32.8002 452.7 24.1002 444.4 20.6002C435.8 17.0002 427.6 20.6002 422.3 27.8002C401.7 56.2002 381.9 85.2002 363.2 114.9C374 116.3 384.8 117.7 395.5 119.1C391.6 109.1 388.8 98.7002 387.3 88.0002C387.5 89.6002 387.7 91.1002 387.9 92.7002C386.5 81.8002 386.5 70.9002 387.9 60.0002C387.7 61.6001 387.5 63.1002 387.3 64.7002C387.6 62.4002 388 60.2002 388.4 58.0002C389.3 53.2002 389.1 48.7002 386.6 44.4002C384.5 40.7002 380.2 37.2002 376 36.3002C366.8 34.2002 356.7 39.1002 354.2 48.7002C353.2 52.6002 351.9 56.4002 350.5 60.1002C349.3 63.4002 352.1 56.6002 350.7 59.6002C350.3 60.5002 349.8 61.5002 349.4 62.4002C348.4 64.4002 347.4 66.4002 346.2 68.3002C344.1 72.0002 341.7 75.5002 339.2 78.9002C338.2 80.3002 341.8 75.6002 339.3 78.7002C338.6 79.6002 337.9 80.4002 337.2 81.2002C335.6 83.0002 334 84.8002 332.3 86.5002C341.6 87.7002 350.8 88.9002 360.1 90.1002C359.8 89.4002 359.5 88.7002 359.2 87.9002C359.5 88.6002 359.8 89.3002 360.1 90.0002C359.7 88.9002 359.2 87.8002 358.8 86.8002C357.9 84.6002 357.1 82.5002 356.3 80.3002C354.8 76.1002 353.5 71.9002 352.2 67.7002C349.8 59.1002 348 50.4002 346.7 41.5002C346.9 43.1001 347.1 44.6002 347.3 46.2002C346.8 42.5002 346.4 38.7002 346.1 35.0002C345.6 28.6001 343 23.1002 337.3 19.7002C332.2 16.7002 324.5 16.2002 319.4 19.7002C303.1 31.1002 289.1 44.3001 277.7 60.5002C288.7 63.5002 299.7 66.5002 310.7 69.4002C310.8 68.6002 310.8 67.9002 310.9 67.1002C310.7 68.7002 310.5 70.2002 310.3 71.8002C310.7 69.4002 311.3 67.3001 312.1 65.0002C312.9 62.7002 311.3 67.0002 311.2 67.0002C311.1 66.8001 311.8 65.7002 311.9 65.5002C312.5 64.4002 313.1 63.3002 313.7 62.3002C314.1 61.7002 314.5 61.1002 314.9 60.6002C316.2 58.6002 314 62.0002 313.7 62.1002C314.6 61.6002 315.5 59.9002 316.3 59.1002C317.2 58.1002 318.2 57.2002 319.2 56.3002C319.6 55.9002 320.1 55.5002 320.6 55.1002C321.1 54.6002 323.4 52.9002 321 54.8002C318.5 56.7002 322 54.2002 322.6 53.7002C323.8 52.9002 325 52.1002 326.3 51.4002C327.6 50.7002 328.9 50.0002 330.2 49.4002C330.8 49.1002 331.4 48.8002 332 48.6002C334 47.7002 328.1 50.1001 331.1 49.0002C336.8 46.9002 342.6 45.5002 348.6 44.6002C347 44.8002 345.5 45.0002 343.9 45.2002C352.1 44.1002 360.4 44.1002 368.6 45.2002C367 45.0002 365.5 44.8002 363.9 44.6002C367.6 45.1002 371.2 45.8002 374.8 46.8002C376.4 47.2002 378 47.7002 379.5 48.3002C380.4 48.6002 381.3 49.0002 382.3 49.3002C385.3 50.4002 378.5 47.6001 381.6 49.0002C378.9 42.3002 376.2 35.7002 373.5 29.0002C373.2 30.7002 373.6 29.8002 374.7 26.4002C375.8 24.5002 377.3 22.9002 379.2 21.8002C375.5 23.1002 382 21.0002 380.3 21.5002C378.2 22.1001 376.1 22.6002 373.9 22.9002C375.5 22.7002 377 22.5002 378.6 22.3002C323.9 28.9002 268.3 30.3001 213.2 28.0002C197.5 27.3001 181.8 26.3001 166.1 25.0001C166.1 36.8001 166.1 48.6002 166.1 60.4002C213.2 56.0002 260.6 54.0002 307.9 54.2002C306.3 42.6002 304.8 31.0002 303.2 19.4002C280.6 23.7002 257.8 27.3002 234.9 30.4002C236.5 30.2002 238 30.0002 239.6 29.8002C177.5 38.1002 115 42.5001 52.5 46.0001C34.8 47.0001 17.1001 47.9002 -0.599929 48.9002C-9.79994 49.4002 -18.7 56.7001 -18.2999 66.6002C-17.8999 76.2002 -10.5 84.2001 -0.599933 84.3002C50.2001 84.6001 100.9 85.0002 151.7 85.3002C166.1 85.4002 180.6 85.5002 195 85.6002C192 74.6002 189 63.6002 186.1 52.6002C184.3 53.4002 182.5 54.2002 180.7 55.0001C179.9 55.4002 179 55.7002 178.2 56.1002C182.7 53.8002 179.5 55.6001 178.4 56.0001C175 57.4002 171.6 58.7002 168.2 60.0001C160.7 62.7002 153.1 65.2002 145.4 67.4002C129.8 71.8002 113.9 75.1001 97.9 77.3002C99.5 77.1001 101 76.9002 102.6 76.7002C100.3 77.0001 98 77.3002 95.7 77.6002C100.8 80.5002 105.9 83.4002 111 86.4002C109.5 84.4002 108.2 82.3002 106.9 80.2002C106.3 79.1001 105.7 78.1002 105.2 77.0002C104.9 76.5002 104.7 75.9002 104.4 75.4002C105.5 78.1002 105.8 78.9002 105.3 77.6002C103.7 73.3002 102.5 69.1001 101.9 64.5001C102.1 66.1001 102.3 67.6001 102.5 69.2002C101.9 64.6002 101.9 60.0001 102.5 55.5001C102.3 57.1001 102.1 58.6002 101.9 60.2002C102.3 57.0001 103 53.9002 103.9 50.9002C104.3 49.6002 105.8 47.2002 105.7 45.9002C105.7 46.7002 103.9 50.1002 105.2 47.3002C105.6 46.5002 106 45.7002 106.4 44.9002C107.2 43.4002 108 42.0001 108.9 40.5001C109.4 39.7002 109.9 38.9002 110.5 38.2002C110.9 37.6002 112.7 35.3001 110.8 37.7002C108.9 40.1002 110.8 37.8002 111.2 37.3002C111.8 36.6002 112.5 35.8002 113.1 35.1002C114.4 33.6002 115.8 32.2002 117.3 30.9002C108 29.7002 98.8 28.5002 89.5 27.3002C90.7 29.7002 91.9 32.0001 93 34.5001C93.3 35.2002 93.6001 35.9002 93.9 36.6002C94.7 38.4002 94.5 38.0001 93.4 35.5001C93.2 36.1001 94.4 38.1002 94.6 38.6002C96.4 43.4002 98 48.4002 99.4 53.4002C102.1 63.3002 103.9 73.4002 105.3 83.6002C105.1 82.0002 104.9 80.5002 104.7 78.9002C106 88.7002 106.9 98.5002 107.8 108.3C108.4 115.5 111.7 121.5 118.7 124.5C125.6 127.4 132.4 125.5 138 120.8C140.7 118.6 143.4 116.3 146.2 114.1C147.5 113.1 148.8 112 150.1 111C150.3 110.8 153.3 108.5 151 110.3C148.7 112.1 151.4 110 151.9 109.6C157.6 105.3 163.4 101 169.3 96.9002C181.3 88.5002 193.6 80.6002 206.2 73.1002C197.5 69.6002 188.9 66.1002 180.2 62.5001C188.3 83.9001 192.9 106.3 196 128.9C195.8 127.3 195.6 125.8 195.4 124.2C197.2 137.9 198.5 151.6 199.8 165.3C200.5 172.8 204.8 180.5 212.8 182.4C220.3 184.1 229 181.4 232.8 174.3C246.7 148.5 260.5 122.7 274.4 96.8002C265.1 98.0002 255.9 99.2002 246.6 100.4C254.2 106.4 261.3 113 267.7 120.2C269.2 121.9 270.6 123.6 272.1 125.3C272.9 126.3 275.2 129.7 272.2 125.3C272.8 126.1 273.4 126.9 274 127.7C276.7 131.5 279.3 135.4 281.6 139.4C286 147 295.7 150 303.7 146.6C311.7 143.2 316.3 134.3 313.9 125.7C311.3 116.3 306.5 108.1 300.4 100.6C298.1 97.7002 295.5 95.0002 292.6 92.6002C289.2 89.7002 286 87.0002 281.5 85.9002C277.3 84.9002 273.1 85.1002 269 86.3002C262.7 88.1002 257.4 92.8002 254.1 98.3002C251.4 102.8 250.6 107.1 249.8 112.1C248.3 121.4 246.8 130.7 245.4 140.1C244.6 144.9 243.7 149.8 243.3 154.7C242.9 158.8 243.4 162.8 244.1 166.8C245.3 174.1 249.1 181.8 254.9 186.6C259 190 263.4 192.6 268.6 193.9C272.5 194.8 276.6 195.4 280.5 194.3C285.3 193 288.3 189.8 291.4 186.3C297.9 178.8 304.2 171 310.2 163.1C322 147.7 332.6 131.5 341.8 114.4C331.6 108.4 321.4 102.5 311.2 96.5002C308.6 102 305.8 107.4 302.6 112.6C301 115.1 299.4 117.6 297.7 120.1C296.8 121.5 295.8 122.8 294.9 124.1C294 125.3 290.2 130.1 294.2 125.1C285.9 135.4 277 145 267 153.7C264.5 155.9 262 158 259.5 160C258.8 160.6 258.1 161.1 257.4 161.7C254.7 163.9 260.9 159.1 258.1 161.1C256.6 162.2 255.2 163.3 253.7 164.4C247.9 168.6 242 172.5 236 176.2C229.8 180 223.4 183.6 216.9 186.9C213.7 188.5 210.5 190.1 207.3 191.6C205.5 192.4 203.7 193.2 202 194C201.4 194.3 200.8 194.5 200.2 194.8C199.6 195.1 199 195.3 198.4 195.6C201.1 194.5 201.6 194.2 199.9 195C183.7 201.7 167 207.1 149.9 211.1C154.4 211.7 159 212.3 163.5 212.9C162.4 212.4 161.3 211.5 160.2 211.1C158.5 210.5 163.4 213.5 162 212.4C160.7 211.4 161.1 209.9 163.2 214.1C163 213.7 162.7 213.3 162.5 212.9C161.3 211.2 163.5 215 163.5 215.3C163.7 214.7 162.8 212.7 162.7 212C162.9 213.6 163.1 215.1 163.3 216.7C163.1 215.1 163.2 213.5 163.4 211.8C163.2 213.4 163 214.9 162.8 216.5C163 215.2 163.3 213.9 163.6 212.6C163.9 211.7 165.4 207.6 164.1 210.9C162.8 213.9 163.8 211.7 164.1 211C164.5 210.3 164.8 209.6 165.2 208.8C166 207.4 166.8 205.9 167.6 204.5C169.3 201.5 171.2 198.5 173.2 195.7C174.1 194.3 175.1 192.9 176.1 191.6C176.6 190.9 177.1 190.2 177.6 189.6C179.8 186.6 175 192.9 177.3 189.9C186.7 178.2 197.4 167.8 209.3 158.6C199.4 152.9 189.6 147.1 179.7 141.4C177.9 147.6 176.1 153.7 173.9 159.8C173.4 161.3 172.8 162.7 172.3 164.2C172 164.9 171.8 165.5 171.5 166.2C170.3 169.2 173.2 162.3 172 165.1C170.7 168.1 169.2 171.1 167.7 174C166.2 176.8 164.5 179.5 162.7 182.1C162.2 182.8 161.7 183.5 161.2 184.2C160 185.9 163.9 180.8 162.1 183.1C161 184.5 159.8 185.8 158.6 187.2C156.3 189.7 153.9 192 151.3 194.2C150.3 195 147.6 196.7 151.9 193.8C151.1 194.3 150.3 194.9 149.5 195.5C147.9 196.6 146.2 197.7 144.4 198.7C153.1 202.2 161.7 205.7 170.4 209.3C157.8 177.7 148.3 145 142.4 111.5C141.2 104.7 134 99.7002 127.7 98.8002C121.3 97.9002 113 100.9 110.1 107.2C97.8 134.4 85.4 161.6 73.1 188.7C83.9 190.1 94.7 191.5 105.4 192.9C101 175.8 97.6 158.5 95.3 141C95.5 142.6 95.7 144.1 95.9 145.7C92.1 116.5 91.2 87.0002 93.3 57.6002C81.7 59.2002 70.1001 60.7002 58.5 62.3002C59.3 65.3002 60 68.2001 60.4001 71.3002C60.2001 69.7001 60 68.2002 59.8 66.6002C60.4 71.7002 60.4001 76.9002 59.7001 82.0002C59.9001 80.4002 60.1 78.9002 60.3 77.3002C59.8 81.0002 58.9 84.5002 57.8 88.0002C57.5 88.9002 57.2001 89.8002 56.9001 90.6002C56.6001 91.3002 55.5 94.0002 56.7001 91.1002C58 88.1002 56.5 91.4002 56.2001 92.0002C55.8 92.9002 55.3001 93.7002 54.9001 94.6002C53.1001 97.9002 50.9 101 48.8 104.1C51.8 99.8002 49.8 102.8 49 103.7C48.3 104.5 47.7001 105.3 47 106C45.6 107.5 44.1001 109 42.6001 110.5C50.9001 110.5 59.3001 110.5 67.6001 110.5C66.2001 109 64.8001 107.5 63.4001 105.9C62.5 104.8 61.1001 102.1 63.6001 106.3C63.2001 105.6 62.6001 105 62.1001 104.3C59.9001 101.3 58 98.0001 56.3 94.7001C55.9 93.8002 55.5001 93.0002 55.1001 92.1002C53.8001 89.4002 56.3001 95.3002 55.6001 93.3002C55.0001 91.7001 54.4001 90.1002 53.9001 88.5002C52.8001 85.0002 52.1001 81.4002 51.6001 77.7001C51.8001 79.3002 52 80.8002 52.2001 82.4002C51.6001 77.3002 51.6001 72.1001 52.2001 67.0001C52 68.6001 51.8001 70.1001 51.6001 71.7001C52.0001 68.8002 52.5 66.0001 53.3 63.2001C53.7001 61.9002 54.1 60.5001 54.5 59.2001C54.7001 58.6002 54.9001 58.0001 55.1001 57.4002C56.3001 54.1002 53.3 61.4002 54.8 58.1002C45.5 59.3002 36.3 60.5001 27 61.7001C57.5 86.8002 88.1 112 118.6 137.1C125.4 142.7 132.3 148.5 140 152.7C148.9 157.6 158.3 160.5 168.4 161.2C178.3 161.9 188.6 159.4 197.9 155.8C206.3 152.5 214.4 148.7 221.6 143.3C236.6 132.3 249.8 117.2 253.5 98.4002C254.9 91.3002 253.1 84.4002 247.2 79.8002C241.3 75.2002 234.1 75.2002 227.6 78.4002C183.6 99.8002 140 122 96.9 145.2C104 146.1 111.2 147 118.3 148C108 135.8 97.6 123.7 87.3 111.5C84.6 108.3 78.8 106.1 74.8 106.3C70.1 106.5 65.7001 108.1 62.3 111.5C46.3 127.1 34.6001 146.3 24.4001 166C13.5 187.3 2.80002 208.6 -7.99997 230C3.00003 233 14 236 25 238.9C21.3 190.2 17.7001 141.4 14 92.7001C13.5 85.7001 13 78.8002 12.4001 71.8002C11.9001 65.6001 10.8001 59.0001 11.4001 52.7001C11.2001 54.3001 11 55.8002 10.8 57.4002C10.9 56.8002 11 56.2001 11.2001 55.6002C9.90007 58.3002 9.70006 58.9002 10.6001 57.2001C8.70006 59.5001 8.30003 60.0002 9.50005 58.8002C7.00005 60.6002 6.40007 61.0001 7.90007 60.0001C8.90007 59.4002 10.1001 58.9002 11.1001 58.3002C8.30009 59.4002 7.80009 59.7001 9.60008 59.0001C10.2001 58.8001 10.9001 58.6002 11.5 58.4002C17.2001 56.6002 23 55.2001 28.8 53.7001C41.3 50.4002 53.8 47.0001 66.3 43.7002C59.6 41.0001 53 38.3002 46.3 35.6002C46.6 36.3002 46.9 37.0001 47.3 37.7001C48.5 40.3001 46.8001 36.7001 46.9001 36.7001C47 36.7001 48.5 41.0001 48.7001 41.5001C49.8 44.5001 50.7001 47.6002 51.6001 50.7001C53.3001 56.8001 54.5 63.0002 55.3 69.3002C55.1 67.7002 54.9001 66.2002 54.7001 64.6002C57.6001 86.4002 56.8001 108.7 55.9001 130.6C55 153.9 53.4001 177.2 51.1001 200.4C49.8001 213.6 48.2 226.9 46.5 240.1C46.7 238.5 46.9001 237 47.1001 235.4C43.0001 265.5 37.8001 295.4 31.4 325.1C42.8001 325.1 54.1 325.1 65.5 325.1C56.8 280.1 48.2 235.2 39.5 190.2C37.8 181.6 28.2 176.4 20.1001 177.5C11.0001 178.7 5.50003 186 4.80002 194.9C-0.29996 254.5 -2.89994 314.3 -2.89995 374.1C-2.89995 390.9 -2.7 407.7 -2.29997 424.4C-2.09996 431.9 3.00001 439.7 10.7 441.5C18.4 443.3 26.5 440.3 30.7 433.4C37.9 421.2 45.7 409.3 53.8 397.8C58 391.9 62.2 386.1 66.6001 380.4C68.9 377.4 64.6001 382.9 66.2 381C66.8 380.3 67.3 379.6 67.9 378.9C69 377.5 70.2 376 71.3 374.6C73.6 371.7 75.9 368.9 78.2 366.1C96.8 343.7 117.1 322.1 139.1 303C140.4 301.9 141.7 300.8 143 299.7C143.6 299.2 144.3 298.7 144.8 298.2C141 301.7 143.2 299.4 144.2 298.7C147 296.6 150 294.6 153 292.8C156.1 290.9 159.5 289.6 162.6 287.9C158.2 290.3 160.8 288.7 162.1 288.2C163.1 287.8 164 287.5 165 287.2C167 286.6 169 286 171.1 285.5C166.6 284.9 162 284.3 157.5 283.7C161.2 285.7 164.9 287.8 168.6 289.8C167.4 280.5 166.2 271.3 165 262C169.2 258.8 165.5 261.6 164.4 262.4C163.3 263.2 162.2 264.1 161.1 264.9C158.9 266.6 156.6 268.3 154.3 269.9C149.6 273.3 144.8 276.7 140 280C130.4 286.6 120.6 292.9 110.6 299C90.3 311.4 69.4 322.7 47.9 332.9C41.8001 335.8 35.6 338.7 29.5 341.4C26.4 342.8 23.3001 344.2 20.1001 345.5C19.4 345.8 18.7 346.1 18 346.4C17.5 346.6 17 346.8 16.4 347.1C17.1001 346.8 17.8 346.5 18.5 346.2C17.2 346.1 14.4 347.9 13.2 348.4C19.9 351.1 26.5 353.8 33.2 356.5C32.7 355.9 30.8001 352.2 32.1001 355.2C33.3001 358.2 32.1001 354.5 31.9 353.8C32.1001 355.4 32.3 356.9 32.5 358.5C32.3 357 32.3 355.5 32.5 354C32.3 355.6 32.1001 357.1 31.9 358.7C32 357.8 32.2 356.9 32.5 356C32.7 355.4 32.9 354.8 33.1001 354.2C32.8001 355 32.4 355.8 32.1001 356.6C32.8001 354.6 34.2 352.5 35.3 350.7C35.9 349.8 36.5001 349 37.1001 348.1C38.0001 346.7 34.4 351.4 37 348.3C38.4 346.6 39.8 345 41.2 343.4C47.1001 336.7 53.2 330.3 59.5 324.1C65.8 317.9 72.4 311.8 79.2 306C82.6 303 86.1 300.2 89.6 297.3C90.6 296.5 91.7 295.6 92.7 294.8C93.2 294.4 96.2 291.8 94.1 293.7C91.9 295.6 95 293 95.5 292.6C96.6 291.8 97.6 291 98.7 290.2C94.2 290.8 89.6 291.4 85.1 292C88.9 293.3 92.7 294.5 96.5 295.8C93 287.1 89.5 278.5 85.9 269.8C72.5 299.3 59.2 328.8 45.8 358.3C43.4 363.6 42.6001 368.5 44.9 374C46.9 378.7 51.1001 383.3 56.4 384.2C66.6001 386 75.8 384.7 85.1 380.1C91.4 377 97 372.2 101.9 367.2C112.6 356.4 123.1 345.4 133.8 334.5C155.5 312.3 177.2 290 198.8 267.8C211 255.3 223.2 242.8 235.4 230.3C225.5 224.6 215.7 218.8 205.8 213.1C205.4 215.4 204.9 217.7 204.2 219.9C203.9 220.9 203.5 222 203.1 223C202.9 223.5 202.6 224 202.5 224.5C202.7 223.7 204 221.2 203 223.3C200.8 227.9 198.4 232.4 195.7 236.7C190.3 245.7 184.6 254.6 179.1 263.6C167.7 282 156.4 300.3 145 318.7C138.5 329.2 132 339.7 125.5 350.2C120.6 358.1 123.5 370 131.8 374.4C140.7 379.1 150.5 376.3 156 368.1C162.7 358.1 169.7 348.4 176.9 338.7C177.7 337.6 178.5 336.6 179.3 335.5C179.8 334.9 180.2 334.3 180.7 333.7C181.1 333.2 182.5 331.1 181.1 333.2C179.6 335.6 182.1 331.9 182.5 331.4C183.7 329.9 184.9 328.4 186 326.9C189.7 322.3 193.4 317.7 197.2 313.1C205 303.7 213 294.6 221.3 285.6C228.4 277.9 235.5 270.3 243.5 263.6C244.4 262.8 246 262.1 242.1 264.7C242.7 264.3 243.3 263.8 243.9 263.3C245 262.5 246.2 261.7 247.3 261C249.6 259.5 252 258.1 254.5 256.9C254.9 256.7 255.3 256.5 255.8 256.3C258.9 254.9 254.7 256.5 254.6 256.8C254.7 256.3 258 255.6 258.6 255.4C261.5 254.5 264.5 253.9 267.5 253.4C265.9 253.6 264.4 253.8 262.8 254C265.1 253.7 267.5 253.6 269.8 253.6C264.1 249.3 258.4 244.9 252.7 240.6C253.7 244.4 254.4 248.3 254.9 252.2C254.7 250.6 254.5 249.1 254.3 247.5C255.9 260.8 255.1 274.2 253.3 287.4C253.5 285.8 253.7 284.3 253.9 282.7C250.4 308.7 245.3 334.6 240.6 360.5C235.8 386.4 230.9 412.2 225.6 438.1C222.6 452.7 219.6 467.3 216.5 481.9C228.1 483.5 239.7 485 251.3 486.6C247 421.4 244.6 356.1 244 290.8C243.9 272.3 243.9 253.8 244 235.4C233 238.4 222 241.4 211 244.3C216.8 255.6 222.3 266.9 227.5 278.5C229.9 283.9 232.3 289.2 234.6 294.7C234.9 295.4 235.2 296.1 235.5 296.9C234.5 294.5 234.3 294.1 235.1 295.9C235.7 297.3 236.3 298.8 236.9 300.2C238.1 303.1 239.3 306 240.4 308.9C249.4 331.5 257.3 354.6 264 378C271.3 370.7 278.5 363.5 285.8 356.2C284.7 355.9 283.7 355.5 282.6 355.1C282.1 354.9 281.6 354.7 281.1 354.5C282 354.9 282.9 355.3 283.8 355.7C282.3 355.6 280.1 353.9 278.8 353.2C275.6 351.4 272.7 349.3 269.7 347.2C275 351 269.8 347.2 268.5 346.1C267.1 344.9 265.8 343.7 264.5 342.6C261.7 340.1 259 337.6 256.3 335.1C250.1 329.6 243.7 324.2 236.5 320.1C227.4 315 217.9 312.4 207.5 311.5C198.7 310.7 188.8 320.3 189.8 329.2C194.7 374.2 200.2 419.2 206.2 464C208 477.8 209.9 491.6 211.8 505.4C223.2 502.3 234.5 499.1 245.9 496C235.3 451.3 224.7 406.5 214 361.8C212.3 354.6 204.4 348.5 196.9 348.8C188.8 349.2 182.4 354.1 179.8 361.8C166.5 401.5 153.3 441.3 140 481C149.9 478.4 159.7 475.8 169.6 473.2C165.1 469.3 160.9 465.1 157.2 460.6C156.8 460.1 156.4 459.7 156.1 459.2C154 456.6 158.3 462.2 157 460.3C156.2 459.2 155.4 458.2 154.7 457.1C153.1 454.7 151.5 452.3 150.1 449.7C147.5 445.1 145.2 440.4 143 435.5C142.1 433.4 144.8 440 143.6 437C143.4 436.5 143.2 435.9 143 435.4C142.5 434.2 142.1 433 141.6 431.8C140.7 429.3 139.8 426.7 138.9 424.2C131.6 402.5 126.4 380.3 116.7 359.6C110.8 347.1 102.9 335.5 93.3 325.5C83.9 315.7 67.4 320.8 63.7 333.3C49.7 383.2 40 435.1 35.4 487.4C35 491.5 37.6 497.2 40.6 499.9C43.5001 502.6 46.8 504.2 50.8 504.8C58.7 505.9 68.9 500.8 70.2 492.1C77.2 446.4 83.3 400.5 88.7 354.6C93.9 309.9 98.2 265.1 101.8 220.3C103.8 195.1 105.5 169.8 107 144.5C95.4 146.1 83.8 147.6 72.2 149.2C94.5 211.4 115.5 274 135.1 337.1C140.6 354.9 146.1 372.8 151.4 390.7C154.2 400.1 163.7 405.3 173.2 403.1C182.7 400.9 190.9 394.2 195.3 385.5C199.3 377.6 201.5 368.8 204.2 360.4C209.8 343.1 215.3 325.8 220.9 308.5C232 274.1 243 239.7 254.1 205.3C257.2 195.7 260.3 186 263.4 176.4C264.2 174 264.9 171.7 265.7 169.3C266.1 168.1 266.5 166.9 266.8 165.8C267.6 163.2 268.2 163.9 266.2 166.8C266.6 166.2 267 165.4 267.3 164.8C268.8 162.1 264.5 167.9 266.5 165.9C268.8 163.7 262.7 168.2 265.4 166.7C267 165.9 266.3 166.1 263.3 167.5C263.8 167.3 264.3 167.2 264.8 167.2C263.2 167.4 261.7 167.6 260.1 167.8C261 167.7 261.7 167.8 262.6 167.9C261 167.7 259.5 167.5 257.9 167.3C258.2 167.4 258.5 167.4 258.8 167.5C254.7 163.4 250.6 159.3 246.4 155.1C246.7 156.6 246.9 158.1 247.1 159.6C246.9 158 246.7 156.5 246.5 154.9C247.7 164.3 247.5 173.6 246.3 183C246.5 181.4 246.7 179.9 246.9 178.3C245.5 188.2 243.1 197.9 239.9 207.3C238.3 212.1 236.5 216.9 234.7 221.6C234.2 222.9 233.7 224.1 233.2 225.4C233 225.9 232.7 226.5 232.5 227C232.5 227.1 234 223.6 233.2 225.3C232.2 227.5 231.3 229.7 230.3 232C222.8 248.7 214.2 264.9 204.7 280.5C199.7 288.6 194.5 296.6 189 304.4C186.3 308.3 183.5 312.1 180.7 315.9C179.4 317.7 178 319.4 176.7 321.2C176.6 321.3 179 318.3 177.8 319.8C177.5 320.2 177.1 320.7 176.8 321.1C175.9 322.3 175 323.4 174.1 324.6C161.9 339.9 148.7 354.4 135 368.4C120.9 382.7 106.4 396.6 92.8 411.4C85.5 419.4 78.4 427.5 72.1 436.3C66.2 444.5 60.9 454.1 59.2 464.1C51.1 512.7 108.1 527.7 144.2 536.6C185.2 546.7 227.5 552.2 269.8 553.2C275 553.3 280.1 553.4 285.3 553.4C294.6 553.4 303.4 545.3 303 535.7C302.6 525.9 295.2 518.3 285.3 518C240.8 516.8 196.3 515.9 151.7 515.1C107.2 514.4 62.6 513.9 18.1 513.6C-7.09997 513.5 -32.1999 513.4 -57.4 513.4C-55.8 525 -54.3 536.6 -52.7 548.2C-46.4 547.2 -40.1 546.2 -33.7 545.4C-35.3 545.6 -36.8 545.8 -38.4 546C21.3001 538 81.8 536.6 141.9 533.9C202.7 531.2 263.5 528.9 324.4 527C341.5 526.5 358.5 526 375.6 525.5C390.9 525.1 406.2 524.3 421.4 526.3C419.8 526.1 418.3 525.9 416.7 525.7C420.7 526.3 424.7 527 428.6 528.1C430.5 528.6 432.4 529.2 434.2 529.9C434.9 530.1 437.6 531.3 434.8 530.1C431.7 528.8 435.6 530.6 436.1 530.8C439.1 519.8 442.1 508.8 445 497.8C388.2 501.9 331 501.5 274.3 496.5C258.4 495.1 242.5 493.3 226.7 491.2C228.3 491.4 229.8 491.6 231.4 491.8C221.2 490.4 210.9 488.9 200.7 487.2C205 492.9 209.4 498.6 213.7 504.3C213.7 503.6 213.7 502.9 213.8 502.1C213.6 503.7 213.4 505.2 213.2 506.8C213.3 506 213.6 505.2 213.7 504.4C214.4 501 211.6 508.1 213.2 505.6C213.6 505 214 504.3 214.4 503.7C216 501.1 211.5 506.9 213.5 504.8C214.9 503.4 216.3 502.2 217.7 500.8C214.2 504.2 215.7 502.4 217 501.5C217.8 501 218.5 500.5 219.3 500C221.2 498.8 223.2 497.8 225.2 496.8C226.1 496.4 227 496 227.9 495.6C231.1 494.1 224.3 497 227.3 495.8C231.5 494.2 235.7 492.8 240 491.5C258.2 486.1 277.4 481.5 291.7 468.3C297.2 463.2 298.6 453.2 294.5 446.9C292.9 444.3 290.7 442.2 288.2 440.6C284 437.9 279.3 438.2 274.6 438.8C251.4 442 228.3 446.9 205.8 453.4C195 456.5 184.3 460.1 173.8 464C163.2 468 152.8 472.7 141.5 474.5C143.1 474.3 144.6 474.1 146.2 473.9C142.3 474.4 138.4 474.5 134.4 474C136 474.2 137.5 474.4 139.1 474.6C137.2 474.3 135.3 473.9 133.4 473.2C130.1 472.1 133.9 473.8 134.4 473.7C134.1 473.8 132.1 472.5 131.9 472.3C131.2 471.9 130.1 471.4 129.5 470.7C130.1 471.5 132.7 473.3 130.5 471.4C129.2 470.3 128 469.1 126.9 467.9C121.4 462.2 116.4 455.9 111.2 449.9C99.7 436.5 88.1 423.1 76.6 409.7C68.8 400.7 54.5 404.3 48.8 413.3C32 439.4 15.3 465.5 -1.49999 491.7C7.8 490.5 17 489.3 26.3 488.1C23.7 485.6 21.2 483 18.9 480.2C18.4 479.7 18.0001 479.1 17.6 478.6C15.3001 475.8 19.3001 481 18.1 479.3C17.1 477.9 16.1 476.5 15.1 475C13.3001 472.3 11.7 469.5 10.3 466.7C9.59999 465.4 7.60005 460.2 9.60005 465.5C9.00007 464 8.40003 462.5 7.90003 460.9C4.90004 452.2 -4.39995 445.5 -13.9 448.5C-23.4 451.6 -28.4 460.6 -26.3 470.3C-22.2 488.4 -16.9999 506.8 -6.89996 522.6C5.90003 542.7 25.2 556.5 47.9 563.5C71.3 570.7 96.6 571.1 121 571.5C147.5 572 174 572.4 200.5 572.9C253.7 574 307.1 574.9 360.5 575.8C386.9 576.3 413.2 576.7 439.6 576.8C465.7 577 492.1 577.7 518.1 575.6C532.5 574.4 546.9 572.5 560.2 566.6C566.8 563.7 573.2 558.6 576.4 552.1C580.9 543.2 580 534.4 578.3 524.9C573.7 500.2 562.5 477.4 557.1 453C555.7 446.8 554.7 440.5 553.8 434.1C554 435.7 554.2 437.2 554.4 438.8C551.7 418.1 551.3 397.2 550.7 376.4C550.2 355.1 549.2 333.8 547.7 312.6C544.6 269.2 539.3 225.8 532 182.9C528 159.1 523.3 135.4 518 111.8C516 102.8 505 96.6002 496.2 99.4002C486.7 102.5 481.7 111.5 483.8 121.2C492.3 159.2 499.2 197.5 504.5 236.1C504.3 234.5 504.1 233 503.9 231.4C509.3 271.7 512.9 312.3 514.6 353C516.3 394.2 514.8 436.2 526.5 476.1C532.6 497 541.6 517.1 544.8 538.7C544.6 537.1 544.4 535.6 544.2 534C544.5 536.1 544.6 538.1 544.3 540.2C544.5 538.6 544.7 537.1 544.9 535.5C544.8 536.1 544.4 536.9 544.4 537.5C545.5 535.2 545.7 534.5 545.1 535.6C544.6 536.3 544.8 536.1 545.8 534.8C547.6 532.4 546.2 534 545.8 534.5C544.7 535.9 549 532.4 547.3 533.4C546.1 534.1 544.9 534.8 543.7 535.5C541.6 536.6 544.8 535.2 545.2 534.9C544.5 535.3 543.5 535.5 542.8 535.8C536.7 537.8 530.2 539 523.8 539.8C525.4 539.6 526.9 539.4 528.5 539.2C514.1 541.1 499.5 541.3 484.9 541.5C470.2 541.7 455.5 541.7 440.7 541.7C410.6 541.6 380.6 541 350.5 540.5C290.5 539.4 230.6 538.4 170.6 537.3C153.8 537 136.9 536.7 120.1 536.4C105 536.1 89.9 535.8 74.9 533.8C76.5 534 78 534.2 79.6 534.4C70 533.1 60.4 531.1 51.3 527.7C50.5 527.4 46.9 525.9 49.7 527.1C52.6 528.3 48.7 526.6 48.2 526.3C46.2 525.3 44.2 524.3 42.3 523.1C40.4 522 38.6 520.8 36.9 519.6C36.5 519.3 36.2 519.1 35.8 518.8C34.4 517.8 37.6 520.3 37.6 520.2C37.4 519.6 35.4 518.4 34.9 518C31.9 515.4 29.1 512.5 26.6 509.5C26.3001 509.1 25.9 508.5 25.5 508.2C25.3 508 28 511.6 27 510.1C26.4 509.3 25.9 508.5 25.3 507.8C24.2 506.2 23.2 504.6 22.2 503C20.2 499.7 18.5 496.4 16.9 492.9C16.7 492.5 16.3 491.8 16.2 491.4C16.2 491 17.9 495.5 17.2 493.8C16.9 492.9 16.5001 492 16.1 491.2C15.4 489.4 14.8 487.7 14.2 485.9C11.5 477.9 9.40003 469.6 7.60005 461.4C-3.79998 464.5 -15.1 467.7 -26.5 470.8C-20.8 487.1 -11.4 501.6 1.00001 513.7C9.40003 521.9 22.6 519.7 28.8 510.1C45.6 484 62.3 457.9 79.1 431.7C69.8 432.9 60.6 434.1 51.3 435.3C63 448.8 74.6 462.4 86.3 475.9C97.6 489 108.4 504 126.2 508.5C144.9 513.2 162.5 506.3 179.6 499.7C195.2 493.4 211 488.4 227 484.2C245.7 479.3 264.6 475.6 283.7 472.9C278 463 272.2 453.2 266.5 443.3C265.3 444.4 262.2 446.2 266.8 443.3C266.1 443.8 265.4 444.3 264.7 444.8C262.9 446 261.1 447 259.2 447.9C258.1 448.5 257 449 255.8 449.5C252.7 450.9 259.5 448.1 256.5 449.2C254.4 450 252.2 450.8 250.1 451.5C241.1 454.5 231.8 456.7 222.8 459.8C202.7 466.7 178.3 479.8 178.2 504.2C178.2 511.3 183.7 520 191.2 521.3C256.7 532.1 323.2 537 389.6 535.6C408.1 535.2 426.5 534.3 444.9 533C452.4 532.5 460.2 527.9 462 520C463.7 512.6 461 503.7 453.9 500C438.9 492.4 422.3 490 405.6 489.5C389.8 489.1 374 489.9 358.3 490.4C324.2 491.4 290 492.5 255.9 493.7C188.2 496.1 120.6 498.9 53 502.5C14.5 504.6 -24 507.6 -62.1 513.8C-66 514.4 -70.9 518.5 -72.7 521.9C-74.6 525.5 -75.3 529.2 -74.8 533.2C-73.6 541.8 -66.3 548.5 -57.4 548.5C-12.9 548.5 31.7 548.7 76.2 549.2C120.7 549.7 165.3 550.3 209.8 551.3C234.9 551.8 260.1 552.4 285.2 553.1C285.2 541.3 285.2 529.5 285.2 517.7C259 517.8 232.9 516.1 207 512.6C208.6 512.8 210.1 513 211.7 513.2C191.2 510.4 170.8 506.6 150.8 501.5C141.3 499.1 131.9 496.6 122.6 493.5C120.5 492.8 118.4 492.1 116.3 491.3C115.4 490.9 114.4 490.6 113.5 490.2C113 490 112.6 489.8 112.1 489.6C110 488.8 115.6 491.2 113.6 490.2C109.7 488.3 105.8 486.5 102.1 484.2C101.2 483.6 100.3 483 99.5 482.4C96.4 480.2 102.5 484.9 99.6 482.5C98.1 481.2 96.7 479.8 95.4 478.4C92.9 475.7 97.6 481.8 95.7 478.8C95.2 478 94.7 477.2 94.3 476.4C94.1 476 93.9 475.5 93.6 475C92.6 473.1 94.9 478.9 94.1 476C93.8 474.8 93.5 473.6 93.2 472.3C93.4 473.9 93.6 475.4 93.8 477C93.5 474.5 93.5 472 93.8 469.5C93.6 471.1 93.4 472.6 93.2 474.2C93.6 471.6 94.2 469.1 95 466.6C95.2 466.1 95.6 465.3 95.7 464.7C95.1 468.1 94.4 467.5 95.1 466.1C95.9 464.5 96.7 463 97.5 461.5C98.9 459 100.5 456.6 102.2 454.3C102.6 453.7 103.1 453.1 103.5 452.5C105.2 450.1 103 453.2 102.7 453.5C103.9 452.1 105 450.6 106.2 449.2C114.3 439.5 123 430.2 131.9 421.2C149.9 402.8 168.6 385 185.5 365.6C218.9 327.1 246.5 284.3 266.2 237.3C271.9 223.7 276.9 209.8 279.8 195.3C283.1 178.6 283.6 162.2 280.6 145.5C279.6 139.8 273.8 134.4 268.2 133.1C255.2 130.1 243 136 236.3 147.4C233.9 151.6 232.6 156.3 231.1 160.9C229.7 165.2 228.3 169.5 226.9 173.9C221.2 191.6 215.5 209.3 209.8 227C198.4 262.4 187 297.7 175.7 333.1C172.5 342.9 169.4 352.7 166.2 362.6C166 363.2 163.7 368.4 164.1 368.9C164 368.8 166.2 364.5 165 366.8C164.5 367.7 164.1 368.6 163.5 369.5C162.3 371.5 161.6 370.5 164.4 368.4C163.9 368.8 163.1 369.5 162.7 370.1C163.5 369.5 164.2 368.9 165 368.3C164.5 368.6 164.1 368.9 163.6 369.1C166.6 368 167.2 367.7 165.4 368.3C164.8 368.5 164.2 368.6 163.6 368.8C170.9 372.9 178.1 377 185.4 381.2C166.6 318 146.4 255.2 124.9 192.9C118.8 175.1 112.5 157.4 106.2 139.7C103.2 131.3 95.9 125.8 86.8 127C77.8 128.2 72 135.5 71.5 144.4C67.3 216.6 61 288.7 52.5 360.6C50.1 380.9 47.5 401.3 44.8 421.5C45 419.9 45.2 418.4 45.4 416.8C42.4 438.7 39.3 460.7 36 482.5C47.6 484.1 59.2 485.6 70.8 487.2C71.8 475.3 73.2 463.4 74.7 451.5C74.5 453.1 74.3 454.6 74.1 456.2C79.3 417.5 87.5 379.3 98.5 341.9C88.6 344.5 78.8 347.1 68.9 349.7C70.8 351.7 72.7 353.8 74.4 355.9C74.8 356.3 76.7 358.8 74.7 356.2C72.7 353.6 74.6 356.1 74.9 356.6C75.8 357.8 76.6 359 77.5 360.2C80.6 364.8 83.3 369.6 85.7 374.6C86.8 376.9 88.1 379.2 88.9 381.7C88.9 381.7 87.1 377.3 88.1 379.9C88.3 380.4 88.5 381 88.7 381.5C89.3 383 89.8 384.4 90.4 385.9C92.2 390.9 93.9 395.9 95.5 400.9C102.2 422.6 107.8 444.9 118.9 464.9C125.7 477.1 134.6 488.3 145.2 497.4C150.1 501.6 156 503.7 162.4 501.9C168.6 500.2 172.8 495.5 174.8 489.5C188.1 449.8 201.3 410 214.6 370.3C203.2 370.3 191.9 370.3 180.5 370.3C191.1 415 201.7 459.8 212.4 504.5C214.5 513.5 225.3 519.7 234.2 516.9C238.5 515.5 242.6 512.9 244.8 508.8C247.2 504.3 247.3 500.2 246.6 495.2C245.2 485.4 243.9 475.6 242.6 465.8C242.8 467.4 243 468.9 243.2 470.5C236.8 423.2 231.1 375.8 225.9 328.3C220 334.2 214.1 340.1 208.2 346C209.1 346.1 209.9 346.2 210.8 346.3C209.2 346.1 207.7 345.9 206.1 345.7C209.9 346.3 213.4 347.3 217 348.5C219.9 349.6 212.8 346.5 215.6 347.9C216.5 348.4 217.4 348.8 218.3 349.3C219.6 350 220.9 350.8 222.2 351.6C223.7 352.5 225.1 353.6 226.5 354.6C229 356.4 222.7 351.6 225.6 353.9C226.3 354.5 227 355 227.6 355.6C230.2 357.8 232.8 360.1 235.3 362.4C247.8 373.8 260.6 384.5 277.1 389.5C290 393.5 302.5 380.5 298.9 367.7C284.7 318.7 265.5 271.1 242.3 225.7C238.9 219 229.4 215.3 222.3 217.6C214.8 220 209.4 226.6 209.3 234.7C208.8 300 210.1 365.3 213.3 430.5C214.2 449 215.3 467.4 216.5 485.9C217.1 494.8 222.8 502.1 231.8 503.3C240 504.4 249.4 499.3 251.2 490.6C258.3 457.4 265 424.2 271.3 390.9C277.5 358.3 283.9 325.5 288.5 292.6C291.4 271.8 292.6 251.1 287.4 230.5C285.5 223 278 217.5 270.3 217.5C244.3 217.6 222.8 232.2 205.4 250.4C186.3 270.5 168.4 291.7 151.5 313.7C142.6 325.3 134 337.2 125.8 349.4C136 355.4 146.2 361.3 156.4 367.3C179.4 330.1 202.6 293.1 225.4 255.8C231.8 245.3 238.2 234 240.2 221.7C240.9 217.6 241 214.1 239.3 210.2C237.9 206.8 235.4 203.5 232.1 201.7C225.2 198 216.3 198.7 210.7 204.5C170.5 245.7 130.3 286.9 90.1 328.2C84.8 333.7 79.6 339.4 74 344.5C73.5 344.9 73.1 345.3 72.6 345.7C72.2 346 71.9 346.3 71.5 346.6C70.5 347.4 71 347 73.2 345.3C71.8 345.9 70.5 347.2 69.2 347.9C68.6 348.2 68.1 348.5 67.5 348.8C64.8 350.2 70.7 347.7 68.6 348.3C66.9 348.8 65.3 349.3 63.5 349.6C65.1 349.4 66.6 349.2 68.2 349C66.2 349.2 64.3 349.2 62.3 348.9C63.9 349.1 65.4 349.3 67 349.5C66.7 349.4 66.3 349.4 66 349.3C69.5 358 73 366.6 76.6 375.3C90 345.8 103.3 316.3 116.7 286.8C119.1 281.5 119.9 276.6 117.6 271.1C115.4 265.9 111.5 262.6 106.1 260.9C98 258.2 89.2 254 81 258.9C75.9 261.9 71.2 266.3 66.5 270.1C58.9001 276.2 51.4001 282.5 44.2 289.1C37.3 295.4 30.7 302 24.3 308.8C17.2 316.3 9.80001 324.2 4.30001 333C-3.19999 345 -6.19999 361.4 2.80001 373.6C5.20003 376.8 7.50002 379.2 11.3 380.8C14.6 382.2 19.4 383.1 22.8 381.7C69.1 362.6 113.8 339.7 155.3 311.5C167.2 303.4 178.7 294.9 190.1 286.1C194.4 282.8 195.6 276.2 195 271.2C194.3 265.9 191.4 260.9 186.6 258.3C182.9 256.3 179.3 254.1 175.5 252.2C168.2 248.5 161.1 250.2 153.8 252.8C145.8 255.6 138.2 259.3 131.1 264C117.8 272.8 106.2 284 94.9 295.1C71 318.5 49.1 343.9 29.3 370.8C18.9 385 9.10005 399.6 0.200026 414.7C11.2 417.7 22.2 420.7 33.2 423.6C31.8 363.8 32.9 304 36.6001 244.4C37.6001 227.6 38.9 210.9 40.3 194.1C28.7 195.7 17.1 197.2 5.50003 198.8C14.2 243.8 22.8 288.7 31.5 333.7C32.9 341 41.3001 347 48.6001 346.7C56.1001 346.4 64 341.5 65.7 333.7C74.6 292.2 81.3 250.2 85.8 208C88 187.6 89.6 167.1 90.7 146.6C91.7 126.6 92.6 106.5 92 86.4002C91.3 62.3002 87.2 38.9002 77 16.9002C73.7 9.90016 64.1 6.90016 57 8.80019C39.7001 13.4002 22.3001 17.8001 5.10009 22.7001C-4.99989 25.5001 -15 30.0001 -20.2999 39.5001C-25.5999 48.8001 -23.5999 59.7001 -22.7999 69.9002C-20.0999 105.7 -17.4 141.6 -14.7 177.4C-13.2 197.7 -11.5999 217.9 -10.0999 238.2C-9.49997 245.7 -4.99997 253.5 2.90005 255.3C10.2 257 19.3001 254.3 22.9001 247.2C33.5 226.2 44.1001 205.1 54.9001 184.1C59.5 175.2 64.3 166.3 69.7 157.8C71.1 155.6 72.6 153.4 74.2 151.2C74.8 150.3 75.5 149.5 76.1 148.6C77.2 147.1 77 147.5 75.3 149.6C75.7 149 76.2 148.5 76.6 147.9C80.1 143.6 83.8 139.5 87.7 135.7C79.4 135.7 71 135.7 62.7001 135.7C73 147.9 83.4 160 93.7 172.2C98.9 178.3 108.6 178.5 115.1 175C158.2 151.8 201.7 129.5 245.8 108.2C237.1 101.5 228.5 94.9002 219.8 88.2002C219.5 89.6002 219.2 91.0002 218.8 92.3002C218.6 92.9002 218 96.1002 217.4 96.4002C217.6 96.3002 219.6 91.8002 218.1 94.7002C217.8 95.3002 217.5 95.9002 217.2 96.5002C216.6 97.7002 215.9 98.9002 215.2 100C214.4 101.3 213.5 102.5 212.6 103.8C211.4 105.5 215.4 100.4 213.5 102.6C212.9 103.3 212.4 103.9 211.8 104.6C209.7 106.9 207.5 109.1 205.2 111.1C204.6 111.6 204 112.1 203.5 112.6C201.2 114.5 206.3 110.6 204.5 111.8C203.1 112.8 201.7 113.8 200.3 114.7C197.5 116.5 194.5 118.2 191.5 119.7C190.1 120.4 184.4 122.5 189.8 120.6C188.2 121.2 186.6 121.9 185 122.4C181.1 123.8 177.1 124.8 173.1 125.4C174.7 125.2 176.2 125 177.8 124.8C173.8 125.3 169.8 125.4 165.8 124.8C167.4 125 168.9 125.2 170.5 125.4C168.4 125.1 166.3 124.6 164.2 124C163.3 123.7 162.3 123.4 161.4 123.1C161.1 123 160.3 122.8 160 122.6C160.3 122.9 163.8 124.3 161.6 123.2C157.8 121.3 154.1 119.1 150.6 116.6C149.8 116.1 149.1 115.5 148.3 114.9C146.8 113.8 150.3 116.3 150 116.3C149.7 116.3 149.1 115.6 148.9 115.4C147 113.9 145.2 112.4 143.4 110.9C139.3 107.5 135.1 104.1 131 100.7C114.3 87.0001 97.6001 73.2002 80.9 59.5001C71.4 51.6001 61.8 43.8002 52.3 35.9002C47.8 32.2001 43.3001 30.2001 37.4001 31.0001C32.4001 31.7001 26.7001 34.5001 24.5 39.4002C20.5 48.4002 18.1 56.8001 17 66.5001C16.1 74.6001 16.8001 82.7001 18.4001 90.7001C21.7001 107.3 31 122.5 42.7001 134.6C49.4001 141.6 60.9 141.1 67.7 134.6C89.8 113.4 101.4 82.1001 92.8 52.0001C90.4 43.5001 82.1001 38.2002 73.4 39.3002C64.3 40.5002 58.7001 47.8001 58.1001 56.7001C54.6001 105.2 59.4 154.3 71.5 201.4C73.2 208.2 79.4 213.2 86.2 214.1C92.6 215 100.9 212 103.8 205.7C116.1 178.5 128.5 151.3 140.8 124.2C130 122.8 119.2 121.4 108.5 120C114.4 153.5 123.9 186.3 136.5 217.8C138.6 223.1 141.3 227 146.7 229.3C151.8 231.5 157.6 231.3 162.4 228.4C177.3 219.6 189.5 206.9 198 191.8C205.3 178.8 210 164.4 214.1 150.1C216.2 142.9 212.8 133.7 206 130.1C203.2 128.6 200.2 127.8 197.1 127.7C192.1 127.5 188.3 130 184.6 132.9C164.4 148.6 146.1 168.6 134.4 191.5C128.3 203.4 125.2 218.6 132.7 230.7C135.3 234.8 138.5 237.9 142.5 240.7C143.4 241.3 144.3 241.9 145.3 242.3C150.4 244.8 155.2 245.4 160.8 244.2C166.8 242.9 172.7 241.2 178.6 239.4C223.8 225.9 267.3 203 301.3 169.9C318 153.7 332.6 134.7 342.4 113.5C344.4 109.1 345.5 104.7 344.2 99.9002C343.1 95.8002 339.9 91.3002 336.1 89.3002C327.9 84.9002 316.6 87.0002 311.9 95.6002C305.1 108.1 297.6 120.3 289.4 131.9C287.3 134.8 285.2 137.7 283.1 140.6C282.6 141.2 282.2 141.8 281.7 142.4C281.5 142.6 279.2 145.6 281 143.3C282.7 141.1 280.7 143.7 280.3 144.2C279.7 145 279.1 145.7 278.5 146.4C273.8 152.3 268.9 158 263.9 163.7C268.1 162 272.2 160.2 276.4 158.5C276.1 158.5 275.8 158.4 275.5 158.4C277.1 158.6 278.6 158.8 280.2 159C279.1 158.8 278.1 158.5 277.1 158.3C275.9 157.9 276.1 158 277.8 158.6C279.4 159.3 279.7 159.4 278.6 158.9C275.5 156.7 280.6 161 279.7 159.9C279.2 159.3 278.6 158.8 278.1 158.2C281.8 161.9 280.2 161.1 279.4 159.6C277.5 156.2 280.6 163.5 279.8 160.8C279.4 159.3 279 157.8 278.7 156.2C278.9 157.8 279.1 159.3 279.3 160.9C278.9 157.8 279 154.7 279.4 151.6C279.2 153.2 279 154.7 278.8 156.3C280.2 147 281.8 137.6 283.2 128.3C283.9 123.9 284.4 119.3 285.4 114.9C285.4 114.7 286.1 112.9 286 112.9C285.6 113.9 285.2 114.8 284.8 115.8C285 115.4 285.3 114.9 285.6 114.5C285 115.3 284.4 116.1 283.8 116.9C284.7 116 284.5 116.2 283.1 117.3C281.7 118.3 281.5 118.5 282.5 117.9C279.4 119 278.7 119.4 280.4 119C278.8 119.2 277.3 119.4 275.7 119.6C276.2 119.5 276.8 119.5 277.3 119.6C275.7 119.4 274.2 119.2 272.6 119C272.9 119 273.2 119.1 273.5 119.1C270.9 117.6 268.3 116.1 265.7 114.6C267.9 116.3 270 118.1 271.9 120.1C272.8 121.1 273.8 122 274.6 123.1C275 123.5 275.7 124.1 275.9 124.6C275.5 123.6 273.5 121.3 275.2 123.7C276.6 125.8 277.9 127.9 279.1 130.2C280.8 133.6 277.8 126.7 279.1 130.2C279.6 131.5 280 132.8 280.3 134.1C291.1 129.6 301.9 125 312.6 120.5C302.3 102.6 288.2 86.9002 272.1 74.1002C267.5 70.5002 263.2 68.4002 257.2 69.2002C251.9 69.9002 246.9 72.8002 244.3 77.6002C230.4 103.4 216.6 129.2 202.7 155.1C213.7 158.1 224.7 161.1 235.7 164C232.2 126.1 228.5 87.6002 214.9 51.8002C212.9 46.5002 210 42.6002 204.7 40.3002C199.6 38.1002 193.8 38.3001 189 41.2002C162.6 56.9002 137.4 74.7002 113.7 94.4002C123.8 98.6002 133.8 102.7 143.9 106.9C142.4 90.1002 140.8 73.2002 137.6 56.6002C134.3 39.8002 128.8 23.4002 120.8 8.20016C115.3 -2.19987 101 -2.89982 93 4.60018C78.9 17.9002 70.1001 35.1002 67.9 54.3002C65.9001 71.3002 71.1 89.4002 81.1 103.2C84.5 107.9 89.9 112.7 96.4 112C134 107.6 170.3 98.1002 204.7 82.3002C211.5 79.2002 215.1 69.2002 212.8 62.3002C210.4 54.8002 203.8 49.4002 195.7 49.3002C144.9 49.0002 94.2001 48.6002 43.4001 48.3002C29 48.2002 14.5001 48.1001 0.100083 48.0001C0.100082 59.8001 0.100081 71.6002 0.10008 83.4002C40.7001 81.3002 81.3 79.1001 121.9 76.2002C163.4 73.2002 204.9 69.1002 246.2 63.6002C268.6 60.6002 291 57.0002 313.3 52.8002C321.9 51.2002 327.1 41.4002 326 33.4002C324.8 24.8002 317.5 18.1002 308.6 18.1002C261.3 17.8002 213.9 19.9002 166.8 24.3002C162 24.7002 157.8 26.0001 154.3 29.5001C151.2 32.6001 148.9 37.6001 149.1 42.0001C149.6 52.3001 156.9 58.8001 166.8 59.7002C229.6 65.1002 292.8 65.0002 355.6 59.4002C365.3 58.5002 375.2 57.8002 384.8 56.3002C394.6 54.8002 406.6 48.8002 408.2 37.9002C408.8 33.8002 409 30.3002 407.3 26.4002C405.9 23.2002 403.4 19.4002 400.1 17.9002C380.2 9.00017 359.1 6.80021 337.7 10.3002C319.5 13.2002 300.6 22.3002 289 36.9002C281.4 46.4002 276.9 56.6002 275.9 68.8002C275.3 76.2002 281.8 84.2002 288.9 85.9002C297.1 87.8002 304.1 84.5002 308.9 77.8002C309.5 77.0002 310.1 76.2002 310.7 75.4002C312.9 72.4002 308 78.7002 310.4 75.8002C311.5 74.5002 312.5 73.2002 313.7 71.9002C316.3 68.9002 319 66.0002 321.9 63.2002C324.7 60.5002 327.6 57.8002 330.7 55.3002C331.4 54.7002 332.1 54.1002 332.8 53.6002C333.7 52.9002 336.8 51.0002 332.7 53.7002C334.5 52.5002 336.3 51.1002 338.1 49.8002C329.2 44.7002 320.4 39.6001 311.5 34.5002C313.5 60.1001 319.9 84.2002 330.3 107.6C332.5 112.5 338.3 115.4 343.2 116C348.6 116.7 354.2 115.2 358.1 111.1C372.5 96.1002 383.8 77.9002 389 57.6002C377.6 54.5002 366.3 51.3002 354.9 48.2002C350 75.0002 352 102.7 362 128.2C364.6 134.9 369.2 139.9 376.7 140.9C383.8 141.9 390.5 138.5 394.3 132.5C413 102.8 432.7 73.8002 453.4 45.4002C442.6 40.9002 431.8 36.3002 421.1 31.8002C415.9 54.7002 424.3 77.5002 441.2 93.4002C448.3 100.1 459.1 100.1 466.2 93.4002C473 87.0002 480.1 80.8002 487.5 74.9002C488.4 74.2002 489.3 73.5002 490.1 72.8002C493.6 70.0002 487.7 74.6002 490.5 72.5002C492.3 71.1002 494.1 69.8002 496 68.4002C500 65.5002 504.1 62.6002 508.2 59.8002C499.3 54.7002 490.5 49.6002 481.6 44.5002C481.3 47.9002 480.9 51.3002 480.5 54.7002C480.7 53.1002 480.9 51.6002 481.1 50.0002C479.5 61.3002 477.1 72.6002 473.9 83.5002C472.3 89.1002 470.4 94.6002 468.4 100C467.4 102.6 466.4 105.1 465.4 107.6C464.7 109.4 464.8 109 465.8 106.6C465.5 107.3 465.2 108 464.9 108.8C464.3 110.2 463.6 111.7 462.9 113.1C473.9 116.1 484.9 119.1 495.9 122C497.3 98.4002 495.4 74.8002 490.9 51.7002C489.2 43.1002 479.6 37.9002 471.5 39.0002C462.5 40.2002 456.7 47.5002 456.2 56.4002C454.1 92.2002 452.1 128 450 163.8C461.8 163.8 473.6 163.8 485.4 163.8C486 151 484.1 137.7 480 125.6C477.7 118.9 474.9 112.4 471.6 106.2C467.7 98.9002 462.3 88.7002 454.5 85.4002C446.3 81.9002 435.7 84.1002 428.3 88.6002C422.3 92.2002 417.5 97.5002 413.8 103.4C410.7 108.3 408.7 114 406.4 119.3C403.6 125.7 400.7 132.1 397.9 138.5C391.6 152.8 385.2 167.1 378.9 181.4C389.1 181.4 399.3 181.4 409.5 181.4C398.7 161.6 387.9 141.9 377.1 122.1C370.9 110.8 352.6 110.4 346.5 122.1C333.9 146.4 322.9 171.6 313.5 197.3C323.4 194.7 333.2 192.1 343.1 189.5C341.7 188.2 339.7 186.7 338.8 184.9C339.3 186 341.1 188 339.5 185.6C339 184.8 338.5 183.9 338 183.1C337.6 182.4 337.4 181.5 336.9 181C338 183.6 338.3 184.3 337.8 183C337.6 182.6 337.5 182.1 337.3 181.7C336.7 179.9 336.4 178.1 336.1 176.3C336.3 177.9 336.5 179.4 336.7 181C336.5 178.9 336.4 176.8 336.6 174.6C324.8 174.6 313 174.6 301.2 174.6C299.2 203 301.9 231.7 308.4 259.4C309.8 265.2 315 270.3 320.8 271.8C336.9 275.7 351 269 364.3 260.6C374.5 254.1 384.7 247.6 394.7 240.8C414.7 227.2 434.6 212.4 450.9 194.3C459.6 184.6 467.5 174 473.4 162.4C462.6 157.9 451.8 153.3 441.1 148.8C426.3 187.7 423.7 230.4 433.1 270.9C434.7 277.7 441.2 282.7 447.8 283.6C454.3 284.5 462.4 281.5 465.4 275.2C472.1 261.1 477.2 246.5 479.5 231C481.9 214.4 481.8 198.4 479.1 181.8C478.7 179.1 476.4 175.9 474.6 174C471.8 171.2 468.3 169.6 464.4 169.1C457.5 168.2 450.3 171.4 446.8 177.5C431.6 203.8 422.7 233.5 422.2 263.9C433.8 262.3 445.4 260.8 457 259.2C454.6 243.7 452.1 228.2 446.8 213.3C440.5 195.4 431 179 417.4 165.6C408.1 156.5 391 160.3 387.8 173.4C373.4 231.9 360.5 291.1 342 348.5C336.7 364.9 331 381.1 324.5 397.1C336.1 398.7 347.7 400.2 359.3 401.8C357.1 360.2 354.9 318.6 352.7 277C352.2 268.2 346.3 260.8 337.4 259.6C328.5 258.4 320.8 263.8 318 272.3C297.1 335.2 276.2 398.1 255.4 460.9C249.3 479.2 243.7 499.4 250.6 518.3C252.8 524.2 256.6 528.9 263 530.7C268.7 532.3 276.2 530.8 280.2 526.2C315 485.7 349.7 445.2 384.5 404.7C394.3 393.3 404.1 381.9 413.9 370.4C404 364.7 394.2 358.9 384.3 353.2C369.3 400.4 359.8 449.4 356.1 498.8C355.3 510 354.2 521.5 360.3 531.5C368.6 545.1 385.7 548.9 400 543.2C421.7 534.6 442.5 522.1 461.3 508.4C471.7 500.6 482.8 492.5 491.6 482.5C496.5 476.9 500.7 471.1 503.6 464.2C504.9 461.2 505.9 458.4 506.4 455.2C507.3 449.4 507.1 445.4 506.3 439.6C505.8 435.7 501.5 430.8 498.2 429C494.3 426.9 488.9 425.5 484.6 427.2C471.7 432.5 458.9 438.1 446.5 444.3C440.7 447.2 435 450.2 429.3 453.3C423.2 456.6 417.2 460 412.1 464.8C405.4 471.2 400.8 481.2 403.7 490.5C405.7 497 410.8 503.8 417.7 505.4C421.6 506.3 425.7 506.2 429.6 505.7C442.1 504.3 454 500.5 464.2 493.1C473.8 486.1 481.6 477.9 488.3 468.1C495.3 457.9 500.3 446.4 505 435.1C514.7 411.8 519.7 387.1 522.6 362.1C525.7 335.3 525.5 308.3 524.8 281.3C524.5 272.1 516.8 263.2 507.1 263.6C497.6 264 489.3 271.4 489.4 281.3C490.2 350.9 489.8 420.5 488.2 490.1C487.8 509.9 487.2 529.6 486.6 549.4C498.2 547.8 509.8 546.3 521.4 544.7C509 480.1 496.9 415.3 484 350.8C480.8 334.8 474.7 318.7 461.5 308.3C458.3 305.8 455.5 304 451.3 303.4C447.8 302.9 443 303.2 440 305.5C434.3 309.9 429.5 314.3 425.8 320.6C423 325.3 421 330.6 419.7 335.9C417.1 346.4 416 357.4 414.4 368.1C410.8 392.9 407.8 417.8 405.4 442.8C404.1 456.2 403.1 469.6 402.2 483.1C401.6 491.9 409.4 499.4 417.5 500.5C425.3 501.6 435.6 496.5 436.9 487.8C445.9 427.8 455 367.7 467.7 308.3C471.3 291.6 475.1 274.9 479.3 258.3C467.7 256.7 456.1 255.2 444.5 253.6C443.9 286.9 441.4 320.1 437 353.1C437.2 351.5 437.4 350 437.6 348.4C431.4 394.8 421.4 440.6 408 485.5C419.4 485.5 430.7 485.5 442.1 485.5C421.6 436.3 421.2 382.1 404.9 331.7C399.9 316.2 393.4 300.9 385.1 286.8C381.5 280.7 374.4 277.4 367.5 278.4C360.4 279.3 354.9 284.3 352.8 291.1C337.3 340.3 330.4 392.4 333.2 444C333.6 451.5 338.4 459.3 346.2 461.1C353.7 462.8 362.4 460.1 366.2 453C388.8 410.6 402.5 364.5 411.8 317.6C414.4 304.8 416.6 292 418.8 279.1C407.2 277.5 395.6 276 384 274.4C380.3 320.2 378.5 366.1 378.8 412C378.9 424 390 431.5 401.2 429.1C418.7 425.3 435.5 417.2 448.4 404.7C455.1 398.3 455.4 386.1 448.4 379.7C441.4 373.1 430.7 372.8 423.6 379.7Z" fill="#C6ECAC"/>
</g>
<circle cx="239" cy="529" r="11.5" fill="black" stroke="black" stroke-width="3"/>
<circle cx="133" cy="529" r="11.5" stroke="black" stroke-width="3"/>
<circle cx="187" cy="529" r="11.5" stroke="black" stroke-width="3"/>
<defs>
<clipPath id="clip0">
<rect width="654.7" height="581.4" fill="white" transform="translate(579.7 581.4) rotate(-180)"/>
</clipPath>
</defs>
</svg>
