<svg xmlns="http://www.w3.org/2000/svg" viewBox="0 0 62.93 155.52"><defs><style>.cls-1{fill:#c6ecac;}.cls-2{fill:#00782a;}</style></defs><g id="Ebene_2" data-name="Ebene 2"><g id="Ebene_1-2" data-name="Ebene 1"><path class="cls-1" d="M35.94,111.85c.18-2.92.09-5.75-1.27-8.41a1.88,1.88,0,0,0-.31-.43A116.54,116.54,0,0,0,35.57,89.3c.08-2.75-4.46-3.5-4.91-.67l0,.17c-1.55-1.53-4.91-.2-4.18,2.44a76.32,76.32,0,0,1,2.12,10.46l-1.23,7.72c-.7,4.36-1.38,8.77-.86,13.06-.47,2.24-.88,4.49-1.21,6.76-.22,1.49.62,3.26,2.41,3.16,6.12-.35,8.59-6.56,8.43-11.91C36,117.59,35.77,114.77,35.94,111.85Z"/><path class="cls-2" d="M56.6,17.19A2.41,2.41,0,0,0,54.23,19a34.49,34.49,0,0,0-7,7.3A48.94,48.94,0,0,0,41.4,36.81c-.12.28-.21.56-.32.83a57.93,57.93,0,0,1,4.57-15.46c1.33-2.82,2.75-5.6,4-8.47s2.37-5.81,1-8.84a2.45,2.45,0,0,0-2.16-1.24C46.15,3.8,44.76,5.17,43.58,7a60.7,60.7,0,0,0-3.11,5.42c-2,3.85-3.64,7.84-5.32,11.82-.82,1.93-1.64,3.87-2.51,5.78a24.61,24.61,0,0,0-2.32,6.3A46.93,46.93,0,0,0,30.2,43c0,2.34-.07,4.68-.22,7-.05.71-.12,1.42-.19,2.13q-.21-1.65-.45-3.3a50.49,50.49,0,0,1,.11-7.58c.74-8.12,3-16,4.26-24a63.41,63.41,0,0,0,.79-14.1C34.3.41,30.43-.3,29.59,2.5Q26.37,13.26,23.12,24q-.63-1.89-1.35-3.75c-.43-1.13-.89-2.25-1.36-3.37a91,91,0,0,1-.36-11A2.41,2.41,0,0,0,16.6,3.71a4.56,4.56,0,0,0-5.13-.41A3.26,3.26,0,0,0,9.82,6.72a20.45,20.45,0,0,0,2,3.7c.94,1.72,1.79,3.48,2.62,5.26.07.65.14,1.3.23,1.95a31.28,31.28,0,0,0,1.56,6.09c.35,2.11.77,4.21,1.28,6.3,1.82,7.47,4.41,14.86,4.41,22.63a2.37,2.37,0,0,0,2.57,2.41c.18,1.81.34,3.62.47,5.44l-4.92-9.4a63.18,63.18,0,0,0-4.14-13.38c-1.27-3.17-2.38-6.36-3.43-9.61s-3.27-6.36-7-6.19a2.74,2.74,0,0,0-2.4,1.71A2.59,2.59,0,0,0,1,26.09c-.37,3.31.75,6.49,2.11,9.45a78,78,0,0,0,4.28,7.82c.91,1.5,1.83,3,2.74,4.51a.87.87,0,0,0,.05.22A180.87,180.87,0,0,0,18.62,65.6c1.47,2.82,2.91,5.65,4.22,8.54,1.22,2.72,2.76,5.75,2.56,8.8a2.47,2.47,0,0,0,.12.84l-.1.17c-1.5,2.39,2,5.13,3.93,3,6.22-6.75,9.85-15.21,12.94-23.74C44,58.61,45.5,53.93,47.4,49.39s4.18-8.7,6.26-13.06c1.62-3.42,3-6.93,4.32-10.47,1.65-1,3.7-1.86,4.31-3.82C63.31,18.75,59,17.45,56.6,17.19Zm-8-8.58c.12-.17.29-.06,0,0ZM26.16,30.12c-.16.86-.32,1.71-.47,2.57-.18-.67-.35-1.34-.54-2A2.16,2.16,0,0,0,26.16,30.12Zm9.32,37c.07-.83.15-1.66.25-2.49a2.71,2.71,0,0,0,.54.53C36,65.83,35.75,66.48,35.48,67.13Zm.85-31.27c-.38,2.28-.75,4.55-1.14,6.81,0-.61,0-1.22,0-1.83a14.28,14.28,0,0,1,.58-5.6c.38-1,.83-2,1.28-2.94C36.77,33.48,36.53,34.66,36.33,35.86Zm9.58,3c.2-.5.42-1,.64-1.47a2.46,2.46,0,0,0,.4,1.24c-1.12,2.23-2.23,4.46-3.24,6.74A65.55,65.55,0,0,1,45.91,38.9Z"/></g><g id="Striche"><path d="M23.37,148.61a31.4,31.4,0,0,1-1.72,3.67c-.16.28.28.53.43.25a35.34,35.34,0,0,0,1.78-3.79C24,148.44,23.49,148.31,23.37,148.61Z"/><path d="M25.05,149.61A14.72,14.72,0,0,0,24,152.22a.25.25,0,0,0,.48.13,14.49,14.49,0,0,1,1-2.48C25.63,149.58,25.2,149.33,25.05,149.61Z"/><path d="M27.24,149.71c-.25,1.16-.49,2.33-.74,3.49-.06.32.42.45.48.14.25-1.17.5-2.34.74-3.5C27.79,149.52,27.31,149.39,27.24,149.71Z"/><path d="M59.89,16.81c-1.46-.59-3.77-2.12-5.13-.72a58.65,58.65,0,0,0-4.44,5.81C48.76,24,47.2,26,45.74,28.17c-.71,1-1.38,2.09-2,3.15,1.75-6.09,4.52-11.82,7.08-17.6q.94-2.12,1.82-4.26c.42-1.05,1.14-2.32.47-3.41A13.67,13.67,0,0,0,50,3.17c-1.2-1-2.45-1.93-3.74-2.81a.25.25,0,0,0-.34.09,134,134,0,0,1-12.2,22.1l.06-.52c.76-6.44,1.65-12.86,2.5-19.28.1-.72.3-1.35-.39-1.74A8.34,8.34,0,0,0,33.69.59C32.81.43,31.92.26,31,.11c-.62-.11-1.37-.26-1.86.25-.7.73-.47,2.49-.56,3.4A60,60,0,0,1,23.08,23.2c-.29-1.79-.57-3.57-.85-5.36C21.48,12.92,20.78,8,20.08,3.06a.25.25,0,0,0-.31-.18A29.05,29.05,0,0,0,12.34,5.7c-1.86,1-2.8,2.1-2.14,4.27C12,15.84,14.08,21.64,16,27.49c1,2.92,1.86,5.87,2.59,8.86s1.27,5.78,2,8.64S22.3,50.55,23,53.36a29,29,0,0,1,.8,4.57c-1-1.74-2.23-3.39-3.13-5.12a29.47,29.47,0,0,1-3.32-10.28.18.18,0,0,0,.14-.21A36.72,36.72,0,0,0,11,25.1a21.73,21.73,0,0,0-2.86-3.47,2.45,2.45,0,0,0-3-.25A26.15,26.15,0,0,0,.8,23.57c-1,.71-.89,1.44-.57,2.53,4.19,14,10.46,27.22,17.58,40A78.51,78.51,0,0,1,23.1,77a92.56,92.56,0,0,1,3.3,12.41c.07.31.55.18.49-.14-.42-1.91-.86-3.8-1.35-5.67.15,0,.31,0,.29-.21A127.14,127.14,0,0,1,24.46,66c0-1.84.08-3.68,0-5.52a8.56,8.56,0,0,1,.43,1.44c.07.31.55.18.48-.14a11.29,11.29,0,0,0-1-2.68c0-.58-.06-1.15-.13-1.72a41.27,41.27,0,0,0-1.83-7.66c-1.69-5.37-2.67-10.89-4.18-16.31C16.74,27.79,14.79,22.28,13,16.75c-.5-1.54-1-3.07-1.52-4.61s-1.72-3.72-.3-5.06a13.77,13.77,0,0,1,4.22-2.27,27.58,27.58,0,0,1,4.27-1.37c1,6.89,2,13.78,3.09,20.65a.37.37,0,0,0,0,.11c.32,1.95.64,3.89,1,5.84,1.53,8.81,3.89,17.55,4.78,26.46.36,3.67-.18,8.18,2.41,11.17a.17.17,0,0,0,.2.07A121.88,121.88,0,0,0,30,84.49a.25.25,0,0,0,.5,0C30.45,67,34,49.16,42.77,33.84a112,112,0,0,1,7.84-11.5l2.15-2.84c.34-.45.68-.89,1-1.34s.92-1.54,1.47-1.86c1.11-.63,2.58.23,3.65.64,1.25.49,3.44.83,3.53,2.43a8.72,8.72,0,0,1-.93,3.11A38.09,38.09,0,0,1,59.8,26c-1.09,2-2.22,4-3.27,6.1-2.19,4.24-4.23,8.57-6.2,12.92C45.89,54.88,41.78,64.88,37,74.57a.17.17,0,0,0,0,.12c-.33.59-.63,1.19-.89,1.78-1.12,1.85-2.28,3.67-3.51,5.45-1.65,2.36-3.5,4.56-5.19,6.88-1.45,2-.69,3.92-.37,6.15a47.29,47.29,0,0,1,.34,8.82c-.27,5.65-1.22,11.24-1.84,16.85a80.65,80.65,0,0,0-.55,8.64c0,2.91.27,5.83,0,8.73a20.64,20.64,0,0,1-.92,4.55,10.54,10.54,0,0,0-.7,3.63,3.14,3.14,0,0,0,3.19,3.26,16.1,16.1,0,0,0,3.09-.2.22.22,0,0,0-.06.14,17.91,17.91,0,0,0,1,6c.1.3.59.17.48-.13a17.4,17.4,0,0,1-1-5.85.19.19,0,0,0-.12-.19,13,13,0,0,0,2.71-.8c.57,1.12,1.18,2.23,1.84,3.3a.25.25,0,0,0,.43-.25c-.65-1.06-1.25-2.15-1.82-3.26a8.38,8.38,0,0,0,3-2.31.17.17,0,0,0,0,.12l2.08,3.41a.25.25,0,0,0,.43-.26l-2.08-3.4a.23.23,0,0,0-.28-.09,7.83,7.83,0,0,0,1-1.7,12.22,12.22,0,0,0,.75-5.75c-.22-2.4-1.23-4.57-1.73-6.91a32.86,32.86,0,0,1-.18-9.08c.2-3.08.52-6.16.71-9.24a57.12,57.12,0,0,0-.13-10.13c-.35-3.2-1-6.37-1.44-9.56-.8-5.57-.92-11.39,1.32-16.58.39-.65.79-1.28,1.17-1.93a.23.23,0,0,0-.11-.34c4.5-9.15,8.41-18.56,12.58-27.85,2.11-4.72,4.3-9.41,6.66-14,1.19-2.32,2.48-4.59,3.69-6.9A20.48,20.48,0,0,0,62.9,19.5C63.19,17.66,61.31,17.38,59.89,16.81ZM24,62.62c-.05,3.4-.09,6.78.16,10.18.23,3.17.61,6.33,1,9.48A61.82,61.82,0,0,0,21,71c-2.87-5.73-6.23-11.2-9.09-16.95a185.39,185.39,0,0,1-8-18.55c-.55-1.5-1.09-3-1.6-4.52A37.43,37.43,0,0,1,.71,26c-.13-.74-.7-.95.34-2a5.5,5.5,0,0,1,1.09-.6q1-.52,2-1C5.32,21.84,6.53,21,7.79,22a11,11,0,0,1,1.6,1.81A35.81,35.81,0,0,1,17,42.1a.18.18,0,0,0-.13.21,29.05,29.05,0,0,0,3,9.87,48.62,48.62,0,0,0,2.62,4.6c.52.8,1,1.6,1.47,2.43C24,60.34,24,61.47,24,62.62Zm4.89-6.84c-.45-4.14-1.27-8.23-2.11-12.31-1.33-6.44-2.51-12.9-3.58-19.39A61.75,61.75,0,0,0,28.47,8.25c.21-1.19.4-2.4.54-3.61q.1-.88.18-1.77a8.3,8.3,0,0,1,.09-1.11C29.52.65,30,.45,30.9.59c.73.11,1.45.26,2.18.4a9.57,9.57,0,0,1,2.17.4c1.11.52.25,3.29.11,4.36C33.73,18,32,30.26,31.47,42.61c-.15,3.45-.22,6.91-.19,10.36,0,1.72,0,3.44.11,5.16A10.64,10.64,0,0,0,32,62l0,0c-.33,1.72-.61,3.45-.86,5.19C28.68,64.22,29.31,59.42,28.91,55.78ZM34,53.65q-1,3.68-1.79,7.43a17.7,17.7,0,0,1-.37-4.42c-.05-1.64-.07-3.28-.07-4.92,0-3.29.07-6.58.22-9.87.3-6.19.9-12.37,1.61-18.54a.24.24,0,0,0,.24-.1A132.76,132.76,0,0,0,46.21,1c1.24.86,2.44,1.75,3.59,2.71S53.1,6,52.69,7.85a26.13,26.13,0,0,1-1.79,4.36c-.6,1.4-1.23,2.79-1.86,4.18-2.4,5.32-4.82,10.66-6.25,16.34,0,.05,0,.07,0,.11A88.28,88.28,0,0,0,34,53.65Zm2.31,50.63c.46,5.66-.26,11.31-.66,17a46.86,46.86,0,0,0-.13,8.54c.25,2.38,1.26,4.53,1.73,6.84.89,4.26-.16,9.25-4.34,11.17a.24.24,0,0,0-.41.17l-.32.13a16.94,16.94,0,0,1-3.74.72c-1.6.17-3.51.42-4.28-1.35a6.06,6.06,0,0,1,.19-4.13,25.85,25.85,0,0,0,1-4.08,47,47,0,0,0,.14-7.87,71.38,71.38,0,0,1,.25-8c.46-5.34,1.36-10.63,1.85-16a62.63,62.63,0,0,0,.26-9q-.11-1.92-.39-3.81c-.24-1.61-.93-3.36-.09-4.9A29.43,29.43,0,0,1,30,86.29c.94-1.23,1.85-2.47,2.74-3.74s1.71-2.49,2.52-3.76C32.8,87,35.61,95.8,36.32,104.28Z"/></g></g></svg>