<svg width="63" height="156" viewBox="0 0 63 156" fill="none" xmlns="http://www.w3.org/2000/svg">
<g clip-path="url(#clip0)">
<path d="M26.5 91.1999C27.8 95.8999 28.6 100.6 29 105.4C29.1 106.6 29.9 107.7 31.2 107.9C32.3 108 33.7 107.4 33.9 106.1C34.9 100.5 35.4 94.8999 35.6 89.2999C35.7 86.5999 31.1 85.7999 30.7 88.5999C29.6 95.4999 28.5 102.5 27.4 109.4C26.4 115.8 25.4 122.4 28.2 128.5C28.7 129.5 30 129.9 31 129.6C32.1 129.3 32.7 128.3 32.8 127.2C33.5 119.7 34.3 112.2 35 104.7C33.4 105.1 31.9 105.5 30.3 106C31.2 107.8 31 109.9 30.9 111.9C30.8 114.2 30.8 116.4 31 118.6C31.1 120.7 31.4 122.9 30.5 124.9C30 126.1 29 127.4 27.6 127.4C28.4 128.5 29.2 129.5 30 130.6C30.4 127.9 30.9 125.1 31.5 122.4C32.2 119.3 27.4 117.9 26.7 121.1C26.1 123.8 25.6 126.5 25.2 129.3C25 130.8 25.8 132.6 27.6 132.5C33.7 132.1 36.2 125.9 36 120.6C35.9 117.7 35.7 114.9 35.8 112C36 109.1 35.9 106.2 34.5 103.6C34 102.6 32.7 102.2 31.7 102.5C30.6 102.8 30 103.8 29.9 104.9C29.2 112.4 28.4 119.9 27.7 127.4C29.3 127 30.8 126.6 32.4 126.1C30 121 31.5 114.8 32.3 109.4C33.3 103 34.4 96.4999 35.4 90.0999C33.8 89.8999 32.1 89.6999 30.5 89.3999C30.4 94.5999 29.9 99.7999 29 104.9C30.6 105.1 32.3 105.3 33.9 105.6C33.5 100.3 32.6 95.0999 31.2 90.0999C30.4 86.7999 25.6 88.0999 26.5 91.1999Z" fill="#C6ECAC"/>
<path d="M0.999998 26.1C0.599998 29.4 1.8 32.6 3.1 35.6C4.3 38.3 5.8 40.9 7.4 43.4C10.4 48.4 13.7 53.3 15.4 59C15.8 60.2 16.9 61 18.1 60.8C19.4 60.6 20.1 59.6 20.3 58.3C21.1 51.1 18.6 44.3 16 37.8C14.7 34.6 13.6 31.4 12.6 28.2C11.6 25 9.3 21.8 5.6 22C4.2 22 2.8 23 3 24.4C3.8 32.1 8.1 39 11.6 45.7C15.4 53 19.2 60.2 23 67.5C24.1 66.4 25.3 65.2 26.4 64.1C25.2 63.3 24.5 62.1 23.8 60.9C22.8 59.3 21.8 57.7 20.9 56.1C18.9 52.8 16.8 49.5 14.8 46.2C14.2 45.1 12.8 44.7 11.7 45.2C10.7 45.7 9.8 47 10.3 48.1C12.7 54.2 15.8 59.9 18.8 65.6C20.3 68.4 21.7 71.2 23 74.1C24.2 76.8 25.8 79.8 25.6 82.9C27.3 82.9 28.9 82.9 30.6 82.9C31 61.8 29.6 40.1 22 20.2C20 14.9 17.5 9.70002 14.6 4.70002C14.6 5.50002 14.6 6.40002 14.6 7.20002C14.5 7.40002 13.9 7.40002 13.9 7.60002C13.8 7.70002 13.9 7.40002 13.8 7.60002C13.7 7.80002 14 8.40002 14.1 8.70002C14 9.30002 14 9.80002 14 10.4C14.2 12.8 14.3 15.2 14.7 17.7C15.4 22.4 17.3 26.6 19.2 30.8C23 39.1 24.3 48 25.4 57C26.1 62.3 26.7 67.7 27.9 72.9C28.6 76 33.4 74.7 32.7 71.6C30.4 61.6 30.2 51.2 27.9 41.1C26.8 36 24.9 31.3 22.7 26.6C21.7 24.4 20.7 22.1 20.1 19.7C19.4 17.2 19.2 14.6 19.1 12C18.9 9.60002 19.1 6.80002 17.7 4.80002C16.4 2.80002 13.6 2.00002 11.5 3.30002C10.4 4.00002 9.5 5.40002 9.9 6.70002C10.3 8.00002 11.3 9.20002 11.9 10.4C13.1 12.6 14.2 14.9 15.2 17.2C19.3 26.4 21.8 36.2 23.4 46.1C25.3 58.3 25.7 70.6 25.4 82.9C25.3 86.1 30.2 86.1 30.4 82.9C30.6 79.4 29.1 76.1 27.8 73C26.5 70 25.1 67.1 23.6 64.2C20.6 58.4 17.4 52.7 15 46.7C13.5 47.3 12 48 10.4 48.6C12.6 52.2 14.8 55.8 17 59.4C18.9 62.6 20.7 66.2 23.8 68.3C26 69.8 28.3 66.9 27.2 64.9C23.7 58 20 51.1 16.4 44.1C14.7 40.8 12.9 37.5 11.2 34.1C9.7 31.1 8.3 27.8 8 24.4C7.2 25.2 6.3 26.1 5.5 26.9C7.6 26.8 8.1 30.7 8.5 32.2C9.5 35.1 10.6 38 11.8 40.8C14 46.4 16 52.2 15.3 58.2C16.9 58 18.6 57.8 20.2 57.5C18.5 51.9 15.4 46.8 12.4 41.8C10.9 39.4 9.5 37 8.2 34.4C6.9 31.7 5.7 29 6 25.9C6.1 24.6 4.7 23.4 3.5 23.4C2 23.6 1.1 24.7 0.999998 26.1Z" fill="#00782A"/>
<path d="M26.9 52.6C26.9 44.7 24.4 37.1 22.5 29.5C20.5 21.7 19.8 13.8 20 5.80002C20.1 2.60002 15.1 2.60002 15 5.80002C14.8 14 15.6 22.1 17.5 30C19.3 37.5 21.9 44.9 21.9 52.6C21.9 55.9 26.9 55.9 26.9 52.6Z" fill="#00782A"/>
<path d="M26.8 29C29.3 20.6 31.8 12.2 34.4 3.79998C32.8 3.59998 31.1 3.39998 29.5 3.09998C30.1 11.4 28.3 19.5 26.7 27.6C25 36 23.6 44.4 24.7 52.9C25.3 57.6 26.5 62.2 27.7 66.8C28.3 69.1 32 69.2 32.5 66.8C34.4 58.3 35.3 49.6 35.1 40.9C35.1 39 35 37.1 35.7 35.3C36.4 33.5 37.3 31.7 38.1 29.9C39.7 26.3 41.2 22.6 42.8 19C43.7 17 44.7 15 45.8 13C46.3 12 46.9 11.1 47.5 10.1C47.8 9.69998 48 9.29998 48.2 8.99998C48.3 8.89998 48.5 8.79998 48.6 8.59998C48.7 8.39998 49 8.59998 48.4 8.59998C47.7 8.19998 47 7.79998 46.2 7.39998C46.5 8.09998 45.9 9.19998 45.7 9.79998C45.3 11 44.8 12.1 44.3 13.2C43.2 15.6 42 18 40.8 20.4C38.5 25.3 37.1 30.4 36.2 35.8C35.3 41.1 34.5 46.3 33.3 51.5C32 56.8 30.7 62.1 30.3 67.6C30.1 70.5 30.1 73.4 29.2 76.3C28.3 79 26.8 81.5 25.3 84C23.8 86.4 27.3 89.1 29.2 87C35.4 80.2 39.1 71.8 42.1 63.3C43.8 58.7 45.3 54 47.2 49.5C49.1 45 51.4 40.8 53.5 36.4C55.9 31.3 57.9 25.9 59.7 20.6C60.5 18.4 57.8 16.8 56 17.8C52.4 19.8 49.5 23.1 47 26.4C44.6 29.6 42.7 33.2 41.1 36.9C37.6 45.3 36.2 54.4 35 63.3C34.8 64.6 36.3 65.8 37.5 65.8C39 65.8 39.8 64.6 40 63.3C41.1 55.1 42.5 46.7 45.6 39C46.9 35.7 48.7 32.5 50.8 29.6C52.8 26.8 55.4 23.8 58.5 22.1C57.3 21.2 56.1 20.2 54.8 19.3C53.2 23.8 51.7 28.3 49.7 32.6C47.7 37 45.4 41.2 43.4 45.6C39.6 54.1 37.3 63.2 33.3 71.6C31.2 75.9 28.8 80.1 25.5 83.6C26.8 84.6 28.1 85.6 29.4 86.6C30.8 84.3 32.2 81.9 33.2 79.4C34.3 76.7 34.7 74 34.9 71.1C35.1 68.3 35.2 65.5 35.7 62.7C36.2 59.9 36.9 57.1 37.6 54.3C38.9 48.9 39.8 43.4 40.7 37.9C41.6 32.4 42.9 27.2 45.3 22.2C46.6 19.4 48.1 16.6 49.3 13.7C50.5 10.8 51.7 7.89998 50.3 4.89998C50 4.19998 48.9 3.59998 48.1 3.69998C45.8 3.89998 44.5 5.19998 43.3 7.09998C42.2 8.79998 41.1 10.7 40.2 12.5C38.2 16.3 36.6 20.3 34.9 24.3C34.1 26.2 33.3 28.2 32.4 30.1C31.5 32.1 30.4 34.1 30.1 36.4C29.8 38.6 30 40.9 30 43.1C30 45.4 29.9 47.8 29.8 50.1C29.5 55.3 28.7 60.4 27.6 65.5C29.2 65.5 30.8 65.5 32.4 65.5C31.4 61.5 30.3 57.6 29.6 53.5C28.9 49.5 28.9 45.4 29.2 41.4C29.9 33.3 32.2 25.4 33.5 17.4C34.2 12.7 34.6 7.99998 34.3 3.29998C34.1 0.499983 30.2 -0.200017 29.4 2.59998C26.9 11 24.4 19.4 21.8 27.8C21.1 30.8 25.9 32.1 26.8 29Z" fill="#00782A"/>
<path d="M51.5 37.3C51.5 36.5 51.9 35.7 52.3 34.9C52.9 33.7 53.5 32.6 54 31.4C54.5 30.4 55 29.3 55.6 28.3C55.8 27.9 56.1 27.4 56.3 27.1C56.2 27.2 56.6 26.8 56.7 26.7C56.7 26.7 57.3 26.2 57 26.4C58.7 25 61.5 24.3 62.2 21.9C63.2 18.6 58.9 17.3 56.5 17C55.2 16.9 54 18.3 54 19.5C54 21 55.2 21.9 56.5 22C56.2 22 56.8 22.1 56.8 22.1C57 22.2 57.3 22.2 57.5 22.3C57.3 22.2 57.7 22.4 57.7 22.4C57.8 22.5 58 22.5 58.1 22.6C58.3 22.7 58.3 22.7 58 22.6C57.8 22.2 57.6 21.9 57.4 21.5C57.4 21.6 57.4 21.6 57.5 21.7C57.5 21.3 57.5 20.8 57.5 20.4C57.6 20.1 58 19.7 57.6 20C57.5 20 57.1 20.4 57.2 20.3C57.3 20.2 56.9 20.5 56.9 20.5C56.7 20.6 56.6 20.7 56.4 20.8C55.7 21.2 55.1 21.6 54.4 22C52.8 23.1 51.7 24.6 50.8 26.3C49.9 28 49.1 29.7 48.2 31.4C47.3 33.2 46.3 35 46.3 37.1C46.3 38.5 47.4 39.6 48.8 39.6C50.4 39.8 51.5 38.7 51.5 37.3Z" fill="#00782A"/>
<path d="M23.4 148.6C22.9 149.9 22.3 151.1 21.7 152.3C21.5 152.6 22 152.8 22.1 152.6C22.8 151.4 23.4 150.1 23.9 148.8C24 148.4 23.5 148.3 23.4 148.6Z" fill="black"/>
<path d="M25 149.6C24.6 150.4 24.2 151.3 23.9 152.2C23.8 152.5 24.3 152.6 24.4 152.3C24.7 151.4 25 150.6 25.4 149.8C25.6 149.6 25.2 149.3 25 149.6Z" fill="black"/>
<path d="M27.2 149.7C27 150.9 26.7 152 26.5 153.2C26.4 153.5 26.9 153.6 27 153.3C27.2 152.1 27.5 151 27.7 149.8C27.8 149.5 27.3 149.4 27.2 149.7Z" fill="black"/>
<path d="M29.6 149.4C29.6 151.4 29.9 153.5 30.6 155.4C30.7 155.7 31.2 155.6 31.1 155.3C30.4 153.4 30.1 151.4 30.1 149.5C30.1 149 29.6 149 29.6 149.4Z" fill="black"/>
<path d="M32.5 148.1C33.1 149.3 33.8 150.5 34.5 151.7C34.7 152 35.1 151.7 34.9 151.4C34.2 150.2 33.5 149 32.9 147.8C32.8 147.5 32.4 147.8 32.5 148.1Z" fill="black"/>
<path d="M36.1 146C36.8 147.1 37.5 148.3 38.2 149.4C38.4 149.7 38.8 149.4 38.6 149.1C37.9 148 37.2 146.8 36.5 145.7C36.4 145.5 36 145.7 36.1 146Z" fill="black"/>
<path d="M37.3 74.5C35.8 77 34.3 79.5 32.6 81.9C31 84.3 29.1 86.5 27.4 88.8C26 90.8 26.7 92.7 27 95C27.4 97.9 27.5 100.9 27.3 103.8C27 109.4 26.1 115 25.5 120.7C25.2 123.6 25 126.5 24.9 129.3C24.9 132.2 25.2 135.1 24.9 138C24.8 139.6 24.4 141.1 24 142.5C23.6 143.7 23.2 144.9 23.3 146.1C23.4 148 24.5 149.3 26.5 149.4C30.8 149.5 35.5 148.1 37.2 143.9C37.9 142.1 38.1 140.1 38 138.2C37.8 135.8 36.8 133.6 36.3 131.3C35.7 128.4 35.9 125.2 36.1 122.2C36.3 119.1 36.6 116 36.8 113C37 109.6 37 106.2 36.7 102.9C36.3 99.7 35.7 96.5 35.3 93.3C34.4 87 34.3 80.4 37.6 74.8C37.8 74.5 37.3 74.3 37.2 74.5C31.8 83.9 35.6 94.3 36.4 104.3C36.9 110 36.1 115.6 35.7 121.3C35.5 124.1 35.3 127 35.6 129.8C35.9 132.2 36.9 134.3 37.3 136.6C38.2 141.1 37 146.4 32.2 148.1C31 148.5 29.7 148.7 28.5 148.8C26.9 149 25 149.2 24.2 147.5C23.6 146.2 24 144.7 24.4 143.4C24.8 142 25.2 140.7 25.4 139.3C25.8 136.7 25.6 134.1 25.5 131.4C25.4 128.7 25.5 126.1 25.7 123.4C26.2 118.1 27.1 112.8 27.5 107.4C27.8 104.4 27.9 101.4 27.8 98.4C27.7 97.1 27.6 95.9 27.4 94.6C27.2 93 26.5 91.2 27.3 89.7C28 88.5 29.1 87.4 29.9 86.3C30.8 85.1 31.8 83.8 32.6 82.6C34.4 80.1 36 77.5 37.6 74.8C37.9 74.5 37.5 74.2 37.3 74.5Z" fill="black"/>
<path d="M37.4 74.8001C42 65.6001 46 56 50.2 46.6C52.3 41.9 54.5 37.2 56.9 32.6C58.1 30.3 59.4 28 60.6 25.7C61.6 23.8 62.6 21.7 63 19.5C63.3 17.7 61.4 17.4 60 16.8C58.5 16.2 56.2 14.7 54.9 16.1C53.2 17.8 51.9 20 50.5 21.9C48.9 24 47.4 26 45.9 28.2C40.6 36 36.7 44.6 34.2 53.7001C31.4 63.7001 30.2 74.1 30.2 84.5C30.2 84.8 30.7 84.8 30.7 84.5C30.7 67 34.2 49.2 43 33.8C45.3 29.8 48 26 50.8 22.3C51.5 21.4 52.2 20.4 53 19.5C53.3 19.1 53.7 18.6 54 18.2C54.4 17.7 54.9 16.7 55.5 16.3C56.6 15.7 58.1 16.5 59.1 16.9C60.4 17.4 62.5 17.7 62.6 19.3C62.7 20.2 62 21.6 61.7 22.4C61.2 23.6 60.6 24.8 60 25.9C58.9 27.9 57.8 29.9 56.7 32C54.5 36.2 52.5 40.6 50.5 44.9C46.1 54.7001 41.9 64.7001 37.1 74.4001C36.8 74.9001 37.3 75.1001 37.4 74.8001Z" fill="black"/>
<path d="M26.9 89.3001C25.5 83.0001 23.9 76.8001 21 71.0001C18.1 65.3001 14.8 59.8001 11.9 54.1001C8.9 48.1001 6.2 41.9001 3.9 35.5001C3.3 34.0001 2.8 32.5001 2.3 31.0001C1.8 29.4001 0.999999 27.7001 0.699999 26.0001C0.599999 25.3001 -9.53674e-07 25.0001 0.999999 24.0001C1.3 23.7001 1.8 23.6001 2.1 23.4001C2.8 23.0001 3.4 22.7001 4.1 22.4001C5.3 21.8001 6.5 21.0001 7.8 22.0001C8.4 22.5001 8.9 23.2001 9.4 23.8001C13.7 29.1001 16.3 35.6001 17 42.3001C17 42.6001 17.5 42.6001 17.5 42.3001C16.8 36.1001 14.6 30.1001 11 25.1001C10.1 23.9001 9.2 22.6001 8.1 21.6001C7.1 20.7001 6.3 20.8001 5.1 21.3001C3.7 21.9001 2 22.6001 0.699999 23.5001C-0.300001 24.2001 -0.200001 24.9001 0.0999991 26.0001C4.3 40.1001 10.6 53.2001 17.7 66.0001C19.7 69.5001 21.6 73.1001 23 76.9001C24.5 80.9001 25.4 85.1001 26.3 89.3001C26.5 89.7001 27 89.6001 26.9 89.3001Z" fill="black"/>
<path d="M25.8 83.4C25.1 77.6 24.4 71.8 24.4 66C24.4 63.1 24.6 60.2001 24.3 57.4001C24 54.8001 23.2 52.2001 22.5 49.7001C20.8 44.3 19.8 38.8001 18.3 33.4001C16.7 27.8001 14.8 22.3 13 16.7C12.5 15.2 12 13.6 11.5 12.1C11 10.6 9.8 8.40005 11.2 7.00005C12.3 6.00005 14 5.30005 15.4 4.70005C16.9 4.10005 18.4 3.60005 19.9 3.30005C19.8 3.20005 19.7 3.20005 19.6 3.10005C20.9 12.1 22.2 21 23.7 29.9C25.2 38.7001 27.6 47.5001 28.5 56.4001C28.9 60.1001 28.3 64.6 30.9 67.6C31.1 67.8 31.5 67.5 31.3 67.2C28.7 64.2 29.4 59.3 29 55.7001C28.5 51.6001 27.7 47.5 26.9 43.4001C25.1 34.9001 23.6 26.4 22.3 17.8C21.6 12.9 20.8 7.90005 20.1 3.00005C20.1 2.90005 19.9 2.80005 19.8 2.80005C17.2 3.40005 14.7 4.30005 12.4 5.60005C10.5 6.60005 9.6 7.70005 10.3 9.90005C12.1 15.8 14.2 21.6 16.1 27.4C17.1 30.3 18 33.3 18.7 36.3C19.4 39.2001 20 42.1001 20.7 44.9001C21.4 47.7001 22.4 50.5 23.2 53.3C24 56.4 24.2 59.4 24.2 62.6C24.2 66 24.1 69.4 24.4 72.8C24.7 76.3 25.1 79.9 25.6 83.4C25.4 83.7001 25.9 83.7001 25.8 83.4Z" fill="black"/>
<path d="M23.2 24.2C25.7 19.1 27.5 13.8 28.5 8.20003C28.7 7.00003 28.9 5.80003 29 4.60003C29.1 4.00003 29.1 3.40003 29.2 2.80003C29.2 2.40003 29.2 2.00003 29.3 1.70003C29.5 0.600028 30 0.400028 30.9 0.500028C31.6 0.600028 32.4 0.800028 33.1 0.900028C33.8 1.00003 34.7 1.00003 35.3 1.30003C36.4 1.80003 35.6 4.60003 35.4 5.70003C33.7 18 32 30.3 31.5 42.6C31.3 46 31.3 49.5 31.3 53C31.3 54.7 31.4 56.4 31.4 58.2C31.4 59.5 31.5 60.8 32 62.1C32.1 62.4 32.6 62.1 32.4 61.8C31.7 60.2 31.8 58.4 31.8 56.7C31.8 55.1 31.7 53.4 31.7 51.8C31.7 48.5 31.8 45.2 31.9 41.9C32.2 35.3 32.9 28.7 33.7 22.1C34.5 15.7 35.3 9.20003 36.2 2.80003C36.4 2.00003 36.6 1.40003 35.9 1.00003C35.4 0.700028 34.3 0.700028 33.7 0.600028C32.8 0.400028 31.9 0.300028 31 0.100028C30.4 2.8424e-05 29.6 -0.199972 29.1 0.400028C28.4 1.10003 28.6 2.90003 28.5 3.80003C27.8 10.8 25.7 17.7 22.6 24C22.6 24.3 23 24.5 23.2 24.2Z" fill="black"/>
<path d="M33.8 23.2C38.7 16.1 42.9 8.6 46.3 0.700003C46.2 0.700003 46.1 0.800003 46 0.800003C47.3 1.7 48.6 2.7 49.8 3.7C51.1 4.7 53.1 6 52.7 7.9C52.4 9.4 51.5 10.9 50.9 12.3C50.3 13.7 49.7 15.1 49 16.5C46.6 21.8 44.2 27.2 42.7 32.8C42.6 33.1 43.1 33.2 43.2 32.9C45 26.2 48 20 50.8 13.7C51.4 12.3 52 10.9 52.6 9.4C53 8.3 53.7 7.1 53.1 6C52.4 4.9 51 4 50 3.2C48.8 2.2 47.5 1.3 46.3 0.400003C46.2 0.300003 46 0.400003 46 0.500003C42.5 8.3 38.3 15.9 33.4 23C33.2 23.2 33.7 23.5 33.8 23.2Z" fill="black"/>
<path d="M16.9 42.3001C17.3 45.8001 18.3 49.1001 19.9 52.2001C20.7 53.8001 21.6 55.3001 22.5 56.8001C23.5 58.4001 24.6 60.0001 25 61.9001C25.1 62.2001 25.5 62.1001 25.5 61.8001C24.8 58.5001 22.3 55.8001 20.8 52.8001C19.1 49.5001 17.8 46.0001 17.5 42.3001C17.3 42.0001 16.8 42.0001 16.9 42.3001Z" fill="black"/>
</g>
<defs>
<clipPath id="clip0">
<rect width="62.9" height="155.5" fill="white"/>
</clipPath>
</defs>
</svg>
