<svg width="88" height="88" viewBox="0 0 88 88" fill="none" xmlns="http://www.w3.org/2000/svg">
<g clip-path="url(#clip0)">
<path d="M45.2 85.4C44.2 74.1 43.1 62.9 42.3 51.6C42.1 48.8 42 46 42.2 43.1C42.4 40.5 43 38 43.5 35.5C44.6 30.3 45.6 25.1 44.8 19.7C44.1 15.1 42 10.7 39 7.1C37.4 5.2 35.5 3.3 33.2 2.5C30.7 1.6 28.2 2.5 26.4 4.3C22.8 7.7 21.5 13 20.5 17.7C19.3 23.1 18.4 28.6 17.8 34.2C17.5 37.3 17.2 40.3 17.1 43.4C17 46.1 17.2 49 18.8 51.3C22.3 56.4 28.7 56.8 34.4 56.5C36.3 56.4 37.5 54.4 36.6 52.7C30.2 41.6 21 27.5 27.2 14.4C28.6 11.5 30.6 9 33.3 7.4C32.2 7.1 31 6.8 29.9 6.5C31.6 8.9 31.5 12.4 31.7 15.2C31.9 18.7 31.7 22.3 31.4 25.8C30.7 32.8 29.2 39.8 27.7 46.6C29.3 46.6 30.9 46.6 32.5 46.6C30.7 36.3 31.2 25.7 31.8 15.2C32 12 27 12 26.8 15.2C26.3 25.2 25.7 35.1 25.2 45.1C26.9 45.1 28.5 45.1 30.2 45.1C29.6 36.8 29.5 28.4 30 20.1C30.1 17.2 25.9 16.8 25.1 19.4C22.3 28.2 19.6 37.1 19.6 46.4C19.6 48.7 23.2 50 24.3 47.7C26.5 42.8 28.7 38 30.9 33.1C32 30.7 33.1 28.3 34.1 25.9C34.6 24.7 35.2 23.5 35.7 22.3C36.2 21.1 36.7 19.8 37.4 18.8C37.1 19.1 36.8 19.4 36.5 19.7C36.1 19.7 35.6 19.7 35.2 19.7C35 19.4 34.9 19.4 35 19.6C35.1 19.8 35.2 20 35.2 20.2C35.4 20.7 35.6 21.3 35.8 21.9C36.1 22.9 36.4 23.9 36.7 24.9C37.2 27.1 37.5 29.2 37.7 31.4C37.9 35.9 37.3 40.2 36 44.5C37.6 44.9 39.2 45.4 40.8 45.8C42 39.8 43.8 33.9 46.1 28.2C44.6 28.4 43.1 28.6 41.5 28.8C43.6 31.9 45 35.4 45.6 39.2C46.1 42.5 46 45.7 43.1 47.7C41.9 48.6 40.4 49.3 39 49.8C38.7 49.9 38.3 50.1 38 50.2C37.8 50.3 37.5 50.4 37.3 50.4C37.8 50.4 38.2 50.7 38.4 51.1C38.5 50.9 38.1 50.1 38.1 50C38 49.4 37.9 48.9 37.7 48.3C36.8 44 36.5 39.6 36.5 35.2C36.5 32.4 32.3 31.8 31.6 34.5C31 36.8 30.3 39.1 29.4 41.3C29 42.3 28.6 43.3 28.1 44.3C27.9 44.6 27.4 46 26.9 46C26 46.5 25 43.6 24.8 43C24.2 40.9 24 38.8 23.6 36.6C22.9 32.7 21.3 28.8 18 26.4C14.2 23.8 9.49999 24.9 6.29999 27.8C-8.10623e-06 33.7 -0.100008 43.7 3.19999 51.1C4.89999 55 7.59999 58.4 10.6 61.3C12.1 62.8 13.8 64.6 15.8 65.4C18.1 66.3 20.8 65.1 21.3 62.6C21.8 60.1 20.2 57.8 19.2 55.6C18.1 53.3 17.2 50.8 16.5 48.4C15.1 43.6 14.4 38.4 15.3 33.4C13.8 33.6 12.3 33.8 10.7 34C11.8 36.5 12.5 39.1 12.8 41.8C13 43.1 13 44.5 13 45.8C13 46.5 12.9 47.3 12.9 48C12.9 48.2 12.9 48.4 12.8 48.6C12.8 48.8 12.7 48.9 12.7 49.1C12.5 49.6 12.8 49.4 13.4 48.6C14.2 48.8 15 49 15.8 49.2C14.1 47.2 12 44.7 11.8 41.9C11.7 39.9 12.8 37.9 14.8 37.6C14.2 36.1 13.5 34.6 12.9 33C8.49999 36.3 7.09999 42 9.29999 47C10.5 49.7 14.5 47.7 13.9 45.1C12.9 40.9 11.6 35.9 14.2 32C15.8 29.5 12.3 27.1 10.3 29C8.49999 30.6 6.49999 32.5 5.99999 35C5.29999 38 6.79999 40.6 8.09999 43.2C10.8 48.3 13.9 53.3 17.3 58C19 60.4 22.3 58.9 21.9 56.1C21.5 53.2 21.1 50.2 20.7 47.3C19.2 47.9 17.7 48.6 16.1 49.2C17.9 51.9 18.6 55.2 17.9 58.4C18.9 57.8 20 57.2 21 56.7C16.2 55.3 13.1 50.4 13.4 45.5C11.7 45.5 10.1 45.5 8.39999 45.5C8.39999 52.5 12.5 59.2 18.7 62.4C22 64.2 25.6 64.6 29.3 64.6C32.8 64.6 36.6 64.2 39.7 66.1C40.1 64.5 40.5 63 41 61.4C33.8 61.7 26.7 62.8 19.7 64.7C20.7 65.7 21.8 66.8 22.8 67.8C23.2 65.5 23.9 63.2 24.8 61.1C25.3 60.1 25.8 59.1 26.3 58.1C26.6 57.5 27 57 27.3 56.5C27.5 56.3 27.6 56 27.8 55.8C27.9 55.7 28 55.6 28 55.5C28.4 55 28 55.1 26.7 55.9C26.3 55.7 26 55.5 25.6 55.3C25.6 55.2 25.6 55.2 25.6 55.1C25.7 55.3 25.7 55.5 25.7 55.7C25.8 56.1 25.9 56.6 25.9 57C26.1 58 26.3 59.1 26.4 60.1C26.7 61.6 28.9 62.5 30.1 61.6C34.2 58.5 37.3 54.4 40.1 50C42.8 45.9 45.2 41.5 48.6 38C47.3 37.8 46 37.7 44.7 37.5C45.9 39.9 45.7 43.1 44 45.3C45.3 45.5 46.6 45.6 47.9 45.8C45.3 41.1 44.3 35.9 43.2 30.7C43 28 40 28.1 38.9 29.7C35.9 33.9 33.5 38.6 32 43.6C31 46.7 35.8 48 36.8 44.9C39.1 38 42.1 31.4 45.3 25C46.9 21.8 48.6 18.7 50.3 15.5C51.2 13.9 52.1 12.2 53 10.6C53.5 9.8 53.9 9 54.4 8.2C54.6 7.9 54.8 7.5 55 7.2C55.1 7 55.2 6.8 55.3 6.6C55.5 6.2 55.6 6.2 55.4 6.5C55 6.6 54.6 6.7 54.1 6.8C53.9 6.8 53.8 6.7 53.6 6.7C53.3 6.4 53 6.1 52.7 5.8C53 5.8 53 5.8 53 5.9C52.9 5.5 52.8 5.1 52.7 4.6C52.7 4.7 52.7 4.8 52.7 4.9C53.3 4.1 53.9 3.3 54.5 2.5C43.1 5.2 34.6 16.5 35.2 28.2C35.4 31.1 39.1 31.5 40.1 28.9C42.3 23.1 44.5 17.3 47.6 11.9C48.7 10 50.1 7.4 52.6 7C55 6.6 56.4 9.8 57.3 11.5C62.3 21.4 59.7 33.2 54.3 42.4C52.7 45.1 50.9 47.7 48.9 50.2C47.2 52.3 45.2 55.1 42.5 55.9C43.5 56.9 44.6 58 45.6 59C51.8 43.9 53.9 27.3 51.8 11.1C51.6 9.8 50.8 8.6 49.3 8.6C47.9 8.6 46.9 9.7 46.8 11.1C46.1 21.9 44.6 32.7 42.3 43.3C41.6 46.4 46.4 47.8 47.1 44.6C48.2 39.3 49.4 34 50.5 28.7C51.1 26.1 51.6 23.5 52.2 20.9C52.6 19 52.9 16.9 54.3 15.4C52.9 14.8 51.5 14.2 50 13.6C51 22.1 50.7 30.8 49.1 39.2C50.7 39.6 52.3 40.1 53.9 40.5C55 33.6 56.7 26.9 58.9 20.3C57.3 20.3 55.7 20.3 54.1 20.3C54.8 25.4 54.1 30.9 52 35.6C53.5 35.8 55 36 56.6 36.2C55.2 30.5 55.1 24.5 56.1 18.6C54.6 18.8 53.1 19 51.5 19.2C55.6 24.6 54.3 31.7 51.3 37.4C47.8 44 42.5 49.4 39.1 56.1C38.2 57.9 36.9 60.1 37.5 62.1C38.4 64.6 41.8 64.6 44 65C43.4 64 42.8 62.9 42.3 61.9C42.2 62.4 41.7 62.8 41.5 63.3C41.2 63.9 40.9 64.5 40.7 65.2C40.4 66.5 40.4 68 40.9 69.3C41.7 72 43.7 74.1 46.3 75.3C51.8 77.8 58.6 77.5 64.4 76.4C69.8 75.4 75.7 73.5 79.7 69.5C83.9 65.2 84.7 58.8 85.7 53.1C87 45.8 87.8 38.5 88.2 31.1C88.3 29.3 86.5 28.5 85 28.7C80.9 29.3 76.9 30.2 72.9 31.3C69.2 32.3 65.4 33.6 62.3 35.8C56.1 40.1 51.6 47.1 48.5 53.9C46.7 57.9 45.3 62 44.4 66.2C43.8 68.8 46.6 70.1 48.6 68.6C54.6 63.9 60.7 59.2 67.3 55.3C66.2 54.2 65 53 63.9 51.9C62.3 55 60.4 58 58.1 60.7C56.9 62.1 55.7 63.4 54.4 64.6C53.8 65.2 53.2 65.7 52.6 66.3C52.3 66.6 52 66.8 51.6 67.1C51.4 67.2 51.3 67.4 51.1 67.5C50.5 67.8 50.7 67.9 51.5 67.9C51.9 68.8 52.3 69.8 52.6 70.7C54.9 62.9 59.6 55.7 66.1 50.7C64.9 49.8 63.7 48.8 62.4 47.9C61.8 52.6 59.3 57 55.3 59.7C56.5 60.6 57.7 61.6 59 62.5C59.6 59.4 60.5 56.2 61.8 53.3C62.5 51.8 63.2 50.3 64 48.9C64.3 48.3 64.7 47.7 65.1 47.2C65.4 46.8 66.1 46.7 65.4 46.6C64.8 46 64.2 45.4 63.7 44.9C64.7 49.9 63.1 55.2 59.5 58.7C60.9 59.3 62.3 59.9 63.8 60.5C63.5 52.9 66.8 45.6 72.6 40.8C71.2 40.4 69.8 40.1 68.4 39.7C69.3 42.9 68.8 46.1 67 48.9C68.6 49.3 70.1 49.7 71.7 50.2C71.7 48.2 72.3 46.2 73.6 44.7C73.7 44.6 74.5 43.9 74.5 43.9C74.5 44.1 73.5 43.3 73.4 43.5C73.3 43.6 73.5 43.9 73.5 44C73.8 45.3 73.8 46.5 73.7 47.8C75.3 47.6 77 47.4 78.6 47.1C78.3 45.2 78.3 43.2 78.4 41.3C78.5 40.3 78.5 39.3 78.7 38.3C78.8 37.9 78.9 37.5 78.9 37.1C79.1 36 79 37.1 78.9 36.9C78.3 37 77.7 36.9 77.4 36.5C77.4 36.6 77.5 36.8 77.5 36.9C77.5 37.4 77.8 37.9 77.8 38.3C77.9 39.2 77.9 40.2 77.9 41.1C77.8 43 77.4 44.9 77 46.8C75.6 53 74.2 59.9 69 64.1C70.3 64.3 71.6 64.4 72.9 64.6C72.5 64 72.7 63.3 72.8 62.6C73.1 61.4 73.4 60.2 73.6 59C74.2 56.5 74.8 54.1 75.3 51.6C76 48.5 71.3 47.2 70.5 50.3C69.4 54.3 68 58.1 66.2 61.9C65.3 63.8 64.3 65.6 63.3 67.3C62.8 68.2 62.2 69.1 61.7 69.9C61.5 70.2 61.3 70.6 61 70.9C60.8 71.1 60.6 71.3 60.5 71.5C60.2 71.6 60.4 71.6 60.9 71.5C61.5 72.1 62.1 72.7 62.6 73.2C61.9 71.2 61.7 69 62.1 66.9C62.3 65.8 62.7 64.8 63.2 63.8C63.5 63.3 63.8 62.8 64.1 62.3C64.1 62.3 64.4 62.1 64.4 62C64.5 62.2 63.5 62 63.5 62C63.2 62 63.4 61.8 63.5 62.1C63.5 62.2 63.7 62.4 63.7 62.5C63.9 62.9 64.1 63.4 64.4 63.8C64.9 64.8 65.6 65.8 66.4 66.5C68.2 68.1 70.6 69 73 68.9C74.7 68.8 76.4 66.8 75.2 65.1C72.2 61.1 70 56.6 68.9 51.7C68.4 49.4 68.1 47 68 44.7C68 43.4 68 42.1 68.2 40.8C68.2 40.3 68.4 39.8 68.4 39.3C68.4 39.2 68.5 38.9 68.5 38.9C68.4 39 68.2 39.1 68.1 39.1C67.6 39.3 67.2 39.1 66.8 38.6C66.7 38 66.6 37.3 66.5 36.7C65.6 38.8 63.6 40.3 61.5 40.9C62.1 41 62.8 41.1 63.4 41.2C62 40.1 61.7 37.8 61.4 36.2C60.9 33.5 60.5 30.8 60.3 28.1C59.9 22.6 59.8 17 60 11.4C60.1 9.3 57.2 8 55.7 9.6C52.5 13.2 50.1 17.4 48.8 22C47.9 25.1 52.7 26.4 53.6 23.3C54.7 19.5 56.6 16.1 59.2 13.1C57.8 12.5 56.4 11.9 54.9 11.3C54.7 18 55 24.7 55.8 31.3C56.2 34.4 56.5 37.6 57.5 40.5C58 41.8 58.6 43.1 59.5 44.2C60.7 45.6 62 46.2 63.8 45.6C66.4 44.7 68.6 43 70.2 40.7C71.1 39.4 72 37.8 71.2 36.3C70.4 34.9 68.9 34.2 67.3 34.5C63.8 35 63.4 38.8 63.2 41.7C63 44.6 63.1 47.5 63.6 50.3C64.5 56.7 67.1 62.8 70.9 67.9C71.6 66.6 72.3 65.4 73.1 64.1C70.7 64.2 69.4 62.8 68.5 60.8C67.9 59.6 67.2 58.4 66 57.7C64.5 56.9 62.8 57.1 61.5 58.1C59.3 59.7 57.9 63 57.4 65.6C56.8 68.6 56.9 71.7 57.9 74.6C58.2 75.4 58.8 76.2 59.6 76.3C62.6 76.9 64.4 74.9 65.9 72.6C67.3 70.5 68.6 68.2 69.8 65.9C72.2 61.3 74 56.5 75.4 51.6C73.8 51.2 72.2 50.7 70.6 50.3C69.9 53.2 69.2 56.2 68.5 59.1C67.9 61.7 66.8 64.7 68.6 67.1C69.6 68.5 71.2 68.7 72.5 67.6C77.9 63.1 79.9 56 81.4 49.4C82.3 45.3 83.2 41.2 82.5 37C82.2 35.1 81.6 33 79.7 32.2C77.7 31.4 75.4 32.5 74.4 34.4C73.4 36.3 73.3 38.9 73.2 41C73.1 43.5 73.2 45.9 73.6 48.4C73.8 49.6 75.3 50.4 76.3 50.2C77.6 50 78.3 49 78.5 47.7C78.7 45.6 78.6 42.8 77.5 40.9C76.3 38.8 73.8 38.4 71.8 39.5C68.2 41.5 66.4 46.3 66.5 50.2C66.5 52.7 69.8 53.5 71.2 51.5C73.7 47.6 74.3 42.8 73.1 38.4C72.5 36.5 70.3 36.1 68.9 37.3C62.1 42.9 58.2 51.8 58.6 60.6C58.7 62.7 61.3 63.9 62.9 62.4C67.8 57.5 69.8 50.4 68.4 43.7C68.2 42.9 67.4 42.1 66.7 42C62.1 41.4 59.9 45.9 58.2 49.4C56.3 53.2 54.9 57.2 54.1 61.4C53.7 63.4 55.8 65.6 57.8 64.2C62.8 60.8 66.4 55.4 67.2 49.4C67.3 48.4 67.2 47.4 66.3 46.8C65.6 46.3 64.3 46 63.5 46.6C55.9 52.4 50.3 60.4 47.7 69.6C47.4 70.6 47.9 71.9 48.8 72.4C51.5 73.7 53.6 72.1 55.6 70.4C57.3 69 58.9 67.4 60.4 65.8C63.4 62.4 66 58.7 68.1 54.7C69.2 52.5 66.9 50 64.7 51.3C57.7 55.4 51.4 60.4 45 65.3C46.4 66.1 47.8 66.9 49.2 67.7C51.1 59 54.9 50.5 60.9 43.8C63.9 40.5 67.5 38.3 71.7 37C76.5 35.5 81.4 34.5 86.4 33.7C85.1 32.8 84 32 83 31.2C82.7 36.8 82.1 42.4 81.3 48C80.9 50.7 80.4 53.5 79.9 56.2C79.4 58.4 79 60.8 78 63C76 67.2 71.8 69.2 67.5 70.5C62.5 72 57.1 72.7 51.9 71.9C49.8 71.6 47.4 70.9 46.2 69.1C45.7 68.4 45.4 67.5 45.5 66.6C45.7 65.4 46.8 64.5 47.1 63.3C47.4 62.1 46.7 60.5 45.4 60.2C44 59.9 42.3 59.8 40.9 59.3C41.3 59.5 41.6 59.7 42 59.9C41.9 59.8 41.8 59.7 41.7 59.7C41.9 60.1 42.1 60.4 42.3 60.8C42.2 61.3 42.2 61.3 42.4 60.9C42.5 60.7 42.6 60.5 42.7 60.3C42.9 59.8 43.2 59.2 43.4 58.7C43.9 57.8 44.4 56.9 44.9 56C46 54.1 47.3 52.3 48.6 50.5C51.1 47.1 53.7 43.7 55.7 39.9C59.4 32.8 61.1 23.5 55.9 16.7C55.3 15.9 54.5 15.3 53.4 15.5C52.5 15.6 51.5 16.3 51.3 17.3C50.1 24 50.2 30.8 51.8 37.5C52.3 39.5 55.5 40.1 56.4 38.1C59 32 59.8 25.6 58.9 19C58.7 17.9 57.5 17.2 56.5 17.2C55.4 17.2 54.4 18 54.1 19C51.9 25.6 50.2 32.4 49.1 39.2C48.9 40.5 49.4 41.9 50.8 42.3C52 42.6 53.6 41.9 53.9 40.6C55.6 31.7 56 22.7 55 13.7C54.9 12.7 54.5 11.8 53.5 11.4C52.6 11 51.4 11.2 50.8 11.9C49.2 13.7 48.3 15.9 47.8 18.2C47.2 20.9 46.6 23.7 46 26.4C44.8 32 43.6 37.6 42.4 43.3C44 43.7 45.6 44.2 47.2 44.6C49.6 33.6 51.1 22.4 51.8 11.1C50.1 11.1 48.5 11.1 46.8 11.1C48.8 26.9 46.8 42.9 40.7 57.6C40 59.4 42.1 61.2 43.8 60.7C47.1 59.7 49.5 57.3 51.6 54.7C53.7 52.2 55.7 49.5 57.5 46.7C61.1 41 63.7 34.7 64.6 28.1C65.4 21.7 64.6 15 61.7 9.2C60.3 6.3 58.2 3 54.8 2.2C51.4 1.4 48 3.2 45.8 5.7C43.3 8.7 41.6 12.4 40 15.9C38.3 19.7 36.8 23.6 35.3 27.6C36.9 27.8 38.6 28 40.2 28.3C39.7 18.7 46.5 9.6 55.8 7.4C57 7.1 57.6 6 57.7 4.9C57.9 2.3 54.8 0.800003 52.7 2.2C51 3.3 50 5.9 49 7.6C46.8 11.5 44.7 15.3 42.6 19.3C38.5 27.1 34.8 35.2 31.9 43.6C33.5 44 35.1 44.5 36.7 44.9C38.1 40.3 40.3 36.1 43.1 32.2C41.6 32 40.1 31.8 38.5 31.6C39.6 37.2 40.9 42.9 43.7 47.9C44.4 49.2 46.6 49.7 47.6 48.4C50.8 44.4 51.4 39.2 49.1 34.6C48.4 33.2 46.2 33 45.2 34.1C41.8 37.7 39.2 42 36.5 46.2C34 50.1 31.4 54.1 27.7 56.9C28.9 57.4 30.1 57.9 31.4 58.4C31 56.3 31.1 53.4 29.6 51.7C28.7 50.7 27.4 50.2 26.1 50.6C24.8 51 24 52.1 23.3 53.1C20.6 57 18.8 61.5 17.9 66.2C17.5 68 19 69.8 21 69.3C27.5 67.5 34.2 66.5 40.9 66.2C43.4 66.1 44.3 62.9 42.2 61.5C39 59.6 35.3 59.3 31.7 59.3C28.5 59.3 25.2 59.6 22.1 58.3C16.9 56.2 13.3 50.8 13.3 45.2C13.3 42 8.49999 42 8.29999 45.2C7.79999 52.4 12.7 59.2 19.6 61.3C20.8 61.7 22.4 60.9 22.7 59.6C23.7 55.1 22.9 50.4 20.4 46.6C19.7 45.6 18.4 45.1 17.3 45.6C16.1 46.1 15.7 47.3 15.9 48.5C16.3 51.4 16.7 54.4 17.1 57.3C18.6 56.7 20.1 56 21.7 55.4C18.8 51.3 16.1 47 13.6 42.6C13 41.5 12.4 40.4 11.8 39.3C11.4 38.5 10.9 37.6 10.8 36.7C10.7 34.9 12.6 33.4 13.8 32.4C12.5 31.4 11.2 30.4 9.89999 29.4C6.49999 34.5 7.69999 40.9 9.09999 46.4C10.6 45.8 12.1 45.1 13.7 44.5C12.7 42.2 13.5 38.9 15.6 37.4C17.9 35.7 16.5 32.4 13.7 32.8C9.69999 33.4 7.19999 37.5 6.99999 41.2C6.69999 45.7 9.69999 49.5 12.4 52.7C12.9 53.3 14.1 53.6 14.8 53.3C18.7 51.8 18.3 46.4 18 43C17.7 38.9 16.7 35.1 15.1 31.3C14.3 29.4 10.9 29.9 10.5 31.9C9.49999 37.4 9.99999 43 11.4 48.5C12.1 51.2 13.1 53.7 14.1 56.3C14.6 57.6 15.2 58.8 15.8 60.1C16 60.5 16.1 61 16.3 61.3C16.4 61.4 16.4 61.6 16.4 61.6C16.3 61.6 17.7 60.6 16.6 61C17 60.9 17.4 60.8 17.9 60.7C17.4 60.8 17.8 60.9 17.3 60.6C17 60.4 16.8 60.2 16.5 60C16 59.6 15.5 59.1 15 58.7C13.9 57.7 12.9 56.6 11.9 55.5C10.1 53.4 8.49999 51.1 7.39999 48.5C5.39999 43.8 5.29999 38.1 8.09999 33.7C9.29999 31.9 11.4 29.7 13.7 30.1C15.7 30.4 17.1 32.5 17.8 34.3C18.9 36.9 19 39.9 19.5 42.7C20.1 45.6 21.2 49.2 24 50.9C27.4 52.9 30.5 50.5 32.1 47.5C33.9 44 35.2 40.3 36.1 36.5C34.5 36.3 32.8 36.1 31.2 35.8C31.2 40.2 31.5 44.5 32.3 48.8C32.6 50.7 32.8 53.1 34.1 54.6C35.6 56.3 37.6 56 39.5 55.3C42.6 54.1 45.8 52.7 48 50.1C50.6 46.9 50.8 43 50.2 39C49.6 34.6 48 30.4 45.5 26.7C44.2 24.8 41.7 25.3 40.9 27.3C38.6 33 36.8 38.9 35.6 44.9C35 47.8 39.4 49 40.4 46C43 37.9 43 29 40.4 21C39.8 19.1 39.1 16.6 37.3 15.6C36.2 15 34.9 15 33.9 15.7C32.9 16.3 32.5 17.4 32 18.5C30.1 22.8 28.1 27 26.2 31.3C24 36.1 21.9 40.9 19.7 45.7C21.3 46.1 22.8 46.5 24.4 47C24.4 38.2 27.1 29.7 29.8 21.3C28.2 21.1 26.5 20.9 24.9 20.6C24.5 28.9 24.6 37.3 25.1 45.6C25.3 48.8 29.9 48.8 30.1 45.6C30.6 35.6 31.2 25.7 31.7 15.7C30 15.7 28.4 15.7 26.7 15.7C26.1 26.6 25.6 37.6 27.6 48.4C28 50.8 31.9 50.7 32.4 48.4C34 40.9 35.7 33.4 36.4 25.7C36.7 22 36.9 18.3 36.6 14.6C36.4 11.2 36.2 7.2 34.2 4.3C33.4 3.2 32 2.7 30.8 3.4C24.8 7 21.4 13.5 20.5 20.3C19.4 28.3 21.9 36 25.4 43.1C27.5 47.4 29.9 51.5 32.3 55.6C33 54.3 33.7 53.1 34.5 51.8C30.8 52 25.7 52.4 23.2 49.1C22 47.6 22.2 45.5 22.2 43.7C22.3 41.2 22.5 38.7 22.7 36.2C23.2 31.3 23.9 26.5 24.9 21.7C25.7 17.5 26.5 12.9 29.1 9.3C29.9 8.1 30.9 7 32.4 7.8C34 8.7 35.4 10.3 36.4 11.8C38.7 15.1 40.1 18.9 40.3 22.9C40.5 27.6 39.3 32.1 38.4 36.6C37.4 41.6 37.1 46.4 37.4 51.4C38.2 62.7 39.3 74.1 40.3 85.4C40.4 86.7 41.4 87.9 42.8 87.9C44 87.9 45.3 86.8 45.2 85.4Z" fill="#54BB0D"/>
<path d="M64.8 32.9001C68.5 31.8001 72.4 31.2 76.3 31C78 30.9 79.7 31 81.5 31.1C82.4 31.2 83.3 31.3 84.2 31.4C85.6 31.6 87.2 31.7 87.3 33.5C87.5 35 87.2 36.6 87 38.1C86.8 40 86.4 41.8001 86 43.7001C85.2 47.1 84 50.4 82.4 53.5C79.5 59.1 75.2 64.0001 69.9 67.3001C67 69.1001 63.9 70.3 60.7 71C57 71.8 53 72.5 49.2 72.4001C47.3 72.4001 45.4 71.9 43.5 72.2C42.1 72.4 41.9 73.2001 41.9 74.5C41.9 78.7001 42.2 82.9 42.7 87.1C42.8 87 42.9 86.9001 42.9 86.9001C41.5 86.8001 40.2 86.7 38.8 86.6C38.9 86.7 38.9 86.9001 39 87C41.1 83.8 40.9 79.9 40.1 76.2C39.1 71.6 37.9 67.2001 37.3 62.5C36.8 58.2001 37.1 53.7001 35.9 49.5C35.5 48.2001 35.2 47 35.7 45.6C36.1 44.5 36.8 43.4 37.4 42.3C38.5 40.2 39.7 38.0001 40.8 35.9001C41 35.6001 40.5 35.4 40.4 35.6C39.3 37.7 38.1 39.9 37 42C36.1 43.6 34.9 45.3001 35 47.2001C35 48.1 35.4 49.0001 35.6 49.9001C36 51.2001 36.1 52.6001 36.2 53.9001C36.4 56.1001 36.4 58.3001 36.7 60.4001C37.2 64.8001 38 69.1001 39.1 73.4001C40.2 77.7001 41.2 82.4001 38.7 86.4001C38.6 86.6001 38.7 86.8001 38.9 86.8001C40.3 86.9001 41.6 87 43 87.1C43.1 87.1 43.3 87 43.2 86.9001C42.7 82.9001 42.5 78.8001 42.4 74.8001C42.4 74.0001 42.2 73 43.3 72.5C43.7 72.3 44.5 72.4001 45 72.4001C45.9 72.4001 46.9 72.6 47.8 72.6C49.8 72.8 51.7 72.6001 53.7 72.4001C60.6 71.6001 67.1 70.0001 72.7 65.8001C77.8 61.9001 81.7 56.7 84.2 50.8C85.5 47.7 86.5 44.4 87.1 41C87.4 39.4 87.6 37.8 87.8 36.1C87.9 34.8 88.3 33 87.5 31.9C86.7 30.8 85.1 30.8001 83.9 30.7001C81.7 30.4001 79.5 30.3 77.4 30.3C73.2 30.3 68.9 31.0001 64.9 32.2001C64.4 32.5001 64.5 33.0001 64.8 32.9001Z" fill="black"/>
<path d="M35 46.9001C32.9 37.9001 32.2 28.6 33 19.4C33 19.1 32.5 19.1 32.5 19.4C31.7 28.7 32.4 38 34.5 47.1C34.6 47.4 35.1 47.2001 35 46.9001Z" fill="black"/>
<path d="M32.5 31.1C35.2 28.5 37.7 25.5 38.1 21.7C38.1 21.4 37.6 21.4 37.6 21.7C37.2 25.3 34.7 28.3 32.1 30.8C32 31 32.3 31.4 32.5 31.1Z" fill="black"/>
<path d="M32.1 30.1C29.8 27.3 28 24.1 26.9 20.6C26.8 20.3 26.3 20.4 26.4 20.7C27.6 24.2 29.4 27.5 31.8 30.4C31.9 30.7 32.3 30.3 32.1 30.1Z" fill="black"/>
<path d="M33.7 40.7001C33.4 40.7001 33.1 40.5001 32.9 40.3001C32.6 40.0001 32.4 39.7001 32.1 39.4001C31.6 38.8001 31.1 38.2001 30.6 37.6001C29.6 36.4001 28.6 35.2001 27.6 34.0001C27.4 33.8001 27 34.1001 27.2 34.4001C28.3 35.7001 29.4 37.0001 30.5 38.3001C31 38.9001 31.6 39.6001 32.1 40.2001C32.5 40.7001 32.9 41.4001 33.6 41.3001C34 41.2001 34 40.7001 33.7 40.7001Z" fill="black"/>
<path d="M36.7 56.7C38 52.4 42.2 50.2 44.9 46.9C47.6 43.6 48.9 39.4 49 35.2C49.2 30.3 47.8 25.5 46 21C44.2 16.6 42.3 12.2 39.8 8.20003C38.7 6.40003 37.4 4.70003 35.8 3.20003C34.5 2.00003 32.7 0.100028 30.9 2.78708e-05C26.5 -0.299972 25.2 6.20003 24.5 9.40003C23.3 14.5 22.8 19.6 21.5 24.7C20.2 29.7 18.6 34.7 18.4 39.9C18.2 44.8 19.5 49.9 23.1 53.4C24.6 54.9 26.4 56 28.5 56.5C31.3 57.2 34.1 56.5 36.9 56.8C37.2 56.8 37.2 56.3 36.9 56.3C34.5 56 32.1 56.5 29.7 56.2C27.6 55.9 25.6 54.9 24 53.5C20.6 50.5 19.1 46.1 18.9 41.6C18.7 36.8 20 32.1 21.3 27.4C22.5 22.9 23.4 18.3 24.2 13.7C24.6 11.4 25 9.10003 25.7 6.80003C26.3 4.70003 27.1 1.80003 29.3 0.800028C31.8 -0.399972 34.2 2.10003 35.8 3.80003C37.3 5.30003 38.6 7.10003 39.7 9.00003C42 12.8 43.8 16.9 45.5 21C47.2 25.3 48.6 29.9 48.6 34.5C48.6 39.3 47.1 44 43.8 47.5C41.1 50.3 37.5 52.6 36.3 56.6C36.1 56.9 36.6 57.1 36.7 56.7Z" fill="black"/>
<path d="M42 72.1C44.9 65 52.1 61.4 58.6 58.1C62 56.4 65.3 54.6 68.3 52.2C71.3 49.8 74 47 76.7 44.3C76.9 44.1 76.6 43.7 76.3 43.9C73.4 46.9 70.5 49.8 67.2 52.3C63.9 54.8 60.2 56.6 56.6 58.4C50.5 61.5 44.2 65.2 41.4 71.8C41.4 72.2 41.8 72.4 42 72.1Z" fill="black"/>
<path d="M72.6 47.9C71.8 46.3 71.5 44.5 71.4 42.6C71.4 41.7 71.4 40.9 71.5 40C71.5 39.2 71.4 38 72.2 37.5C72.5 37.3 72.2 36.9 71.9 37.1C71.2 37.5 71.1 38.3 71 39C70.9 40.1 70.9 41.1 70.9 42.2C70.9 44.2 71.2 46.3 72.1 48.1C72.3 48.4 72.8 48.2 72.6 47.9Z" fill="black"/>
<path d="M65.5 53.2C68.4 53.9 70.4 56.5 72.2 58.8C72.4 59.1 72.8 58.8 72.6 58.5C70.8 56.1 68.7 53.4 65.7 52.7C65.3 52.6 65.2 53.1 65.5 53.2Z" fill="black"/>
<path d="M59.5 56.2C58.9 55.4 58.9 54.4 58.9 53.5C58.9 52.5 59 51.4 59.1 50.4C59.3 48.3 59.5 46.2 59.8 44.1C59.8 43.8 59.3 43.8 59.3 44.1C59 46.4 58.8 48.8 58.6 51.1C58.5 52.8 58 55.1 59.2 56.6C59.3 56.8 59.7 56.4 59.5 56.2Z" fill="black"/>
<path d="M35.9 59.8C38.4 61.5 41.5 60.4 44 59.3C46.8 58.2 49.5 56.9 51.9 55.2C54.3 53.5 56.4 51.4 57.9 48.9C58.7 47.6 59.2 46.2 59.7 44.8C60.4 42.8 61.3 40.9 62.3 39C64 35.8 65.1 32.7 65.6 29.1C66.1 25.7 66.3 22.2 66 18.7C65.8 15.4 65.2 12.1 64 9C62.9 6.3 61.7 3.5 58.4 3.5C52 3.6 43.8 6.9 42.6 13.9C42.5 14.2 43 14.3 43.1 14C44.3 7.4 51.2 4.7 57.2 4C59.1 3.8 60.7 3.9 61.9 5.7C62.8 7 63.4 8.6 63.9 10C64.9 12.9 65.4 15.9 65.6 19C66 25.3 65.4 32.1 62.4 37.8C61 40.4 59.9 43.1 58.8 45.8C57.7 48.6 56 51.1 53.8 53.1C51.5 55.1 48.8 56.7 46.1 57.9C43.3 59.2 39.2 61.3 36.3 59.3C35.9 59.2 35.7 59.6 35.9 59.8Z" fill="black"/>
<path d="M58 10.7C57.4 12.5 57.4 14.5 56.8 16.4C56.2 18.4 55.1 20.3 53.8 21.9C51.7 24.3 48.8 26.2 47.8 29.3C47.7 29.6 48.2 29.7 48.3 29.4C49.4 26 52.7 24.1 54.8 21.4C55.9 20 56.7 18.4 57.3 16.7C57.9 14.8 57.9 12.8 58.5 10.9C58.6 10.6 58.1 10.4 58 10.7Z" fill="black"/>
<path d="M50.1 12.4C49.1 16.3 49.7 20.4 51.7 23.8C51.9 24.1 52.3 23.8 52.1 23.5C50.2 20.2 49.6 16.2 50.6 12.4C50.7 12.2 50.2 12.1 50.1 12.4Z" fill="black"/>
<path d="M48.8 37.2C50.4 35.4 51.9 33.5 53.8 32C54.7 31.3 55.7 30.7 56.7 30.1C57.6 29.6 58.4 29 59 28.1C59.2 27.8 58.7 27.6 58.6 27.8C58 28.8 57.1 29.3 56.1 29.9C55.1 30.5 54.2 31.1 53.3 31.8C51.5 33.3 49.9 35.1 48.4 36.9C48.3 37.1 48.6 37.4 48.8 37.2Z" fill="black"/>
<path d="M48.2 41.2C49.3 41.2 50.5 41.1 51.6 41.1C52.5 41.1 53.5 41.1 54.4 40.6C54.7 40.4 54.4 40 54.1 40.2C53.3 40.7 52.3 40.6 51.4 40.7C50.3 40.7 49.3 40.8 48.2 40.8C47.9 40.7 47.9 41.2 48.2 41.2Z" fill="black"/>
<path d="M20.1 31.5999C18.8 30.3999 17.5 29.1999 16.2 27.9999C15.2 26.9999 14.2 25.8999 12.9 25.0999C10.8 23.7999 8.2 24.9999 6.3 26.2999C2.1 29.1999 0 34.4999 0 39.5999C0 45.6999 2.5 51.5999 5.7 56.6999C7.3 59.1999 9.2 61.4999 11.3 63.5999C13.2 65.4999 15.4 67.2999 18.1 67.9999C24.6 69.6999 31.1 65.8999 37.6 66.4999C37.9 66.4999 37.9 65.9999 37.6 65.9999C32.4 65.4999 27.5 67.5999 22.3 67.8999C19.5 67.9999 16.9 67.3999 14.5 65.6999C12.3 64.0999 10.4 62.0999 8.7 59.8999C2.2 51.8999 -3.5 38.2999 4 29.0999C5.7 26.9999 9.4 23.8999 12.4 25.2999C13.7 25.8999 14.8 27.2999 15.9 28.2999C17.2 29.4999 18.5 30.6999 19.8 31.8999C19.9 32.0999 20.3 31.7999 20.1 31.5999Z" fill="black"/>
<path d="M35.4 58.9C32.5 59.7 29.2 58.8 26.4 58C23.4 57.2 20.9 55.7 18.8 53.5C14.9 49.3 11.9 44.2 10 38.8C9.9 38.5 9.4 38.6 9.5 38.9C11.5 44.6 14.6 50.2 19 54.5C21.1 56.6 23.6 57.9 26.5 58.6C29.4 59.3 32.6 60.2 35.6 59.4C35.9 59.3 35.7 58.9 35.4 58.9Z" fill="black"/>
<path d="M12.9 42.0999C13.1 42.5999 13 43.0999 12.9 43.5999C12.8 43.9999 12.7 44.4999 12.7 44.9999C12.7 45.8999 12.9 46.7999 13.3 47.5999C13.4 47.8999 13.9 47.5999 13.7 47.2999C13.3 46.4999 13.1 45.5999 13.1 44.5999C13.1 43.6999 13.6 42.8 13.3 41.9C13.3 41.7 12.8 41.7999 12.9 42.0999Z" fill="black"/>
<path d="M17.6 53.2C15.5 54.4 12.9 54.4 10.7 53.4C10.4 53.3 10.2 53.7 10.4 53.8C12.7 54.9 15.5 54.8 17.8 53.6C18.2 53.4 17.9 53 17.6 53.2Z" fill="black"/>
<path d="M25.4 58.2C23.5 59.4 21.2 59.8 19 59.5C18.7 59.5 18.5 59.9 18.9 60C21.2 60.4 23.7 59.9 25.7 58.7C26 58.5 25.7 58 25.4 58.2Z" fill="black"/>
</g>
<defs>
<clipPath id="clip0">
<rect width="88" height="87.9" fill="white"/>
</clipPath>
</defs>
</svg>
