<svg xmlns="http://www.w3.org/2000/svg" viewBox="0 0 223.51 320.4"><defs><style>.cls-1{fill:#f42e63;}.cls-2{fill:#58b825;}</style></defs><g id="Ebene_2" data-name="Ebene 2"><g id="Icons"><path class="cls-1" d="M98.86,87.7a5.79,5.79,0,0,0-10.12-2.16,5.85,5.85,0,0,0-2.66-1.67,5.93,5.93,0,0,0-7.14,4l0,.07A261.42,261.42,0,0,0,67.56,153a264.36,264.36,0,0,0,5.27,65.87,250.64,250.64,0,0,0,9.83,34.73c.06.52.11,1.05.17,1.58a6,6,0,0,0,2.28,4.56,5.5,5.5,0,0,0,5.06,1c11-4.26,17.73-14.3,20.5-25.47a105.93,105.93,0,0,0,2.39-18q.63-8.9.8-17.8A372.13,372.13,0,0,0,108.12,127,362.78,362.78,0,0,0,98.86,87.7Zm.31,56.54c0-.29,0-.2,0,0ZM88.87,95c.46,1.63.92,3.26,1.36,4.89a5.85,5.85,0,0,0-2.81.29Q88.13,97.62,88.87,95ZM79,157.3q.24-8.12,1-16.2c.18-2,.4-4,.63-5.94q-1.11,14.35-1.58,28.77c-.06,1.83-.1,3.67-.14,5.5Q78.81,163.37,79,157.3ZM101.9,210c-.14,2.85-.31,5.69-.52,8.54-.1,1.36-.21,2.71-.34,4.07-.06.68-.13,1.36-.2,2a8.72,8.72,0,0,1-.14,1.13,60.88,60.88,0,0,1-1.94,9.06c-.23.72-.47,1.44-.73,2.14-.11.3-.23.6-.34.89v0a37.84,37.84,0,0,1-1.83,3.52c-.35.6-.73,1.18-1.12,1.75l-.44.62c-.3.36-.62.71-.94,1.06q-.73-7.56-1.3-15.13a4.17,4.17,0,0,0,.5,0,5.94,5.94,0,0,0,5.8-5.8,555.43,555.43,0,0,0,.56-81.38l.18,1.24s.15,1.15.12.9c0,.2.05.38.05.39.19,1.41.36,2.82.53,4.24.35,2.91.66,5.83.93,8.74,1.09,11.51,1.63,23.08,1.62,34.64Q102.34,201.29,101.9,210Z"/><path class="cls-1" d="M155.71,101.38c-.36-5.56-2.51-10.53-7.26-13.67A12,12,0,0,0,133.7,88.8c-2.72,2.54-3.88,6.09-4.46,9.65a5.79,5.79,0,0,0-3.38,3.82A232.8,232.8,0,0,0,122.5,207.7a225.41,225.41,0,0,0,7.5,28.24,5.85,5.85,0,0,0,6.37,4.15c3-.41,4.7-2.78,5-5.69l.48-4.27c2.92-1.16,4.13-3.87,3.58-6.94h0c-.6-3.6-1.14-7.21-1.66-10.85L148,174.78l6.6-59.62C155.1,110.64,156,105.94,155.71,101.38Zm-14-4.22h0l.16,0-.14.07ZM140.45,101l.06-.36a2.86,2.86,0,0,1-.08.51C140.44,101.13,140.44,101.08,140.45,101Zm1.41-3.82Zm.24-.14Zm-.19,0-.18,0h0c.11-.07.36-.13.44-.23A.86.86,0,0,1,141.91,97.1Zm2.11,4.5v1.54c0,1.1-.1,2.21-.2,3.31-.22,2.24-.49,4.48-.74,6.72l-2.39,22.14c.11-2.13.23-4.25.38-6.38q.47-6.57,1.12-13.12.34-3.41.75-6.79c.13-1.13.27-2.26.41-3.39.07-.48.13-1,.19-1.45a9.47,9.47,0,0,1,.13-1q-.15,1.11,0,.09a6.43,6.43,0,0,0-.59-4.47,6.09,6.09,0,0,0-1.28-1.49l.21.14c0-.09.06-.1.28.11l.16.15.18.11-.11,0,.29.27c.07.09.15.16.22.24l.45.77c0-.09-.07-.15,0-.16s.08.14.13.3c.19.36.11.23,0,0a2.49,2.49,0,0,1,.07.29c.17.56.26,1.12.39,1.68Z"/><path class="cls-1" d="M142.52,97.78l-.07-.07-.44-.26A1,1,0,0,0,142.52,97.78Z"/><path class="cls-1" d="M143.56,99.2l0,0-.06-.11.08.17Z"/><path class="cls-2" d="M41.16,40.3a.72.72,0,0,0,.5.23l-.37-.19Z"/><path class="cls-2" d="M108.22,31v0c-.32.51-.32.61-.24.49s.13-.25.2-.37Z"/><path class="cls-2" d="M107.58,32.19l0-.07c-.38.24-.46.45-.35.41a4,4,0,0,1,.28-.3Z"/><path class="cls-2" d="M145.24,20.22c0-.06,0-.12,0-.17s-.07-.14-.06.4c0,0,0-.05,0-.08A.44.44,0,0,0,145.24,20.22Z"/><path class="cls-2" d="M169.39,18.8a20.28,20.28,0,0,0-8.82-14.93,5.7,5.7,0,0,0-1.95-.69,9.76,9.76,0,0,0-8.43-.52,9.32,9.32,0,0,0-5.5,6.2,15.49,15.49,0,0,0,.13,6.94c.14.73.29,1.46.43,2.18,0,.12,0,.19.05.25,0,.45,0,.9,0,1.34a3.88,3.88,0,0,1,0,.48.59.59,0,0,1,0,.17,3.2,3.2,0,0,0,0,.53c0-.12,0-.21,0-.3a4,4,0,0,1-.11.5,21.5,21.5,0,0,1-.69,2.5c-.25.74-.53,1.47-.82,2.2a2.13,2.13,0,0,0-.18.41c-.18.43-.37.84-.57,1.27a22.06,22.06,0,0,0-.59-3.94,17.44,17.44,0,0,0-11.6-12.23,16.47,16.47,0,0,0-15.74,3c-4.28,3.69-4.91,9.22-6,14.38-.12.53-.25,1.07-.4,1.59-.09.28-.17.55-.27.82a1.26,1.26,0,0,0,.11-.17,2.64,2.64,0,0,0-.15.29,1.7,1.7,0,0,1-.2.37,4.92,4.92,0,0,1-.37.68l.09-.06c-.06,0-.1.12-.16.17a.89.89,0,0,1-.28.3c-.11.12-.23.22-.33.35s-.38.33-.56.51c-.43.28-.84.58-1.27.85-1.13.73-2.3,1.4-3.42,2.15A25.63,25.63,0,0,0,90.47,60.16l-1.27.73c-.55.26-1.09.53-1.64.78l.07.13a5.8,5.8,0,0,0-1.49,1.34,6,6,0,0,0-.14-1.4C84.93,55.08,83.85,48.37,81.55,42A47.07,47.07,0,0,0,70.77,24.49C61.6,15.32,48.39,10.25,35.43,11.62a45,45,0,0,0-21.82,8.05c-2.35,1.72-3.57,4.41-2.37,7.25a5.55,5.55,0,0,0,5.18,3.43,11.1,11.1,0,0,0,4.75,8.5,14.15,14.15,0,0,0,8.46,2.27,32,32,0,0,0,4.58-.56L36,40.21,37.15,40c.1,0,.56-.06.77-.09H39a3,3,0,0,1,.67,0l.14,0,1.35.4,0,0,.17.09.08,0c.29.1.34.15.29.17.19.09.37.2.56.28A28.16,28.16,0,0,1,45,42.62a7,7,0,0,1,.61.46l1.71,1.35L61,55.28l15.3,12.1c2,1.56,4.71,2.4,7,.9a5.81,5.81,0,0,0,1.58-1.46,5.89,5.89,0,0,0,.77,2.85c1.85,2.87,5,3.41,7.93,2.08.44-.2.88-.42,1.32-.64a5.8,5.8,0,0,0,6.1.18,5.93,5.93,0,0,0,2.81-5.44l.69-.48c7.27-4.12,14.54-8.24,21.67-12.54a42.33,42.33,0,0,0,11.54-9.5c-.64,5.93-.06,12,.69,18a6.42,6.42,0,0,0,1.69,4.1,6,6,0,0,0,4.11,1.7,6.42,6.42,0,0,0,5.65-4.06l.31,0a10.74,10.74,0,0,0,7.24-5.55,16.13,16.13,0,0,0,1.44-9.28c-.12-1-.27-2.06-.43-3.09a8.24,8.24,0,0,0-.14-1,3,3,0,0,0-.09-.51,6.35,6.35,0,0,1,0-1.51,5,5,0,0,1,0-.77,3.3,3.3,0,0,0,.14-.4c.06-.13.09-.27.14-.41.22-.39.46-.75.68-1.13l0-.08.22-.25a18.1,18.1,0,0,1,1.33-1.42,58.67,58.67,0,0,0,4.46-4.6A19.33,19.33,0,0,0,169.39,18.8ZM28,29.34v.05l-.12-.16Zm.16.54c.07-.15.12-.19,0,.06A.21.21,0,0,0,28.14,29.88Zm-.4-.53c-.22-.05-.4-.11-.4-.18Zm.13.08Zm.16,0v0s0,0,0,0Zm-.3-.13,0,0h0l-.1-.11h0Zm31.36.4.19.16C59.62,30.15,60,30.58,59.09,29.68ZM26.7,31.78a5.65,5.65,0,0,0,.73-.56A3.08,3.08,0,0,1,26.7,31.78Zm2.15-2.3h0c.07-.14.14-.28.2-.42.5,0,1-.07,1.49-.09.84,0,1.68,0,2.52,0-.88.14-1.78.28-2.64.49l-.77.05Zm75.77,19.73a.63.63,0,0,1,.1-.12v0c.24-.24.41-.15-.22.3ZM125,22l-.29,0,.08,0Zm1.44.05a1.35,1.35,0,0,1-.49-.05h.24Zm30.85,2v0a1.9,1.9,0,0,1,.11-.48A2.36,2.36,0,0,0,157.27,24.06Zm.49-5c0,.1.06.21.08.31s0,.2,0,.3C157.73,19.22,157.73,19.05,157.76,19.07ZM153,13.23a.4.4,0,0,1,.09.11Zm-7.71,4.36a2.43,2.43,0,0,0,.05.6v0A2.17,2.17,0,0,1,145.25,17.59Zm-1.6,7.9s0,0,0,.05Zm-.17.42v0C143.34,26.25,143.4,26.11,143.48,25.91Zm15,14.29c0-.05,0-.09,0-.13A.79.79,0,0,1,158.52,40.2Z"/><polygon points="14.59 120.1 51.25 120.1 51.25 113.5 14.59 113.5 14.59 82.54 55.61 82.54 55.61 75.95 9.22 75.95 9.22 160 14.59 160 14.59 120.1"/><path d="M223.51,117.53c0-25.49-11.07-41.58-32-41.58h-23.7V160h23.7C212.41,160,223.51,142.57,223.51,117.53Zm-50.33,35.89V82.54h16.87c17.89,0,27.84,10.84,27.84,35,0,23.7-9.95,35.88-27.84,35.88Z"/><path d="M197.19,187.64l-27.27-.08v84.06h5.48V234h21.79c12.75,0,21.58-9.61,21.58-23.36S210.05,187.64,197.19,187.64Zm0,39.69H175.4v-33.2h21.79c9.8,0,16,6.28,16,16.45S206.81,227.33,197.18,227.33Z"/><path d="M30.48,266C16,266,5.56,248.4,5.56,228.87c0-19.74,10.71-35,25.74-35,9.89,0,18,6.27,22,16.09l5.35-.61c-4.84-13.66-14.83-21.76-27.18-21.76C13.49,187.64,0,205.9,0,229.27c0,23,12.77,42.93,30.58,42.93,13.59,0,23.68-9.21,28.42-25.1l-4.94-1.31C50,258.24,41.39,266,30.48,266Z"/><path d="M13.59,297c-1.57,0-5.16.15-6,4.25a6.24,6.24,0,0,0,1.93,5.85c2,2.11,4.73,5.43,3.8,8.08-.88,2.5-3.65,3.1-5.49,3.1a3.36,3.36,0,0,1-3.53-3.1c0-1.33.27-3.23,2.9-3.23,1.08,0,1.68-.33,1.68-1.05,0-.91-.6-1.06-1.68-1.06-3.8,0-5,2.69-5,5.34a5.39,5.39,0,0,0,5.58,5.21h.06c3.07,0,6.42-1.32,7.6-5.21,1-3.29-2.32-7.33-4.16-9.32a5.3,5.3,0,0,1-1.51-4.55c.48-2.29,2.62-2.2,3.8-2.2,1.66,0,2.59.69,2.59,2.29,0,1.36.42,1.75,1.09,1.75s1.05-.39,1.05-1.75C18.32,298,15.76,297,13.59,297Z"/><path d="M67.36,296.91a1.75,1.75,0,0,0-1.81,1.7.67.67,0,0,0,0,.2,1.82,1.82,0,0,0,3.62-.06,1.67,1.67,0,0,0-1.48-1.84A1.82,1.82,0,0,0,67.36,296.91Z"/><path d="M222.77,306.38c-.34-.58-1-.55-1.55-.1l-7.17,6.12a5.24,5.24,0,0,1-3,1.33c-1.39,0-1.75-1-1-2.41l3.1-5.76c.79-1.45-.75-2.44-2.26-3l-1.66-.67-.6-3c-.21-1-2.32-.85-2,.57l.72,3.11-6.21,5.33a3.59,3.59,0,0,0-.39.39l-.4.34c-4,3.4-7.77,5.12-10.94,5-2.47-.06-3.5-.9-3.5-3.47q0-.32,0-.63c5.76,0,10.4-2.14,10.4-4.79,0-1.84-1-3-3.58-3a9.85,9.85,0,0,0-8,4.64L178.28,312l1.33-4.82c.51-1.9.93-3.68-.13-4.86-.9-1-3.1-.36-4.94,1.15-.45-2.2-2.77-2-5-.42.25-.94.07-1.24-.75-1.24a1.33,1.33,0,0,0-1.33,1.09l-1,3.75L160.18,312l1.33-4.82c.51-1.9.94-3.68-.12-4.86-.9-1-3.11-.36-4.94,1.15-.46-2.2-2.78-2-5-.42.24-.94.06-1.24-.75-1.24a1.33,1.33,0,0,0-1.33,1.09l-1,3.75L141,313l1.27-6.73a1.14,1.14,0,0,0-.78-1.4,1.27,1.27,0,0,0-.34,0,2.33,2.33,0,0,0-1.65.69c-5.64,6.12-7.15,8-8,8-.39,0-.55-.54-.55-1.27a8.15,8.15,0,0,1,8.1-8.2h.26a7.87,7.87,0,0,1,3.07.58,1,1,0,0,0,1.18-.37,1.16,1.16,0,0,0-.06-1.41c-1-.73-2.14-.94-4.16-.94a10.1,10.1,0,0,0-8.9,4.7c-2,1.71-4.1,3.49-6.06,5.19-.36.24-1.9,1.78-2.63,1.78-.42,0-1.84-2.35-2.74-3.86,3.89-.51,6.21-2.71,6.21-5.37a2.38,2.38,0,0,0-2.31-2.45h-.31c-2.17,0-4.16.94-8.69,8.53l3.17-12.18c.15-.54,0-1.17-.81-1.17a1.39,1.39,0,0,0-1.42,1l-2.09,8.21-.15.08-2.71,2.33c-4,3.4-7.78,5.12-10.94,5-2.48-.06-3.5-.9-3.5-3.47q0-.32,0-.63c5.76,0,10.4-2.14,10.4-4.79,0-1.84-1-3-3.59-3a9.85,9.85,0,0,0-8,4.64l-4,3.44a5.69,5.69,0,0,1-3.65,1.48,4.05,4.05,0,0,1-2.5-.84l-.73-7.87,1-2.78c.51-1.48-1.66-1.6-2.08-.3L81.56,302l-5.06,4.29-1.39,1.2-1.41,1.19a1.29,1.29,0,0,0-.17.16c-1.61,1.37-3.2,2.74-4.8,4.12a3.28,3.28,0,0,1-2,.78c-1,0-1.81-.66-1.39-2.38l1.6-6.6a2.35,2.35,0,0,0-1.6-2.91,2.6,2.6,0,0,0-.78-.09,2.77,2.77,0,0,0-1.81.76l-4.38,3.73-2.71,2.33c-4,3.4-7.78,5.12-10.95,5-2.47-.06-3.5-.9-3.5-3.47q0-.32,0-.63c5.76,0,10.41-2.14,10.41-4.79,0-1.84-1-3-3.59-3a9.85,9.85,0,0,0-8,4.64l-4,3.38a17.68,17.68,0,0,0,.13-3c-.07-2-.76-5-3.38-5-2,0-5.43,4.07-8.93,7.54L25.38,304c.39-1.5.45-2.14-.66-2.14-.67,0-1.18.39-1.63,2.08l-2.68,10.28-.85,3.26c-.33,1.36-.39,2.08.72,2.08.67,0,1.18-.48,1.45-1.6l.85-3.16C26.47,309.24,32,304.08,33,304.08s1,2,1,2.69c.18,4.31-.33,7.26-6.72,6.45-1.51-.18-1.57,1.93,0,2.11,3.17.36,5.25-.12,6.6-1.21l.06-.06c.06,0,.09-.09.15-.12L39,309.81v.48c0,4.56,2.57,5.28,5.58,5.28,3.5,0,7.45-1.42,11.76-5.09l2.56-2.19,4.4-3.77c.48-.42.72-.6,1-.6.52,0,.73.42.55,1.15l-1.63,6.81c-.54,2.26.93,3.71,3.1,3.71a6,6,0,0,0,3.8-1.45l7.09-6.06a2.78,2.78,0,0,0,.41-.43l3.84-3.37.49,5.61a4.92,4.92,0,0,0-3.62,2.87c-.64,1.56.15,2.86,1.72,2.86a4.75,4.75,0,0,0,4-2.77,4.17,4.17,0,0,0,2.32.54,7.49,7.49,0,0,0,4.76-1.75l2.15-1.84v.48c0,4.56,2.56,5.28,5.57,5.28,3.5,0,7.45-1.42,11.76-5.09l1.42-1.21-1.2,4.7c-.24.94.15,1.6,1,1.6s1.39-.54,1.9-1.42c1.06-1.75,2-3.22,2.75-4.43l2.29,3.38c1,1.63,1.93,2.47,2.8,2.47,1.09,0,1.57-.36,2.84-1.45L129,310.2a10.34,10.34,0,0,0-.19,2c0,2,.76,3.38,2.69,3.38s5.06-4.16,8.14-7.75l-1,5.64c-.24,1.33-.06,2.14,1,2.14s1.57-.36,2.83-1.45l5-4.3L146.4,314c-.25.94,0,1.66.84,1.66s1.09-1,1.27-1.63l1.84-7c.78-2,3.49-3.53,4-3.08.24.24-.31,2.32-.55,3.2l-1.8,6.81c-.24.94,0,1.66.85,1.66s1.08-1,1.26-1.63l1.81-6.75c.58-2.14,3.53-3.86,4-3.35.21.24-.33,2.29-.57,3.17l-1.81,6.9c-.24.94,0,1.66.85,1.66a1.26,1.26,0,0,0,1-.39l6.27-5.36-1.08,4.09c-.24.94,0,1.66.84,1.66s1.09-1,1.27-1.63l1.84-7c.78-2,3.5-3.53,4-3.08.24.24-.3,2.32-.54,3.2l-1.81,6.87c-.24.94,0,1.66.84,1.66s1.09-1,1.27-1.63l1.81-6.75c.57-2.14,3.53-3.86,4-3.35.21.24-.33,2.29-.57,3.17l-1.81,6.9c-.25.94,0,1.66.84,1.66a1.26,1.26,0,0,0,1-.39l6.28-5.37v.48c0,4.56,2.56,5.28,5.58,5.28,3.5,0,7.45-1.42,11.76-5.09l2.83-2.42a2.38,2.38,0,0,0,.42-.42l4.41-3.83,1.66.73c.51.21.87.69.42,1.5l-2.5,4.56c-1.57,2.86-.3,5,2.35,5a7.37,7.37,0,0,0,4.85-2l6.49-5.55C222.71,307.56,223.11,307,222.77,306.38Zm-30.5-2.75c1.21,0,1.72.33,1.72,1.18,0,1.62-3.34,2.77-7.33,2.77C187.87,305.29,190.46,303.63,192.27,303.63Zm-90.47,0c1.21,0,1.72.33,1.72,1.18,0,1.62-3.35,2.77-7.33,2.77C97.4,305.29,100,303.63,101.8,303.63Zm-54.28,0c1.2,0,1.71.33,1.71,1.18,0,1.62-3.34,2.77-7.32,2.77C43.11,305.29,45.71,303.63,47.52,303.63Zm70.29,4.25h-.06c2.27-3.16,3.47-4,4.31-4a.85.85,0,0,1,.91.79v.12C123,306.77,120.14,307.88,117.81,307.88Z"/><path d="M149.17,253.87c.59-4.68.83-9.42,1.19-14.12q.58-7.42,1.07-14.84,2-29.82,2.65-59.71t0-59.77c-.1-4.61,0-9.32-.73-13.88-.61-3.78-2-7.62-5-10.21a7.89,7.89,0,0,0-7.36-2,19.66,19.66,0,0,0-7.29,4,10.24,10.24,0,0,0-3.23,4,33.35,33.35,0,0,0-2.88,5.28c-3.53,8-5.12,16.79-6.25,25.39a258.53,258.53,0,0,0-2,34.84,389.27,389.27,0,0,0,2.14,39.07,349.74,349.74,0,0,0,6,37.94c1.24,5.72,2.66,11.4,4.32,17,.77,2.6,1.59,5.17,2.48,7.73,1,2.91,2.25,6.18,4.77,8.13a5.28,5.28,0,0,0,3.35,1.13,6.17,6.17,0,0,0-1.47,2,7.07,7.07,0,0,0-.51,3.37,6.24,6.24,0,0,0-4.26.58c-1.51.85-3.42,3-2,4.71.49.57,1.31-.25.82-.82s.22-1.63.69-2.1a4.79,4.79,0,0,1,3-1.36,5.15,5.15,0,0,1,1.91.24,4.85,4.85,0,0,0,.17.91c.5,2.34,1,4.53.36,6.91a13.78,13.78,0,0,1-3.66,6.15c-.52.53.3,1.35.82.82,2.77-2.81,4.67-6.58,4.28-10.61a31.56,31.56,0,0,0-.68-3.46,4.91,4.91,0,0,1,1.31,3.23A48.69,48.69,0,0,1,142,289.59c-.16.73,1,1,1.12.31a58.81,58.81,0,0,0,1.35-10.32c.1-2.72.49-6.49-1.34-8.77a4.45,4.45,0,0,0-1.5-1.19,7.92,7.92,0,0,1,0-1.54,5.3,5.3,0,0,1,3.38-4.5.63.63,0,0,0,.36-.7,5.72,5.72,0,0,0,.83-.72C148.11,260,148.8,256.73,149.17,253.87Zm-5.88,8.75c-3.67,1-6-3.42-7.12-6.17-1-2.44-1.78-5-2.56-7.51-1.64-5.27-3-10.61-4.28-16a331.91,331.91,0,0,1-6.13-36.13c-1.44-12.38-2.32-24.85-2.6-37.32A296.32,296.32,0,0,1,121.68,125c.86-9,2.18-18.19,5-26.85a44.8,44.8,0,0,1,3.75-8.82.57.57,0,0,0,.79-.13.6.6,0,0,0,.11-.34,3.71,3.71,0,0,1,.19-1.19,14.61,14.61,0,0,1,4.35-4.12,9,9,0,0,1,2.88-1.1c.64-.13.48-1-.06-1.12a9.46,9.46,0,0,1,4.35-1.2c3.55.09,6.32,3.47,7.67,6.42,1.9,4.15,1.93,8.91,2,13.38q.75,28.39.3,56.8t-2.1,57q-.83,14.24-2,28.45a125.86,125.86,0,0,1-1.21,13C147.31,257.84,146.29,261.79,143.29,262.62Z"/><path d="M12.63,18.49c11.21,9.41,26.61,9.45,40.16,12.86a45.8,45.8,0,0,1,18.93,9.21,45,45,0,0,1,10,12.21c.26,2.5.43,5,.59,7.52,0,.74,1.21.74,1.16,0-.1-1.58-.21-3.18-.33-4.79.22.46.44.92.65,1.38.57,1.3,1,2.64,1.5,4a13.1,13.1,0,0,0-.15,4.67,14.08,14.08,0,0,0,2.23,5.83,40.53,40.53,0,0,1-.07,6.33l-.54.16a.6.6,0,0,0-.74-.42.61.61,0,0,0-.26.15c-6.52,6-10.68,14.11-13.63,22.35-3.73,10.44-5.65,21.48-6.84,32.47a302,302,0,0,0-1.45,38.16C64.13,183.74,65,196.9,66.3,210q.95,9.48,2.19,18.92c.81,6.17,1.59,12.39,2.78,18.5,1.34,6.85,3.86,14.25,10.25,17.94l.2.1a.48.48,0,0,0,.38.29l.25.05a12.94,12.94,0,0,0,3.14,1.07l-7.3,4.19a.58.58,0,0,0,.59,1l8.68-5c2.56,1,4.61,2.55,3.11,5.21-1.36,2.4-4.85,4.8-3.89,7.94.22.71,1.34.41,1.12-.31-.49-1.61.78-3.11,1.72-4.28s2.22-2.53,2.62-4.12c.47-1.86-.6-3.4-2.09-4.43l-.38-.23.45-.09a11.73,11.73,0,0,0,6.35-4.64c3.64-5,4.51-11.66,5.26-17.66q1.65-13.33,2.84-26.73,2.37-26.67,2.85-53.47t-.92-53.8c-.37-7.06-.72-14.54-4-21a28.3,28.3,0,0,0-6.26-7.88A16.58,16.58,0,0,0,90.7,78l2.38-2.19c-.16.68-.32,1.36-.46,2s1,1,1.12.31c.27-1.26.56-2.52.88-3.78C102,67.56,109.34,60.74,116.8,54a77.06,77.06,0,0,1,13.73-10.23c2.17-1.21,4.38-2.36,6.53-3.62a17.11,17.11,0,0,0-1.3,2.33A18.21,18.21,0,0,0,135,53.91c1.05,4.76,3.27,9.19,5.57,13.45a.59.59,0,0,0,.79.21l7.82-6a35.35,35.35,0,0,1-1.45,4,35.83,35.83,0,0,1-13.66,15.94c-.63.39,0,1.4.58,1a36.81,36.81,0,0,0,16-22.09l.89-.69c3-2.34,6.39-4.54,9-7.44,1.91-2.17,3.53-5,2.69-8s-4.75-5.1-3.83-8.49c1-3.73,5.33-4.91,8.3-6.57A10.79,10.79,0,0,0,172.9,23,15,15,0,0,0,169,8.33c-3.75-3.64-8.78-5.28-13.92-5.88A16.78,16.78,0,0,0,142.74.39c-.73.17-.42,1.28.31,1.12a15.47,15.47,0,0,1,9,.71c-1.26-.05-2.52-.06-3.75,0a.58.58,0,1,0,0,1.16,49.45,49.45,0,0,1,6.44.21A14.79,14.79,0,0,1,159.81,9a15.49,15.49,0,0,1,1.7,9.47,23.32,23.32,0,0,1-3.84,9,71.08,71.08,0,0,0-4.79,8,25,25,0,0,0-2.12,9.64c-.16,3.82.1,7.66-.45,11.45-.16,1-.38,2.1-.63,3.13l-8.41,6.49C137.44,59,133,49.78,137.33,42a25.85,25.85,0,0,1,2.24-3.33c.83-.55,1.64-1.12,2.42-1.74,3.12-2.46,5.68-5.71,6.07-9.78a10.89,10.89,0,0,0-.48-4.39c.09-.5.17-1,.24-1.51a30.7,30.7,0,0,0-1.09-12.92c-.22-.71-1.34-.41-1.12.31a29.85,29.85,0,0,1,1.09,12.1,14.55,14.55,0,0,0-3.19-4,28.22,28.22,0,0,0-11.84-5.94c-4.95-1.27-10.62-2-15.33.47-7.93,4.16-9.12,14.49-9.18,22.78-1.34-1.14-3.54-1.17-5.34-.52C97.7,35,97.08,39.09,96.42,43c-.47,2.73-1.15,5.24-3.07,7.33-1.66,1.8-3.71,3.2-5.33,5A11.81,11.81,0,0,0,85.83,59a47.32,47.32,0,0,0-3-6.51c-.94-9.42-3-19-9.24-26.24C69.08,21,62.71,18.37,56.39,16c-7-2.64-14.27-5.37-21.88-5.53a35.15,35.15,0,0,0-21.77,7.11.59.59,0,0,0-.2.8ZM151.86,47.92c0-4.14.3-8.23,2.1-12,1.47-3.11,3.55-5.88,5.32-8.81a22.13,22.13,0,0,0,3.44-9A16.7,16.7,0,0,0,161,8.79a15.68,15.68,0,0,0-3.88-4.87,21.76,21.76,0,0,1,9.94,4.25c4.17,3.36,6.41,9.35,4.73,14.55-1,3-3.2,4.75-5.94,6.1s-5.55,2.54-7,5.29c-1.34,2.49-.51,4.8,1.11,6.89a9.5,9.5,0,0,1,2.32,4.06A6.78,6.78,0,0,1,161,49.79c-2.24,3.46-6,5.81-9.17,8.28l-.68.52A56,56,0,0,0,151.86,47.92ZM98.64,85.75c4.75,5.6,5.92,12.91,6.45,20,1.23,16.73,1.43,33.61,1.31,50.38q-.2,25.67-2.11,51.29-.95,12.66-2.32,25.3-.69,6.38-1.49,12.73a59,59,0,0,1-1.82,9.3c-1.51,5-4.7,10.66-10.29,11.14a.55.55,0,0,0-.74-.24l0,0-.19.11a33.09,33.09,0,0,0-4.92-1.13c-4.94-2.59-7.84-8.57-9.23-13.76-1.61-6.06-2.29-12.42-3.15-18.62q-1.23-9-2.2-18c-1.34-12.52-2.29-25.08-2.7-37.67a337.06,337.06,0,0,1,.62-36.93,169.45,169.45,0,0,1,5.37-32.8C73.61,98.26,77,89.6,82.7,82.59c.25-.3.51-.58.77-.88a.54.54,0,0,0,.76.11.65.65,0,0,0,.15-.18A5.08,5.08,0,0,1,87.17,79a2.8,2.8,0,0,1-.09.86.58.58,0,0,0,.34.75.59.59,0,0,0,.66-.19l1.62-1.49C93,79.7,96.7,83.45,98.64,85.75Zm-9.3-8.07L89,77.59h-.53a40.62,40.62,0,0,0,.1-4.68A11.69,11.69,0,0,0,91.8,75.4Zm57.6-52.11a11.32,11.32,0,0,1,0,1.54,12.6,12.6,0,0,1-4.58,8,26,26,0,0,0,2.13-3.25A31,31,0,0,0,146.94,25.57Zm-5.35-9a.61.61,0,0,0-.12-.16l.12.09a13.75,13.75,0,0,1,4.79,6.29,29.36,29.36,0,0,1-3.52,9.5,49,49,0,0,1-4,5.41c-3,2-6.22,3.57-9.34,5.34A74.15,74.15,0,0,0,117,52.33c-7.35,6.52-14.56,13.22-21.77,19.91a88.79,88.79,0,0,1,11-24.83,82.49,82.49,0,0,1,35.11-30.14A.51.51,0,0,0,141.59,16.59ZM88.07,57.11c2.27-3.23,6.15-5,8-8.63a21.21,21.21,0,0,0,1.64-6c.33-2,.61-4.29,1.82-6,1.4-1.94,7.16-4,7.66-.25.09.71,1.17.77,1.16,0-.1-7.56.2-17.61,6.66-22.77,4.24-3.39,9.85-3,14.86-2a29.92,29.92,0,0,1,11.3,4.77.59.59,0,0,0-.45,0,84.23,84.23,0,0,0-42.31,43.3,96.71,96.71,0,0,0-4.8,14.16l-.9.84a1.09,1.09,0,0,0-.17-.13,11.22,11.22,0,0,1-4.05-3.57,44.16,44.16,0,0,0-2-10.12A10.55,10.55,0,0,1,88.07,57.11Zm-1,11.1a12.91,12.91,0,0,1-.89-4.38C86.51,65.28,86.82,66.74,87,68.21ZM32.24,11.66c7.34-.36,14.44,2,21.27,4.49v0c6.33,2.34,13,4.61,17.95,9.44,4.13,4.07,6.62,9.42,8.13,15A67.33,67.33,0,0,1,81.4,50a46.45,46.45,0,0,0-5.76-7.34A43.42,43.42,0,0,0,58.39,31.77c-7.14-2.43-14.67-3.41-22-4.85-7.92-1.54-16-3.7-22.35-8.82A34,34,0,0,1,32.24,11.66Z"/><path d="M82.24,64.58c.11.73,1.23.42,1.12-.31-1-6.74-9.21-7.75-14.63-8.16-3.74-.28-7.6-.77-10.43-3.49a25.5,25.5,0,0,1-4.51-6.74c-2.25-4.33-4.7-9.74-10.1-10.57-3.84-.6-7.37,1.43-10.75,2.92S24.59,41,21.8,37.54c-4-5-.84-15.44-8.52-17.65A.58.58,0,0,0,13,21c3.23.93,4.44,4.5,5,7.47s.68,6.2,2.3,8.88A7.64,7.64,0,0,0,28,40.88c3.81-.43,7-2.6,10.53-3.8,3.24-1.1,6.59-.94,9.17,1.45A22.82,22.82,0,0,1,52,44.88c2.53,4.85,5,9.88,10.71,11.5C66.53,57.49,70.62,57,74.5,58,77.94,58.77,81.66,60.75,82.24,64.58Z"/><path d="M87.76,287.7c-.62.41,0,1.42.58,1a9.37,9.37,0,0,0,4.16-5.8,7.68,7.68,0,0,0-1.73-6.39c-.48-.58-1.3.25-.83.82a6.38,6.38,0,0,1,1.42,5.4A8.27,8.27,0,0,1,87.76,287.7Z"/></g></g></svg>