<svg xmlns="http://www.w3.org/2000/svg" viewBox="0 0 223.48 320.39"><defs><style>.cls-1{fill:#f82960;}.cls-2{fill:#54bb0d;}</style></defs><g id="Ebene_2" data-name="Ebene 2"><g id="Ebene_1-2" data-name="Ebene 1"><path class="cls-1" d="M78.89,87.94A261.2,261.2,0,0,0,67.56,153a264.36,264.36,0,0,0,5.27,65.87A251.44,251.44,0,0,0,82.8,254c1,2.85,4,5.07,7.13,4.05,2.79-.9,5.16-4.08,4-7.13A251.52,251.52,0,0,1,84.92,220q-1.76-7.8-3-15.71c-.21-1.34-.42-2.67-.61-4-.08-.6-.18-1.19-.25-1.79.16,1.34.07.49,0,.2-.06-.44-.12-.89-.17-1.34q-.51-4-.89-8.06a256.71,256.71,0,0,1-1-32q.24-8.12,1-16.2c.25-2.69.55-5.38.88-8.06a15.1,15.1,0,0,1,.23-1.79c-.32,1.19-.07.55,0,.2l.12-.89c.2-1.42.41-2.83.64-4.24A251.58,251.58,0,0,1,90.08,91a5.86,5.86,0,0,0-4-7.13,5.93,5.93,0,0,0-7.14,4Z"/><path class="cls-1" d="M87.68,90.81q4.91,16.64,8.22,33.69,1.66,8.63,2.92,17.33l.27,1.88s.21,1.58.09.64.08.62.08.65c.19,1.41.36,2.82.53,4.24q.52,4.37.93,8.74c1.09,11.51,1.63,23.08,1.62,34.64q0,8.67-.44,17.34c-.14,2.85-.31,5.69-.52,8.54-.1,1.36-.21,2.71-.34,4.07-.06.68-.13,1.36-.2,2,0,.38-.09.75-.14,1.13-.12,1.14.11-.7,0,0a60.88,60.88,0,0,1-1.94,9.06c-.23.72-.47,1.44-.73,2.14-.13.36-.27.71-.4,1.06-.29.78.52-1.12.05-.14a36.71,36.71,0,0,1-1.83,3.52c-.35.6-.73,1.18-1.12,1.75l-.44.62c-.66.92.79-.92,0,0a34.87,34.87,0,0,1-2.56,2.74,15.76,15.76,0,0,1-1.41,1.21s1-.73.29-.23c-.31.21-.61.43-.92.63-.58.37-1.16.72-1.77,1l-.66.33c-1.34.64.93-.35-.17.08l7.35,5.59q-3.33-29.06-4-58.33T92,138.42q1.2-16.42,3.25-32.77H83.63a556.2,556.2,0,0,1,4.6,92.2q-.44,13-1.48,26c-.25,3,2.84,5.93,5.8,5.8a5.94,5.94,0,0,0,5.8-5.8,555.72,555.72,0,0,0-.27-92.31q-1.12-13-2.85-25.9a6.46,6.46,0,0,0-1.7-4.1,5.81,5.81,0,0,0-8.21,0,6.78,6.78,0,0,0-1.69,4.1q-3.64,29-4.58,58.29c-.61,19.48-.32,39,.88,58.45q1,16.44,2.9,32.8a6,6,0,0,0,2.28,4.56,5.51,5.51,0,0,0,5.06,1c11-4.26,17.73-14.3,20.5-25.47a105.66,105.66,0,0,0,2.39-18q.63-8.9.8-17.8A372.33,372.33,0,0,0,108.12,127a362.78,362.78,0,0,0-9.26-39.3,5.8,5.8,0,1,0-11.18,3.09Z"/><path class="cls-1" d="M132.47,100.21a418.14,418.14,0,0,0-1.93,97.91q1.41,14.12,3.75,28.13c.5,3,4.37,4.95,7.14,4.05,3.25-1.05,4.58-3.91,4-7.13q-1.15-7-2.12-14.06c-.16-1.16.1.76-.05-.4-.08-.57-.15-1.14-.22-1.7-.16-1.22-.31-2.44-.46-3.65-.29-2.36-.56-4.71-.81-7.07q-1.51-14-2.24-28.1a512.5,512.5,0,0,1,.16-56.12c.13-2.36.29-4.73.46-7.09.08-1.09.15-2.18.24-3.27,0-.34.07-.68.1-1,.1-1,0,.42-.07.51.05-.23.07-.46.11-.69a16.12,16.12,0,0,1,.58-2.35c.06-.2.18-.43.22-.63,0,0-.58,1.06-.25.62a5.9,5.9,0,0,0,.64-1.12c.19-.48-.34.52-.43.54a3.27,3.27,0,0,0,.44-.46c.62-.72-1.05.73,0,0,.11-.07.36-.13.44-.23-.3.36-1.12.47-.43.25.18-.06.83-.16-.11,0s0,.07.22.06.85,0-.11,0-.22,0,0,.07c1.21.36-.78-.49,0,0a5.87,5.87,0,0,0,.89.54c-.75-.23-.78-.68-.34-.26l.52.49a5.48,5.48,0,0,0,.48.53s-.66-1-.37-.47c.2.35.43.69.62,1.06.39.71-.18-.25-.11-.27s.19.58.2.62c.17.56.26,1.12.39,1.68.17.81-.06-1.08,0-.25,0,.22,0,.44,0,.65,0,.51,0,1,0,1.54,0,1.1-.1,2.21-.2,3.31-.22,2.24-.49,4.48-.74,6.72L136.9,170.3l-6.32,57.14-.77,7,11.39-1.55a221.55,221.55,0,0,1-6.78-24.66q-1.35-6.25-2.33-12.58c-.16-1.06-.32-2.11-.47-3.17l-.09-.68c-.12-.85.13,1,0,.19-.07-.61-.15-1.21-.23-1.82q-.39-3.18-.69-6.36a233.29,233.29,0,0,1,.88-51.08c.11-.85-.15,1,0,.18.05-.3.09-.6.13-.9.08-.6.17-1.21.26-1.81.18-1.21.37-2.41.57-3.61q.59-3.49,1.27-7c.95-4.78,2.07-9.53,3.33-14.24a5.8,5.8,0,1,0-11.19-3.08,232.44,232.44,0,0,0-7.73,52.52,234.84,234.84,0,0,0,4.37,52.91A225.64,225.64,0,0,0,130,235.94a5.85,5.85,0,0,0,6.37,4.15c3.05-.41,4.7-2.78,5-5.69L148,174.78l6.6-59.62c.5-4.52,1.41-9.22,1.11-13.78-.36-5.56-2.51-10.53-7.26-13.67A12,12,0,0,0,133.7,88.8c-3.43,3.2-4.37,8-4.81,12.4-.94,9.62-1.26,19.34-1.48,29q-.31,14.72.2,29.42A524.88,524.88,0,0,0,133.15,219c.36,2.42.75,4.84,1.14,7.26l11.19-3.08c-.67-4-1.27-8-1.83-12.06-.22-1.63.16,1.24-.05-.39-.06-.49-.13-1-.19-1.45l-.36-2.91q-.35-2.91-.66-5.82-1.26-11.88-1.83-23.83a414.14,414.14,0,0,1,.51-47.79q.47-6.57,1.12-13.12.34-3.4.75-6.79c.13-1.13.27-2.26.41-3.39.07-.48.13-1,.19-1.45,0-.32.09-.65.13-1-.1.74-.1.77,0,.09a6.43,6.43,0,0,0-.59-4.47,5.88,5.88,0,0,0-3.46-2.66c-2.73-.62-6.7.83-7.14,4Z"/><path class="cls-2" d="M20.74,21.8a9.71,9.71,0,0,0-4.33,8.47,11.11,11.11,0,0,0,4.76,8.58,14.16,14.16,0,0,0,8.46,2.27,32.18,32.18,0,0,0,4.58-.56L36,40.21,37.15,40c.18,0,1.46-.18.58-.1s.16,0,.36,0,.61,0,.91,0a3,3,0,0,1,1.13,0s-1.4-.33-.32,0c.52.15,1,.29,1.56.46.75.25-.07.23-.25-.11a7.07,7.07,0,0,0,1.1.56A26.82,26.82,0,0,1,45,42.62a6.48,6.48,0,0,1,.67.5c-.86-.86-.44-.35-.18-.14l1.83,1.45L61,55.28,76.3,67.38c2,1.56,4.71,2.4,7,.9A6.1,6.1,0,0,0,86,61.74C84.93,55.08,83.85,48.37,81.55,42A47,47,0,0,0,70.77,24.49C61.6,15.32,48.39,10.25,35.43,11.62a45,45,0,0,0-21.82,8.05c-2.35,1.72-3.57,4.41-2.37,7.25s3.93,3.78,6.84,3.35L19.76,30c.41-.05,2.14-.23.56-.08,1.13-.1,2.26-.29,3.39-.41,2.27-.26,4.55-.45,6.83-.54a58.32,58.32,0,0,1,6.74.12c.49,0,1,.1,1.46.15.82.07-1.12-.18-.31-.05l.61.09c1.16.19,2.3.43,3.43.73a29.53,29.53,0,0,1,2.94.93,4.08,4.08,0,0,1,.77.3c-.92-.64-.62-.28-.25-.1.57.28,1.13.54,1.68.84a26.18,26.18,0,0,1,2.49,1.51l.62.44c.62.43.08-.2-.28-.23.32,0,.9.73,1.17,1A35,35,0,0,1,55.8,39c.16.19.31.39.47.59.46.55.23-.08-.2-.28.31.14.7,1,.9,1.24.59.83,1.16,1.69,1.71,2.56a123.67,123.67,0,0,1,6.56,12.29c1.33,2.74,5.45,3.69,7.94,2.08a6,6,0,0,0,2.08-7.93c-3.88-8-8.09-16.34-14.75-22.46a35.86,35.86,0,0,0-13.18-7.74,47.24,47.24,0,0,0-15.09-2A131.26,131.26,0,0,0,15,19.09l4.47,10.6a37.47,37.47,0,0,1,3.78-2.44q.88-.51,1.8-1l.74-.36.75-.34-.26.11a14,14,0,0,1,3.87-1.34,38.6,38.6,0,0,1,4.38-1c.41-.07,1.58-.48.08,0a5.8,5.8,0,0,1,1-.12c.75-.07,1.5-.13,2.24-.16a39.72,39.72,0,0,1,4.5.07q.51,0,1,.09c.42,0,1.34,0-.12,0a11.68,11.68,0,0,1,2,.34,38.14,38.14,0,0,1,4.08,1.05c.66.21,1.32.44,2,.69.14.05.85.24.89.35l-.69-.29.7.31a39.43,39.43,0,0,1,3.7,1.94c1.1.65,2.15,1.35,3.18,2.09.32.24,1.11,1.08,0,0,.17.17.4.32.59.48.59.48,1.16,1,1.72,1.5a41.2,41.2,0,0,1,2.91,3c.32.37,1.1,1,1.21,1.46-.14-.57-.6-.81-.21-.26s.59.82.88,1.24c.74,1.1,1.42,2.24,2,3.41.34.64.67,1.29,1,1.95a12.93,12.93,0,0,1,.54,1.2c-.46-1.37,0-.09.08.22,2.62,6.71,3.77,13.88,4.9,21l9.69-5.64-25-19.85c-2-1.61-4-3.22-6.07-4.81A35.11,35.11,0,0,0,47,30.22a18.17,18.17,0,0,0-8.65-2,33.7,33.7,0,0,0-4.48.59c-1.24.22-2.57.36-3.77.7,0,0,1.2-.1.55-.09-.33,0-.66.05-1,.06s-.53,0-.8,0a5.83,5.83,0,0,1-.59,0q-.68-.06.57.09c-.2-.11-1.48-.2-1.49-.4,0,0,1.14.53.35.09-1.12-.64.71.5.18.17-.16-.11-.69-.73,0,0s.07-.11,0-.2c.66.53.36,1.16.24.53-.05-.25-.28-1.19-.08-.13s.06.31.07,0c0-.72-.29,1.47-.06.53.1-.4.47-.88-.25.59l.15-.24a3,3,0,0,1-1.24,1.27,6.32,6.32,0,0,0,2.66-3.47,5.92,5.92,0,0,0-.58-4.47c-1.56-2.41-5.32-4-7.94-2.08Z"/><path class="cls-2" d="M103.09,63.36c-.11-.21-.2-.42-.31-.62-.54-1.07.38,1,.12.28-.16-.49-.34-1-.48-1.46s-.23-.88-.32-1.32c0-.23-.08-.45-.13-.67-.24-1.21.1,1.42,0,.19a25.7,25.7,0,0,1-.06-2.91c0-.23.23-1.82,0-.76s0-.08,0-.25.1-.56.17-.84a26.35,26.35,0,0,1,.83-2.79c.3-.91-.15.33-.2.43.1-.2.19-.42.28-.62.25-.52.51-1,.8-1.51s.54-.88.83-1.3.66-.36-.19.22a3.57,3.57,0,0,0,.44-.52c.68-.79,1.49-1.41,2.2-2.14-1.11,1.14-.17.14.3-.18s1-.63,1.46-.94C110,45,111,44.4,112,43.7a19,19,0,0,0,6-6.05,23.2,23.2,0,0,0,2.47-7.23c.2-1,.38-2.07.59-3.1.12-.53.24-1.07.38-1.6A9.09,9.09,0,0,0,122,24c0,.08-.64,1.3-.16.4l.32-.63c.12-.21.26-.41.37-.62.47-.84-.15.27-.29.35a5.51,5.51,0,0,0,1-1c.44-.52-1.07.66-.46.36.26-.12.5-.32.76-.47l.53-.26c.64-.36-1.46.47-.42.2l1.16-.32c.44-.11.9,0-.65.06.2,0,.41,0,.61-.05a11.16,11.16,0,0,1,1.53,0c.2,0,.42.06.62.06-1.52,0-1-.17-.47,0s.81.19,1.21.32a5.25,5.25,0,0,0,.73.25c-.08,0-1.33-.64-.52-.22.46.25.92.48,1.35.76a3.1,3.1,0,0,0,.51.35c-.1,0-1.08-.95-.45-.32l.88.87c.8.77-.65-1-.21-.3.14.21.29.41.42.62s.32.53.46.8.7,1,.18.32-.07-.14,0,.16.19.59.26.89c.13.47.18,1,.3,1.44-.41-1.57-.06-.25,0,.31s0,1.25-.06,1.88c0,1.06,0-.36.08-.42-.1.07-.14.78-.17.93-.12.56-.26,1.11-.43,1.66s-.41,1-.51,1.43c0-.14.58-1.22.12-.34-.17.34-.34.68-.52,1s-.51.87-.8,1.29a3.38,3.38,0,0,1-.45.64l.4-.53a5.71,5.71,0,0,1-.39.47,25.33,25.33,0,0,1-2.57,2.61,8.85,8.85,0,0,0-1.41,1.17c.09-.12,1-.76.2-.16l-.67.48c-1,.72-2,1.39-3.11,2-5.35,3.29-10.88,6.3-16.33,9.43L87.73,61.73a5.87,5.87,0,0,0-2.08,7.94c1.85,2.87,5,3.41,7.93,2.08A64.48,64.48,0,0,0,122.4,45.58a66.85,66.85,0,0,0,4.52-9.52c.53-1.35,1-2.73,1.45-4.1.38-1.12-.67,1.21-.06.19a4.68,4.68,0,0,0,.48-.83l-.53.68a3.25,3.25,0,0,1,.41-.42,3.15,3.15,0,0,1-1.59.93c.59-.15.36-.12-.68.09l-1-.13c-1-.46-1.18-.54-.67-.25l-.77-.56c-.6-.84-.74-1-.42-.52.54.93-.33-1.39-.13-.3l.08.29c.12.61.1.4-.06-.62a7.23,7.23,0,0,0,0,.93c.06,1.17.35-1.6,0-.24-.17.78-.41,1.52-.63,2.29-.38,1.3.59-1.13,0,.08-.17.36-.34.72-.53,1.07-.38.7-.83,1.35-1.26,2-.74,1.15.83-.94-.07.1-.26.31-.51.62-.78.92-.63.69-1.3,1.35-2,2-.31.28-.64.54-1,.81-.51.4-.47.38.11-.07-.23.18-.48.35-.72.53-.85.61-1.72,1.18-2.62,1.73-1.79,1.09-3.64,2.08-5.51,3-3.94,2-7.9,4-11.85,6a5.85,5.85,0,0,0-2.08,7.94,6,6,0,0,0,7.94,2.08c7.68-3.88,15.82-7.33,22.58-12.75a27.58,27.58,0,0,0,7.67-9.36c1.94-4.09,3.15-8.74,1.31-13.1a8.72,8.72,0,0,0-5.63-5.21,8.56,8.56,0,0,0-8.14,2.19c-2.79,2.71-3.62,6.86-5,10.37-.24.6.22-.53.22-.51-.11.22-.2.46-.3.69s-.31.68-.47,1c-.38.79-.77,1.58-1.18,2.36-.78,1.5-1.64,3-2.55,4.39-.45.69-.9,1.37-1.37,2-.25.36-.51.72-.77,1.07l-.34.45c-.44.61,0,0,.22-.27-1.15,1.33-2.22,2.72-3.42,4s-2.64,2.7-4.05,4q-1.06.94-2.16,1.83l-.44.35c-1,.8.73-.54.13-.1l-1.07.78a57,57,0,0,1-10.11,5.81l5.85,10c10.92-6.27,22-12.35,32.76-18.84,5.12-3.08,10.09-6.78,13.28-11.94a22.94,22.94,0,0,0,2.79-17.5,17.42,17.42,0,0,0-11.6-12.23,16.46,16.46,0,0,0-15.74,3c-4.28,3.69-4.91,9.22-6,14.38-.12.53-.25,1.07-.4,1.59-.09.29-.18.58-.28.86-.17.51-.59.89.12-.21-.28.44-.47,1-.76,1.41-.42.65-.58.27.13-.13a6,6,0,0,0-.77.82c-.18.18-.38.33-.56.51-.93.9,1.07-.71,0,0-.43.28-.84.58-1.27.85-1.13.73-2.3,1.4-3.42,2.15A25.36,25.36,0,0,0,91.21,51.08a25.64,25.64,0,0,0,1.86,18.13A5.83,5.83,0,0,0,101,71.29a5.94,5.94,0,0,0,2.09-7.93Z"/><path class="cls-2" d="M150,61.32c-.46-3.68-.92-7.37-1-11.07a44.71,44.71,0,0,1,.11-5,6.92,6.92,0,0,1,.13-1.37c-.43,1.41,0,.07,0-.26a29,29,0,0,1,.63-2.91c.21-.76.45-1.51.72-2.26.14-.39.28-.77.44-1.15s.5-1.61,0-.15a42.22,42.22,0,0,1,2.06-4.56,39.09,39.09,0,0,0,3.56-11.34,19.81,19.81,0,0,0-.17-5.49c-.11-.74-.26-1.47-.41-2.2l-.15-.73c0-.25-.09-.49-.12-.74.11.94.13,1.09.07.46a4.07,4.07,0,0,0,0-1.05l-.13.87a4.91,4.91,0,0,1,.17-.63l-.32.79c.32-.5.22-.38-.3.37-.73.77-.76.56-.32.32l-.74.34c-1,.09-1.14.11-.5.08,1.24,0-1.31-.42-.14,0l-.73-.32a4.06,4.06,0,0,1,.63.38q-1-.81-.33-.18c.41.47.34.37-.2-.29.06,0,.43.73.48.81.44.65-.4-1.35-.05-.16.12.41.27.81.37,1.23s.59,1.63.1.21a7.71,7.71,0,0,1,.05,2.67,3.43,3.43,0,0,1-.08.89c.12-.8.12-.87,0-.21q-.08.45-.18.9a35,35,0,0,1-1.55,5.08c-.3.79-.62,1.58-.94,2.36-.59,1.46.51-1.18-.14.34l-.78,1.83L140,53.29a6.21,6.21,0,0,0,.91,7c2.19,2.7,6,3.38,9.25,2.71a10.74,10.74,0,0,0,7.24-5.55,16.19,16.19,0,0,0,1.44-9.28c-.12-1-.27-2.06-.43-3.09,0-.31-.09-.63-.14-1-.18-1.17-.05,0,0,.12a6.41,6.41,0,0,1-.13-2.14,4.58,4.58,0,0,1,.06-1.17c-.18.69-.11.65.09,0a3.57,3.57,0,0,0,.27-.82c0,.13-.63,1.27-.16.45.23-.4.48-.78.71-1.17.6-1-.69.8-.19.2l.45-.53c.43-.49.87-1,1.33-1.42A59.21,59.21,0,0,0,165.16,33a19.34,19.34,0,0,0,4.23-14.2,20.28,20.28,0,0,0-8.82-14.93,5.83,5.83,0,0,0-7.93,2.08,5.92,5.92,0,0,0,2.08,7.93,2.94,2.94,0,0,0,.53.37c-.11,0-1.07-.93-.42-.3.27.26.56.5.82.77s1.13,1.34.49.51.21.34.37.59.42.75.62,1.13c.6,1.1-.32-1,0-.06a18.1,18.1,0,0,1,.71,2.49c0,.19,0,.44.11.64-.4-1.29-.11-1.07-.09-.58s.06.86.06,1.29,0,.75,0,1.13-.12,1,0,0,0,0-.05.18c-.14.7-.56,1.46-.63,2.15.09-.94.48-1,.21-.5-.1.19-.19.39-.29.58-.24.43-.52.82-.78,1.24s.39-.47.38-.46c-.16.16-.3.37-.45.54-.31.37-.64.72-1,1.06-.66.7-1.35,1.36-2,2a32.19,32.19,0,0,0-4.26,5,15.59,15.59,0,0,0-2.44,7.75,20.64,20.64,0,0,0,.27,4.08c.1.74.2,1.47.32,2.2,0,.32.09.63.14,1,.24,1.52-.05-.85,0-.06,0,.62.11,1.23.11,1.85,0,.27,0,.54,0,.82,0,1.09.23-.82,0-.15-.05.19-.08.4-.13.59s-.11.38-.18.57c-.14.4-.08.25.2-.48a3.14,3.14,0,0,0-.31.51c-.37.74.87-1,.21-.32s.34-.35.46-.34c-.11,0-1.2.57-.12.13.88-.36.31-.12.12-.08l-.44.11c-.46.09-.19,0,.81-.11a1.62,1.62,0,0,0-.44,0c-.7,0,1.47.34.56,0,1.45.47,1,.48.63.24.47.31.95.9.33.13l.91,7,10.18-23.94c3.61-8.48,8-18.06,3.28-27.07-2.46-4.71-8.24-7.57-13.33-5.42a9.32,9.32,0,0,0-5.5,6.2,15.49,15.49,0,0,0,.13,6.94c.14.73.29,1.46.43,2.18.2,1-.07-.28,0-.39a2.47,2.47,0,0,0,.05.6,12.71,12.71,0,0,1,0,1.38c0,.39-.11.8-.09,1.18-.07-1.15.14-.86,0-.38,0,.2-.07.39-.12.58a23.68,23.68,0,0,1-.69,2.5c-.28.84-.6,1.66-.93,2.48-.24.6.17-.43.18-.44a2.66,2.66,0,0,0-.25.57c-.22.51-.45,1-.68,1.52-.9,2-1.79,3.94-2.62,6-3.65,8.89-2.87,18.42-1.7,27.73a6.39,6.39,0,0,0,1.69,4.1,6,6,0,0,0,4.11,1.7c2.82-.13,6.2-2.58,5.8-5.8Z"/><path d="M13.59,297c-1.57,0-5.16.15-6,4.25a6.25,6.25,0,0,0,1.93,5.85c2,2.11,4.73,5.43,3.8,8.08-.88,2.5-3.65,3.1-5.49,3.1a3.36,3.36,0,0,1-3.53-3.1c0-1.33.27-3.23,2.9-3.23,1.08,0,1.68-.33,1.68-1.05,0-.91-.6-1.06-1.68-1.06-3.8,0-5,2.69-5,5.34a5.4,5.4,0,0,0,5.64,5.21c3.07,0,6.42-1.32,7.6-5.21,1-3.29-2.32-7.33-4.16-9.32a5.33,5.33,0,0,1-1.51-4.55c.48-2.29,2.62-2.2,3.8-2.2,1.66,0,2.59.69,2.59,2.29,0,1.36.42,1.75,1.09,1.75s1.05-.39,1.05-1.75C18.32,298,15.76,297,13.59,297Z"/><path d="M65.55,298.81a1.78,1.78,0,0,0,1.81,1.62,1.75,1.75,0,0,0,1.81-1.68,1.67,1.67,0,0,0-1.81-1.84A1.76,1.76,0,0,0,65.55,298.81Z"/><path d="M221.22,306.28l-7.17,6.12a5.25,5.25,0,0,1-3,1.33c-1.39,0-1.75-1-1-2.41l3.1-5.76c.79-1.45-.75-2.44-2.26-3l-1.66-.67-.6-3c-.21-1-2.32-.85-2,.57l.72,3.11-6.21,5.33a3.59,3.59,0,0,0-.39.39l-.4.34c-4,3.4-7.77,5.12-10.94,5-2.47-.06-3.5-.9-3.5-3.47a4.43,4.43,0,0,1,0-.63c5.76,0,10.4-2.14,10.4-4.79,0-1.84-1-3-3.58-3a9.82,9.82,0,0,0-8,4.64L178.28,312l1.33-4.82c.51-1.9.93-3.68-.13-4.86-.9-1-3.1-.36-4.94,1.15-.45-2.2-2.77-2-5-.42.25-.94.07-1.24-.75-1.24a1.34,1.34,0,0,0-1.33,1.09l-1,3.75L160.18,312l1.33-4.82c.51-1.9.94-3.68-.12-4.86-.9-1-3.11-.36-4.94,1.15-.46-2.2-2.78-2-5-.42.24-.94.06-1.24-.75-1.24a1.33,1.33,0,0,0-1.33,1.09l-1,3.75L141,313l1.27-6.73a1.13,1.13,0,0,0-1.12-1.44,2.34,2.34,0,0,0-1.65.69c-5.64,6.12-7.15,8-8,8-.39,0-.55-.54-.55-1.27a8.15,8.15,0,0,1,8.36-8.2,7.89,7.89,0,0,1,3.07.58,1,1,0,0,0,1.18-.37,1.16,1.16,0,0,0-.06-1.41c-1-.73-2.14-.94-4.16-.94a10.11,10.11,0,0,0-8.9,4.7c-2,1.71-4.1,3.49-6.06,5.19-.36.24-1.9,1.78-2.63,1.78-.42,0-1.84-2.35-2.74-3.86,3.89-.51,6.21-2.71,6.21-5.37a2.38,2.38,0,0,0-2.62-2.44c-2.17,0-4.16.94-8.69,8.53l3.17-12.18c.15-.54,0-1.17-.81-1.17a1.39,1.39,0,0,0-1.42,1l-2.09,8.21a1.09,1.09,0,0,0-.15.08l-2.71,2.33c-4,3.4-7.78,5.12-10.94,5-2.48-.06-3.5-.9-3.5-3.47a4.43,4.43,0,0,1,0-.63c5.76,0,10.4-2.14,10.4-4.79,0-1.84-1-3-3.59-3a9.83,9.83,0,0,0-8,4.64l-4,3.44a5.69,5.69,0,0,1-3.65,1.48,4.07,4.07,0,0,1-2.5-.84l-.73-7.87,1-2.78c.51-1.48-1.66-1.6-2.08-.3L81.56,302l-5.06,4.29,0,0-1.39,1.2-1.41,1.19a1.29,1.29,0,0,0-.17.16c-1.61,1.37-3.2,2.74-4.8,4.12a3.31,3.31,0,0,1-2,.78c-1,0-1.81-.66-1.39-2.38l1.6-6.6a2.35,2.35,0,0,0-2.38-3,2.77,2.77,0,0,0-1.81.76l-4.38,3.73h0l-2.71,2.33c-4,3.4-7.78,5.12-10.95,5-2.47-.06-3.5-.9-3.5-3.47a4.43,4.43,0,0,1,0-.63c5.76,0,10.41-2.14,10.41-4.79,0-1.84-1-3-3.59-3a9.82,9.82,0,0,0-8,4.64l-4,3.38a18,18,0,0,0,.13-3c-.07-2-.76-5-3.38-5-2,0-5.43,4.07-8.93,7.54L25.38,304c.39-1.5.45-2.14-.66-2.14-.67,0-1.18.39-1.63,2.08l-2.68,10.28-.85,3.26c-.33,1.36-.39,2.08.72,2.08.67,0,1.18-.48,1.45-1.6l.85-3.16C26.47,309.24,32,304.08,33,304.08s1,2,1.05,2.69c.18,4.31-.33,7.26-6.72,6.45-1.51-.18-1.57,1.93,0,2.11,3.17.36,5.25-.12,6.6-1.21l.06-.06c.06,0,.09-.09.15-.12L39,309.81c0,.16,0,.32,0,.48,0,4.56,2.57,5.28,5.58,5.28,3.5,0,7.45-1.42,11.76-5.09l2.56-2.19,0,0,4.4-3.77c.48-.42.72-.6,1-.6.52,0,.73.42.55,1.15l-1.63,6.81c-.54,2.26.93,3.71,3.1,3.71a6,6,0,0,0,3.8-1.45l7.09-6.06a3.29,3.29,0,0,0,.41-.43l3.84-3.37.49,5.61a4.92,4.92,0,0,0-3.62,2.87c-.64,1.56.15,2.86,1.72,2.86a4.75,4.75,0,0,0,4-2.77v0a4.17,4.17,0,0,0,2.32.54,7.5,7.5,0,0,0,4.76-1.75l2.15-1.84c0,.16,0,.32,0,.48,0,4.56,2.56,5.28,5.57,5.28,3.5,0,7.45-1.42,11.76-5.09l1.42-1.21-1.2,4.7c-.24.94.15,1.6,1.05,1.6s1.39-.54,1.9-1.42c1.06-1.75,2-3.22,2.75-4.43l2.29,3.38c1,1.63,1.93,2.47,2.8,2.47,1.09,0,1.57-.36,2.84-1.45L129,310.2a10.84,10.84,0,0,0-.19,2c0,2,.76,3.38,2.69,3.38s5.06-4.16,8.14-7.75l-1,5.64c-.24,1.33-.06,2.14,1,2.14s1.57-.36,2.83-1.45l5-4.3-1.07,4.09c-.25.94,0,1.66.84,1.66s1.09-1,1.27-1.63l1.84-7c.78-2,3.49-3.53,4-3.08.24.24-.31,2.32-.55,3.2L152,313.91c-.24.94,0,1.66.85,1.66s1.08-1,1.26-1.63l1.81-6.75c.58-2.14,3.53-3.86,4-3.35.21.24-.33,2.29-.57,3.17l-1.81,6.9c-.24.94,0,1.66.85,1.66a1.26,1.26,0,0,0,1-.39l6.27-5.36-1.08,4.09c-.24.94,0,1.66.84,1.66s1.09-1,1.27-1.63l1.84-7c.78-2,3.5-3.53,4-3.08.24.24-.3,2.32-.54,3.2l-1.81,6.87c-.24.94,0,1.66.84,1.66s1.09-1,1.27-1.63l1.81-6.75c.57-2.14,3.53-3.86,4-3.35.21.24-.33,2.29-.57,3.17l-1.81,6.9c-.25.94,0,1.66.84,1.66a1.26,1.26,0,0,0,1-.39l6.28-5.37c0,.16,0,.32,0,.48,0,4.56,2.56,5.28,5.58,5.28,3.5,0,7.45-1.42,11.76-5.09l2.83-2.42a2.78,2.78,0,0,0,.42-.42l4.41-3.83,1.66.73c.51.21.87.69.42,1.5l-2.5,4.56c-1.57,2.86-.3,5,2.35,5a7.35,7.35,0,0,0,4.85-2l6.49-5.55c.6-.51,1-1.11.66-1.69S221.77,305.83,221.22,306.28Zm-28.95-2.65c1.21,0,1.72.33,1.72,1.18,0,1.62-3.34,2.77-7.33,2.77C187.87,305.29,190.46,303.63,192.27,303.63Zm-90.47,0c1.21,0,1.72.33,1.72,1.18,0,1.62-3.35,2.77-7.33,2.77C97.4,305.29,100,303.63,101.8,303.63Zm-54.28,0c1.2,0,1.71.33,1.71,1.18,0,1.62-3.34,2.77-7.32,2.77C43.11,305.29,45.71,303.63,47.52,303.63Zm70.29,4.25h-.06c2.27-3.16,3.47-4,4.31-4a.85.85,0,0,1,.91.91C123,306.77,120.14,307.88,117.81,307.88Z"/><polygon points="14.59 120.1 51.25 120.1 51.25 113.5 14.59 113.5 14.59 82.54 55.61 82.54 55.61 75.95 9.22 75.95 9.22 160 14.59 160 14.59 120.1"/><path d="M167.81,160h23.7c20.9,0,32-17.43,32-42.47,0-25.49-11.07-41.58-32-41.58h-23.7Zm5.37-77.46h16.87c17.89,0,27.84,10.84,27.84,35,0,23.7-9.95,35.88-27.84,35.88H173.18Z"/><path d="M169.92,187.56v84.06h5.48V234h21.79c12.75,0,21.58-9.61,21.58-23.36s-8.72-23-21.58-23Zm43.26,23c0,10.17-6.37,16.77-16,16.77H175.4v-33.2h21.79C207,194.16,213.18,200.42,213.18,210.59Z"/><path d="M30.58,272.2c13.59,0,23.68-9.21,28.42-25.1l-4.94-1.31C50,258.24,41.39,266,30.48,266,16,266,5.56,248.4,5.56,228.87c0-19.74,10.71-35,25.74-35,9.89,0,18,6.27,22,16.09l5.35-.61c-4.84-13.66-14.83-21.76-27.18-21.76C13.49,187.64,0,205.9,0,229.27,0,252.24,12.77,272.2,30.58,272.2Z"/><path d="M52.79,31.35a45.8,45.8,0,0,1,18.93,9.21,45,45,0,0,1,10,12.21c.26,2.5.43,5,.59,7.52,0,.74,1.21.74,1.16,0-.1-1.58-.21-3.18-.33-4.79.22.46.44.92.65,1.38.57,1.3,1,2.64,1.5,4a13.29,13.29,0,0,0-.15,4.67,14,14,0,0,0,2.23,5.83,40.54,40.54,0,0,1-.07,6.33l-.54.16a.6.6,0,0,0-1-.27c-6.52,6-10.68,14.11-13.63,22.35-3.73,10.44-5.65,21.48-6.84,32.47a301.94,301.94,0,0,0-1.45,38.16C64.13,183.74,65,196.9,66.3,210q.95,9.48,2.19,18.92c.81,6.17,1.59,12.39,2.78,18.5,1.34,6.85,3.86,14.25,10.25,17.94l.2.1a.49.49,0,0,0,.38.29l.25.05a12.94,12.94,0,0,0,3.14,1.07l-7.3,4.19a.58.58,0,0,0,.59,1l8.68-5h0c2.56,1,4.61,2.55,3.11,5.21-1.36,2.4-4.85,4.8-3.89,7.94.22.71,1.34.41,1.12-.31-.49-1.61.78-3.11,1.72-4.28s2.22-2.53,2.62-4.12c.47-1.86-.6-3.4-2.09-4.43l-.38-.23.45-.09a11.75,11.75,0,0,0,6.35-4.64c3.64-5,4.51-11.66,5.26-17.66q1.65-13.33,2.84-26.73,2.37-26.67,2.85-53.47t-.92-53.8c-.37-7.06-.72-14.54-4-21a28.08,28.08,0,0,0-6.26-7.88A16.57,16.57,0,0,0,90.7,78l2.38-2.19c-.16.68-.32,1.36-.46,2s1,1,1.12.31c.27-1.26.56-2.52.88-3.78C102,67.56,109.34,60.74,116.8,54a77.42,77.42,0,0,1,13.73-10.23c2.17-1.21,4.38-2.36,6.53-3.62a17.6,17.6,0,0,0-1.3,2.33A18.21,18.21,0,0,0,135,53.91c1.05,4.76,3.27,9.19,5.57,13.45a.59.59,0,0,0,.79.21l7.82-6a35,35,0,0,1-1.45,4,35.83,35.83,0,0,1-13.66,15.94c-.63.39-.05,1.4.58,1a36.84,36.84,0,0,0,16.05-22.09l.89-.69c3-2.34,6.39-4.54,9-7.44,1.91-2.17,3.53-5,2.69-8s-4.75-5.1-3.83-8.49c1-3.73,5.33-4.91,8.3-6.57A10.8,10.8,0,0,0,172.9,23,15,15,0,0,0,169,8.33c-3.75-3.64-8.78-5.28-13.92-5.88A16.8,16.8,0,0,0,142.74.39c-.73.17-.42,1.28.31,1.12a15.44,15.44,0,0,1,9,.71c-1.26-.05-2.52-.06-3.75,0a.58.58,0,0,0,0,1.16,48.07,48.07,0,0,1,6.44.21A14.78,14.78,0,0,1,159.81,9a15.49,15.49,0,0,1,1.7,9.47,23.32,23.32,0,0,1-3.84,9,72,72,0,0,0-4.79,8,25,25,0,0,0-2.12,9.64c-.16,3.82.1,7.66-.45,11.45-.16,1-.38,2.1-.63,3.13l-8.41,6.49c-3.83-7.14-8.24-16.4-3.94-24.23a25.85,25.85,0,0,1,2.24-3.33c.83-.55,1.64-1.12,2.42-1.74,3.12-2.46,5.68-5.71,6.07-9.78a10.91,10.91,0,0,0-.48-4.39c.09-.5.17-1,.24-1.51a30.7,30.7,0,0,0-1.09-12.92c-.22-.71-1.34-.41-1.12.31a29.7,29.7,0,0,1,1.09,12.1,14.43,14.43,0,0,0-3.19-4,28.1,28.1,0,0,0-11.84-5.94c-4.95-1.27-10.62-2-15.33.47-7.93,4.16-9.12,14.49-9.18,22.78-1.34-1.14-3.54-1.17-5.34-.52C97.7,35,97.08,39.09,96.42,43c-.47,2.73-1.15,5.24-3.07,7.33-1.66,1.8-3.71,3.2-5.33,5A11.9,11.9,0,0,0,85.83,59a47.1,47.1,0,0,0-3-6.51c-.94-9.42-3-19-9.24-26.24C69.08,21,62.71,18.37,56.39,16c-7-2.64-14.27-5.37-21.88-5.53a35.15,35.15,0,0,0-21.77,7.11.58.58,0,0,0-.11.91C23.84,27.9,39.24,27.94,52.79,31.35Zm99.07,16.57c0-4.14.3-8.23,2.1-12,1.47-3.11,3.55-5.88,5.32-8.81a22.21,22.21,0,0,0,3.44-9A16.68,16.68,0,0,0,161,8.79a15.71,15.71,0,0,0-3.88-4.87,21.72,21.72,0,0,1,9.94,4.25c4.17,3.36,6.41,9.35,4.73,14.55-1,3-3.2,4.75-5.94,6.1s-5.55,2.54-7,5.29c-1.34,2.49-.51,4.8,1.11,6.89a9.52,9.52,0,0,1,2.32,4.06A6.75,6.75,0,0,1,161,49.79c-2.24,3.46-6,5.81-9.17,8.28l-.68.52A56,56,0,0,0,151.86,47.92ZM86.15,63.83c.36,1.45.67,2.91.89,4.38A12.91,12.91,0,0,1,86.15,63.83ZM98.64,85.75c4.75,5.6,5.92,12.91,6.45,20,1.23,16.73,1.43,33.61,1.31,50.38q-.2,25.67-2.11,51.29-.95,12.66-2.32,25.3-.69,6.38-1.49,12.73a58.8,58.8,0,0,1-1.82,9.3c-1.51,5-4.7,10.66-10.29,11.14a.55.55,0,0,0-.78-.22l-.19.11a32.7,32.7,0,0,0-4.92-1.13c-4.94-2.59-7.84-8.57-9.23-13.76-1.61-6.06-2.29-12.42-3.15-18.62q-1.23-9-2.2-18c-1.34-12.52-2.29-25.08-2.7-37.67a337,337,0,0,1,.62-36.93,169.2,169.2,0,0,1,5.37-32.8C73.61,98.26,77,89.6,82.7,82.59c.25-.3.51-.58.77-.88a.54.54,0,0,0,.91-.07A5.08,5.08,0,0,1,87.17,79c0,.29,0,.57-.09.86a.58.58,0,0,0,1,.56l1.62-1.49C93,79.7,96.7,83.45,98.64,85.75ZM89,77.59l-.53,0a40.62,40.62,0,0,0,.1-4.68,11.63,11.63,0,0,0,3.23,2.49l-2.46,2.28ZM146.9,27.11a12.58,12.58,0,0,1-4.58,8,25.62,25.62,0,0,0,2.13-3.25,30.75,30.75,0,0,0,2.49-6.29A11.55,11.55,0,0,1,146.9,27.11Zm-.52-4.3a29.39,29.39,0,0,1-3.52,9.5,48.48,48.48,0,0,1-4,5.41c-3,2-6.22,3.57-9.34,5.34A74.16,74.16,0,0,0,117,52.33c-7.35,6.52-14.56,13.22-21.77,19.91a89,89,0,0,1,11-24.83,82.43,82.43,0,0,1,35.11-30.14.51.51,0,0,0,.13-.84l.12.09A13.75,13.75,0,0,1,146.38,22.81ZM88.07,57.11c2.27-3.23,6.15-5,8-8.63a21,21,0,0,0,1.64-6c.33-2,.61-4.29,1.82-6,1.4-1.94,7.16-4,7.66-.25.09.71,1.17.77,1.16,0-.1-7.56.2-17.61,6.66-22.77,4.24-3.39,9.85-3,14.86-2a29.86,29.86,0,0,1,11.3,4.77.55.55,0,0,0-.45,0,84.26,84.26,0,0,0-42.31,43.3,97.12,97.12,0,0,0-4.8,14.16l-.9.84a.76.76,0,0,0-.17-.13,11.14,11.14,0,0,1-4.05-3.57,44.18,44.18,0,0,0-2-10.12A10.62,10.62,0,0,1,88.07,57.11Zm-34.56-41c6.33,2.34,13,4.61,17.95,9.44,4.13,4.07,6.62,9.42,8.13,15A67.61,67.61,0,0,1,81.4,50a45.88,45.88,0,0,0-5.76-7.34A43.39,43.39,0,0,0,58.39,31.77c-7.14-2.43-14.67-3.41-22-4.85-7.92-1.54-16-3.7-22.35-8.82a34,34,0,0,1,18.2-6.44C39.58,11.3,46.68,13.63,53.51,16.15Z"/><path d="M82.24,64.58c.11.73,1.23.42,1.12-.31-1-6.74-9.21-7.75-14.63-8.16-3.74-.28-7.6-.77-10.43-3.49a25.41,25.41,0,0,1-4.51-6.74c-2.25-4.33-4.7-9.74-10.1-10.57-3.84-.6-7.37,1.43-10.75,2.92S24.59,41,21.8,37.54c-4-5-.84-15.44-8.52-17.65A.58.58,0,0,0,13,21c3.23.93,4.44,4.5,5,7.47s.68,6.2,2.3,8.88A7.64,7.64,0,0,0,28,40.88c3.81-.43,7-2.6,10.53-3.8,3.24-1.1,6.59-.94,9.17,1.45A22.64,22.64,0,0,1,52,44.88c2.53,4.85,5,9.88,10.71,11.5C66.53,57.49,70.62,57,74.5,58,77.94,58.77,81.66,60.75,82.24,64.58Z"/><path d="M149.17,253.87c.59-4.68.83-9.42,1.19-14.12q.58-7.42,1.07-14.84,2-29.82,2.65-59.71t0-59.77c-.1-4.61,0-9.32-.73-13.88-.61-3.78-2.05-7.62-5-10.21a7.89,7.89,0,0,0-7.36-2,19.67,19.67,0,0,0-7.29,4,10.18,10.18,0,0,0-3.23,4,33.78,33.78,0,0,0-2.88,5.28c-3.53,8-5.12,16.79-6.25,25.39a258.31,258.31,0,0,0-2,34.84,389.11,389.11,0,0,0,2.14,39.07,349.21,349.21,0,0,0,6,37.94c1.24,5.72,2.66,11.4,4.32,17,.77,2.6,1.59,5.17,2.48,7.73,1,2.91,2.25,6.18,4.77,8.13a5.26,5.26,0,0,0,3.35,1.13,6.08,6.08,0,0,0-1.47,2,7,7,0,0,0-.51,3.37,6.2,6.2,0,0,0-4.26.58c-1.51.85-3.42,3-2,4.71.49.57,1.31-.25.82-.82s.22-1.63.69-2.1a4.77,4.77,0,0,1,3-1.36,5,5,0,0,1,1.91.24c0,.3.11.61.17.91.5,2.34,1,4.53.36,6.91a13.74,13.74,0,0,1-3.66,6.15c-.52.53.3,1.35.82.82,2.77-2.81,4.67-6.58,4.28-10.61a30.2,30.2,0,0,0-.68-3.46,4.92,4.92,0,0,1,1.31,3.23,48.72,48.72,0,0,1-1.22,15.17c-.16.73,1,1,1.12.31a58.93,58.93,0,0,0,1.35-10.32c.1-2.72.49-6.49-1.34-8.77a4.42,4.42,0,0,0-1.5-1.19,7.91,7.91,0,0,1,0-1.54,5.28,5.28,0,0,1,3.38-4.5.62.62,0,0,0,.36-.7,6.2,6.2,0,0,0,.83-.72C148.11,260,148.8,256.73,149.17,253.87Zm-5.88,8.75c-3.67,1-6-3.42-7.12-6.17-1-2.44-1.78-5-2.56-7.51-1.64-5.27-3-10.61-4.28-16a331.5,331.5,0,0,1-6.13-36.13c-1.44-12.38-2.32-24.85-2.6-37.32A295.81,295.81,0,0,1,121.68,125c.86-9,2.18-18.19,5-26.85a44.4,44.4,0,0,1,3.75-8.82.57.57,0,0,0,.9-.47,3.71,3.71,0,0,1,.19-1.19,14.59,14.59,0,0,1,4.35-4.12,9.09,9.09,0,0,1,2.88-1.1c.64-.13.48-1-.06-1.12a9.47,9.47,0,0,1,4.35-1.2c3.55.09,6.32,3.47,7.67,6.42,1.9,4.15,1.93,8.91,2.05,13.38q.75,28.4.3,56.8t-2.1,57q-.83,14.23-2,28.45a127.37,127.37,0,0,1-1.21,13C147.31,257.84,146.29,261.79,143.29,262.62Z"/><path d="M87.76,287.7c-.62.41,0,1.42.58,1a9.37,9.37,0,0,0,4.16-5.8,7.67,7.67,0,0,0-1.73-6.39c-.48-.58-1.3.25-.83.82a6.38,6.38,0,0,1,1.42,5.4A8.29,8.29,0,0,1,87.76,287.7Z"/></g></g></svg>