<svg xmlns="http://www.w3.org/2000/svg" viewBox="0 0 235.86 340.09"><defs><style>.cls-1{font-size:30.16px;font-family:Compagnon-Bold, Compagnon;font-weight:700;}.cls-2{fill:#c6ecac;}.cls-3{fill:#00782a;}</style></defs><g id="Ebene_2" data-name="Ebene 2"><g id="Ebene_1-2" data-name="Ebene 1"><text class="cls-1" transform="translate(0.24 330.66)">Speisekammer</text><path class="cls-2" d="M79.76,103.72a260.76,260.76,0,0,0-11.34,65.09,264.36,264.36,0,0,0,5.27,65.87,251.44,251.44,0,0,0,10,35.09c1,2.85,4,5.07,7.13,4.05,2.8-.9,5.16-4.08,4-7.13a253.28,253.28,0,0,1-9.06-30.91q-1.75-7.8-3-15.71c-.21-1.34-.41-2.67-.61-4-.08-.6-.18-1.19-.25-1.79.16,1.34.07.49,0,.2-.06-.44-.11-.89-.17-1.34-.34-2.68-.63-5.37-.89-8.07a258.43,258.43,0,0,1-1-32q.24-8.11,1-16.2c.26-2.69.55-5.38.89-8.06A11.84,11.84,0,0,1,82,147c-.33,1.19-.08.55,0,.2l.12-.89c.2-1.42.42-2.83.64-4.24a253,253,0,0,1,8.24-35.31,5.85,5.85,0,0,0-4-7.13,5.92,5.92,0,0,0-7.13,4Z"/><path class="cls-2" d="M88.54,106.59q4.9,16.64,8.22,33.69,1.67,8.63,2.92,17.33l.27,1.88s.22,1.58.09.64.08.62.08.65c.19,1.41.36,2.82.53,4.24q.52,4.36.93,8.74c1.09,11.51,1.63,23.08,1.62,34.64q0,8.67-.44,17.34c-.14,2.85-.31,5.69-.52,8.54-.1,1.36-.21,2.71-.33,4.07l-.21,2c0,.38-.09.75-.13,1.13-.13,1.14.11-.7,0,0a60.9,60.9,0,0,1-1.95,9.06c-.22.72-.46,1.44-.72,2.14-.13.36-.28.71-.41,1.06-.29.78.52-1.12.06-.14-.57,1.2-1.15,2.38-1.83,3.52-.36.6-.73,1.18-1.13,1.75-.14.21-.29.41-.44.62-.65.92.79-.92,0,0a34.87,34.87,0,0,1-2.56,2.74,14.48,14.48,0,0,1-1.41,1.21s1-.73.29-.23c-.31.21-.61.43-.92.63a19.44,19.44,0,0,1-1.77,1l-.66.33c-1.34.64.93-.35-.16.08L95.29,271q-3.33-29.06-4-58.33t1.5-58.44q1.2-16.42,3.25-32.77H84.49a555.12,555.12,0,0,1,4.6,92.2q-.44,13-1.48,26c-.24,3,2.84,5.93,5.8,5.8a5.94,5.94,0,0,0,5.8-5.8,554.64,554.64,0,0,0-.27-92.31q-1.12-13-2.85-25.9a6.46,6.46,0,0,0-1.7-4.1,6,6,0,0,0-4.1-1.7,5.86,5.86,0,0,0-4.1,1.7,6.79,6.79,0,0,0-1.7,4.1q-3.64,29-4.57,58.29c-.62,19.48-.33,39,.87,58.45q1,16.44,2.9,32.8A6,6,0,0,0,86,275.52a5.48,5.48,0,0,0,5.06,1c11-4.26,17.73-14.3,20.5-25.47a104.67,104.67,0,0,0,2.39-18q.63-8.9.8-17.8A371.56,371.56,0,0,0,109,142.8a365.11,365.11,0,0,0-9.25-39.3c-.86-2.9-4.12-5-7.14-4a5.91,5.91,0,0,0-4,7.14Z"/><path class="cls-2" d="M133.33,116a418.14,418.14,0,0,0-1.93,97.91Q132.81,228,135.15,242c.5,3,4.37,4.95,7.14,4.05,3.25-1.05,4.58-3.91,4.05-7.13q-1.16-7-2.12-14.06c-.16-1.16.1.76-.05-.4-.07-.57-.15-1.14-.22-1.7-.16-1.22-.31-2.44-.46-3.65-.29-2.36-.56-4.71-.81-7.07q-1.5-14-2.24-28.1a512.5,512.5,0,0,1,.16-56.12c.14-2.36.29-4.73.46-7.09.08-1.09.15-2.18.25-3.27,0-.34.06-.68.1-1,.09-1-.06.42-.08.51.06-.23.07-.46.11-.69a17.52,17.52,0,0,1,.58-2.35,5.25,5.25,0,0,0,.22-.63s-.58,1.06-.25.62a5.9,5.9,0,0,0,.64-1.12c.19-.48-.34.51-.42.54a3.26,3.26,0,0,0,.43-.46c.63-.72-1,.73,0,0,.11-.07.36-.13.44-.23-.3.36-1.12.47-.42.25.18-.06.82-.16-.12,0s0,.07.22.06.85,0-.11,0-.22,0,.05.07c1.21.36-.77-.49,0,0a5.87,5.87,0,0,0,.89.54c-.75-.23-.78-.68-.33-.26.17.17.35.32.51.49,0,0,.45.53.48.53s-.66-1-.37-.47c.2.35.43.69.62,1.06.39.71-.18-.25-.11-.27a6.48,6.48,0,0,1,.2.62c.17.56.27,1.12.39,1.68.17.81-.06-1.08-.05-.25,0,.22,0,.44.05.65,0,.51,0,1,0,1.54,0,1.1-.1,2.21-.2,3.31-.22,2.24-.49,4.48-.74,6.72l-6.32,57.13-6.33,57.14-.77,7,11.39-1.55A221.55,221.55,0,0,1,135.28,224q-1.35-6.25-2.33-12.58c-.16-1.06-.32-2.11-.46-3.17,0-.22-.07-.45-.1-.68-.12-.85.13,1,0,.19-.07-.61-.15-1.21-.23-1.82q-.39-3.18-.69-6.36a233.91,233.91,0,0,1,.88-51.08c.11-.86-.14,1,0,.18l.12-.9c.09-.6.17-1.21.26-1.81.18-1.21.37-2.41.57-3.61q.58-3.5,1.27-7c1-4.78,2.07-9.53,3.33-14.24A5.8,5.8,0,1,0,126.71,118,232.44,232.44,0,0,0,119,170.56a234.84,234.84,0,0,0,4.38,52.91,223.89,223.89,0,0,0,7.51,28.25,5.85,5.85,0,0,0,6.37,4.15c3-.41,4.7-2.78,5-5.69l6.6-59.62,6.6-59.62c.5-4.52,1.41-9.22,1.12-13.78-.36-5.56-2.51-10.53-7.27-13.67a12,12,0,0,0-14.76,1.09c-3.42,3.2-4.37,8-4.81,12.4-.93,9.62-1.26,19.34-1.47,29q-.33,14.72.19,29.42A524.88,524.88,0,0,0,134,234.77c.36,2.42.75,4.84,1.14,7.26L146.34,239c-.67-4-1.27-8-1.83-12.06-.22-1.63.16,1.24,0-.39-.06-.49-.13-1-.19-1.45l-.36-2.91q-.34-2.91-.66-5.82-1.26-11.88-1.83-23.83a411.88,411.88,0,0,1,.52-47.79q.45-6.57,1.11-13.12.34-3.41.75-6.79.19-1.7.42-3.39l.18-1.45c0-.32.09-.65.13-1-.1.74-.1.77,0,.09a6.37,6.37,0,0,0-.59-4.47,5.88,5.88,0,0,0-3.46-2.66c-2.73-.62-6.7.83-7.14,4Z"/><path class="cls-3" d="M35.08,35.09c.67-2,1.35-3.93,2.1-5.87.19-.48.39-1,.58-1.45.31-.77-.42.92-.06.16.09-.2.17-.4.27-.61.45-1,.94-2,1.48-3s.95-1.66,1.48-2.46c.26-.39.54-.77.8-1.15.44-.64-.7.85-.2.26l.49-.6q.88-1,1.86-1.95l1-.89c.12-.11.66-.51,0,0s.27-.18.34-.23A19.75,19.75,0,0,1,47.35,16c.23-.11.46-.21.68-.33.56-.3-.5.21-.51.21.47-.08,1-.36,1.43-.49a11.4,11.4,0,0,1,1.28-.32c1.36-.28-.87,0,.14,0a16.82,16.82,0,0,1,2.56,0,4.18,4.18,0,0,0,.72.07S52.4,14.88,53,15c.41.1.83.16,1.24.26s.82.23,1.22.36,1.72.64.85.3.46.24.64.33.66.35,1,.54c.82.48,1.58,1,2.35,1.56.52.36-.42-.32-.42-.33a5.68,5.68,0,0,0,.59.49l1,.89c.66.62,1.29,1.26,1.9,1.93.3.33.6.67.89,1a4.74,4.74,0,0,0,.48.59l-.31-.41c.56.78,1.12,1.55,1.63,2.37s.84,1.37,1.21,2.08c.2.38.4.76.58,1.15.11.22.21.45.32.68.39.84-.19-.33-.15-.36s1.39,4.54,1.48,5a3.27,3.27,0,0,0,.12.73s-.13-1.27-.09-.64c0,.42.08.83.09,1.26s0,.83,0,1.24-.16,1.8,0,.8-.09.39-.14.6-.17.66-.28,1a3.81,3.81,0,0,0-.22.65s.53-1.12.24-.6-.41.82-.66,1.22c-.12.19-.26.38-.38.58-.32.5.36-.47.36-.48-.32.18-.65.72-.91,1l-.43.38c-.49.45-.36,0,.27-.2a6.83,6.83,0,0,0-1.29.82c-.34.19-.68.36-1,.53-.89.46.17-.06.32-.11a5.25,5.25,0,0,0-.55.22c-.92.35-1.86.65-2.81.91-4.81,1.34-9.75,2.31-14.61,3.43L31.94,50.37l5.64,9.69c-1.4,1.17.14.09.31-.08,0,0-1.13.37-.58.26a5,5,0,0,0,.66-.18c.72-.23-1.26.07-.5,0l.52,0h.72c.13,0,1.35.12.33,0s.46.12.7.18c.5.12,1,.27,1.49.43l1.29.48c.74.27-1-.47-.31-.13l.89.41c4.41,2.11,8.71,4.53,13,6.8.88.46,1.76.91,2.61,1.42a6.63,6.63,0,0,0,1.07.7c-.09.06-1.06-1-.33-.23.2.2.41.43.63.61.43.37-.35-.44-.36-.49s.33.58.36.59c-.12,0-.43-1.42-.2-.42.18.71-.19.08,0-.5a2.25,2.25,0,0,0,0,.52c.05.73.33-1.21.06-.52-.09.21-.35,1,0,.13s-.12.12-.19.25c-.46.82.85-.87-.11.09s.73-.36-.1.13l-.63.36c-.94.59.4-.23.39-.15a4.74,4.74,0,0,1-.84.24c-.84.26,0-.13.26,0A6.94,6.94,0,0,0,57,71.1l-.88,0c-.17,0-.87-.15-.11,0s-.13,0-.33-.06l-.88-.18c-.65-.14-1.29-.3-1.94-.47-2-.52-3.89-1.13-5.79-1.84a8,8,0,0,0-1.51-.59c.13,0,1.22.54.26.11l-.55-.25c-1-.44-2-.92-2.9-1.43s-1.76-1-2.6-1.53c-.45-.29-.9-.59-1.33-.9-.17-.11-.33-.23-.49-.35-.68-.49-.48-.16.06.06a9.65,9.65,0,0,1-2.27-2,27.72,27.72,0,0,1-2.16-2.31c-.92-1.11.43.64-.16-.2-.3-.43-.59-.85-.87-1.29A25.63,25.63,0,0,1,31,55.13a4.52,4.52,0,0,0-.33-.7s.43,1.09.21.49-.36-1-.52-1.46a24.92,24.92,0,0,1-.78-3c0-.19-.06-.38-.1-.57-.18-1,.07.29.06.41a13.14,13.14,0,0,0-.12-1.52c0-1,.17-2,.11-3,0,.13-.24,1.41,0,.42,0-.19.07-.38.11-.56.09-.44.2-.87.32-1.29s.32-1,.49-1.45.4-.27-.14.31a3.17,3.17,0,0,0,.34-.69c.26-.51.54-1,.85-1.5.18-.29.66-1.31,1-1.43,0,0-.9,1.09-.19.27.17-.2.33-.4.5-.59.39-.43.79-.85,1.21-1.26s.85-.8,1.29-1.18l.6-.5c.59-.49,0,.08-.25.19a9.7,9.7,0,0,0,1.43-1c.49-.32,1-.63,1.48-.93,1.11-.64,2.24-1.23,3.4-1.77l.82-.38c.27-.12,1.24-.63.07,0a16.27,16.27,0,0,1,1.68-.66c2.54-1,5.13-1.79,7.71-2.6l-4.46-10.6-11.1,5L45.19,27c-.11-.3-.19-.61-.3-.91-.31-.81.07.43,0,.6a3.89,3.89,0,0,0,0-.47c0-.32,0-.64,0-1,0-.72-.31,1.28-.06.6a4.31,4.31,0,0,0,.15-.62c0-.11.17-.35.15-.46s-.57,1.11-.27.65c.19-.31.37-.66.54-1,.46-.83-.81.8-.12.16.15-.14.31-.3.45-.45.54-.58-.23.29-.43.31a3.56,3.56,0,0,0,.82-.49c0,.06-1.19.37-.65.27a6.55,6.55,0,0,0,.63-.19,2.4,2.4,0,0,0,.48-.1c-.07,0-1.24,0-.73.12.25,0,1.8.09.7,0s.1.08.35.14.37.18.47.15c-.12,0-1.28-.67-.48-.19l.86.5c.15.09.66.47-.06-.06s0,.07.14.21.21.26.33.36c.42.35-.42-.46-.41-.52a4.5,4.5,0,0,0,.48.85c-.19-.13-.44-1.48-.19-.35a4.88,4.88,0,0,0,.16.66c.21.62-.11-.35,0-.43a3.87,3.87,0,0,0,.06.8,17.21,17.21,0,0,1-.06,2.27c0,.63.11-.72.1-.68a5.1,5.1,0,0,0-.13.68,12,12,0,0,1-.3,1.18c-.11.39-.25.77-.38,1.15-.35,1,.51-1,0-.1a21.16,21.16,0,0,1-1.2,2.13c-.19.29-.43.56-.61.86.78-1.32.24-.32-.09,0a17.76,17.76,0,0,1-1.74,1.73c-1,.84.71-.46-.07.07-.38.26-.76.53-1.16.77s-.71.41-1.07.59l-.63.31c-.64.34,1.12-.41.43-.18a21.68,21.68,0,0,1-2.5.73l-.51.1c-.68.15,1.53-.11.33-.06-.47,0-.93,0-1.4,0l2.93,10.81,9.52-6.09,4.55-2.91c.63-.41,1.26-.82,1.91-1.2.38-.22.78-.42,1.15-.65.59-.27.52-.26-.19,0a6.5,6.5,0,0,1,.62-.22,4.46,4.46,0,0,1,1.05-.28l-.82.1c.24,0,.49,0,.73,0,1.21-.12-1.25-.39-.09,0a6.18,6.18,0,0,0,.68.21l-.74-.28c.52.32.42.23-.31-.29.91.79-.57-1.1-.08-.13-.7-1.38-.33-.92-.22-.43s.07.18-.11-.83a3.75,3.75,0,0,1,0,.58l.12-1c0,.19-.09.39-.15.58-.08-.85.61-1.11.15-.4a3,3,0,0,0-.42.67l.52-.66c-.14.17-.29.33-.44.48l-.23.23c-.46.4-.32.3.41-.28a3.22,3.22,0,0,0-.55.36l-.28.16c-.55.27-.38.21.5-.18-.44,0-.9.4-1.37.34,1.19.15.57-.06.21-.08s-.89,0-1.34,0l-.44,0c-.66-.07-.6-.06.2,0a4,4,0,0,1-1.11-.21c-1.72-.36-3.41-.85-5.13-1.2a20.29,20.29,0,0,0-10.15.11,12.53,12.53,0,0,0-8.3,7.68c-1.41,3.75-.43,8.21,1.55,11.56s5,5.57,8,8c.69.58,1.37,1.18,2,1.82.24.25.46.51.69.76.4.48.35.42-.14-.21.16.22.31.45.46.68s.4.71.6,1.06c.56,1-.22-1.07,0,.1l.11.38q.19.94,0-.39c.21,0-.2,2.54.13.43A6.32,6.32,0,0,0,44,71.51a5.88,5.88,0,0,0,3.46,2.66c2.78.63,6.64-.84,7.14-4a14.16,14.16,0,0,0-.37-7,19.35,19.35,0,0,0-3.8-6.38c-2.18-2.54-5.12-4.28-7.5-6.63-.3-.3-.57-.62-.86-.91-1-1,.62,1.06-.05-.05-.2-.33-.41-.64-.6-1l-.18-.34c-.26-.57-.22-.46.13.34a7.67,7.67,0,0,1-.34-1.08L41,46.78c-.11-.64-.1-.49.05.44,0,0,0-1.07,0-1.08l-.1.83a5.56,5.56,0,0,1,.19-.7l-.31.71a5.24,5.24,0,0,1,.34-.61c.52-1-.91,1-.12.19s-1.19.69-.21.13a4.08,4.08,0,0,0,.82-.47l-.81.33.61-.21c.31-.1.63-.16.95-.24,1.17-.32-1.45.08-.22,0,.45,0,.9-.06,1.35-.06s.68,0,1,0c.58,0,1.27.4-.21-.06.63.19,1.35.25,2,.4,1.93.44,3.83,1,5.79,1.29a20.34,20.34,0,0,0,7.54,0,13,13,0,0,0,5.46-2.88,11.61,11.61,0,0,0,4.09-11.26c-1.11-4.77-5.76-7.65-10.46-7.71S49.86,28.75,46,31.24L34.37,38.65A5.8,5.8,0,0,0,37.3,49.46c10.08,0,19.39-7.51,21.89-17.22,1.38-5.37.85-11.84-3.37-15.84A13.57,13.57,0,0,0,40,14.16c-5.28,3-8.23,10.21-6,16,1.45,3.75,4.86,5.13,8.52,3.47l11.09-5C56.24,27.39,57,23.74,56,21.33A5.76,5.76,0,0,0,49.15,18C38.59,21.31,27.47,25.4,21.38,35.34c-5.76,9.4-4,21.69,2.48,30.26S40.64,79.39,51.07,81.85a23.15,23.15,0,0,0,10.07.43,13.65,13.65,0,0,0,8.23-5.51,11.1,11.1,0,0,0,1.75-9.4,13.43,13.43,0,0,0-6-7.4c-2.47-1.61-5.23-2.84-7.84-4.21-2.76-1.44-5.49-3-8.29-4.31a28.32,28.32,0,0,0-9.69-2.92,13.29,13.29,0,0,0-9.88,3.33,5.82,5.82,0,0,0-.91,7A6,6,0,0,0,35,61.55L50.33,58c4.82-1.11,9.7-2.09,14.48-3.38s9.48-3.45,12.59-7.47a18.91,18.91,0,0,0,3.77-13.06A35.8,35.8,0,0,0,68.94,10.6,28.34,28.34,0,0,0,56.8,4,22.48,22.48,0,0,0,42,5.76C31.73,10.67,27.35,22,23.89,32A5.84,5.84,0,0,0,28,39.14a5.94,5.94,0,0,0,7.13-4Z"/><path d="M86.94,92.84c-6.51,6-10.68,14.11-13.62,22.35-3.73,10.44-5.66,21.48-6.85,32.47A302,302,0,0,0,65,185.82c.24,13.17,1.11,26.33,2.42,39.45q.93,9.47,2.18,18.91c.82,6.17,1.59,12.39,2.79,18.51,1.34,6.84,3.86,14.24,10.25,17.93A11.44,11.44,0,0,0,91.3,282a11.73,11.73,0,0,0,6.34-4.64c3.64-5,4.52-11.66,5.26-17.66q1.66-13.34,2.85-26.72,2.35-26.68,2.85-53.47t-.93-53.8c-.37-7.07-.71-14.55-4-21a28.3,28.3,0,0,0-6.27-7.88c-2-1.83-4.49-3.74-7.29-4-2.58-.27-4.46,1.29-5.63,3.46-.35.66.65,1.25,1,.59,3.69-6.91,11.15.45,14.26,4.11,4.74,5.6,5.92,12.91,6.44,20,1.23,16.73,1.44,33.61,1.31,50.38q-.2,25.67-2.11,51.29-.95,12.66-2.32,25.3-.69,6.38-1.49,12.73A57.48,57.48,0,0,1,99.8,270c-1.65,5.5-5.32,11.77-12,11.16-7.58-.71-11.71-8.5-13.45-15-1.61-6.06-2.29-12.42-3.15-18.62q-1.23-9-2.2-18c-1.33-12.52-2.28-25.09-2.7-37.68A334.59,334.59,0,0,1,67,154.91a168.57,168.57,0,0,1,5.37-32.8c2.41-8.6,5.84-17.26,11.51-24.27a39.57,39.57,0,0,1,3.91-4.18c.55-.5-.27-1.32-.82-.82Z"/><path d="M139.6,96.62c-5.47,1.08-8.8,6.55-10.88,11.25-3.54,8-5.12,16.79-6.26,25.39a258.4,258.4,0,0,0-2,34.84,389.48,389.48,0,0,0,2.15,39.08,350,350,0,0,0,5.94,37.94c1.24,5.71,2.66,11.39,4.32,17q1.16,3.9,2.49,7.73c1,2.92,2.24,6.18,4.76,8.14a5.16,5.16,0,0,0,7.07-.56c2-2.2,2.71-5.45,3.08-8.31.6-4.67.83-9.42,1.2-14.12q.57-7.41,1.07-14.84,2-29.82,2.64-59.7t0-59.78c-.1-4.61,0-9.32-.73-13.88-.61-3.78-2.05-7.62-5-10.2a7.87,7.87,0,0,0-7.36-2,19.74,19.74,0,0,0-7.29,4c-1.64,1.36-3.55,3.32-3.5,5.62,0,.74,1.18.74,1.16,0,0-2.5,2.76-4.63,4.6-5.88s4.63-2.92,7.11-2.86c3.55.09,6.32,3.47,7.67,6.43,1.9,4.14,1.93,8.91,2,13.37q.75,28.4.31,56.8t-2.11,57q-.83,14.23-2,28.45a127.84,127.84,0,0,1-1.21,13c-.49,2.65-1.5,6.61-4.51,7.43-3.67,1-6-3.41-7.12-6.17-1-2.44-1.77-5-2.56-7.51-1.64-5.27-3-10.61-4.28-16a334.74,334.74,0,0,1-6.12-36.13q-2.17-18.59-2.6-37.32a293.72,293.72,0,0,1,1.07-34.47c.87-9,2.18-18.19,5-26.85,1.71-5.22,4.2-11.64,9.19-14.6a9.05,9.05,0,0,1,2.89-1.1c.73-.15.42-1.26-.31-1.12Z"/><path d="M86.66,100.19A269.49,269.49,0,0,0,73.6,222.12c.09.73,1.25.74,1.16,0a268.43,268.43,0,0,1,13-121.62c.25-.71-.87-1-1.12-.31Z"/><path d="M88,95.47a378.24,378.24,0,0,1,6,54,380.36,380.36,0,0,1-1.71,54q-1.57,15.3-4.4,30.42c-.13.73,1,1,1.12.31a380.79,380.79,0,0,0,6.12-54.08,381.62,381.62,0,0,0-1.68-54.72q-1.58-15.19-4.36-30.25c-.13-.73-1.25-.42-1.12.31Z"/><path d="M88.72,96.57A118.48,118.48,0,0,1,105.84,148a118,118,0,0,1,.37,15.27c0,.75,1.12.75,1.16,0a119.68,119.68,0,0,0-10.3-53.44A119.5,119.5,0,0,0,89.72,96c-.39-.63-1.4,0-1,.58Z"/><path d="M138.62,97.74a272.83,272.83,0,0,0-11,78.59q.08,11.28,1.11,22.51c.06.74,1.22.75,1.16,0a271.06,271.06,0,0,1,4.44-79.16q2.25-10.92,5.39-21.64a.58.58,0,0,0-1.12-.3Z"/><path d="M137.67,100.84a184.53,184.53,0,0,1,8.45,81,181.38,181.38,0,0,1-4.22,22.77c-.18.72.94,1,1.12.31A185.78,185.78,0,0,0,144.88,123a184.56,184.56,0,0,0-6.09-22.5c-.24-.7-1.36-.4-1.12.31Z"/><path d="M90.13,92.2a30.16,30.16,0,0,1,14.22-23.84c.63-.39.05-1.4-.59-1A31.37,31.37,0,0,0,89,92.2c0,.75,1.12.75,1.16,0Z"/><path d="M143.63,94a41.5,41.5,0,0,1,8.11-17.23,61.16,61.16,0,0,1,5.77-6.17c1.3-1.22,2.79-1.74,4.25-.37a6.49,6.49,0,0,1,1.58,4.59c0,1.25-.14,3.08-1.57,3.51-1.66.49-3.09-1.42-2.78-2.92.63-3.15,4.55-3.61,6.89-2.21a5.67,5.67,0,0,1,2.61,6.6A7.21,7.21,0,0,1,166.34,83c-1,.91-3.47,2.35-4.84,1.41-1-.67-.65-1.42.11-1.79a2.4,2.4,0,0,1,2.08.24,9.79,9.79,0,0,1,2.14,1.41,11.9,11.9,0,0,1,2.79,3.44,11.61,11.61,0,0,1,.11,10.49c-.32.67.68,1.26,1,.58a12.61,12.61,0,0,0-4.11-16.12c-1.38-1-3.37-2-4.94-.85a2.07,2.07,0,0,0-.06,3.39c1.41,1.11,3.53.49,5-.28,3.07-1.65,5.18-5.46,4-8.91a7,7,0,0,0-7.52-4.75c-3,.53-5.92,4.35-3.35,7.06a3.35,3.35,0,0,0,3.89.85c1.45-.79,1.86-2.53,1.87-4.06A8.34,8.34,0,0,0,163,69.78a3.9,3.9,0,0,0-4.52-1.31c-1.89.83-3.46,2.92-4.85,4.38a47.48,47.48,0,0,0-4.82,6,42.8,42.8,0,0,0-6.26,14.86c-.16.72,1,1,1.11.3Z"/><path d="M79.87,171.2a2.11,2.11,0,0,0,2.07,2.13,2,2,0,0,0,1.2-3.54.63.63,0,0,0-.41-.17.58.58,0,0,0-.41.17.59.59,0,0,0,0,.82,1,1,0,0,1,.18.17s0,.08,0-.05l0,0,.07.12,0,.06c0,.06,0-.13,0-.06s0,.07,0,.11l0,.11v0c0,.12,0,0,0,0a.7.7,0,0,1,0,.25.45.45,0,0,0,0,.11c0,.1,0-.07,0-.07a.29.29,0,0,1,0,.09,2.17,2.17,0,0,1-.07.24c0,.08.06-.14,0,0l-.06.12-.07.1c0,.06.1-.12,0,0l0,0-.08.08,0,0c-.08.07.11-.07,0,0l-.11.06-.06,0c-.05,0,0,0,0,0l-.11,0h-.06c-.11,0,0,0,0,0h-.27l-.15,0,0,0c-.11,0,.1.05,0,0l-.13-.07-.1-.06-.06,0c-.09-.06.1.09,0,0a2.28,2.28,0,0,1-.22-.22c-.07-.08.07.1,0,0l0-.06-.08-.13s0-.11,0,0,0,0,0,0a1,1,0,0,0,0-.14s0-.1,0,0,0,0,0,0a1,1,0,0,1,0-.17.58.58,0,0,0-1.16,0Z"/><path d="M96,220.56a2.27,2.27,0,0,0,1.83,2.2,2,2,0,0,0,1.47-.28,2.39,2.39,0,0,0,.91-1.17,2.19,2.19,0,0,0-.07-1.63.59.59,0,0,0-.8-.21.6.6,0,0,0-.2.8c-.09-.2,0,.19,0,.19s0-.11,0,0,0,.05,0,.07v.16a.17.17,0,0,0,0,.07c0-.09,0-.1,0,0l0,.15a.88.88,0,0,1-.05.15c0,.06,0,.05,0,0l0,.07s-.11.26-.16.27.06-.08,0,0l0,.06-.11.11-.06,0,0,0a.57.57,0,0,0-.13.08s-.12.08-.14.07.09,0,0,0l-.07,0s-.12,0-.15,0,.09,0,0,0h-.08s-.13,0-.16,0,.09,0,0,0l-.08,0-.16-.05c-.06,0-.06,0,0,0l-.08,0-.14-.08-.07-.05s0,0,0,0a.91.91,0,0,1-.24-.24c0-.05,0,0,0,0l0-.07a1.09,1.09,0,0,1-.08-.15l0-.07c0,.07,0,.08,0,0a.75.75,0,0,1,0-.16s0-.05,0-.08,0,.1,0,0a1,1,0,0,1,0-.17.59.59,0,0,0-.58-.58.6.6,0,0,0-.58.58Z"/><path d="M101.2,157.94l-.07,0c-.1,0,.08.09,0,0s-.08-.09,0,0,0,0,0,0,0,.09,0,.09,0,0,0,0,0,0,0-.06,0,.16,0,.05a.28.28,0,0,1,0-.09c0-.12,0,.13,0,.05a.24.24,0,0,1,0-.08s0-.06,0-.08-.06.13,0,.09l0-.05s.07-.11,0,0,0,0,0,0l0-.05c-.12.12-.08.06,0,0s-.07,0-.08,0,0,0,0,0l.11,0h.07l.1,0c.12,0-.1,0,0,0l.11.06,0,0c-.08-.06,0,0,0,0l.07.06,0,.05s0,0,0,0,.08.12.11.18.07.15,0,.07,0,0,0,0l0,.09a1.43,1.43,0,0,1,.07.28v.06c0,.12,0-.1,0,0s0,.1,0,.15c0,.21,0,.41,0,.62a.59.59,0,0,0,.58.58.58.58,0,0,0,.58-.58A4.77,4.77,0,0,0,103,158a2.07,2.07,0,0,0-.89-1.16,1.54,1.54,0,0,0-1.47-.09,1.34,1.34,0,0,0-.66,1,1.15,1.15,0,0,0,.59,1.22.69.69,0,0,0,.45.06.67.67,0,0,0,.35-.27.59.59,0,0,0,0-.45.53.53,0,0,0-.26-.34Z"/><path d="M80.25,241.07A2.32,2.32,0,0,0,83,242.76a1.89,1.89,0,0,0,1.32-1.06A2.35,2.35,0,0,0,84.4,240a2.19,2.19,0,0,0-1.38-1.4.58.58,0,1,0-.31,1.12l.09,0s0,.05-.06,0l.14.07.06,0c-.08-.07,0,0,0,0l.06.06.11.11s0,.07,0,0l0,.05a2.49,2.49,0,0,1,.15.28c0,.07,0-.15,0,0a.14.14,0,0,0,0,.06s0,.1,0,.15l0,.15s0,.09,0-.06v.09a1.6,1.6,0,0,1,0,.31s0,.08,0-.07a.13.13,0,0,0,0,.06,1.21,1.21,0,0,1,0,.18s-.06.18,0,.07,0,0,0,.07l-.08.13,0,0a.5.5,0,0,0-.07.08,1,1,0,0,0-.11.1c.07-.09.08-.06,0,0l0,0-.14.07,0,0-.08,0-.15,0c-.16,0,.13,0,0,0a1.58,1.58,0,0,1-.31,0c-.1,0,0,0,.06,0h-.08l-.14,0-.15-.05-.06,0c.17.05.06,0,0,0l-.15-.08a.1.1,0,0,1,0,0s-.13-.09,0,0,0,0,0,0l-.07-.06a1.31,1.31,0,0,0-.11-.12c-.06-.06.08.12,0,0l0-.08-.08-.15c0-.06,0,.15,0,0l0-.09c0-.06,0-.12,0-.18a.59.59,0,0,0-.71-.41.61.61,0,0,0-.41.72Z"/><path d="M86.14,140.31c-.06,0-.06-.08,0,0l0,0s-.07-.08-.11-.11.06.09,0,0a.21.21,0,0,1,0-.06l0,0c0-.06,0-.17,0,0,0-.09-.06-.17-.08-.26s0-.12,0,0v-.07a.54.54,0,0,1,0-.18v-.08c0-.08,0,.15,0,0l0-.15c0-.06.1-.19,0,0a.83.83,0,0,1,.07-.13.22.22,0,0,1,0-.08s.06,0,0,0l.11-.12.06-.05c0-.05-.13.08,0,0l.17-.1s.07,0,0,0l.07,0,.15,0a.15.15,0,0,0,.09,0c-.11.05-.11,0-.06,0h.2c.06,0,.22,0,0,0l.17,0,.16.05.06,0c-.14,0-.07,0,0,0l.14.08s.06.05.08.06l0,0,.12.11,0,.05s0,0,0,0l0,0a1,1,0,0,1,.08.14.3.3,0,0,0,0,.08c-.06-.06,0-.11,0,0l.05.17s0,.06,0,.1,0-.14,0,0,0,.14,0,.21a1,1,0,0,0,0,.17V140a.15.15,0,0,0,0,.07l0,.1a1.52,1.52,0,0,1-.06.2c0,.06,0,0,0,0a.37.37,0,0,0,0,.11c0,.06-.07.11-.1.16s-.08.11,0,0l0,0-.15.14a.57.57,0,0,0,0,.82.59.59,0,0,0,.82,0,2.37,2.37,0,0,0,.78-1.82,2.11,2.11,0,0,0-1-1.76,2.2,2.2,0,0,0-1.87-.19,1.89,1.89,0,0,0-1.2,1.47,2,2,0,0,0,.81,2,.58.58,0,0,0,.59-1Z"/><path d="M93,259.41a2.15,2.15,0,0,0-1.11,1.4,2.1,2.1,0,0,0,.4,1.84,2.13,2.13,0,0,0,3.23.06,2.22,2.22,0,0,0,.45-2,.59.59,0,0,0-.72-.4.58.58,0,0,0-.4.71s0,.1,0,.15v.08s0-.14,0,0v.15s0,.05,0,.08,0-.09,0,0,0,.2-.08.3,0-.07,0,0l-.1.17,0,.06c-.05.07,0,0,0,0s-.09.1-.1.11l-.1.09c-.06.06.09-.05,0,0l-.08.06-.13.07c-.1,0,0,0,0,0l-.07,0-.15,0c-.08,0,0,0,0,0a.18.18,0,0,0-.1,0h-.22c-.08,0,.11,0,0,0l-.31-.08h0l-.07,0a.57.57,0,0,1-.13-.08s-.13-.1-.07,0h0l-.07-.07-.11-.11s.07.1,0,0l0-.07-.07-.13c0-.08,0,0,0,0l0-.09,0-.15c0-.14,0,.11,0,0v-.13a.22.22,0,0,1,0-.08c0-.13,0,.13,0,0s.06-.32.1-.33l0,0,0-.09a1.19,1.19,0,0,1,.09-.15c0-.09,0,0,0,0l.08-.09.12-.11,0,0,0,0,.05,0,.17-.09a.59.59,0,0,0,.21-.79.6.6,0,0,0-.8-.21Z"/><path d="M85.74,202.68l-.08-.08c-.08-.1,0,.08,0,0s-.08-.12-.11-.18l0-.07,0,0c0-.06,0-.05,0,0s-.06-.2-.07-.22a.8.8,0,0,0,0-.18s0,.14,0,0,0-.07,0-.1v-.19s0-.08,0-.11,0,.13,0,0,.07-.26.11-.39-.07.13,0,0l0-.09c0-.06.08-.12.12-.19s-.1.1,0,0l.07-.08s.12-.14.15-.13-.1.06,0,0l.1-.07s.18-.11.2-.1-.13,0,0,0l.09,0,.19-.05h.45c-.1,0,0,0,0,0l.11,0,.19.06.07,0h0l.07,0a1.4,1.4,0,0,1,.17.09l.07.06c.07,0-.1-.1,0,0a.86.86,0,0,1,.14.13s.07.07.07.09l0,0,0,0,.1.17c.06.12,0,0,0,0l0,.09.06.18a.29.29,0,0,0,0,.09s0,0,0,.08,0-.11,0-.06V202c0,.09,0-.15,0,0l0,.13-.06.22c0,.11,0,0,0,0l-.06.12-.12.19c-.06.1,0,0,0,0s-.08.09-.09.1a.93.93,0,0,1-.18.16.58.58,0,0,0,.82.82,2.47,2.47,0,0,0,.87-2,2.41,2.41,0,0,0-1.07-2,2.6,2.6,0,0,0-2.17-.28,2.36,2.36,0,0,0-1.56,1.63,2.57,2.57,0,0,0,.58,2.42.58.58,0,0,0,.82,0,.59.59,0,0,0,0-.82Z"/><path d="M130.08,172.83a2.35,2.35,0,0,0-.24,2.95,2.06,2.06,0,0,0,1.49.89,2.28,2.28,0,0,0,1.54-.41,2.25,2.25,0,0,0,1-1.68.58.58,0,0,0-.58-.58.61.61,0,0,0-.58.58c0,.1,0,0,0-.05a.17.17,0,0,0,0,.07.83.83,0,0,1,0,.15.14.14,0,0,0,0,.07c0,.07.05-.11,0,0s0,.1-.07.14l-.08.12c0,.08,0,0,0,0l0,.07-.21.2c-.08.07,0,0,0,0l-.06,0a.57.57,0,0,1-.13.08l-.12.07s-.1,0,0,0,0,0,0,0a1.57,1.57,0,0,1-.29.08c-.14,0,.13,0,0,0h-.33l-.13,0s-.09,0,0,0,0,0,0,0l-.12-.07-.06,0c-.06,0,.09.08,0,0s-.13-.12-.19-.19.06.09,0,0a.21.21,0,0,0,0-.06l-.06-.11-.06-.11s-.05-.09,0,0,0,0,0,0a1.82,1.82,0,0,1-.07-.25.13.13,0,0,0,0-.06c0-.08,0,.13,0,.05s0-.11,0-.16v-.15s0,0,0-.06,0,.14,0,0,0-.2.08-.3h0c0,.09,0,0,0,0l.08-.14,0-.05c.06-.1-.09.1,0,0l.11-.12a.58.58,0,0,0,0-.82.6.6,0,0,0-.82,0Z"/><path d="M138.13,163.42l-.07,0s-.09-.06,0,0h0l-.07,0-.13-.09s.11.1,0,0l-.07-.06-.11-.12c0-.06,0,0,0,0l0-.06-.07-.12,0-.06c-.06-.11,0,.12,0,0a2.29,2.29,0,0,1-.08-.28v0s0-.06,0-.07v-.18c0-.1,0,0,0,.05v-.07c0-.06,0-.11,0-.16s-.05.11,0,0l0-.06.09-.15c0-.07-.08.08,0,0l0,0,.12-.11s0,0,0-.05-.11.08,0,0a1.19,1.19,0,0,1,.15-.09l.06,0c.07,0,0,0,0,0a.78.78,0,0,0,.14-.05l.14,0,.07,0h.2c.12,0-.11,0,0,0l.14,0,.07,0s-.12-.07,0,0l.12.07.06,0c.07,0-.1-.1,0,0l.1.1,0,.05c.07.09-.07-.1,0,0l.09.14,0,.06c.06.11,0-.06,0,0a.88.88,0,0,1,0,.15s0,.14,0,.18,0-.12,0,0a.34.34,0,0,1,0,.1,1.15,1.15,0,0,0,0,.18s0-.15,0-.05,0,.06,0,.09-.09.24,0,.08a.59.59,0,0,0,.21.79.58.58,0,0,0,.79-.21,2.08,2.08,0,0,0-.07-1.88,2,2,0,0,0-1.56-1,2.13,2.13,0,0,0-1.67.66,1.94,1.94,0,0,0-.46,1.84,2.1,2.1,0,0,0,1.45,1.48.59.59,0,0,0,.71-.41.58.58,0,0,0-.41-.71Z"/><path d="M137.1,134.74a2,2,0,0,0-1.07.95,2.36,2.36,0,0,0-.24,1.43,2,2,0,0,0,2,1.62,2.08,2.08,0,0,0,1.47-.56.58.58,0,1,0-.82-.82.34.34,0,0,0-.09.08s.1-.08,0-.05l0,0-.09,0-.05,0c-.09,0,.11,0,0,0l-.22.07-.1,0c-.07,0,.14,0,.06,0h-.29l-.12,0-.21-.07c-.07,0,.11.06.05,0l0,0-.12-.07-.09-.06c.1,0,.09.07,0,0l0,0-.07-.08s0,0,0,0,0,0,0,0a1.06,1.06,0,0,0-.12-.2c-.05-.11,0,.11,0,0s0-.09,0-.13,0-.07,0-.11,0,.16,0,0v-.25a.06.06,0,0,0,0,0c0-.08,0,.13,0,.06s0-.07,0-.1.06-.16.08-.24-.07.14,0,.06a.43.43,0,0,1,0-.07l.06-.11.07-.11,0,0,0,0a.47.47,0,0,1,.1-.1s0,0,0,0-.12.09,0,0l.1-.07s.21-.1,0,0a.59.59,0,0,0,.35-.27.61.61,0,0,0,.06-.44.59.59,0,0,0-.71-.41Z"/><path d="M143.26,224.22l-.13-.06s-.1-.08,0,0l-.1-.1L143,224s.06.1,0,0a.75.75,0,0,1-.07-.12c-.06-.09,0,.07,0,0a.65.65,0,0,0,0-.13s0-.09,0,0,0,0,0,0v-.14c0-.06,0,0,0,0s0,0,0-.07.05-.15,0-.08,0-.07.06-.1,0,0,0,0l.05-.05.1-.1s0,0,0,0l.06,0,.15-.08c-.09,0,0,0,0,0l.14,0c-.09,0,0,0,0,0h.07c.08,0-.08,0,0,0l.16,0c.11,0-.06,0,0,0l.12.07s.07.05,0,0,0,0,0,0l.1.1.05.06,0,0c.06.1.11.18.16.28s0,.08,0,0,0,0,0,0,0,.1,0,.14a.8.8,0,0,0,0,.15c0,.06,0,0,0,0a.37.37,0,0,0,0,.11,3.53,3.53,0,0,1,0,.46v.05s0,.07,0,.08,0,.15-.05.22c-.08.32-.18.63-.29.94a.59.59,0,0,0,.41.72.6.6,0,0,0,.71-.41,5.16,5.16,0,0,0,.4-2.12,2.41,2.41,0,0,0-.8-1.65,1.77,1.77,0,0,0-2.93,1.22,1.81,1.81,0,0,0,1,1.7.6.6,0,0,0,.8-.21.58.58,0,0,0-.21-.79Z"/><path d="M136.84,240.36a1.57,1.57,0,0,0-1.11,1.46,1.92,1.92,0,0,0,.85,1.71,3.29,3.29,0,0,0,2,.48,2.83,2.83,0,0,0,2.06-.8,1.63,1.63,0,0,0,0-2.26.58.58,0,0,0-.82.82s.12.13.08.07.07.12,0,0,0,.08,0,.1v.08c0,.06,0,.13,0,0,0,.06,0,.11,0,.17a.14.14,0,0,0,0,.06s.05-.09,0,0-.09.15-.05.1-.07.07-.09.09-.07.06,0,0l0,0-.14.09-.06,0-.06,0-.36.1-.11,0s-.1,0,0,0,0,0,0,0h-.14a4.45,4.45,0,0,1-.73,0c.11,0-.06,0-.09,0l-.18,0-.16-.05-.07,0,0,0-.14-.07-.09-.06s-.07-.05,0,0l0,0-.07-.07-.06-.06s-.07-.12,0,0l-.06-.1,0-.06c0-.06,0,.1,0,0s0-.08,0-.12a.31.31,0,0,0,0-.08c0-.06,0,.1,0,0s0-.11,0-.17a.13.13,0,0,0,0-.06c0-.11,0,.08,0,0l0-.14,0-.07s0,.09,0,0a1,1,0,0,1,.08-.14c-.07.11,0,0,0,0s-.1.06,0,0l.06,0s.08,0,0,0,0,0,.05,0a.58.58,0,0,0-.31-1.12Z"/><path d="M145.06,251.45a2,2,0,0,0-1.77,0,2.2,2.2,0,0,0-1.11,1.25,2,2,0,0,0,1.52,2.43,2,2,0,0,0,1.77-.41.58.58,0,0,0,0-.82.59.59,0,0,0-.82,0c-.11.1.11-.07,0,0l-.12.06c-.12.06.1,0,0,0l-.15,0s-.17,0,0,0,0,0-.06,0h-.19c-.11,0,0,0,0,0s-.2,0-.26-.06l-.12,0c-.07,0,.15.07.05,0l-.07,0-.21-.13,0,0,0,0a.52.52,0,0,1-.11-.1l0,0c-.06-.06,0,.06,0,.06a.26.26,0,0,1-.07-.11.53.53,0,0,1-.06-.1c0-.05,0-.1,0,.05l0-.07,0-.13s0,0,0-.06c0,.17,0,.11,0,.05v-.13s0-.12,0,0,0,0,0,0a.56.56,0,0,1,0-.12l0-.09,0,.06a2.07,2.07,0,0,0,.15-.25c-.07.13-.06.08,0,0a.12.12,0,0,1,.05,0l.09-.1.06,0c.06-.06-.05,0-.05,0l.15-.1.13-.07s.11-.05,0,0a.4.4,0,1,0,0,0l.14-.05h.07c.12,0-.1,0,0,0h.23c.13,0-.1,0,0,0l.16,0h.05c.1,0-.14-.06,0,0a.58.58,0,0,0,.79-.2.59.59,0,0,0-.2-.8Z"/><path d="M136.9,197.13a1.54,1.54,0,0,1-.19-.17s0-.06,0,0a.09.09,0,0,0,0-.05.75.75,0,0,1-.07-.12l0-.06c0-.07,0,.12,0,0s0-.08,0-.12l0-.11a.13.13,0,0,0,0-.06c0,.14,0,.09,0,0a1.13,1.13,0,0,1,0-.26s0,.14,0,.08,0,0,0-.06,0-.09,0-.14,0,0,0,0l0-.06a.6.6,0,0,1,.06-.11.09.09,0,0,0,0-.05s-.09.11,0,.05l.1-.1.05-.05-.05,0,.11-.07.09,0c.08-.05,0,0,0,0l.09,0,.24-.06h.19c-.12,0-.11,0-.06,0l.12,0,.12,0s-.13-.07,0,0l.07,0s.13.1,0,0,0,0,.05.05a.3.3,0,0,1,.08.08l0,.05c-.09-.09-.05-.07,0,0l.07.12,0,.06c0,.06-.05-.13,0,0s.05.18.08.27c0-.11,0-.11,0-.06v.24c0,.06,0-.08,0-.08s0,.07,0,.1,0,.1,0,.15a.57.57,0,0,0,.4.71.59.59,0,0,0,.71-.4,1.93,1.93,0,0,0-1.37-2.48,2,2,0,0,0-1.51.32,1.83,1.83,0,0,0-.79,1.44,1.88,1.88,0,0,0,.68,1.55.61.61,0,0,0,.41.17.58.58,0,0,0,.41-.17.59.59,0,0,0,0-.82Z"/><path d="M104.58,68.77c3.44-3.72,9,.5,10.8,3.87a4.14,4.14,0,0,1,.45,3.36,2.25,2.25,0,0,1-2.46,1.67c-2.44-.45-2.73-3.39-1.06-4.83s4.24-1,5.79.6A8,8,0,0,1,120,79.6c-.1,2.1-.67,4.69-2.73,5.72a2.77,2.77,0,0,1-3.14-.22,2,2,0,0,1,0-2.89l-.79-.2a22.26,22.26,0,0,1,4,14.09l1.08-.29c-3.12-4.79-1.85-12,3.24-14.94a6.11,6.11,0,0,1,4.83-.74,4,4,0,0,1,2.88,3.65,3,3,0,0,1-3,2.73c-1.74-.15-2.24-2.16-2.25-3.6,0-6.12,5.49-13.11,12.09-11.93a6.83,6.83,0,0,1,5.67,6.49c0,1-.38,2.72-1.85,2.06a4.86,4.86,0,0,1-1.62-1.75A22.41,22.41,0,0,1,136,73c-1.26-3.31-2.16-7.53-.38-10.83,1.46-2.69,5.58-4.2,7.84-1.58.49.57,1.31-.26.82-.82-2.26-2.63-6.58-2-8.74.49-2.82,3.2-2.28,8.1-1.08,11.85a23.55,23.55,0,0,0,3.17,6.39c.88,1.25,2.4,3,4.11,2.06,1.43-.81,1.54-2.92,1.3-4.34a8,8,0,0,0-2.85-4.74c-3.28-2.66-8-2.17-11.35.18a14.83,14.83,0,0,0-5.73,10.22,5.89,5.89,0,0,0,1.2,4.72,3.41,3.41,0,0,0,4.23.5c3.33-1.94,2.2-6.3-.87-7.82-4.19-2.06-8.91,1.45-10.73,5.13a12.19,12.19,0,0,0,.58,11.94.58.58,0,0,0,1.08-.29,23.27,23.27,0,0,0-4.19-14.68.6.6,0,0,0-.8-.21,3.13,3.13,0,0,0-.32,4.6c1.49,1.64,4.14,1.17,5.65-.18,1.85-1.67,2.34-4.47,2.31-6.85a8.53,8.53,0,0,0-2.82-6.64,5.37,5.37,0,0,0-5.94-.79,4.14,4.14,0,0,0-2.09,5.22,3.7,3.7,0,0,0,4.67,2c2-.9,2.52-3.43,1.89-5.34-1.55-4.68-8.92-9.88-13.15-5.3-.5.55.31,1.37.82.82Z"/><path d="M87.13,283.76c-3.34,5.54-9.35,10.72-7.91,17.86a.58.58,0,0,0,1.06.14l3.3-5-1.06-.14,1.72,9a.58.58,0,0,0,.85.35,12.46,12.46,0,0,0,6.16-9.37l-1.08.3c1.62,2.4,3.74,5.16,7,4.77,2.89-.35,3.93-3.34,3.07-5.85-1-2.92-3.49-5.61-5.66-7.74a34.41,34.41,0,0,0-8.25-6c-.67-.35-1.25.65-.59,1a33.21,33.21,0,0,1,11.8,10.22c1.29,1.81,3.44,6,.07,7.07-2.92.93-5-2-6.44-4.09a.58.58,0,0,0-1.08.29,11.27,11.27,0,0,1-5.58,8.37l.85.34-1.72-9c-.1-.52-.81-.52-1.06-.13l-3.3,5,1.06.14c-1.34-6.68,4.68-11.81,7.79-17,.39-.64-.61-1.22-1-.59Z"/><path d="M141.91,280a65.11,65.11,0,0,0-5.77,26.35.58.58,0,0,0,1.14.16l3.81-11.24H140l3.17,8.91c.18.5,1,.61,1.12,0l1.8-8.95a.58.58,0,0,0-1.06-.45,4.6,4.6,0,0,0,2.18,6.85c2.76,1,5.24-1,5.68-3.72.51-3.19-1.83-5.83-4-7.81-2.6-2.32-7-5.89-4.48-9.8.41-.63-.6-1.22-1-.59a6.35,6.35,0,0,0,.32,6.73c1.47,2.35,3.87,3.86,5.75,5.84s3.49,5.17,1.32,7.55a3,3,0,0,1-4.17.13,3.45,3.45,0,0,1-.57-4.59l-1.06-.45-1.8,9h1.12L141.09,295a.58.58,0,0,0-1.12,0l-3.81,11.24,1.14.15a63.55,63.55,0,0,1,5.61-25.76c.3-.68-.7-1.27-1-.59Z"/><path d="M65.45,125.49c1.9,2.19,4.82.56,6.86-.43a71.84,71.84,0,0,1,8.84-3.55c.71-.24.41-1.36-.31-1.12a71.84,71.84,0,0,0-7.57,3c-1.22.55-2.39,1.23-3.63,1.72s-2.49.63-3.37-.39c-.48-.56-1.3.26-.82.82Z"/><path d="M52.47,53.74A64.14,64.14,0,0,1,79.11,56.5a.59.59,0,0,0,.71-.41l2.24-7.56c.72-2.43,1.55-4.86,2.06-7.35a11.4,11.4,0,0,0-.11-6,12.24,12.24,0,0,0-3.29-4.43,11.75,11.75,0,0,1-2-2.42,11.63,11.63,0,0,1-1.15-3.55,19.05,19.05,0,0,0-2.18-6c-2.2-3.75-5.42-7-8.43-10.16s-6.44-6-10.57-7.48a17.66,17.66,0,0,0-12.66.11C39.51,3,36,6.58,32.57,9.44a30.62,30.62,0,0,0-4.94,4.78,24.52,24.52,0,0,0-3.05,5.33c-3.49,8.09-4.36,19.58-13.44,23.71a.57.57,0,0,0-.2.79c5,7.3,9.85,14.67,14.9,21.91a34.56,34.56,0,0,0,7.46,8.26,17,17,0,0,0,9.85,3.3,9,9,0,0,1,5.63,1.85A14.23,14.23,0,0,0,52.93,82c3.41,1.13,7.33.13,10.73-.61s7-2,9.29-4.78A8.07,8.07,0,0,0,74.11,68c-1.69-3.88-5.47-6.06-9-8L52,52.71a.58.58,0,0,0-.59,1L62,59.59c3.12,1.73,6.58,3.32,9.07,5.94s3.67,6.69,1.33,9.92c-2.1,2.91-5.66,4.07-9,4.8s-7.76,1.92-11.11.18A30.8,30.8,0,0,1,48.81,78a8.69,8.69,0,0,0-4.4-1.53,29.91,29.91,0,0,1-5.17-.52,15.71,15.71,0,0,1-4.53-2.1A30.39,30.39,0,0,1,27,65.56c-5.11-7.29-10-14.73-15-22.09l-.21.79c7-3.17,9.5-11,11.61-17.74,1.26-4,2.57-8.14,5.16-11.53a29.59,29.59,0,0,1,4.89-4.73c1.8-1.49,3.59-3,5.39-4.45A20.68,20.68,0,0,1,45,2a15.94,15.94,0,0,1,6.36-.77A20.82,20.82,0,0,1,63.38,6.8a75,75,0,0,1,8.77,9.4,20.59,20.59,0,0,1,3.56,6c.66,1.87.75,3.9,1.53,5.74s2.43,3.25,3.84,4.75a8.09,8.09,0,0,1,2.09,7.19,55.76,55.76,0,0,1-2,7.61L78.7,55.78l.72-.4a65.13,65.13,0,0,0-26.95-2.8c-.74.08-.75,1.24,0,1.16Z"/><path d="M52.47,53.93C58.29,46.51,64,39,70.1,31.79c.48-.56-.33-1.39-.82-.82-6.1,7.19-11.81,14.72-17.63,22.14-.46.58.36,1.41.82.82Z"/><path d="M61.56,41.59a46.05,46.05,0,0,1-.49-20c.15-.73-1-1-1.12-.31a47.44,47.44,0,0,0,.49,20.64.58.58,0,0,0,1.12-.3Z"/><path d="M51.51,52.65a116.21,116.21,0,0,0-27.1-2.12c-.74,0-.74,1.18,0,1.16A114.63,114.63,0,0,1,51.2,53.77c.73.15,1-1,.31-1.12Z"/><path d="M58.07,60.32a19.45,19.45,0,0,1-.94,9.91c-.25.7.87,1,1.12.31A20.51,20.51,0,0,0,59.18,60c-.12-.73-1.24-.42-1.11.31Z"/><path d="M51.78,56.66c-.94,2.24-3.86,2.39-5.92,2.47s-4.54.28-6.15,1.94c-.52.53.3,1.35.82.82,1.85-1.91,4.76-1.45,7.16-1.71C49.84,60,52,59.09,52.89,57c.29-.68-.83-1-1.11-.3Z"/><path d="M90.13,92.2c1-8.76,4.1-18.76-2.27-26.28A33.69,33.69,0,0,0,78,58.55,53.18,53.18,0,0,0,65.8,53.71c-4.07-1-8.51-1.66-12.66-.65a.58.58,0,0,0,.31,1.12,24,24,0,0,1,10.85.36,51.51,51.51,0,0,1,11.89,4.34,39.39,39.39,0,0,1,9.56,6.5,16.26,16.26,0,0,1,4.89,11.89c.06,5-1.13,10-1.67,14.93-.08.74,1.08.74,1.16,0Z"/><path d="M143.18,94.39l-.1-6.39a19.37,19.37,0,0,1,0-3c.09-.66.67-1.9,1.56-1.48l-.28-.5A85,85,0,0,1,143,93.73c-.14.73,1,1,1.12.31a87.84,87.84,0,0,0,1.46-11,.58.58,0,0,0-.29-.5,2.17,2.17,0,0,0-2.52.53,4.27,4.27,0,0,0-.83,3.13c0,2.72.08,5.44.12,8.16a.58.58,0,0,0,1.16,0Z"/><path d="M89,93.06c-.61-2.37-1.12-4.76-1.51-7.17-.09-.59-.18-1.19-.26-1.78a3.66,3.66,0,0,1,0-1.71c.3-.89,1.5-1,2.29-1.12l-.73-.56-.47,12.14a.58.58,0,0,0,1.16,0l.47-12.14a.59.59,0,0,0-.74-.56,4.09,4.09,0,0,0-2.68,1.14c-.82,1-.51,2.33-.34,3.47a78.35,78.35,0,0,0,1.72,8.6c.18.72,1.3.41,1.12-.31Z"/><polygon points="14.59 135.88 51.25 135.88 51.25 129.28 14.59 129.28 14.59 98.32 55.61 98.32 55.61 91.73 9.22 91.73 9.22 175.78 14.59 175.78 14.59 135.88"/><path d="M223.48,133.31c0-25.49-11.07-41.58-32-41.58h-23.7v84.05h23.7C212.41,175.78,223.48,158.35,223.48,133.31Zm-50.3,35.88V98.32h16.87c17.89,0,27.84,10.84,27.84,35,0,23.7-9.95,35.88-27.84,35.88Z"/><path d="M197.19,203.34H169.92V287.4h5.48V249.73h21.79c12.75,0,21.58-9.61,21.58-23.36S210.05,203.34,197.19,203.34Zm0,39.79H175.4V209.94h21.79c9.84,0,16,6.26,16,16.43S206.81,243.13,197.19,243.13Z"/><path d="M0,245.05c0-23.37,13.49-41.63,31.51-41.63,12.35,0,22.34,8.1,27.18,21.76l-5.35.61c-4-9.82-12.15-16.09-22-16.09-15,0-25.74,15.21-25.74,35,0,19.53,10.4,37.16,24.92,37.16,10.91,0,19.56-7.79,23.58-20.24L59,262.88C54.26,278.77,44.17,288,30.58,288,12.77,288,0,268,0,245.05Z"/></g></g></svg>