<svg xmlns="http://www.w3.org/2000/svg" viewBox="0 0 243.16 362.35"><defs><style>.cls-1{font-size:30.16px;font-family:Compagnon-Bold, Compagnon;font-weight:700;}.cls-2{fill:#fd8320;}.cls-3{fill:#54bb0d;}.cls-4{fill:#ffcb43;}</style></defs><g id="Ebene_2" data-name="Ebene 2"><g id="Ebene_1-2" data-name="Ebene 1"><text class="cls-1" transform="translate(7.54 352.92)">Speisekammer</text><path class="cls-2" d="M88,126a260.6,260.6,0,0,0-11.34,65.08,264.36,264.36,0,0,0,5.27,65.87,251.57,251.57,0,0,0,10,35.1c1,2.84,4,5.07,7.13,4.05,2.79-.91,5.16-4.08,4-7.14A253.13,253.13,0,0,1,94,258q-1.75-7.81-3-15.72c-.21-1.33-.41-2.67-.61-4-.08-.59-.18-1.19-.25-1.78.16,1.34.07.49,0,.2-.06-.45-.12-.9-.17-1.34-.34-2.69-.63-5.38-.89-8.07a258.59,258.59,0,0,1-1-32c.16-5.4.49-10.81,1-16.19.26-2.7.55-5.39.89-8.07a11.84,11.84,0,0,1,.23-1.79c-.33,1.2-.08.55,0,.2l.12-.89c.2-1.41.42-2.82.64-4.23a252.66,252.66,0,0,1,8.24-35.31,5.85,5.85,0,0,0-4-7.14A5.92,5.92,0,0,0,88,126Z"/><path class="cls-2" d="M96.76,128.84q4.9,16.64,8.22,33.69,1.67,8.63,2.92,17.33l.27,1.89s.22,1.57.09.64.08.61.08.64c.19,1.41.36,2.83.53,4.24q.52,4.36.93,8.75,1.64,17.26,1.62,34.63,0,8.68-.44,17.34-.21,4.27-.52,8.54-.15,2-.33,4.08l-.21,2c0,.38-.09.76-.13,1.13-.13,1.15.11-.7,0,0a61.31,61.31,0,0,1-2,9.07c-.22.72-.46,1.43-.72,2.14-.14.35-.28.7-.41,1.05-.29.79.52-1.11.06-.13-.57,1.2-1.15,2.38-1.83,3.52-.36.59-.73,1.17-1.13,1.74-.14.21-.29.41-.44.62-.65.93.79-.91,0,0a33.19,33.19,0,0,1-2.56,2.74,13.43,13.43,0,0,1-1.41,1.22s1-.73.29-.23c-.31.2-.61.42-.92.63a19.35,19.35,0,0,1-1.77,1l-.66.34c-1.34.63.93-.35-.16.07l7.34,5.59q-3.33-29-4-58.32t1.5-58.45q1.2-16.42,3.25-32.76H92.71a555,555,0,0,1,4.6,92.19q-.44,13-1.48,26c-.24,3,2.84,5.94,5.8,5.8a5.94,5.94,0,0,0,5.8-5.8,554.65,554.65,0,0,0-.27-92.31q-1.12-13-2.85-25.89a6.43,6.43,0,0,0-1.7-4.1,5.79,5.79,0,0,0-8.2,0,6.77,6.77,0,0,0-1.7,4.1q-3.64,29-4.57,58.28T89,260.43q1,16.43,2.9,32.79a6,6,0,0,0,2.28,4.56,5.51,5.51,0,0,0,5.06,1c11-4.27,17.73-14.31,20.5-25.47a104.91,104.91,0,0,0,2.39-18q.63-8.88.8-17.8a371.68,371.68,0,0,0-5.74-72.49A364.37,364.37,0,0,0,108,125.76c-.86-2.91-4.12-5-7.14-4.05a5.88,5.88,0,0,0-4,7.13Z"/><path class="cls-2" d="M141.55,138.24a418.14,418.14,0,0,0-1.93,97.91q1.41,14.13,3.75,28.14c.5,3,4.37,4.94,7.14,4,3.25-1,4.58-3.92,4.05-7.14q-1.16-7-2.12-14.06c-.16-1.16.1.76-.05-.4-.08-.57-.15-1.13-.22-1.7-.16-1.22-.31-2.43-.46-3.65-.29-2.35-.56-4.71-.81-7.06q-1.5-14-2.24-28.11a512.31,512.31,0,0,1,.16-56.11c.14-2.37.29-4.73.46-7.1.08-1.09.15-2.18.25-3.27,0-.34.06-.68.1-1,.09-1-.06.43-.08.51.06-.22.07-.46.11-.69a17,17,0,0,1,.58-2.34,5.39,5.39,0,0,0,.22-.64s-.58,1.07-.25.63a6.31,6.31,0,0,0,.64-1.13c.19-.48-.34.52-.42.55a3.92,3.92,0,0,0,.43-.46c.63-.72-1.05.72,0,0,.11-.07.36-.13.44-.23-.3.35-1.12.47-.42.24.18-.05.82-.16-.12,0s0,.07.22.06.85,0-.11,0-.22,0,.05.08c1.21.35-.77-.49,0,0a4.6,4.6,0,0,0,.89.54c-.75-.23-.78-.68-.33-.25.17.16.35.32.51.49,0,0,.45.52.48.52s-.66-1-.37-.47.43.7.62,1.06c.39.71-.18-.25-.11-.26a5.47,5.47,0,0,1,.2.61c.17.56.27,1.12.39,1.69.17.81-.06-1.09-.05-.26,0,.22,0,.44.05.66,0,.51,0,1,0,1.53,0,1.11-.1,2.21-.2,3.31-.22,2.25-.49,4.48-.74,6.72L146,208.34l-6.33,57.14-.77,6.95,11.39-1.54a221.71,221.71,0,0,1-6.78-24.67q-1.35-6.25-2.33-12.58c-.16-1-.32-2.11-.47-3.16l-.09-.68c-.12-.86.13,1,0,.18-.07-.61-.15-1.21-.23-1.81q-.39-3.18-.69-6.37a233.82,233.82,0,0,1,.88-51.07c.11-.86-.15,1,0,.18l.12-.91c.09-.6.17-1.2.26-1.81.18-1.2.37-2.41.57-3.61q.58-3.5,1.27-7c1-4.78,2.07-9.53,3.33-14.24a5.8,5.8,0,0,0-11.19-3.08,232.52,232.52,0,0,0-7.73,52.52,235,235,0,0,0,4.38,52.92A224.2,224.2,0,0,0,139.09,274a5.86,5.86,0,0,0,6.37,4.16c3-.41,4.7-2.78,5-5.7l6.6-59.62,6.6-59.62c.5-4.52,1.41-9.21,1.12-13.77-.36-5.57-2.51-10.53-7.27-13.68a12,12,0,0,0-14.76,1.1c-3.42,3.2-4.37,7.94-4.81,12.4-.94,9.61-1.26,19.34-1.48,29s-.15,19.61.2,29.41A524.88,524.88,0,0,0,142.23,257c.36,2.43.75,4.85,1.14,7.27l11.19-3.09c-.67-4-1.27-8-1.83-12.06-.22-1.62.16,1.24,0-.39-.06-.48-.13-1-.19-1.45l-.36-2.9q-.34-2.91-.66-5.82-1.26-11.9-1.83-23.84a411.71,411.71,0,0,1,.52-47.78q.45-6.57,1.11-13.13c.23-2.26.48-4.53.75-6.79q.19-1.69.42-3.39l.18-1.45c0-.32.09-.64.13-1-.1.74-.1.77,0,.1a6.37,6.37,0,0,0-.59-4.47,5.89,5.89,0,0,0-3.46-2.67c-2.73-.62-6.7.84-7.14,4.05Z"/><path class="cls-3" d="M29.66,45c.92-2.68,1.83-5.35,2.87-8,.1-.27.21-.55.33-.83,0,0,.57-1.4.21-.54s.22-.49.24-.54l.36-.81c.59-1.28,1.21-2.54,1.89-3.77s1.34-2.31,2.08-3.41c.32-.47.75-.93,1-1.43-.57,1-.47.58-.2.26s.49-.6.74-.89a33.16,33.16,0,0,1,2.39-2.5c.47-.44,1-.85,1.45-1.27.28-.25.82-.46-.28.2.32-.19.62-.46.93-.67a24.9,24.9,0,0,1,2.93-1.75l.69-.33c1-.49-.35.16-.35.13a14,14,0,0,1,2-.68c.55-.16,1.1-.3,1.66-.41l.74-.14c1.27-.25-1.08.08-.24,0a25.41,25.41,0,0,1,3.49,0c.19,0,1.32.23.32,0s.14,0,.3.06c.48.08,1,.19,1.42.3s1.18.32,1.75.51,2.17,1,.67.21a50.35,50.35,0,0,1,6,3.5c.68.48-1.11-.92-.12-.09.2.16.4.32.59.49.45.37.88.75,1.3,1.14.91.83,1.77,1.7,2.59,2.61.44.48.86,1,1.28,1.47l.49.6c.65.8-.11-.2-.2-.26a6.85,6.85,0,0,1,1.13,1.56c.37.52.72,1.06,1.06,1.6.6.94,1.17,1.91,1.69,2.9.23.44.45.89.67,1.34l.39.85c.55,1.22-.18-.5,0,0a37.76,37.76,0,0,1,2,6.67c0,.17.13,1.37.07.33s0,.17,0,.33c0,.48.08,1,.1,1.45s0,1.2,0,1.8-.4,2.35,0,.57a28.79,28.79,0,0,1-.73,3,6.49,6.49,0,0,0-.24.65c.33-1.27.37-.81.17-.43-.3.58-.59,1.14-.94,1.68-.08.13-.52.62-.5.74,0-.1.92-1.09.24-.33-.39.42-.77.84-1.18,1.23a5.31,5.31,0,0,1-.71.62s1.18-.84.27-.21c-.52.36-1,.71-1.59,1s-1.12.61-1.69.88c-.23.11-.48.2-.7.32,1.17-.64.66-.27.31-.15-1.23.44-2.45.86-3.7,1.21-6.26,1.76-12.69,3-19,4.47L27.72,67l5.64,9.69c1-.81-1.12.58,0,0,.2-.1.41-.24.61-.35,1.06-.59-1.28.32-.1.06.22,0,.44-.13.66-.18s1.31-.28.26-.07.08,0,.28,0,.6,0,.9,0a4.89,4.89,0,0,1,.54,0c.64.06.49,0-.44-.08a6.35,6.35,0,0,0,1.66.32c.63.16,1.25.33,1.86.53s1.11.39,1.66.6,1.29.79.07,0a9.25,9.25,0,0,0,1.06.48c5.94,2.79,11.69,6.06,17.5,9.11,1.12.58,2.25,1.16,3.32,1.82.27.16.53.33.79.51l.31.21c.39.29.4.29,0,0l-.3-.23c.19.15.37.31.55.48a6.92,6.92,0,0,0,.76.77l-.47-.62c.14.19.28.38.4.58a5.33,5.33,0,0,0,.33.63c-.66-.83-.33-.89-.15-.22s-.22.61,0-.36a3.09,3.09,0,0,0,0,.68c0,1.18.36-1.35,0-.21a4,4,0,0,0-.2.64c.39-.85.45-1,.18-.44-.08.16-.16.31-.25.46s-.48.58-.48.73c0-.5.8-1,.12-.22-.2.21-.43.41-.63.62-.72.72.22-.28.33-.24a12.13,12.13,0,0,0-1.52.91l.73-.31c-.25.1-.5.18-.75.26-.43.13-.87.22-1.3.32-1.15.26.14,0,.22,0a4.25,4.25,0,0,1-1.34.07c-.75,0-1.49-.06-2.24-.11-.35,0-1,.07.19,0a6.25,6.25,0,0,1-1.12-.19c-.82-.16-1.63-.35-2.44-.55a79.53,79.53,0,0,1-8.25-2.57q-.86-.31-1.71-.66c-.32-.12-.64-.24-1-.38,1.3.6.41.16.08,0-1.3-.58-2.58-1.2-3.84-1.87a32.79,32.79,0,0,1-6.79-4.34c1.18,1.09-.38-.33-.71-.61-.51-.43-1-.88-1.49-1.34a37.86,37.86,0,0,1-3-3.19,4.75,4.75,0,0,0-.49-.6c1,.93.25.32,0-.06s-.67-1-1-1.44a35.76,35.76,0,0,1-2-3.56c-.14-.29-.28-.58-.41-.88l-.08-.18c-.25-.58-.21-.47.13.32-.3-.23-.56-1.47-.68-1.82a31,31,0,0,1-1-3.92c-.06-.31-.11-.63-.17-.94-.2-1.07.1.34,0,.4.17-.19-.15-1.57-.17-1.9a30.53,30.53,0,0,1,.11-4.17c.1-1.09,0,.38-.05.41a7,7,0,0,0,.2-1.12c.12-.63.28-1.24.45-1.85s.35-1.1.55-1.64l.07-.18c.23-.59.19-.49-.14.3,0-.26.37-.81.5-1.06.35-.69.73-1.37,1.14-2,.32-.51.81-1.66,1.32-1.93-.07,0-.88,1.07-.19.25.26-.3.5-.6.76-.89q.78-.88,1.62-1.71t1.74-1.59L31,46l.62-.49c-.61.46-.74.56-.39.31,1.23-.88,2.46-1.73,3.77-2.5s2.89-1.59,4.38-2.29c.41-.19.81-.38,1.23-.56s1.53-.74.26-.12c.8-.39,1.69-.68,2.52-1,3.23-1.22,6.53-2.26,9.83-3.3l-4.47-10.6L34.29,32l8.52,3.46a13.38,13.38,0,0,1-.44-1.4c-.2-.72.24-.65,0,.42a3.46,3.46,0,0,0,0-.65c0-.43.1-.89,0-1.31.14,1.13-.2,1.12-.06.58.09-.32.15-.64.25-1s.5-1.12,0-.23-.07.14,0-.06c.25-.43.49-.85.75-1.27s.29.11-.31.4c.12-.06.33-.38.44-.49s.32-.3.47-.45c.76-.81-1,.63-.15.1l.69-.43c.22-.14.9-.37,0-.06s.61-.14.87-.22c.54-.16.55.22-.58.06a4.87,4.87,0,0,0,.65-.05h.65c.22,0,.44,0,.65.05L46,29.38a8.29,8.29,0,0,0,1.43.34c.58.16.73.56-.31-.18a5.35,5.35,0,0,0,.59.29c.4.2.76.44,1.13.67.8.48-.34-.21-.39-.31.1.22.53.47.72.66s.35.42.55.6c.51.47-.57-1-.32-.39a5.35,5.35,0,0,0,.71,1.28c-.15-.16-.47-1.43-.2-.35.07.28.16.56.22.85a3.86,3.86,0,0,1,.16.86c.11-1.39-.06-.3,0,.12.06,1-.13,2.1-.08,3.13,0-.09.24-1.49.07-.52l-.12.68c-.11.57-.25,1.13-.41,1.68s-.31,1-.49,1.48-.59.78.14-.26a4,4,0,0,0-.29.63,22.14,22.14,0,0,1-1.53,2.73c-.12.19-.25.39-.39.58s-.83,1-.16.25-.1.12-.2.24L46.3,45a24.49,24.49,0,0,1-2.23,2.21c-.18.15-.36.29-.53.45-.9.77,1-.68.06-.06-.48.32-1,.66-1.44,1s-1,.59-1.52.85c-.25.13-.51.26-.78.38-.93.43-.08-.13.28-.11a8.17,8.17,0,0,0-1.8.62c-.56.16-1.11.29-1.68.41L36,50.8c-.59.11,1.51-.15.17,0a17.6,17.6,0,0,1-1.92.07l2.93,10.81,12.35-7.9,6.07-3.89c1-.61,1.91-1.22,2.89-1.78.46-.26.92-.5,1.38-.74.14-.07.8-.29.11-.07l.55-.18c.48-.15,1-.23,1.45-.36s-.66.09-.67.09a4.23,4.23,0,0,0,.7,0,3.43,3.43,0,0,0,.71,0s-1.27-.25-.68-.09c.23.06.46.09.69.15s.93.37.12,0,.32.29.51.35c-.75-.26-.83-.69-.39-.25s-.23.1-.27-.41c0,.12.2.28.24.4.21.59-.26-.82-.27-.71a3,3,0,0,0,.18.56c.3.87.05-1.15-.07-.54a1.55,1.55,0,0,0,0,.43c.06.85,0-.56.11-.67a4.07,4.07,0,0,0-.28,1c-.08.51.27-.65.3-.68a3.66,3.66,0,0,0-.28.56c-.1.19-.23.36-.33.54-.36.67.16-.26.34-.39a7,7,0,0,0-.77.85c-.15.15-.34.28-.48.44-.34.42.49-.37.54-.39a8.31,8.31,0,0,0-1.11.71c-.13.08-.31.14-.43.23-.44.33,1.32-.4.33-.16L59.55,49c-.72.18.41-.07.4,0a4.21,4.21,0,0,1-.91.06c-.54,0-1.07,0-1.6,0L56.75,49c-1.47-.1.78.16-.06,0-2.22-.42-4.42-1-6.62-1.49a28.48,28.48,0,0,0-13-.5,14.58,14.58,0,0,0-10.47,8.84c-1.81,4.49-.63,9.85,1.76,13.89,2.56,4.34,6.62,7.15,10.37,10.33a30.13,30.13,0,0,1,2.61,2.44,8.15,8.15,0,0,1,1.09,1.26s-.61-.89-.28-.34c.17.3.39.58.57.87.29.47.55,1,.8,1.45.51,1-.15-.19-.11-.26,0,.09.22.65.25.77s.12.52.19.77c.3,1,0-.85,0-.16,0,.49-.19,2.27.08.66A6.31,6.31,0,0,0,44.49,92,5.92,5.92,0,0,0,48,94.65c2.79.63,6.61-.85,7.13-4.05A16,16,0,0,0,54.44,82,24.23,24.23,0,0,0,50,74.75c-2.89-3.28-6.72-5.55-9.79-8.64-.34-.35-.68-.71-1-1.08a3.54,3.54,0,0,1-.52-.61c.2.66.55.79.24.26s-.55-.86-.8-1.31c-.09-.17-.18-.34-.26-.51-.44-.91.08-.27,0,.16a7.33,7.33,0,0,0-.45-1.45,3.25,3.25,0,0,0-.15-.73s.09,1.25.09.63,0-1,0-1.46-.09.62-.1.64a7,7,0,0,0,.26-1c.27-1-.57,1.12.1-.1s-.71.65,0,0a7.69,7.69,0,0,0,.92-.88c-.08.13-1.18.76-.4.36.19-.1.36-.22.55-.32a3.4,3.4,0,0,0,.57-.29c-.68.61-1.06.39-.48.22.42-.13.83-.28,1.26-.38.27-.06,1.6-.21.56-.14l.93-.06a18.68,18.68,0,0,1,2.59.07c1.31.11-1-.2,0,0,.6.11,1.2.22,1.8.35,2.37.52,4.7,1.21,7.09,1.64,5.14.93,10.71,1,15.09-2.27s7.13-8.18,6.07-13.65-6.56-8.86-11.92-9c-6.05-.1-11.15,3.84-16,6.93L31.3,51.62a5.8,5.8,0,0,0,2.93,10.81c12.21.09,23.3-9,26.64-20.56,1.84-6.41,1.36-14.08-3.42-19.11a15.88,15.88,0,0,0-18.59-3.13C32.45,23,29,31.76,31.63,38.56c1.47,3.73,4.84,5.13,8.52,3.46l14.43-6.53C57.2,34.31,58,30.66,57,28.25a5.77,5.77,0,0,0-6.84-3.36c-13.24,4.19-27.28,9.25-35,21.65-7.25,11.64-5,26.95,3,37.6,8.16,10.82,20.75,17,33.66,20.3,7.47,1.88,16.39,2.07,21.74-4.44a13.44,13.44,0,0,0,3.09-11.72c-.88-3.88-3.89-6.81-7.11-8.91s-6.8-3.69-10.2-5.47c-3.57-1.87-7.11-3.84-10.75-5.59a34.21,34.21,0,0,0-11.7-3.59,15.55,15.55,0,0,0-11.71,3.81,5.84,5.84,0,0,0-.91,7,6,6,0,0,0,6.55,2.67l19.8-4.57C56.72,72.25,62.9,71,69,69.39c5.68-1.49,11.62-3.85,15.47-8.5a23,23,0,0,0,5.13-16.37c-.74-11.26-6.9-22.22-15.32-29.59C69.94,11.15,64.83,8,59.17,6.71A27.17,27.17,0,0,0,41.11,8.9c-12.87,6.24-18.29,20.38-22.64,33a5.85,5.85,0,0,0,4.05,7.14,6,6,0,0,0,7.14-4Z"/><path class="cls-4" d="M175.07,104.78c8.68-12.25,9.51-28.87,3.09-42.27l-9.11,7a4.68,4.68,0,0,0,.49.58c-.88-.69-.42-.56-.1-.11s.65.93.95,1.41a26.75,26.75,0,0,1,1.52,2.84c.38.83,0,.35-.06-.16a3.83,3.83,0,0,0,.27.71c.19.53.37,1.08.53,1.62.32,1.1.52,2.22.75,3.34.16.77-.12-1.2-.05-.41,0,.25.05.5.08.75q.07.86.09,1.71a32.39,32.39,0,0,1-.13,3.41c-.08.9-.07-.32.06-.41-.12.09-.13.79-.16.93-.09.5-.2,1-.33,1.48a25.36,25.36,0,0,1-1.13,3.42L183,93.74l14.73-50-11.19-3.09L174.88,87c-1,4,2.8,8.63,7.13,7.13l22.48-7.76a68.72,68.72,0,0,0,9.71-3.93A24.23,24.23,0,0,0,222.69,75l-10-5.86A78.28,78.28,0,0,1,208.11,77c-.4.6.75-.88.06-.07-.26.3-.51.61-.77.9a18.91,18.91,0,0,1-1.68,1.67c-.14.13-1,.84-.33.3s-.26.17-.41.27a21.44,21.44,0,0,1-2.29,1.3l-1,.47.37-.16-.62.24c-.76.3-1.52.57-2.29.84l-5,1.72L183.5,88.1a5.85,5.85,0,0,0-4.15,6.36c.41,3.08,2.78,4.67,5.69,5-1.7-.21-.13,0,.24.06s.78.15,1.17.24c.85.19,1.69.42,2.51.69s1.49.58,2.25.82c-1.44-.45-.28-.1.07.07s.84.41,1.25.63c.77.41,1.51.85,2.24,1.33.33.22.66.44,1,.68l.32.23c.5.38.43.32-.22-.18a13,13,0,0,0,1.81,1.57c.68.65,1.32,1.32,1.93,2a5.85,5.85,0,0,0,8.21,0,6,6,0,0,0,0-8.2A35.89,35.89,0,0,0,185,87.89l1.55,11.39,11.1-3.83a83.79,83.79,0,0,0,11.24-4.31c6.6-3.38,10.46-9.75,13.76-16.1,1.4-2.69.78-6.42-2.08-7.94s-6-.55-7.93,2.08c-.77,1.06.86-.93,0,0-.26.27-.5.55-.77.81s-.55.5-.82.75c-.76.72.73-.49.15-.1a27.4,27.4,0,0,1-3.72,2.21l-.87.41-.53.23c.74-.3.91-.37.5-.21l-2,.77c-1.53.56-3.07,1.08-4.61,1.61L178.93,83l7.14,7.13,11.67-46.32c.74-2.94-1-6.43-4.05-7.14a5.93,5.93,0,0,0-7.14,4l-14.72,50a5.86,5.86,0,0,0,4,7.14c3.37.77,5.9-1,7.13-4.05,4.44-10.86,1.71-23.62-5.75-32.4-1.87-2.2-5.5-2.09-7.62-.46a5.89,5.89,0,0,0-1.49,7.49c.17.35.33.7.49,1.06.57,1.24-.45-1.22,0,.06.27.73.54,1.46.77,2.21a34.62,34.62,0,0,1,1.06,4.36c0,.19.07.39.1.58.07.51.08.51,0,0s-.07-.51,0,0c0,.2,0,.39.06.59.08.71.13,1.43.16,2.14a36.68,36.68,0,0,1-.11,4.69c0,.39-.07.78-.11,1.17-.12,1.18.22-1.25,0,0-.13.7-.25,1.41-.4,2.11A35.51,35.51,0,0,1,169,91.67c-.13.37-.26.74-.4,1.1s-.75,1.18,0,.06c-.41.63-.66,1.43-1,2.11a34.68,34.68,0,0,1-2.45,4c-1.76,2.48-.53,6.56,2.08,7.93a5.93,5.93,0,0,0,7.93-2.08Z"/><path d="M164.76,106.37c4.52-9.88,9.3-20.74,6.38-31.79A22.15,22.15,0,0,0,168.27,68a18.16,18.16,0,0,0-2-2.58c-.85-.91-3.49-2.87-1.24-3.7a8.92,8.92,0,0,1,3.38-.21,16.38,16.38,0,0,1,10.5,4.86A16.09,16.09,0,0,1,182,83.68l1.06.44,4.42-24.55c.71-3.93,1.36-7.88,2.13-11.8.59-3,1.48-6.39,4.32-8l-.85-.35a50.4,50.4,0,0,1-7.74,43.83l1,.58c3.66-7.2,12.89-7.31,19.8-8.42,6.33-1,13.79-4.12,14.69-11.36h-1.16c-.91,7.43-1.93,15.47-6.93,21.41s-12.4,6.82-19.58,7.45l.41,1c3.34-3.16,8.75-2.93,12.36-.34,4,2.9,5.65,8.12,5.59,12.91l.88-.5a40.67,40.67,0,0,0-37.31-2.77,37.23,37.23,0,0,0-4.85,2.53,8.93,8.93,0,0,1-3,1.45c-1,.18-3-.6-2.4-2,.29-.67-.71-1.27-1-.58a2.54,2.54,0,0,0,.82,3.08,3.76,3.76,0,0,0,3.94.33c1.63-.67,3.07-1.79,4.63-2.61a37,37,0,0,1,5.06-2.17,40,40,0,0,1,22-1,37.73,37.73,0,0,1,11.51,4.82.58.58,0,0,0,.87-.5c.07-5.31-1.85-11.06-6.45-14.11-4.05-2.69-9.86-2.71-13.48.72a.59.59,0,0,0,.41,1c7.47-.65,15.28-1.69,20.4-7.79s6.32-14.45,7.27-22.23c.09-.74-1.07-.73-1.16,0-1,8.33-11.11,9.91-17.73,10.78-6.2.81-13.49,2.29-16.6,8.42a.58.58,0,0,0,1,.58,51.48,51.48,0,0,0,7.86-44.71.59.59,0,0,0-.85-.35c-2.63,1.51-3.83,4.33-4.52,7.16-.95,3.91-1.49,8-2.2,11.91l-4.68,26c-.11.6.78,1.1,1.06.45a17.46,17.46,0,0,0-1-15.74,17.26,17.26,0,0,0-12.86-8.09c-1.74-.19-5.28-.54-6.11,1.54a2.32,2.32,0,0,0,.47,2.29c.93,1.24,2.21,2.17,3.15,3.43,3.41,4.54,4.56,10.46,4.19,16-.5,7.78-3.86,15.06-7.06,22-.31.68.69,1.27,1,.59Z"/><path d="M156.63,105.07A28.66,28.66,0,0,1,158.81,87c2.25-4.66,6.12-9.09,5.55-14.59H163.2l1.07,10.4A83.57,83.57,0,0,1,165,92a16,16,0,0,1-2,8.43c-1.64,2.66-5.37,5.14-8.17,2.5-.55-.52-1.37.3-.82.82a5.8,5.8,0,0,0,7.58,0c2.59-2,3.88-5.24,4.33-8.4a42.6,42.6,0,0,0-.25-10.4L164.36,72.4c-.07-.73-1.23-.74-1.16,0,.6,5.86-4.07,10.63-6.16,15.74a29.89,29.89,0,0,0-1.53,17.24c.15.73,1.27.42,1.12-.31Z"/><path d="M83,94.87c5.33,0,9.91,3.58,12.55,8,3,5.05,3.82,11.07,4.61,16.8.1.74,1.22.42,1.12-.31-.85-6.17-1.76-12.73-5.33-18C93.07,97,88.4,93.69,83,93.71a.58.58,0,0,0,0,1.16Z"/><path d="M151.22,120.34a6.33,6.33,0,0,1,1-4.56,26.86,26.86,0,0,0,1.85-3.77,15.67,15.67,0,0,0,.57-8.23c-.14-.73-1.26-.42-1.11.31a14.41,14.41,0,0,1-1.07,8.8c-1.17,2.49-3.1,4.83-2.35,7.76.18.72,1.3.41,1.12-.31Z"/><path d="M151.33,121.08c-.74-3.41,1.95-6.23,4.54-8,3-2,6.27-3.83,9.41-5.71a.58.58,0,0,0-.59-1l-5.52,3.31a55.27,55.27,0,0,0-4.88,3.12c-2.66,2-4.83,5.09-4.08,8.58.16.73,1.28.42,1.12-.31Z"/><path class="cls-3" d="M14.7,60.23c4.66-10.88,9.28-21.77,14-32.64a36.39,36.39,0,0,1,3.19-6.05c.61-.9-.2.32-.23.29s.55-.62.62-.68.34-.35.52-.52c.87-.8-.13.15-.17.09S33.7,20,33.83,20c.8-.49-.31.19-.46.17a3.6,3.6,0,0,0,1-.3,4,4,0,0,0,.65-.14c-.73.46-1.25.09-.4.06.5,0,1,0,1.49,0s.4.34-.54-.09a5.13,5.13,0,0,0,.66.13c.56.12,1.09.31,1.63.47.91.28-.34-.1-.42-.2.15.17.57.27.78.38a15.6,15.6,0,0,1,1.36.8,4.82,4.82,0,0,0,.57.39c-.1,0-1.07-.89-.33-.26.44.38.88.77,1.28,1.19l.68.74c-.58-.64-.08-.09.06.11s.37.57.54.86c.28.48.55,1,.79,1.47a3.45,3.45,0,0,1,.35.75c-.28-.68-.34-.83-.18-.42.07.19.15.38.22.58a32.34,32.34,0,0,1,1,3.61c.12.55.23,1.1.33,1.66s.29,2.61.19,1c.16,2.55.54,5.08.7,7.64.08,1.3,0,2.58,0,3.89,0,.36.14,1,.07-.27a3.8,3.8,0,0,1-.15.83c-.06.28-.12.55-.2.82s-.12.41-.19.61c-.15.4-.08.27.19-.39a6.46,6.46,0,0,0-.69,1.2c-.08-.34.86-1,.13-.23-.08.09-.64.53-.63.61,0-.12,1.21-.77.34-.28l-.59.35c-.79.49.31-.16.46-.16a5.9,5.9,0,0,0-1,.27c.65-.51,1.24,0,.56-.11-1-.08.53.1.56.12s-1.3-.54-.27,0c.83.44.13.06,0-.07-.6-.44,1,1.07.29.23a4.09,4.09,0,0,0-.44-.47c.72.34.63,1,.34.39A5.28,5.28,0,0,0,44.1,47c.57.58.4,1.06.22.45-.06-.22-.13-.43-.19-.65S44,46.24,44,46c-.17-.74.1,1.29.07.53,0-.51-.05-1,0-1.53,0-.23,0-.46,0-.7,0-1.24-.27,1.38,0,.16a24.11,24.11,0,0,1,.8-2.88c.24-.76-.67,1.33-.11.25.1-.21.2-.42.31-.63.27-.52.57-1,.89-1.51a4.38,4.38,0,0,0,.4-.57c-.53.66-.65.82-.37.48l.33-.4c.38-.43.79-.84,1.21-1.23a3.62,3.62,0,0,0,.53-.45c-.69.51-.85.64-.5.38l.42-.29c.48-.32,1-.57,1.48-.85.83-.47-.32.18-.45.17a3.91,3.91,0,0,0,1-.33l.66-.18.68-.13-.85.11a16.67,16.67,0,0,0,1.73,0c1,0-.42,0-.51-.07.18.15.75.16,1,.23s.55.18.83.26c.67.19-1.16-.6-.26-.11a14,14,0,0,1,1.51.86c.16.1,1.12.61.26.16s0,0,.21.23.41.4.61.61,1,1,.32.34-.11-.12,0,.11.35.58.51.88.43.92.06.07,0,.2.1.41.1.44.16.65c.16.56-.1-1.53,0-.21,0,.22,0,.45,0,.67,0,1.45.24-1.16,0,0L68.38,43,64.84,16.08,54,19c1.49,2.21,3,4.43,4.25,6.78.31.57.6,1.15.88,1.73a4,4,0,0,1,.36.78c-.25-1.12-.22-.56-.09-.2a36.73,36.73,0,0,1,1.19,4.09c.1.42.07,1.19,0-.45,0,.23.05.45.07.68,0,.51.05,1,.05,1.53s-.09,1-.1,1.53c0-1.45.15-1,.06-.52s-.13.66-.21,1A14.23,14.23,0,0,1,60,37.41c-.25.69-.52.46.14-.29a3,3,0,0,0-.28.6c-.21.39-.43.77-.67,1.14-.09.14-.7,1.07-.12.21s-.13.1-.3.27-.31.3-.47.46c-.58.57-.52,0,.29-.19a5,5,0,0,0-1.13.69c-.78.49.26-.06.31-.1a3,3,0,0,1-1,.33c-.34.1-.68.16-1,.24-1.16.29,1.17,0-.13,0-2.61.09-5.19-.08-7.8-.06a21.24,21.24,0,0,0-15.28,6.11c-4.17,4.19-6.82,10.37-6.2,16.34l9.9-4.1-8.12-9.91c-1.55-1.89-5-2.19-7-.9s-3.6,4.11-2.67,6.55l5.38,14c1.69,4.4,3,9.46,6.46,12.9A11.93,11.93,0,0,0,45.5,83c4.5-3.11,6.4-7.93,7.81-13l-10.6,1.38,7,9.78c1.45,2,4,3.51,6.55,2.67a6.12,6.12,0,0,0,4.25-5.59,22.61,22.61,0,0,0,.32-2.59s-.17,1.13-.06.47l.09-.65c.09-.57.18-1.15.28-1.72a49.7,49.7,0,0,1,1.22-5.27c.24-.83.52-1.65.83-2.45,0,0,.22-.61.23-.6s-.46,1-.16.39c.22-.45.42-.91.66-1.35a20,20,0,0,1,1.29-2.19c.12-.18.86-1.17.31-.48s.33-.39.5-.58a21.53,21.53,0,0,1,1.57-1.6,6,6,0,0,0,.85-.73s-1,.68-.43.34c.21-.14.4-.29.61-.42a19.42,19.42,0,0,1,2.07-1.19c1-.49-1,.35,0,0,.41-.13.81-.27,1.22-.38s.72-.15,1.07-.25c.6-.16-.65.07-.64.07a3.29,3.29,0,0,0,.54,0c.37,0,.74,0,1.1,0l.53,0c.8,0-.29,0-.5-.09.68.27,1.48.38,2.19.6s-.58-.24-.57-.24a3.45,3.45,0,0,0,.47.24,11.43,11.43,0,0,1,1.07.62l.43.3c.6.37-.84-.76-.34-.26.28.28.6.54.88.83s1,1.2.44.47.17.32.3.56a4.82,4.82,0,0,0,.31.6c-.14-.16-.43-1.22-.19-.46.11.38.19.77.32,1.14.19.55-.08-.71-.08-.72,0,.22,0,.46,0,.68a8.92,8.92,0,0,1-.08,1.37h11.6l-.18-21.1a5.8,5.8,0,1,0-11.6,0l.18,21.1a5.87,5.87,0,0,0,5.8,5.8c3.46-.15,5.42-2.56,5.8-5.8,1.15-9.59-8.81-17.9-17.93-17.23a22.3,22.3,0,0,0-13,5.63,28.74,28.74,0,0,0-7.73,11.69c-1.93,4.94-2.57,10.27-3.16,15.5l10.8-2.93-7-9.78a5.91,5.91,0,0,0-5.78-2.77,5.81,5.81,0,0,0-4.82,4.16c-.24.86-.47,1.72-.75,2.57-.14.45-.31.9-.47,1.36-.37,1.11.56-1,0,.12A16.72,16.72,0,0,0,39.6,73c.51-.64.57-.74.17-.28L39.5,73c-1,1,0,.1,0,0-.21.14-.43.28-.65.4-.45.22-.44.23,0,0s.46-.19,0,0a4.61,4.61,0,0,1-.53.15c-.45.1-.24.08.64-.06a5.93,5.93,0,0,1-.73,0l.82.13a4.21,4.21,0,0,1-.72-.18c.79.37,1,.45.59.25a3.75,3.75,0,0,1-.44-.24c-.39-.27-.38-.25,0,.06s.43.33.08,0c-.15-.17-.48-.65-.7-.75.55.72.65.83.3.32-.1-.15-.19-.3-.28-.45a11.34,11.34,0,0,0-1-2.09l.3.73c-.09-.22-.18-.44-.26-.66-.17-.42-.33-.85-.49-1.27l-2.24-5.82-4.56-11.9-9.69,5.65,8.11,9.9c1.46,1.77,4.4,2,6.34,1.2s3.8-3,3.56-5.3c-.1-1,.11-2.12,0-3.14.12,1.24-.14,1,0,.33q.09-.42.21-.84c.15-.57.39-1.1.55-1.66-.45,1.57,0,.14.24-.36s.53-.91.82-1.35a2.78,2.78,0,0,0,.41-.57c-.16.69-.69.83-.25.35s.86-.95,1.34-1.39c.12-.11.64-.44.66-.57,0,.07-1.17.83-.34.26.43-.29.87-.58,1.32-.84s1.92-.71.34-.25c.56-.16,1.1-.4,1.66-.54l.86-.19c.75-.2-1.48.09-.09,0,.58,0,1.15-.09,1.73-.1,1.45,0,2.91.05,4.36.1,5.91.19,12-.92,16-5.74a20.31,20.31,0,0,0,4.4-15.28c-.87-6.85-4.3-12.63-8.09-18.26-1.4-2.07-4-3.49-6.55-2.66-2.21.71-4.6,3-4.26,5.59L56.78,43a6.29,6.29,0,0,0,1.7,4.1,6,6,0,0,0,3.33,1.6c2.66.36,5.82-1.31,6.37-4.16A16.5,16.5,0,0,0,60,27.12,17,17,0,0,0,41.5,28a22,22,0,0,0-9.09,16.66C32,51.7,36.47,59.39,44.29,59.27a12.77,12.77,0,0,0,9.43-4.73,17.68,17.68,0,0,0,3.71-11,65.67,65.67,0,0,0-.61-9.4A48.82,48.82,0,0,0,55,24.36c-2-6.18-5.94-11.76-12-14.44a17.61,17.61,0,0,0-9.17-1.68,15.71,15.71,0,0,0-9.84,4.84,29.1,29.1,0,0,0-5.26,8.66c-1.55,3.59-3.08,7.2-4.63,10.8L4.69,54.38a6.37,6.37,0,0,0-.59,4.47,5.89,5.89,0,0,0,2.67,3.46c2.49,1.32,6.66.9,7.93-2.08Z"/><path d="M95.94,118.38c-6.51,6-10.68,14.11-13.62,22.35-3.73,10.44-5.66,21.48-6.85,32.47A302,302,0,0,0,74,211.36c.24,13.17,1.11,26.34,2.42,39.45q.93,9.46,2.18,18.91c.82,6.17,1.59,12.39,2.79,18.51,1.34,6.84,3.86,14.24,10.25,17.93a11.44,11.44,0,0,0,8.63,1.41,11.73,11.73,0,0,0,6.34-4.64c3.64-5,4.52-11.66,5.26-17.65q1.66-13.35,2.85-26.73,2.35-26.69,2.85-53.47t-.93-53.8c-.37-7.07-.71-14.55-4-21a28.3,28.3,0,0,0-6.27-7.88c-2-1.82-4.49-3.74-7.29-4-2.58-.27-4.46,1.29-5.63,3.47-.35.65.65,1.24,1,.58,3.69-6.91,11.15.45,14.26,4.11,4.74,5.6,5.92,12.91,6.44,20,1.23,16.73,1.44,33.61,1.31,50.38q-.2,25.66-2.11,51.29-.95,12.66-2.32,25.3-.69,6.38-1.49,12.73a57.48,57.48,0,0,1-1.82,9.3c-1.65,5.5-5.32,11.77-12,11.16-7.58-.71-11.71-8.49-13.44-15-1.62-6.06-2.3-12.42-3.15-18.62q-1.25-9-2.21-18c-1.33-12.52-2.28-25.09-2.7-37.68A334.59,334.59,0,0,1,76,180.45a168.57,168.57,0,0,1,5.37-32.8c2.42-8.6,5.84-17.26,11.51-24.26a37.71,37.71,0,0,1,3.91-4.18c.55-.51-.27-1.33-.82-.83Z"/><path d="M148.6,122.16c-5.47,1.08-8.8,6.55-10.88,11.25-3.54,8-5.12,16.79-6.26,25.39a260,260,0,0,0-2,34.84c.05,13.05.8,26.1,2.15,39.08a350,350,0,0,0,5.94,37.94c1.24,5.71,2.66,11.39,4.32,17q1.16,3.9,2.49,7.73c1,2.92,2.24,6.18,4.77,8.14a5.15,5.15,0,0,0,7.06-.56c2-2.19,2.71-5.45,3.08-8.31.6-4.67.83-9.42,1.2-14.12q.57-7.41,1.07-14.84,2-29.82,2.64-59.7t0-59.78c-.1-4.61,0-9.31-.73-13.88-.61-3.78-2.05-7.62-5-10.2a7.87,7.87,0,0,0-7.36-2,19.77,19.77,0,0,0-7.28,4c-1.65,1.36-3.55,3.32-3.51,5.62,0,.74,1.18.75,1.16,0,0-2.5,2.76-4.62,4.6-5.88s4.63-2.91,7.11-2.86c3.55.09,6.32,3.48,7.67,6.43,1.9,4.14,1.93,8.91,2,13.37q.75,28.4.31,56.8t-2.11,57q-.83,14.22-2,28.44a127.84,127.84,0,0,1-1.21,13c-.49,2.65-1.5,6.61-4.51,7.44-3.67,1-6-3.42-7.12-6.18-1-2.44-1.77-5-2.56-7.51-1.63-5.27-3-10.61-4.28-16a334.74,334.74,0,0,1-6.12-36.13q-2.17-18.59-2.6-37.32a293.79,293.79,0,0,1,1.07-34.47c.87-9,2.18-18.19,5-26.85,1.71-5.22,4.2-11.64,9.19-14.6a9.05,9.05,0,0,1,2.89-1.1c.73-.15.42-1.26-.31-1.12Z"/><path d="M98.91,119.94a20.93,20.93,0,0,0-20.67-22.6.58.58,0,0,0,0,1.16,19.77,19.77,0,0,1,19.51,21.44c-.06.74,1.1.74,1.16,0Z"/><path d="M94.58,308.17a7.17,7.17,0,0,0-.7,2.94,3.26,3.26,0,0,0,1,2.3c1.49,1.3,3.62.32,4.43-1.26A8.8,8.8,0,0,0,100,309a.59.59,0,0,0-.58-.58.59.59,0,0,0-.58.58c-.14,1.34-.32,3-1.63,3.68a1.4,1.4,0,0,1-1.51,0,2,2,0,0,1-.7-1.49,6.37,6.37,0,0,1,.66-2.66.58.58,0,0,0-.4-.71.59.59,0,0,0-.72.4Z"/><path d="M149.66,305.47a4.1,4.1,0,0,0,1.4,5.11,3.69,3.69,0,0,0,5.15-1.25,3.79,3.79,0,0,0,.48-3.25c-.24-.7-1.36-.4-1.12.31a2.89,2.89,0,0,1-1.71,3.47,2.74,2.74,0,0,1-3.19-3.8c.34-.66-.66-1.25-1-.59Z"/><path d="M96,155.63C86.44,170,82.69,187.31,82.31,204.34c-.44,19.32,3,38.59,6.23,57.57q1.2,7.14,2.49,14.27c.37,2.05.5,4.41,1.33,6.33a2.71,2.71,0,0,0,3,1.82c1.69-.35,2.56-1.91,2.92-3.46.54-2.31.77-4.73,1.14-7.08l2.27-14.42c2.91-18.54,6.54-37.16,7.42-55.94a120.43,120.43,0,0,0-1.51-27,60.73,60.73,0,0,0-3.37-12.67c-1.37-3.26-3.73-6.3-7.37-7.06a6.78,6.78,0,0,0-4.6.6c-.67.34-.08,1.34.58,1,3.82-2,7.76,1,9.56,4.3,2,3.58,2.82,7.9,3.64,11.86a112.63,112.63,0,0,1,2,25.72c-.47,17.57-3.74,35-6.46,52.3q-2.1,13.32-4.19,26.65a7.38,7.38,0,0,1-.91,3.09c-.86,1.24-2.44,1.35-3.1-.15-.79-1.78-.89-4-1.24-5.93q-1.2-6.64-2.33-13.31c-3-17.84-6.27-35.89-6.42-54C83.29,192.43,86,175.65,94,161.2c.94-1.71,2-3.37,3-5,.41-.62-.59-1.2-1-.58Z"/><path d="M97.1,171.72,95.89,178c-.32,1.65-1,3.65.23,5.1a2.23,2.23,0,0,0,3.65-.36c1-1.46.55-3.66.29-5.28a21.79,21.79,0,0,0-2-6.13c-.33-.66-1.33-.08-1,.59a20.36,20.36,0,0,1,1.83,5.64,17.22,17.22,0,0,1,.27,2.78c0,.84-.13,2-1.06,2.36s-1.38-.54-1.49-1.23a8.73,8.73,0,0,1,.37-3L98.22,172c.14-.73-1-1-1.12-.31Z"/><path d="M93.83,191.62a1.94,1.94,0,0,1,2.59-1.51,1.88,1.88,0,0,1,.92,2.73c-.77,1.31-2.38,1-3.62.72l-5-1.05c-.73-.15-1,1-.31,1.12l5.12,1.06c1.43.3,3,.54,4.21-.49a3.13,3.13,0,0,0,.9-3.37,3.07,3.07,0,0,0-5.9.48c-.14.73,1,1,1.12.31Z"/><path d="M89.49,205.46a6.79,6.79,0,0,1,2.36-1.28,1.86,1.86,0,0,1,1.92.51,1,1,0,0,1-.14,1.42,2.6,2.6,0,0,1-1.94,0,25.8,25.8,0,0,1-3.2-1.12.58.58,0,0,0-.71.41.58.58,0,0,0,.4.71,23.94,23.94,0,0,0,3.4,1.17,3.36,3.36,0,0,0,2.76-.25,2.09,2.09,0,0,0,.59-2.64A2.7,2.7,0,0,0,92.35,203a6.33,6.33,0,0,0-3.45,1.5.6.6,0,0,0-.21.79.58.58,0,0,0,.8.21Z"/><path d="M94.24,259.41l-1.12-5.75c-.18-.95-.37-1.89-.55-2.83-.13-.65-.5-2.06.36-2.41s1.39.89,1.57,1.5a10.4,10.4,0,0,1,.44,2.54,11.57,11.57,0,0,1-.93,5.26c-.3.68.7,1.27,1,.58a13.07,13.07,0,0,0,1.11-4.93,9.47,9.47,0,0,0-1-5c-.76-1.24-2.55-1.73-3.47-.37a3.1,3.1,0,0,0-.35,2.25c.13.93.35,1.84.52,2.76l1.3,6.66c.15.73,1.27.42,1.12-.31Z"/><path d="M91.61,235.18l2.54-3c.68-.81,1.62-1.73,1.62-2.88a1.68,1.68,0,0,0-2.18-1.54c-1.15.28-1.72,1.45-2.26,2.39l-2.23,3.81a.58.58,0,0,0,1,.58l1.64-2.8.84-1.43a4.69,4.69,0,0,1,.76-1.1,1.08,1.08,0,0,1,.86-.35.44.44,0,0,1,.41.48,2,2,0,0,1-.48,1c-.28.4-.61.76-.92,1.13l-2.42,2.88a.6.6,0,0,0,0,.82.59.59,0,0,0,.82,0Z"/><path d="M88.32,219.71a10.35,10.35,0,0,0,5,.24,4.08,4.08,0,0,0,3-2.69,3,3,0,0,0-1.21-3.38,3.38,3.38,0,0,0-3.74.53c-1.33,1.07-1.74,2.87-2.08,4.46-.15.73,1,1,1.12.31a8.49,8.49,0,0,1,1.23-3.4,2.55,2.55,0,0,1,2.51-1.05,1.71,1.71,0,0,1,1.1,2,2.82,2.82,0,0,1-2.08,2,8.78,8.78,0,0,1-4.49-.21c-.73-.16-1,1-.31,1.12Z"/><path d="M101.45,211.46a6,6,0,0,1-2.2-3.23c-.3-1.09-.46-2.8.33-3.73.41-.49.77-.14.93.33a11.79,11.79,0,0,1,.36,2.43l.66,5.48a.6.6,0,0,0,.58.58.58.58,0,0,0,.58-.58l-.65-5.39c-.09-.8-.15-1.62-.31-2.42a2.46,2.46,0,0,0-.9-1.59c-1.23-.83-2.4.43-2.73,1.56a6.73,6.73,0,0,0,.13,3.95,7.22,7.22,0,0,0,2.63,3.61c.61.44,1.19-.57.59-1Z"/><path d="M54,69.58a83.31,83.31,0,0,1,34.71,3.58.58.58,0,0,0,.71-.4L92.28,63c.91-3.09,2-6.17,2.64-9.32a14.85,14.85,0,0,0-.11-8.15c-.86-2.37-2.67-4.06-4.41-5.79a14.63,14.63,0,0,1-2.5-3.05,14.68,14.68,0,0,1-1.44-4.37,25.78,25.78,0,0,0-2.84-7.93c-2.88-4.9-7.09-9.22-11-13.28S64.38,3.44,59.12,1.5a22.81,22.81,0,0,0-16.37,0,29.18,29.18,0,0,0-7.09,4.53c-2.62,2.12-5.2,4.29-7.8,6.44a37.91,37.91,0,0,0-6.17,6,32.66,32.66,0,0,0-4,7.06C13.27,36.1,12.05,51,.29,56.26a.57.57,0,0,0-.21.79c6.36,9.37,12.66,18.79,19.11,28.1,2.81,4.07,5.86,8.07,9.87,11A22.83,22.83,0,0,0,35,99.41a22.35,22.35,0,0,0,6.84,1.1,15.5,15.5,0,0,1,4.07.51,11,11,0,0,1,3.47,2A17.23,17.23,0,0,0,55,106.43c4.38,1.25,9.3,0,13.62-1s9-2.58,12-6.28a10.4,10.4,0,0,0,1.13-11.27c-2.37-4.89-7.31-7.6-11.85-10.12L53.2,68.55c-.66-.36-1.24.64-.59,1l13.69,7.6c4.11,2.28,8.67,4.36,12,7.81S83,93.24,80.44,97.42c-2.43,4-6.93,5.73-11.24,6.75s-9.46,2.4-13.86,1.14c-2.23-.63-3.87-2.13-5.67-3.5a11,11,0,0,0-5.61-2.32c-2.36-.27-4.71-.09-7-.67A20.22,20.22,0,0,1,30.83,96c-4.09-2.7-7.2-6.58-10-10.54-6.73-9.56-13.17-19.35-19.75-29l-.21.79c9.36-4.21,12.49-14.92,15.32-23.89,1.66-5.27,3.51-10.71,7.13-15a48.54,48.54,0,0,1,6.46-6c2.46-2,4.88-4.1,7.37-6.07A23.61,23.61,0,0,1,45,2a21.1,21.1,0,0,1,8.48-.65C59.29,2,64.34,5,68.63,8.86A98.88,98.88,0,0,1,79.84,21a26.7,26.7,0,0,1,4.48,7.57c.9,2.54,1,5.32,2.12,7.8s3.41,4.28,5.25,6.33c2.41,2.67,2.92,5.92,2.35,9.4a79.19,79.19,0,0,1-2.61,9.66L88.26,72.45,89,72a84.13,84.13,0,0,0-35-3.62c-.73.07-.74,1.24,0,1.16Z"/><path d="M53.84,69.87c7.57-9.65,15-19.45,22.94-28.8.48-.57-.33-1.39-.82-.82C68,49.6,60.59,59.4,53,69.05c-.46.58.36,1.41.82.82Z"/><path d="M65.62,54A59.94,59.94,0,0,1,65,27.83c.15-.73-1-1-1.12-.31a61.38,61.38,0,0,0,.63,26.77A.58.58,0,0,0,65.62,54Z"/><path d="M52.67,68.5a150.11,150.11,0,0,0-35.21-2.76c-.74,0-.74,1.19,0,1.16a149.11,149.11,0,0,1,34.9,2.72c.73.15,1-1,.31-1.12Z"/><path d="M61.41,78.26a25.27,25.27,0,0,1-1.21,13c-.25.71.87,1,1.12.31A26.55,26.55,0,0,0,62.53,78c-.12-.73-1.24-.42-1.12.31Z"/><path d="M53.23,73.59c-1.25,3-5.09,3.24-7.86,3.34s-5.82.35-7.88,2.47c-.52.54.3,1.36.82.82,2.44-2.51,6.27-1.93,9.43-2.27,2.72-.29,5.49-1.37,6.61-4.06.29-.68-.84-1-1.12-.3Z"/><path d="M102.79,119.79c1.24-11.41,5.38-24.52-3.06-34.24-3.42-4-8-6.94-12.58-9.4a69.26,69.26,0,0,0-15.92-6.28c-5.26-1.34-11-2.16-16.34-.84a.58.58,0,0,0,.3,1.12c4.7-1.16,9.72-.55,14.37.51A66.59,66.59,0,0,1,85,76.32a51,51,0,0,1,12.41,8.44,21.29,21.29,0,0,1,6.42,15.59c.08,6.53-1.47,13-2.17,19.44-.08.74,1.08.73,1.16,0Z"/><polygon points="21.63 158.13 58.29 158.13 58.29 151.54 21.63 151.54 21.63 120.58 62.65 120.58 62.65 113.98 16.26 113.98 16.26 198.04 21.63 198.04 21.63 158.13"/><path d="M230.52,155.56c0-25.48-11.07-41.58-32-41.58h-23.7V198h23.7C219.45,198,230.52,180.6,230.52,155.56Zm-50.3,35.88V120.58h16.87c17.89,0,27.84,10.84,27.84,35,0,23.7-10,35.88-27.84,35.88Z"/><path d="M204.23,225.6H177v84h5.48V272h21.79c12.75,0,21.58-9.62,21.58-23.37S217.09,225.6,204.23,225.6Zm0,39.79H182.44v-33.2h21.79c9.84,0,16,6.26,16,16.43S213.85,265.39,204.23,265.39Z"/><path d="M7,267.31c0-23.38,13.49-41.63,31.51-41.63,12.35,0,22.34,8.09,27.18,21.75l-5.35.61c-4-9.81-12.15-16.09-22-16.09-15,0-25.74,15.22-25.74,34.95,0,19.53,10.4,37.16,24.92,37.16,10.91,0,19.56-7.79,23.58-20.24L66,285.14c-4.74,15.89-14.83,25.1-28.42,25.1C19.81,310.24,7,290.28,7,267.31Z"/></g></g></svg>