<svg xmlns="http://www.w3.org/2000/svg" viewBox="0 0 235.62 251.95"><defs><style>.cls-1{font-size:30.16px;font-family:Compagnon-Bold, Compagnon;font-weight:700;}.cls-2{fill:#992b4d;}</style></defs><g id="Ebene_2" data-name="Ebene 2"><g id="Ebene_1-2" data-name="Ebene 1"><text class="cls-1" transform="translate(0 242.52)">Speisekammer</text><path class="cls-2" d="M80.87,14.83A260.68,260.68,0,0,0,69.53,79.92a264.4,264.4,0,0,0,5.27,65.87,251.44,251.44,0,0,0,10,35.09c1,2.85,4,5.07,7.13,4.05,2.8-.9,5.16-4.08,4-7.13a253.28,253.28,0,0,1-9.06-30.91q-1.76-7.8-3-15.71c-.21-1.34-.41-2.67-.61-4-.08-.6-.18-1.19-.25-1.79.16,1.34.07.49,0,.2s-.11-.89-.17-1.34c-.34-2.68-.63-5.37-.89-8.07a260.46,260.46,0,0,1-1-32q.24-8.11,1-16.2c.26-2.69.55-5.38.89-8.06a13.27,13.27,0,0,1,.23-1.79c-.33,1.19-.08.55,0,.2l.12-.89c.2-1.42.42-2.83.64-4.24a253,253,0,0,1,8.24-35.31,5.85,5.85,0,0,0-4-7.13,5.92,5.92,0,0,0-7.13,4.05Z"/><path class="cls-2" d="M89.65,17.7q4.91,16.63,8.22,33.68,1.66,8.64,2.92,17.34l.27,1.88s.22,1.58.09.64.08.62.08.65c.19,1.41.36,2.82.53,4.24q.52,4.37.93,8.74c1.09,11.51,1.63,23.08,1.62,34.64q0,8.67-.44,17.34c-.14,2.85-.31,5.69-.52,8.54-.1,1.35-.21,2.71-.33,4.07l-.21,2c0,.38-.09.75-.13,1.13-.13,1.14.11-.7,0,0a60.9,60.9,0,0,1-2,9.06c-.22.72-.46,1.44-.72,2.14-.13.36-.28.71-.41,1.06-.29.78.52-1.12.06-.14-.57,1.2-1.15,2.38-1.83,3.52-.36.6-.73,1.18-1.13,1.75-.14.21-.29.41-.44.62-.65.92.79-.92,0,0a34.87,34.87,0,0,1-2.56,2.74,14.48,14.48,0,0,1-1.41,1.21s1-.73.29-.23c-.31.21-.61.43-.92.63a19.44,19.44,0,0,1-1.77,1l-.66.33c-1.34.64.93-.35-.16.08l7.34,5.59q-3.33-29.06-4-58.33T94,65.31q1.2-16.43,3.25-32.77H85.6a555.12,555.12,0,0,1,4.6,92.2q-.44,13-1.48,26c-.24,3,2.84,5.93,5.8,5.8a5.94,5.94,0,0,0,5.8-5.8,554.64,554.64,0,0,0-.27-92.31q-1.12-13-2.85-25.9a6.46,6.46,0,0,0-1.7-4.1,6,6,0,0,0-4.1-1.7,5.86,5.86,0,0,0-4.1,1.7,6.79,6.79,0,0,0-1.7,4.1Q82,61.57,81,90.83c-.62,19.48-.33,39,.87,58.45q1,16.44,2.9,32.8a6,6,0,0,0,2.28,4.55,5.48,5.48,0,0,0,5.06,1c11-4.27,17.73-14.3,20.5-25.47a104.67,104.67,0,0,0,2.39-18q.63-8.89.8-17.8a371.56,371.56,0,0,0-5.74-72.49,365.11,365.11,0,0,0-9.25-39.3c-.86-2.9-4.12-5-7.14-4a5.91,5.91,0,0,0-4,7.14Z"/><path class="cls-2" d="M134.44,27.1A418.14,418.14,0,0,0,132.51,125q1.41,14.11,3.75,28.13c.5,3,4.37,5,7.14,4.05,3.25-1.05,4.58-3.91,4-7.13q-1.15-7-2.12-14.06c-.16-1.16.1.76-.05-.4-.07-.57-.15-1.14-.22-1.71-.16-1.21-.31-2.43-.46-3.64-.29-2.36-.56-4.71-.81-7.07q-1.5-14-2.24-28.1A512.5,512.5,0,0,1,141.71,39c.14-2.36.29-4.73.46-7.09.08-1.09.15-2.18.25-3.27,0-.34.06-.68.1-1,.09-1-.06.42-.08.51.06-.23.07-.46.11-.69a17.52,17.52,0,0,1,.58-2.35,5.25,5.25,0,0,0,.22-.63s-.58,1.06-.25.62a5.9,5.9,0,0,0,.64-1.12c.19-.48-.34.51-.42.54a3.26,3.26,0,0,0,.43-.46c.63-.72-1.05.73,0,.05.11-.07.36-.13.44-.23-.3.36-1.12.47-.42.25.18-.06.82-.16-.12,0s0,.07.22.06.85.05-.11,0-.22,0,0,.07c1.21.36-.77-.49,0,0a5.5,5.5,0,0,0,.9.54c-.76-.23-.79-.68-.34-.26.17.17.35.32.51.49,0,0,.45.53.48.53s-.66-1-.37-.47c.2.35.43.69.62,1.05.39.72-.18-.24-.11-.26a6.48,6.48,0,0,1,.2.62c.17.56.27,1.12.39,1.68.17.81-.06-1.08-.05-.25,0,.22,0,.44.05.65,0,.51,0,1,0,1.54,0,1.1-.09,2.21-.2,3.31-.21,2.24-.49,4.48-.73,6.72l-6.33,57.13-6.33,57.14-.77,7,11.39-1.55a221.55,221.55,0,0,1-6.78-24.66q-1.35-6.26-2.33-12.58c-.16-1.06-.32-2.11-.46-3.17,0-.23-.07-.45-.1-.68-.12-.85.13,1,0,.18-.07-.6-.15-1.2-.23-1.81q-.39-3.18-.69-6.36a233.91,233.91,0,0,1,.88-51.08c.11-.86-.14,1,0,.18l.12-.9c.09-.6.17-1.21.26-1.81.18-1.21.37-2.41.57-3.61q.59-3.49,1.27-7,1.44-7.17,3.33-14.24a5.8,5.8,0,0,0-11.19-3.09,232.66,232.66,0,0,0-3.35,105.44A223.89,223.89,0,0,0,132,162.83a5.85,5.85,0,0,0,6.37,4.15c3.05-.41,4.7-2.78,5-5.69l6.6-59.62,6.6-59.62c.51-4.52,1.41-9.22,1.12-13.78-.36-5.56-2.51-10.53-7.27-13.67a12,12,0,0,0-14.76,1.09c-3.42,3.2-4.37,8-4.81,12.4-.93,9.62-1.26,19.34-1.47,29q-.33,14.72.19,29.42a524.88,524.88,0,0,0,5.54,59.37c.36,2.42.75,4.84,1.14,7.26l11.19-3.08c-.67-4-1.27-8-1.83-12.06-.22-1.63.16,1.24-.05-.39-.06-.49-.13-1-.19-1.45l-.36-2.91q-.35-2.91-.66-5.82-1.26-11.88-1.83-23.83a411.88,411.88,0,0,1,.52-47.79q.45-6.57,1.12-13.12.33-3.4.74-6.79c.14-1.13.27-2.26.42-3.39l.18-1.45c.05-.33.09-.65.13-1-.1.74-.1.77,0,.09a6.42,6.42,0,0,0-.58-4.47,5.93,5.93,0,0,0-3.47-2.66c-2.73-.62-6.7.83-7.14,4.05Z"/><path d="M88.33.16c-6.51,6-10.68,14.11-13.62,22.34C71,32.94,69.06,44,67.87,55a301.86,301.86,0,0,0-1.45,38.15c.25,13.18,1.12,26.34,2.42,39.45Q69.79,142,71,151.49c.81,6.18,1.58,12.4,2.78,18.51,1.34,6.84,3.86,14.25,10.25,17.94a11.43,11.43,0,0,0,8.63,1.4A11.75,11.75,0,0,0,99,184.7c3.63-5,4.51-11.66,5.26-17.65q1.65-13.34,2.84-26.73,2.37-26.67,2.85-53.47t-.92-53.8c-.37-7.06-.72-14.55-4-21a27.8,27.8,0,0,0-6.27-7.88c-2-1.83-4.49-3.75-7.29-4C89-.12,87.08,1.44,85.92,3.62c-.35.66.65,1.24,1,.58,3.7-6.91,11.16.45,14.26,4.11,4.74,5.6,5.92,12.91,6.45,20,1.23,16.74,1.43,33.61,1.31,50.38q-.19,25.68-2.11,51.29-1,12.67-2.32,25.3c-.47,4.25-1,8.5-1.5,12.74a56.51,56.51,0,0,1-1.82,9.29c-1.65,5.5-5.31,11.78-12,11.16-7.58-.71-11.7-8.49-13.44-15-1.62-6.05-2.3-12.41-3.15-18.62q-1.24-9-2.2-18c-1.34-12.52-2.29-25.09-2.7-37.67a334.54,334.54,0,0,1,.62-36.93,169.43,169.43,0,0,1,5.37-32.81c2.42-8.59,5.84-17.25,11.51-24.26A38.68,38.68,0,0,1,89.15,1c.55-.51-.27-1.33-.82-.82Z"/><path d="M141,3.93c-5.47,1.09-8.79,6.56-10.88,11.26-3.54,8-5.12,16.79-6.26,25.38a258.54,258.54,0,0,0-1.95,34.85A389.27,389.27,0,0,0,124,114.49a349.6,349.6,0,0,0,6,37.94c1.24,5.72,2.65,11.4,4.32,17,.77,2.59,1.59,5.17,2.48,7.73,1,2.91,2.24,6.18,4.77,8.13a5.15,5.15,0,0,0,7.07-.56c2-2.19,2.71-5.44,3.07-8.31.6-4.67.84-9.42,1.2-14.12q.58-7.41,1.07-14.83,2-29.82,2.64-59.71t0-59.78c-.11-4.6,0-9.31-.74-13.87-.61-3.79-2-7.62-5-10.21a7.87,7.87,0,0,0-7.35-2,19.64,19.64,0,0,0-7.29,4c-1.64,1.37-3.55,3.32-3.5,5.62a.58.58,0,0,0,1.16,0c-.06-2.5,2.75-4.62,4.59-5.87s4.63-2.92,7.12-2.86c3.54.08,6.31,3.47,7.67,6.42,1.89,4.14,1.92,8.91,2,13.38q.76,28.4.31,56.8t-2.1,57q-.84,14.24-2,28.44a124.79,124.79,0,0,1-1.22,13c-.49,2.66-1.5,6.61-4.5,7.44-3.68,1-6-3.42-7.12-6.17-1-2.44-1.78-5-2.56-7.51-1.64-5.27-3.05-10.61-4.28-16a332.32,332.32,0,0,1-6.13-36.13q-2.16-18.58-2.6-37.32a295.74,295.74,0,0,1,1.08-34.46c.86-9,2.17-18.2,5-26.85,1.7-5.23,4.19-11.65,9.19-14.6a9.11,9.11,0,0,1,2.88-1.11c.73-.14.42-1.26-.31-1.12Z"/><path d="M83.11,6a219.19,219.19,0,0,1,6,53.4,222,222,0,0,1-7,53.07,218.85,218.85,0,0,1-9.53,28.7c-.28.69.84,1,1.12.31A220.33,220.33,0,0,0,88,89.29a223.43,223.43,0,0,0,1.24-53.83,218.65,218.65,0,0,0-5-29.75c-.17-.73-1.29-.42-1.12.31Z"/><path d="M94.79,187.87a172.21,172.21,0,0,1-5-45.56,174.75,174.75,0,0,1,7-45.3,171.3,171.3,0,0,1,9.3-24.47c.32-.67-.68-1.26-1-.58a173.22,173.22,0,0,0-14,44.2A175.93,175.93,0,0,0,89.3,162.5a172,172,0,0,0,4.38,25.68c.18.72,1.29.41,1.11-.31Z"/><path d="M75.05,159.15a237,237,0,0,0,19.63-58.7,240.92,240.92,0,0,0,4-61.35A235.9,235.9,0,0,0,93.88,4.61c-.15-.73-1.27-.42-1.12.31A235.85,235.85,0,0,1,97.7,66.1a239.82,239.82,0,0,1-10.78,60.21,233.54,233.54,0,0,1-12.87,32.25c-.33.67.67,1.26,1,.59Z"/><path d="M76.09,169.55l6.53-21.32c.22-.72-.9-1-1.12-.31L75,169.24c-.22.71.9,1,1.12.31Z"/><path d="M96.52,63.84l10.34-19.4c.35-.66-.65-1.25-1-.59L95.52,63.26c-.35.66.65,1.24,1,.58Z"/><path d="M128.35,22.37a127.5,127.5,0,0,1,.94,66.51A125.69,125.69,0,0,1,123.16,107c-.29.68.71,1.27,1,.59a128.65,128.65,0,0,0,9.2-66.72,126.73,126.73,0,0,0-3.89-18.8.58.58,0,0,0-1.12.31Z"/><path d="M133.84,155.13A172.28,172.28,0,0,1,145.61,92a168.19,168.19,0,0,1,7.69-16.91c.35-.66-.66-1.25-1-.59a173.72,173.72,0,0,0-18.71,62.18,170.27,170.27,0,0,0-.91,18.48.58.58,0,0,0,1.16,0Z"/><path d="M128.28,117.65a163.3,163.3,0,0,0,14.4-41.59,165.56,165.56,0,0,0,2.85-44.15,162.83,162.83,0,0,0-3.62-24.47c-.17-.73-1.29-.42-1.12.3a163.78,163.78,0,0,1-4.09,86.55,159.3,159.3,0,0,1-9.43,22.78c-.33.66.67,1.25,1,.58Z"/><path d="M146.15,57.3l6.52-4.73a.62.62,0,0,0,.21-.8.6.6,0,0,0-.8-.21l-6.51,4.74a.6.6,0,0,0-.21.8.57.57,0,0,0,.79.2Z"/><path d="M83.11,188,83,191.5a4.89,4.89,0,0,0,.27,2.66,2.33,2.33,0,0,0,2.24.83c1.15-.05,2.29-.12,3.44-.18s2.29-.11,3.43-.18a3.83,3.83,0,0,0,2.29-.6,2.75,2.75,0,0,0,.68-2.39l-.05-3.49c0-.74-1.18-.74-1.16,0l0,2.84c0,.57.26,1.75-.27,2.16a4.09,4.09,0,0,1-2.19.36l-2.77.14-2.77.15c-.57,0-1.79.29-2-.45a4,4,0,0,1,0-1.2l0-1.3.07-2.84a.58.58,0,0,0-1.16,0Z"/><path d="M140,183.56l.74,6.26c.18,1.57.09,3.62,2,4.05a14.14,14.14,0,0,0,2.6.16,4.36,4.36,0,0,0,2.51-.29,2.74,2.74,0,0,0,1-1.83c.2-1,.39-2,.58-3l1.36-7c.14-.73-1-1.05-1.12-.31l-1.27,6.57c-.22,1.13-.43,2.26-.65,3.4a2.76,2.76,0,0,1-.36,1.08c-.33.4-.91.29-1.37.28a16.23,16.23,0,0,1-3-.14c-1.09-.24-1-1.46-1.08-2.35l-.81-6.84c-.08-.73-1.24-.74-1.16,0Z"/><polygon points="16.1 46.99 52.76 46.99 52.76 40.39 16.1 40.39 16.1 9.43 57.12 9.43 57.12 2.84 10.73 2.84 10.73 86.89 16.1 86.89 16.1 46.99"/><path d="M225,44.42c0-25.49-11.07-41.58-32-41.58h-23.7V86.89H193C213.92,86.89,225,69.46,225,44.42ZM174.69,80.3V9.43h16.87c17.89,0,27.84,10.84,27.84,35,0,23.7-10,35.88-27.84,35.88Z"/><path d="M198.7,114.45H171.43v84.06h5.48V160.84H198.7c12.75,0,21.58-9.61,21.58-23.36S211.56,114.45,198.7,114.45Zm0,39.79H176.91V121.05H198.7c9.84,0,16,6.26,16,16.43S208.32,154.24,198.7,154.24Z"/><path d="M1.51,156.16C1.51,132.79,15,114.53,33,114.53c12.35,0,22.34,8.1,27.18,21.76l-5.35.61c-4-9.82-12.15-16.09-22-16.09-15,0-25.74,15.21-25.74,34.95,0,19.53,10.4,37.16,24.92,37.16,10.91,0,19.56-7.79,23.58-20.24L60.51,174c-4.74,15.89-14.83,25.1-28.42,25.1C14.28,199.09,1.51,179.13,1.51,156.16Z"/></g></g></svg>