<svg width="38" height="80" viewBox="0 0 38 80" fill="none" xmlns="http://www.w3.org/2000/svg">
<g clip-path="url(#clip0)">
<path d="M18 31.7C17.9 37.8 17.9 43.8 17.8 49.9C19.4 49.5 20.9 49.1 22.5 48.6C19.6 42.7 19.2 36 19.1 29.6C19 24.5 19.2 16.6 25 14.4C24.4 12.9 23.7 11.4 23.1 9.79996C19.9 11.8 16.7 13.9 14.3 16.9C12.1 19.7 10.7 23.1 10 26.6C9.4 30.1 9.4 33.6 9.8 37.1C10 38.8 10.5 40.6 10.5 42.4C10.5 44 9.3 44.8 8.3 45.9C3.6 51.2 0.9 58.2 0.7 65.3C0.6 67.1 0.8 68.9 1 70.6C1.2 72.2 1.5 74.1 2.7 75.4C4.1 76.9 6.5 76.9 7.9 75.4C9.2 74.1 9.5 72.2 9.8 70.5C11.7 62 12.3 53 15.8 44.9C14.2 44.5 12.7 44.1 11.1 43.6C11.9 51.6 11.8 59.7 10.7 67.7C10.5 68.9 10.9 70.1 12.1 70.6C13.2 71 14.7 70.7 15.2 69.6C18.4 63 21.1 56.2 23.3 49.2C21.7 49 20 48.8 18.4 48.5C18.6 52.5 18.2 56.4 17.1 60.3C16.6 62.1 16 63.9 15.2 65.5C14.5 66.8 13 66.6 11.8 66.8C10.1 67 8.4 67.7 7.2 69C5.9 70.6 5.6 73 7 74.6C8.4 76.1 10.3 76.1 12.1 75.7C14.2 75.3 16.4 74.8 18.5 74.3C22.2 73.5 26.1 73 29.6 71.6C33.2 70.1 35.3 67.2 35.8 63.3C36.4 59.3 36.5 55 35.7 51C34.9 47.2 32.9 43.7 31.3 40.1C27.6 31.9 28.3 22.6 29 13.9C29.2 11.3 25.6 10.6 24.3 12.6C19.9 20 18.8 28.7 18.3 37.1C17.8 46.3 18.3 55.5 18.8 64.7C19 67.9 23.6 67.9 23.8 64.7C24.2 58.1 25.2 51.5 26.6 45C25 44.8 23.3 44.6 21.7 44.3C21.8 49.7 21.9 55 22.1 60.4C22.2 63.6 27.1 63.6 27.1 60.4C27.2 52.4 27.4 44.5 27.3 36.5C27.3 32.7 27 28.9 26 25.2C25.1 21.7 23.8 18.3 23.7 14.6C23.6 11.4 18.7 11.4 18.7 14.6C18.8 23.6 19.3 32.5 20.4 41.4C20.9 45.7 21.5 49.9 22.4 54.1C23.3 58.1 24.7 61.8 27.2 65C28.6 66.7 31.6 65.3 31.5 63.2C31.3 59 30.8 54.8 30.2 50.7C28.6 51.1 27 51.6 25.4 52C26.4 54.5 27.2 57.2 27.8 59.9C28.1 61.2 28.3 62.5 28.4 63.7C28.5 64.4 28.5 65.1 28.6 65.7C28.6 66.3 28.5 67.2 28.7 67.8C28.7 67.9 28.7 68.1 28.7 68.1L29.1 67.5C29.1 67.4 27.5 67.9 27.3 67.9C26.1 68 24.9 68 23.8 67.5C22 66.8 20.8 65.3 20.5 63.4C20.3 62.1 18.6 61.3 17.4 61.7C16 62.1 15.4 63.4 15.7 64.8C16.2 67.9 18.5 70.6 21.3 71.9C23 72.7 24.9 73.1 26.8 73C28.5 72.9 30.5 72.7 31.9 71.7C33.6 70.6 33.8 68.7 33.7 66.9C33.6 65 33.4 63.1 33.1 61.2C32.6 57.6 31.6 54 30.2 50.7C29 47.7 24.9 48.8 25.4 52C26 55.7 26.4 59.4 26.6 63.2C28 62.6 29.4 62 30.9 61.4C28.8 58.7 27.9 55.2 27.2 51.9C26.4 47.9 25.8 43.9 25.4 39.9C24.4 31.5 24 23 23.9 14.5C22.2 14.5 20.6 14.5 18.9 14.5C19 18.2 20.1 21.8 21.1 25.3C22.1 28.9 22.5 32.5 22.5 36.3C22.5 44.3 22.3 52.2 22.3 60.2C24 60.2 25.6 60.2 27.3 60.2C27.2 54.8 27.1 49.5 26.9 44.1C26.8 41.4 22.6 40.6 22 43.4C20.5 50.3 19.5 57.4 19.1 64.4C20.8 64.4 22.4 64.4 24.1 64.4C23.6 55.5 23.2 46.6 23.6 37.8C24 29.9 24.8 21.7 29 14.8C27.4 14.4 25.9 14 24.3 13.5C23.7 20.8 23.3 28.3 24.9 35.5C26.5 42.4 31.3 48.2 31.5 55.5C31.6 57.4 31.5 59.2 31.3 61.1C31.2 62.4 31 64 30.2 65.1C28.6 67.3 24.9 67.6 22.4 68.1C20.5 68.5 18.6 68.9 16.7 69.3C14.8 69.7 12.9 70.3 11 70.5C11.1 70.5 10.2 70.7 10.3 70.6C10.5 70.4 12.3 72 11.1 71.9C10.9 71.9 11.7 71.5 11.6 71.6C13 71 14.7 71.2 16.2 70.7C18.1 70 19.2 68.6 20 66.8C20.9 64.8 21.6 62.7 22.2 60.6C23.3 56.6 23.7 52.3 23.5 48.2C23.4 45.4 19.4 44.8 18.6 47.5C16.6 54.1 14 60.5 11 66.7C12.5 67.3 14 68 15.6 68.6C16.7 60.2 17 51.7 16.2 43.2C16.1 42.1 15.5 41.1 14.4 40.8C13.4 40.5 12 41 11.6 41.9C8.7 48.5 7.5 55.5 6.2 62.5C5.9 64.1 5.6 65.8 5.3 67.4C5.1 68.3 4.9 69.2 4.7 70C4.6 70.3 4.4 70.8 4.4 71.2C4.4 71.8 3.6 71.3 5.4 71.5C7.2 71.7 6.3 71.9 6.3 71.4C6.3 71.1 6.1 70.7 6.1 70.3C6 69.6 5.9 69 5.8 68.3C5.7 66.8 5.6 65.2 5.8 63.6C6.2 57.8 8.7 52.3 12.7 48.1C13.9 46.9 14.9 45.6 15.4 44C15.9 42.2 15.5 40.3 15.2 38.5C14.7 35.6 14.5 32.6 14.7 29.7C14.9 26.5 15.7 23.4 17.4 20.7C19.4 17.6 22.6 15.6 25.7 13.6C26.7 12.9 27.2 11.6 26.7 10.5C26.2 9.49996 24.9 8.59996 23.8 9.09996C16.1 12.1 14.2 20.3 14.2 27.8C14.2 35.6 14.8 43.6 18.3 50.7C19.4 53 22.9 51.8 23 49.4C23.1 43.3 23.1 37.3 23.2 31.2C23 28.4 18 28.4 18 31.7Z" fill="#54BB0D"/>
<path d="M19.9 11.3C15.8 13.2 12.4 16.7 10.8 21C8.69999 26.7 10.5 32.8 9.19999 38.6C6.89999 48.4 -3.30001 58 1.19999 68.6C1.99999 70.4 3.19999 72.1 4.89999 73.3C6.89999 74.7 9.29999 75 11.7 75C18 74.8 24.3 74.4 30.6 73.9C32.9 73.7 34.8 73.1 35.9 70.9C37 68.7 37.4 65.9 37.6 63.5C38.2 57.4 36.8 51.7 34.6 46.1C33.4 43 32 39.8 31.2 36.6C30.3 33.1 29.9 29.5 30.1 26C30.3 21 32.1 13.1 25.9 10.8C25.6 10.7 25.5 11.2 25.8 11.3C31.9 13.5 29.8 21.6 29.6 26.5C29.4 32 30.6 37.2 32.6 42.3C34.6 47.5 36.9 52.5 37.3 58.1C37.5 60.9 37.4 63.8 36.8 66.6C36.3 69.1 35.7 72.4 32.9 73.3C31.6 73.7 30.2 73.7 28.8 73.7C27.3 73.8 25.9 73.9 24.4 74C21.5 74.2 18.7 74.3 15.8 74.5C13.1 74.7 10.1 75.1 7.49999 74.2C5.29999 73.5 3.59999 71.8 2.39999 69.8C-3.30001 60 5.79999 50 8.89999 41.2C9.79999 38.5 10.2 35.8 10.2 32.9C10.2 29.7 9.89999 26.5 10.6 23.4C11.7 18.2 15.4 13.9 20.1 11.7C20.4 11.6 20.1 11.2 19.9 11.3Z" fill="black"/>
<path d="M16.3 74.5C16.2 76.2 16.8 77.9 17.8 79.3C17.9 79.4 18.1 79.5 18.2 79.3C18.8 78 19 76.5 18.7 75.1C18.6 74.8 18.2 74.9 18.2 75.2C18.4 76.5 18.3 77.8 17.7 79C17.8 79 18 79 18.1 79C17.1 77.7 16.6 76.1 16.7 74.5C16.8 74.2 16.3 74.2 16.3 74.5Z" fill="black"/>
<path d="M19.5 11.5C20.5 12.4 21.8 12.9 23.1 12.9C24.4 12.9 25.8 12.3 26 10.9C26 10.6 25.5 10.6 25.5 10.9C25.3 12.1 23.8 12.5 22.8 12.4C21.7 12.4 20.6 11.9 19.8 11.2C19.6 11 19.3 11.3 19.5 11.5Z" fill="black"/>
<path d="M20.1 11.4C20.7 10.9 21.6 10.6 22.4 10.7C22.5 10.7 22.7 10.7 22.7 10.5C22.7 10.4 22.7 10.2 22.5 10.2C21.5 9.99999 20.5 10.3 19.8 11C19.5 11.2 19.8 11.6 20.1 11.4Z" fill="black"/>
<path d="M25.9 10.8C25.3 10.4 24.6 10.1 23.8 10.1C23.7 10.1 23.6 10.2 23.6 10.3C23.6 10.4 23.7 10.5 23.8 10.5C24.4 10.6 25.1 10.8 25.6 11.2C25.7 11.3 25.9 11.2 25.9 11.1C26 11 26 10.9 25.9 10.8Z" fill="black"/>
<path d="M22.8 10.5C22.8 6.8 24.3 1.6 28.4 0.5C28.3 0.5 28.2 0.5 28.2 0.4C28.7 0.9 27.9 1.4 27.6 1.7C27.2 2 26.9 2.4 26.6 2.8C26.1 3.5 25.6 4.2 25.3 5C24.6 6.6 24.2 8.4 23.8 10.2C23.7 10.5 24.2 10.6 24.3 10.3C24.8 8.3 25.2 6.2 26.3 4.3C26.8 3.4 27.5 2.5 28.3 1.8C28.9 1.3 29.2 0.7 28.7 0.1C28.4 0 28.3 0 28.3 0C24 1.1 22.3 6.5 22.4 10.5C22.3 10.8 22.8 10.8 22.8 10.5Z" fill="black"/>
</g>
<defs>
<clipPath id="clip0">
<rect width="37.7" height="79.4" fill="white"/>
</clipPath>
</defs>
</svg>
