<svg xmlns="http://www.w3.org/2000/svg" viewBox="0 0 306.89 224.97"><defs><style>.cls-1{fill:#fff;}</style></defs><g id="Ebene_2" data-name="Ebene 2"><g id="Ebene_1-2" data-name="Ebene 1"><path class="cls-1" d="M24.29,191.66c-.31.25-.44.37.41-.33l-.19.15Z"/><path class="cls-1" d="M201.81,75c-2.08-3.23-6.78-5-10.26-2.69-8.8,6-18.74,9.8-28.13,14.68a157.79,157.79,0,0,0-25.64,17.32c-7.59,6.08-14.83,12.6-22.24,18.92-1.9,1.62-3.81,3.23-5.75,4.82-.91.75-1.83,1.49-2.75,2.23l-1.3,1-.82.65-.09.07-.2.15-.83.63-1.33,1q-1.5,1.11-3,2.19-3,2.16-6.21,4.16c-9,5.65-18.61,10-28.34,14.15-14,5.87-28.29,11.35-41.15,19.49a110.28,110.28,0,0,0-9,6.41c-.11-.13-.23-.27-.36-.4a7.65,7.65,0,0,0-5.3-2.2c-3.76.17-7.88,3.32-7.5,7.5a91.25,91.25,0,0,0,10.91,36.11,7.57,7.57,0,0,0,10.26,2.69,7.64,7.64,0,0,0,2.69-10.26c-1.25-2.27-2.39-4.61-3.43-7A84,84,0,0,1,18.21,195a8.7,8.7,0,0,0,4.56-2.13c.5-.42,1-.82,1.52-1.22l.22-.18.5-.39-.31.24.08-.06,1.32-1c1.42-1,2.88-2,4.35-3,3.07-2,6.24-3.81,9.47-5.52,6.32-3.34,12.86-6.24,19.44-9,9.82-4.12,19.73-8.06,29.26-12.83a161.36,161.36,0,0,0,27.72-18c8.36-6.59,16.25-13.74,24.35-20.63q3-2.56,6.08-5.07c1-.83,2-1.65,3.08-2.47l1.48-1.15c-2,1.53.15-.11.62-.47a145.71,145.71,0,0,1,13.21-8.94c11-6.55,23.32-10.73,34-17.93C202.37,83.1,204.11,78.59,201.81,75Z"/><path d="M277.58.08,226.89,27.8,201.54,41.66c-5.8,3.17-13.6,6.68-15.33,13.77-1,4,.42,8,2.16,11.65,1.94,4,4.18,7.88,6.46,11.7a165.46,165.46,0,0,0,14.7,21.55c2.14,2.56,4.93,5.16,8.43,5.41,4,.29,7.72-2.9,10.92-4.92L253,85.58c15.48-9.77,30.83-20,47.37-27.94q3.06-1.47,6.17-2.82c.73-.31.1-1.37-.62-1.06-16,6.93-30.67,16.32-45.36,25.59L237.08,94.19l-11.55,7.29c-1.75,1.1-3.55,2.42-5.6,2.87a7.19,7.19,0,0,1-5.56-1.17c-3.35-2.17-5.66-5.84-8-9q-3.72-5.15-7.13-10.51t-6.61-11.11c-2-3.69-4.4-7.52-5.27-11.7-1.76-8.37,5.58-13.1,11.92-16.58L223.58,31l48.5-26.52,6.12-3.35c.7-.38.08-1.44-.62-1.06Z"/><path d="M194.88,76.85a403.45,403.45,0,0,1,74.65-41.42q11.18-4.72,22.63-8.77c.74-.26.42-1.45-.33-1.19a404.35,404.35,0,0,0-77.17,36.88q-10.41,6.41-20.4,13.44c-.65.45,0,1.52.62,1.06Z"/><path d="M206.19,93.14a483.88,483.88,0,0,1,69.15-45.72c6.82-3.71,14-7.56,22-7.39a.62.62,0,0,0,0-1.23c-6.79-.15-13.11,2.55-19,5.62-6.26,3.26-12.4,6.78-18.48,10.37q-18.3,10.82-35.6,23.2-9.63,6.92-18.93,14.28c-.62.5.25,1.36.87.87Z"/><path d="M195.75,78.92C183.39,83.34,172.56,91,161.66,98.18L126,121.51l-5,3.27c-1.61,1-3.37,2-4.88,3.2a2.09,2.09,0,0,0-.77,2.65c.64,1.83,1.44,3.62,2.16,5.42a.55.55,0,0,0,.8.32l63.71-38.11,18-10.74a.54.54,0,0,0-.55-.93L135.75,124.7l-18,10.74.79.33-1.74-4.37c-.38-.94-.91-2,.15-2.69.74-.52,1.53-1,2.29-1.5l8.33-5.45,16.88-11.05c10.84-7.1,21.57-14.42,32.59-21.23A101.33,101.33,0,0,1,196,80c.65-.23.37-1.28-.29-1Z"/><path d="M114.86,127.48l-61,35.76L23.28,181.12l-7.52,4.41c-1,.59-3.38,2.55-4.35,1.15a12.74,12.74,0,0,1-1.18-2.82c-1-2.81-2.72-7-6.52-5.81a5.54,5.54,0,0,0-3.44,3.72c-.66,2.15,0,4.48.85,6.47,2.27,5.33,5,10.49,7.53,15.71l3.79,7.87c.9,1.86,1.83,3.89,3.53,5.17,3,2.26,6.45-.06,7.06-3.4.91-5-4.05-8.46-5.08-12.93-.67-2.89.85-5.1,2.86-7s4-3.43,6-5A130.57,130.57,0,0,1,54.52,172c10.16-4.53,20.39-8.76,30.27-13.87a308.22,308.22,0,0,0,27.94-16.38q3.36-2.22,6.66-4.52c.56-.39,0-1.33-.55-.93a310.35,310.35,0,0,1-55.07,30.55c-9.79,4.2-19.45,8.42-28.41,14.27a127.08,127.08,0,0,0-12.09,8.95c-3.1,2.6-7.22,5.61-6.49,10.2.38,2.41,1.78,4.45,3,6.47s2.72,4.49,2.05,7c-.57,2.16-2.63,3.9-4.85,2.63-1.91-1.1-2.85-3.46-3.76-5.35L5.79,195.53c-1.19-2.47-2.46-4.92-3.56-7.43-1-2.35-1.83-5.23-.19-7.5a3.25,3.25,0,0,1,5.54,0c1.09,1.56,1.53,3.5,2.23,5.25.54,1.33,1.38,3,3.1,2.51a13.85,13.85,0,0,0,3.18-1.73l3.65-2.14L49.19,167.2l58.9-34.51,7.31-4.28a.54.54,0,0,0-.54-.93Z"/></g></g></svg>