<svg xmlns="http://www.w3.org/2000/svg" viewBox="0 0 267.5 280.26"><defs><style>.cls-1{fill:#fff;}</style></defs><g id="Ebene_2" data-name="Ebene 2"><g id="Ebene_1-2" data-name="Ebene 1"><g id="Ebene_2-2" data-name="Ebene 2"><g id="Ebene_1-2-2" data-name="Ebene 1-2"><path class="cls-1" d="M25.69,246.53c-.24.31-.34.46.32-.42l-.15.19Z"/><path class="cls-1" d="M170.35,91c-2.78-2.64-7.77-3.24-10.6-.17-7.12,7.92-15.87,14-23.83,21a158,158,0,0,0-20.78,22.93c-5.93,7.71-11.41,15.77-17.1,23.67-1.46,2-2.93,4-4.44,6.05-.7.94-1.42,1.88-2.14,2.82l-1,1.28-.65.82-.07.09-.16.2-.65.81-1.06,1.28c-.79,1-1.59,1.91-2.39,2.85q-2.4,2.8-5,5.51c-7.4,7.63-15.7,14.14-24.16,20.49-12.2,9-24.78,17.76-35.33,28.72q-3.81,4-7.22,8.37a3.76,3.76,0,0,0-.44-.3,7.66,7.66,0,0,0-5.67-.88c-3.61,1.06-6.86,5.1-5.5,9.07A91.12,91.12,0,0,0,21.29,278a7.56,7.56,0,0,0,10.6.17,7.64,7.64,0,0,0,.17-10.61c-1.75-1.9-3.41-3.91-5-6a84.91,84.91,0,0,1-6.49-10.37,8.68,8.68,0,0,0,3.92-3.16c.39-.52.78-1,1.19-1.54l.17-.23.39-.5-.24.31.06-.08,1.05-1.29c1.14-1.3,2.32-2.62,3.51-3.94,2.51-2.68,5.15-5.19,7.88-7.62,5.35-4.75,11-9.12,16.74-13.37,8.56-6.33,17.25-12.52,25.37-19.42a161.27,161.27,0,0,0,22.64-24.08c6.55-8.39,12.51-17.21,18.74-25.83,1.54-2.13,3.1-4.26,4.7-6.37.77-1,1.55-2.08,2.4-3.13l1.17-1.47.49-.61a146.07,146.07,0,0,1,10.7-11.82c9.13-9,20.1-16,28.76-25.51C172.83,98.71,173.44,93.91,170.35,91Z"/><path d="M226.12.18l-42.64,39-21.32,19.5c-4.88,4.46-11.62,9.72-11.61,17,0,4.12,2.31,7.67,4.87,10.8,2.83,3.42,5.93,6.66,9.05,9.83a165.41,165.41,0,0,0,19.41,17.43c2.69,2,6,3.84,9.47,3.25,4-.67,6.81-4.66,9.44-7.38l19.8-20.54C235.3,75.9,247.78,62.31,262,50.66q2.63-2.16,5.32-4.21c.64-.47-.23-1.35-.85-.88-13.89,10.54-25.91,23.15-38,35.65l-19.27,20-9.49,9.83c-1.43,1.48-2.87,3.19-4.75,4.12a7.19,7.19,0,0,1-5.68.19c-3.77-1.31-6.89-4.33-9.91-6.84q-4.84-4.12-9.43-8.51t-9.06-9.22c-2.82-3.11-6.07-6.26-7.91-10.11-3.7-7.71,2.31-14.05,7.64-18.94L181,43.06l40.79-37.3L227,1.05c.59-.54-.26-1.42-.85-.88Z"/><path d="M164.06,94.42a404,404,0,0,1,62.65-58q9.73-7.24,19.9-13.91c.65-.43.06-1.51-.61-1.07a404.77,404.77,0,0,0-66.18,54.18q-8.58,8.7-16.61,17.91c-.53.59.36,1.47.85.88Z"/><path d="M178.92,107.55a484.07,484.07,0,0,1,56.29-60.86C241,41.46,247,36,254.82,34.28a.62.62,0,0,0,.35-.8.61.61,0,0,0-.64-.4c-6.63,1.47-12.13,5.6-17.12,10C232.1,47.72,227,52.6,221.93,57.53q-15.21,14.86-29.06,31-7.71,9-15,18.37c-.48.63.57,1.26,1.05.64Z"/><path d="M165.4,96.22c-11,7.24-19.65,17.25-28.53,26.82l-29.08,31.15-4.08,4.36a52,52,0,0,0-4,4.27,2.11,2.11,0,0,0-.12,2.76c1.06,1.63,2.26,3.17,3.39,4.75a.56.56,0,0,0,.76.2l.1-.08,52.81-52.17,14.92-14.72a.54.54,0,1,0-.75-.77L118,155l-14.93,14.71.85.13L101.21,166c-.6-.82-1.36-1.72-.5-2.65.6-.68,1.25-1.33,1.87-2l6.79-7.27,13.77-14.75c8.84-9.48,17.52-19.14,26.6-28.38A101.82,101.82,0,0,1,165.9,97.21c.58-.38.06-1.33-.52-.9Z"/><path d="M98.39,162.64,47.65,211.89,22.2,236.53,16,242.6c-.83.81-2.68,3.28-3.95,2.15a13,13,0,0,1-1.82-2.46c-1.64-2.49-4.31-6.15-7.71-4.09A5.56,5.56,0,0,0,0,242.64c-.13,2.24,1.07,4.35,2.36,6.08,3.48,4.63,7.36,9,11.06,13.46L19,268.93c1.32,1.59,2.7,3.34,4.66,4.18,3.45,1.48,6.25-1.6,6.05-5-.31-5.08-6-7.26-8-11.35-1.34-2.65-.39-5.16,1.11-7.48S25.86,245,27.43,243a130.16,130.16,0,0,1,23-22.77c8.79-6.82,17.72-13.36,26.1-20.68A307.27,307.27,0,0,0,99.72,177q2.73-3,5.39-6c.45-.51-.32-1.29-.76-.77A310,310,0,0,1,58.14,213c-8.51,6.41-16.89,12.81-24.2,20.62a129.66,129.66,0,0,0-9.62,11.57c-2.39,3.27-5.67,7.17-3.87,11.46.94,2.25,2.79,3.89,4.45,5.57s3.71,3.71,3.66,6.31c0,2.23-1.63,4.41-4.09,3.7-2.11-.61-3.59-2.68-4.92-4.3L8.65,254.69c-1.75-2.12-3.56-4.2-5.23-6.37s-3-4.65-2-7.24A3.26,3.26,0,0,1,5.54,239a3.31,3.31,0,0,1,1.29.79c1.43,1.26,2.32,3,3.42,4.57.84,1.16,2.05,2.58,3.6,1.7a13.51,13.51,0,0,0,2.68-2.44l3-3,24.49-23.8,49-47.53,6.09-5.9a.54.54,0,0,0-.06-.76A.53.53,0,0,0,98.39,162.64Z"/></g></g></g></g></svg>