<svg width="292" height="360" viewBox="0 0 292 360" fill="none" xmlns="http://www.w3.org/2000/svg">
<g clip-path="url(#clip0)">
<path d="M39.7848 171.775C40.6657 175.373 42.0236 178.898 43.7853 182.166C44.4827 183.452 46.3178 183.929 47.5656 183.158C48.8502 182.313 49.2906 180.734 48.5566 179.376C47.9326 178.237 47.3821 177.062 46.8683 175.887C46.9784 176.108 47.0518 176.328 47.1619 176.548C46.3178 174.529 45.6204 172.436 45.1066 170.306C44.7763 168.911 43.088 167.919 41.73 168.397C40.2253 168.874 39.4178 170.269 39.7848 171.775Z" fill="white"/>
<path d="M47.3087 177.723C49.1438 175.961 51.1257 174.345 53.1076 172.73C52.4837 173.244 52.9608 172.84 53.1076 172.73C53.2544 172.619 53.3646 172.509 53.5114 172.436C53.7316 172.252 53.9518 172.105 54.2087 171.922C54.7592 171.518 55.3097 171.114 55.8603 170.747C56.8879 170.049 57.9156 169.351 58.9799 168.69C63.274 166.01 67.7884 163.696 72.3761 161.53C74.9819 160.318 77.5878 159.107 80.2303 157.932C80.8175 157.674 81.3314 156.867 81.4782 156.279C81.6617 155.618 81.5883 154.737 81.1846 154.149C80.8175 153.562 80.2303 153.048 79.533 152.901C78.7622 152.717 78.1383 152.864 77.4043 153.195C68.0453 157.381 58.6496 161.677 50.4284 167.919C47.9694 169.792 45.6205 171.738 43.4184 173.868C42.3907 174.859 42.354 176.769 43.4184 177.76C44.5561 178.752 46.2077 178.788 47.3087 177.723Z" fill="white"/>
<path d="M176.059 354.933C176.059 354.566 176.096 354.198 176.132 353.831C176.096 354.088 176.059 354.308 176.022 354.566C176.169 353.501 176.463 352.473 176.903 351.481C176.793 351.701 176.719 351.922 176.609 352.142C177.747 349.461 179.546 347.111 181.087 344.688C181.968 343.293 182.739 341.824 183.363 340.282C184.06 338.629 184.5 336.903 185.198 335.251C185.087 335.471 185.014 335.692 184.904 335.912C186.225 332.864 188.354 330.22 189.969 327.32C191.657 324.309 193.015 321.114 194.336 317.956C194.63 317.258 194.813 316.597 194.63 315.826C194.446 315.202 193.969 314.504 193.382 314.174C192.758 313.843 191.987 313.66 191.253 313.88C190.629 314.1 189.895 314.504 189.602 315.129C188.281 318.286 186.923 321.444 185.271 324.419C183.693 327.283 181.564 329.89 180.243 332.901C179.399 334.847 178.848 336.903 178.004 338.85C178.114 338.629 178.188 338.409 178.298 338.189C177.123 340.906 175.325 343.293 173.747 345.79C172.022 348.544 170.664 351.555 170.517 354.859C170.48 356.291 171.801 357.687 173.269 357.613C174.848 357.613 175.985 356.475 176.059 354.933Z" fill="white"/>
<path d="M79.4963 158.262C82.1388 156.977 84.451 155.067 86.7633 153.231C86.8734 153.121 87.0202 153.048 87.1303 152.938C86.4329 153.488 87.0202 153.011 87.167 152.901C87.4239 152.717 87.6441 152.534 87.901 152.35C88.4882 151.909 89.0755 151.505 89.6627 151.138C90.8739 150.367 92.1951 149.706 93.5164 149.155C93.2962 149.266 93.076 149.339 92.8558 149.449C94.6175 148.715 96.4158 148.054 98.1408 147.246C99.4621 146.622 100.747 145.851 101.958 145.006C104.38 143.354 106.692 141.481 109.115 139.865C110.473 138.984 111.867 138.139 113.372 137.515C113.152 137.625 112.932 137.699 112.711 137.809C113.666 137.405 114.62 137.075 115.611 136.854C117.006 136.524 117.96 134.835 117.519 133.476C117.042 132.007 115.648 131.199 114.143 131.567C108.087 132.962 103.646 137.332 98.618 140.636C97.1499 141.591 95.5717 142.436 93.9568 143.133C94.177 143.023 94.3972 142.95 94.6175 142.84C91.9015 143.978 89.1122 144.933 86.6532 146.548C85.4053 147.356 84.2308 148.274 83.0564 149.192C82.5426 149.596 82.0287 150 81.5516 150.367C81.4782 150.404 81.4415 150.477 81.3681 150.514C81.3314 150.551 81.8452 150.147 81.625 150.33C81.5149 150.441 81.3681 150.514 81.258 150.624C81.0011 150.808 80.7075 151.028 80.4505 151.212C79.2394 152.093 77.9915 152.901 76.6703 153.525C75.3857 154.149 74.9086 156.095 75.6793 157.307C76.5969 158.629 78.1016 158.96 79.4963 158.262Z" fill="white"/>
<path d="M149.964 221.163C151.836 227.515 153.707 233.868 155.616 240.184C157.524 246.499 159.433 252.815 161.378 259.094C162.479 262.656 163.58 266.218 164.681 269.78C165.122 271.138 166.627 272.166 168.058 271.689C169.453 271.248 170.444 269.78 169.966 268.311C167.984 261.995 166.039 255.679 164.131 249.327C162.222 243.011 160.314 236.732 158.442 230.416C157.378 226.854 156.313 223.256 155.286 219.657C154.882 218.262 153.34 217.27 151.909 217.748C150.478 218.225 149.523 219.694 149.964 221.163Z" fill="white"/>
<path d="M142.991 104.1C136.788 107.479 130.549 110.857 124.346 114.198C121.226 115.887 118.143 117.577 115.024 119.266C112.895 120.441 110.032 121.689 109.372 124.296C109.005 125.765 109.518 127.271 110.142 128.592C110.84 130.061 111.684 131.493 112.491 132.889C114.106 135.606 115.831 138.36 117.85 140.82C118.62 141.775 119.648 142.73 120.933 142.803C122.401 142.913 123.759 141.738 124.933 141.004C127.906 139.131 130.842 137.295 133.815 135.422C139.504 131.86 145.156 128.115 151.248 125.214C151.983 124.847 152.753 124.517 153.524 124.186C153.781 124.076 153.561 123.672 153.304 123.782C147.431 126.316 142.036 129.731 136.641 133.109C133.742 134.908 130.879 136.707 127.979 138.543C126.548 139.425 125.153 140.306 123.722 141.187C123.061 141.591 122.401 142.069 121.667 142.252C120.933 142.399 120.235 142.215 119.611 141.812C118.4 141.004 117.556 139.645 116.712 138.507C115.794 137.258 114.95 135.936 114.106 134.651C113.262 133.329 112.455 131.934 111.684 130.575C110.95 129.217 110.069 127.821 109.775 126.279C109.151 123.195 111.831 121.469 114.18 120.22C117.152 118.605 120.125 116.989 123.098 115.373C129.044 112.142 134.99 108.911 140.935 105.679C141.669 105.275 142.44 104.871 143.174 104.468C143.504 104.357 143.247 103.953 142.991 104.1Z" fill="black"/>
<path d="M112.565 132.191C121.19 126.169 130.438 121.102 140.128 117.026C142.844 115.887 145.56 114.859 148.349 113.868C148.606 113.758 148.496 113.317 148.239 113.427C138.329 116.879 128.824 121.395 119.868 126.867C117.299 128.409 114.803 130.061 112.344 131.787C112.087 131.971 112.308 132.338 112.565 132.191Z" fill="black"/>
<path d="M116.675 138.176C124.639 131.897 133.191 126.316 142.11 121.469C144.605 120.11 147.285 118.715 150.184 118.788C150.478 118.788 150.478 118.348 150.184 118.348C147.688 118.274 145.376 119.266 143.211 120.404C140.898 121.579 138.66 122.864 136.421 124.186C131.943 126.83 127.576 129.657 123.318 132.668C120.969 134.357 118.62 136.083 116.345 137.882C116.125 138.029 116.455 138.36 116.675 138.176Z" fill="black"/>
<path d="M112.858 132.925C108.307 134.541 104.343 137.332 100.306 139.939C95.9386 142.766 91.5711 145.63 87.2036 148.458C86.5796 148.862 85.9924 149.266 85.3685 149.669C84.7812 150.037 84.1206 150.404 83.5701 150.845C83.2397 151.102 83.1296 151.395 83.2764 151.836C83.4967 152.497 83.7903 153.158 84.0472 153.819C84.0839 153.929 84.2307 154.002 84.3408 153.929C92.1583 149.302 99.9758 144.639 107.757 140.012C109.959 138.69 112.161 137.405 114.363 136.083C114.583 135.936 114.4 135.606 114.179 135.753C106.362 140.379 98.5444 145.043 90.7636 149.669C88.5615 150.991 86.3594 152.277 84.1573 153.598C84.2674 153.635 84.3408 153.672 84.4509 153.709C84.2307 153.158 84.0105 152.644 83.827 152.093C83.6802 151.763 83.4967 151.395 83.9004 151.102C84.1573 150.918 84.4509 150.734 84.7445 150.551C85.7722 149.89 86.7998 149.229 87.8275 148.568C89.8828 147.209 91.9748 145.887 94.0301 144.529C98.0306 141.922 101.958 139.278 106.032 136.781C108.234 135.422 110.546 134.174 113.005 133.292C113.225 133.256 113.115 132.852 112.858 132.925Z" fill="black"/>
<path d="M83.1297 150.661C75.6425 154.994 68.1554 159.364 60.6682 163.696C56.9246 165.863 53.181 168.029 49.4374 170.233C48.5199 170.783 47.6023 171.297 46.6848 171.848C46.3177 172.069 45.4369 172.766 45.0699 172.252C44.8497 171.958 44.7763 171.555 44.6295 171.224C44.2624 170.196 43.6385 168.654 42.2438 169.094C41.6199 169.278 41.1795 169.865 40.9593 170.453C40.7024 171.224 40.9593 172.105 41.2529 172.84C42.0603 174.786 43.088 176.695 44.0055 178.605C44.4827 179.559 44.9231 180.551 45.4002 181.506C45.7305 182.203 46.0608 182.938 46.6848 183.415C47.7858 184.26 49.0337 183.415 49.2906 182.166C49.6209 180.367 47.8225 179.045 47.4555 177.43C47.1986 176.365 47.7858 175.557 48.5199 174.859C49.2172 174.198 49.9879 173.611 50.722 173.023C53.8416 170.563 57.2916 168.58 60.9251 166.965C64.6687 165.312 68.4123 163.77 72.0458 161.897C75.5691 160.098 79.0191 158.078 82.3223 155.912C83.1297 155.361 83.9739 154.81 84.7813 154.26C85.0015 154.113 84.7813 153.782 84.5978 153.929C78.2484 158.335 71.4585 162.044 64.3384 165.092C60.7416 166.634 57.1815 168.176 53.8783 170.306C52.3369 171.297 50.8321 172.399 49.4374 173.574C48.2996 174.529 46.7949 175.63 47.0518 177.319C47.1986 178.201 47.7124 178.972 48.1528 179.706C48.63 180.477 49.1438 181.359 48.8869 182.277C48.6667 183.084 47.9326 183.709 47.0885 183.231C46.3912 182.827 46.0608 181.946 45.7305 181.249C44.813 179.339 43.9321 177.43 43.0146 175.52C42.5742 174.602 42.1337 173.721 41.73 172.803C41.363 171.922 41.0694 170.894 41.6566 170.049C42.2071 169.315 43.1614 169.278 43.6752 170.049C44.0789 170.637 44.2257 171.334 44.4827 171.995C44.6662 172.472 44.9965 173.097 45.6204 172.913C46.0241 172.803 46.4279 172.509 46.7949 172.289C47.2353 172.032 47.6757 171.775 48.1528 171.518C51.7496 169.425 55.3831 167.332 58.9799 165.239C66.2102 161.053 73.4037 156.83 80.634 152.644C81.5148 152.13 82.4324 151.616 83.3132 151.065C83.5334 150.881 83.3499 150.551 83.1297 150.661Z" fill="black"/>
<path d="M175.288 205.373C175.765 204.455 176.279 203.574 176.866 202.729C177.16 202.289 177.454 201.885 177.747 201.481C177.894 201.297 178.444 200.673 177.894 201.297C178.077 201.114 178.224 200.894 178.371 200.71C179.692 199.131 181.16 197.662 182.775 196.377C183.289 195.973 183.583 195.055 183.583 194.431C183.583 193.77 183.289 192.962 182.775 192.485C182.261 192.007 181.564 191.64 180.83 191.677C180.059 191.714 179.472 192.007 178.885 192.485C175.472 195.239 172.609 198.727 170.59 202.619C169.93 203.905 170.223 205.667 171.581 206.401C172.756 207.026 174.554 206.732 175.288 205.373Z" fill="white"/>
<path d="M181.014 200.122C182.188 200.49 183.362 200.93 184.537 201.408C184.317 201.297 184.097 201.224 183.876 201.114C190.519 203.941 196.171 208.458 202.264 212.203C205.53 214.223 208.944 215.949 212.54 217.307C216.137 218.666 219.844 219.694 223.551 220.722C227.698 221.861 231.882 223.036 235.883 224.725C235.663 224.614 235.442 224.541 235.222 224.431C240.507 226.671 245.058 230.233 250.38 232.399C251.004 232.656 251.958 232.436 252.509 232.105C253.096 231.775 253.61 231.114 253.757 230.453C253.903 229.755 253.867 228.947 253.463 228.323C253.059 227.662 252.509 227.332 251.811 227.075C251.701 227.038 251.591 227.001 251.518 226.965C251.738 227.075 251.958 227.148 252.178 227.258C249.573 226.157 247.15 224.614 244.728 223.182C242.196 221.64 239.59 220.318 236.837 219.18C231.736 217.087 226.34 215.802 221.055 214.296C218.046 213.415 215.073 212.497 212.21 211.285C212.43 211.395 212.651 211.469 212.871 211.579C204.576 208.091 197.823 202.032 189.895 197.883C187.546 196.634 185.051 195.569 182.482 194.798C181.087 194.394 179.435 195.312 179.105 196.708C178.738 198.25 179.545 199.682 181.014 200.122Z" fill="white"/>
<path d="M291.89 239.008C285.651 235.74 279.448 232.436 273.209 229.168C270.089 227.515 266.969 225.863 263.813 224.21C261.427 222.962 258.308 221.016 255.628 222.632C254.527 223.292 253.793 224.431 253.133 225.496C252.325 226.891 251.591 228.36 250.894 229.792C250.197 231.261 249.536 232.729 248.949 234.235C248.361 235.667 247.738 237.136 247.334 238.641C247.004 239.816 246.82 241.212 247.554 242.277C248.361 243.452 250.013 243.929 251.261 244.48C254.454 245.912 257.647 247.344 260.803 248.776C266.896 251.53 273.135 254.137 278.861 257.552C279.558 257.993 280.292 258.433 280.989 258.874C281.246 259.021 281.467 258.654 281.21 258.47C275.851 254.982 269.979 252.411 264.18 249.804C261.097 248.409 258.014 247.05 254.968 245.655C253.426 244.957 251.922 244.296 250.38 243.598C249.059 243.011 247.664 242.423 247.517 240.771C247.407 239.376 247.994 237.944 248.472 236.658C249.022 235.153 249.646 233.647 250.27 232.179C250.931 230.71 251.591 229.278 252.325 227.846C252.986 226.597 253.61 225.275 254.491 224.174C255.408 223.035 256.619 222.338 258.087 222.411C259.666 222.485 261.097 223.256 262.492 223.99C265.501 225.569 268.474 227.148 271.484 228.727C277.429 231.848 283.412 235.006 289.357 238.127C290.128 238.531 290.862 238.935 291.633 239.302C291.927 239.523 292.147 239.119 291.89 239.008Z" fill="black"/>
<path d="M251.628 229.278C261.427 233.097 270.786 237.98 279.558 243.782C281.98 245.398 284.366 247.087 286.715 248.849C286.935 249.033 287.155 248.629 286.935 248.445C278.53 242.093 269.428 236.695 259.849 232.252C257.17 231.004 254.454 229.865 251.738 228.8C251.481 228.727 251.371 229.168 251.628 229.278Z" fill="black"/>
<path d="M248.912 236.034C258.858 239.266 268.547 243.378 277.76 248.335C279.998 249.547 282.274 250.906 283.669 253.109C283.815 253.366 284.219 253.146 284.072 252.889C282.861 250.979 280.989 249.62 279.044 248.519C276.842 247.234 274.53 246.095 272.254 244.994C267.483 242.644 262.602 240.551 257.647 238.641C254.821 237.54 251.922 236.548 249.022 235.594C248.728 235.52 248.618 235.961 248.912 236.034Z" fill="black"/>
<path d="M251.114 229.939C247.26 227.038 242.673 225.312 238.268 223.403C233.497 221.346 228.689 219.29 223.918 217.234C222.633 216.683 221.349 216.059 220.028 215.581C219.587 215.398 219.294 215.545 219 215.912C218.56 216.499 218.193 217.087 217.789 217.674C217.715 217.748 217.752 217.895 217.862 217.931C226.047 221.86 234.268 225.753 242.452 229.682C244.765 230.783 247.077 231.885 249.389 232.986C249.609 233.097 249.83 232.766 249.573 232.656C241.388 228.727 233.167 224.835 224.982 220.906C222.67 219.804 220.358 218.703 218.046 217.601C218.082 217.674 218.082 217.785 218.119 217.858C218.449 217.381 218.78 216.903 219.11 216.426C219.294 216.132 219.44 215.838 219.844 215.912C220.211 215.985 220.578 216.242 220.908 216.389C222.046 216.867 223.147 217.344 224.285 217.821C226.597 218.813 228.873 219.804 231.185 220.759C235.589 222.632 240.03 224.431 244.361 226.45C246.636 227.515 248.875 228.727 250.931 230.233C251.114 230.416 251.334 230.086 251.114 229.939Z" fill="black"/>
<path d="M219.881 215.067C212.137 211.285 204.393 207.466 196.649 203.684C192.795 201.811 188.941 199.902 185.051 198.029C184.06 197.552 183.069 197.075 182.078 196.597C181.711 196.414 181.197 196.267 180.867 196.01C180.39 195.569 181.124 194.871 181.381 194.504C181.784 193.953 182.335 193.293 182.335 192.558C182.372 191.934 182.005 191.383 181.417 191.126C180.023 190.539 178.848 191.603 178.114 192.705C176.976 194.468 175.949 196.304 174.884 198.14C174.334 199.057 173.783 199.975 173.233 200.893C172.829 201.591 172.315 202.362 172.352 203.207C172.389 204.639 174.004 205.006 175.068 204.382C176.499 203.537 176.609 201.628 177.637 200.416C178.371 199.572 179.362 199.535 180.39 199.755C181.344 199.975 182.261 200.269 183.179 200.563C186.996 201.811 190.593 203.574 194.006 205.74C197.419 207.907 200.796 210.184 204.356 212.13C207.843 214.076 211.439 215.838 215.11 217.381C215.99 217.748 216.871 218.115 217.752 218.446C217.972 218.556 218.082 218.152 217.862 218.078C210.632 215.214 203.695 211.579 197.199 207.319C193.969 205.19 190.703 203.133 187.143 201.591C185.418 200.857 183.656 200.233 181.894 199.718C180.39 199.278 178.665 198.727 177.454 200.049C176.426 201.187 176.279 203.244 174.848 204.015C174.15 204.382 173.049 204.345 172.792 203.427C172.535 202.472 173.306 201.481 173.747 200.71C174.811 198.911 175.875 197.148 176.94 195.349C177.454 194.504 177.894 193.66 178.444 192.852C178.885 192.154 179.509 191.42 180.426 191.346C181.234 191.273 182.078 191.787 181.894 192.705C181.748 193.513 181.05 194.137 180.61 194.798C180.28 195.312 180.023 195.936 180.647 196.34C181.014 196.597 181.454 196.744 181.858 196.928C182.335 197.185 182.849 197.405 183.326 197.662C187.033 199.498 190.776 201.297 194.483 203.133C201.934 206.769 209.384 210.404 216.835 214.076C217.752 214.516 218.706 214.994 219.624 215.434C219.918 215.545 220.138 215.177 219.881 215.067Z" fill="black"/>
<path d="M13.3962 253.696C17.4334 253.513 21.0669 251.75 24.5169 249.767C27.6365 247.968 30.7562 246.169 33.8391 244.333C40.1519 240.551 46.2811 236.548 52.0433 231.958C55.1996 229.425 58.2092 226.744 60.9985 223.807C61.9895 222.778 62.0996 220.942 60.9985 219.914C59.9342 218.923 58.1725 218.813 57.1081 219.914C54.906 222.228 52.5938 224.394 50.1348 226.45C49.5108 226.965 48.8869 227.479 48.263 227.956C47.9694 228.176 47.6757 228.433 47.3821 228.654C47.2353 228.764 47.0885 228.874 46.9417 228.984C47.6023 228.47 47.0151 228.911 46.8683 229.058C45.5837 230.049 44.2992 230.967 42.9779 231.885C37.7295 235.557 32.261 238.862 26.7557 242.093C25.2142 242.974 23.7094 243.856 22.1679 244.774C20.5898 245.692 18.9749 246.61 17.2866 247.307C17.5068 247.197 17.727 247.124 17.9472 247.013C16.626 247.564 15.2313 248.005 13.7999 248.188C14.0568 248.152 14.277 248.115 14.534 248.078C14.1669 248.115 13.7999 248.152 13.4329 248.188C12.0015 248.262 10.6069 249.4 10.6803 250.942C10.717 252.375 11.8547 253.733 13.3962 253.696Z" fill="white"/>
<path d="M185.455 354.933C184.537 354.455 183.656 353.941 182.812 353.354C182.372 353.06 181.968 352.766 181.564 352.472C181.454 352.399 181.344 352.325 181.271 352.252C181.014 352.068 181.821 352.693 181.417 352.362C181.234 352.215 181.014 352.032 180.83 351.885C179.252 350.563 177.821 349.094 176.536 347.478C176.132 346.964 175.215 346.671 174.591 346.671C173.93 346.671 173.123 346.964 172.646 347.478C172.169 347.993 171.802 348.69 171.838 349.425C171.875 350.196 172.169 350.783 172.646 351.371C175.362 354.786 178.885 357.687 182.775 359.706C184.06 360.367 185.822 360.073 186.556 358.715C187.143 357.43 186.813 355.63 185.455 354.933Z" fill="white"/>
<path d="M180.243 349.168C180.61 348.029 181.014 346.891 181.454 345.789C181.344 346.01 181.27 346.23 181.16 346.45C183.986 339.804 188.501 334.149 192.281 328.091C194.336 324.822 196.061 321.444 197.456 317.846C198.851 314.247 199.878 310.539 200.906 306.83C202.08 302.68 203.255 298.494 204.943 294.492C204.833 294.712 204.76 294.933 204.65 295.153C205.751 292.583 207.072 290.159 208.54 287.809C210.118 285.239 211.586 282.668 212.761 279.878C213.018 279.253 212.797 278.299 212.467 277.748C212.137 277.16 211.476 276.646 210.815 276.499C210.118 276.352 209.311 276.389 208.687 276.793C208.026 277.197 207.696 277.748 207.439 278.445C207.402 278.482 207.402 278.556 207.365 278.592C207.476 278.372 207.549 278.152 207.659 277.931C206.558 280.539 205.053 282.962 203.585 285.386C202.044 287.919 200.686 290.526 199.548 293.28C197.419 298.384 196.135 303.745 194.593 309.033C193.712 312.007 192.758 314.982 191.584 317.882C191.694 317.662 191.767 317.442 191.877 317.222C188.354 325.557 182.225 332.35 178.041 340.318C176.793 342.668 175.728 345.165 174.921 347.699C174.481 349.094 175.435 350.747 176.83 351.077C178.371 351.408 179.802 350.636 180.243 349.168Z" fill="white"/>
<path d="M219.477 238.384C216.174 244.59 212.871 250.832 209.568 257.038C207.916 260.159 206.265 263.28 204.613 266.401C203.328 268.788 201.383 271.909 202.998 274.59C203.659 275.692 204.76 276.463 205.861 277.087C207.255 277.895 208.724 278.629 210.155 279.327C211.623 280.025 213.091 280.685 214.596 281.31C216.027 281.897 217.495 282.521 219 282.925C220.175 283.256 221.569 283.439 222.634 282.742C223.808 281.934 224.285 280.282 224.872 279.07C226.304 275.875 227.772 272.717 229.203 269.523C231.956 263.427 234.598 257.222 238.048 251.457C238.489 250.759 238.929 250.024 239.37 249.364C239.516 249.106 239.149 248.886 238.966 249.143C235.479 254.504 232.873 260.343 230.231 266.144C228.836 269.229 227.441 272.277 226.047 275.361C225.349 276.867 224.652 278.409 223.991 279.914C223.404 281.236 222.817 282.632 221.165 282.778C219.734 282.889 218.339 282.264 217.055 281.787C215.55 281.236 214.045 280.612 212.577 279.951C211.109 279.29 209.678 278.592 208.246 277.858C206.999 277.197 205.677 276.573 204.576 275.692C203.438 274.774 202.778 273.562 202.851 272.093C202.925 270.514 203.732 269.082 204.429 267.723C206.008 264.749 207.586 261.738 209.201 258.764C212.357 252.815 215.513 246.867 218.67 240.918C219.073 240.147 219.477 239.412 219.881 238.641C220.028 238.348 219.624 238.127 219.477 238.384Z" fill="black"/>
<path d="M209.641 278.592C213.495 268.862 218.376 259.535 224.175 250.796C225.827 248.335 227.552 245.912 229.35 243.562C229.533 243.341 229.13 243.121 228.946 243.342C222.56 251.75 217.092 260.82 212.651 270.404C211.403 273.048 210.265 275.765 209.201 278.482C209.091 278.739 209.531 278.849 209.641 278.592Z" fill="black"/>
<path d="M216.394 281.346C219.661 271.395 223.808 261.701 228.799 252.521C230.011 250.282 231.405 248.042 233.607 246.646C233.864 246.499 233.644 246.095 233.387 246.242C231.479 247.454 230.121 249.327 229.02 251.236C227.735 253.439 226.597 255.753 225.46 258.029C223.111 262.803 220.982 267.65 219.037 272.607C217.936 275.435 216.908 278.335 215.954 281.2C215.844 281.53 216.284 281.64 216.394 281.346Z" fill="black"/>
<path d="M210.302 279.106C207.402 282.962 205.64 287.552 203.732 291.922C201.677 296.695 199.585 301.505 197.529 306.279C196.979 307.564 196.355 308.849 195.841 310.171C195.658 310.612 195.804 310.906 196.171 311.199C196.722 311.64 197.346 312.007 197.933 312.411C198.007 312.485 198.153 312.448 198.19 312.338C202.117 304.149 206.081 295.961 210.008 287.772C211.109 285.459 212.247 283.146 213.348 280.869C213.458 280.649 213.128 280.428 213.018 280.685C209.09 288.874 205.127 297.062 201.2 305.251C200.099 307.564 198.961 309.878 197.86 312.154C197.933 312.117 198.043 312.117 198.117 312.081C197.639 311.75 197.162 311.42 196.685 311.089C196.392 310.906 196.098 310.759 196.171 310.355C196.245 309.988 196.502 309.62 196.649 309.29C197.126 308.188 197.603 307.05 198.117 305.949C199.108 303.672 200.099 301.359 201.089 299.082C202.998 294.676 204.796 290.232 206.852 285.9C207.916 283.623 209.127 281.383 210.669 279.363C210.779 279.106 210.448 278.923 210.302 279.106Z" fill="black"/>
<path d="M195.327 310.318C191.51 318.066 187.693 325.777 183.876 333.525C181.968 337.381 180.059 341.236 178.188 345.092C177.71 346.083 177.233 347.075 176.719 348.029C176.536 348.397 176.389 348.911 176.132 349.204C175.692 349.682 174.994 348.984 174.664 348.727C174.114 348.323 173.49 347.809 172.792 347.736C172.168 347.662 171.581 347.993 171.324 348.543C170.664 349.865 171.655 351.151 172.719 351.848C174.444 353.023 176.316 354.015 178.077 355.08C178.995 355.63 179.913 356.181 180.83 356.732C181.527 357.173 182.298 357.65 183.142 357.723C184.61 357.797 185.088 356.255 184.5 355.116C183.73 353.611 181.748 353.464 180.536 352.473C179.656 351.738 179.582 350.747 179.839 349.682C180.059 348.727 180.353 347.809 180.647 346.891C181.894 343.072 183.693 339.474 185.858 336.096C188.06 332.681 190.299 329.339 192.281 325.777C194.226 322.289 195.988 318.69 197.566 315.018C197.933 314.137 198.3 313.256 198.667 312.375C198.777 312.154 198.374 312.044 198.3 312.264C195.401 319.498 191.767 326.401 187.473 332.901C185.344 336.132 183.252 339.364 181.711 342.962C180.977 344.688 180.353 346.414 179.802 348.213C179.362 349.719 178.811 351.481 180.169 352.693C181.344 353.721 183.509 353.868 184.133 355.41C184.464 356.181 184.28 357.209 183.289 357.319C182.335 357.43 181.381 356.695 180.61 356.218C178.811 355.153 177.05 354.088 175.251 353.023C174.444 352.546 173.6 352.069 172.792 351.518C172.095 351.04 171.434 350.416 171.398 349.498C171.361 348.654 171.985 347.919 172.866 348.14C173.637 348.323 174.26 348.984 174.884 349.388C175.398 349.719 175.985 349.976 176.389 349.351C176.646 348.984 176.793 348.543 176.976 348.176C177.233 347.699 177.454 347.185 177.71 346.708C179.546 342.999 181.381 339.253 183.216 335.545C186.886 328.091 190.556 320.673 194.226 313.219C194.667 312.301 195.144 311.346 195.584 310.428C195.768 310.282 195.437 310.061 195.327 310.318Z" fill="black"/>
<path d="M286.568 170.233C286.311 170.967 286.054 171.701 285.761 172.436C285.871 172.215 285.944 171.995 286.054 171.775C285.394 173.317 284.623 174.786 283.742 176.218C283.302 176.916 282.825 177.613 282.311 178.274C282.127 178.495 282.201 178.458 282.458 178.091C282.384 178.164 282.311 178.238 282.274 178.348C282.127 178.495 282.017 178.678 281.87 178.825C281.613 179.155 281.32 179.449 281.063 179.78C280.109 180.845 279.925 182.644 281.063 183.672C282.127 184.627 283.926 184.81 284.953 183.672C288.073 180.22 290.459 176.181 291.927 171.738C292.367 170.379 291.413 168.654 290.018 168.36C288.403 167.956 287.045 168.764 286.568 170.233Z" fill="white"/>
<path d="M282.237 176.144C278.127 175.594 274.2 174.235 270.383 172.619C270.603 172.73 270.823 172.803 271.043 172.913C266.162 170.857 261.427 168.397 256.436 166.524C254.014 165.606 251.555 164.835 249.022 164.284C246.159 163.66 243.223 163.256 240.287 162.889C237.204 162.521 234.121 162.228 231.038 161.787C231.295 161.824 231.515 161.86 231.772 161.897C228.689 161.493 225.606 160.942 222.597 160.098C219.551 159.253 216.651 157.968 213.678 156.83C212.027 156.206 210.338 155.618 208.613 155.214C207.219 154.884 205.567 155.655 205.237 157.124C204.907 158.519 205.677 160.171 207.145 160.502C211.66 161.567 215.807 163.807 220.248 165.165C224.799 166.524 229.534 167.148 234.231 167.699C236.8 167.993 239.406 168.25 241.975 168.617C241.719 168.58 241.498 168.543 241.241 168.507C244.141 168.911 247.04 169.388 249.866 170.159C252.509 170.857 255.078 171.812 257.61 172.876C257.39 172.766 257.17 172.693 256.95 172.583C263.079 175.19 268.988 178.421 275.411 180.294C277.173 180.808 278.971 181.212 280.769 181.469C281.54 181.579 282.201 181.616 282.898 181.175C283.485 180.845 283.999 180.184 284.146 179.523C284.293 178.825 284.256 178.017 283.852 177.393C283.522 176.842 282.935 176.218 282.237 176.144Z" fill="white"/>
<path d="M166.186 155.251C172.866 157.491 179.509 159.767 186.189 162.007C189.528 163.146 192.868 164.284 196.245 165.386C198.741 166.23 201.97 167.626 204.356 165.79C205.384 165.018 205.971 163.807 206.448 162.632C207.035 161.126 207.549 159.547 207.989 157.968C208.467 156.316 208.907 154.663 209.274 153.011C209.604 151.506 209.971 150 210.155 148.458C210.302 147.283 210.265 145.961 209.494 145.006C208.613 143.905 206.999 143.684 205.714 143.354C202.337 142.436 198.961 141.518 195.584 140.637C189.088 138.874 182.482 137.295 176.169 134.798C175.361 134.468 174.554 134.137 173.747 133.77C173.49 133.66 173.269 134.027 173.526 134.174C179.399 136.781 185.601 138.397 191.767 140.086C195.07 140.967 198.337 141.848 201.64 142.73C203.255 143.17 204.87 143.611 206.485 144.051C207.182 144.235 207.916 144.382 208.54 144.786C209.127 145.153 209.494 145.741 209.641 146.402C209.971 147.76 209.568 149.229 209.311 150.588C208.98 152.167 208.65 153.745 208.246 155.324C207.843 156.903 207.366 158.482 206.852 160.061C206.411 161.42 206.008 162.815 205.274 164.027C204.503 165.312 203.328 166.12 201.824 166.193C200.355 166.267 198.924 165.79 197.566 165.349C194.373 164.284 191.143 163.182 187.95 162.118C181.527 159.951 175.141 157.785 168.718 155.618C167.911 155.361 167.104 155.067 166.296 154.81C166.039 154.7 165.929 155.141 166.186 155.251Z" fill="black"/>
<path d="M207.476 158.446C197.199 156.206 187.179 152.901 177.6 148.531C174.921 147.319 172.315 146.034 169.709 144.639C169.452 144.492 169.232 144.896 169.489 145.043C178.775 149.963 188.574 153.856 198.667 156.72C201.53 157.528 204.429 158.262 207.365 158.886C207.659 158.96 207.769 158.519 207.476 158.446Z" fill="black"/>
<path d="M209.127 151.359C198.777 149.743 188.537 147.209 178.628 143.758C176.242 142.913 173.783 141.922 172.058 139.976C171.875 139.755 171.544 140.086 171.728 140.306C173.196 141.958 175.215 142.987 177.233 143.758C179.619 144.676 182.078 145.447 184.537 146.181C189.638 147.76 194.85 149.082 200.062 150.184C203.035 150.808 206.008 151.359 208.98 151.836C209.274 151.836 209.421 151.395 209.127 151.359Z" fill="black"/>
<path d="M207.843 157.711C212.1 159.951 216.871 160.942 221.532 162.118C226.597 163.403 231.625 164.651 236.69 165.936C237.388 166.12 238.122 166.304 238.819 166.487C239.516 166.671 240.214 166.891 240.911 167.001C241.351 167.075 241.608 166.928 241.829 166.524C242.159 165.9 242.452 165.239 242.746 164.578C242.82 164.468 242.746 164.321 242.636 164.284C233.938 161.714 225.203 159.143 216.504 156.573C214.045 155.838 211.586 155.141 209.127 154.406C208.87 154.333 208.76 154.7 209.017 154.774C217.715 157.344 226.45 159.914 235.149 162.485C237.608 163.219 240.067 163.917 242.526 164.651C242.489 164.541 242.452 164.468 242.416 164.357C242.159 164.871 241.902 165.386 241.682 165.9C241.498 166.23 241.388 166.561 240.911 166.524C240.581 166.487 240.25 166.34 239.92 166.267C238.746 165.973 237.571 165.679 236.36 165.386C233.974 164.798 231.589 164.174 229.166 163.586C224.542 162.411 219.918 161.346 215.33 160.061C212.834 159.364 210.338 158.519 208.063 157.307C207.806 157.234 207.622 157.601 207.843 157.711Z" fill="black"/>
<path d="M241.058 167.442C249.242 169.939 257.427 172.436 265.648 174.933C269.722 176.181 273.796 177.43 277.907 178.678C278.934 178.972 279.962 179.302 280.953 179.596C281.43 179.743 281.944 179.853 282.421 180.037C283.155 180.294 282.568 181.138 282.347 181.579C282.017 182.203 281.613 182.864 281.65 183.599C281.687 184.223 282.054 184.774 282.641 184.957C284.109 185.471 285.247 184.149 285.797 182.974C286.605 181.138 287.302 179.192 288.036 177.319C288.44 176.328 288.807 175.337 289.211 174.345C289.504 173.611 289.871 172.84 289.835 172.032C289.798 170.6 288.293 170.086 287.155 170.82C285.761 171.701 285.834 173.611 285.173 174.969C284.733 175.887 283.962 176.365 282.935 176.401C281.98 176.438 280.989 176.255 280.035 176.108C275.961 175.52 271.998 174.345 268.181 172.73C264.474 171.151 260.803 169.425 257.023 168.029C253.206 166.634 249.316 165.459 245.389 164.468C244.434 164.247 243.48 164.027 242.526 163.807C242.269 163.77 242.159 164.137 242.416 164.174C250.123 165.863 257.61 168.397 264.804 171.628C268.364 173.244 271.924 174.749 275.741 175.667C277.613 176.108 279.485 176.438 281.393 176.659C282.201 176.769 283.081 176.879 283.852 176.622C284.513 176.402 285.027 175.924 285.357 175.337C286.054 174.051 285.944 171.885 287.376 171.077C288.183 170.637 289.247 170.857 289.321 171.885C289.394 172.73 288.99 173.574 288.697 174.308C287.926 176.255 287.155 178.164 286.385 180.11C286.018 181.028 285.687 181.983 285.247 182.901C284.917 183.635 284.403 184.443 283.522 184.627C282.604 184.847 281.76 184.26 281.907 183.268C282.054 182.46 282.604 181.763 282.898 180.991C283.155 180.404 283.045 179.89 282.421 179.67C281.467 179.302 280.476 179.082 279.521 178.788C275.594 177.577 271.667 176.402 267.703 175.19C259.812 172.766 251.885 170.379 243.994 167.956C243.003 167.662 242.012 167.368 241.021 167.038C240.911 167.001 240.801 167.368 241.058 167.442Z" fill="black"/>
<path d="M180.353 291.334C179.435 291.554 178.555 291.701 177.637 291.811C177.894 291.775 178.114 291.738 178.371 291.701C175.729 292.032 173.049 292.032 170.407 291.701C170.664 291.738 170.884 291.775 171.141 291.811C170.554 291.738 170.003 291.628 169.416 291.518C168.682 291.371 167.948 291.408 167.287 291.811C166.7 292.142 166.186 292.803 166.039 293.464C165.746 294.823 166.443 296.548 167.948 296.842C172.572 297.723 177.233 297.687 181.821 296.622C183.216 296.291 184.17 294.602 183.73 293.244C183.289 291.811 181.858 291.004 180.353 291.334Z" fill="white"/>
<path d="M172.792 290.086C172.756 289.976 172.719 289.902 172.646 289.792C172.756 290.012 172.829 290.233 172.939 290.453C171.178 286.267 170.333 281.787 169.709 277.307C169.746 277.564 169.783 277.785 169.82 278.042C169.086 272.534 168.682 266.916 167.471 261.481C166.296 256.193 164.131 251.199 161.855 246.279C160.644 243.599 159.36 240.955 158.222 238.274C158.332 238.494 158.405 238.715 158.515 238.935C157.414 236.328 156.423 233.647 155.689 230.93C154.919 228.029 154.552 225.055 154.001 222.081C153.707 220.355 153.304 218.666 152.79 216.977C152.35 215.618 150.881 214.59 149.413 215.067C148.055 215.508 147.028 216.977 147.505 218.446C149.046 223.219 149.23 228.286 150.588 233.097C151.909 237.76 153.928 242.166 155.946 246.573C157.047 248.96 158.185 251.346 159.213 253.807C159.103 253.586 159.029 253.366 158.919 253.146C159.984 255.679 160.974 258.286 161.672 260.967C162.406 263.684 162.883 266.475 163.25 269.266C163.213 269.009 163.177 268.788 163.14 268.531C163.984 274.847 164.351 281.31 166.076 287.479C166.59 289.351 167.25 291.151 168.021 292.95C168.278 293.537 169.086 294.051 169.673 294.198C170.333 294.382 171.214 294.308 171.802 293.905C172.389 293.537 172.903 292.95 173.049 292.252C173.233 291.444 173.086 290.783 172.792 290.086Z" fill="white"/>
<path d="M130.695 180.624C132.237 187.528 133.778 194.431 135.32 201.334C136.091 204.749 136.861 208.164 137.595 211.579C138.109 213.929 138.55 216.94 140.752 218.372C141.926 219.143 143.394 219.143 144.752 218.96C146.367 218.739 147.982 218.335 149.56 217.931C152.716 217.124 155.91 216.169 158.919 214.92C159.983 214.48 161.084 213.892 161.672 212.864C162.442 211.542 161.855 210.073 161.452 208.752C160.461 205.373 159.47 201.995 158.515 198.58C156.607 192.007 154.515 185.435 153.34 178.641C153.194 177.76 153.047 176.879 152.937 175.998C152.9 175.704 152.46 175.704 152.496 175.998C153.34 182.497 155.212 188.813 157.047 195.092C158.002 198.323 158.919 201.554 159.873 204.823C160.35 206.475 160.828 208.091 161.305 209.743C161.525 210.514 161.782 211.322 161.525 212.13C161.341 212.754 160.864 213.268 160.35 213.635C159.213 214.443 157.818 214.884 156.497 215.361C154.992 215.912 153.487 216.389 151.946 216.83C150.368 217.27 148.826 217.674 147.211 218.042C145.743 218.372 144.165 218.813 142.623 218.592C139.724 218.188 138.88 215.251 138.329 212.827C137.595 209.523 136.861 206.218 136.127 202.913C134.659 196.267 133.154 189.657 131.686 183.011C131.503 182.166 131.319 181.359 131.136 180.514C131.062 180.22 130.622 180.367 130.695 180.624Z" fill="black"/>
<path d="M149.377 217.601C145.963 207.687 143.578 197.405 142.33 187.013C141.963 184.076 141.706 181.138 141.522 178.164C141.522 177.87 141.045 177.87 141.082 178.164C141.706 188.666 143.431 199.094 146.257 209.229C147.064 212.093 147.945 214.92 148.899 217.711C149.046 218.005 149.487 217.895 149.377 217.601Z" fill="black"/>
<path d="M156.276 215.324C152.386 205.887 149.34 196.12 147.138 186.132C146.514 183.378 145.927 180.477 146.771 177.687C146.844 177.393 146.404 177.283 146.33 177.576C145.596 179.963 145.89 182.46 146.367 184.847C146.881 187.381 147.505 189.877 148.129 192.374C149.413 197.405 150.955 202.399 152.68 207.283C153.634 210.037 154.698 212.754 155.799 215.434C155.983 215.728 156.387 215.618 156.276 215.324Z" fill="black"/>
<path d="M150.184 217.528C150.478 222.411 152.166 227.111 153.597 231.775C155.102 236.695 156.644 241.616 158.148 246.536C158.369 247.197 158.552 247.858 158.772 248.556C158.993 249.217 159.139 249.951 159.396 250.612C159.58 251.053 159.873 251.163 160.314 251.126C161.011 251.089 161.672 250.979 162.369 250.906C162.479 250.906 162.589 250.796 162.553 250.649C160.24 241.873 157.891 233.097 155.579 224.284C154.919 221.824 154.258 219.327 153.597 216.867C153.524 216.61 153.157 216.72 153.23 216.977C155.543 225.753 157.891 234.529 160.204 243.342C160.864 245.802 161.525 248.299 162.186 250.759C162.259 250.686 162.296 250.575 162.369 250.502C161.782 250.575 161.231 250.612 160.644 250.686C160.314 250.722 159.947 250.796 159.763 250.465C159.616 250.208 159.543 249.804 159.47 249.51C159.103 248.335 158.736 247.197 158.405 246.022C157.671 243.709 156.974 241.359 156.24 239.045C154.845 234.492 153.34 229.976 152.056 225.386C151.322 222.815 150.735 220.208 150.588 217.564C150.588 217.271 150.184 217.271 150.184 217.528Z" fill="black"/>
<path d="M159.103 251.016C161.195 259.278 163.323 267.576 165.415 275.838C166.48 279.951 167.507 284.064 168.572 288.176C168.829 289.204 169.086 290.233 169.379 291.261C169.489 291.738 169.636 292.215 169.746 292.693C169.82 293.023 169.856 293.427 169.453 293.574C169.269 293.611 169.049 293.647 168.865 293.647C167.764 293.721 166.076 293.647 165.746 295.043C165.599 295.667 165.892 296.328 166.37 296.732C166.92 297.246 167.654 297.393 168.351 297.393C169.306 297.393 170.26 297.136 171.178 296.989C172.242 296.805 173.27 296.622 174.334 296.438C175.398 296.255 176.426 296.071 177.49 295.887C178.334 295.74 179.252 295.667 180.023 295.337C180.536 295.116 181.05 294.786 181.234 294.235C181.454 293.574 181.124 292.876 180.61 292.472C179.142 291.261 177.27 292.436 175.692 292.619C174.591 292.729 173.747 292.326 173.196 291.408C172.682 290.6 172.352 289.718 171.985 288.837C170.443 285.165 169.379 281.273 168.792 277.344C168.205 273.268 167.764 269.192 166.994 265.116C166.223 261.114 165.195 257.111 163.984 253.219C163.69 252.264 163.397 251.31 163.066 250.392C162.993 250.135 162.589 250.245 162.699 250.502C165.269 258.029 166.994 265.814 167.948 273.709C168.425 277.564 169.012 281.383 170.187 285.092C170.737 286.854 171.434 288.617 172.205 290.306C172.535 291.04 172.866 291.775 173.416 292.362C173.967 292.913 174.664 293.133 175.435 293.097C177.013 293.023 179.546 291.408 180.72 293.207C181.307 294.088 180.573 294.822 179.766 295.08C178.995 295.373 178.114 295.447 177.307 295.594C175.251 295.924 173.196 296.291 171.178 296.622C169.746 296.879 166.7 297.797 166.149 295.704C165.672 293.904 168.462 294.198 169.453 294.015C170.113 293.868 170.333 293.464 170.187 292.803C169.966 291.775 169.673 290.783 169.416 289.792C168.388 285.789 167.397 281.824 166.37 277.821C164.351 269.89 162.332 261.922 160.314 253.99C160.057 252.999 159.8 251.971 159.543 250.979C159.433 250.649 159.029 250.759 159.103 251.016Z" fill="black"/>
<path d="M9.32226 265.997C8.80843 265.08 8.36801 264.161 7.96429 263.207C8.0744 263.427 8.1478 263.647 8.25791 263.868C7.23025 261.371 6.49622 258.8 6.1292 256.12C6.1659 256.377 6.2026 256.597 6.2393 256.854C6.1659 256.414 6.1292 255.973 6.0925 255.532C6.01909 254.798 5.83558 254.137 5.28506 253.586C4.80793 253.109 4.03719 252.742 3.33986 252.778C1.94519 252.852 0.440411 253.99 0.587218 255.532C0.990938 260.196 2.31221 264.676 4.58772 268.788C5.28506 270.037 7.12015 270.551 8.36801 269.78C9.61587 268.935 10.0563 267.356 9.32226 265.997Z" fill="white"/>
<path d="M8.36809 258.36C8.625 258.139 8.91861 257.919 9.17553 257.699C8.5516 258.213 8.95532 257.882 9.10212 257.772C9.24893 257.662 9.43244 257.552 9.57925 257.405C10.0931 257.038 10.6436 256.671 11.1941 256.303C12.3319 255.569 13.4696 254.908 14.6808 254.284C17.0664 253.035 19.5622 251.934 22.0579 250.869C21.8377 250.979 21.6175 251.053 21.3972 251.163C25.1408 249.584 28.9211 248.078 32.5546 246.279C36.1881 244.443 39.528 242.203 42.721 239.669C45.804 237.246 48.6667 234.639 51.6396 232.105C52.3736 231.481 53.1076 230.857 53.8784 230.232C54.2454 229.939 54.6124 229.608 55.0161 229.314C55.1996 229.168 55.3832 229.021 55.5667 228.874C54.8326 229.425 55.6401 228.837 55.7869 228.69C57.3284 227.515 58.9432 226.414 60.6315 225.422C64.6687 223.035 69.1831 221.493 73.1102 218.849C74.2846 218.042 74.9452 216.389 74.1011 215.067C73.3304 213.892 71.6054 213.231 70.3208 214.076C67.0911 216.279 63.4576 217.674 60.0076 219.474C56.631 221.236 53.5481 223.476 50.6119 225.826C47.8226 228.066 45.18 230.453 42.4641 232.766C41.7668 233.354 41.0694 233.941 40.3354 234.529C40.0051 234.786 39.6748 235.079 39.3077 235.337C39.1609 235.447 38.9774 235.594 38.8306 235.704C38.7205 235.777 38.6471 235.851 38.537 235.924C38.4636 235.997 38.0966 236.291 38.4636 235.997C38.7939 235.74 38.537 235.961 38.4269 235.997C38.3168 236.071 38.2067 236.144 38.1333 236.218C37.9865 236.328 37.803 236.475 37.6562 236.585C37.2891 236.842 36.9221 237.136 36.5551 237.393C35.8211 237.907 35.0503 238.421 34.2796 238.935C30.903 241.065 27.2695 242.68 23.6361 244.259C23.8563 244.149 24.0765 244.076 24.2967 243.966C19.0483 246.169 13.6532 248.225 8.80851 251.273C7.34043 252.228 5.90906 253.256 4.55109 254.357C4.03727 254.798 3.74365 255.679 3.74365 256.303C3.74365 256.964 4.03727 257.772 4.55109 258.25C5.06492 258.727 5.76225 259.094 6.49629 259.057C7.19363 259.131 7.78086 258.837 8.36809 258.36Z" fill="white"/>
<path d="M101.884 187.564C95.6817 190.942 89.4791 194.357 83.2765 197.736C80.1936 199.425 77.0739 201.114 73.9909 202.84C71.8622 204.015 68.9995 205.3 68.3756 207.907C68.0085 209.376 68.5224 210.881 69.183 212.166C69.8803 213.635 70.7245 215.067 71.5686 216.463C73.1835 219.18 74.9452 221.934 76.9638 224.357C77.7345 225.312 78.7622 226.267 80.0467 226.34C81.5148 226.45 82.8728 225.275 84.0472 224.541C86.9834 222.668 89.9562 220.796 92.8924 218.96C98.5812 215.361 104.197 211.616 110.289 208.715C111.023 208.348 111.794 208.017 112.565 207.687C112.822 207.576 112.601 207.173 112.344 207.283C106.472 209.816 101.077 213.268 95.6817 216.683C92.819 218.482 89.9195 220.318 87.0568 222.118C85.6621 222.999 84.2308 223.917 82.8361 224.798C82.2122 225.202 81.5515 225.679 80.7808 225.863C80.0467 226.01 79.3494 225.826 78.7255 225.422C77.4776 224.614 76.6335 223.293 75.7893 222.118C74.8718 220.869 73.9909 219.584 73.1835 218.262C72.3394 216.94 71.5319 215.581 70.7612 214.186C69.9904 212.827 69.1463 211.432 68.816 209.89C68.1553 206.805 70.8713 205.08 73.1835 203.794C76.1563 202.179 79.1292 200.563 82.102 198.911C88.0477 195.679 93.9568 192.411 99.9025 189.18C100.636 188.776 101.407 188.372 102.141 187.968C102.361 187.821 102.141 187.417 101.884 187.564Z" fill="black"/>
<path d="M71.532 215.765C80.0835 209.743 89.2957 204.639 98.9483 200.563C101.701 199.388 104.454 198.323 107.243 197.332C107.5 197.222 107.39 196.781 107.133 196.891C97.26 200.379 87.7542 204.933 78.799 210.441C76.2665 212.02 73.7708 213.672 71.3118 215.361C71.0549 215.508 71.2751 215.912 71.532 215.765Z" fill="black"/>
<path d="M75.6793 221.714C83.6436 215.398 92.1217 209.78 101.077 204.933C103.573 203.574 106.215 202.142 109.151 202.215C109.445 202.215 109.445 201.775 109.151 201.775C106.656 201.738 104.343 202.729 102.178 203.831C99.8658 205.043 97.627 206.328 95.3882 207.65C90.9106 210.294 86.543 213.158 82.3223 216.169C79.9734 217.858 77.6612 219.621 75.3857 221.42C75.1288 221.603 75.4591 221.897 75.6793 221.714Z" fill="black"/>
<path d="M71.8255 216.499C67.2745 218.115 63.3107 220.943 59.3102 223.586C54.9427 226.45 50.5751 229.315 46.2443 232.142C45.6204 232.546 45.0332 232.95 44.4092 233.354C43.822 233.758 43.1614 234.088 42.6108 234.529C42.2805 234.786 42.1704 235.08 42.3172 235.52C42.5374 236.181 42.831 236.842 43.1247 237.503C43.1614 237.613 43.3082 237.687 43.4183 237.613C51.1991 232.95 59.0166 228.286 66.7974 223.623C68.9995 222.301 71.2016 220.979 73.4037 219.694C73.6239 219.547 73.4404 219.217 73.2202 219.364C65.4394 224.027 57.6219 228.69 49.8411 233.354C47.639 234.676 45.4369 235.998 43.2348 237.283C43.3449 237.319 43.4183 237.356 43.5284 237.393C43.3082 236.842 43.088 236.328 42.9044 235.777C42.7576 235.447 42.5741 235.08 42.9411 234.786C43.1981 234.602 43.4917 234.419 43.7853 234.235C44.8129 233.574 45.8406 232.913 46.8315 232.215C48.8869 230.857 50.9789 229.498 53.0342 228.14C56.998 225.532 60.9618 222.852 64.999 220.355C67.2011 218.996 69.5133 217.748 71.9723 216.867C72.1925 216.793 72.0824 216.426 71.8255 216.499Z" fill="black"/>
<path d="M42.1704 234.345C34.72 238.715 27.2328 243.084 19.7823 247.491C16.0387 249.694 12.3318 251.86 8.58823 254.064C7.67069 254.614 6.75314 255.128 5.83559 255.679C5.46857 255.9 4.58773 256.597 4.25741 256.12C4.0372 255.826 3.9638 255.422 3.81699 255.092C3.44997 254.064 2.82604 252.521 1.43137 252.962C0.807439 253.146 0.367016 253.733 0.183507 254.321C-0.0734061 255.092 0.183507 255.973 0.513824 256.707C1.35797 258.654 2.34892 260.563 3.26646 262.472C3.74359 263.427 4.18401 264.382 4.66113 265.373C4.99145 266.071 5.32177 266.805 5.9457 267.283C7.04675 268.127 8.29462 267.246 8.55153 266.034C8.88185 264.198 7.08346 262.913 6.67974 261.297C6.42282 260.233 7.01005 259.425 7.74409 258.727C8.44143 258.066 9.17546 257.479 9.9462 256.854C13.0659 254.394 16.4791 252.375 20.1126 250.759C23.8562 249.106 27.5998 247.527 31.2333 245.655C34.7567 243.819 38.1699 241.836 41.4731 239.633C42.2805 239.082 43.1247 238.531 43.9321 237.98C44.1523 237.833 43.9321 237.503 43.7486 237.65C37.3992 242.056 30.646 245.838 23.5259 248.886C19.9291 250.428 16.369 251.971 13.1026 254.137C11.5611 255.128 10.093 256.23 8.66164 257.442C7.52388 258.397 6.0191 259.498 6.27602 261.187C6.42282 262.068 6.93665 262.803 7.37707 263.574C7.8542 264.308 8.36802 265.226 8.14781 266.144C7.9276 266.952 7.19356 267.576 6.34942 267.099C5.65208 266.695 5.28507 265.814 4.95475 265.153C4.0372 263.244 3.11966 261.371 2.20211 259.461C1.76169 258.543 1.28456 257.662 0.880842 256.744C0.513824 255.9 0.220209 254.835 0.807439 253.99C1.35797 253.219 2.31221 253.219 2.82604 253.99C3.22976 254.578 3.37657 255.275 3.63348 255.9C3.81699 256.377 4.14731 257.001 4.77124 256.818C5.17496 256.707 5.57868 256.377 5.9457 256.193C6.38612 255.936 6.82654 255.679 7.30367 255.422C10.9004 253.292 14.4972 251.199 18.094 249.07C25.2876 244.847 32.5178 240.624 39.7114 236.401C40.5923 235.887 41.5098 235.337 42.3906 234.822C42.5742 234.565 42.3906 234.198 42.1704 234.345Z" fill="black"/>
<path d="M187.693 117.576C186.776 117.136 185.858 116.622 185.014 116.071C184.574 115.814 184.133 115.52 183.73 115.226C183.509 115.079 183.326 114.933 183.106 114.786C182.995 114.712 182.885 114.639 182.812 114.565C182.555 114.382 183.363 115.006 182.959 114.676C181.344 113.39 179.876 111.958 178.555 110.379C178.114 109.865 177.27 109.572 176.609 109.572C175.949 109.572 175.141 109.865 174.664 110.379C173.6 111.554 173.673 113.097 174.664 114.272C177.49 117.613 181.05 120.404 184.977 122.35C185.638 122.68 186.372 122.827 187.106 122.644C187.73 122.46 188.427 121.983 188.758 121.395C189.345 120.11 189.088 118.237 187.693 117.576Z" fill="white"/>
<path d="M182.261 111.995C182.665 110.49 183.216 109.021 183.803 107.589C183.693 107.809 183.619 108.029 183.509 108.25C186.335 101.603 190.74 95.8384 194.3 89.6328C196.245 86.2546 197.86 82.6928 199.071 78.9841C200.282 75.3488 201.2 71.6034 202.117 67.858C203.181 63.672 204.283 59.4859 205.971 55.5202C205.861 55.7405 205.787 55.9608 205.677 56.1811C207.769 51.2607 210.962 46.8911 212.907 41.8605C213.164 41.2362 212.944 40.2815 212.614 39.7307C212.284 39.1432 211.623 38.6291 210.962 38.4823C210.265 38.3354 209.458 38.3721 208.834 38.776C208.21 39.1799 207.843 39.7307 207.586 40.4284C207.476 40.7222 207.329 41.0526 207.219 41.3464C207.329 41.1261 207.402 40.9058 207.512 40.6854C206.375 43.3293 204.906 45.7895 203.475 48.2864C202.007 50.8935 200.759 53.6108 199.732 56.4015C197.786 61.6891 196.649 67.2338 195.18 72.6316C194.336 75.6793 193.419 78.6903 192.208 81.6279C192.318 81.4076 192.391 81.1873 192.501 80.967C189.125 88.8984 183.473 95.5814 179.729 103.329C178.591 105.643 177.6 108.066 176.94 110.563C176.536 111.958 177.417 113.611 178.848 113.941C180.316 114.235 181.821 113.464 182.261 111.995Z" fill="white"/>
<path d="M218.486 0.110161C215.367 6.42595 212.21 12.705 209.091 19.0208C207.512 22.1787 205.934 25.3366 204.356 28.5312C203.145 30.9547 201.273 34.1126 202.961 36.7564C203.659 37.858 204.796 38.5557 205.897 39.1799C207.329 39.951 208.797 40.6487 210.265 41.3097C211.733 41.9706 213.238 42.5949 214.779 43.1824C216.247 43.7332 217.715 44.3207 219.22 44.6879C220.395 44.9816 221.789 45.1285 222.854 44.3941C223.991 43.5863 224.432 42.0073 224.946 40.7589C226.304 37.5275 227.662 34.3329 229.02 31.1016C231.625 24.896 234.121 18.5802 237.424 12.705C237.828 11.9706 238.268 11.273 238.709 10.5753C238.856 10.3182 238.489 10.0979 238.305 10.355C234.965 15.7528 232.543 21.6279 230.084 27.4663C228.763 30.5875 227.478 33.672 226.157 36.7931C225.496 38.3354 224.872 39.8776 224.212 41.4198C223.624 42.7785 223.111 44.284 221.459 44.4676C220.028 44.6512 218.596 44.0636 217.275 43.5863C215.77 43.0722 214.302 42.5214 212.871 41.9339C211.366 41.3097 209.861 40.6487 208.393 39.9143C207.145 39.2901 205.824 38.7026 204.686 37.858C203.512 36.9767 202.778 35.765 202.814 34.2595C202.851 32.6805 203.585 31.2118 204.283 29.8164C205.787 26.7687 207.292 23.7577 208.797 20.7099C211.77 14.6879 214.743 8.66585 217.752 2.64382C218.119 1.87271 218.523 1.10159 218.89 0.367199C219 0.073441 218.633 -0.146877 218.486 0.110161Z" fill="black"/>
<path d="M209.751 40.612C213.348 30.7344 218.009 21.224 223.588 12.3379C225.129 9.87764 226.781 7.45414 228.469 5.06735C228.653 4.84704 228.249 4.59 228.065 4.84704C221.936 13.4027 216.724 22.6194 212.54 32.3134C211.366 35.0306 210.302 37.7479 209.274 40.5019C209.201 40.7589 209.641 40.8691 209.751 40.612Z" fill="black"/>
<path d="M216.541 43.1824C219.55 33.1579 223.404 23.3537 228.175 14.0269C229.313 11.7503 230.634 9.47368 232.8 8.0049C233.057 7.85802 232.8 7.4541 232.58 7.60098C230.671 8.84945 229.387 10.7589 228.322 12.705C227.111 14.9449 226.01 17.295 224.946 19.6083C222.707 24.4553 220.688 29.4125 218.89 34.4431C217.899 37.2705 216.945 40.1346 216.101 42.9988C216.027 43.3293 216.468 43.4761 216.541 43.1824Z" fill="black"/>
<path d="M210.412 41.0894C207.622 44.9816 206.008 49.5716 204.246 53.978C202.301 58.825 200.355 63.6353 198.41 68.4823C197.86 69.8409 197.272 71.1628 196.795 72.5214C196.649 72.9621 196.759 73.2558 197.126 73.5129C197.713 73.9168 198.337 74.284 198.924 74.6879C198.997 74.7246 199.144 74.7246 199.181 74.6144C202.888 66.3158 206.631 58.0539 210.338 49.7552C211.403 47.4051 212.43 45.0918 213.495 42.7417C213.605 42.5214 213.274 42.3011 213.164 42.5581C209.457 50.8568 205.714 59.1187 202.007 67.4174C200.943 69.7674 199.915 72.0808 198.851 74.4308C198.924 74.3941 199.034 74.3941 199.108 74.3574C198.63 74.0269 198.153 73.7332 197.676 73.4027C197.309 73.1824 197.052 73.0722 197.199 72.5581C197.272 72.2277 197.456 71.9339 197.566 71.6402C198.043 70.4651 198.484 69.3268 198.961 68.1518C199.878 65.8752 200.759 63.6353 201.677 61.3586C203.475 56.8788 205.2 52.3256 207.109 47.9192C208.136 45.6059 209.274 43.3293 210.742 41.273C210.889 41.0894 210.559 40.9058 210.412 41.0894Z" fill="black"/>
<path d="M196.282 72.6684C192.685 80.4896 189.051 88.3477 185.454 96.169C183.656 100.061 181.858 103.99 180.059 107.883C179.582 108.874 179.142 109.865 178.665 110.857C178.481 111.224 178.371 111.738 178.114 112.069C177.71 112.583 176.976 111.848 176.609 111.591C176.022 111.187 175.361 110.673 174.627 110.673C174.003 110.673 173.453 111.04 173.233 111.628C172.682 113.023 173.783 114.198 174.884 114.896C176.683 115.998 178.555 116.952 180.39 118.017C181.307 118.531 182.261 119.082 183.179 119.596C183.876 120 184.684 120.477 185.491 120.404C186.923 120.331 187.253 118.715 186.592 117.65C185.711 116.218 183.803 116.144 182.592 115.153C181.748 114.455 181.637 113.464 181.858 112.436C182.041 111.481 182.335 110.563 182.592 109.608C183.766 105.753 185.454 102.118 187.51 98.6659C189.602 95.1775 191.767 91.7626 193.676 88.1641C195.511 84.6757 197.162 81.0772 198.63 77.3685C198.997 76.4505 199.364 75.5325 199.695 74.5778C199.768 74.3207 199.401 74.2473 199.328 74.4676C196.649 81.7748 193.199 88.7883 189.051 95.3978C187.033 98.6659 185.051 101.934 183.619 105.496C182.922 107.258 182.298 109.058 181.821 110.894C181.417 112.399 180.903 114.162 182.261 115.337C183.436 116.365 185.491 116.438 186.299 117.834C186.702 118.531 186.666 119.633 185.785 119.89C184.867 120.147 183.84 119.413 183.069 118.972C181.27 117.944 179.435 116.916 177.637 115.924C176.793 115.447 175.912 115.006 175.105 114.492C174.407 114.051 173.673 113.464 173.526 112.619C173.38 111.775 173.893 110.894 174.848 111.04C175.655 111.187 176.316 111.848 176.976 112.252C177.49 112.583 178.114 112.803 178.518 112.215C178.738 111.848 178.885 111.408 179.068 111.004C179.289 110.49 179.545 110.012 179.766 109.498C181.491 105.716 183.216 101.971 184.977 98.1885C188.427 90.661 191.914 83.1335 195.364 75.5692C195.804 74.6145 196.245 73.6965 196.649 72.7418C196.722 72.6316 196.392 72.448 196.282 72.6684Z" fill="black"/>
</g>
<defs>
<clipPath id="clip0">
<rect width="292" height="360" fill="white"/>
</clipPath>
</defs>
</svg>
