<svg xmlns="http://www.w3.org/2000/svg" viewBox="0 0 64.07 51.4"><defs><style>.cls-1{fill:#6a6299;}</style></defs><g id="Ebene_2" data-name="Ebene 2"><g id="Ebene_1-2" data-name="Ebene 1"><path class="cls-1" d="M32.83,9.07a2,2,0,0,0-1-1.46,2.53,2.53,0,0,0,0-1,2.56,2.56,0,0,0-3.08-1.74c-4.35.59-8.75-.47-13.12-.14S7.26,6.41,4.48,9.8C-1,16.54-1.86,26.52,4.28,33.16a2.38,2.38,0,0,0,2,.7,11.38,11.38,0,0,0,2,2.73,2.4,2.4,0,0,0,1.13,1,13.38,13.38,0,0,0,9.31,2.62,2.84,2.84,0,0,0,.92-.12,12.87,12.87,0,0,0,1.37-.3c7.34-2.09,11.63-9.11,12.63-16.34A45,45,0,0,0,32.83,9.07Zm-19,15.4c0-.41-.06-.82-.11-1.23a3.11,3.11,0,0,0-.49-1.39,42.65,42.65,0,0,1,2.05-3.75,20.12,20.12,0,0,0-1,6.28,2.19,2.19,0,0,0,.14.77l-.11-.1C14.18,24.86,14,24.67,13.86,24.47ZM11.68,11.39s0,0,0,.11S11.63,11.39,11.68,11.39ZM20.11,10,20,9.68l.57,0a2.14,2.14,0,0,0-.39.3ZM6.45,23.37c-.06-.56-.1-1.13-.12-1.7,0-.27,0-.53,0-.8a11.93,11.93,0,0,1,.28,2.23Zm7.28,7.76c.26.14.51.27.77.38h.05c-.23.45-.46.89-.7,1.33a2.53,2.53,0,0,0-.24,1.53c-.13-.07-.25-.15-.37-.23C13.45,33.15,13.61,32.14,13.73,31.13ZM28.45,23c.11-.3.23-.59.34-.89-.05.43-.1.86-.17,1.28A2.3,2.3,0,0,0,28.45,23Zm-.7-13.12L27,12.22a2.33,2.33,0,0,0-2.29.42,14.11,14.11,0,0,0-.36-1.53,2.46,2.46,0,0,0-.9-1.27C24.86,9.9,26.3,9.93,27.75,9.86Zm-17.6,1.49c-.44,1-.81,2-1.15,3A.41.41,0,0,1,9,14.3a10.7,10.7,0,0,0-.82-1.09,10.57,10.57,0,0,1,1-1A7.43,7.43,0,0,1,10.15,11.35Z"/><path class="cls-1" d="M62.2,16.26a2.2,2.2,0,0,0-2.79-1.72,2.31,2.31,0,0,0,0-1,2.52,2.52,0,0,0-3.07-1.74c-.7.24-1.4.46-2.11.67a2.5,2.5,0,0,0-4.48.67c-.06.23-.11.46-.17.69a22.35,22.35,0,0,0-3.67,1.48A14,14,0,0,0,39.3,23a12.73,12.73,0,0,0-4.21,6.76A8.34,8.34,0,0,0,36.57,36l0,.52c-.15,3.58.57,7.58,3.47,10,1.3,1.08,3.8.91,4.17-1.1l.33-1.76.08.21A11.52,11.52,0,0,0,44.42,48c.29,2,2.94,2.22,4.18,1.1l0,0a2.35,2.35,0,0,0,2.37.66c.67,2,4.07,2.43,4.81-.12s2.27-4.44,3.67-6.5A21.33,21.33,0,0,0,63,35.53C64.33,29.3,63.51,22.43,62.2,16.26Zm-4.92.82a2.57,2.57,0,0,0-.18-.33l.22-.07a1.9,1.9,0,0,0,0,.25Z"/></g><g id="Striche"><path d="M28.49,6.57a12.74,12.74,0,0,0,8.33-4c.27-.29.52-.58.76-.89s.48-.88.69-.93.51.21.57.36a.8.8,0,0,1,0,.31,2.57,2.57,0,0,1-.08.62,3.71,3.71,0,0,1-.56,1.27,8.68,8.68,0,0,1-4.41,3,12.52,12.52,0,0,1-6.31.49c-.31-.06-.45.43-.13.48A13,13,0,0,0,33.49,7a9.85,9.85,0,0,0,4.93-3.06,4.23,4.23,0,0,0,.93-2.22c0-.55-.07-1.43-.75-1.52s-1.22,1-1.6,1.45a12,12,0,0,1-2.23,2.1,12.19,12.19,0,0,1-6.28,2.32c-.32,0-.32.52,0,.5Z"/><path d="M28.74,6.81a.19.19,0,0,0-.1-.27C22.49,3.9,14.65,3,8.46,6.08,2.79,8.87.07,15.33.67,21.44A23.83,23.83,0,0,0,4.8,32.24a.25.25,0,0,0,.33.08A12.8,12.8,0,0,0,6.21,35.1a11.57,11.57,0,0,0,6.44,5.57,12.47,12.47,0,0,0,9.49-1.23,23.59,23.59,0,0,0,11.3-14.66A24.16,24.16,0,0,0,34,14.32C33.42,11.23,32.14,7.5,28.74,6.81Zm4.4,17.13a23.64,23.64,0,0,1-9.31,13.89,14,14,0,0,1-9.06,2.77A10.46,10.46,0,0,1,7.2,35.77C3.49,30.11,5.28,22.6,9.1,17.51A21.09,21.09,0,0,1,28.63,9.37c.32,0,.31-.46,0-.5a21.53,21.53,0,0,0-19.2,7.42C6,20.39,3.86,26.19,4.93,31.5.76,25-.82,16,4.61,9.68,10.17,3.17,20.8,3.84,28.05,6.84a.26.26,0,0,0,.2.38c3.93.44,5,5.18,5.41,8.43A23.85,23.85,0,0,1,33.14,23.94Z"/><path d="M63.88,18.66c-.23-2.66-1.33-6.18-4.45-6.24-5.87-.8-9.86,5.07-11.66,10a78,78,0,0,0-3.09,11.25c-.34,1.73-.64,3.48-.88,5.23a20.54,20.54,0,0,0-.26,5.75,7.29,7.29,0,0,0,1.21,3c-5,.77-8-4.2-9.06-8.35a22.15,22.15,0,0,1,.54-12.72A21.87,21.87,0,0,1,54.74,12.28c.32,0,.32-.53,0-.5a22.6,22.6,0,0,0-16.8,10.16,22.22,22.22,0,0,0-1.55,20.85c1.59,3.33,4.79,6.1,8.69,5.38a6.58,6.58,0,0,0,3.2,2.16,9.23,9.23,0,0,0,7.65-1.41c5.41-3.65,6.77-11.58,7.58-17.55A58.11,58.11,0,0,0,63.88,18.66ZM63.19,29.9a54.38,54.38,0,0,1-1.87,9.54A18.65,18.65,0,0,1,57.45,47a9.59,9.59,0,0,1-7.22,3.19,6.39,6.39,0,0,1-6.18-5.51c-.49-3.12.32-6.57.89-9.64a81.3,81.3,0,0,1,2.34-9.47c1-3.18,2.08-6.48,4.25-9.06a9.32,9.32,0,0,1,7.34-3.56s.05,0,.09,0h.35a6.58,6.58,0,0,1,1.22.24s0,0,.08,0c2.48,1,2.77,4.93,2.88,7.32A59.3,59.3,0,0,1,63.19,29.9Z"/><path d="M56.4,12.37l-2.78.51a.25.25,0,0,0-.17.31.25.25,0,0,0,.31.17l2.77-.5a.25.25,0,0,0-.13-.49Z"/><path d="M55.15,13.06c-.36-3.93-.35-8.55,2.91-11.35A6.29,6.29,0,0,1,59.16,1c.33-.18,1.79-.83,1.56.12-.11.43-.65.74-1,1a11.06,11.06,0,0,0-1,1,12.92,12.92,0,0,0-3.38,10c0,.31.54.32.5,0a12.4,12.4,0,0,1,2.72-9A19.91,19.91,0,0,1,60.68,2c.46-.42.84-1.22.28-1.74s-1.65.07-2.21.4A8.37,8.37,0,0,0,55.26,5a18,18,0,0,0-.61,8.1c0,.32.53.32.5,0Z"/></g></g></svg>