<svg width="65" height="52" viewBox="0 0 65 52" fill="none" xmlns="http://www.w3.org/2000/svg">
<g clip-path="url(#clip0)">
<path d="M28.7 4.80002C24.4 5.40002 20 4.40002 15.6 4.70002C11.4 5.00002 7.3 6.40002 4.5 9.80002C-0.999999 16.5 -1.9 26.5 4.3 33.2C5.4 34.4 7.5 34.1 8.2 32.7C11.9 26 11.9 18 15.7 11.5C14.4 11.7 13.1 11.8 11.8 12C12.4 12.5 11.4 11.5 11.7 11.5L11.5 12.4C11.2 13.2 10.9 14 10.6 14.7C10 16.2 9.3 17.8 8.6 19.3C7.2 22.3 5.6 25.4 3.6 28C3.9 27.7 4.2 27.4 4.5 27.1C4.4 27.1 4.4 27.2 4.3 27.2C4.7 27.1 5.1 27 5.6 26.9C5.5 26.9 5.4 26.9 5.4 26.9C5.8 27 6.2 27.1 6.7 27.2C6.6 27.2 6.6 27.1 6.5 27.1C6.8 27.4 7.1 27.7 7.4 28C7.1 27.5 6.9 25.8 6.7 24.9C6.5 23.9 6.5 22.8 6.4 21.8C6.4 20.7 6.4 19.6 6.4 18.5C6.4 17.9 6.5 17.2 6.6 16.6C6.8 15.4 6.7 16.8 5.5 16.7C5.1 16.6 4.7 16.5 4.2 16.4C4 16.3 4.6 16.9 4.7 17C4.9 17.3 5.1 17.7 5.3 18C5.7 18.8 6 19.6 6.2 20.4C6.6 22 6.8 23.8 6.5 25.4C5.9 28.5 10.3 29.8 11.3 26.7C13.1 21.5 15.9 16.6 19.5 12.5C18.2 12.3 16.9 12.2 15.6 12C17.3 15.8 16 20.2 14.5 23.8C16.1 24 17.8 24.2 19.4 24.5C19.4 20.4 20.9 16.6 23.8 13.7C22.4 13.3 21 13 19.6 12.6C20.7 16.3 19.8 20.3 18.3 23.8C18 24.5 17.6 25.3 17.1 25.9C16.9 26.2 16.5 26.4 16.3 26.8H16.2C15.7 27 15.8 27.1 16.5 27C16.5 26.9 14.6 25.3 14.5 25.2C14.3 24.9 14 24.7 13.8 24.4C13.6 24.2 13.5 23.9 13.3 23.7C13.1 23.2 13 23.2 13.2 23.7C13.1 24.1 13 24.5 12.9 25L12.8 25.1C12.4 25.3 12.1 25.5 11.7 25.7C11.8 25.7 11.8 25.7 11.9 25.6C11.5 25.6 11 25.6 10.6 25.6C10.7 25.6 10.7 25.7 10.8 25.7C10 24.9 9.4 24 8.7 23.2C9.2 27.1 9 30.9 8 34.6C9.5 34.4 11 34.2 12.6 34C11.7 32.4 10.8 30.8 9.8 29.1C8.4 26.6 4.6 28.3 5.2 31C6.7 38 14.4 41.5 21 39.7C28.3 37.6 32.6 30.6 33.6 23.4C34.3 18.6 33.7 13.8 32.8 9.10002C32.3 6.50002 28.7 6.90002 28 9.10002C24.9 18.5 21.7 27.9 16.6 36.5C18.2 36.9 19.7 37.3 21.3 37.8C21.5 33.8 23.6 30.3 25.3 26.8C27.2 23 28.9 19 28.8 14.6C28.7 12.2 25.3 11.1 24.1 13.3C20.7 19.8 17.2 26.3 13.8 32.8C12.9 34.6 14.4 37.3 16.6 36.5C19.6 35.4 22.6 34.2 25 32.1C27.3 30.1 28.8 27.2 28.7 24.1C28.6 20.9 23.6 20.9 23.7 24.1C23.8 28.5 18.7 30.4 15.3 31.7C16.2 32.9 17.2 34.1 18.1 35.4C21.5 28.9 25 22.4 28.4 15.9C26.8 15.5 25.3 15.1 23.7 14.6C23.8 18.6 21.9 22.1 20.2 25.6C18.3 29.5 16.4 33.4 16.2 37.8C16.1 40.3 19.6 41.1 20.9 39.1C26.2 30.2 29.5 20.3 32.8 10.5C31.2 10.5 29.6 10.5 28 10.5C29.3 17.8 30 26.9 24.1 32.5C21.9 34.6 18.6 36 15.5 35.2C12.8 34.6 10.6 32.6 10 29.8C8.5 30.4 7 31.1 5.4 31.7C6.3 33.3 7.2 34.9 8.2 36.6C9.3 38.5 12.2 38.1 12.8 36C13.9 31.9 14.2 27.5 13.7 23.3C13.6 22.1 13 21.3 11.9 20.9C10 20.2 8 21.9 8 23.8C8 25.5 9.4 27.1 10.5 28.3C11.6 29.5 12.9 30.9 14.5 31.5C16.4 32.3 18.2 31.4 19.6 30.1C22 28 23.2 24.6 24.1 21.6C25.1 18.2 25.3 14.5 24.3 11C23.8 9.20002 21.5 8.50002 20.1 9.90002C16.4 13.7 14.3 18.9 14.3 24.3C14.3 25.5 15.2 26.6 16.5 26.8C17.8 27 18.8 26.2 19.2 25C21.3 20 22.1 14.4 19.8 9.30002C19.2 7.90002 16.9 7.60002 15.9 8.80002C11.7 13.7 8.5 19.2 6.4 25.2C8 25.6 9.6 26.1 11.2 26.5C11.9 22.3 11.3 17.8 8.9 14.2C7.7 12.3 5.7 10.5 3.4 12C1.5 13.2 1.4 16 1.3 18C1.1 20.4 1.3 22.8 1.6 25.3C1.9 27.3 2.1 30.6 4.3 31.5C6.9 32.6 8.3 29.7 9.4 27.9C10.6 26 11.7 24 12.7 22C13.8 19.7 14.9 17.2 15.8 14.8C16.6 12.7 17.3 10 15.3 8.30002C14.1 7.20002 12.2 7.40002 11.4 8.80002C7.5 15.4 7.5 23.4 3.9 30C5.2 29.8 6.5 29.7 7.8 29.5C3.3 24.6 4.4 16.5 9.1 12C11.4 9.80002 14.8 9.40002 17.9 9.50002C22 9.50002 26 10.1 30.1 9.50002C31.4 9.30002 32.2 7.60002 31.8 6.40002C31.4 5.10002 30.1 4.70002 28.7 4.80002Z" fill="#6A6299"/>
<path d="M56.3 11.8C52.8 13 49.2 13.6 45.9 15.3C42.3 17.2 40.2 20.4 38.9 24.1C37.6 28.1 36.7 32.4 36.5 36.5C36.3 40.1 37.1 44.1 40 46.5C41.3 47.6 43.8 47.4 44.2 45.4C45.7 37.3 47.2 29.3 48.7 21.2C47.1 21 45.4 20.8 43.8 20.5C43.5 23.4 43.1 26.4 42.6 29.3C42.4 30.7 42.1 32.1 41.8 33.5C41.6 34.6 41.5 35.9 40.7 36.7C41.9 36.7 43.1 36.7 44.2 36.7C42.5 35.3 39.4 33.1 39.9 30.6C40.2 29.1 41.5 27.9 42.5 26.9C43.7 25.7 45.1 24.6 46.6 23.7C45.3 23 44.1 22.3 42.8 21.5C43.7 29.5 41.5 37.7 45.2 45.2C46 46.8 48 46.6 49.1 45.7C51 44.1 51.6 40.9 52 38.6C52.5 35.8 52.7 33 52.9 30.2C53.1 24.9 53.1 19.5 54.5 14.3C52.9 14.3 51.3 14.3 49.7 14.3C50.6 17 50.3 19.8 50 22.5C49.7 25.3 49.2 28.1 48.6 30.8C47.9 33.5 47.1 36.2 46.2 38.9C45.1 41.9 44 44.6 44.5 47.9C44.8 49.9 47.4 50.1 48.7 49C52.6 45.5 54 40.2 55.3 35.3C56.7 29.6 57.6 23.8 57.7 18C56 18 54.4 18 52.7 18C53.9 27.5 52.5 37.3 48.2 46C47 48.5 50 51.1 52.1 49C60.6 40.5 61.7 28.2 62.3 16.8C60.7 17 59 17.2 57.4 17.5C58 20.4 58.4 23.4 58.6 26.4C58.7 29.3 58.8 32.2 58.1 35C56.8 39.9 52.5 43.3 51.1 48.2C50.2 51.3 55 52.6 55.9 49.5C56.6 47.1 58.2 45.1 59.6 43C61.2 40.7 62.6 38.2 63.2 35.4C64.5 29.2 63.7 22.3 62.4 16.1C61.8 13.2 57.6 14.1 57.5 16.8C56.9 26.8 56.2 38 48.7 45.4C50 46.4 51.3 47.4 52.6 48.4C57.2 39 59.1 28.3 57.7 17.9C57.5 16.6 56.7 15.4 55.2 15.4C53.8 15.4 52.7 16.5 52.7 17.9C52.6 23.1 51.8 28.3 50.6 33.4C49.6 37.6 48.5 42.3 45.2 45.4C46.6 45.8 48 46.1 49.4 46.5C49.2 45.3 49.7 44 50.1 42.8C50.6 41.4 51.2 40 51.7 38.6C52.6 35.9 53.4 33.1 54 30.2C54.6 27.4 55 24.5 55.3 21.7C55.6 18.7 55.7 15.7 54.7 12.9C53.9 10.6 50.6 10.5 49.9 12.9C48.5 17.9 48.3 23.2 48.2 28.3C48.1 30.7 48 33.2 47.7 35.6C47.5 36.8 47.3 38.1 47 39.3C46.8 40.2 46.6 41.5 45.9 42.1C47.2 42.3 48.5 42.4 49.8 42.6C48.3 39.5 48.1 35.9 48.2 32.5C48.3 28.8 48.5 25.1 48.1 21.4C47.9 19.6 46.1 18.1 44.3 19.2C40.7 21.5 36.1 25.1 35.3 29.6C34.5 34.1 37.7 37.6 41 40.2C42 41 43.6 41.3 44.5 40.2C46.7 37.7 47 34.2 47.5 31C48.1 27.5 48.6 23.9 48.9 20.4C49.2 17.6 44.5 17 44 19.7C42.5 27.8 41 35.8 39.5 43.9C40.9 43.5 42.3 43.2 43.7 42.8C41.6 41.1 41.6 38.3 41.7 35.8C41.9 32.2 42.7 28.6 43.8 25.2C44.8 22.3 46.3 20.3 49.1 19C51.8 17.8 54.9 17.3 57.7 16.3C59 15.9 59.8 14.6 59.4 13.2C59 12.3 57.6 11.3 56.3 11.8Z" fill="#6A6299"/>
<path d="M28.6 6.50002C22.5 3.90002 14.7 3.00002 8.5 6.10002C2.8 8.90002 0.0999954 15.4 0.699995 21.5C1.1 25.4 2.7 29.1 4.8 32.3C5 32.6 5.39999 32.3 5.2 32C0.799995 25.4 -1 16.2 4.6 9.70002C10.3 3.10002 21.1 3.90002 28.4 7.00002C28.7 7.10002 28.9 6.70002 28.6 6.50002Z" fill="black"/>
<path d="M28.5 6.59997C31.7 6.39997 34.7 4.89997 36.8 2.59997C37.1 2.29997 37.3 1.99997 37.6 1.69997C37.7 1.49997 38.1 0.799974 38.3 0.799974C38.5 0.799974 38.8 0.999974 38.9 1.19997C38.9 1.29997 38.9 1.39997 38.9 1.49997C38.9 1.69997 38.9 1.89997 38.8 2.09997C38.7 2.59997 38.5 2.99997 38.2 3.39997C37.2 4.89997 35.4 5.79997 33.8 6.39997C31.8 7.09997 29.6 7.29997 27.5 6.89997C27.2 6.79997 27.1 7.29997 27.4 7.39997C29.4 7.79997 31.5 7.69997 33.5 7.09997C35.3 6.49997 37.2 5.59997 38.4 3.99997C38.9 3.39997 39.3 2.59997 39.3 1.79997C39.3 1.29997 39.2 0.399974 38.5 0.299974C37.7 0.199974 37.3 1.29997 36.9 1.69997C36.3 2.49997 35.5 3.19997 34.7 3.79997C32.9 5.09997 30.7 5.89997 28.4 6.09997C28.2 6.09997 28.2 6.59997 28.5 6.59997Z" fill="black"/>
<path d="M28.3 7.20001C32.2 7.60001 33.3 12.4 33.7 15.6C34 18.4 33.8 21.2 33.2 23.9C31.9 29.4 28.6 34.6 23.9 37.8C21.3 39.6 18.1 40.9 14.8 40.6C11.7 40.3 8.9 38.4 7.2 35.8C3.5 30.1 5.3 22.6 9.1 17.5C13.6 11.5 21.1 8.40001 28.6 9.40001C28.9 9.40001 28.9 8.90001 28.6 8.90001C21.4 8.00001 14.1 10.7 9.4 16.3C5.2 21.3 2.9 29 6.2 35.1C7.6 37.7 9.9 39.8 12.6 40.7C15.8 41.7 19.2 41 22.1 39.5C27.7 36.6 31.7 30.9 33.4 24.8C34.3 21.4 34.5 17.8 33.9 14.3C33.3 11.1 32 7.10001 28.2 6.70001C27.9 6.70001 27.9 7.20001 28.3 7.20001Z" fill="black"/>
<path d="M54.7 11.8C47.9 12.4 41.6 16.2 37.9 22C34 28.1 33.2 36.3 36.4 42.8C38 46.1 41.2 48.9 45.1 48.2C45.4 48.1 45.3 47.7 45 47.7C39.9 48.7 36.8 43.6 35.7 39.4C34.6 35.2 34.8 30.8 36.2 26.7C38.9 18.8 46.4 13.1 54.7 12.3C55.1 12.3 55.1 11.8 54.7 11.8Z" fill="black"/>
<path d="M60.7 12.7C54.2 10.8 49.7 17.2 47.8 22.4C46.5 26.1 45.5 29.8 44.7 33.7C44.4 35.4 44.1 37.2 43.8 38.9C43.5 40.8 43.2 42.7 43.5 44.6C43.9 47.2 45.7 49.5 48.2 50.3C50.8 51.1 53.7 50.4 55.9 48.9C61.3 45.2 62.7 37.3 63.5 31.3C64.1 27.1 64.2 22.8 63.9 18.6C63.7 15.8 62.5 12.1 59 12.4C58.7 12.4 58.7 12.9 59 12.9C63 12.5 63.4 17.6 63.5 20.4C63.6 23.5 63.5 26.7 63.2 29.8C62.8 33 62.2 36.2 61.3 39.3C60.5 42 59.4 44.7 57.4 46.8C55.6 48.8 52.9 50.1 50.2 50C47 50 44.5 47.8 44 44.6C43.5 41.5 44.3 38 44.9 35C45.5 31.8 46.3 28.6 47.2 25.5C48.2 22.3 49.3 19 51.5 16.4C53.7 13.8 57.1 12.1 60.5 13.1C60.8 13.3 61 12.8 60.7 12.7Z" fill="black"/>
<path d="M56.4 12.4C55.5 12.6 54.6 12.7 53.6 12.9C53.5 12.9 53.4 13.1 53.4 13.2C53.4 13.3 53.6 13.4 53.7 13.4C54.6 13.2 55.5 13.1 56.5 12.9C56.6 12.9 56.7 12.7 56.7 12.6C56.7 12.4 56.5 12.3 56.4 12.4Z" fill="black"/>
<path d="M55.1 13.1C54.7 9.20003 54.7 4.50003 58 1.80003C58.3 1.50003 58.7 1.30003 59.1 1.00003C59.4 0.800025 60.9 0.200025 60.7 1.10003C60.6 1.50003 60.1 1.80002 59.7 2.10003C59.3 2.40003 59 2.70002 58.6 3.10002C57.5 4.30002 56.6 5.80003 56 7.30003C55.3 9.10003 55 11.1 55.2 13.1C55.2 13.4 55.7 13.4 55.7 13.1C55.5 10.9 55.8 8.80003 56.7 6.80003C57.1 5.80003 57.7 4.90002 58.4 4.10002C59 3.30002 59.8 2.70003 60.5 2.00003C61 1.60003 61.3 0.800025 60.8 0.300025C60.2 -0.199975 59.2 0.400025 58.6 0.700025C57 1.70003 55.8 3.30003 55.1 5.00003C54.1 7.60003 54.2 10.4 54.5 13.1C54.7 13.4 55.2 13.4 55.1 13.1Z" fill="black"/>
</g>
<defs>
<clipPath id="clip0">
<rect width="64.1" height="51.4" fill="white"/>
</clipPath>
</defs>
</svg>
