<svg width="82" height="79" viewBox="0 0 82 79" fill="none" xmlns="http://www.w3.org/2000/svg">
<g clip-path="url(#clip0)">
<path d="M37.7 13.2C38.2 17 41.7 19.7 45.4 19.8C46.2 19.8 47.2 19.3 47.6 18.6C48.5 16.4 48 14.8 46.9 12.8C46.9 12.8 46.5 12.1 46.6 12.1C46.6 12.1 46.2 12.7 46.2 12.8C46.5 13 48.6 12.3 48.9 12.2C52.2 11.2 55.9 8.6 59.6 9.4C61.1 9.7 62.3 10.8 63.4 11.9C64.7 13.1 66 14.4 67.2 15.7C69.5 18.2 70.9 21 71.3 24.4C71.7 28.6 71.7 32.7 73.7 36.5C75.1 35.7 76.6 34.8 78 34C75.6 29.6 73.2 25.1 70.7 20.8C69.5 18.7 68.3 16.6 67 14.6C65.8 12.7 64.3 11 62.1 10.1C59.9 9.3 57.4 9.4 55.1 9.3C53.9 9.2 52.6 9.2 51.4 9.1C50 9 48.6 8.8 47.5 9.5C45.2 10.9 45.1 13.8 46.3 16C47.5 18.1 49.2 20 50.7 21.9C54.2 26.6 57.8 31.3 61.3 36C62.1 37.1 63.5 37.6 64.7 36.9C65.8 36.3 66.4 34.6 65.6 33.5C61.2 27.4 58.6 20.2 58.3 12.7C56.9 13.3 55.5 13.9 54 14.5C59.1 19.7 62.3 26.3 63.2 33.5C64.7 32.9 66.2 32.2 67.8 31.6C66.3 29.6 64.8 27.5 63.2 25.5C61.8 23.6 60.4 21.8 58.4 20.4C57.1 19.5 55.1 20.4 54.7 21.9C53.4 27.4 55.1 33.5 59.3 37.3C63.6 41.1 70 42.4 75.4 40.3C77.7 39.4 77.8 36.4 75.4 35.5C73.4 34.8 72.4 32.5 71.9 30.5C71.2 27.5 71.6 24.3 71.4 21.2C71 15.1 68.6 9.3 62.6 6.8C61.3 6.3 59.9 7.4 59.5 8.5C59.1 9.9 60 11.1 61.2 11.6C66.5 13.8 66.3 21.1 66.4 25.8C66.5 31.6 67.9 38 74 40.3C74 38.7 74 37.1 74 35.5C70.3 37 65.8 36.6 62.7 33.8C59.8 31.2 58.4 27.1 59.4 23.2C58.2 23.7 57 24.2 55.7 24.7C57.2 25.7 58.2 27.4 59.3 28.8C60.6 30.6 62 32.4 63.3 34.1C65 36.4 68.3 35 67.9 32.2C66.8 24.2 63 16.7 57.4 10.9C55.9 9.4 53 10.5 53.1 12.7C53.5 21 56.2 29.2 61.1 36C62.5 35.2 64 34.3 65.4 33.5C62.8 30 60.1 26.5 57.5 23C56.2 21.2 54.8 19.4 53.5 17.7C52.9 16.8 52.2 16 51.6 15.1C51.3 14.7 51.1 14.4 50.8 14C50.7 13.8 50.6 13.7 50.5 13.5C50.1 12.8 50.5 13.2 50.3 13.2C50.4 13.2 49.8 13.9 49.9 13.8C49.9 14.1 49.6 13.6 50 13.9C50.3 14.1 51.4 14 51.7 14C52.8 14 53.8 14.1 54.9 14.1C56.6 14.2 58.7 13.9 60.3 14.6C61.7 15.2 62.5 16.9 63.2 18.1C64.3 19.9 65.4 21.7 66.4 23.4C68.9 27.6 71.2 31.9 73.5 36.2C75 39 79.3 36.5 77.8 33.7C76 30.3 76.4 26.1 75.9 22.4C75.3 18.2 73.2 14.8 70.4 11.7C67.8 8.8 64.6 5.2 60.7 4.3C56.2 3.2 52.2 5.4 48 6.9C45.7 7.7 42.7 7.6 41.7 10.3C41.3 11.4 41.3 12.7 41.8 13.8C42 14.4 42.3 14.9 42.6 15.4C42.7 15.6 42.8 15.7 42.9 15.9C43.1 16.4 42.9 16.6 43.2 15.9C43.9 15.5 44.6 15.1 45.4 14.7C43.7 14.7 42.7 13.3 42.5 11.8C42.3 10.5 40.6 9.7 39.4 10.1C38 10.5 37.5 11.8 37.7 13.2Z" fill="#C6ECAC"/>
<path d="M30.6 15.2C26 14.1 20.8 13.1 16.4 15.5C12.3 17.7 9.50001 22.4 7.90001 26.6C6.10001 31.3 6.10001 36.4 4.80001 41.3C3.40001 46.2 1.40001 51.2 1.70001 56.4C2.00001 61.6 4.60001 66.4 9.60001 68.4C11.5 69.2 13.1 67 12.7 65.3C10 53.9 14.6 42.6 19.4 32.5C17.9 31.9 16.4 31.2 14.8 30.6C12.2 40.8 10.7 51.3 10.5 61.8C12.2 61.8 13.8 61.8 15.5 61.8C15.2 55.7 15.4 49.5 16.3 43.4C17.1 38 18.3 32.6 21.2 28C19.8 28 18.3 28 16.9 28C17.7 29.5 16.8 31.7 16.4 33.2C15.9 35.2 15.4 37.3 14.8 39.3C13.6 43.3 12.1 47.1 9.80001 50.6C11.3 50.8 12.8 51 14.4 51.2C13.4 46.9 13.1 42.5 13.5 38.2C13.7 36.1 14 34.1 14.5 32.1C14.9 30.5 15.3 28.4 16.4 27.1C17.4 26 18.2 26.5 19.1 27.5C20.3 28.9 21.2 30.8 22 32.4C24.1 36.3 25.9 40.3 27.4 44.5C28.3 47 32.4 46.8 32.3 43.8C32.1 36.3 31.8 28.8 31.6 21.2C30 21.6 28.5 22 26.9 22.5C29.1 26.2 30.9 30 32.3 34.1C33.7 33.3 35.1 32.5 36.5 31.7C34.1 29.3 31.8 26.9 29.4 24.5C28.3 23.3 27.1 22.2 26 21C24.9 19.9 23.6 19 21.9 19.1C18.4 19.3 17.6 23.8 17.2 26.6C16.8 29.7 17.1 32.9 18.2 35.9C18.6 36.9 19.4 37.7 20.6 37.7C21.6 37.7 22.8 36.9 23 35.9C23.5 32.9 24 29.8 24.5 26.8C24.7 25.4 25 23.9 25.2 22.5C25.3 21.7 25.5 20.9 25.6 20.1C25.7 19.8 25.7 19.5 25.8 19.1C25.8 18.9 25.9 18.7 25.9 18.5C26 18.2 25.9 18.3 25.7 18.8C25.3 19 25 19.2 24.6 19.4C24.7 19.4 24.8 19.3 24.9 19.3C24.5 19.3 24 19.3 23.6 19.3C23.8 19.3 24.3 20 24.6 20.3C25.1 20.8 25.6 21.4 26.1 21.9C27 22.9 27.8 23.9 28.6 25C30.3 27.3 31.9 29.7 33.4 32.2C34.1 33.4 35.7 33.8 36.8 33.1C38.1 32.4 38.2 30.9 37.7 29.7C35.8 25.4 34.1 20.9 32.5 16.5C31.2 17.1 30 18 28.8 19C32.5 20.8 36.3 22.5 40.4 23.1C43.7 23.6 47.1 23.7 48.9 26.9C50.9 30.4 51.9 34.7 52.7 38.7C53.6 42.6 54.2 46.8 53.5 50.8C53.2 52.7 52.7 54.6 51.8 56.3C51.4 57.1 51 57.8 50.4 58.5C50.1 58.9 49.8 59.2 49.5 59.5C49.3 59.7 49.1 59.9 49 60C48.9 60.1 48.8 60.2 48.7 60.3C48.4 60.6 48.5 60.5 49.2 60.2C49.6 60.3 50 60.4 50.5 60.5C51.2 60.8 51 61.9 51 60.5C51 59.8 51 59.2 51.1 58.5C51.1 57.2 51.2 55.9 51.2 54.6C51.3 52.1 51.3 49.7 51.4 47.2C51.5 42.1 51.7 37 51.8 31.9C51.9 28.7 46.9 28.7 46.8 31.9C46.6 37.7 46.7 43.5 47.1 49.3C48.7 49.1 50.4 48.9 52 48.6C49.6 39.6 46.2 30.9 41.8 22.7C40.8 20.9 37.6 21.2 37.2 23.3C36 29.4 35.6 35.7 36.2 41.9C37.8 41.7 39.5 41.5 41.1 41.2C39.8 36.9 39 32.5 38.7 28.1C37.1 28.3 35.4 28.5 33.8 28.8C34.8 33.3 35.8 37.7 36.8 42.2C37.3 44.6 41.1 44.6 41.6 42.2C42.9 36.6 44.2 30.9 45.5 25.3C44 25.5 42.5 25.7 40.9 25.9C43.4 30.5 44.5 35.7 44.3 41C45.9 40.8 47.6 40.6 49.2 40.3C48.8 38.6 48.5 37 48.4 35.3C48.3 34.5 48.3 33.7 48.3 32.9C48.3 32.4 48.3 31.9 48.3 31.5C48.3 31.3 48.3 31.2 48.3 31C48.1 31.4 48.1 31.5 48.3 31.1C48 31.4 47.7 31.7 47.4 32C47.5 32 47.5 31.9 47.6 31.9C47.2 32 46.8 32.1 46.3 32.2C46.4 32.2 46.5 32.2 46.6 32.2C45.9 31.8 45.2 31.4 44.4 31C46.4 33.7 47.2 36.8 47.8 40C48.5 43.4 49.4 47 48.5 50.5C47.8 53.2 46.1 55.5 44.7 57.9C43.1 60.6 41.9 63.4 41.7 66.5C41.6 68.6 44.5 69.8 46 68.3C47.3 66.9 48.2 65.4 48.7 63.6C47.1 63.6 45.5 63.6 43.9 63.6C45 66.4 44.2 69.4 42 71.5C39.7 73.6 36.3 74.3 33.3 73.9C29.9 73.4 26.5 71.6 23.8 69.4C22.4 68.2 21.9 66.7 21.6 64.8C21.2 62.8 21.1 60.8 21 58.8C20.8 54 21 49.3 20.3 44.5C19.9 42 16 42.2 15.5 44.5C14.2 50.5 13.5 56.7 13.5 62.9C13.5 64.3 13.4 65.8 13.8 67.1C14.2 68.5 15.2 69.6 16.5 70.4C18.7 71.8 20.6 73.2 22.1 75.4C22.6 74.2 23.1 73 23.6 71.7C19.6 72.6 15 73.2 11.7 70.2C10.2 68.8 8.80001 67.1 7.80001 65.2C6.80001 63.3 6.70001 61.3 7.10001 59.2C7.90001 54.7 9.50001 50.4 11.4 46.2C12.4 44.1 13.5 42 14.6 40C15.2 39 15.8 37.9 16.4 36.9C16.5 36.7 17.1 35.5 17.3 35.5C16.5 34.7 15.6 33.8 14.8 33C15.9 42.6 16.9 52.2 18 61.8C18.1 63 18.8 64.1 20.2 64.3C21.3 64.4 22.8 63.8 22.9 62.5C23.5 58.5 24 54.6 24.6 50.6C24.9 48.6 25.2 46.6 25.4 44.7C25.5 43.8 25.7 42.9 25.8 42C25.9 41.5 25.9 41 26 40.5C26 40.3 26.2 39.9 26 40C25.6 40.2 25.3 40.4 24.9 40.6C25 40.6 25.1 40.5 25.2 40.5C24.1 39.7 23.1 38.9 22 38.1C22.7 45.2 22.9 52.4 22.6 59.5C24.2 59.1 25.7 58.7 27.3 58.2C26.5 57 26.3 55.6 26.2 54.2C26 52.3 25.8 50.5 25.8 48.6C25.7 46.8 25.7 45 25.8 43.3C25.8 42.4 25.9 41.5 25.9 40.6C25.9 40.2 26.1 39.6 26 39.1V39.2C26.2 38.6 26 38.7 25.3 39.8C24.3 39.2 23.2 38.6 22.2 38.1C23.3 41.3 23.1 44.8 22.9 48.2C22.8 51.8 22.4 55.4 21.8 59C21.5 60.6 21.3 62.3 20.8 63.8C20.4 65.1 19.4 65.5 18.1 65.7C14.9 66.3 11.4 65.9 8.30001 64.9C8.90001 65.9 9.50001 67 10 68C9.90001 68.3 10.1 68 10.1 68C10.5 68 10.5 67.9 10.9 68C11.8 68.4 12.3 69.4 12.7 70.2C13.2 71.3 14.5 71.5 15.5 71.3C18.1 70.9 19.7 68.6 21.3 66.8C23.1 64.7 24.9 62.5 26.7 60.4C30.3 56.1 33.9 51.9 37.6 47.6C36.3 46.6 35 45.6 33.7 44.6C31.7 48.8 29.7 53 27.5 57.1C26.5 59.1 25.4 61.1 24.4 63.1C23.9 64.1 23.3 65.1 22.8 66.1C22.5 66.7 22.2 67.2 21.9 67.8C21.8 68 21.6 68.3 21.5 68.5C21.2 68.8 21.5 68.7 22.4 68.3C23 69.3 23.6 70.4 24.1 71.4C25 66.6 26.2 61.8 27.8 57.1C28.6 54.8 29.4 52.6 30.4 50.4C30.9 49.3 31.4 48.2 31.9 47C32.2 46.4 32.4 45.9 32.7 45.3C32.8 45.1 32.9 44.9 33.1 44.7C33.3 44.5 33.2 44.6 32.6 44.9C31.8 44.3 31 43.7 30.2 43.1C31.2 48.7 31.6 54.3 31.3 60C31.2 62.8 35.7 63.5 36.2 60.7C37.2 55.9 38.3 51.2 39.8 46.6C40.5 44.3 41.3 42.1 42.2 39.8C42.6 38.8 43.4 35.6 44.5 35.5C43.5 34.9 42.4 34.3 41.4 33.8C42.7 42.2 42.8 50.8 42 59.3C43.6 58.9 45.1 58.5 46.7 58C45.6 55.5 46.1 52.5 46.4 49.9C46.7 46.8 47.1 43.7 47.6 40.6C46 40.4 44.3 40.2 42.7 39.9C42.9 45.9 41.7 51.9 39.2 57.3C40.3 57 41.5 56.7 42.6 56.4C41.6 55.9 41.3 55.1 41 54C40.6 52.3 40.3 50.5 40.1 48.8C39.7 44.9 39.6 40.9 39.9 37C40 35.7 38.7 34.5 37.4 34.5C36 34.5 35 35.6 34.9 37C34.6 41.2 34.3 45.3 34 49.5C35.6 49.3 37.3 49.1 38.9 48.8C38.1 43 37.7 37.1 37.8 31.2C37.8 29.9 38 28.5 37.9 27.2C37.9 26.9 38.2 26.5 37.8 27C38.1 26.7 37.6 27.4 37.6 27.2C37.6 27.1 38.9 27.4 38.9 27.4C41.3 28.1 43.7 29 45.9 30.2C50 32.5 53.3 36.1 54.2 40.8C54.7 43.2 54.6 45.9 54.1 48.3C53.5 51 51.9 52.5 49.9 54.2C47.4 56.4 44.9 58.5 42.4 60.7C41.2 61.8 39.9 62.9 38.7 64C38 64.6 37.3 65.2 36.6 65.8C36.4 66 36.1 66.2 35.9 66.5C35.5 66.9 35.5 66.6 35.9 66.7C36.3 66.9 36.6 67.1 37 67.3C36.5 66.9 36.3 65.2 36.2 64.5C36 63.3 36 62.1 36.2 60.9C36.4 59.6 35.9 58.2 34.5 57.8C33.2 57.4 31.8 58.2 31.4 59.5C30.7 62.1 29.6 64.5 28.1 66.8C29.5 67.6 31 68.5 32.4 69.3C32.9 68.4 33.4 67.5 34.1 66.6C34.4 66.3 34.7 66 35 65.7L35.4 65.5C35.4 65.8 34.1 65 34.4 65C34.5 65 34.7 66.7 34.8 67.1C35 68.1 35.5 69 36.2 69.8C37.1 70.7 38.8 70.8 39.7 69.8C41.7 67.5 43.5 65.1 44.9 62.4C43.4 62.2 41.9 62 40.3 61.8C40.8 64.3 40.9 67.9 37.9 68.7C36.1 69.2 34.2 69 32.4 68.5C31.5 68.2 30.7 67.9 29.9 67.4L29.4 67.1C29.5 67.1 29.4 68.2 29.5 68.2C29.4 68.2 30 67.6 30.1 67.6C31.8 66.4 33.8 65.4 35.5 64.2C37.4 62.9 39.2 61.6 40.9 60.2C44.2 57.5 47.3 54.6 49 50.6C50.8 46.2 50.5 41.3 50.2 36.6C50 33.7 46.3 33.3 45.3 35.9C42.5 42.8 39.3 49.6 35.7 56.1C34.2 58.9 38.5 61.5 40 58.6C43.8 51.7 47.1 44.5 50.1 37.2C48.5 37 46.8 36.8 45.2 36.5C45.5 40.9 46 46 43.7 50C42.6 52 40.9 53.6 39.1 55.1C37.2 56.7 35.2 58.2 33.1 59.6C30.1 61.6 21.2 65.4 25.7 70.3C27.4 72.1 30.3 73.1 32.6 73.5C35.1 73.9 37.8 73.9 40.2 72.9C45.3 70.8 46 65 45 60.2C44.6 58.1 41.4 57.8 40.4 59.6C39.2 61.9 37.7 64 36 66C37.2 66 38.4 66 39.5 66C39.7 66.2 39.5 66.2 39.5 65.9C39.5 65.6 39.4 65.3 39.3 65C39.2 64.4 39.2 63.9 39 63.3C38.5 61.7 37.2 60.5 35.5 60.3C31.9 59.8 29.4 63.8 27.9 66.5C26.4 69.4 30.5 71.7 32.2 69C33.9 66.4 35.1 63.5 36 60.5C34.4 60.1 32.8 59.6 31.2 59.2C30.9 61.2 30.9 63.1 31.2 65.1C31.5 66.9 31.9 69.2 33.3 70.4C35 71.9 37.2 71.2 38.8 69.9C40.4 68.6 42 67.1 43.6 65.8C46.7 63.1 49.8 60.4 52.9 57.7C55.7 55.3 58.1 52.8 58.8 49C60.3 41.7 58.6 34.1 53 29C50.4 26.6 47.3 24.9 44.1 23.5C41.2 22.3 36.9 20.4 34.1 23C32.4 24.5 32.6 27 32.6 29C32.6 31.3 32.6 33.6 32.7 35.8C32.9 40.4 33.3 45 33.9 49.6C34.1 50.8 35.6 51.6 36.6 51.4C37.9 51.2 38.7 50.2 38.8 48.9C39.1 44.7 39.4 40.6 39.7 36.4C38 36.4 36.4 36.4 34.7 36.4C34.4 41 34.5 45.6 35.2 50.2C35.7 53.7 36.2 58.3 39.8 60C40.9 60.5 42.6 60.4 43.2 59.1C46.1 52.8 47.6 46.1 47.4 39.1C47.4 37.9 46.5 36.8 45.2 36.6C44.1 36.5 42.7 37.1 42.5 38.4C41.9 42.1 41.5 45.8 41.1 49.5C40.8 53 40.7 56.3 42.2 59.6C42.6 60.6 44 61 45 60.7C46.1 60.4 46.7 59.4 46.8 58.3C47.7 49.4 47.4 40.4 46 31.5C45.8 30 44.1 29.6 42.9 29.8C40.4 30.1 39.2 32.6 38.3 34.7C37.2 37.3 36.2 39.9 35.3 42.6C33.5 47.8 32.1 53.1 31.1 58.5C32.7 58.7 34.4 58.9 36 59.2C36.2 53.1 35.8 47 34.7 41C34.5 39.9 33.3 39.2 32.3 39.2C29.1 39.2 28 42.4 26.8 44.8C25.6 47.4 24.4 50.1 23.4 52.9C21.4 58.2 19.9 63.8 18.9 69.4C18.6 70.8 19.3 72 20.6 72.5C23.6 73.5 25.3 70.5 26.4 68.4C27.7 66 29 63.6 30.2 61.2C32.7 56.4 35.1 51.5 37.5 46.6C38 45.5 37.9 44.2 36.9 43.4C36 42.7 34.4 42.6 33.6 43.6C30.2 47.6 26.8 51.6 23.4 55.6C21.7 57.6 20 59.6 18.3 61.6C17.5 62.6 16.7 63.6 15.8 64.5C15.2 65.2 14.7 65.8 13.8 65.9C14.7 66.3 15.7 66.7 16.6 67C15.4 64.6 13.3 62.5 10.5 62.2C7.90001 62 5.60001 63.5 4.70001 65.9C4.20001 67.2 5.20001 68.6 6.40001 69C10.4 70.2 14.7 70.6 18.8 69.8C20.7 69.4 22.5 68.6 23.7 67C24.9 65.4 25.3 63.4 25.6 61.5C26.4 57.2 26.9 52.8 27.2 48.4C27.4 44.3 27.7 39.9 26.3 36C25.8 34.7 24.6 33.9 23.2 34.3C20.7 34.8 20.3 37.3 20.2 39.4C20 41.7 20 44.1 20 46.4C20.1 48.7 20.2 51.1 20.5 53.4C20.8 55.7 21 58 22.3 59.9C23.7 62 26.9 61.2 27 58.6C27.3 51.4 27.1 44.3 26.4 37.2C26.3 35.6 24.9 34.3 23.2 34.8C20.8 35.5 20.6 37.8 20.3 39.9C20 42.1 19.7 44.4 19.4 46.6C18.8 51.1 18.1 55.7 17.5 60.2C19.1 60.4 20.8 60.6 22.4 60.9C22.1 52.4 21 42.7 20 33.1C19.9 31.8 19 30.6 17.5 30.6C15.2 30.7 13.7 32.2 12.5 34.1C11.4 35.9 10.3 37.9 9.30001 39.8C7.20001 43.7 5.30001 47.8 3.90001 52.1C2.60001 56.2 1.10001 61.1 2.50001 65.4C3.80001 69.3 6.90001 73 10.2 75.4C14.4 78.4 20.3 77.6 25 76.6C26.5 76.3 27.4 74.2 26.5 72.9C25 70.7 23.3 68.9 21.2 67.4C20.6 67 19.2 66.5 18.8 65.9C18.3 65.2 18.6 63.3 18.6 62.5C18.6 56.9 19.3 51.4 20.4 45.9C18.8 45.9 17.2 45.9 15.6 45.9C16.3 50.7 15.9 55.6 16.2 60.5C16.5 65.1 17 70.2 20.8 73.2C27.7 78.7 38 81.6 45.3 75.2C48.9 72.1 50.5 66.7 48.7 62.2C47.8 60 44.6 59.7 43.9 62.2C43.6 63.2 43.2 64 42.5 64.7C43.9 65.3 45.3 65.9 46.8 66.5C46.9 63.5 48.8 60.8 50.3 58.3C52.3 55.1 53.8 51.7 53.9 47.9C54 44.5 51.3 23.9 45 27.6C42.8 28.9 43.2 31.9 43.3 34.1C43.5 36.6 43.8 39.2 44.4 41.7C45.1 44.5 49.2 43.8 49.3 41C49.6 34.9 48.2 28.8 45.2 23.4C44.2 21.5 41.1 21.9 40.6 24C39.3 29.6 38 35.3 36.7 40.9C38.3 40.9 39.9 40.9 41.5 40.9C40.5 36.4 39.5 32 38.5 27.5C37.9 24.8 33.4 25.3 33.6 28.2C33.9 33.1 34.8 38 36.2 42.7C37 45.3 41.4 45 41.1 42C40.6 36.2 40.9 30.4 42 24.7C40.5 24.9 39 25.1 37.4 25.3C41.6 33.1 44.8 41.4 47.1 50C47.8 52.6 52.2 52.2 52 49.3C51.5 43.5 51.4 37.7 51.7 31.9C50 31.9 48.4 31.9 46.7 31.9C46.5 39.3 46.3 46.7 46.1 54.1C46 55.9 46 57.7 45.9 59.5C45.9 61.2 45.8 63.1 47.1 64.3C50 67 53.4 62.7 54.9 60.5C58.7 55 59.1 48 58.2 41.5C57.7 37.9 56.8 34.3 55.8 30.8C54.8 27.7 53.6 24.1 51.2 21.7C48.7 19.2 45.3 18.7 41.9 18.2C38.1 17.6 34.6 16.2 31.1 14.6C29.3 13.8 26.6 15.2 27.4 17.4C29.2 22.3 31.1 27.1 33.1 31.8C34.5 31 36 30.1 37.4 29.3C35.7 26.3 33.7 23.4 31.6 20.7C30.6 19.4 29.4 18.1 28.3 16.8C27.1 15.5 25.9 14 24 14C22 14 21 15.7 20.7 17.4C20.4 19.3 20 21.3 19.7 23.2C19.1 26.9 18.5 30.6 17.8 34.3C19.4 34.3 21 34.3 22.6 34.3C21.9 32.3 21.5 30.4 21.6 28.3C21.6 27.3 21.8 26.4 22 25.5C22.1 25 22.3 24.5 22.4 24C22.4 23.8 22.5 23.7 22.6 23.5C22.3 23.7 22.3 23.7 22.7 23.5C22.3 23.6 21.9 23.7 21.4 23.8C21.7 23.8 23 25.3 23.3 25.7C24.3 26.8 25.4 27.8 26.4 28.9C28.4 30.9 30.4 33 32.4 35C34.1 36.7 37.4 35 36.6 32.6C35.1 28.2 33.1 23.9 30.7 19.8C29.5 17.7 26 18.5 26 21.1C26.2 28.6 26.5 36.1 26.7 43.7C28.3 43.5 30 43.3 31.6 43C30.2 39 28.5 35.1 26.6 31.4C25.7 29.6 24.7 27.8 23.6 26C22.7 24.5 21.5 23 19.9 22.1C16.1 20 12.1 22.6 10.5 26.2C8.80001 30 8.10001 34.3 7.80001 38.4C7.40001 43.1 7.80001 47.9 8.90001 52.5C9.40001 54.7 12.3 54.8 13.5 53.1C16.2 49 17.9 44.4 19.2 39.7C19.8 37.4 20.4 35.1 21 32.8C21.6 30.3 21.9 27.8 20.6 25.4C19.7 23.7 17.2 23.8 16.3 25.4C13.2 30.4 11.7 36.2 10.9 42C9.90001 48.5 9.60001 55.1 9.90001 61.7C10.1 64.9 14.8 64.9 14.9 61.7C15.1 51.6 16.4 41.6 19 31.8C19.7 29.2 15.7 27.2 14.4 29.9C9.50001 41.3 4.80001 53.8 7.70001 66.6C8.70001 65.6 9.80001 64.5 10.8 63.5C7.90001 62.3 6.60001 58.7 6.60001 55.8C6.50001 51.4 8.20001 47.3 9.40001 43.2C10.6 39.1 10.9 34.8 11.9 30.7C12.8 27 14.7 23.3 17.6 20.8C20.9 17.9 25.6 19.1 29.3 20.1C32.4 20.8 33.7 16 30.6 15.2Z" fill="#FFCB43"/>
<path d="M30.3 13.4C26.8 13.3 23.2 13.4 19.8 13.9C18.5 14.1 17.1 14.3 16 15.2C14.8 16.1 13.8 17.5 12.9 18.6C10.9 21.1 9.69999 23.8 8.69999 26.9C7.59999 30.3 6.19999 33.7 4.79999 37C1.99999 43.3 -0.600011 50.2 0.0999888 57.2C0.699989 62.7 3.49999 67.8 7.69999 71.2C12.9 75.4 20.1 76.7 26.5 74.9C26.8 74.8 26.7 74.3 26.4 74.4C20.6 76.1 14.3 75.2 9.29999 71.7C4.69999 68.6 1.59999 63.5 0.799989 58C-0.200011 51.5 1.89999 45.1 4.29999 39.2C5.49999 36.2 6.89999 33.1 7.99999 30C9.09999 27.1 9.69999 24 11.3 21.4C12.2 19.9 13.4 18.6 14.5 17.2C15.8 15.7 17 14.8 19 14.4C22.7 13.8 26.5 13.7 30.2 13.8C30.6 13.9 30.6 13.4 30.3 13.4Z" fill="black"/>
<path d="M19.7 48.5C18.2 54.7 18.4 61.2 20.3 67.2C21.1 69.8 22.2 71.9 24.6 73.4C27.2 75 29.9 76 33 76.2C36 76.4 38.9 75.9 41.8 75.4C44.3 75 47 74.3 48.7 72.3C50.4 70.2 51 67.1 51.5 64.5C52.1 61.3 52.4 58.1 52.1 54.8C51.6 48.5 49.1 42.3 44.3 37.9C44.1 37.7 43.7 38 43.9 38.3C52.3 46 53.3 59 49.7 69.3C48.6 72.2 46.6 73.9 43.6 74.6C41 75.2 38.3 75.6 35.7 75.7C32.7 75.8 29.8 75.5 27.1 74.2C25.9 73.6 24.6 72.9 23.5 71.9C22.4 70.9 21.8 69.5 21.3 68.1C19.1 61.8 18.8 55 20.3 48.6C20.3 48.3 19.8 48.2 19.7 48.5Z" fill="black"/>
<path d="M51.5 62.2C55.3 59.9 56.9 55 58.4 51C60.2 46.2 60.9 41.4999 59 36.5999C58.2 34.4999 57.1 32.5 56.1 30.5C55 28.2 54.4 25.9 53.6 23.5C53 21.6 52.1 20 50.2 19.1C48.2 18.2 45.8 17.8 43.6 17.6C40.5 17.2 37.5 17.6 34.7 16.2C32.6 15.1 30.7 13.8 28.3 13.7C28 13.7 28 14.2 28.3 14.2C30.5 14.3 32.4 15.6 34.3 16.6C36.1 17.5 37.9 17.9 39.9 18C42.5 18.1 45 18.3 47.4 18.9C49.8 19.5 51.9 20.3 52.9 22.7C53.7 24.7 54 26.8 54.8 28.8C55.6 30.6 56.5 32.4 57.4 34.2C58.4 36.2 59.3 38.2999 59.6 40.5C60 43.1 59.6 45.8 58.8 48.4C58 51 56.9 53.5999 55.8 56.0999C54.7 58.3999 53.4 60.5 51.3 61.9C51 62 51.2 62.4 51.5 62.2Z" fill="black"/>
<path d="M27.6 13.5C27.2 11 28.6 8.59996 29.4 6.29996C30.2 4.19996 30.7 1.09996 33.3 0.499964C33.5 0.499964 33.7 0.399964 33.9 0.499964C34.1 0.699964 34.4 0.899964 34.6 1.09996C34.7 1.29996 34.5 1.89996 34.4 2.19996C34.3 2.79996 34.1 3.49996 34 4.09996C33.7 5.39996 33.4 6.59996 33 7.89996C32.6 9.09996 32.3 10.4 31.8 11.6C31.4 12.7 31 13.8 31 15C31 15.3 31.5 15.3 31.5 15C31.5 13.7 32 12.5 32.4 11.3C32.8 10.1 33.2 8.89996 33.5 7.69996C33.8 6.49996 34.1 5.29996 34.4 4.09996C34.5 3.49996 34.7 2.89996 34.8 2.29996C35 1.79996 35.1 1.39996 35 0.899964C34.7 -0.800036 32.2 0.299964 31.4 0.999964C29.8 2.39996 29.5 4.69996 28.7 6.59996C27.8 8.89996 26.6 11.1 27 13.7C27.2 13.9 27.6 13.8 27.6 13.5Z" fill="black"/>
<path d="M33.3 6.49995C35.1 8.19995 37.6 8.39995 40 8.19995C41.2 8.09995 42.5 7.99995 43.7 7.79995C45.2 7.49995 46.4 6.79995 47.8 6.09995C50.8 4.39995 54.1 3.69995 57.5 3.29995C59 3.09995 60.7 2.69995 62.2 2.99995C63.9 3.29995 65.3 4.99995 66.5 6.09995C68.8 8.19995 71 10.6 72.5 13.3C73.8 15.8 74.6 18.5 75.3 21.3C75.9 24 76.5 26.8 77.3 29.5C77.7 30.7 78.1 31.8 78.6 33C78.9 33.6 79.1 34.1 79.4 34.7C79.8 35.3 80.4 36 80.6 36.6C81.1 37.9 79.7 38.2 78.7 38.7C77.9 39 77.1 39.3 76.2 39.6C74.5 40.1 72.8 40.5 71.1 40.8C67.4 41.4 63.6 41.3 59.9 40.6C59.6 40.5 59.5 41 59.8 41.1C66.3 42.3 73 41.7 79.1 39.2C79.8 38.9 81.3 38.5 81.5 37.6C81.6 37.3 81.4 37 81.3 36.8C80.9 36 80.3 35.3 79.9 34.6C78.4 31.9 77.6 28.9 76.9 26C75.6 20.2 74.5 14.5 70.7 9.79995C68.8 7.49995 66.4 4.99995 63.9 3.39995C62.8 2.59995 61.6 2.59995 60.3 2.79995C58.6 2.99995 57 3.19995 55.3 3.39995C53.4 3.69995 51.5 4.19995 49.7 4.89995C47.9 5.59995 46.4 6.89995 44.5 7.39995C42.8 7.89995 40.8 8.09995 39 8.09995C37.1 8.09995 35.2 7.79995 33.8 6.49995C33.4 5.89995 33.1 6.29995 33.3 6.49995Z" fill="black"/>
<path d="M36.9 8.39997C38.4 9.79997 39.3 11.6 39.6 13.6C39.7 14.6 39.7 15.6 40.1 16.5C40.5 17.4 41.1 18.2 41.7 18.9C41.9 19.1 42.3 18.8 42.1 18.5C41.4 17.7 40.7 16.8 40.4 15.8C40.1 14.8 40.2 13.7 40 12.7C39.6 10.9 38.6 9.29997 37.3 7.99997C37 7.89997 36.7 8.19997 36.9 8.39997Z" fill="black"/>
<path d="M37.5 8.89992C44.6 9.99992 48 17.5999 53.6 21.1999C56.4 22.9999 59.6 24.5999 62.8 25.6999C66.3 26.8999 69.7 26.5999 73.4 25.8999C73.7 25.7999 73.6 25.3999 73.3 25.3999C71.2 25.7999 69.2 26.1999 67.1 26.0999C65.3 25.9999 63.7 25.4999 62 24.8999C58.7 23.5999 55.1 21.8999 52.3 19.6999C47.5 15.8999 44.3 9.39992 37.7 8.49992C37.3 8.39992 37.2 8.89992 37.5 8.89992Z" fill="black"/>
</g>
<defs>
<clipPath id="clip0">
<rect width="81.3" height="78.8" fill="white"/>
</clipPath>
</defs>
</svg>
