<svg xmlns="http://www.w3.org/2000/svg" viewBox="0 0 81.3 78.79"><defs><style>.cls-1{fill:#c6ecac;}.cls-2{fill:#ffcb43;}</style></defs><g id="Ebene_2" data-name="Ebene 2"><g id="Ebene_1-2" data-name="Ebene 1"><path class="cls-1" d="M77.91,33.79c-1.8-3.4-1.36-7.6-1.9-11.3a20,20,0,0,0-5.45-10.68C68,8.93,64.76,5.3,60.84,4.36,56.29,3.28,52.3,5.5,48.15,6.94c-2.28.79-5.29.73-6.31,3.37,0,.1,0,.19-.07.29a2.74,2.74,0,0,0-2.32-.51,2.56,2.56,0,0,0-1.75,3.07,8,8,0,0,0,7.72,6.57,2.44,2.44,0,0,0,2.16-1.23c.07-.15.11-.3.16-.44,1,1.31,2,2.57,3,3.84l3.77,5a15.54,15.54,0,0,0,5,10.37,15.9,15.9,0,0,0,16.15,3,2.58,2.58,0,0,0,1.61-3.3A2.45,2.45,0,0,0,77.91,33.79ZM50.49,13.19c-.12-.22,0,0,0,0Zm12.82,5c1.08,1.77,2.15,3.55,3.19,5.34l.25.44c0,.62,0,1.22,0,1.78,0,.11,0,.21,0,.32a38,38,0,0,0-5.29-10.56A15.66,15.66,0,0,1,63.31,18.19Zm2.63,17.06A2.43,2.43,0,0,0,68,33.6a13,13,0,0,0,1.27,2.59,11.07,11.07,0,0,1-3.41-.74A.76.76,0,0,0,65.94,35.25ZM59.51,9.19a1.09,1.09,0,0,1,.24.07,1,1,0,0,0,0,.17,29.66,29.66,0,0,0-3.39-.21A7.55,7.55,0,0,1,59.51,9.19ZM50,13.91c-.07.11-.22-.13,0,0ZM51.77,15c-.24-.32-.49-.63-.72-1,.3,0,.59,0,.71,0l1.71.08c.1,1.26.25,2.51.46,3.76l-.22-.28Z"/><path class="cls-2" d="M56.74,33.81c-.27-1-.55-2-.86-3-1-3.13-2.17-6.7-4.57-9s-5.92-3-9.25-3.47a37.19,37.19,0,0,1-10.75-3.63,3,3,0,0,0-2.59.13,36.67,36.67,0,0,0-3.63-.62,3.6,3.6,0,0,0-.81-.11l-.18,0a13.94,13.94,0,0,0-7.73,1.42c-4.07,2.18-6.92,6.88-8.52,11.06-1.8,4.69-1.8,9.85-3.14,14.66S1.29,51.05,1.59,56.28a17.23,17.23,0,0,0,.49,3.15,13.79,13.79,0,0,0,.45,5.91,21.29,21.29,0,0,0,7.72,10c4.21,3,10.05,2.25,14.79,1.19a2,2,0,0,0,.63-.27c6.34,3.21,13.92,4,19.7-1.08a12.34,12.34,0,0,0,4.1-10c2.26-.15,4.46-3,5.61-4.68a20.53,20.53,0,0,0,3.14-7.7,11,11,0,0,0,1-2.91A22.06,22.06,0,0,0,56.74,33.81ZM42.67,42c-.07.47-.14.94-.2,1.4q-1,2.34-2.17,4.65c0-.43-.08-.85-.11-1.28q1.08-3.31,2.35-6.57C42.59,40.75,42.63,41.35,42.67,42ZM21,40.41c0,.47,0,.94-.07,1.41l-.48-4.38h.12a2.59,2.59,0,0,0,1.11-.27A9.51,9.51,0,0,0,21,40.41ZM38.6,62.64l1.46-1.13c-.34.58-.7,1.16-1.07,1.73A4.43,4.43,0,0,0,38.6,62.64ZM32.85,35a2.75,2.75,0,0,0,.26.22l0,1.48c0,1.18.11,2.36.19,3.53a2.3,2.3,0,0,0-.45,0,4.9,4.9,0,0,0-.78.09C32,38.18,32,36.11,31.91,34Zm-9.26.42a3.78,3.78,0,0,0-.64.3.32.32,0,0,1,0-.09l.18-1.07C23.3,34.84,23.45,35.12,23.59,35.41Zm3.16-6.64.06,2q-1.1-2.1-2.31-4.12l0-.11Zm25.91,9.48c0,.1,0,.21.07.31a48.9,48.9,0,0,1,1,6.07C53.5,42.83,53.16,40.56,52.66,38.25Zm-.13-.59c-.15-.64-.3-1.28-.47-1.91a.56.56,0,0,1,0,.08C52.26,36.44,52.39,37.05,52.53,37.66Zm-15-15.07a4.8,4.8,0,0,0-2.35.75l-.74-1.89a32.41,32.41,0,0,0,3.17,1Zm11,3.68c-.78-.44-1.57-.84-2.39-1.21-.15-.32-.31-.64-.47-.95A6.07,6.07,0,0,1,48.56,26.27Zm-28.34-7a4.73,4.73,0,0,0-1.79,2.05,5.61,5.61,0,0,0-1.53,0c.2-.19.38-.39.59-.57A6.89,6.89,0,0,1,20.22,19.3ZM13,71.1l.48,0a2.93,2.93,0,0,0,2.32.5,5.25,5.25,0,0,0,1.63-.56l.25,0c.62.42,1.22.86,1.79,1.33A10.36,10.36,0,0,1,13,71.1Z"/></g><g id="Striche"><path d="M81.09,36.54c-.38-.77-1-1.46-1.44-2.22a32.7,32.7,0,0,1-3-8.62c-1.33-5.76-2.41-11.49-6.25-16.19a32.05,32.05,0,0,0-6.77-6.44,5.12,5.12,0,0,0-3.62-.63c-1.66.16-3.32.35-5,.63a25.65,25.65,0,0,0-5.58,1.54c-1.76.73-3.32,1.95-5.16,2.49a20.63,20.63,0,0,1-5.48.68,7.45,7.45,0,0,1-4.93-1.4c.2-.77.41-1.55.58-2.33.14-.58.26-1.17.38-1.76A3.84,3.84,0,0,0,35.05.9c-.3-1.71-2.81-.58-3.58.09-1.6,1.41-1.93,3.67-2.66,5.57-.85,2.2-2,4.37-1.72,6.79a56.64,56.64,0,0,0-7.36.5,7.79,7.79,0,0,0-3.81,1.27,19.75,19.75,0,0,0-3.15,3.43,24.74,24.74,0,0,0-4.2,8.28c-1.12,3.43-2.5,6.76-3.89,10.09C2,43.32-.62,50.16.13,57.23a20.92,20.92,0,0,0,7.62,14,20.87,20.87,0,0,0,18.77,3.65.23.23,0,0,0,.17-.28A16.31,16.31,0,0,0,33,76.24a40.2,40.2,0,0,0,8.82-.76c2.51-.42,5.2-1,6.86-3.14s2.26-5.18,2.77-7.78c.17-.85.3-1.7.42-2.55,3.58-2.41,5.13-7.13,6.6-11A22.29,22.29,0,0,0,60.11,41a34,34,0,0,0,18.78-2c.72-.3,2.23-.65,2.4-1.59A1.26,1.26,0,0,0,81.09,36.54ZM36.89,8.14a.22.22,0,0,0,0,.3,8.81,8.81,0,0,1,2.7,5.19,10.54,10.54,0,0,0,.48,2.9,5.88,5.88,0,0,0,.5.92,14.31,14.31,0,0,1-5.86-1.23c-1-.53-2.05-1.13-3.09-1.61a12.68,12.68,0,0,1,.86-3.36c.4-1.18.76-2.37,1.1-3.57.07-.26.13-.52.19-.77A6.81,6.81,0,0,0,36.89,8.14ZM29.43,6.33C30.19,4.27,30.7,1.1,33.3.58a2.05,2.05,0,0,1,.55,0l.72.56c.11.24-.1.81-.15,1.07-.13.63-.26,1.26-.41,1.89s-.34,1.36-.52,2a.24.24,0,0,0-.2.41l.08.06c-.11.42-.2.84-.32,1.25-.35,1.25-.74,2.48-1.15,3.7a11.81,11.81,0,0,0-.74,2.89,10.34,10.34,0,0,0-1.63-.53l.75,0c.32,0,.32-.49,0-.5-.9,0-1.8-.05-2.7-.05C27.29,10.85,28.6,8.59,29.43,6.33Zm29.41,42a58.21,58.21,0,0,1-3,7.73,13.37,13.37,0,0,1-3.91,5.34,33.33,33.33,0,0,0,.16-6.47A25.18,25.18,0,0,0,44.24,38c-.24-.22-.59.13-.35.35,6.43,5.84,8.54,14.81,7.55,23.3l-.18.12a.25.25,0,0,0,.1.45,34.58,34.58,0,0,1-1.72,7.12,7.88,7.88,0,0,1-6.1,5.27,44.39,44.39,0,0,1-7.94,1.11A17.21,17.21,0,0,1,27,74.22,15.56,15.56,0,0,1,23.4,72a8.91,8.91,0,0,1-2.22-3.77,34.77,34.77,0,0,1-1-19.54c.08-.31-.41-.45-.48-.13a35.45,35.45,0,0,0,.61,18.73c.83,2.63,1.87,4.69,4.25,6.2.57.36,1.15.68,1.73,1a20.41,20.41,0,0,1-17-2.68A20.41,20.41,0,0,1,.73,58.08c-.95-6.47,1.14-12.9,3.53-18.83C5.5,36.17,6.86,33.12,8,30c1.06-2.88,1.74-6,3.35-8.62a30.15,30.15,0,0,1,3.2-4.17,7.25,7.25,0,0,1,4.5-2.76,47.78,47.78,0,0,1,9-.61.24.24,0,0,0,.2.35,8,8,0,0,1,2.83.73v0a.24.24,0,0,0,.43.15c.94.45,1.84,1,2.77,1.46a12.6,12.6,0,0,0,5.56,1.36L41,18c.24.32.5.63.76.94s.56-.11.35-.36L41.63,18a33.6,33.6,0,0,1,5.8.81c2.4.57,4.5,1.39,5.48,3.84.8,2,1.1,4.08,1.92,6s1.7,3.58,2.56,5.37a22.69,22.69,0,0,1,2.23,6.34h0c-.23.06-.3.41,0,.46l.09,0A18.21,18.21,0,0,1,58.84,48.28Zm19.71-9.72c-.81.33-1.64.63-2.48.9A34.57,34.57,0,0,1,71,40.65a33.51,33.51,0,0,1-10.9-.18,16.49,16.49,0,0,0-1-3.82c-.82-2.09-1.9-4.07-2.88-6.09a46.1,46.1,0,0,1-2.45-7,6.36,6.36,0,0,0-3.44-4.35,22.48,22.48,0,0,0-6.62-1.54c-.83-.1-1.65-.15-2.46-.19a5.22,5.22,0,0,1-.84-1.6c-.29-1-.19-2.07-.42-3.09A9.3,9.3,0,0,0,38.15,9c6.67,1.43,10,8.68,15.44,12.2a43,43,0,0,0,9.23,4.54c3.54,1.21,6.95.85,10.56.18.31-.06.18-.54-.14-.48a26.8,26.8,0,0,1-6.24.66,16.48,16.48,0,0,1-5.08-1.22,39,39,0,0,1-9.69-5.25c-4.81-3.79-8-10.26-14.6-11.25h0l-.2-.22a15.27,15.27,0,0,0,2.62,0,26.7,26.7,0,0,0,3.66-.45,14.48,14.48,0,0,0,4-1.73,26.46,26.46,0,0,1,9.65-2.81,15.42,15.42,0,0,1,4.68-.31c1.66.33,3.13,2,4.35,3.1a28.62,28.62,0,0,1,6,7.25,32.48,32.48,0,0,1,2.77,8c.65,2.71,1.16,5.47,2,8.15a30.59,30.59,0,0,0,1.26,3.47c.26.58.53,1.15.84,1.7a18.61,18.61,0,0,1,1.24,1.94C81,37.81,79.56,38.15,78.55,38.56Z"/></g></g></svg>