<svg xmlns="http://www.w3.org/2000/svg" viewBox="0 0 45.39 63.76"><defs><style>.cls-1{fill:#f82960;}.cls-2{fill:#fff;}</style></defs><g id="Ebene_2" data-name="Ebene 2"><g id="Ebene_1-2" data-name="Ebene 1"><path class="cls-1" d="M18.18,24.59A8.25,8.25,0,0,0,14.81,19a2.33,2.33,0,0,0-3.36.92,2,2,0,0,0-.58-.4,0,0,0,0,0,0,0c-1.15-2.05-3.62-1.5-5.43-.88s-3.69,1.7-3.71,3.95A8.36,8.36,0,0,0,2,24.43a9.58,9.58,0,0,0-.42,1.17,16.27,16.27,0,0,0-.55,4,16.15,16.15,0,0,0,.19,4.05,5,5,0,0,0,3.11,3.79,3.25,3.25,0,0,0,1.37.13,8.41,8.41,0,0,0,6.27.56,6.1,6.1,0,0,0,2.94-2.71,6.68,6.68,0,0,0,.93-.6,7.29,7.29,0,0,0,2.45-4.49c.05-.29.07-.58.09-.86a7.61,7.61,0,0,0,.19-1.08A13.1,13.1,0,0,0,18.18,24.59Zm-5.41.66a12.91,12.91,0,0,1,.53,1.81s.07.4.08.48a7.34,7.34,0,0,1,0,.81c0,.08,0,.16,0,.25l0,.09,0,.07a7.17,7.17,0,0,0-1.85-2.58,2.53,2.53,0,0,0-2.73-.52l0,0v0c0-.16.11-.31.17-.47l0-.11c.11-.22.23-.44.35-.65l0-.07.12-.12a2.68,2.68,0,0,0,2.36-1c.15.28.31.55.44.84A7.72,7.72,0,0,1,12.77,25.25Z"/><path class="cls-1" d="M39.06,6.47a2.5,2.5,0,0,0-3.42.89,2.53,2.53,0,0,0,.81,3.35l0,0c-.18-.13,0,.08.05.08l.2.38c0,.11.11.42.13.47s0,.18,0,.27a.43.43,0,0,0,0,.05,4.07,4.07,0,0,0-1.72-1.64,2.52,2.52,0,0,0-2.9.33l-.09-.51a.06.06,0,0,0,0,0s.17-.47.17-.5.1-.19.16-.28l.1-.11.06-.05.07,0a.73.73,0,0,0,.21,0,2.51,2.51,0,0,0,2.5-2.5,2.55,2.55,0,0,0-2.5-2.5,5.24,5.24,0,0,0-4.58,2.41l-.17.26a2.06,2.06,0,0,0-.67.53c-2.08,2.41-4.65,4.87-5.3,8.12s.26,6.67,3.19,8.38a2.53,2.53,0,0,0,3.67-1.49l0-.06.09.19a2.55,2.55,0,0,0,3.34.94,2.55,2.55,0,0,0,3.08,2,3.71,3.71,0,0,0,2.78-3.12c0-.27.06-.55.08-.82a58.9,58.9,0,0,0,2.84-6.35C42.41,12,41.84,8.55,39.06,6.47Zm-2.58,4.27,0,0,.07.06S36.49,10.76,36.48,10.74Z"/><path class="cls-1" d="M43,50.05a13.09,13.09,0,0,0-1.88-5.69,6.32,6.32,0,0,0-6.3-2.69A2.49,2.49,0,0,0,36,46.51h0c-.1,0-.07,0,.07,0l.14,0c.28.09.3.1.07,0l.3.19s0,0,0,0a2.7,2.7,0,0,0-2.25,2.48,2.13,2.13,0,0,1,0,.25,2.64,2.64,0,0,0-2.88.64,3,3,0,0,0-.7,1.21,10.47,10.47,0,0,1,0-1.12l0-.37v-.07c.06-.32.12-.64.21-1s.15-.55.24-.82.09-.23.13-.35v0l.08-.18a2.57,2.57,0,0,0-.9-3.42,2.53,2.53,0,0,0-3.42.9A14.27,14.27,0,0,0,28,58.78a7.06,7.06,0,0,0,3.2,2.94,3.53,3.53,0,0,0,1.14.21,2.63,2.63,0,0,0,3.43.92,3.44,3.44,0,0,0,1.41-1.57,2.75,2.75,0,0,0,2.36-.05,6.85,6.85,0,0,0,3.53-4.55A15.29,15.29,0,0,0,43,50.05Zm-7-3.54h0ZM31.25,57.82c0,.21-.1.16,0,0Z"/></g><g id="Striche"><path d="M19.43,28.1a3.08,3.08,0,0,0,.81-.51,1.7,1.7,0,0,0,.17-2.13,2.49,2.49,0,0,0-2.1-1,1.22,1.22,0,0,0,.34-.78,1.52,1.52,0,0,0-.4-1,1.46,1.46,0,0,0-.88-.48,1.88,1.88,0,0,0,.52-1.61,1.36,1.36,0,0,0-.59-.9,2.72,2.72,0,0,0-1.13-.27,2.19,2.19,0,0,0-1.9.82,2.62,2.62,0,0,0-.59-1.13,11.33,11.33,0,0,0-.78-.91,1.2,1.2,0,0,0-.93-.41,2.3,2.3,0,0,0-1.1.46,1.79,1.79,0,0,0-.59.72,3.34,3.34,0,0,0-.89-.52,6.06,6.06,0,0,0-4.05-.23.24.24,0,0,0-.15.34,1.94,1.94,0,0,0-.67,1.15,1.06,1.06,0,0,0-.19-.06c-.53-.1-1,.23-1.47.28a.23.23,0,0,0-.18.13,2.61,2.61,0,0,0-1.34,1.43,1.25,1.25,0,0,0,.15,1.29,1.34,1.34,0,0,0,.25.23l-.07,0a1.05,1.05,0,0,0-.79.18A1.78,1.78,0,0,0,.25,24c-.18.63.26,1.08.78,1.35a2.82,2.82,0,0,0-1,2.1,3,3,0,0,0,.87,2.43,2.78,2.78,0,0,0,.59.37,0,0,0,0,1,0,0,4.62,4.62,0,0,1-.82,1.21A4.07,4.07,0,0,0,.1,32.88a2.34,2.34,0,0,0,.62,2.48,2,2,0,0,0,1.81.23,2.56,2.56,0,0,0,.29,2.14,2.52,2.52,0,0,0,2.3,1.15,2.88,2.88,0,0,0,1.27-.69,2.08,2.08,0,0,0,.51-.56,1.57,1.57,0,0,0,.28.37A4.24,4.24,0,0,0,10,39a3,3,0,0,0,1.44-.24,1.38,1.38,0,0,0,.52-.89l0,0a3.21,3.21,0,0,0,1.44,1,3.27,3.27,0,0,0,1.7,0c1-.26,2-1,1.77-2.2a3,3,0,0,0-1.44-1.83,2.15,2.15,0,0,0,2.13-.51A2.43,2.43,0,0,0,18,33.22a4.35,4.35,0,0,0,.1-1.39,1.46,1.46,0,0,0-.05-.2,4.13,4.13,0,0,0,1.49-.19A.86.86,0,0,0,20.1,31a3.12,3.12,0,0,0,.18-.79,2.45,2.45,0,0,0-.2-1.58A1.13,1.13,0,0,0,19.43,28.1Zm.34-2.63A1.32,1.32,0,0,1,20.06,27a1.83,1.83,0,0,1-.8.59c-.36.18-.72.37-1.09.54a1.14,1.14,0,0,1-1,.1,1.2,1.2,0,0,1-.55-.77,2.84,2.84,0,0,1,0-1.16,1.16,1.16,0,0,1,.45-.85.22.22,0,0,0,.12-.17,5.28,5.28,0,0,0,.69-.42A.26.26,0,0,0,18,25,2.33,2.33,0,0,1,19.77,25.47Zm-2-2.63a1.05,1.05,0,0,1,.39.64.75.75,0,0,1-.3.76,5.13,5.13,0,0,1-.79.52,1.24,1.24,0,0,1-.82.25,1.21,1.21,0,0,1-.62-.44,2.86,2.86,0,0,1-.46-.74.79.79,0,0,1,.77-1.09.25.25,0,0,0,.42.2A1.07,1.07,0,0,1,17.74,22.84ZM14.41,34.43a5.17,5.17,0,0,0-1.36,0,2.22,2.22,0,0,0,.48-.94,3.74,3.74,0,0,0,.07-.75,1.76,1.76,0,0,0-.1-.79,1.47,1.47,0,0,0-.74-.69,3.61,3.61,0,0,0,.93-.75,1.05,1.05,0,0,0,.08-1.21,3.78,3.78,0,0,0-1.84-2.1,1,1,0,0,0,.15-.24,2.42,2.42,0,0,0,1.68.72h0a.78.78,0,0,0-.09.21.24.24,0,0,0,.2.3,2.38,2.38,0,0,0,.43,1.89,3.46,3.46,0,0,0,.74.79l0,0a5,5,0,0,0-.88.78,2.1,2.1,0,0,0-.6,1.16A1.78,1.78,0,0,0,14.41,34.43Zm-5-.48a1.8,1.8,0,0,0,.38.6,5.9,5.9,0,0,0-1,0,1,1,0,0,0,.35-.34,2,2,0,0,0,0-1.47,5.15,5.15,0,0,0-.71-1.63,2.78,2.78,0,0,0-.26-.34,2.15,2.15,0,0,0,.34-.54,4.1,4.1,0,0,0,1.39,1.12,4.78,4.78,0,0,0,.48.19,2.5,2.5,0,0,0-.38.15,1.3,1.3,0,0,0-.61.94A2.25,2.25,0,0,0,9.41,34ZM6,24.42a2.14,2.14,0,0,1,.51.84,1.26,1.26,0,0,0,.07.86,2.11,2.11,0,0,1,0,.25v0a.3.3,0,0,0,0,.15s0,.05,0,.08-.1.12-.22.1l-.28,0a.2.2,0,0,0-.21,0l-.29-.05A.78.78,0,0,1,5,26.38a.86.86,0,0,1-.08-.61c.08-.49.36-1.08,1-1,.13,0,.25-.13.25-.25A.19.19,0,0,0,6,24.42Zm-.17,2.76h.06c.34.05.71.13,1-.18A1.54,1.54,0,0,0,7,26.81a1.27,1.27,0,0,1,.28.06,3.31,3.31,0,0,0,.47.29,2,2,0,0,1,.58,1.25c0,.09,0,.18,0,.27a1.66,1.66,0,0,0-.14.66c0,.09,0,.17,0,.26a1.89,1.89,0,0,1-.45.89.84.84,0,0,0-.61-.1c-.23,0-.22.3-.08.42a4.54,4.54,0,0,1-.74,0,4.28,4.28,0,0,1-1.12-.22A1.76,1.76,0,0,1,4,29.14a7,7,0,0,0,.28-1.05,1.56,1.56,0,0,1,.44-.41A10.32,10.32,0,0,1,5.87,27.18Zm5.86-1.33c.09.06,0,.36,0,.45a1.44,1.44,0,0,1-.14.55c-.2.33-.69.33-1,.35a5.65,5.65,0,0,1-2.51-.41l-.07,0a1.77,1.77,0,0,0-.52-.33,1.47,1.47,0,0,1-.31-.3l0-.07a2.41,2.41,0,0,0,0-.71.14.14,0,0,0,0-.07.82.82,0,0,1,.12-.2,1.7,1.7,0,0,1,1-.41,4,4,0,0,1,1.15-.05,4.45,4.45,0,0,1,2.34.9h0A.26.26,0,0,0,11.73,25.85ZM9.27,27.63a2.54,2.54,0,0,0-.54.44,3.39,3.39,0,0,0-.21-.61A5.06,5.06,0,0,0,9.27,27.63ZM4.78,30.94,5,31a2.09,2.09,0,0,0-1,1.41,4.68,4.68,0,0,0-.61-1,2.11,2.11,0,0,0-.66-.49c-.2-.1-.47-.22-.55-.44a1.65,1.65,0,0,0,1-.2,1.26,1.26,0,0,0,.41-.42A2.23,2.23,0,0,0,4.78,30.94Zm-.57,3.32a1.3,1.3,0,0,0,.11-.37,2.54,2.54,0,0,0,.62.69H4A1.42,1.42,0,0,0,4.21,34.26Zm.28-1.49a1.54,1.54,0,0,1,1.25-1.52s0,0,.06,0l.35.06a2.94,2.94,0,0,0,1.53-.12l.1-.07a3.48,3.48,0,0,1,.32.45,4.86,4.86,0,0,1,.49,1.15,2,2,0,0,1,.13,1.2c-.14.33-.68.51-1,.62a2.7,2.7,0,0,1-2.21-.13A2,2,0,0,1,4.49,32.77Zm4.29-3a.47.47,0,0,1-.06-.19,4.5,4.5,0,0,0,.07-.72,2.35,2.35,0,0,1,1.19-1,.28.28,0,0,0,.12-.12,6.12,6.12,0,0,0,1,0l.3-.08s0,0,0,0A2.38,2.38,0,0,1,13,29c.15.28.5.74.36,1.07a2.06,2.06,0,0,1-.79.73,2.25,2.25,0,0,1-1.36.42.26.26,0,0,0-.21,0,2.42,2.42,0,0,1-.56-.14A3.3,3.3,0,0,1,8.78,29.73Zm7-3.53a1.3,1.3,0,0,1-.38.73,1.43,1.43,0,0,1-.27.15,1.34,1.34,0,0,0-.88.15H13.9c-.55,0-1.32-.15-1.55-.75a1.35,1.35,0,0,1,.49-1.42,2,2,0,0,1,1.78-.4.25.25,0,0,0,.3-.18.61.61,0,0,0,.07.1,3,3,0,0,0,.53.6.21.21,0,0,0,.17.26C16,25.48,15.82,26,15.78,26.2ZM16,27a2.46,2.46,0,0,0,0,.28c0,.13,0,.26.08.38a1.69,1.69,0,0,0-.41-.34,1.05,1.05,0,0,0,.11-.07A1.57,1.57,0,0,0,16,27Zm-1.17,3c-.31-.43-.7-1.2-.4-1.71a.24.24,0,0,0-.15-.35.41.41,0,0,1,.15-.17,2.54,2.54,0,0,0,.72-.13l.11,0a1.77,1.77,0,0,1,.93,1.21A2.1,2.1,0,0,1,16,30.43a.21.21,0,0,0-.06.1c-.05.07-.12.16-.21.17s-.27-.12-.35-.18A2.52,2.52,0,0,1,14.84,30Zm-.64-9.09a.21.21,0,0,0,.28-.09,1.55,1.55,0,0,1,1.33-.89c.54,0,1.36,0,1.55.63A1.33,1.33,0,0,1,16.81,22a1.49,1.49,0,0,1-1.63,0,3.52,3.52,0,0,1-1-1A.34.34,0,0,0,14.2,20.86Zm.67,1.47c.08.06.18.09.26.14a1.28,1.28,0,0,0-.55,1,1.37,1.37,0,0,0,.17.74,2.51,2.51,0,0,0-2.14.43,2.25,2.25,0,0,0-.63.77.26.26,0,0,0-.09-.29,4.89,4.89,0,0,0-2.75-1,3.13,3.13,0,0,0-2.28.6,2.71,2.71,0,0,0-.8-.95.25.25,0,0,0-.25.44,1.42,1.42,0,0,1,.13.12s-.06,0-.1,0A1.37,1.37,0,0,0,4.46,25.4,1.26,1.26,0,0,0,5,27a2.63,2.63,0,0,0-.68.32l-.07.06a3.06,3.06,0,0,0-.85-1.11c-.14-.15-.27-.31-.42-.46a1.32,1.32,0,0,0,.9-.15,1.66,1.66,0,0,0,.5-1,1.24,1.24,0,0,0-.1-1l0,0a1.29,1.29,0,0,0,1-.5,2.37,2.37,0,0,0,.31-1.34v-.08a4.43,4.43,0,0,0,1.67.6c1.05.15,2.56,0,3.06-1.13A3.46,3.46,0,0,0,10.68,20a3.72,3.72,0,0,0,1.55,1.52,1.62,1.62,0,0,0,1.58-.18A4,4,0,0,0,14.87,22.33Zm-3.1-4a.65.65,0,0,1,.72.16,7.87,7.87,0,0,1,.6.68c.27.32.72.8.71,1.27-.16-.18-.52-.07-.42.2a3.24,3.24,0,0,0,.17.32,1.12,1.12,0,0,1-1.1.15,3.26,3.26,0,0,1-1.4-1.42.26.26,0,0,0-.38-.05s0-.07,0-.11a.69.69,0,0,0-.07-.15.13.13,0,0,0,.05-.07A1.69,1.69,0,0,1,11.77,18.3Zm-5.84.37a.21.21,0,0,0,.15-.14,5.41,5.41,0,0,1,2.3.07,5.16,5.16,0,0,1,1.32.51.87.87,0,0,1,.48.53,1.5,1.5,0,0,1-.09.75,1.67,1.67,0,0,1-.8,1.16,3.25,3.25,0,0,1-1.41.3A3.51,3.51,0,0,1,5.55,21a2.16,2.16,0,0,0-.21-.62A1.81,1.81,0,0,0,5,20,1.3,1.3,0,0,1,5.93,18.67ZM1.76,21.76a2.17,2.17,0,0,1,1.47-1.44s0,0,0,0l.63-.18a.79.79,0,0,1,.62.12.78.78,0,0,0,0,.21,2,2,0,0,0,.53.86h0A4.1,4.1,0,0,1,5,22.47c-.17.88-1.16.68-1.8.54S1.54,22.62,1.76,21.76Zm-1,2.7A.78.78,0,0,1,1,23.74a.79.79,0,0,1,.32-.23,1.29,1.29,0,0,1,.48,0,.39.39,0,0,0,.19,0,5.61,5.61,0,0,1,1.51.29,1.28,1.28,0,0,1,.34.14.32.32,0,0,1,.08.28,2.06,2.06,0,0,1-.2.81.4.4,0,0,1-.22.27,1,1,0,0,1-.43,0,4.7,4.7,0,0,1-.92-.09C1.68,25.13.93,25,.74,24.46Zm.47,5a2.44,2.44,0,0,1-.65-1.85,2.27,2.27,0,0,1,.88-2s.05-.06.07-.1a5,5,0,0,0,.65.14.24.24,0,0,0,.29.28s.09.08.11.11l.19.21c.15.15.3.31.44.47s.28.29.41.44a.57.57,0,0,1,.18.55l0,.16a1.86,1.86,0,0,0-.24.56,1.84,1.84,0,0,0,0,.57,1.29,1.29,0,0,1-.49.8A1.58,1.58,0,0,1,1.21,29.49ZM2.65,35a1.68,1.68,0,0,1-1.45,0c-.79-.39-.79-1.4-.6-2.14a3.93,3.93,0,0,1,.65-1.35c.19-.25.41-.49.57-.75a1.34,1.34,0,0,0,.45.4,4.63,4.63,0,0,1,.54.29,2,2,0,0,1,.46.54c.45.72.91,1.65.21,2.37a1.84,1.84,0,0,1-.25.23A1,1,0,0,0,2.65,35Zm3.53,2.69a2.87,2.87,0,0,1-.92.62,1.86,1.86,0,0,1-1.9-.71,2.11,2.11,0,0,1-.19-2.32l.15-.08.14-.11a3,3,0,0,1,.42,0c.42,0,.86,0,1.28,0a1.39,1.39,0,0,1,1,.61,2,2,0,0,1,.49,1A1.16,1.16,0,0,1,6.18,37.71ZM7,35.24a1.23,1.23,0,0,0-.22.46l-.07-.11a3.75,3.75,0,0,0-.37-.44,3.76,3.76,0,0,0,.75,0Zm4.48,2.41a2,2,0,0,1-.2.6.74.74,0,0,1-.47.22,3.71,3.71,0,0,1-.67.06,4.12,4.12,0,0,1-2.26-.64,1.35,1.35,0,0,1-.69-1,2.59,2.59,0,0,1,.11-1.21,1.27,1.27,0,0,1,1-.57,5.12,5.12,0,0,1,1.61-.07.2.2,0,0,0,.23-.2,2,2,0,0,0,.61.32,2.5,2.5,0,0,1,.66.59,2,2,0,0,0-.12.76,1.88,1.88,0,0,0,.25.82Zm.18-2.35v0h0ZM11,34.74l-.2-.14a.21.21,0,0,0-.2,0l-.12-.06a1.59,1.59,0,0,1-.61-1.67,1.31,1.31,0,0,1,.2-.54.88.88,0,0,1,.39-.25,3.67,3.67,0,0,0,.73-.32,2.67,2.67,0,0,0,1.08-.18s0,.06.07.08a1.39,1.39,0,0,1,.71.5,1.08,1.08,0,0,1,.08.5,3.82,3.82,0,0,1,0,.59,1.87,1.87,0,0,1-1,1.41A1.53,1.53,0,0,1,11,34.74Zm5.2,1.58a1.27,1.27,0,0,1,.06,1.35,2,2,0,0,1-1.05.68,3,3,0,0,1-1.36.14,2.36,2.36,0,0,1-1.29-.66,4.44,4.44,0,0,1-.5-.56,2.54,2.54,0,0,0-.09-1.52.61.61,0,0,1,.07-.14,2.15,2.15,0,0,1,2-.71h0A3,3,0,0,1,16.17,36.32Zm1.37-3.39a2.94,2.94,0,0,1-.27.93c-.34.64-1.17.65-1.81.51a1.56,1.56,0,0,1-1.32-1.32,1.48,1.48,0,0,1,.47-1,5.3,5.3,0,0,1,1-.85s0,0,0,0a.62.62,0,0,0,.53-.11,1.73,1.73,0,0,0,.17-.21,1.2,1.2,0,0,1,1.27.94A3.13,3.13,0,0,1,17.54,32.93Zm2.24-2.72a1.78,1.78,0,0,1-.16.6c-.08.14-.32.18-.47.22a3.86,3.86,0,0,1-1.31.1,1.71,1.71,0,0,0-1.24-.76A2.92,2.92,0,0,0,16.74,29a2.14,2.14,0,0,0-.13-.48,1.27,1.27,0,0,0,1.12.36,3.36,3.36,0,0,0,1-.39.25.25,0,0,0,.23.08.71.71,0,0,1,.73.45A2.38,2.38,0,0,1,19.78,30.21Z"/><path class="cls-2" d="M10.05,22.43c.32-3.28.7-6.74,2.68-9.37a1.88,1.88,0,0,1,.8-.68.73.73,0,0,1,.9.34,11.9,11.9,0,0,0-2.55,5.15,7.28,7.28,0,0,0-.11,4.74c-.66,0-1.32-.1-2-.2"/><path d="M10.3,22.43a31,31,0,0,1,.88-5.51,11.88,11.88,0,0,1,1-2.55c.22-.41,1.48-2.59,2-1.52l0-.3a11.64,11.64,0,0,0-2.45,4.68c-.52,1.74-1,3.68-.27,5.44l.24-.31c-.64,0-1.28-.1-1.91-.19-.32,0-.45.44-.13.49.68.09,1.36.16,2,.2a.26.26,0,0,0,.24-.32c-.68-1.69-.23-3.51.27-5.18A11.22,11.22,0,0,1,14.6,12.9a.26.26,0,0,0,0-.3c-.41-.82-1.4-.5-1.89.05a9.24,9.24,0,0,0-1.64,2.88,25.61,25.61,0,0,0-1.31,6.9c0,.32.47.32.5,0Z"/><path d="M45,55.94a2.91,2.91,0,0,0-2.22-1,2.15,2.15,0,0,0,1.64-1.43,2.71,2.71,0,0,0-.18-1.38A4.39,4.39,0,0,0,43.74,51l-.13-.14a4.41,4.41,0,0,0,1.1-.76,1.09,1.09,0,0,0,.4-.67,2.32,2.32,0,0,0-.18-.81,2.84,2.84,0,0,0-.88-1.34,1.2,1.2,0,0,0-.9-.19,3.35,3.35,0,0,0,.44-.75,1.68,1.68,0,0,0-.72-2,2.45,2.45,0,0,0-2.43,0,1.16,1.16,0,0,0-.11-.87,1.55,1.55,0,0,0-.89-.7,1.48,1.48,0,0,0-.93,0,1.85,1.85,0,0,0-.35-1.69,1.28,1.28,0,0,0-.92-.47,2.63,2.63,0,0,0-1.16.33,2.11,2.11,0,0,0-1.23,1.59,2.39,2.39,0,0,0-.89-.64c-.35-.15-.71-.29-1.07-.42a1.42,1.42,0,0,0-1.14-.05,2.15,2.15,0,0,0-.81.93,1.92,1.92,0,0,0-.23,1,3.24,3.24,0,0,0-1.12,0A6,6,0,0,0,26,45.07a.23.23,0,0,0,0,.36,1.9,1.9,0,0,0,0,1.33,1.32,1.32,0,0,0-.3.08c-.46.19-.67.64-1.06.91a.24.24,0,0,0-.11.22,2.56,2.56,0,0,0-.46,2,1.22,1.22,0,0,0,.76.91,1.33,1.33,0,0,0,.3.06s0,.05-.06.08a1.14,1.14,0,0,0-.56.43,1.71,1.71,0,0,0-.18,1.17,1.09,1.09,0,0,0,.69.73,1.53,1.53,0,0,0,.6.08,3.28,3.28,0,0,0,2.09,4,2.41,2.41,0,0,0,.71,0v0a6.6,6.6,0,0,1-.16,1.65,4.08,4.08,0,0,0,.23,1.55,2.14,2.14,0,0,0,1.78,1.63,2,2,0,0,0,1.56-.66A2.6,2.6,0,0,0,33,63.39a2.52,2.52,0,0,0,2.66,0,2.71,2.71,0,0,0,.8-1.22,2.12,2.12,0,0,0,.18-.73,1.77,1.77,0,0,0,.31.15,4.11,4.11,0,0,0,3-.36,2.92,2.92,0,0,0,1.2-.94,1.37,1.37,0,0,0,0-1,3.37,3.37,0,0,0,1.63.21,3.23,3.23,0,0,0,1.46-.69C45.13,58.12,45.83,56.93,45,55.94ZM43.7,52a3.51,3.51,0,0,1,.29,1.1c0,.74-.64,1.15-1.28,1.35A1.6,1.6,0,0,1,40.88,54a1.41,1.41,0,0,1-.1-1.14,5,5,0,0,1,.47-1.24v0a.59.59,0,0,0,.38-.3.94.94,0,0,0,.11-.32,1.18,1.18,0,0,1,1.51.19A2.52,2.52,0,0,1,43.7,52ZM40.55,54.7a3.3,3.3,0,0,0-.28-.7,2.15,2.15,0,0,0-.4-.61,1.43,1.43,0,0,0-1.07-.33,4.62,4.62,0,0,0,.41-.91,1,1,0,0,0-.36-1.22,3.83,3.83,0,0,0-2.71-1,.86.86,0,0,0,0-.28,2.25,2.25,0,0,0,1.65-.1l.2-.09a1,1,0,0,0,0,.24.23.23,0,0,0,.31.16,2.39,2.39,0,0,0,1.29,1.46,3.12,3.12,0,0,0,1,.34h0a6.07,6.07,0,0,0-.41,1.15,2,2,0,0,0,.07,1.32,1.73,1.73,0,0,0,1.41.94,5.81,5.81,0,0,0-1.21.69A2.29,2.29,0,0,0,40.55,54.7Zm-1.68,2.24-.25,0a.2.2,0,0,0-.19.07h-.16A1.55,1.55,0,0,1,37,55.86a1.46,1.46,0,0,1-.1-.65,1,1,0,0,1,.23-.38,4.43,4.43,0,0,0,.46-.61,2.59,2.59,0,0,0,.9-.68.24.24,0,0,0,.09,0,1.22,1.22,0,0,1,.94.17,1.56,1.56,0,0,1,.27.4,5.45,5.45,0,0,1,.25.55,1.9,1.9,0,0,1-.27,1.68A1.51,1.51,0,0,1,38.87,56.94Zm.85.15v0h0ZM36.25,56A5.34,5.34,0,0,0,34.86,55a2.17,2.17,0,0,0-.35-.15,2.08,2.08,0,0,0,.05-.66,3.93,3.93,0,0,0,1.67.34,5.46,5.46,0,0,0,.58,0,2,2,0,0,0-.23.28,1.32,1.32,0,0,0-.09,1.21,2.1,2.1,0,0,0,1.26,1.41,5.43,5.43,0,0,0-.91.51,1.27,1.27,0,0,0,.15-.48A2.13,2.13,0,0,0,36.25,56Zm-2.69-.66a3.67,3.67,0,0,1-.52.27,4.7,4.7,0,0,1-1.25.41A1.73,1.73,0,0,1,30,55.29a7.77,7.77,0,0,0-.24-.95,1.67,1.67,0,0,1,.23-.68c.22-.34.52-.61.75-.93l.14,0c.32-.12.65-.24.69-.64a1.11,1.11,0,0,0,0-.17,1.34,1.34,0,0,1,.27-.07,2.83,2.83,0,0,0,.58,0h0a2,2,0,0,1,1,.77,2.75,2.75,0,0,1,.17.29,1.4,1.4,0,0,0,.26.73.5.5,0,0,0,.08.07,1.91,1.91,0,0,1,0,1,1,1,0,0,0-.59.21C33.24,55.09,33.38,55.31,33.56,55.35Zm-1.89,2.86a4.74,4.74,0,0,0-1-.59,2,2,0,0,0-.83-.13c-.19,0-.54,0-.7-.13a1.71,1.71,0,0,0,.79-.59,1.15,1.15,0,0,0,.2-.64,2.22,2.22,0,0,0,1.44.42,1.57,1.57,0,0,0,.3,0A2,2,0,0,0,31.67,58.21Zm-3.4-7a1.24,1.24,0,0,0-.54-.85h-.07a1.3,1.3,0,0,0,.7-1,2.7,2.7,0,0,0-.42-1.3,4.42,4.42,0,0,0,1.86-.3c1.06-.43,2.19-1.36,2-2.62a4,4,0,0,0-.23-1,3.51,3.51,0,0,0,2.19.59A1.59,1.59,0,0,0,35,43.82a4.12,4.12,0,0,0,1.46.36,1.77,1.77,0,0,0,.23,0,1.28,1.28,0,0,0,0,1.07,1.47,1.47,0,0,0,.52.61h0a2.5,2.5,0,0,0-1.63,1.33,2.23,2.23,0,0,0-.22,1,.2.2,0,0,0-.16-.14,5,5,0,0,0-2.86.39,3.24,3.24,0,0,0-1.81,1.66,2.51,2.51,0,0,0-1.15-.45c-.14,0-.25.13-.25.25a.25.25,0,0,0,.25.25l.15,0h0a1.34,1.34,0,0,0-.73,1.61c.12.59.49,1.26,1.19,1.22l.05,0a2.89,2.89,0,0,0-.42.57.5.5,0,0,0-.05.13,1,1,0,0,0-.39-.26c-.28-.11-.58-.2-.87-.3l-.61-.21a1.44,1.44,0,0,0,.7-.53A1.57,1.57,0,0,0,28.27,51.24Zm10.9-2.59a1.25,1.25,0,0,1,.19,0,1.92,1.92,0,0,1,1.4.74,2.09,2.09,0,0,1,.5,1.4s0,0,0,.06v0a.41.41,0,0,1-.11.28c-.09.07-.28,0-.38,0a2.77,2.77,0,0,1-.79-.24,2.68,2.68,0,0,1-.74-.52,1.08,1.08,0,0,1-.41-.79c0-.2-.18-.26-.33-.22a.54.54,0,0,1,0-.22A2.7,2.7,0,0,0,39.17,48.65Zm.33-.51,0,0a1.42,1.42,0,0,0,.08-.41q.12.2.24.36l.16.18A1.65,1.65,0,0,0,39.5,48.14Zm-1.17-1.76a.2.2,0,0,0,.27.12c.26-.08.38.47.43.64a1.15,1.15,0,0,1,0,.91.7.7,0,0,1-.13.17,1.42,1.42,0,0,0-.69.56l-.5.24c-.52.21-1.26.39-1.66-.14a1.41,1.41,0,0,1-.08-1.42,2,2,0,0,1,1.34-1.13.23.23,0,0,0,.17-.3l0,0A3.55,3.55,0,0,0,38.33,46.38Zm-8.69,3.83a2.14,2.14,0,0,1,.82.49,1.21,1.21,0,0,0,.48.72,1.76,1.76,0,0,1,.09.2s0,0,0,0a.26.26,0,0,0,0,.19s0,0,0,.07,0,.14-.1.19a2.85,2.85,0,0,1-.31.12.21.21,0,0,0-.19.07l-.21.08a.82.82,0,0,1-.7,0,.92.92,0,0,1-.31-.46c-.15-.41-.24-1.13.29-1.33a.26.26,0,0,0,.17-.31S29.68,50.25,29.64,50.21Zm3.62,1.51a5.46,5.46,0,0,0,.72-.21,3.45,3.45,0,0,0-.25.63A2.67,2.67,0,0,0,33.26,51.72Zm-.71-.39h-.11a1.87,1.87,0,0,0-.58,0,1.64,1.64,0,0,1-.5-.17,2.44,2.44,0,0,0-.39-.61l0,0s0-.07,0-.11a1.53,1.53,0,0,1,.65-.91,4.91,4.91,0,0,1,.92-.58A4.43,4.43,0,0,1,35,48.5s0,0,.07,0a.2.2,0,0,0,.17.26c.16,0,.22.23.28.37a1.19,1.19,0,0,1,.15.66c-.07.37-.51.59-.8.76A5.62,5.62,0,0,1,32.55,51.33Zm2.16,0a.18.18,0,0,0,0-.14c.22-.12.44-.24.64-.37a2.8,2.8,0,0,0,.41-.35h.06a2.52,2.52,0,0,1,2.28.56c.32.22.72.41.62.87A3.53,3.53,0,0,1,38.29,53a1.94,1.94,0,0,1-.82.74.25.25,0,0,0-.19.09,2.83,2.83,0,0,1-.71.17,3.43,3.43,0,0,1-2-.36,1.3,1.3,0,0,1-.18-.15,4.15,4.15,0,0,0-.28-.69A2.36,2.36,0,0,1,34.71,51.32Zm9.77-2.47a1.12,1.12,0,0,1,.12.59,1.33,1.33,0,0,1-.41.44,3.84,3.84,0,0,1-1,.63,1.68,1.68,0,0,0-1.45-.11,1.85,1.85,0,0,0,0-.23,2.57,2.57,0,0,0-.45-1,2.12,2.12,0,0,0-.41-.44,1.31,1.31,0,0,0,1.14-.2,3.41,3.41,0,0,0,.72-.84.22.22,0,0,0,.21,0C43.7,47.12,44.28,48.22,44.48,48.85Zm-2.16-4.21a1.29,1.29,0,0,1,.87,1.29,2.47,2.47,0,0,1-.51.94c-.22.31-.43.63-.66.93a1.09,1.09,0,0,1-.74.5,1.11,1.11,0,0,1-.86-.34,2.67,2.67,0,0,1-.61-1,1.24,1.24,0,0,1-.05-1.08.22.22,0,0,0,0-.22,5.9,5.9,0,0,0,.4-.69.24.24,0,0,0,.2,0A2.27,2.27,0,0,1,42.32,44.64Zm-2.39-.27a4,4,0,0,1-.46.89c-.15.24-.31.53-.6.62a1.27,1.27,0,0,1-.85-.12,2.3,2.3,0,0,1-.76-.47A.78.78,0,0,1,37.5,44,.26.26,0,0,0,38,44a1.08,1.08,0,0,1,1.12-.77A.9.9,0,0,1,39.93,44.37ZM35.31,43a1.54,1.54,0,0,1,.74-1.4,3.28,3.28,0,0,1,.84-.36.8.8,0,0,1,.8.15A1.36,1.36,0,0,1,38,42.91a1.47,1.47,0,0,1-1.41.77,3.31,3.31,0,0,1-1.44-.34c0-.05,0-.1,0-.14A.22.22,0,0,0,35.31,43Zm-3.45-1a.8.8,0,0,1,.83,0l.87.33a1.85,1.85,0,0,1,.95.67c-.22-.06-.45.21-.24.39a3.21,3.21,0,0,0,.3.21,1.13,1.13,0,0,1-.81.63,3.08,3.08,0,0,1-2-.57.24.24,0,0,0-.35.16,1,1,0,0,0-.15-.19l-.06,0s0,0,0-.09A1.71,1.71,0,0,1,31.86,42Zm-1.63,1.81a1,1,0,0,1,.7.18,1.07,1.07,0,0,1,.29.57,1.85,1.85,0,0,1-.06,1.51,3.19,3.19,0,0,1-1,1,3.64,3.64,0,0,1-2.56.44,2,2,0,0,0-.51-.46,1.68,1.68,0,0,0-.48-.2,1.28,1.28,0,0,1-.14-.34,1.36,1.36,0,0,1,.34-1.25.23.23,0,0,0,.07-.2,5.54,5.54,0,0,1,2-1A5.39,5.39,0,0,1,30.23,43.81ZM24.63,50a2.12,2.12,0,0,1,.58-2.1s0,0,0,0,.27-.29.41-.42a.86.86,0,0,1,.65-.25,1.43,1.43,0,0,0,.2.23,2.31,2.31,0,0,0,.83.45,4.73,4.73,0,0,1,.46.93.79.79,0,0,1-.15.93,2.33,2.33,0,0,1-1,.48C26.05,50.45,24.92,50.82,24.63,50ZM25,52.78c-.24-.22-.16-.58-.09-.86s.32-.39.59-.49c.05,0,.07,0,.1-.09a6.1,6.1,0,0,1,1.5-.48,1,1,0,0,1,.41,0c.09,0,.14.14.19.23a2.19,2.19,0,0,1,.19.84.33.33,0,0,1-.1.3,1.3,1.3,0,0,1-.38.22,5.85,5.85,0,0,1-.82.33C26.12,52.92,25.41,53.16,25,52.78ZM27.82,57a2.39,2.39,0,0,1-1.44-1.22,2.35,2.35,0,0,1-.2-2.25.25.25,0,0,0,0-.12h0a4.57,4.57,0,0,0,.63-.19.24.24,0,0,0,.39.11h0l.15,0,.3.1.64.21c.19.07.39.12.58.2a.51.51,0,0,1,.32.36c0,.06,0,.12.05.17a2,2,0,0,0,.06.6,1.91,1.91,0,0,0,.22.53,1.13,1.13,0,0,1-.1,1A1.6,1.6,0,0,1,27.82,57ZM32,60.55a1,1,0,0,0-.35.62,1.92,1.92,0,0,1-1,.68c-.88.19-1.45-.56-1.7-1.31A3.69,3.69,0,0,1,28.79,59c0-.4.15-.78.17-1.17a1.12,1.12,0,0,0,.46.13c.24,0,.48,0,.72,0a2.08,2.08,0,0,1,.63.23c.65.36,1.52.91,1.42,1.77A2,2,0,0,1,32,60.55Zm.53-4.15a.28.28,0,0,0,.07-.09l.47-.17a2.42,2.42,0,0,0,1.22-.88,2.38,2.38,0,0,1,.42.19,5.1,5.1,0,0,1,1,.75,2.48,2.48,0,0,1,.75,1c.08.35-.3.77-.51,1a2.74,2.74,0,0,1-1.93,1,2,2,0,0,1-1.78-.87A1.54,1.54,0,0,1,32.57,56.4Zm3,3.39h0a4.11,4.11,0,0,0-.63-.27,3.09,3.09,0,0,0,.65-.34s0,0,0,0A1.31,1.31,0,0,0,35.62,59.79Zm-3-.35,0-.09a2.48,2.48,0,0,0,.89.31l-.21.12-.63.35A1.78,1.78,0,0,0,32.65,59.44Zm3.42,2.41a2.67,2.67,0,0,1-.59,1,1.93,1.93,0,0,1-2,.16,2.11,2.11,0,0,1-1.18-1.9c0-.09.1-.17.14-.26s0,0,0-.06l.37-.22c.37-.2.73-.42,1.1-.61a1.46,1.46,0,0,1,1.22.1,1.85,1.85,0,0,1,.86.65A1.17,1.17,0,0,1,36.07,61.85ZM40,60.67a4.07,4.07,0,0,1-2.34.53,1.36,1.36,0,0,1-1-.52,2.56,2.56,0,0,1-.5-1.1c0-.45.36-.81.68-1.07A5.19,5.19,0,0,1,38,57.76a.28.28,0,0,0,.16-.3,2.05,2.05,0,0,0,.7,0,2.26,2.26,0,0,1,.85.21h0a2.27,2.27,0,0,0,.22.65,1.87,1.87,0,0,0,.66.68,3,3,0,0,1,.18.81C40.81,60.21,40.26,60.49,40,60.67Zm4.16-2.38A2.82,2.82,0,0,1,43,59a2.48,2.48,0,0,1-1.4-.08,3.29,3.29,0,0,1-.55-.21,2.55,2.55,0,0,0-.82-1.3,1.06,1.06,0,0,1,0-.25,2.24,2.24,0,0,1,1.43-1.48s0,0,0,0a2.87,2.87,0,0,1,2.69.33,1.18,1.18,0,0,1,.55,1.1A2.28,2.28,0,0,1,44.11,58.29Z"/><path class="cls-2" d="M32.2,46.55c-1.28-3-2.59-6.26-2.1-9.51a1.8,1.8,0,0,1,.38-1,.7.7,0,0,1,.95-.12,12,12,0,0,0,.2,5.73,7.33,7.33,0,0,0,2.17,4.22,18.19,18.19,0,0,1-1.83.77"/><path d="M32.42,46.43a31,31,0,0,1-1.86-5.29,12.59,12.59,0,0,1-.32-2.74c0-.45.07-2.92,1.06-2.25l-.11-.28a12.49,12.49,0,0,0,.22,6,7.53,7.53,0,0,0,2.21,4.25l.05-.4q-.87.42-1.77.75c-.3.11-.17.6.13.49.65-.24,1.28-.51,1.89-.8a.26.26,0,0,0,.06-.4,7.07,7.07,0,0,1-2.09-4A12,12,0,0,1,31.67,36a.25.25,0,0,0-.12-.28,1.08,1.08,0,0,0-1.57.73,8,8,0,0,0-.15,3.41A25.78,25.78,0,0,0,32,46.68c.13.29.56,0,.44-.25Z"/><path d="M43.57,14.79a2.49,2.49,0,0,0-1.68-1.6,1.16,1.16,0,0,0,.53-.58,1.52,1.52,0,0,0,0-1.11,1.57,1.57,0,0,0-.71-.77,1.84,1.84,0,0,0,1-1.39,1.26,1.26,0,0,0-.28-1,2.6,2.6,0,0,0-1-.59,2.14,2.14,0,0,0-2.07.19,2.81,2.81,0,0,0-.23-1.27c-.16-.37-.3-.77-.49-1.12a1.17,1.17,0,0,0-.75-.64A2.4,2.4,0,0,0,36.63,5a1.75,1.75,0,0,0-.73.49,3.56,3.56,0,0,0-.85-.88A6.06,6.06,0,0,0,31.4,3.3a.23.23,0,0,0-.23.28,1.93,1.93,0,0,0-1,.9l-.07-.07c-.5-.33-1.05-.12-1.59-.23a.25.25,0,0,0-.22.07,2.63,2.63,0,0,0-1.79,1.09,1.21,1.21,0,0,0-.1,1.24,1.13,1.13,0,0,0,.13.2h0a.16.16,0,0,0-.1,0,1.1,1.1,0,0,0-.87,0,1.78,1.78,0,0,0-.82.66,1.19,1.19,0,0,0,.37,1.46,2.81,2.81,0,0,0-1.54,1.68,2.93,2.93,0,0,0,.1,2.63,2.08,2.08,0,0,0,.43.51l0,0c-.26.39-.76.59-1.12.88A4,4,0,0,0,22,15.65a2.34,2.34,0,0,0-.18,2.66,2,2,0,0,0,1.62.74,2.6,2.6,0,0,0-.38,2,2.51,2.51,0,0,0,1.78,1.86,2.64,2.64,0,0,0,1.46-.23,2.34,2.34,0,0,0,.7-.41,1.53,1.53,0,0,0,.18.49,4.27,4.27,0,0,0,2.28,1.77,3.05,3.05,0,0,0,1.46.22,1.36,1.36,0,0,0,.77-.69,3.84,3.84,0,0,0,.18.35,2.75,2.75,0,0,0,1.2,1.21,3.65,3.65,0,0,0,1.53.35,2.58,2.58,0,0,0,1.51-.37,1.63,1.63,0,0,0,.67-1.32A3.08,3.08,0,0,0,36,22.25a2.15,2.15,0,0,0,2.13.19,2.35,2.35,0,0,0,.8-.94,4.62,4.62,0,0,0,.53-1.28,2.3,2.3,0,0,0,0-.26,4.12,4.12,0,0,0,1.43.27.91.91,0,0,0,.69-.25,2.6,2.6,0,0,0,.42-.67,2.65,2.65,0,0,0,.33-1.58,1.24,1.24,0,0,0-.48-.72,2.66,2.66,0,0,0,1-.3A1.71,1.71,0,0,0,43.57,14.79Zm-1.72-3.25a1,1,0,0,1,.14.75.78.78,0,0,1-.54.58,7.17,7.17,0,0,1-1,.27,1,1,0,0,1-.79-.08,1.27,1.27,0,0,1-.39-.58,2.6,2.6,0,0,1-.22-.86.79.79,0,0,1,1.07-.78.25.25,0,0,0,.35.31A1.06,1.06,0,0,1,41.85,11.54Zm-6.7,10a5.54,5.54,0,0,0-1.32-.38,2.3,2.3,0,0,0,.75-.77,3.79,3.79,0,0,0,.3-.69A2.13,2.13,0,0,0,35,19a1.46,1.46,0,0,0-.5-1,3.69,3.69,0,0,0,1.13-.44,1.07,1.07,0,0,0,.42-1.14A3.79,3.79,0,0,0,35,13.92a1,1,0,0,0,.21-.19,2.31,2.31,0,0,0,1.36,1.18l.06,0a1,1,0,0,0-.15.19.22.22,0,0,0,.1.33,2.37,2.37,0,0,0-.15,1.93,3.1,3.1,0,0,0,.49,1,5.63,5.63,0,0,0-1.12.5,2,2,0,0,0-.88.91A1.78,1.78,0,0,0,35.15,21.54ZM30.7,20.25a6.66,6.66,0,0,0-1-.3,1.1,1.1,0,0,0,.54-.32,2.36,2.36,0,0,0,.37-1.43,5,5,0,0,0-.23-1.8l-.1-.24a1.88,1.88,0,0,0,.49-.41,4.1,4.1,0,0,0,1.07,1.57,2.51,2.51,0,0,0,.32.25,1.69,1.69,0,0,0-.55.06,1.53,1.53,0,0,0-.81.81A2.1,2.1,0,0,0,30.7,20.25Zm-1.46-4.39a3.4,3.4,0,0,1-.72-.25,4.24,4.24,0,0,1-1-.55,1.75,1.75,0,0,1-.74-1.73v0a9.07,9.07,0,0,0,.58-.89,1.63,1.63,0,0,1,.45-.24A8.84,8.84,0,0,1,29.19,12h0c.29.14.6.34.92.18a.91.91,0,0,0,.24-.2l.22.13a2.44,2.44,0,0,0,.35.43l0,0a2,2,0,0,1,.18,1.23,3.06,3.06,0,0,1-.1.38,1.48,1.48,0,0,0-.32.59,1,1,0,0,0,0,.25,1.86,1.86,0,0,1-.69.7,1,1,0,0,0-.58-.27C29.19,15.45,29.14,15.7,29.24,15.86Zm-3.39.62a4.32,4.32,0,0,0-.29-1.19,2.12,2.12,0,0,0-.44-.62c-.14-.13-.42-.36-.42-.59a1.77,1.77,0,0,0,1,.13,1.15,1.15,0,0,0,.53-.29A2.35,2.35,0,0,0,27,15.28l.2.14A2.11,2.11,0,0,0,25.85,16.48Zm.21,2.33h0l-.85-.26a1.8,1.8,0,0,0,.4-.38,1.32,1.32,0,0,0,.12-.2A2.68,2.68,0,0,0,26.06,18.81ZM28.72,8.17A1.31,1.31,0,0,0,29.87,8a2.26,2.26,0,0,0,.68-1.14s0-.08,0-.12a4.36,4.36,0,0,0,1.62,1.17c1,.43,2.42.56,3.18-.39A4.05,4.05,0,0,0,36,6.65a3.57,3.57,0,0,0,1.06,2,1.58,1.58,0,0,0,1.52.27,3.53,3.53,0,0,0,.92,1.47,1.28,1.28,0,0,0-.83.76,1.44,1.44,0,0,0,0,.74h0a2.5,2.5,0,0,0-2.21-.2,2.36,2.36,0,0,0-.73.46.19.19,0,0,0,0-.2,5,5,0,0,0-2.24-1.77A3.26,3.26,0,0,0,30.89,10a2.66,2.66,0,0,0-.44-1.1.28.28,0,0,0-.35-.09.27.27,0,0,0-.09.35.71.71,0,0,1,.08.15,1.34,1.34,0,0,0-1.66.58,1.29,1.29,0,0,0,0,1.72l0,0a2.43,2.43,0,0,0-.84.14,2.91,2.91,0,0,0-.46-1.29l-.27-.59a1.38,1.38,0,0,0,.88.14,1.66,1.66,0,0,0,.79-.8A1.2,1.2,0,0,0,28.72,8.17Zm6.43,4.33c.09.12,0,.32-.07.45a1.32,1.32,0,0,1-.29.48c-.3.31-.83.13-1.19,0a5.46,5.46,0,0,1-2.19-1.13l-.06-.06a1.62,1.62,0,0,0-.42-.48,1.59,1.59,0,0,1-.18-.4v0a3.08,3.08,0,0,0,.17-.68v-.09a.43.43,0,0,1,.09-.1,1.57,1.57,0,0,1,1.11-.16,5,5,0,0,1,1.08.28,4.39,4.39,0,0,1,2,1.55l.05,0A.2.2,0,0,0,35.15,12.5Zm-2.87,1a3,3,0,0,0-.62.25,2.66,2.66,0,0,0,0-.63A6,6,0,0,0,32.28,13.5Zm-1.86-3.09a1.17,1.17,0,0,0-.18.83,1.8,1.8,0,0,1-.08.21l0,0a.23.23,0,0,0-.1.15s0,0,0,0-.11.11-.22.06-.2-.09-.3-.13a.19.19,0,0,0-.16-.08l-.25-.12a.91.91,0,0,1-.47-.39.76.76,0,0,1,.09-.6c.19-.4.64-1,1.16-.72a.26.26,0,0,0,.34-.09.22.22,0,0,0,0-.14A2.12,2.12,0,0,1,30.42,10.41Zm.78,5a.76.76,0,0,1,0-.21,4.12,4.12,0,0,0,.3-.69,2.44,2.44,0,0,1,1.44-.59.23.23,0,0,0,.14-.07,5.61,5.61,0,0,0,.67.19,3.73,3.73,0,0,0,.56.07l0,0a2.34,2.34,0,0,1,1.13,1.78c.07.34.28.92,0,1.2a2.45,2.45,0,0,1-1,.43,2.26,2.26,0,0,1-1.41,0,.21.21,0,0,0-.19-.06,2.68,2.68,0,0,1-.45-.27A3.4,3.4,0,0,1,31.2,15.38Zm5.85.25a.23.23,0,0,0,0-.37.52.52,0,0,1,.19-.12,2.58,2.58,0,0,0,.78.11l0,0a1.72,1.72,0,0,1,.56,1.41,2.17,2.17,0,0,1-.64,1.52c-.08.07-.23.2-.35.18s-.21-.17-.27-.25a2.74,2.74,0,0,1-.39-.76C36.74,16.87,36.61,16,37.05,15.63Zm1.49-.49.25-.13c.05,0,.09-.1.14-.14a3.24,3.24,0,0,0-.09.4,1.51,1.51,0,0,0,0,.3A1.77,1.77,0,0,0,38.54,15.14Zm-.11-.5a1,1,0,0,1-.36.1,1.47,1.47,0,0,0-.9-.12c-.14,0-.28-.1-.41-.15-.49-.2-1.13-.53-1.18-1.14a1.34,1.34,0,0,1,.9-1.21,2,2,0,0,1,1.83.16.24.24,0,0,0,.33-.09.84.84,0,0,0,0,.17A2.79,2.79,0,0,0,39,13a.21.21,0,0,0,.09.3c.23.12,0,.53-.11.69A1.41,1.41,0,0,1,38.43,14.64Zm.92-6.12a1.56,1.56,0,0,1,1.58-.42c.52.14,1.24.43,1.24,1.06a1.35,1.35,0,0,1-.9,1.22,1.46,1.46,0,0,1-1.56-.46A3.28,3.28,0,0,1,39,8.63l.09-.09A.22.22,0,0,0,39.35,8.52ZM36.14,5.94a1.67,1.67,0,0,1,1.37-.58.64.64,0,0,1,.63.37,7,7,0,0,1,.38.84A2.22,2.22,0,0,1,38.8,8c-.1-.22-.47-.2-.46.08,0,.12,0,.24.06.36a1.11,1.11,0,0,1-1-.16,3.15,3.15,0,0,1-1-1.82.23.23,0,0,0-.35-.14,1.36,1.36,0,0,0,0-.29A.17.17,0,0,0,36.14,5.94ZM31.83,4A.23.23,0,0,0,32,3.86a5.47,5.47,0,0,1,2.07.7,5.75,5.75,0,0,1,1.08.83,1.35,1.35,0,0,1,.4.57,1,1,0,0,1-.21.74,1.9,1.9,0,0,1-1,1,3,3,0,0,1-1.4,0,3.61,3.61,0,0,1-2.17-1.55,2.25,2.25,0,0,0,0-.58,1.85,1.85,0,0,0-.2-.6,1.53,1.53,0,0,1,.11-.27A1.34,1.34,0,0,1,31.83,4Zm-5,1.81a2.09,2.09,0,0,1,1.92-1s0,0,0,0a4.54,4.54,0,0,1,.74,0A.77.77,0,0,1,30,5a1.27,1.27,0,0,0,0,.39,2,2,0,0,0,.23.8s0,.06,0,.09a4.4,4.4,0,0,1-.41,1.06c-.42.72-1.27.25-1.82,0S26.52,6.47,26.84,5.76ZM25.57,7.32A.7.7,0,0,1,26,7.17a1.19,1.19,0,0,1,.48.16.17.17,0,0,0,.14,0,5.92,5.92,0,0,1,1.36.73,1.32,1.32,0,0,1,.29.24.33.33,0,0,1,0,.36,2.27,2.27,0,0,1-.45.7.35.35,0,0,1-.33.15A2.13,2.13,0,0,1,27,9.39a6.33,6.33,0,0,1-.8-.36c-.42-.23-1-.56-1.09-1.11C25.11,7.63,25.34,7.45,25.57,7.32Zm-1.52,5.51a2.5,2.5,0,0,1-.05-2,2.27,2.27,0,0,1,1.44-1.57s.06,0,.09-.07a6.22,6.22,0,0,0,.56.32.25.25,0,0,0,.19.35h0c.08,0,.21.41.24.48l.27.57.25.52a.65.65,0,0,1-.07.63l0,0a2.26,2.26,0,0,0-.44.53,2,2,0,0,0-.18.46,1.16,1.16,0,0,1-.77.62A1.59,1.59,0,0,1,24.05,12.83Zm-1.64,5.36c-.73-.63-.36-1.67.08-2.36a3.81,3.81,0,0,1,1-1,7.14,7.14,0,0,0,.77-.55,1.16,1.16,0,0,0,.25.46c.14.16.32.28.45.45a1.73,1.73,0,0,1,.28.58c.22.76.43,1.83-.32,2.35a2,2,0,0,1-.46.24,1.09,1.09,0,0,0-.67.17A1.71,1.71,0,0,1,22.41,18.19ZM27,21.5a1.21,1.21,0,0,1-.75.7,2.56,2.56,0,0,1-1.14.28,1.93,1.93,0,0,1-1.49-1.36A2.1,2.1,0,0,1,24.17,19l.26-.07.08,0A4.09,4.09,0,0,1,25,19a10.54,10.54,0,0,1,1.24.4,1.49,1.49,0,0,1,.68.92A1.78,1.78,0,0,1,27,21.5Zm-.17-2.56a2,2,0,0,1-.66-1.88,1.54,1.54,0,0,1,1.63-1.19s.06,0,.09,0a3.84,3.84,0,0,0,.35.18,2.64,2.64,0,0,0,1.57.33h0a1.83,1.83,0,0,1,.11.29A4.9,4.9,0,0,1,30.13,18,2.94,2.94,0,0,1,30,19.17c-.16.35-.66.38-1,.41A2.88,2.88,0,0,1,26.82,18.94Zm.4.82a2.87,2.87,0,0,0,.7.23l-.05,0a1.21,1.21,0,0,0-.41.4A3.78,3.78,0,0,0,27.22,19.76Zm4.24,3.11a1.67,1.67,0,0,0,0,.59,2.49,2.49,0,0,1-.51.74c-.26.23-.85,0-1.15-.05a4,4,0,0,1-1.9-1.2,1.45,1.45,0,0,1-.47-1.15,2.65,2.65,0,0,1,.47-1.21,1.34,1.34,0,0,1,1.15-.25,5,5,0,0,1,1.5.4.27.27,0,0,0,.31-.09,2.37,2.37,0,0,0,.51.49,2.3,2.3,0,0,1,.43.76A2.11,2.11,0,0,0,31.46,22.87Zm.31-2.08-.16-.21a.18.18,0,0,0-.18-.08l-.06-.06a1.53,1.53,0,0,1-.16-1.69c.18-.34.36-.65.78-.68a5.16,5.16,0,0,0,.88-.1,2.6,2.6,0,0,0,1.08.16.21.21,0,0,0,0,.1c.22.2.5.43.53.74a1.16,1.16,0,0,1-.09.49,5.37,5.37,0,0,1-.21.56,1.92,1.92,0,0,1-1.36,1A1.59,1.59,0,0,1,31.77,20.79Zm.48.72h0S32.24,21.5,32.25,21.51Zm4,2.27A1.4,1.4,0,0,1,36.05,25a1.61,1.61,0,0,1-1.11.45,2.68,2.68,0,0,1-2.36-.88,3.25,3.25,0,0,1-.55-1.1,2.49,2.49,0,0,0,.36-1.45h0a2.08,2.08,0,0,1,2.27-.17A3,3,0,0,1,36.23,23.78ZM38.58,21a3,3,0,0,1-.53.82c-.53.52-1.35.26-1.91-.07a1.54,1.54,0,0,1-.84-1.62,1.42,1.42,0,0,1,.74-.84,5.46,5.46,0,0,1,1.22-.52h0a.64.64,0,0,0,.58,0A1,1,0,0,0,38,18.7,1.19,1.19,0,0,1,39,19.94,2.86,2.86,0,0,1,38.58,21ZM41.85,18a2.41,2.41,0,0,1-.33,1.2,1.58,1.58,0,0,1-.32.51c-.13.11-.38.07-.53.06a3.92,3.92,0,0,1-1.26-.29,1.63,1.63,0,0,0-.26-.57,1.75,1.75,0,0,0-.68-.55A2.88,2.88,0,0,0,39,16.94a3.05,3.05,0,0,0,0-.43,1.3,1.3,0,0,0,1,.7,3.82,3.82,0,0,0,1-.08c0,.07.07.13.15.14A.72.72,0,0,1,41.85,18Zm1-1.81a1.6,1.6,0,0,1-.93.36l-1.21.18a1.23,1.23,0,0,1-1-.15,1.11,1.11,0,0,1-.36-.86,2.66,2.66,0,0,1,.3-1.2,1.21,1.21,0,0,1,.71-.69.21.21,0,0,0,.16-.15,5.06,5.06,0,0,0,.77-.18.26.26,0,0,0,.16.12,2.35,2.35,0,0,1,1.56,1A1.34,1.34,0,0,1,42.82,16.14Z"/><path class="cls-2" d="M34.62,8.77c1.29-3,2.7-6.21,5.39-8.11a1.79,1.79,0,0,1,1-.41.71.71,0,0,1,.75.59,12,12,0,0,0-4,4.14A7.28,7.28,0,0,0,36.2,9.46a19.53,19.53,0,0,1-1.82-.78"/><path d="M34.83,8.9A33,33,0,0,1,37.27,4,13.11,13.11,0,0,1,39,1.85c.35-.34,2.31-2.17,2.51-.94l.11-.28a11.65,11.65,0,0,0-3.7,3.66c-1,1.52-2.09,3.25-1.94,5.17l.32-.24c-.6-.22-1.19-.48-1.77-.75-.29-.14-.54.29-.25.43.62.29,1.25.56,1.89.8a.24.24,0,0,0,.31-.24c-.14-1.83.88-3.46,1.87-4.91a11,11,0,0,1,3.53-3.49A.26.26,0,0,0,42,.78,1,1,0,0,0,41.15,0a1.82,1.82,0,0,0-1.27.43,10.63,10.63,0,0,0-2.32,2.27A26.86,26.86,0,0,0,34.4,8.65c-.12.29.31.54.43.25Z"/></g></g></svg>