<svg width="46" height="64" viewBox="0 0 46 64" fill="none" xmlns="http://www.w3.org/2000/svg">
<g clip-path="url(#clip0)">
<path d="M10.4 19.4C8.60001 19.1 6.80001 19.6 5.60001 21C4.60001 22.2 3.80001 23.8 3.60001 25.4C3.40001 27.2 3.90001 28.6 4.70001 30.2C4.70001 30.3 5.10001 30.9 5.00001 30.7C5.10001 30.9 5.10001 31 5.20001 31.2C5.30001 31.5 5.30001 31.6 5.20001 31.3C5.20001 31.7 5.20001 31.7 5.20001 31.3C5.30001 31 5.30001 31 5.20001 31.3C5.50001 31 5.60001 30.9 6.00001 30.9C6.80001 31.5 7.60001 32.1 8.40001 32.7C7.90001 30.2 7.50001 27.7 7.00001 25.2C6.90001 24.6 6.80001 24 6.70001 23.4C6.60001 23.1 6.60001 22.8 6.50001 22.5C6.50001 22.8 6.50001 22.8 6.50001 22.5C6.40001 22.8 6.20001 23.2 6.10001 23.5C5.90001 23.7 5.90001 23.7 6.10001 23.5C6.00001 23.5 6.00001 23.6 5.90001 23.6C6.20001 23.5 6.40001 23.4 6.70001 23.3C7.00001 23.2 7.30001 23.1 7.70001 23C7.80001 23 8.00001 22.9 8.10001 22.9C8.80001 22.8 8.50001 22.7 7.20001 22.7C6.90001 22.4 6.60001 22.1 6.30001 21.8L6.40001 21.9C6.30001 21.5 6.20001 21.1 6.10001 20.6C6.10001 20.7 6.10001 20.7 6.10001 20.8C6.20001 20.4 6.30001 20 6.40001 19.5C6.50001 19.4 6.60001 19.3 6.70001 19.3C6.60001 19.4 6.40001 19.5 6.30001 19.6C6.00001 19.8 5.70001 20 5.40001 20.2C4.70001 20.7 4.10001 21.1 3.50001 21.7C2.50001 22.8 1.80001 24.1 1.40001 25.5C1.00001 26.8 0.900011 28.2 0.800011 29.5C0.700011 30.9 0.700011 32.2 1.00001 33.6C1.30001 35.2 2.50001 36.9 4.10001 37.4C6.10001 38 7.80001 36.9 9.00001 35.7C11.1 33.7 12.2 30.8 12.2 28C10.8 28.6 9.40001 29.2 7.90001 29.8C8.10001 29.9 8.20001 30.1 8.40001 30.3C8.10001 30 8.50001 30.4 8.50001 30.5C8.50001 30.6 8.80001 31.1 8.70001 30.8C8.60001 30.5 8.80001 31.1 8.80001 31.2C8.90001 31.4 8.90001 31.7 8.90001 31.3C8.90001 31.5 8.90001 31.7 8.90001 32C8.90001 32.5 9.00001 31.7 8.90001 32.2C8.80001 32.4 8.80001 32.6 8.70001 32.8C8.40001 33.7 8.90001 35.2 9.80001 35.6C11.8 36.5 13.9 36.3 15.7 34.9C17.1 33.8 17.9 32.1 18.2 30.4C18.8 26.7 17.5 23.2 15.7 20C14.6 21.1 13.4 22.3 12.3 23.4C12.7 23.6 12.2 23.3 12.4 23.5C12.5 23.6 12.8 24 12.5 23.6C12.7 23.9 12.8 24.1 13 24.4C13.2 24.7 12.8 23.9 13 24.5C13 24.6 13.1 24.8 13.1 24.9C13.2 25.3 13.3 25.6 13.4 26C13.4 26.2 13.5 26.4 13.5 26.5C13.5 26.6 13.6 27 13.5 26.8C13.5 27 13.6 27.6 13.5 28C13.5 28.4 13.7 27.5 13.5 28.3C13.5 28.5 13.4 28.7 13.3 28.8C13.4 28.5 13.2 28.9 13.1 29C13 29.2 12.9 29.4 12.7 29.6C12.2 30.3 11.7 31.1 11.2 31.8C10.9 32.2 10.6 32.6 10.3 33C10.2 33.2 10.1 33.3 10 33.5C9.70001 33.9 10 33.6 10 33.5C10.2 33.3 10.3 33.4 10 33.4C9.50001 33.4 10.1 33.4 9.80001 33.4C9.60001 33.4 9.40001 33.4 9.20001 33.4C9.00001 33.4 8.80001 33.4 9.10001 33.4C8.70001 33.3 8.30001 33.2 7.90001 33.1C8.10001 33.2 7.90001 33.1 7.80001 33.1C7.60001 33 7.40001 32.9 7.20001 32.7C6.10001 32 4.40001 32.4 3.80001 33.6C3.10001 34.8 3.50001 36.3 4.70001 37C6.70001 38.3 9.50001 38.9 11.9 38C13.4 37.5 14.1 36.3 15 35.1C15.7 34.1 16.4 33.1 17.1 32C17.9 30.9 18.3 29.7 18.5 28.3C18.6 27 18.4 25.7 18.2 24.5C17.8 22.2 16.8 20.2 14.8 18.9C12.7 17.5 10.2 20.2 11.4 22.3C11.7 22.8 12 23.4 12.3 24C12.6 24.6 12.6 24.7 12.8 25.2C13 25.8 13.2 26.4 13.3 27C13.3 27 13.4 27.8 13.4 27.4C13.4 27.7 13.5 28 13.5 28.3C13.5 28.6 13.5 28.9 13.5 29.2C13.6 28.8 13.4 29.5 13.4 29.6C13.3 29.8 13.3 30.1 13.2 30.3C13.4 29.8 13 30.5 13 30.6C12.9 30.7 12.9 30.7 13.1 30.6C13 30.7 12.9 30.8 12.8 30.9C12.7 31 12.7 31 12.6 31.1C12.8 30.9 12.8 30.9 12.5 31.1C12.7 31 12.7 31 12.4 31.1C12.3 31.1 12.2 31.1 12.2 31.1C12.5 31.1 12.5 31 12.2 31C12.3 31 12.5 31 12.6 31.1C13 32 13.4 33 13.7 33.9C14.6 31.2 13.8 27.9 11.6 26C10.8 25.3 9.80001 25.1 8.90001 25.5C8.00001 25.9 7.40001 26.8 7.40001 27.8C7.40001 28.1 7.40001 28.4 7.40001 28.7C7.40001 28.2 7.30001 29 7.30001 29.2C7.00001 29.7 6.90001 30 6.80001 30.3C6.90001 29.9 6.80001 30.3 6.80001 30.4C6.70001 30.6 6.60001 30.8 6.50001 31C6.40001 31.1 6.30001 31.3 6.20001 31.4C6.20001 31.5 5.90001 31.8 6.20001 31.5C6.00001 31.7 5.80001 32 5.60001 32.2C5.50001 32.3 5.40001 32.4 5.30001 32.5C5.20001 32.6 5.00001 32.8 5.20001 32.5C5.00001 32.7 5.00001 32.5 5.10001 32.6C5.40001 32.6 5.80001 32.7 6.10001 32.7C6.20001 32.7 6.30001 32.8 6.30001 32.9C6.30001 32.9 6.30001 33 6.40001 33C6.30001 32.9 6.30001 32.8 6.20001 32.7C6.00001 32.4 6.20001 33 6.20001 32.7C6.20001 32.6 6.10001 32.4 6.10001 32.3C6.00001 31.9 6.10001 32.7 6.10001 32.3C6.10001 31.6 6.10001 31 6.10001 30.3C6.00001 29.7 6.00001 29 6.10001 28.4C6.10001 27.9 6.10001 28.2 6.10001 28.3C6.10001 28.1 6.10001 28 6.20001 27.8C6.30001 27.4 6.40001 27 6.50001 26.7C6.50001 26.6 6.60001 26.4 6.70001 26.3C6.70001 26.4 6.50001 26.7 6.70001 26.3C6.90001 26 7.00001 25.8 7.20001 25.5C6.90001 25.9 7.60001 25.2 7.60001 25.1C7.60001 25.1 8.00001 24.8 7.70001 25C7.90001 24.9 8.00001 24.8 8.20001 24.6C8.80001 24.2 9.50001 23.8 10.1 23.3C11.2 22.4 11.6 20.8 10.9 19.5C9.70001 17.5 7.30001 18 5.50001 18.6C3.60001 19.2 1.80001 20.3 1.80001 22.6C1.80001 23.6 2.10001 24.6 2.30001 25.6C2.50001 26.6 2.60001 27.5 2.80001 28.5C3.10001 30.4 3.50001 32.3 3.80001 34.2C4.00001 35.2 5.20001 36.1 6.20001 36C8.10001 35.9 9.50001 34.7 10.1 32.9C10.6 31.3 10.1 29.6 9.40001 28.1C9.30001 27.8 9.10001 27.5 9.00001 27.2C8.90001 27 8.80001 26.9 8.80001 26.7C8.90001 26.9 8.90001 26.8 8.80001 26.5C8.60001 25.9 8.70001 26.7 8.70001 26.1C8.70001 25.8 8.70001 25.8 8.70001 26C8.70001 25.8 8.80001 25.7 8.80001 25.5C8.90001 25.3 8.90001 25.2 9.00001 25C8.90001 25.2 8.90001 25.2 9.00001 24.9C9.10001 24.7 9.20001 24.5 9.40001 24.3C9.60001 24.1 9.60001 24 9.50001 24.2C9.70001 24 9.70001 24 9.60001 24.1C9.90001 24 9.90001 23.9 9.70001 24.1C9.60001 24.1 9.50001 24.1 9.30001 24.1C10.6 24.3 12.1 23.8 12.4 22.4C12.5 21.2 11.8 19.6 10.4 19.4Z" fill="#F82960"/>
<path d="M32.9 4.19999C31 3.99999 29.4 5.19999 28.3 6.59999C27.3 7.89999 27.1 9.49999 26.9 11.1C26.4 14.5 25.2 17.8 24.2 21C25.4 20.5 26.6 20 27.9 19.5C27.8 19.4 27.7 19.4 27.5 19.3C27.7 19.5 27.7 19.5 27.5 19.3C27.4 19.1 27.2 18.8 27.4 19.2C27.3 19.1 27 18.3 27.2 18.9C27.1 18.7 27.1 18.5 27 18.3C27 18.2 26.9 18 26.9 17.9C26.9 18.2 26.9 18.2 26.9 17.9C26.9 17.7 26.9 17.5 26.9 17.2C26.9 17.1 26.9 16.9 26.9 16.8C26.9 17.1 26.9 17.1 26.9 16.9C27 16.7 27 16.4 27.1 16.2C27.1 16.2 27.3 15.6 27.2 15.9C27.3 15.6 27.5 15.3 27.7 15C27.8 14.8 28 14.6 28.1 14.3C28.2 14.2 28.7 13.5 28.5 13.7C29.3 12.7 30.1 11.8 31 10.9C29.6 10.5 28.2 10.2 26.8 9.79999C27 10.3 27.1 10.8 27.2 11.3C27.2 11.3 27.3 12.1 27.3 11.7C27.3 12 27.4 12.2 27.4 12.5C27.5 13.6 27.5 14.6 27.5 15.7C27.6 18.1 27.9 20.4 29.1 22.5C30 24.1 32.5 24.1 33.4 22.5C35.1 19.4 36 16 36.3 12.5C35 13.2 33.8 13.9 32.5 14.7C32.8 14.9 32.6 14.7 32.5 14.6C32.3 14.5 32.6 14.8 32.6 14.9C32.4 14.5 32.7 15.3 32.7 15.5C32.9 16.3 33 17.3 33.1 17.9C33.2 18.8 33.3 19.7 33.4 20.7C33.4 20.9 33.4 21.1 33.4 21.3C33.4 21.6 33.2 21.7 33.4 21.4C33.2 21.7 33.4 21.4 33.5 21.4C32.9 21.8 35 20.7 34.2 20.9C35.1 22.1 36.1 23.3 37 24.6C38.4 21.6 40.1 18.6 41.2 15.5C42.3 12.3 41.8 8.89999 39 6.79999C37.9 5.99999 36.2 6.59999 35.6 7.69999C34.9 8.99999 35.4 10.3 36.5 11.1C36.1 10.8 36.7 11.4 36.4 11C36.5 11.1 36.8 11.7 36.7 11.5C36.6 11.3 36.8 11.9 36.8 12C36.8 12.2 36.8 12.2 36.8 11.9C36.8 12 36.8 12.1 36.8 12.3C36.8 13.1 36.4 14.2 36.1 15C35 17.4 33.8 19.8 32.7 22.2C31.7 24.3 33.3 26.2 35.5 25.9C37 25.6 38 24.2 38.3 22.8C38.5 21.4 38.3 20 38.2 18.6C37.9 16 37.8 12.2 35.1 10.8C33.3 9.89999 31.5 11 31.3 13C31.1 15.5 30.3 18.2 29.1 20.5C30.5 20.5 32 20.5 33.4 20.5C33.3 20.3 33.1 20 33 19.8C33.2 20.2 32.9 19.4 32.9 19.4C32.8 18.9 32.7 18.5 32.6 18C32.6 17.8 32.6 17.8 32.6 18C32.6 17.9 32.6 17.7 32.6 17.6C32.6 17.4 32.6 17.2 32.5 16.9C32.5 16.4 32.4 15.8 32.4 15.3C32.3 13.1 32.3 10.9 31.5 8.89999C30.9 7.29999 28.6 6.29999 27.3 7.79999C25.2 10.2 22.7 12.7 22 15.9C21.4 19.1 22.3 22.6 25.2 24.3C26.6 25.1 28.4 24.4 28.9 22.8C29.7 20 30.6 17.2 31.3 14.4C31.6 13.1 31.7 11.8 32 10.6C32 10.6 32.3 9.79999 32.1 10.2C32.2 10.1 32.3 9.89999 32.3 9.79999C32.2 9.99999 32.2 9.99999 32.4 9.69999C32.6 9.49999 32.6 9.49999 32.5 9.59999C32.4 9.69999 32.4 9.69999 32.6 9.49999C32.4 9.59999 32.4 9.59999 32.7 9.49999C32.4 9.49999 32.4 9.59999 32.7 9.59999C34 9.69999 35.3 8.39999 35.2 7.09999C35.4 5.19999 34.3 4.29999 32.9 4.19999Z" fill="#F82960"/>
<path d="M27.2 45C25.1 49.4 25.3 54.7 28 58.8C28.8 60 29.8 61.2 31.2 61.7C32.9 62.3 34.7 61.6 35.6 60.1C36.5 58.6 36.2 57.1 35.8 55.6C35.7 55.1 35.6 54.6 35.5 54.2C35.5 53.9 35.5 53.6 35.5 53.3C35.5 53.1 35.5 52.9 35.5 52.7C35.4 52.9 35.4 52.9 35.5 52.7C35.3 53.1 35.1 53.4 34.9 53.8L35 53.7C34.6 53.9 34.3 54.1 33.9 54.3C34 54.3 34 54.3 34.1 54.3C33.7 54.3 33.2 54.3 32.8 54.3C32.5 54.2 32.3 54.1 32.1 53.9C32.2 54.2 32.2 54.2 32.1 53.9C32.2 54.1 32.2 54.4 32.3 54.6C32.4 55.1 32.4 55.5 32.5 56.2C32.6 56.9 32.6 57.7 32.6 58.4C32.6 58.7 32.6 59 32.6 59.4C32.6 59.7 32.6 59.7 32.6 59.3C32.7 59 32.9 58.7 33.2 58.6C34.4 59.5 35.6 60.5 36.9 61.4C38.2 57.5 39 53.4 39.4 49.3C38.1 50 36.9 50.7 35.6 51.5C35.8 51.6 36 51.7 36.1 51.8C36.4 52 35.8 51.4 36.3 52C36.4 52.1 36.5 52.2 36.6 52.4C36.7 52.5 36.7 52.5 36.8 52.6C36.7 52.5 36.7 52.4 36.8 52.6C37 52.9 37.2 53.2 37.4 53.6C37.3 53.3 37.4 53.7 37.5 53.8C37.6 54 37.6 54.2 37.6 54.4C37.5 54.1 37.6 54.3 37.6 54.5C37.6 54.7 37.6 54.9 37.6 55.1C37.6 55.5 37.7 54.6 37.6 55.3C37.6 55.5 37.5 55.6 37.5 55.8C37.3 56.4 37 56.9 36.6 57.4C35.8 58.3 35.6 59.7 36.4 60.7C37.2 61.7 38.5 61.9 39.6 61.3C41.4 60.5 42.6 58.6 43.1 56.8C43.7 54.6 43.4 52.4 43 50.2C42.7 48.2 42.3 46.2 41.1 44.5C39.6 42.4 37.4 41.4 34.8 41.8C33.5 42 32.7 43.7 33.1 44.9C33.5 46.3 34.8 46.9 36.2 46.6C35.9 46.6 35.9 46.6 36.2 46.6C35.9 46.6 35.9 46.6 36.2 46.6C36.5 46.7 36.5 46.7 36.3 46.6C36.4 46.7 36.6 46.8 36.7 46.9C36.3 46.6 37.2 47.5 36.9 47C37.1 47.3 37.3 47.6 37.4 47.9C37.3 47.7 37.3 47.8 37.5 48.1C37.6 48.3 37.6 48.4 37.7 48.6C37.8 48.9 37.8 49.1 37.9 49.4C38.1 50.2 38.2 50.9 38.3 51.7C38.4 52.4 38.5 53.2 38.5 54C38.5 54.2 38.5 54.5 38.5 54.7C38.5 55 38.5 55 38.5 54.7C38.5 54.9 38.4 55 38.4 55.2C38.3 55.5 38.2 55.8 38.1 56.1C38.3 55.6 37.9 56.4 37.8 56.5C38.1 56.1 37.6 56.7 37.5 56.8C37.9 56.5 37.2 56.9 37.1 57C38.1 58.3 39.1 59.6 40.1 60.9C42.1 58.8 42.9 56 42.5 53.2C42.1 50.7 40.4 48.4 38.2 47.2C36.5 46.2 34.6 47.5 34.4 49.4C34.1 53 33.3 56.6 32.1 60.2C31.4 62.3 34 64.1 35.8 63C38.3 61.5 37.8 57.6 37.5 55.2C37.3 53.9 37.2 52.5 36.4 51.4C35.3 49.8 33.1 48.8 31.5 50.4C30.4 51.5 30.5 53.3 30.6 54.7C30.7 55.5 30.8 56.3 31 57C31.1 57.3 31.2 57.6 31.2 57.9C31.3 58.2 31.2 58 31.2 58C31.3 58.3 31.1 58.3 31.2 58.1C31.6 57.5 32 57.3 32.7 57.3C32.9 57.3 33 57.5 32.8 57.2C32.7 57.1 32.6 57 32.5 56.8C32.5 56.8 32.7 57 32.5 56.8C32.3 56.6 32.2 56.3 32 56.1C31.9 55.9 31.8 55.7 31.6 55.5C31.6 55.4 31.3 54.9 31.4 55.2C31.2 54.7 31 54.2 30.9 53.7C30.8 53.4 30.8 53.1 30.7 52.7C30.6 52.4 30.7 52.7 30.7 52.8C30.7 52.6 30.7 52.5 30.7 52.3C30.7 51.7 30.7 51.1 30.7 50.6C30.7 50.5 30.7 50.4 30.7 50.2C30.7 49.8 30.6 50.5 30.7 50.1C30.8 49.8 30.8 49.5 30.9 49.1C31 48.8 31.1 48.5 31.1 48.3C31.1 48.2 31.2 48.1 31.2 48C31.4 47.6 31 48.5 31.3 47.8C31.9 46.6 31.6 45.1 30.4 44.4C29.5 43.4 27.8 43.7 27.2 45Z" fill="#F82960"/>
<path d="M5.8 24.3C5.1 24.2 4.6 24.8 4.4 25.4C4.3 26 4.3 26.7 5 27C5.3 27.1 5.6 27.1 5.9 27.2C6.2 27.2 6.6 27.3 6.8 27C7 26.8 7 26.4 7.1 26.2C7.1 25.9 7.1 25.6 7.1 25.4C7 24.8 6.6 24.2 6.1 23.8C6 23.7 5.8 23.8 5.8 23.9C5.6 24 5.7 24.1 5.8 24.3C6.4 24.7 6.8 25.6 6.6 26.4C6.6 26.5 6.6 26.6 6.5 26.7C6.4 26.8 6.4 26.8 6.3 26.8C6 26.8 5.8 26.7 5.5 26.7C5.3 26.7 5.1 26.6 5 26.5C4.9 26.3 4.9 26.1 4.9 25.9C5 25.4 5.3 24.8 5.8 24.9C5.9 24.9 6 24.8 6 24.7C6.1 24.4 6 24.3 5.8 24.3Z" fill="black"/>
<path d="M1.89999 23C1.49999 22.9 1.09999 22.9 0.799994 23.1C0.499994 23.3 0.299994 23.6 0.199994 23.9C-6.22869e-06 24.7 0.799994 25.2 1.39999 25.4C1.79999 25.5 2.19999 25.6 2.59999 25.6C2.99999 25.6 3.39999 25.7 3.69999 25.5C3.99999 25.3 4.09999 24.9 4.19999 24.5C4.29999 24.2 4.29999 23.8 4.09999 23.5C3.99999 23.4 3.79999 23.3 3.59999 23.2C3.39999 23.1 3.19999 23.1 2.89999 23C2.69999 23 2.19999 23 1.79999 23C1.49999 23 1.49999 23.5 1.79999 23.5C2.39999 23.5 2.99999 23.6 3.59999 23.8C3.69999 23.8 3.79999 23.9 3.89999 23.9C3.99999 24 3.99999 24.1 3.99999 24.2C3.99999 24.5 3.89999 24.8 3.79999 25C3.79999 25.1 3.69999 25.2 3.59999 25.3C3.49999 25.3 3.29999 25.3 3.19999 25.3C2.89999 25.3 2.59999 25.3 2.29999 25.2C1.79999 25.1 1.09999 25 0.899994 24.4C0.799994 24.1 0.999994 23.9 1.19999 23.7C1.29999 23.6 1.39999 23.5 1.49999 23.5C1.69999 23.5 1.79999 23.5 1.99999 23.5C2.09999 23.5 2.29999 23.5 2.29999 23.3C2.19999 23.2 2.09999 23.1 1.89999 23Z" fill="black"/>
<path d="M3.10001 19.8C2.30001 20 1.60001 20.6 1.30001 21.4C1.10001 21.8 1.10001 22.3 1.50001 22.7C1.80001 23 2.30001 23.2 2.70001 23.4C3.50001 23.6 4.70001 23.9 5.30001 23.1C5.60001 22.7 5.60001 22.2 5.60001 21.8C5.60001 21.3 5.60001 20.8 5.30001 20.4C5.10001 20 4.70001 19.7 4.30001 19.6C3.80001 19.5 3.30001 19.8 2.80001 19.9C2.50001 19.9 2.50001 20.4 2.80001 20.4C3.20001 20.4 3.50001 20.2 3.80001 20.1C4.10001 20 4.40001 20.2 4.60001 20.4C5.00001 20.6 5.10001 21 5.10001 21.3C5.10001 21.7 5.10001 22.1 5.00001 22.5C4.80001 23.4 3.80001 23.2 3.20001 23C2.60001 22.9 1.50001 22.6 1.70001 21.8C1.90001 21.1 2.50001 20.6 3.20001 20.4C3.50001 20.2 3.40001 19.8 3.10001 19.8Z" fill="black"/>
<path d="M5.80001 18.2C4.90001 18.5 4.30001 19.5 4.60001 20.5C4.90001 21.6 6.30001 22.2 7.30001 22.4C8.40001 22.5 9.90001 22.3 10.4 21.3C10.6 20.8 10.9 20.2 10.7 19.6C10.6 19 9.90001 18.7 9.40001 18.5C8.10001 18 6.70001 17.9 5.30001 18.3C5.00001 18.4 5.10001 18.9 5.40001 18.8C6.30001 18.5 7.30001 18.5 8.30001 18.7C8.80001 18.8 9.20001 19 9.60001 19.2C9.80001 19.3 10 19.5 10.1 19.7C10.2 19.9 10.1 20.2 10 20.5C9.90001 21 9.70001 21.4 9.20001 21.7C8.80001 21.9 8.30001 22 7.80001 22C6.90001 22 5.90001 21.7 5.30001 21C4.70001 20.1 5.00001 19 5.90001 18.7C6.20001 18.6 6.10001 18.1 5.80001 18.2Z" fill="black"/>
<path d="M10.6 19.3C10.7 18.8 11.3 18.5 11.7 18.3C12 18.2 12.2 18.3 12.4 18.5C12.6 18.7 12.8 19.0001 13 19.2001C13.3 19.6001 13.9 20.2001 13.7 20.7001C13.5 21.2001 12.9 21.3001 12.4 21.1C11.8 20.9 11.4 20.2001 11 19.7001C10.8 19.4001 10.4 19.7 10.6 20C11 20.6 11.5 21.3001 12.2 21.6C12.9 21.9001 13.7 21.7 14.1 21.1C14.6 20.4 14.1 19.7 13.7 19.1C13.5 18.8001 13.2 18.5001 12.9 18.2001C12.6 17.9001 12.3 17.8 12 17.8C11.6 17.8 11.2 18 10.9 18.3C10.6 18.5 10.3 18.8001 10.2 19.2001C10.1 19.5001 10.6 19.6 10.6 19.3Z" fill="black"/>
<path d="M14.5 20.8C14.8 20.3 15.2 19.9 15.8 19.9C16.3 19.9 17.2 19.9 17.3 20.5C17.5 21 17.2 21.7 16.8 22C16.3 22.3 15.7 22.3 15.2 21.9C14.6 21.6 14.1 21 13.9 20.4C13.8 20.1 13.3 20.2 13.4 20.5C13.7 21.2 14.2 21.8 14.9 22.2C15.6 22.6 16.4 22.7 17 22.3C17.7 21.9 18 21.1 17.9 20.4C17.8 20 17.6 19.7 17.3 19.5C17 19.3 16.5 19.3 16.2 19.2C15.3 19.1 14.5 19.5 14.1 20.3C13.9 20.8 14.3 21.1 14.5 20.8Z" fill="black"/>
<path d="M16.3 22.9C16.7 22.5 17.3 22.5 17.7 22.8C17.9 23 18.1 23.2 18.1 23.4C18.2 23.7 18 24 17.8 24.2C17.6 24.4 17.3 24.6 17 24.7C16.8 24.8 16.5 25 16.2 24.9C15.9 24.8 15.7 24.6 15.6 24.5C15.4 24.3 15.2 24 15.1 23.8C14.9 23.2 15.4 22.5 16.1 22.7C16.4 22.8 16.5 22.3 16.2 22.2C15.4 22 14.6 22.5 14.5 23.3C14.5 23.7 14.7 24.1 14.9 24.4C15.1 24.7 15.4 25 15.7 25.2C16.5 25.6 17.3 25 17.9 24.6C18.3 24.3 18.5 24 18.5 23.6C18.5 23.2 18.4 22.8 18.1 22.6C17.7 22 16.6 22 16 22.6C15.7 22.8 16.1 23.2 16.3 22.9Z" fill="black"/>
<path d="M14.8 24.2C14.1 24 13.3 24.2 12.7 24.6C12.1 25 11.7 25.8 11.9 26.5C12.2 27.3 13 27.6 13.8 27.7C14.5 27.8 15.3 27.7 15.9 27.2C16.2 26.9 16.3 26.5 16.4 26C16.5 25.6 16.4 25 15.9 24.9C15.6 24.8 15.5 25.3 15.8 25.4C16.1 25.5 15.9 26 15.9 26.2C15.8 26.5 15.7 26.7 15.5 26.9C15.1 27.2 14.5 27.2 14 27.2C13.4 27.2 12.7 27.1 12.4 26.5C12.2 26 12.5 25.4 12.9 25.1C13.4 24.7 14.1 24.5 14.7 24.7C14.9 24.7 15.1 24.2 14.8 24.2Z" fill="black"/>
<path d="M11.9 25.1C11.1 24.5 10.1 24.2 9.09999 24.1C8.29999 24.1 6.99999 24.2 6.59999 25.1C6.19999 26.1 6.99999 26.9 7.79999 27.3C8.79999 27.7 9.89999 27.9 11 27.7C11.5 27.6 12 27.4 12.1 26.8C12.2 26.4 12.3 25.7 11.9 25.4C11.6 25.2 11.4 25.6 11.6 25.8C11.7 25.9 11.6 26.2 11.6 26.3C11.6 26.5 11.6 26.7 11.5 26.8C11.3 27.1 10.8 27.1 10.5 27.2C9.69999 27.2 8.79999 27.1 7.99999 26.8C7.69999 26.7 7.29999 26.5 7.09999 26.1C6.89999 25.8 6.79999 25.3 7.09999 25.1C7.29999 24.8 7.69999 24.8 8.09999 24.7C8.49999 24.6 8.89999 24.6 9.19999 24.6C10.1 24.7 10.9 25 11.5 25.5C11.9 25.7 12.1 25.3 11.9 25.1Z" fill="black"/>
<path d="M1.19999 25.2C0.399988 25.7 0.0999878 26.6 0.0999878 27.4C-1.22041e-05 28.3 0.299988 29.2 0.999988 29.8C1.59999 30.3 2.59999 30.6 3.29999 30.2C3.69999 30 3.89999 29.5 3.99999 29.1C4.19999 28.6 4.29999 28.1 4.29999 27.6C4.29999 27 3.69999 26.6 3.39999 26.2C3.19999 26 2.99999 25.7 2.79999 25.6C2.59999 25.5 2.39999 25.4 2.19999 25.6C1.99999 25.8 2.29999 26.2 2.59999 26H2.49999L2.59999 26.1C2.69999 26.2 2.69999 26.2 2.79999 26.3C2.89999 26.5 3.09999 26.6 3.19999 26.8C3.29999 26.9 3.49999 27.1 3.59999 27.2C3.79999 27.4 3.79999 27.5 3.79999 27.8C3.69999 28.2 3.59999 28.6 3.49999 29C3.39999 29.3 3.29999 29.7 2.99999 29.9C2.39999 30.2 1.69999 30 1.19999 29.5C0.699988 29 0.499988 28.3 0.499988 27.6C0.499988 26.9 0.699988 26 1.39999 25.6C1.69999 25.5 1.49999 25.1 1.19999 25.2Z" fill="black"/>
<path d="M5.80001 26.7001C5.30001 27.0001 4.80001 27 4.30001 27.4C3.90001 27.7 3.60001 28.1 3.50001 28.6C3.20001 29.6 3.80001 30.6 4.80001 31C5.20001 31.2 5.70001 31.3 6.20001 31.3C6.70001 31.4 7.30001 31.4001 7.70001 31.2001C8.60001 30.8001 8.80001 29.5001 8.80001 28.6C8.80001 27.5 8.00001 26.3 6.80001 26.3C6.50001 26.3 6.50001 26.8 6.80001 26.8C7.70001 26.8 8.20001 27.6 8.30001 28.4C8.40001 29.1 8.20001 30.2 7.60001 30.6C7.20001 30.9001 6.70001 30.8 6.30001 30.8C5.90001 30.8 5.50001 30.7 5.20001 30.6C4.40001 30.3 3.80001 29.6 4.00001 28.8C4.10001 28.4 4.30001 28.0001 4.70001 27.7001C5.10001 27.4001 5.60001 27.4 6.00001 27.1C6.30001 26.9 6.00001 26.5001 5.80001 26.7001Z" fill="black"/>
<path d="M9.80001 27.3C9.00001 27.6 8.10001 28.4 8.10001 29.3C8.10001 30.2 9.10001 30.9 9.80001 31.3C10.6 31.7 11.6 31.8 12.5 31.4C12.9 31.2 13.3 30.9 13.6 30.5C13.9 30.1 13.9 29.7 13.7 29.3C13.2 28.3 12.6 27.3 11.5 27.1C11.2 27.1 11 27.5 11.4 27.6C12.2 27.7 12.7 28.3 13 29C13.2 29.3 13.5 29.7 13.4 30.1C13.3 30.4 12.9 30.7 12.6 30.8C11.9 31.3 11.2 31.4 10.5 31.1C9.90001 30.9 9.10001 30.4 8.80001 29.8C8.40001 29 9.30001 28.2 10 27.9C10.3 27.7 10.1 27.2 9.80001 27.3Z" fill="black"/>
<path d="M14 28C13.6 28.7 13.9 29.5 14.3 30.1C14.5 30.4 14.7 30.7 15 30.9C15.3 31.1 15.7 31.3 16.1 31.1C16.7 30.6 16.8 29.7 16.7 29C16.6 28.3 16.2 27.6 15.5 27.2C14.8 26.9 13.9 27.1 13.7 27.9C13.6 28.2 14.1 28.3 14.2 28C14.3 27.5 14.9 27.4 15.3 27.6C15.8 27.8 16.1 28.3 16.2 28.8C16.3 29.3 16.3 30 16 30.4C15.9 30.5 15.8 30.6 15.7 30.6C15.6 30.6 15.4 30.5 15.3 30.4C15.1 30.2 14.9 30 14.7 29.8C14.4 29.4 14 28.6 14.3 28.1C14.6 28 14.2 27.7 14 28Z" fill="black"/>
<path d="M16.7 25.1C16 25.5 15.9 26.6 16 27.3C16.1 28.2 16.7 29 17.7 28.9C18.2 28.8 18.6 28.5 19.1 28.3C19.5 28.1 19.9 27.9 20.3 27.6C20.9 27.1 20.9 26.1 20.5 25.5C20 24.7 19 24.4 18.1 24.5C17.8 24.5 17.8 25 18.1 25C18.7 25 19.4 25.1 19.9 25.5C20.3 25.9 20.5 26.6 20.2 27.1C20 27.4 19.7 27.5 19.4 27.7C19 27.9 18.7 28.1 18.3 28.2C18 28.4 17.6 28.5 17.3 28.3C17 28.1 16.8 27.8 16.7 27.5C16.6 27.1 16.6 26.7 16.7 26.3C16.8 26 16.9 25.6 17.2 25.5C17.3 25.3 17 24.9 16.7 25.1Z" fill="black"/>
<path d="M1.5 30.3C1.4 30.8 0.900003 31.1 0.700003 31.5C0.400003 31.9 0.200003 32.4 0.100003 32.9C-0.0999973 33.8 -0.0999973 34.8 0.700003 35.4C1.5 36 2.5 35.8 3.3 35.3C3.7 35.1 4 34.7 4.2 34.3C4.4 33.8 4.4 33.4 4.2 32.9C4 32.4 3.7 31.9 3.4 31.5C3.2 31.2 3 31 2.8 30.9C2.6 30.8 2.2 30.6 2.2 30.3C2.2 30 1.7 30 1.7 30.3C1.7 30.7 2 31 2.3 31.2C2.5 31.3 2.7 31.4 2.8 31.5C3 31.6 3.1 31.8 3.3 32C3.8 32.7 4.2 33.7 3.5 34.4C2.9 35 2 35.4 1.2 35C0.400003 34.6 0.400003 33.6 0.600003 32.9C0.700003 32.4 0.900003 31.9 1.2 31.5C1.5 31.1 1.8 30.8 1.9 30.4C2.1 30.1 1.6 30 1.5 30.3Z" fill="black"/>
<path d="M5.59999 30.7999C4.79999 30.8999 4.09999 31.6999 3.99999 32.4999C3.89999 33.3999 4.39999 34.1999 5.09999 34.6999C5.89999 35.2999 6.99999 35.2999 7.89999 34.9999C8.29999 34.8999 8.89999 34.5999 9.09999 34.1999C9.39999 33.7999 9.19999 33.1999 9.09999 32.6999C8.99999 32.0999 8.69999 31.5999 8.39998 31.0999C8.09998 30.6999 7.69999 30.2999 7.09999 30.3999C6.79999 30.4999 6.89999 30.8999 7.19999 30.8999C7.59999 30.7999 7.89999 31.2999 7.99999 31.5999C8.19999 31.9999 8.39999 32.2999 8.49999 32.6999C8.59999 32.9999 8.79999 33.5999 8.59999 33.8999C8.49999 34.1999 7.89999 34.3999 7.59999 34.4999C6.89999 34.6999 6.09999 34.7999 5.39999 34.3999C4.79999 34.0999 4.39999 33.4999 4.39999 32.7999C4.39999 32.0999 4.89999 31.3999 5.69999 31.2999C6.09999 31.1999 5.89999 30.6999 5.59999 30.7999Z" fill="black"/>
<path d="M11 31.2C10.7 31.5 10.3 31.5 10 31.7C9.60001 31.9 9.50001 32.2 9.40001 32.6C9.30001 33 9.30001 33.5 9.40001 33.9C9.50001 34.2 9.70001 34.5 10 34.8C10.6 35.3 11.4 35.4 12.1 35.1C12.8 34.8 13.3 34.2 13.5 33.5C13.6 33.3 13.6 33 13.6 32.7C13.6 32.4 13.6 32.2 13.5 31.9C13.3 31.5 12.9 31.3 12.6 31.1C12.3 31 12.1 31.4 12.3 31.5C12.6 31.6 12.9 31.7 13 32C13.1 32.2 13.1 32.3 13.1 32.5C13.1 32.7 13.1 32.9 13.1 33.1C13 33.7 12.6 34.2 12.1 34.5C11.6 34.8 11 34.7 10.5 34.4C9.90001 34 9.80001 33.4 9.90001 32.7C9.90001 32.5 10 32.3 10.1 32.2C10.2 32.1 10.3 32 10.5 32C10.8 31.9 11.1 31.8 11.4 31.5C11.6 31.4 11.2 31 11 31.2Z" fill="black"/>
<path d="M15.3 30.8C14.9 31.1 14.5 31.4 14.2 31.8C13.9 32.1 13.7 32.5 13.6 33C13.5 33.9 14.2 34.6 15 34.9C15.8 35.2 16.9 35.2 17.5 34.5C17.8 34.2 17.9 33.8 18 33.4C18.1 32.9 18.2 32.5 18.1 32C18 31 17.1 30.4 16.1 30.5C15.8 30.6 15.9 31 16.2 31C16.8 30.9 17.4 31.3 17.5 31.9C17.6 32.3 17.5 32.7 17.5 33C17.4 33.3 17.4 33.6 17.2 33.9C16.9 34.5 16 34.6 15.4 34.4C14.8 34.3 14.1 33.8 14.1 33.1C14.1 32.7 14.3 32.4 14.6 32.1C14.9 31.8 15.2 31.5 15.6 31.3C15.9 31 15.6 30.6 15.3 30.8Z" fill="black"/>
<path d="M17.8 31.6C18.4 31.7 19 31.6 19.5 31.4C19.8 31.3 20 31.2 20.1 30.9C20.2 30.6 20.2 30.4 20.3 30.1C20.4 29.6 20.4 29 20.1 28.5C19.8 28.1 19.4 27.9 18.9 27.9C18.8 27.9 18.7 28.1 18.7 28.2C18.7 28.3 18.9 28.4 19 28.4C19.3 28.4 19.6 28.6 19.7 28.8C19.9 29.2 19.8 29.7 19.8 30C19.8 30.2 19.7 30.4 19.6 30.6C19.5 31 19.3 31 19.1 31C18.7 31.1 18.2 31.1 17.8 31.1C17.7 31.1 17.6 31.2 17.6 31.3C17.6 31.5 17.7 31.6 17.8 31.6Z" fill="black"/>
<path d="M2.69999 35C2.19999 35.8 2.19999 36.9 2.79999 37.7C3.29999 38.4 4.19999 39 5.09999 38.8C5.59999 38.7 5.99999 38.4 6.39999 38.1C6.79999 37.8 7.09999 37.4 7.09999 36.9C7.19999 36.4 6.99999 35.9 6.69999 35.5C6.39999 35.1 6.09999 34.7 5.59999 34.6C5.29999 34.5 5.09999 34.5 4.79999 34.5C4.49999 34.5 4.09999 34.5 3.79999 34.5C3.29999 34.5 2.89999 34.6 2.59999 35C2.39999 35.3 2.89999 35.5 2.99999 35.3C3.19999 35 3.59999 35.1 3.79999 35.1C4.19999 35.1 4.69999 35.1 5.09999 35.1C5.49999 35.1 5.79999 35.4 6.09999 35.7C6.29999 36 6.49999 36.3 6.59999 36.7C6.59999 37.1 6.49999 37.5 6.19999 37.7C5.89999 37.9 5.59999 38.2 5.29999 38.3C4.59999 38.6 3.79999 38.1 3.39999 37.6C2.79999 37 2.79999 36 3.19999 35.3C3.29999 35 2.89999 34.8 2.69999 35Z" fill="black"/>
<path d="M9.90001 34.6C9.30001 34.5 8.70001 34.6 8.20001 34.7C7.80001 34.8 7.30001 34.9 7.00001 35.3C6.70001 35.7 6.70001 36.2 6.70001 36.7C6.70001 37.2 6.90001 37.7 7.20001 38C7.90001 38.7 9.00001 39 10 39C10.5 39 11 39 11.4 38.8C11.8 38.6 11.9 37.9 12 37.5C12.1 36.9 12.2 36.3 11.9 35.8C11.7 35.3 11.2 35 10.7 34.7C10.4 34.5 10.2 35 10.4 35.1C10.7 35.3 11.1 35.5 11.3 35.9C11.6 36.3 11.5 36.7 11.5 37.1C11.5 37.3 11.4 37.5 11.4 37.8C11.4 38 11.3 38.2 11.2 38.4C11.1 38.6 10.9 38.6 10.7 38.6C10.5 38.6 10.3 38.7 10 38.7C9.20001 38.7 8.40001 38.5 7.70001 38.1C7.30001 37.9 7.10001 37.6 7.00001 37.1C7.00001 36.7 7.00001 36.2 7.10001 35.9C7.30001 35.5 7.70001 35.4 8.10001 35.3C8.80001 35 9.30001 35 9.90001 35.1C10.2 35.1 10.2 34.6 9.90001 34.6Z" fill="black"/>
<path d="M14.7 34.5C13.7 34.4 12.4 34.4 11.7 35.2C11.4 35.6 11.2 36.1 11.2 36.6C11.2 37.2 11.5 37.6 11.9 38C12.3 38.4 12.8 38.8 13.3 39C13.9 39.2 14.4 39.1 15 39C16 38.7 17.1 38 16.8 36.8C16.5 35.6 15.3 34.7 14.1 34.5C13.8 34.5 13.6 34.9 14 35C14.9 35.1 15.7 35.6 16.1 36.4C16.3 36.8 16.5 37.3 16.2 37.8C16 38.2 15.5 38.4 15.1 38.5C14.7 38.6 14.2 38.7 13.7 38.6C13.2 38.5 12.8 38.3 12.4 37.9C12.1 37.6 11.7 37.3 11.7 36.8C11.6 36.4 11.7 36 11.9 35.7C12.5 34.8 13.7 35 14.6 35C15 35 15 34.5 14.7 34.5Z" fill="black"/>
<path d="M10 22.4C10.3 19.1 10.7 15.7 12.7 13C12.9 12.7 13.2 12.4 13.5 12.3C13.8 12.2 14.3 12.3 14.4 12.6C13.1 14 12.4 15.9 11.9 17.7C11.5 19.3 11.2 21 11.8 22.4C11.1 22.4 10.5 22.3 9.80002 22.2" fill="white"/>
<path d="M10.3 22.3999C10.5 20.4999 10.7 18.6999 11.2 16.8999C11.4 15.9999 11.8 15.1999 12.2 14.3999C12.4 13.9999 13.7 11.7999 14.2 12.8999C14.2 12.7999 14.2 12.6999 14.2 12.5999C13 13.8999 12.3 15.5999 11.8 17.2999C11.3 18.9999 10.8 20.9999 11.5 22.6999C11.6 22.5999 11.7 22.4999 11.7 22.3999C11.1 22.3999 10.4 22.2999 9.80001 22.1999C9.50001 22.1999 9.30001 22.5999 9.70001 22.6999C10.4 22.7999 11.1 22.8999 11.7 22.8999C11.8 22.8999 12 22.6999 11.9 22.5999C11.2 20.8999 11.7 19.0999 12.2 17.3999C12.7 15.7999 13.4 14.1999 14.5 12.8999C14.6 12.7999 14.6 12.6999 14.5 12.5999C14.1 11.7999 13.1 12.0999 12.6 12.6999C11.9 13.4999 11.4 14.5999 11 15.5999C10.2 17.7999 9.90001 20.1999 9.70001 22.4999C9.80001 22.6999 10.3 22.6999 10.3 22.3999Z" fill="black"/>
<path d="M29.4 50.2C28.7 50.4 28.5 51.1999 28.7 51.7999C28.8 52.3999 29.2 53.1 29.9 53C30.3 53 30.6 52.8 30.9 52.7C31.2 52.6 31.6 52.4999 31.6 52.0999C31.6 51.7999 31.5 51.4999 31.4 51.2999C31.3 50.9999 31.1 50.7999 31 50.5999C30.6 50.0999 30 49.8 29.3 49.7C29.2 49.7 29.1 49.8 29.1 49.9C29.1 50 29.2 50.0999 29.3 50.0999C30.1 50.1999 30.8 50.7999 31 51.5999C31 51.6999 31.1 51.8 31.1 51.9C31.1 52 31.1 51.9999 31 52.0999C30.8 52.1999 30.5 52.3 30.3 52.4C30.1 52.5 29.8 52.6 29.6 52.4C29.4 52.3 29.3 52.1 29.3 51.9C29.1 51.5 29.1 50.7999 29.6 50.5999C29.7 50.5999 29.8 50.3999 29.8 50.2999C29.7 50.1999 29.6 50.1 29.4 50.2Z" fill="black"/>
<path d="M25.4 51C25.1 51.1 24.8 51.2 24.6 51.5C24.4 51.8 24.3 52.3 24.4 52.7C24.5 53 24.8 53.3001 25.1 53.4001C25.5 53.5001 25.9 53.5001 26.2 53.4001C26.6 53.3001 27 53.2 27.3 53C27.6 52.9 28.1 52.7001 28.3 52.4001C28.5 52.1001 28.4 51.6 28.3 51.3C28.2 51 28.1 50.6 27.8 50.5C27.6 50.4 27.4 50.4 27.2 50.5C27 50.5 26.8 50.6 26.6 50.6C26.2 50.7 25.7 50.9 25.3 51.1C25 51.2 25.3 51.7 25.6 51.5C26.1 51.2 26.7 51 27.3 51C27.4 51 27.6 50.9 27.7 51C27.8 51 27.8 51.1 27.9 51.2C28 51.5 28.1 51.8 28.1 52C28.1 52.1 28.1 52.2 28 52.3C27.9 52.4 27.7 52.5 27.6 52.5C27.3 52.6 27.1 52.7 26.8 52.8C26.3 53 25.6 53.2 25.2 52.8C25 52.6 25 52.2001 25.1 51.9001C25.2 51.6001 25.4 51.5001 25.7 51.4001C25.8 51.3001 25.7 50.8 25.4 51Z" fill="black"/>
<path d="M24.9 47.5999C24.3 48.1999 24 49.1999 24.1 49.9999C24.2 50.3999 24.4 50.7999 24.9 50.8999C25.4 51.0999 25.9 50.9999 26.3 50.8999C27.1 50.6999 28.3 50.3999 28.4 49.3999C28.4 48.8999 28.2 48.4999 28 48.0999C27.8 47.6999 27.5 47.2999 27.1 47.0999C26.7 46.8999 26.2 46.7999 25.8 46.8999C25.3 47.0999 25.1 47.4999 24.7 47.7999C24.4 47.9999 24.7 48.3999 25 48.1999C25.3 47.9999 25.5 47.6999 25.7 47.4999C25.9 47.2999 26.2 47.1999 26.5 47.2999C27.2 47.4999 27.6 48.2999 27.8 48.8999C27.9 49.1999 27.9 49.5999 27.7 49.7999C27.4 50.0999 27 50.1999 26.7 50.2999C26.1 50.4999 25 50.7999 24.7 50.0999C24.4 49.3999 24.8 48.4999 25.3 47.9999C25.4 47.6999 25.1 47.3999 24.9 47.5999Z" fill="black"/>
<path d="M26.4 44.9C25.7 45.6 25.7 46.8 26.4 47.5C27.3 48.3 28.7 48.2 29.7 47.8C30.8 47.4 31.9 46.4 31.7 45.2C31.6 44.7 31.5 44.1 31.1 43.7C30.7 43.3 30 43.4 29.4 43.4C28.1 43.6 26.8 44.2 25.8 45.1C25.6 45.3 25.9 45.7 26.2 45.5C26.9 44.8 27.7 44.3 28.7 44.1C29.1 44 29.6 43.9 30.1 43.9C30.3 43.9 30.6 43.9 30.8 44.1C31 44.2 31 44.5 31.1 44.7C31.2 45.2 31.3 45.7 31 46.2C30.8 46.6 30.4 46.9 30 47.1C29.2 47.6 28.1 47.8 27.2 47.5C26.7 47.3 26.4 47 26.3 46.5C26.2 46.1 26.3 45.6 26.6 45.3C27 45 26.7 44.6 26.4 44.9Z" fill="black"/>
<path d="M31.2 43.5C31.1 43 31.4 42.3 31.8 42C32 41.8 32.4 41.9 32.6 42C32.9 42.1 33.2 42.2 33.5 42.3C33.9 42.5 34.5 42.7 34.5 43.2C34.6 43.7 34.1 44.1 33.6 44.2C32.9 44.3 32.2 44 31.6 43.6C31.3 43.4 31.1 43.9 31.3 44C32 44.4 32.8 44.8 33.6 44.6C34.3 44.5 34.9 44 34.9 43.2C34.9 42.5 34.3 42 33.7 41.8C33.3 41.6 33 41.5 32.6 41.4C32.2 41.3 31.8 41.2 31.5 41.4C31.1 41.6 30.9 42 30.7 42.3C30.5 42.7 30.4 43.1 30.5 43.5C30.8 43.9 31.3 43.8 31.2 43.5Z" fill="black"/>
<path d="M35.3 43C35.3 42.4 35.6 41.9 36 41.6C36.3 41.4 36.6 41.3 36.8 41.2C37.1 41.1 37.4 41.1 37.6 41.3C38 41.7 38.1 42.3 37.9 42.8C37.6 43.3 37.1 43.6 36.5 43.6C35.8 43.6 35.1 43.4 34.6 42.9C34.4 42.7 34 43 34.2 43.3C34.8 43.8 35.6 44.1 36.4 44.1C37.2 44.1 37.9 43.8 38.3 43.2C38.7 42.5 38.6 41.7 38.1 41.1C37.9 40.8 37.5 40.6 37.2 40.6C36.8 40.6 36.4 40.8 36 40.9C35.2 41.3 34.7 42 34.7 42.9C34.8 43.3 35.3 43.3 35.3 43Z" fill="black"/>
<path d="M38 44C38.1 43.5 38.6 43.2 39.1 43.2C39.7 43.3 40.1 43.8 39.9 44.3C39.8 44.6 39.6 44.9 39.4 45.2C39.3 45.4 39.1 45.7 38.8 45.8C38.5 45.9 38.2 45.8 38 45.7C37.7 45.6 37.4 45.4 37.2 45.2C36.7 44.7 37 44 37.6 43.9C37.9 43.8 37.8 43.4 37.5 43.4C36.7 43.6 36.3 44.4 36.6 45.2C36.8 45.6 37.1 45.8 37.5 46C37.9 46.2 38.3 46.4 38.7 46.4C39.1 46.4 39.5 46.2 39.7 45.8C40 45.5 40.2 45.1 40.3 44.7C40.5 44.3 40.5 43.9 40.3 43.5C40.1 43.2 39.8 42.9 39.4 42.8C38.6 42.5 37.7 43 37.4 43.9C37.4 44.2 37.9 44.3 38 44Z" fill="black"/>
<path d="M37.1 45.8C36.4 46 35.8 46.5 35.5 47.1C35.2 47.7 35.2 48.5 35.6 49.1C36.1 49.8 37.1 49.7001 37.8 49.4001C38.5 49.1001 39.2 48.7 39.5 48C39.7 47.6 39.6 47.1 39.4 46.6C39.2 46.2 39 45.7001 38.4 45.9001C38.1 46.0001 38.2 46.5001 38.5 46.4001C38.8 46.3001 38.9 46.9 38.9 47C39 47.3 39 47.6001 38.9 47.9001C38.6 48.4001 38.1 48.7001 37.6 48.9001C37.1 49.1001 36.3 49.3 35.9 48.8C35.6 48.4 35.6 47.8001 35.8 47.4001C36.1 46.8001 36.6 46.4 37.1 46.3C37.6 46.3 37.5 45.8 37.1 45.8Z" fill="black"/>
<path d="M35.1 48C34.1 47.8 33.1 48 32.2 48.4C31.4 48.7 30.3 49.5 30.3 50.4C30.3 51.4 31.4 51.9 32.3 51.8C33.3 51.7 34.4 51.4 35.3 50.8C35.7 50.5 36.1 50.1 36.1 49.5C36.1 49.1 35.8 48.3 35.3 48.2C35 48.2 34.8 48.6 35.2 48.7C35.4 48.7 35.4 48.9 35.5 49.1C35.6 49.3 35.7 49.5 35.6 49.8C35.5 50.2 35.1 50.4 34.8 50.6C34.1 51 33.3 51.3 32.5 51.4C31.9 51.5 30.8 51.3 30.9 50.4C30.9 50 31.3 49.7 31.5 49.5C31.8 49.3 32.1 49.1 32.4 48.9C33.2 48.5 34.1 48.4 34.9 48.5C35.3 48.6 35.5 48.1 35.1 48Z" fill="black"/>
<path d="M25.7 53.3C25.2 54.1 25.4 55.1001 25.8 55.9001C26.2 56.6001 26.8 57.3 27.7 57.5C28.5 57.7 29.4 57.5 29.9 56.8C30.2 56.4 30.1 55.9001 30 55.4001C29.9 54.9001 29.8 54.4001 29.6 53.9001C29.5 53.7001 29.3 53.5001 29.1 53.4001C28.8 53.3001 28.5 53.2 28.2 53.1C27.9 53 27.6 52.9 27.3 52.8C27.1 52.8 26.8 52.8 26.8 53.1C26.7 53.4 27.2 53.5001 27.3 53.2001L27.2 53.3C27.2 53.3 27.3 53.3001 27.3 53.4001C27.4 53.4001 27.5 53.5 27.6 53.5C27.8 53.6 28 53.6001 28.2 53.7001C28.4 53.8001 28.6 53.8001 28.8 53.9001C29 54.0001 29.1 54.1 29.1 54.3C29.2 54.7 29.3 55.1 29.4 55.5C29.5 55.9 29.6 56.3 29.3 56.6C28.9 57.1 28.2 57.2 27.7 57C27.1 56.8 26.6 56.3 26.3 55.8C25.9 55.1 25.7 54.2 26.1 53.6C26.3 53.2 25.9 53 25.7 53.3Z" fill="black"/>
<path d="M30.4 52.2999C30.1 52.6999 29.7 52.9999 29.5 53.4999C29.3 53.9999 29.2 54.4999 29.3 54.9999C29.6 55.9999 30.5 56.5999 31.5 56.4999C32 56.4999 32.6 56.2999 33.1 56.0999C33.6 55.8999 34.1 55.6999 34.3 55.1999C34.8 54.3999 34.4 53.1999 33.9 52.3999C33.3 51.4999 32.1 50.8999 31.1 51.4999C30.8 51.6999 31.1 52.0999 31.4 51.8999C32.1 51.4999 33 51.8999 33.5 52.5999C33.9 53.1999 34.3 54.0999 34 54.8999C33.8 55.2999 33.4 55.4999 33.1 55.6999C32.7 55.8999 32.3 55.9999 31.8 56.0999C31 56.1999 30.2 55.8999 29.9 55.0999C29.7 54.6999 29.8 54.0999 30.1 53.6999C30.3 53.2999 30.7 52.9999 31 52.5999C31 52.2999 30.6 52.0999 30.4 52.2999Z" fill="black"/>
<path d="M34.4 51C33.8 51.7 33.4 52.9 33.9 53.7C34.4 54.4 35.4 54.5 36.2 54.6C37.1 54.6 38 54.3 38.5 53.6C38.8 53.2 39 52.7 39.2 52.3C39.4 51.8 39.2 51.4 38.8 51.1C37.9 50.4 36.8 49.7 35.7 50.2C35.4 50.3 35.5 50.8 35.8 50.7C36.6 50.4 37.4 50.8 38.1 51.3C38.4 51.5 38.8 51.7 38.7 52.2C38.6 52.6 38.4 53 38.2 53.3C37.8 53.9 37.2 54.2 36.5 54.3C35.9 54.4 35.1 54.3 34.5 53.9C33.7 53.4 34.1 52.2 34.6 51.6C34.9 51.1 34.6 50.7 34.4 51Z" fill="black"/>
<path d="M38.3 49.6C38.3 50.4 39 51 39.6 51.3C39.9 51.5 40.3 51.6 40.6 51.6C41 51.7 41.4 51.7 41.6 51.3C41.8 51 41.8 50.5 41.7 50.2C41.6 49.8 41.5 49.5 41.3 49.2C40.9 48.6 40.2 48.2 39.5 48.1C38.7 48.1 37.9 48.8 38.1 49.6C38.2 49.9 38.7 49.8 38.6 49.5C38.5 49 39 48.6 39.4 48.6C39.9 48.6 40.5 48.9 40.8 49.3C41.1 49.7 41.4 50.3 41.3 50.8C41.3 50.9 41.3 51 41.2 51.1C41.1 51.2 40.9 51.1 40.8 51.1C40.5 51.1 40.3 51 40 50.9C39.7 50.8 39.5 50.6 39.3 50.4C39.1 50.2 38.9 49.9 38.9 49.6C38.8 49.2 38.3 49.2 38.3 49.6Z" fill="black"/>
<path d="M39.3 45.7C38.9 46.5 39.3 47.5 39.8 48.1C40.3 48.7 41.2 49.1 41.9 48.6C42.3 48.3 42.5 48 42.7 47.6C43 47.2 43.3 46.8 43.5 46.4C43.8 45.7 43.4 44.9 42.8 44.4C42 43.8 40.8 44.1 40 44.6C39.7 44.8 40 45.2 40.3 45C40.9 44.6 41.6 44.4 42.3 44.6C42.8 44.8 43.3 45.3 43.2 45.9C43.1 46.3 42.9 46.6 42.7 46.8C42.5 47.1 42.3 47.4 42 47.7C41.8 47.9 41.6 48.2 41.3 48.2C41 48.2 40.7 48.1 40.4 47.9C40.1 47.6 39.9 47.3 39.8 46.9C39.7 46.6 39.6 46.2 39.8 45.8C39.9 45.6 39.5 45.4 39.3 45.7Z" fill="black"/>
<path d="M28.4 57.6C28.5 58.1 28.3 58.7 28.2 59.2C28.2 59.7 28.3 60.3 28.4 60.8C28.7 61.6 29.3 62.4 30.2 62.4C31.2 62.5 31.9 61.7 32.3 60.9C32.5 60.4 32.7 59.9 32.5 59.4C32.4 59 32.1 58.7 31.8 58.4C31.4 58.1 31 57.8 30.5 57.6C30.2 57.5 30 57.5 29.7 57.5C29.5 57.5 29 57.6 28.9 57.3C28.8 57 28.3 57.1 28.4 57.4C28.5 57.8 28.9 57.9 29.2 58C29.4 58 29.7 58 29.9 58C30.1 58 30.3 58.1 30.5 58.2C31.2 58.6 32 59.1 31.9 60C31.8 60.8 31.2 61.7 30.4 61.9C29.5 62.1 28.9 61.3 28.7 60.6C28.5 60.1 28.5 59.6 28.5 59.1C28.5 58.6 28.8 58 28.6 57.5C28.9 57.1 28.4 57.2 28.4 57.6Z" fill="black"/>
<path d="M32.3 56C31.6 56.5 31.4 57.5 31.7 58.3C32 59.2 32.9 59.7 33.8 59.7C34.8 59.8 35.7 59.3 36.3 58.6C36.6 58.3 37 57.8 37 57.3C37 56.8 36.6 56.3 36.3 55.9C35.9 55.5 35.4 55.1 34.9 54.8C34.4 54.6 33.9 54.4 33.5 54.8C33.3 55 33.6 55.4 33.9 55.2C34.2 55 34.6 55.2 34.9 55.4C35.3 55.6 35.6 55.9 35.9 56.1C36.2 56.4 36.6 56.7 36.6 57.1C36.7 57.5 36.3 57.9 36.1 58.1C35.6 58.7 34.9 59.1 34.2 59.1C33.5 59.1 32.8 58.8 32.4 58.2C32 57.6 32.1 56.7 32.7 56.3C32.8 56.2 32.6 55.8 32.3 56Z" fill="black"/>
<path d="M37.2 53.9C37.1 54.2 36.8 54.5 36.6 54.7C36.3 55.1 36.4 55.5 36.5 55.9C36.7 56.7 37.3 57.3 38.1 57.4C38.8 57.5 39.6 57.3 40.1 56.8C40.6 56.2 40.8 55.4 40.6 54.7C40.5 54.5 40.4 54.2 40.3 54C40.2 53.8 40.1 53.6 39.9 53.4C39.5 53 39 53 38.6 53.1C38.3 53.1 38.3 53.6 38.6 53.6C38.9 53.6 39.3 53.5 39.5 53.8C39.6 53.9 39.7 54.1 39.8 54.2C39.9 54.4 40 54.6 40 54.8C40.2 55.4 40.1 56 39.7 56.5C39.4 57 38.8 57.2 38.2 57.1C37.6 57 37.1 56.6 36.9 56C36.8 55.8 36.8 55.6 36.8 55.4C36.8 55.3 36.9 55.1 37 55C37.2 54.7 37.5 54.5 37.6 54.2C37.8 53.7 37.3 53.6 37.2 53.9Z" fill="black"/>
<path d="M40.8 51.4C40.6 51.8 40.4 52.3 40.3 52.8C40.2 53.2 40.2 53.7 40.4 54.1C40.8 54.9 41.7 55.2 42.6 55C43.4 54.9 44.4 54.4 44.6 53.5C44.7 53 44.6 52.6 44.4 52.1C44.3 51.7 44.1 51.3 43.9 50.9C43.4 50.2 42.3 50 41.5 50.5C41.4 50.6 41.3 50.7 41.4 50.8C41.5 50.9 41.6 51 41.7 50.9C42.2 50.5 42.9 50.6 43.3 51C43.5 51.2 43.6 51.5 43.8 51.8C43.9 52.1 44.1 52.5 44.1 52.9C44.1 53.6 43.5 54.1 42.8 54.3C42.2 54.5 41.4 54.4 41 53.8C40.8 53.5 40.8 53 40.9 52.7C41 52.3 41.2 51.8 41.4 51.5C41.4 51.3 41 51.1 40.8 51.4Z" fill="black"/>
<path d="M43.4 51C43.9 50.8 44.3 50.5 44.7 50.1C44.9 49.9 45.1 49.7 45.1 49.4C45.1 49.1 45 48.8 44.9 48.6C44.7 48.1 44.5 47.6 44 47.3C43.6 47 43 47 42.6 47.3C42.5 47.4 42.4 47.5 42.5 47.6C42.6 47.7 42.7 47.8 42.8 47.7C43.6 47.1 44.2 48.2 44.4 48.8C44.5 49 44.6 49.2 44.5 49.4C44.4 49.6 44.2 49.7 44.1 49.8C43.8 50.1 43.4 50.3 43.1 50.4C43 50.5 42.9 50.6 43 50.7C43.1 51 43.3 51 43.4 51Z" fill="black"/>
<path d="M31.8 61.1C31.8 62 32.3 62.9 33 63.4C33.8 63.9 34.9 63.9 35.7 63.4C36.1 63.1 36.3 62.6 36.5 62.2C36.7 61.7 36.8 61.3 36.6 60.8C36.4 60.4 36.1 60 35.7 59.8C35.3 59.6 34.7 59.3 34.2 59.4C33.9 59.5 33.7 59.6 33.4 59.8C33.1 59.9 32.9 60.1 32.6 60.2C32.2 60.4 31.8 60.7 31.7 61.2C31.7 61.5 32.2 61.5 32.2 61.2C32.2 60.9 32.6 60.7 32.8 60.6C33.2 60.4 33.5 60.2 33.9 60C34.3 59.8 34.7 59.9 35.1 60.1C35.4 60.2 35.8 60.4 36 60.8C36.2 61.1 36.2 61.5 36.1 61.9C36 62.2 35.8 62.7 35.5 62.9C35 63.4 34.1 63.3 33.5 63.1C32.8 62.7 32.3 62 32.3 61.2C32.3 60.8 31.8 60.8 31.8 61.1Z" fill="black"/>
<path d="M37.9 57.3C37.4 57.5 36.9 57.8 36.5 58.1C36.1 58.4 35.8 58.7 35.6 59.2C35.5 59.7 35.7 60.2 36 60.7C36.2 61.1 36.5 61.5 37 61.6C37.9 61.9 39.1 61.7 40 61.2C40.4 61 41 60.7 41.2 60.3C41.5 59.9 41.2 59.2 41.1 58.8C40.9 58.3 40.7 57.7 40.2 57.4C39.7 57.1 39.2 57 38.6 57C38.3 57 38.3 57.5 38.6 57.5C39 57.5 39.4 57.6 39.7 57.7C40.1 57.9 40.3 58.2 40.4 58.6C40.6 59 40.7 59.4 40.7 59.9C40.7 60.3 40.2 60.6 39.9 60.8C39.2 61.2 38.4 61.4 37.6 61.3C37.2 61.3 36.8 61.1 36.6 60.8C36.4 60.5 36.1 60.1 36.1 59.7C36.1 59.2 36.5 58.9 36.8 58.6C37.2 58.3 37.6 58 38.1 57.8C38.3 57.6 38.2 57.2 37.9 57.3Z" fill="black"/>
<path d="M42 54.9C41.1 55.3 40 55.8 39.8 56.9C39.7 57.4 39.8 57.9 40 58.3C40.3 58.8 40.7 59.1 41.2 59.2C41.8 59.4 42.3 59.5 42.9 59.4C43.4 59.3 43.9 59.1 44.4 58.7C45.2 58 45.9 56.8 45.2 55.8C44.4 54.8 42.8 54.6 41.7 55C41.4 55.1 41.5 55.6 41.8 55.5C42.7 55.2 43.7 55.3 44.5 55.8C44.9 56.1 45.1 56.5 45 56.9C44.9 57.4 44.6 57.8 44.2 58.1C43.9 58.4 43.5 58.6 43 58.8C42.5 58.9 42.1 58.9 41.6 58.7C41.2 58.6 40.8 58.4 40.5 58C40.3 57.7 40.2 57.3 40.2 56.9C40.4 55.9 41.4 55.5 42.2 55.1C42.5 55.2 42.3 54.8 42 54.9Z" fill="black"/>
<path d="M32.2 46.6C30.9 43.6 29.6 40.3 30.1 37.1C30.2 36.8 30.2 36.4 30.5 36.1C30.7 35.8 31.2 35.7 31.4 36C30.9 37.9 31.2 39.9 31.6 41.7C32 43.3 32.5 44.9 33.8 45.9C33.2 46.2 32.6 46.4 32 46.7" fill="white"/>
<path d="M32.4 46.4C31.7 44.7 31 42.8999 30.5 41.0999C30.3 40.1999 30.2 39.3 30.2 38.4C30.2 37.9 30.3 35.4999 31.3 36.0999C31.3 35.9999 31.2 35.9 31.2 35.8C30.7 37.8 31 39.8 31.4 41.7C31.8 43.3 32.3 44.9 33.6 45.9C33.6 45.8 33.6 45.6 33.7 45.5C33.1 45.8 32.5 46 31.9 46.2C31.6 46.3 31.7 46.8 32 46.7C32.6 46.5 33.3 46.2 33.9 45.9C34 45.8 34.1 45.6 34 45.5C32.8 44.5 32.3 43 31.9 41.5C31.5 39.6 31.2 37.7 31.7 35.8C31.7 35.7 31.7 35.6 31.6 35.5C30.9 35.1 30.3 35.6 30 36.2C29.6 37.2 29.7 38.4999 29.9 39.5999C30.2 41.9999 31.1 44.2 32.1 46.4C32.1 47 32.5 46.7 32.4 46.4Z" fill="black"/>
<path d="M30.1 9.29994C29.5 8.99994 28.8 9.29994 28.4 9.89994C28 10.3999 27.8 11.1999 28.4 11.5999C28.6 11.7999 28.9 11.8999 29.2 12.0999C29.5 12.1999 29.8 12.3999 30.1 12.2999C30.4 12.1999 30.5 11.8999 30.6 11.5999C30.7 11.2999 30.8 10.9999 30.8 10.7999C30.9 10.1999 30.7 9.49994 30.3 8.99994C30.2 8.89994 30.1 8.79994 30 8.89994C30 8.79994 29.9 8.99994 30 9.09994C30.5 9.79994 30.6 10.6999 30.1 11.3999C30.1 11.4999 30 11.5999 29.9 11.5999C29.8 11.6999 29.8 11.6999 29.7 11.6999C29.5 11.5999 29.2 11.4999 29 11.3999C28.8 11.2999 28.6 11.1999 28.5 10.9999C28.4 10.7999 28.5 10.5999 28.6 10.3999C28.8 9.99994 29.2 9.39994 29.8 9.69994C29.9 9.79994 30.1 9.69994 30.1 9.59994C30.2 9.49994 30.2 9.29994 30.1 9.29994Z" fill="black"/>
<path d="M26.7 6.90006C26.3 6.70006 26 6.60006 25.6 6.80006C25.3 6.90006 25 7.20006 24.8 7.50006C24.4 8.20006 25 8.90006 25.6 9.30006C25.9 9.50006 26.3 9.70006 26.7 9.90006C27 10.0001 27.5 10.3001 27.9 10.1001C28.3 10.0001 28.5 9.60006 28.7 9.30006C28.9 9.00006 29.1 8.60006 28.9 8.20006C28.8 8.00006 28.6 7.90006 28.5 7.80006C28.3 7.70006 28.1 7.50006 28 7.40006C27.6 7.20006 27.2 7.00006 26.8 6.80006C26.5 6.70006 26.4 7.20006 26.7 7.30006C27.3 7.50006 27.8 7.80006 28.2 8.10006C28.3 8.20006 28.4 8.20006 28.5 8.30006C28.6 8.40006 28.5 8.50006 28.5 8.70006C28.4 8.90006 28.2 9.20006 28.1 9.40006C28 9.50006 27.9 9.60006 27.8 9.60006C27.7 9.60006 27.5 9.50006 27.4 9.50006C27.1 9.40006 26.9 9.30006 26.6 9.10006C26.2 8.90006 25.5 8.50006 25.5 8.00006C25.5 7.70006 25.7 7.50006 25.9 7.40006C26 7.30006 26.1 7.30006 26.3 7.30006C26.5 7.30006 26.6 7.40006 26.8 7.50006C26.7 7.50006 27 7.00006 26.7 6.90006Z" fill="black"/>
<path d="M28.8 4.19994C27.9 4.19994 27 4.59994 26.5 5.29994C26.3 5.69994 26.2 6.09994 26.4 6.49994C26.6 6.89994 27 7.19994 27.4 7.39994C28.1 7.79994 29.1 8.39994 29.9 7.89994C30.3 7.59994 30.4 7.19994 30.6 6.79994C30.8 6.39994 30.9 5.89994 30.8 5.39994C30.7 4.99994 30.5 4.59994 30.2 4.29994C29.7 3.99994 29.2 4.19994 28.6 4.09994C28.3 3.99994 28.2 4.49994 28.5 4.59994C28.9 4.69994 29.3 4.59994 29.6 4.59994C29.9 4.69994 30.1 4.89994 30.2 5.19994C30.3 5.49994 30.3 5.89994 30.2 6.19994C30.1 6.59994 30 6.99994 29.8 7.29994C29.4 7.99994 28.5 7.59994 28 7.29994C27.5 6.99994 26.5 6.49994 26.9 5.79994C27.2 5.09994 28.1 4.69994 28.8 4.69994C29.1 4.69994 29.1 4.19994 28.8 4.19994Z" fill="black"/>
<path d="M31.8 3.39995C30.8 3.39995 29.9 4.29995 30 5.29995C30.1 6.49995 31.2 7.39995 32.2 7.79995C33.2 8.19995 34.6 8.39995 35.4 7.39995C35.7 6.99995 36.1 6.39995 36.1 5.89995C36 5.29995 35.5 4.89995 35.1 4.49995C34.1 3.69995 32.8 3.19995 31.4 3.19995C31.1 3.19995 31.1 3.69995 31.4 3.69995C32.3 3.69995 33.3 3.99995 34.1 4.49995C34.5 4.69995 34.9 4.99995 35.2 5.29995C35.4 5.49995 35.5 5.59995 35.6 5.89995C35.7 6.19995 35.5 6.39995 35.4 6.59995C35.1 6.99995 34.9 7.39995 34.4 7.59995C33.9 7.69995 33.4 7.69995 33 7.59995C32 7.39995 31.2 6.79995 30.7 5.99995C30.5 5.59995 30.4 5.09995 30.7 4.59995C30.9 4.19995 31.4 3.89995 31.9 3.89995C32.2 3.99995 32.2 3.49995 31.8 3.39995Z" fill="black"/>
<path d="M36.1 5.89994C36.4 5.49994 37 5.29994 37.5 5.29994C37.8 5.29994 38 5.39994 38.1 5.69994C38.3 5.99994 38.4 6.29994 38.5 6.49994C38.7 6.99994 39.1 7.69994 38.6 8.19994C38.3 8.59994 37.7 8.49994 37.3 8.19994C36.7 7.79994 36.5 6.99994 36.3 6.39994C36.2 6.09994 35.7 6.19994 35.8 6.49994C36 7.29994 36.3 7.99994 36.9 8.49994C37.4 8.89994 38.2 8.99994 38.8 8.59994C39.4 8.09994 39.2 7.19994 39 6.59994C38.8 6.19994 38.7 5.79994 38.5 5.49994C38.3 5.19994 38.1 4.89994 37.7 4.89994C37.3 4.79994 36.8 4.89994 36.5 4.99994C36.1 5.09994 35.8 5.29994 35.6 5.69994C35.5 5.99994 36 6.19994 36.1 5.89994Z" fill="black"/>
<path d="M39.4 8.49995C39.8 8.09995 40.4 7.89995 41 8.09995C41.5 8.19995 42.2 8.49995 42.2 9.19995C42.2 9.69995 41.8 10.1999 41.3 10.3999C40.7 10.5999 40.1 10.3999 39.7 9.89995C39.2 9.39995 38.9 8.69995 38.8 7.99995C38.8 7.69995 38.3 7.69995 38.3 7.99995C38.4 9.39995 39.7 11.2999 41.3 10.7999C42 10.5999 42.5 9.99995 42.6 9.29995C42.6 8.89995 42.6 8.59995 42.3 8.29995C42 7.99995 41.7 7.79995 41.3 7.69995C40.5 7.39995 39.5 7.49995 38.9 8.09995C38.8 8.39995 39.1 8.79995 39.4 8.49995Z" fill="black"/>
<path d="M40.5 11.2001C41 11.0001 41.6 11.1001 41.9 11.6001C42 11.8001 42 12.0001 42 12.3001C41.9 12.6001 41.7 12.8001 41.5 12.9001C41.2 13.0001 40.8 13.1001 40.5 13.2001C40.2 13.2001 39.9 13.3001 39.7 13.1001C39.5 13.0001 39.4 12.7001 39.3 12.5001C39.2 12.2001 39.1 11.9001 39.1 11.6001C39.1 10.9001 39.8 10.5001 40.4 10.9001C40.7 11.1001 40.9 10.6001 40.7 10.5001C40 10.0001 39.1 10.3001 38.8 11.1001C38.6 11.5001 38.7 11.9001 38.9 12.3001C39 12.6001 39.1 13.0001 39.4 13.2001C39.7 13.5001 40 13.6001 40.4 13.6001C40.9 13.6001 41.3 13.4001 41.8 13.3001C42.2 13.2001 42.5 12.9001 42.7 12.5001C42.8 12.1001 42.8 11.7001 42.7 11.4001C42.3 10.5001 41.3 10.2001 40.5 10.6001C39.9 10.9001 40.2 11.3001 40.5 11.2001Z" fill="black"/>
<path d="M38.6 11.8C37.9 11.4 37.1 11.3 36.4 11.6C35.7 11.9 35.1 12.5 35.1 13.3C35.1 14.1 35.9 14.6 36.5 14.9C37.2 15.2 38.1 15.5 38.8 15C39.2 14.8 39.4 14.4 39.6 14C39.8 13.6 39.8 13.1 39.4 12.9C39.1 12.8 38.9 13.2 39.1 13.3C39.3 13.4 39.1 13.8 39 14C38.9 14.2 38.7 14.5 38.4 14.6C37.9 14.9 37.2 14.6 36.7 14.4C36.2 14.2 35.6 13.9 35.5 13.3C35.5 12.8 35.9 12.3 36.4 12.1C37 11.9 37.7 11.9 38.2 12.3C38.6 12.4 38.8 12 38.6 11.8Z" fill="black"/>
<path d="M35.6 11.8999C35 11.0999 34.3 10.5 33.4 10.1C32.6 9.79995 31.3 9.49995 30.6 10.1C29.9 10.8 30.3 11.9 30.9 12.4999C31.7 13.1999 32.7 13.6999 33.7 13.8999C34.3 13.9999 34.8 13.9999 35.2 13.4999C35.5 13.1999 35.8 12.5 35.5 12.1C35.3 11.8 34.9 12.0999 35.1 12.3999C35.2 12.4999 35.1 12.7 35 12.8C34.9 13 34.8 13.2 34.7 13.3C34.4 13.6 33.9 13.4 33.5 13.3C32.7 13.1 31.9 12.6999 31.3 12.1999C31 11.8999 30.7 11.6 30.6 11.3C30.5 10.9999 30.6 10.5999 30.9 10.3999C31.2 10.1999 31.7 10.1999 32 10.1999C32.4 10.1999 32.7 10.2999 33.1 10.4999C33.9 10.7999 34.6 11.4 35.1 12.1C35.3 12.4 35.8 12.1999 35.6 11.8999Z" fill="black"/>
<path d="M25.3 8.80001C24.4 9.00001 23.9 9.80001 23.6 10.6C23.3 11.4 23.2 12.4 23.7 13.2C24.1 13.9 24.9 14.4 25.8 14.2C26.3 14.1 26.6 13.7 26.9 13.3C27.2 12.9 27.5 12.4 27.7 12C27.9 11.5 27.5 10.9 27.3 10.5C27.2 10.2 27.1 9.90001 26.9 9.70001C26.8 9.50001 26.6 9.40001 26.4 9.50001C26.1 9.60001 26.4 10.1 26.7 9.90001C26.6 9.90001 26.6 9.90001 26.5 9.90001C26.6 9.90001 26.7 10.3 26.7 10.4C26.8 10.6 26.9 10.8 27 11C27.1 11.2 27.2 11.3 27.2 11.5C27.3 11.7 27.2 11.9 27.1 12.1C26.9 12.4 26.7 12.7 26.5 13.1C26.3 13.4 26.1 13.8 25.7 13.8C25.1 13.9 24.5 13.4 24.2 12.9C23.9 12.3 23.9 11.5 24.1 10.9C24.3 10.2 24.8 9.50001 25.5 9.30001C25.7 9.20001 25.6 8.70001 25.3 8.80001Z" fill="black"/>
<path d="M29.2 11.5C28.6 11.6 28.1 11.5 27.5 11.7C27.1 11.9 26.7 12.2 26.4 12.6C25.9 13.5 26.2 14.6 26.9 15.2C27.3 15.5 27.7 15.8 28.1 16C28.6 16.2 29.1 16.4 29.7 16.3C30.7 16.1 31.3 14.9 31.5 14.1C31.8 13 31.4 11.8 30.2 11.4C29.9 11.3 29.8 11.8 30.1 11.9C30.9 12.1 31.2 13 31.1 13.8C31 14.5 30.5 15.6 29.8 15.8C29.4 15.9 28.9 15.7 28.5 15.6C28.1 15.5 27.8 15.3 27.5 15C26.9 14.5 26.5 13.7 26.9 12.9C27.1 12.5 27.4 12.2 27.8 12.1C28.3 11.9 28.8 12 29.3 11.9C29.7 11.9 29.6 11.5 29.2 11.5Z" fill="black"/>
<path d="M32.9 13.4C32 13.5 30.9 13.9 30.7 14.8C30.4 15.7 31.2 16.7 31.8 17.3C32.5 17.9 33.3 18.3 34.3 18.1C34.7 18 35.3 17.9 35.6 17.6C36 17.3 36.1 16.9 36 16.5C35.8 15.5 35.6 14.2 34.5 13.7C34.2 13.6 34 14 34.2 14.1C34.9 14.4 35.2 15.2 35.3 15.9C35.4 16.2 35.6 16.8 35.3 17.1C35.1 17.3 34.6 17.4 34.3 17.5C33.6 17.7 32.9 17.6 32.3 17.2C31.7 16.8 31.2 16.1 31 15.4C30.8 14.5 32 14 32.7 13.9C33.3 13.9 33.3 13.4 32.9 13.4Z" fill="black"/>
<path d="M36.7 15.3C36.1 15.8 36.2 16.8 36.4 17.4C36.5 17.8 36.7 18.1 36.9 18.4C37.1 18.7 37.4 19 37.9 18.8C38.6 18.5 39 17.6 39.1 16.9C39.2 16.2 39 15.4 38.4 14.9C37.8 14.4 36.9 14.4 36.5 15.1C36.3 15.4 36.8 15.6 36.9 15.4C37.1 15 37.7 15 38 15.3C38.4 15.6 38.6 16.2 38.6 16.7C38.6 17.3 38.4 17.8 38 18.2C37.9 18.3 37.8 18.4 37.6 18.4C37.5 18.4 37.4 18.2 37.3 18.1C37.1 17.9 37 17.6 36.9 17.3C36.7 16.8 36.6 16 37.1 15.6C37.3 15.4 36.9 15.1 36.7 15.3Z" fill="black"/>
<path d="M40.2 13.3C39.4 13.5 39 14.5 38.9 15.3C38.8 16.2 39.2 17.1 40.1 17.2C40.6 17.3 41.1 17.1 41.5 17.1C42 17 42.5 17 42.9 16.8C43.5 16.4 43.8 15.6 43.6 14.9C43.4 14 42.4 13.4 41.6 13.2C41.3 13.1 41.2 13.6 41.5 13.7C42.1 13.9 42.7 14.2 43.1 14.8C43.4 15.3 43.3 15.9 42.9 16.3C42.7 16.5 42.3 16.6 42 16.7C41.6 16.8 41.2 16.8 40.8 16.9C40.5 16.9 40.1 17 39.8 16.7C39.6 16.5 39.4 16.2 39.4 15.8C39.4 15.4 39.5 15 39.7 14.6C39.9 14.3 40.1 14 40.4 13.9C40.6 13.7 40.5 13.2 40.2 13.3Z" fill="black"/>
<path d="M24.1 13.7C23.8 14.1 23.3 14.3 23 14.6C22.6 14.9 22.3 15.3 22.1 15.7C21.6 16.5 21.3 17.6 21.9 18.4C22.5 19.2 23.6 19.3 24.5 19C24.9 18.9 25.4 18.6 25.6 18.3C25.9 17.9 26 17.4 25.9 17C25.9 16.5 25.8 15.9 25.6 15.5C25.5 15.3 25.3 15.1 25.2 14.9C25 14.7 24.7 14.5 24.8 14.2C24.9 13.9 24.5 13.7 24.4 13.9C24.2 14.3 24.3 14.6 24.6 14.9C24.7 15.1 24.9 15.2 25 15.3C25.1 15.5 25.2 15.7 25.3 15.9C25.5 16.7 25.7 17.7 25 18.3C24.3 18.8 23.2 18.9 22.5 18.4C21.8 17.8 22.1 16.7 22.6 16C22.9 15.6 23.2 15.3 23.6 15C24 14.7 24.4 14.5 24.7 14.1C24.7 13.7 24.3 13.4 24.1 13.7Z" fill="black"/>
<path d="M27.9 15.4C27 15.3 26.1 15.8 25.8 16.6C25.4 17.5 25.7 18.4 26.3 19.1C26.9 19.8 27.9 20.1 28.9 20.1C29.4 20.1 30 20 30.3 19.7C30.6 19.3 30.7 18.7 30.7 18.3C30.7 17.7 30.7 17.1 30.5 16.5C30.3 16 30.1 15.6 29.5 15.6C29.2 15.6 29.2 16.1 29.5 16.1C29.8 16.1 29.9 16.5 30 16.8C30.1 17.2 30.2 17.7 30.2 18.1C30.2 18.5 30.2 19 30 19.3C29.8 19.7 29.3 19.7 29 19.7C28.2 19.8 27.4 19.6 26.9 19.1C26.4 18.6 26.1 17.9 26.2 17.2C26.4 16.5 27.1 15.9 27.8 16C28.1 15.9 28.2 15.4 27.9 15.4Z" fill="black"/>
<path d="M32.8 17.5C32.4 17.7 32 17.5 31.6 17.7C31.2 17.8 31 18.2 30.8 18.5C30.4 19.2 30.4 20 30.9 20.7C31.3 21.3 32 21.7 32.8 21.6C33.5 21.5 34.2 21.1 34.6 20.5C34.7 20.3 34.8 20 34.9 19.8C35 19.5 35 19.2 35 19C35 18.5 34.7 18.2 34.3 17.9C34.1 17.7 33.7 18 33.9 18.3C34.1 18.5 34.4 18.7 34.4 19C34.4 19.2 34.4 19.3 34.3 19.5C34.2 19.7 34.2 19.9 34.1 20.1C33.8 20.6 33.3 21 32.7 21.1C32.1 21.2 31.6 21 31.2 20.5C30.8 20 30.8 19.4 31 18.8C31.2 18.5 31.4 18.2 31.8 18.1C32.2 18.1 32.5 18.1 32.9 17.9C33.4 17.8 33.1 17.3 32.8 17.5Z" fill="black"/>
<path d="M37.1 18.3C36.6 18.4 36.2 18.6 35.7 18.9C35.3 19.1 35 19.4 34.8 19.8C34.5 20.6 34.9 21.5 35.6 22C36.3 22.5 37.3 22.8 38 22.4C38.4 22.2 38.6 21.8 38.8 21.5C39 21.1 39.2 20.7 39.3 20.2C39.4 19.7 39.3 19.2 39 18.8C38.7 18.4 38.3 18.2 37.9 18.1C37.6 18.1 37.4 18.5 37.8 18.6C38.4 18.7 38.9 19.2 38.8 19.9C38.8 20.3 38.6 20.6 38.4 21C38.3 21.3 38.1 21.6 37.9 21.8C37.4 22.3 36.6 22.1 36 21.7C35.4 21.4 35 20.8 35.2 20.1C35.3 19.7 35.6 19.5 35.9 19.3C36.3 19.1 36.7 18.9 37.1 18.8C37.6 18.7 37.4 18.2 37.1 18.3Z" fill="black"/>
<path d="M39.2 19.9C39.7 20.1 40.3 20.2001 40.9 20.2001C41.2 20.2001 41.4 20.2 41.6 20C41.8 19.8 41.9 19.6 42 19.3C42.2 18.8 42.4 18.2001 42.3 17.7001C42.2 17.2001 41.8 16.8 41.3 16.8C41.2 16.8 41 16.8 41 17C41 17.1 41 17.3 41.2 17.3C41.5 17.4 41.8 17.6 41.8 18C41.8 18.4 41.7 18.8001 41.5 19.2001C41.4 19.4001 41.3 19.6001 41.2 19.7001C41.1 19.8001 40.8 19.8 40.7 19.8C40.2 19.8 39.8 19.7 39.4 19.5C39.3 19.4 39.1 19.6001 39.1 19.7001C39 19.7001 39.1 19.8 39.2 19.9Z" fill="black"/>
<path d="M23.8 18.6C23.1 19.2 22.8 20.2 23 21.1C23.2 21.9 23.9 22.8 24.8 23C25.3 23.1 25.8 22.9 26.3 22.8C26.7 22.6 27.1 22.4 27.4 22C27.6 21.6 27.6 21 27.5 20.6C27.4 20.1 27.1 19.6 26.8 19.3C26.6 19.1 26.3 19.1 26.1 19C25.8 18.9 25.5 18.8 25.2 18.7C24.7 18.6 24.2 18.4 23.8 18.8C23.6 19 23.9 19.4 24.2 19.2C24.5 19 24.9 19.2 25.2 19.3C25.6 19.4 26.1 19.5 26.4 19.7C26.8 19.9 26.9 20.3 27.1 20.6C27.2 21 27.3 21.4 27.2 21.8C27.1 22.2 26.8 22.4 26.5 22.5C26.2 22.6 25.7 22.8 25.4 22.8C24.7 22.7 24.1 22.1 23.9 21.4C23.6 20.6 23.9 19.8 24.5 19.2C24.4 18.7 24.1 18.4 23.8 18.6Z" fill="black"/>
<path d="M30.8 20.3C30.3 20.1 29.8 19.9 29.2 19.9C28.7 19.8 28.2 19.8 27.8 20.1C27.4 20.4 27.2 20.9 27 21.3C26.8 21.8 26.8 22.3 27.1 22.8C27.6 23.6 28.5 24.3 29.4 24.6C29.8 24.8 30.4 24.9 30.9 24.8C31.4 24.7 31.7 24.1 31.9 23.8C32.2 23.3 32.5 22.7 32.4 22.1C32.3 21.5 32 21.1 31.6 20.6C31.4 20.3 31 20.7 31.2 21C31.4 21.3 31.7 21.6 31.8 22C31.9 22.4 31.8 22.8 31.6 23.2C31.4 23.5 31.2 24 30.9 24.2C30.6 24.4 30 24.2 29.7 24.1C29 23.9 28.3 23.5 27.8 22.9C27.5 22.6 27.3 22.2 27.3 21.7C27.3 21.3 27.5 20.8 27.8 20.5C28.1 20.2 28.6 20.2 28.9 20.2C29.4 20.3 29.9 20.4 30.4 20.6C30.9 20.9 31.1 20.4 30.8 20.3Z" fill="black"/>
<path d="M35.4 21.7001C34.4 21.3001 33.1 20.8001 32.1 21.6001C31.7 21.9001 31.5 22.4001 31.4 22.9001C31.3 23.5001 31.6 24.0001 31.8 24.5001C32.1 25.0001 32.5 25.4001 33 25.7001C33.5 25.9001 34 26.0001 34.5 26.1001C35 26.1001 35.6 26.0001 36 25.7001C36.4 25.4001 36.7 24.9001 36.7 24.4001C36.7 23.2001 35.9 22.0001 34.8 21.5001C34.5 21.4001 34.3 21.8001 34.5 21.9001C35.3 22.3001 35.9 23.0001 36.1 23.8001C36.2 24.2001 36.2 24.7001 35.9 25.1001C35.6 25.4001 35.2 25.5001 34.8 25.6001C33.9 25.7001 33 25.4001 32.4 24.7001C31.9 24.0001 31.5 23.1001 32.1 22.3001C32.8 21.3001 34.1 21.8001 35 22.2001C35.5 22.2001 35.7 21.8001 35.4 21.7001Z" fill="black"/>
<path d="M34.6 8.79993C35.9 5.79993 37.3 2.59993 40 0.699927C40.3 0.499927 40.6 0.299927 41 0.299927C41.4 0.299927 41.7 0.499927 41.8 0.899927C40.1 1.79993 38.9 3.39993 37.8 4.99993C36.9 6.39993 36.1 7.89993 36.3 9.49993C35.6 9.19993 35 8.99993 34.4 8.69993" fill="white"/>
<path d="M34.8 8.89997C35.5 7.19997 36.2 5.49997 37.2 3.99997C37.7 3.19997 38.3 2.49997 38.9 1.89997C39.2 1.59997 41.2 -0.300034 41.4 0.999966C41.4 0.899966 41.5 0.799966 41.5 0.699966C40 1.59997 38.8 2.89997 37.8 4.39997C36.8 5.89997 35.7 7.69997 35.9 9.59997C36 9.49997 36.1 9.39997 36.2 9.39997C35.6 9.19997 35 8.89997 34.4 8.59997C34.1 8.49997 33.9 8.89997 34.1 8.99997C34.7 9.29997 35.3 9.59997 36 9.79997C36.1 9.89997 36.3 9.69997 36.3 9.59997C36.2 7.79997 37.2 6.09997 38.2 4.69997C39.1 3.29997 40.3 1.99997 41.7 1.19997C42 0.999966 42 0.899966 42 0.799966C41.9 0.399966 41.6 0.0999655 41.2 -3.44794e-05C40.7 -0.100034 40.3 0.199966 39.9 0.399966C39 0.999966 38.2 1.79997 37.6 2.69997C36.2 4.49997 35.3 6.59997 34.4 8.59997C34.3 8.89997 34.7 9.19997 34.8 8.89997Z" fill="black"/>
</g>
<defs>
<clipPath id="clip0">
<rect width="45.4" height="63.8" fill="white"/>
</clipPath>
</defs>
</svg>
