<svg xmlns="http://www.w3.org/2000/svg" viewBox="0 0 87.99 87.93"><defs><style>.cls-1{fill:#54bb0d;}</style></defs><g id="Ebene_2" data-name="Ebene 2"><g id="Ebene_1-2" data-name="Ebene 1"><path class="cls-1" d="M84.82,28.75a114.52,114.52,0,0,0-12.15,2.56A36.27,36.27,0,0,0,63,35.19a40.22,40.22,0,0,0,1.61-7.13A32.86,32.86,0,0,0,61.64,9.15a15.93,15.93,0,0,0-4.27-5.73A3.37,3.37,0,0,0,53.13,2a9.79,9.79,0,0,0-7.35,3.75A22.89,22.89,0,0,0,44.08,8a25.82,25.82,0,0,0-2.61,2.62,27.65,27.65,0,0,0-2.38-3.33,14.32,14.32,0,0,0-5.83-4.57,6.62,6.62,0,0,0-6.85,1.81c-3.55,3.45-4.94,8.7-5.94,13.39-.64,3-1.2,6.09-1.68,9.15-.25-.21-.49-.42-.75-.61C14.28,23.84,9.58,25,6.36,27.91,0,33.71-.13,43.69,3.17,51.08A34,34,0,0,0,10.58,61.3c1.51,1.48,3.2,3.29,5.19,4.08a4.33,4.33,0,0,0,2.4.23l-.15.65a2.54,2.54,0,0,0,3.08,3.08,90.85,90.85,0,0,1,17.39-3c.56,6.35,1.15,12.7,1.7,19a2.57,2.57,0,0,0,2.5,2.5,2.52,2.52,0,0,0,2.5-2.5q-.48-5.64-1-11.27a10.69,10.69,0,0,0,2,1.2c5.45,2.54,12.29,2.16,18.06,1.08,5.37-1,11.34-2.94,15.25-7,4.2-4.32,5-10.69,6-16.36a195.39,195.39,0,0,0,2.51-22C88.08,29.38,86.31,28.51,84.82,28.75ZM51,60.28a49.67,49.67,0,0,1,8.92-15.7,4.77,4.77,0,0,0,.54.48,30.42,30.42,0,0,0-2.39,4.25c-.6,1.2-1.13,2.44-1.63,3.69a44.21,44.21,0,0,0-4.81,6.8Zm-18.48-.86a36.78,36.78,0,0,0,2.88-3,2.64,2.64,0,0,0,1-.83,4.62,4.62,0,0,0,1.23,0c.08,1,.15,2.08.24,3.12a7.23,7.23,0,0,0-.37,1.11A26.43,26.43,0,0,0,32.51,59.42ZM31.63,19l-.2.44c.05-1.06.11-2.11.17-3.16C31.63,17.17,31.64,18.08,31.63,19Zm5.49,11.6c-.51,1.13-1,2.27-1.49,3.4a2.17,2.17,0,0,0-.39-.35q.32-1.92.57-3.84A2.31,2.31,0,0,0,37.12,30.59ZM29.69,51.77a3.89,3.89,0,0,0-1.05-.85,5.47,5.47,0,0,0,.7-.4c.25.43.49.87.75,1.31l-.37,0ZM42.1,46.88l.66-1c.23.49.47,1,.73,1.45a6.87,6.87,0,0,1-.76.63,6.41,6.41,0,0,1-.61.4C42.11,47.84,42.1,47.36,42.1,46.88ZM45.26,26.2l-.2-.21c0-.17,0-.34,0-.51l.27-.54.09-.17ZM55.41,40.3c-.36.71-.74,1.4-1.13,2.07a61.47,61.47,0,0,1-5.42,7.78l-.23.28A95.59,95.59,0,0,0,55.41,40.3Zm.34-30.7c-.6.67-1.16,1.37-1.69,2.08a2.14,2.14,0,0,0-.59-.35,2.54,2.54,0,0,0-.67-.17l.33-.6,1.38-2.44.24-.43a7.3,7.3,0,0,1,1.32,1.62A2.21,2.21,0,0,0,55.75,9.6ZM30.94,9.37a25.48,25.48,0,0,1,.6,5.34c-.45-1.68-2.63-2-3.93-1.06A16.17,16.17,0,0,1,30.94,9.37ZM26.5,18.11a2.59,2.59,0,0,0-.79.41,19.66,19.66,0,0,1,.92-2.78ZM26.34,58l.24,1.39c-.32,0-.63,0-.94-.09C25.86,58.84,26.1,58.41,26.34,58ZM64.52,62c0,.05,0,.08-.08.09S64.52,62.06,64.52,62Zm-1,0c-.15,0-.09-.08,0,0Zm5.72-9.4a2.83,2.83,0,0,0,.63-.13c-.12.38-.24.77-.37,1.16C69.43,53.35,69.35,53,69.27,52.66ZM62.18,67a11.5,11.5,0,0,1,1.11-3.12c.2-.37.42-.73.65-1.08.2.37.38.75.56,1.13s.25.46.38.69c-.5.93-1,1.84-1.55,2.74Q62.66,68.42,62,69.5A11,11,0,0,1,62.18,67ZM73.6,48.4a1.57,1.57,0,0,0,.08.29,2.84,2.84,0,0,0-1-.14,15.43,15.43,0,0,0,.69-2.5c0,.54.11,1.09.18,1.64v.05h0C73.54,48,73.57,48.18,73.6,48.4ZM45.31,60.23l-.27,0a8,8,0,0,0,.83-.41l-.18.58A1.86,1.86,0,0,0,45.31,60.23Zm30.07-8.58a2.45,2.45,0,0,0-.11-1.56,3,3,0,0,0,.82.12,47.9,47.9,0,0,1-1.76,5.88ZM78.79,36.8c.13-.67.1,0,0,0Zm3.73.22a10.38,10.38,0,0,0-.75-2.69l1-.19c-.07,1-.15,2-.24,3C82.53,37.11,82.53,37.07,82.52,37Zm-8.75-.82A18.86,18.86,0,0,0,73.35,39l-.16,0c0-.21-.08-.42-.14-.63a2.36,2.36,0,0,0-1.44-1.59C72.33,36.6,73.05,36.41,73.77,36.2ZM38.28,15.26l-.36.68a4.15,4.15,0,0,0-.64-.46,3.34,3.34,0,0,0-.73-.31c0-.22,0-.44,0-.67-.05-.85-.1-1.73-.18-2.62A21.42,21.42,0,0,1,38.28,15.26ZM17.81,34.16s0,0,0,0l0,.21q-.24,2.22-.42,4.47c-.21-1.07-.47-2.12-.78-3.17a2.39,2.39,0,0,0-.77-2.29c-.25-.67-.51-1.34-.8-2a1.79,1.79,0,0,0-.42-.61,2.13,2.13,0,0,0,0-.57A7.07,7.07,0,0,1,17.81,34.16ZM6.18,38.76a13.79,13.79,0,0,0,.74,2c0,.16,0,.32,0,.47a11.42,11.42,0,0,0,1.52,6.1,15.11,15.11,0,0,0,1.33,5.26,24,24,0,0,1-2.31-4.18A18,18,0,0,1,6.18,38.76ZM16.37,61.58v0S16.36,61.59,16.37,61.58Zm29.92,7.7A2.74,2.74,0,0,0,47.65,69c0,.14-.09.28-.13.42a2.45,2.45,0,0,0-.06.94A4.74,4.74,0,0,1,46.29,69.28ZM53,72a16.06,16.06,0,0,0,2.41-1.8c.53-.45,1-.94,1.55-1.41a16.13,16.13,0,0,0,.24,3.4A28.07,28.07,0,0,1,53,72Zm14.15-1.47c.51-.83,1-1.67,1.48-2.52a9.43,9.43,0,0,0,2.84.91,31.08,31.08,0,0,1-4.06,1.54ZM78,63a10.66,10.66,0,0,1-2.25,3.12,2,2,0,0,0-.36-.8c-.09-.11-.16-.23-.25-.34a30.61,30.61,0,0,0,5.16-11c-.13.72-.26,1.45-.4,2.16A28.9,28.9,0,0,1,78,63Z"/></g><g id="Striche"><path d="M87.42,32.13C86.67,31,85,31.06,83.8,30.9a45.27,45.27,0,0,0-18.88,1.46,26.55,26.55,0,0,0,.65-3.31A53.32,53.32,0,0,0,66,18.64a32.13,32.13,0,0,0-2-9.68c-1.06-2.67-2.28-5.54-5.56-5.49-6.34.1-14.26,3.26-15.7,10.08a57.42,57.42,0,0,0-2.93-5.34,27.46,27.46,0,0,0-4-5C34.54,1.93,32.73.13,30.85,0c-4.38-.28-5.69,6.25-6.4,9.36-1.16,5.06-1.67,10.23-3,15.25-.57,2.21-1.2,4.42-1.75,6.64l-3.55-3.33a21.14,21.14,0,0,0-3.26-2.87c-2.14-1.27-4.74-.11-6.59,1.18C2.05,29.22,0,34.47,0,39.56c0,6,2.5,12,5.74,17.06a40.8,40.8,0,0,0,5.57,6.92,15.56,15.56,0,0,0,6.78,4.37c6.43,1.72,12.87-2,19.35-1.46Q38.1,70,39,73.6c1.09,4.29,2.09,9-.45,13a.26.26,0,0,0,.21.38l4.09.34a.25.25,0,0,0,.25-.25A117.58,117.58,0,0,1,42.35,75c0-.81-.18-1.84.89-2.27a5,5,0,0,1,1.69-.1c1,0,1.89.15,2.83.22a30,30,0,0,0,5.92-.18c6.89-.81,13.4-2.39,19-6.63A36.62,36.62,0,0,0,84.16,51a46.1,46.1,0,0,0,2.89-9.75c.3-1.62.52-3.25.66-4.88C87.83,35.08,88.2,33.29,87.42,32.13ZM43.07,14c1.16-6.64,8.15-9.27,14.08-9.95,1.91-.23,3.53-.07,4.67,1.68a20.36,20.36,0,0,1,2,4.34,32.64,32.64,0,0,1,1.69,9c.35,6.33-.21,13.12-3.21,18.79a64.63,64.63,0,0,0-2.72,6,.27.27,0,0,0-.31.23c0,.26-.06.52-.09.78s-.29.72-.44,1.09a18.62,18.62,0,0,1-5,7.27A30.79,30.79,0,0,1,46,58c-2.51,1.13-6.1,3-8.89,1.84-.07-1-.13-2-.18-3h0c.32,0,.31-.46,0-.5h0c1.46-4,5.41-6.19,8-9.32A17.08,17.08,0,0,0,48,41.12a.21.21,0,0,0,.18.08l3.4-.14a5.58,5.58,0,0,0,2.76-.54c.27-.17,0-.6-.25-.43a5.59,5.59,0,0,1-2.75.48l-3.16.13a.15.15,0,0,0-.07,0,22.21,22.21,0,0,0,.73-3.61,37.9,37.9,0,0,1,5-5.17A25.56,25.56,0,0,1,56.76,30,6.43,6.43,0,0,0,59,28a.25.25,0,0,0-.43-.26,6.54,6.54,0,0,1-2.49,2.08,20,20,0,0,0-2.76,1.87,35.13,35.13,0,0,0-4.41,4.55c0-.32,0-.64.07-1a26.86,26.86,0,0,0-.56-6.2c1.23-3.15,4.36-5,6.36-7.65a16.12,16.12,0,0,0,2.47-4.74c.62-1.91.59-4,1.23-5.85.1-.3-.38-.43-.48-.13-.63,1.84-.6,3.83-1.19,5.69a15.34,15.34,0,0,1-3,5.46c-.52.6-1.09,1.17-1.66,1.73h0a14.91,14.91,0,0,1-1.53-11.07.25.25,0,0,0-.48-.13,15.42,15.42,0,0,0,1.58,11.45.21.21,0,0,0,.11.08,16.72,16.72,0,0,0-3.55,4.29A47.11,47.11,0,0,0,46,21.05c-.92-2.3-1.91-4.62-3-6.89A.17.17,0,0,0,43.07,14Zm-19-.29a57.06,57.06,0,0,1,1.51-6.86c.64-2.14,1.42-5,3.6-6,2.46-1.19,4.91,1.33,6.5,3A28.54,28.54,0,0,1,39.64,9a83.24,83.24,0,0,1,5.77,12A46.22,46.22,0,0,1,47.93,29c0,.1-.09.19-.12.29s.08.28.23.29a26.65,26.65,0,0,1,.47,4.89,18.6,18.6,0,0,1-4.82,13c-2.36,2.48-5.37,4.55-6.91,7.65a28.36,28.36,0,0,0-.9-5.75,6.09,6.09,0,0,1-.22-3.86,24.85,24.85,0,0,1,1.66-3.3l3.4-6.41c.15-.29-.28-.54-.43-.26L36.89,42c-.75,1.41-1.79,2.91-2,4.54-.42-1.82-.77-3.66-1.07-5.5a.25.25,0,0,0-.05-.33,87.53,87.53,0,0,1-1-9.83c2.56-2.51,4.95-5.48,5.37-9.16,0-.32-.46-.32-.5,0-.39,3.38-2.57,6.15-4.9,8.49A89,89,0,0,1,33,19.4c0-.32-.47-.32-.5,0a89,89,0,0,0-.21,11.31l-.08.08a.23.23,0,0,0,.11.39,87,87,0,0,0,1,9.4,1.83,1.83,0,0,1-.35-.33c-.27-.3-.52-.61-.77-.91l-1.52-1.8c-1-1.21-2-2.41-3-3.63-.2-.25-.56.11-.35.35,1.08,1.32,2.16,2.64,3.26,3.94.53.64,1.06,1.27,1.6,1.9.33.39.71.95,1.23,1.07.33,2,.7,3.94,1.16,5.89a.23.23,0,0,0,.38.11v.09A13.73,13.73,0,0,0,35.53,50a21.69,21.69,0,0,1,.61,4c0,.73.09,1.46.14,2.19-2.2-.16-4.41.23-6.6,0A10.82,10.82,0,0,1,24,53.51c-3.43-3-4.93-7.43-5.08-11.88a36.8,36.8,0,0,1,1.24-9.85s0,0,0,0c.34-1.43.72-2.86,1.11-4.28C22.47,22.92,23.32,18.37,24.11,13.74ZM22.28,67.82a12.26,12.26,0,0,1-7.75-2.16A29.68,29.68,0,0,1,8.71,59.9C2.24,51.88-3.48,38.34,4,29.14c1.74-2.14,5.44-5.21,8.39-3.83a15.4,15.4,0,0,1,3.48,3l3.77,3.54a41.57,41.57,0,0,0-1.21,8c-.17,4.92,1.06,10,4.69,13.55a11.89,11.89,0,0,0,5.39,3.09c2.55.62,5.17.08,7.76.26a.2.2,0,0,0,.09.15c.06.89.12,1.79.19,2.68-.1-.06-.21-.11-.31-.18-.26-.19-.51.25-.25.43a4.76,4.76,0,0,0,.61.35c0,.14,0,.28,0,.42.19,1.81.46,3.59.77,5.37C32.22,65.53,27.37,67.61,22.28,67.82ZM87,38.11a52.88,52.88,0,0,1-1,5.57,43.54,43.54,0,0,1-3.59,9.83A34.79,34.79,0,0,1,69.89,67.3,30,30,0,0,1,60.65,71a49.26,49.26,0,0,1-11.47,1.4c-1.89,0-3.83-.52-5.72-.24-1.41.21-1.61,1-1.61,2.32a113.39,113.39,0,0,0,.73,12.36l-3.4-.28c1.85-3.17,1.69-6.91,1-10.41-1-4.58-2.23-9-2.82-13.67-.09-.69-.15-1.38-.2-2.08,2.23.78,4.78-.18,6.91-1a37.6,37.6,0,0,0,7.9-4.13,20.26,20.26,0,0,0,6-6.34A17.67,17.67,0,0,0,59,46.69c-.16,1.45-.31,2.9-.43,4.36-.14,1.74-.62,4,.56,5.46.2.25.56-.11.36-.36a3.85,3.85,0,0,1-.59-2.7c.05-1,.14-2.08.23-3.12.16-1.83.36-3.66.58-5.49l0-.1a45.84,45.84,0,0,1,2.59-5.82,30.2,30.2,0,0,0,2.48-6h.06A45.46,45.46,0,0,1,76.31,31a46.79,46.79,0,0,1,5.16.13c.91.08,1.82.18,2.72.31,1.44.21,3,.3,3.15,2.08A20.64,20.64,0,0,1,87,38.11Z"/><path d="M32.06,30.08a31.59,31.59,0,0,1-5.25-9.46c-.1-.31-.59-.18-.48.13a32.42,32.42,0,0,0,5.37,9.69C31.91,30.69,32.26,30.33,32.06,30.08Z"/><path d="M76.32,44c-1.24,1.27-2.49,2.55-3.77,3.79a12.09,12.09,0,0,1-1.11-5.13c0-.86,0-1.71,0-2.56s0-2,.7-2.46c.27-.17,0-.61-.26-.44a2.28,2.28,0,0,0-.87,1.92c-.09,1.05-.14,2.12-.13,3.17a13,13,0,0,0,1.24,5.87,54,54,0,0,1-4.92,4.26c-.26.2-.54.39-.81.58a7,7,0,0,0-.81-.26.25.25,0,0,0-.13.48l.43.14a83.26,83.26,0,0,1-9.28,5.18c-6.08,3.11-12.43,6.83-15.17,13.43-.12.3.36.43.48.13,2.94-7.07,10.12-10.68,16.57-14a66.1,66.1,0,0,0,8-4.6c2.41,1,4.13,3.21,5.66,5.25.19.26.63,0,.43-.25-1.53-2-3.25-4.25-5.62-5.34.43-.31.88-.61,1.3-.94a87.44,87.44,0,0,0,8.41-7.92A.25.25,0,0,0,76.32,44Z"/><path d="M35.43,58.94c-2.9.76-6.18-.14-9-.87a15.37,15.37,0,0,1-7.63-4.53,39.58,39.58,0,0,1-5.35-7.25,5,5,0,0,1-.16-1.55c0-.91.46-1.82.16-2.73-.1-.3-.59-.17-.48.14a2.91,2.91,0,0,1,0,1.52A6.91,6.91,0,0,0,12.76,45v.06A42.41,42.41,0,0,1,10,38.79c-.1-.3-.59-.17-.48.14A43.56,43.56,0,0,0,13,46.5a6,6,0,0,0,.43,1.16.22.22,0,0,0,.31.09,37.57,37.57,0,0,0,4.05,5.41.29.29,0,0,0-.13,0,7.61,7.61,0,0,1-6.86.2c-.29-.14-.54.29-.25.43a8.1,8.1,0,0,0,7.36-.2.2.2,0,0,0,.11-.2c.34.37.66.73,1,1.08a15.42,15.42,0,0,0,6.31,3.79A9.6,9.6,0,0,1,19,59.48c-.31,0-.45.43-.13.48a10.12,10.12,0,0,0,6.78-1.33.24.24,0,0,0,.11-.22l.7.2c2.87.71,6.13,1.58,9.07.81A.25.25,0,0,0,35.43,58.94Z"/></g></g></svg>