<svg width="65" height="58" viewBox="0 0 65 58" fill="none" xmlns="http://www.w3.org/2000/svg">
<g clip-path="url(#clip0)">
<path d="M18.1 7.69998C9.50001 10.3 2.90001 17.8 1.10001 26.5C-0.699991 35.5 3.00001 44.6 10.1 50.4C18.1 57 28.6 58.7 38.6 56.6C43.6 55.5 48.9 53.6 53.2 50.7C55.6 49.1 57.3 47.1 58.2 44.4C59 42 59.2 39.3 59.1 36.8C58.6 25.3 51 13.9 39 12.3C37.6 12.1 36.4 12.6 35.9 14C34.6 18.1 32.7 22 30.3 25.6C31.8 25.8 33.3 26 34.9 26.2C34.1 23.8 33.4 21.4 33.2 18.9C33.1 17.8 32.5 16.8 31.4 16.5C30.4 16.2 29.1 16.7 28.6 17.6C25.5 23.2 21.9 28.3 17.6 33C19 33.4 20.4 33.7 21.8 34.1C20.1 29.9 17.7 24.5 20.4 20.3C18.9 19.7 17.4 19 15.8 18.4C13.1 25.3 10.6 32.5 12.1 40.1C13.7 39.7 15.3 39.2 16.9 38.8C15.2 32.3 14.2 25.7 14 19C14 17.8 13.1 16.7 11.8 16.5C10.7 16.4 9.20001 17 9.10001 18.3C7.80001 26.9 6.60001 35.9 9.70001 44.3C10 45.2 10.7 46 11.8 46.1C12.7 46.2 13.9 45.8 14.3 44.9C18 36.3 20.7 27.4 22.3 18.2C21.1 18.7 19.9 19.2 18.6 19.7C19.9 20.3 20.1 21.8 20.3 23.1C20.7 25.3 20.9 27.5 21.1 29.6C21.6 34.4 21.9 39.1 21.9 43.9C21.9 47.1 26.9 47.1 26.9 43.9C27 37.8 27 31.7 27.1 25.6C25.5 25.8 23.8 26 22.2 26.3C22.9 30.2 23.2 34.2 23 38.2C23 39.3 22.9 40.3 22.8 41.4C22.8 41.9 22.7 42.3 22.6 42.8C22.6 42.9 22.6 43 22.5 43.2C22.3 43.7 22.4 43.7 22.7 43.2C22.8 42.7 23.4 43.6 22.6 43C22.7 43.1 21.7 42.6 21.9 42.7C21.2 42.3 20.5 41.9 19.9 41.4C15 37.8 12.5 31.6 10.1 26.2C8.90001 27.1 7.40001 28 6.00001 28.8C9.30001 35.6 13.6 41.9 18.6 47.6C20.7 50.1 23.9 54.4 27.6 52.2C29.1 51.3 29.8 49.6 30 48C30.4 45.9 30.6 43.7 30.8 41.5C31.3 36.7 31.6 31.8 31.6 26.9C30 27.1 28.3 27.3 26.7 27.6C28.6 35.7 29.5 44 29.5 52.3C29.5 53.7 30.7 54.8 32 54.8C33.5 54.8 34.3 53.6 34.5 52.3C35.6 43.5 38 34.9 41.3 26.8C39.8 27 38.3 27.2 36.7 27.4C39.3 33.2 40.4 39.5 40.2 45.8C41.8 45.6 43.5 45.4 45.1 45.1C44.1 40.2 43.8 35.3 44.3 30.3C44.4 29.1 44.6 27.9 44.8 26.8C44.8 26.6 45.2 25.6 45 25.4C44 25.4 43.6 25.5 43.9 25.9C44 26 44.1 26.1 44.2 26.2C45.7 27.7 46.8 29.6 47.7 31.4C49.4 34.8 50 38.9 47.9 42.3C47 43.7 45.7 44.9 44.2 45.6C43.1 46.1 41.2 46.5 40.2 45.7C40.5 46 40.8 46.3 41.1 46.6C41.6 47.2 40.8 47.4 41.2 46.9C41.4 46.6 41.6 46.1 41.7 45.8C42 45.2 42.2 44.6 42.5 44C43.2 42.5 43.9 41 44.5 39.5C45.8 36.7 47.1 33.9 48.3 31C49.4 28.4 50.1 25.7 49.5 22.9C49 20.6 47.5 18.3 45.3 17.2C39.7 14.5 34.8 19.7 33 24.5C32.1 26.9 31.7 29.7 31.9 32.3C32.1 34.8 32.7 38.1 34.5 40C39.6 45.5 46.3 33.8 47.8 30.1C48.7 28.1 45.8 26.2 44.1 27.3C41.2 29.2 38.7 31.6 36.1 33.9C33.8 36 31.2 37.9 28.1 38.7C22.2 40.2 15.9 37.2 13.3 31.7C11.9 28.7 11.7 25.2 12.7 22C13.5 19.3 9.50001 17.6 8.10001 20.1C4.60001 26.1 5.80001 33.3 8.90001 39.1C10.5 42.1 12.6 45 15.3 47.1C18.2 49.2 21.7 49.7 25.1 49.8C29.1 49.9 33.1 49.7 37.1 49.2C40.6 48.7 44 48.2 47.2 46.6C53.4 43.6 55.7 36.9 55.7 30.4C55.7 23.6 54.1 15.5 48.5 11C47.9 12.4 47.3 13.8 46.7 15.3C55.7 14.1 59.7 25.2 59.5 32.4C59.2 42 48.3 43.7 40.8 44.4C39.5 44.5 38.3 45.5 38.3 46.9C38.3 48.2 39.4 49.5 40.8 49.4C48.8 48.6 58.3 47.2 62.7 39.4C64.9 35.5 64.7 31 64 26.7C63.3 22.6 61.7 18.5 58.9 15.3C56 11.9 51.3 9.59998 46.7 10.2C45.7 10.3 44.8 10.7 44.4 11.7C44.1 12.5 44.1 13.8 44.9 14.4C48.9 17.6 50.2 22.9 50.5 27.8C50.8 32.4 50.5 38.2 46.3 41.1C44.1 42.7 41.3 43.3 38.6 43.7C35.4 44.3 32.1 44.5 28.8 44.6C25.9 44.7 22.6 44.9 19.8 43.8C17.4 42.9 15.7 40.8 14.4 38.7C11.3 34 9.20001 27.6 12.2 22.3C10.7 21.7 9.20001 21 7.60001 20.4C5.30001 27.9 8.20001 36.4 14.7 40.7C17.8 42.8 21.8 43.8 25.5 43.7C29.5 43.5 33.1 42 36.3 39.6C39.7 37 42.6 33.7 46.3 31.3C45.1 30.4 43.9 29.4 42.6 28.5C41.8 30.3 40.7 32.1 39.4 33.6C38.7 34.4 37.8 35 37.2 35.8C36.9 36.2 36.7 35.8 37.2 36.1C37.1 36 37.8 36.3 37.7 36.4C37.7 36.4 37.1 35 37 34.9C35.8 31.2 36.1 26.9 38.3 23.6C39 22.5 40.4 21 41.9 21.1C43.2 21.2 44 22.7 44.2 23.9C44.5 25.9 43.6 28 42.8 29.8C41.7 32.2 40.6 34.5 39.6 36.9C38.5 39.2 37.5 41.5 36.4 43.9C35.9 45.1 35.3 46.3 35.6 47.6C35.9 49 37 49.9 38.3 50.3C42.2 51.7 46.5 50 49.3 47.3C52.4 44.4 53.9 40.2 53.5 36C53.1 31.2 50.9 26.9 47.8 23.3C46.2 21.3 43.5 19.6 41 21.4C38.9 23 38.9 26.7 38.6 29.1C37.9 34.8 38.3 40.5 39.5 46.1C40.1 49 44.3 48.2 44.4 45.4C44.7 38.2 43.2 31 40.3 24.5C39.9 23.6 38.7 23.2 37.8 23.3C36.7 23.5 36.1 24.1 35.7 25.1C32.2 33.7 29.9 42.7 28.7 51.9C30.4 51.9 32 51.9 33.7 51.9C33.7 43.1 32.7 34.4 30.7 25.9C30 23.1 25.8 23.8 25.8 26.6C25.7 31.2 25.5 35.8 25 40.4C24.8 42.5 24.7 44.7 24.2 46.7L23.9 47.6C23.8 47.5 24.7 47.4 24.7 47.4C24.7 47.3 23.2 45.9 23 45.7C17.4 39.8 12.9 33.1 9.30001 25.8C8.70001 24.6 7.00001 24.3 5.90001 24.9C4.60001 25.6 4.50001 27.1 5.00001 28.3C8.00001 35.3 11.6 43 18.7 46.6C20.7 47.6 23.3 48.1 25.1 46.4C26.8 44.8 26.7 41.9 26.9 39.7C27.3 34.6 26.9 29.5 26 24.5C25.5 21.7 21.1 22.4 21.1 25.2C22.1 31.8 22.1 37.9 22 44C23.7 44 25.3 44 27 44C26.9 38.6 26.6 33.1 26 27.7C25.5 23.6 25.5 17.4 21.2 15.3C19.9 14.7 17.8 15.1 17.5 16.8C15.9 25.5 13.5 34.1 10 42.3C11.5 42.5 13 42.7 14.6 42.9C11.8 35.4 12.9 27.3 14 19.6C12.4 19.4 10.7 19.2 9.10001 18.9C9.30001 26 10.3 33.1 12.2 40C13 43.1 17.7 41.8 17 38.7C15.7 32.2 18.3 25.6 20.7 19.7C21.2 18.6 20.3 17.2 19.3 16.8C18.1 16.3 16.9 16.7 16.2 17.8C12.7 23.3 14.8 30 17.1 35.5C17.8 37.1 19.9 38.1 21.3 36.6C25.8 31.6 29.8 26.1 33.1 20.2C31.5 19.8 30 19.4 28.4 18.9C28.7 21.9 29.3 24.7 30.3 27.5C31 29.6 33.6 29.9 34.9 28.1C37.5 24.1 39.5 19.8 41 15.3C40 15.9 38.9 16.5 37.9 17C46.6 18.2 52.5 25.3 54 33.6C54.7 37.3 55 42.6 52 45.4C50.4 46.9 48.2 47.9 46.3 48.8C44.3 49.7 42.2 50.5 40 51.1C31.8 53.4 22.9 52.8 15.6 48.1C9.50001 44.1 5.30001 37.3 5.80001 29.8C6.40001 22 12 14.7 19.5 12.5C22.5 11.6 21.2 6.79998 18.1 7.69998Z" fill="#CC0000"/>
<path d="M16.3 7.30003C18.4 7.40003 20.5 7.40003 22.5 8.30003C22.2 8.20003 22.6 8.40003 22.7 8.40003C22.9 8.50003 23.1 8.60003 23.3 8.70003C23.7 9.00003 23.7 9.00003 24 9.30003C24.2 9.50003 24.4 9.70003 24.5 9.90003C24.3 9.70003 24.6 10 24.6 10.1C24.9 10.6 24.9 10.5 25 11C26 10 27.1 8.90003 28.1 7.90003C23.7 6.70003 18.8 8.10003 15.7 11.4C14.1 13.1 15.7 16.4 18.1 15.6C19.3 15.2 20.5 14.9 21.7 14.6C22.3 14.5 22.9 14.3 23.5 14.2C23.6 14.2 24.2 14 23.9 14.1C24.3 14.1 24.3 14.1 23.8 13.9C23.6 13.9 23.4 13.8 23.3 13.6C23.2 13.7 24.8 16.4 24.9 16.7C25.4 17.7 25.8 18.7 26.2 19.7C26.7 20.9 27.6 21.7 28.9 21.5C30.1 21.3 31.1 20.3 31.1 19C31 17.6 31 16.2 30.9 14.8C30.9 14.1 30.8 13.4 30.8 12.7C30.8 12.4 30.8 12.1 30.8 11.8C30.8 11.6 30.8 11.5 30.8 11.3C30.8 11 30.8 11 30.8 11.3C30.6 11.7 30.4 12 30.2 12.4C29.8 13 29.4 13.1 29 13C29.1 13 29.1 13 29.2 13.1C29.7 13.2 29.1 13 29.5 13.2C29.7 13.3 29.9 13.4 30.1 13.6C29.8 13.4 30.3 13.8 30.4 13.8C30.9 14.3 31.2 14.9 31.4 15.7C32.8 14.9 34.2 14.1 35.6 13.3C33.5 11.1 31.3 8.90003 29.3 6.60003C29.5 7.00003 29.7 7.30003 29.9 7.70003C29.9 7.80003 29.9 7.90003 29.9 8.00003C29.8 8.40003 29.7 8.80003 29.6 9.30003C28.6 9.90003 28.4 10.1 28.9 9.90003C29 9.80003 29.2 9.80003 29.3 9.80003C29.6 9.70003 29.9 9.60003 30.2 9.60003C30.6 9.50003 31.1 9.50003 31.7 9.50003C31.7 7.80003 31.7 6.20003 31.7 4.50003C29.2 4.60003 26.6 5.00003 24 5.40003C24.8 5.60003 25.6 5.80003 26.4 6.00003C26.4 5.90003 26.3 5.90003 26.3 5.80003C26.5 6.30003 26.8 6.60003 27 7.00003C27.2 7.80003 27.1 8.30003 26.5 8.50003C26.7 8.40003 26.9 8.30003 27 8.20003C27.3 8.00003 27.5 7.90003 27.8 7.70003C28.4 7.30003 29.1 6.90003 29.7 6.60003C31 5.90003 32.3 5.20003 33.7 4.70003C34.9 4.20003 35.2 2.30003 34.6 1.30003C33.9 2.99215e-05 32.4 -0.0999701 31.2 0.40003C29.7 1.10003 28.1 1.80003 26.7 2.70003C25.1 3.60003 23.1 4.60003 22.3 6.30003C21.8 7.50003 21.9 8.80003 22.8 9.70003C23.8 10.8 25.2 10.4 26.5 10.2C28.2 9.90003 30 9.70003 31.7 9.50003C33 9.40003 34.2 8.50003 34.2 7.00003C34.2 5.60003 33.1 4.50003 31.7 4.50003C30.2 4.50003 28.6 4.70003 27.2 5.30003C25.1 6.10003 24.2 8.50003 25.7 10.3C27.7 12.6 29.9 14.8 32 17C33.8 18.9 36.7 16.9 36.2 14.6C35.8 13 34.9 11.4 33.7 10.3C32.4 9.20003 30.7 8.10003 28.9 8.30003C27.6 8.40003 26.4 9.20003 26 10.5C25.7 11.4 25.9 12.4 25.9 13.4C26 15.4 26.1 17.4 26.2 19.5C27.8 19.3 29.5 19.1 31.1 18.8C30.5 17.3 29.8 15.8 29.1 14.3C28.5 13 27.9 11.4 26.7 10.4C25.1 9.00003 23.2 9.50003 21.4 9.90003C19.9 10.2 18.3 10.6 16.8 11.1C17.6 12.5 18.4 13.9 19.2 15.3C19.9 14.6 20 14.4 20.8 14C21.1 13.8 21.5 13.6 21.8 13.5C21.5 13.6 21.9 13.5 22 13.4C22.2 13.3 22.4 13.3 22.6 13.2C23 13.1 23.4 13 23.7 12.9C24.1 12.8 23.1 12.9 23.9 12.9C24.1 12.9 24.2 12.9 24.4 12.9C24.8 12.9 25.3 12.9 25.7 13C25.4 13 25.7 13 25.8 13C26.1 13.1 26.3 13.1 26.6 13.2C28.4 13.7 30.2 12 29.7 10.1C28.9 7.60003 27 5.50003 24.6 4.40003C21.9 3.10003 18.9 2.90003 16 2.80003C14.6 2.70003 13.5 4.00003 13.5 5.30003C13.8 6.20003 14.9 7.30003 16.3 7.30003Z" fill="#54BB0D"/>
<path d="M15.4 6.39994C10.6 7.09994 6.39999 9.99994 3.59999 13.9999C0.499989 18.4999 -0.500011 23.9999 0.199989 29.3999C1.39999 39.6999 8.29999 48.9999 17.4 53.7999C27.1 58.9999 39.2 58.7999 48.8 53.5999C53.4 51.0999 57.6 47.2999 60 42.5999C62.3 37.9999 62.8 32.6999 61.8 27.7999C59.4 16.4999 48.3 8.89994 37 10.2999C36.7 10.2999 36.7 10.7999 37 10.7999C46.7 9.59994 56.7 15.1999 60.2 24.3999C62 29.0999 62.2 34.3999 60.7 39.1999C59.1 44.2999 55.6 48.4999 51.2 51.5999C42.5 57.5999 30.9 58.8999 21.1 55.0999C12 51.4999 4.49999 43.5999 1.69999 34.1999C-0.100011 28.2999 -0.100011 21.5999 2.89999 16.0999C5.49999 11.2999 10.1 7.59994 15.5 6.79994C15.8 6.79994 15.7 6.29994 15.4 6.39994Z" fill="black"/>
<path d="M22.3 8.3C20 5.5 16.7 3.8 13 3.6C13 3.8 13 3.9 13.1 4.1C16.2 3.1 19.6 3.7 22.2 5.6C22.3 5.7 22.4 5.6 22.5 5.6C25.8 2.6 30.1 1 34.5 1.1C34.5 0.9 34.4 0.8 34.4 0.6C31.8 2.2 29.6 4.3 27.9 6.8C27.7 6.9 28 7.2 28.2 7C31 5.2 34.5 5 37.5 6.4C37.5 6.2 37.5 6.1 37.6 5.9C35.3 6.7 32.9 7.6 30.6 8.4C30.4 8.5 30.4 8.8 30.6 8.9C34.2 10.2 36.5 13.8 36.3 17.6C36.5 17.6 36.6 17.6 36.8 17.5C36.2 13.9 32.5 12.8 29.4 12C29.2 12 29.1 12.1 29.1 12.2C29 15.1 28.2 17.9 26.8 20.5C27 20.5 27.1 20.5 27.3 20.6C26.5 18.5 25.7 16.4 25 14.3C24.6 13.2 24.3 11.8 22.9 11.7C19.9 11.5 16.7 13.8 15 16C15.2 16.1 15.3 16.1 15.5 16.2C16.2 12.4 19.2 9.3 23 8.5C23.3 8.4 23.2 7.9 22.9 8C18.9 8.9 15.8 12.1 15 16.1C14.9 16.4 15.3 16.5 15.5 16.3C17 14.4 19.8 12.2 22.4 12.3C24.4 12.3 24.8 15 25.3 16.5C25.8 17.9 26.4 19.4 26.9 20.8C27 21 27.2 21.1 27.4 20.9C28.8 18.2 29.6 15.4 29.8 12.3C29.7 12.4 29.6 12.5 29.5 12.5C32.4 13.2 36 14.2 36.5 17.6C36.5 17.9 37 17.8 37 17.5C37.2 13.5 34.7 9.7 30.9 8.4C30.9 8.6 30.9 8.7 30.9 8.9C33.2 8.1 35.6 7.2 37.9 6.4C38.1 6.3 38.2 6 38 5.9C34.8 4.4 31.2 4.6 28.2 6.5C28 6.7 28.2 6.8 28.3 7C30 4.6 32.2 2.6 34.7 1C34.9 0.9 34.8 0.5 34.6 0.5C30.6 0.4 26.7 1.7 23.5 4.1C23 4.4 22.6 5 22.2 4.9C21.9 4.9 21.2 4.3 20.9 4.1C20.1 3.7 19.2 3.4 18.3 3.2C16.5 2.8 14.7 3 13 3.5C12.7 3.6 12.8 4 13.1 4C16.5 4.3 19.7 6 22 8.6C22.2 8.9 22.5 8.5 22.3 8.3Z" fill="black"/>
</g>
<defs>
<clipPath id="clip0">
<rect width="65" height="57.7" fill="white"/>
</clipPath>
</defs>
</svg>
