<svg xmlns="http://www.w3.org/2000/svg" viewBox="0 0 23.75 23.5"><g id="Ebene_2" data-name="Ebene 2"><g id="Icons"><path d="M23,0a.76.76,0,0,0-.75.75v22a.75.75,0,0,0,1.5,0V.75A.76.76,0,0,0,23,0Z"/><path d="M6.83,5.25H5.21L0,18H2.09L3.64,14.1H8.32L9.89,18H12L6.9,5.42Zm-2.45,7L5.72,8.9c.11-.29.21-.58.29-.85.11.31.21.6.31.85l1.33,3.39Z"/><path d="M17.4,8.3a7.48,7.48,0,0,0-1.75.21,7.58,7.58,0,0,0-1.6.6l-.2.1.63,1.49.24-.11a6.22,6.22,0,0,1,2.59-.67,1.83,1.83,0,0,1,1.37.43,2.12,2.12,0,0,1,.42,1.44v.34l-1.39,0c-3.23.09-4.87,1.15-4.87,3.14a2.75,2.75,0,0,0,.89,2.18,3.57,3.57,0,0,0,2.39.76A4.72,4.72,0,0,0,18,17.92,3.59,3.59,0,0,0,19.24,17l.24,1.08H21V11.59a3.18,3.18,0,0,0-.9-2.5A4,4,0,0,0,17.4,8.3Zm1.66,5.87A2.36,2.36,0,0,1,18.37,16a2.81,2.81,0,0,1-2,.64,1.83,1.83,0,0,1-1.17-.33,1.18,1.18,0,0,1-.39-1,1.3,1.3,0,0,1,.65-1.22,5.2,5.2,0,0,1,2.37-.47l1.19-.05Z"/></g></g></svg>